<svg xmlns="http://www.w3.org/2000/svg" xmlns:xlink="http://www.w3.org/1999/xlink" width="84" height="84" viewBox="0 0 84 84">
  <defs>
    <clipPath id="clip-path">
      <rect id="Rectángulo_464343" data-name="Rectángulo 464343" width="60.26" height="60.267" fill="#344866"/>
    </clipPath>
  </defs>
  <g id="Grupo_1211101" data-name="Grupo 1211101" transform="translate(0.289 0.137)">
    <g id="Grupo_1119665" data-name="Grupo 1119665" transform="translate(-0.289 -0.137)">
      <rect id="Rectángulo_402006" data-name="Rectángulo 402006" width="84" height="84" rx="5" fill="#a4e7f0"/>
    </g>
    <g id="Grupo_1211483" data-name="Grupo 1211483" transform="translate(10.321 10.076)">
      <g id="Grupo_1211482" data-name="Grupo 1211482" clip-path="url(#clip-path)">
        <path id="Trazado_1273990" data-name="Trazado 1273990" d="M71.886.4c.121.632.251,1.917-.552,1.935-.868.02-.742-1.258-.6-1.952a.536.536,0,0,1,.6-.387.544.544,0,0,1,.553.4" transform="translate(-57.331 0)" fill="#344866"/>
        <path id="Trazado_1273991" data-name="Trazado 1273991" d="M2.059,64.951c-.811.145-2.04.273-2.059-.559-.02-.891,1.27-.668,2.005-.595a.688.688,0,0,1,.053,1.154" transform="translate(0 -51.718)" fill="#344866"/>
        <path id="Trazado_1273992" data-name="Trazado 1273992" d="M17.084,24.1c.329.058,1.272.946,1.283,1.368a.584.584,0,0,1-.492.64c-.505.082-1.686-1-1.481-1.611a.617.617,0,0,1,.689-.4" transform="translate(-13.288 -19.554)" fill="#344866"/>
        <path id="Trazado_1273993" data-name="Trazado 1273993" d="M43.847,291.019l33.165.033a.649.649,0,1,1,0,1.3l-32.717.008a3.227,3.227,0,0,1-3.409-3.215l.005-2.44a.684.684,0,0,1,.771-.734h28.2c.494,0,.743.276.749.632a.661.661,0,0,1-.747.651l-27.616,0c-.318,1.216-.118,3.76,1.6,3.762" transform="translate(-33.188 -232.118)" fill="#344866"/>
        <path id="Trazado_1273994" data-name="Trazado 1273994" d="M123.453,24.951c-.354.455-1.118,1.3-1.61.9a.685.685,0,0,1-.17-.818c.273-.5,1.245-1.574,1.769-.922a.7.7,0,0,1,.01.843" transform="translate(-98.702 -19.403)" fill="#344866"/>
        <path id="Trazado_1273995" data-name="Trazado 1273995" d="M138.123,64.784c-.467.15-1.747.238-1.93-.371a.557.557,0,0,1,.359-.746c.514-.12,1.893-.262,1.969.458a.594.594,0,0,1-.4.659" transform="translate(-110.52 -51.598)" fill="#344866"/>
        <path id="Trazado_1273996" data-name="Trazado 1273996" d="M44.748,39.391A5.558,5.558,0,0,0,39.2,44.842a.645.645,0,1,1-1.288-.013c.118-6.149,7.389-7.734,7.446-6.1a.62.62,0,0,1-.614.662" transform="translate(-30.775 -30.948)" fill="#344866"/>
        <path id="Trazado_1273997" data-name="Trazado 1273997" d="M70.607,74.179c-1.684.653-.66,1.442-1.678,2.944A15.539,15.539,0,0,1,64.71,77.1c-.658-.352-.431-2.346-1.13-2.651-1.909-.831-.944.032-3.427.86a30.328,30.328,0,0,1-2.882-2.932c-.563-.722,1.5-1.916.94-3.123a1.559,1.559,0,0,0-1.569-.995l-23.8-.029c-.416,0-.775-.191-.775-.638l-.024-18.413-2.671-.007-.017,19.119a.712.712,0,0,1-.569.734.692.692,0,0,1-.718-.68l-.017-20.114c0-.932-.15-1.725-.071-2.686A2.813,2.813,0,0,1,26.037,43.4a2.772,2.772,0,0,1,1.328-2.868,7.385,7.385,0,0,0-1.872-2.469,9.742,9.742,0,1,1,12.935.312c-.177.295-.557.389-.548.814L51,39.152l.024-15.3a2.991,2.991,0,0,1,2.738-2.925l21.6.043A3.183,3.183,0,0,1,78.409,24.3l-.018,18.453A3.009,3.009,0,0,1,75.2,45.686l-9.263-.01-.026,8.3,3.129.2.782,2.414c.11.339.982.628,1.325.531.966-.272,1.951-1.6,2.658-.9l2.416,2.419c.707.709-.59,1.674-.892,2.672a1.576,1.576,0,0,0,.609,1.386c.814.386,1.675.259,2.416.8a22.938,22.938,0,0,1-.06,4.247c-1.243,1.02-2.225-.026-2.94,1.658-.427,1.007,1.366,2.07,1,2.953a18.945,18.945,0,0,1-2.894,2.877c-1.008.093-1.892-1.432-2.857-1.058m6.446-48.5a7.351,7.351,0,0,0-.013-1.931,1.89,1.89,0,0,0-1.848-1.514l-21.241,0c-1.784,0-1.87,2.231-1.565,3.455Zm-44.284,9.91.057,4.557a7.7,7.7,0,0,0,2.763-.06A12.681,12.681,0,0,1,37.7,37.293a8.452,8.452,0,1,0-11.207-.055,9.142,9.142,0,0,1,2.16,2.94,14.463,14.463,0,0,0,2.856-.049l-.048-4.61a3.12,3.12,0,0,1-2.339-3.545,3.082,3.082,0,0,1,6.121.32,3.262,3.262,0,0,1-2.476,3.3m42.671,8.828A1.752,1.752,0,0,0,77.1,42.555l-.014-15.563h-24.8l.01,15.714a1.771,1.771,0,0,0,1.68,1.708ZM33.967,32.484a1.8,1.8,0,1,0-1.8,1.8,1.8,1.8,0,0,0,1.8-1.8M51,43.118a16.488,16.488,0,0,0-.073-2.631L36.962,40.5a3.042,3.042,0,0,1,1.41,2.625Zm-15.344,1.2a1.406,1.406,0,0,0-.033-2.811l-6.9,0A1.385,1.385,0,0,0,27.3,42.852a1.364,1.364,0,0,0,1.389,1.464ZM58.306,61.28c-.366-1.055-1.574-1.971-.9-2.638l2.533-2.505c.143-.141.7-.079.7-.389l-.014-10.065-6.711-.02a2.966,2.966,0,0,1-2.346-1.228l-13.649,0a6.725,6.725,0,0,1-1.4,1.088c-.474.275.4,2.129-.866,3.181a3.187,3.187,0,0,1-2.318.432l.035,17.79,21.843-.017a28.515,28.515,0,0,1,.13-3.511l2.431-.783c.33-.106.642-1,.525-1.339M34.882,47.8a3.868,3.868,0,0,0,.126-2.158l-5.7-.006a3.645,3.645,0,0,0,.165,2.157Zm29.057,8.647a21.485,21.485,0,0,0,.62-2.429l.048-8.323a16.545,16.545,0,0,0-2.669.029l-.016,10.591a.774.774,0,0,0,.477.8c.363.135,1.5-.354,1.54-.672m4.12,19.415c.376-.733.2-1.669.715-2.236a6.574,6.574,0,0,1,2.29-.9c.835-.052,1.39.937,2.18,1.006a13.832,13.832,0,0,0,1.675-1.726c-1.234-2.535-1.556-1.363-.1-4.41l2.253-.763a13.359,13.359,0,0,0-.034-2.482l-2.293-.618c-.134-.838-1.171-1.766-.83-2.458L74.933,59.2A14.69,14.69,0,0,0,73.2,57.519c-2.5,1.212-1.375,1.565-4.395.11-.551-.575-.315-1.594-.766-2.242a17.931,17.931,0,0,0-2.441,0c-.408.678-.224,1.64-.749,2.269-3.288,1.466-1.718,1.029-4.461-.145A14.338,14.338,0,0,0,58.7,59.247c1.183,2.4,1.6,1.474.089,4.367-.463.585-1.532.361-2.193.716a7.571,7.571,0,0,0,.038,2.57c.64.361,1.7.14,2.15.721a5.323,5.323,0,0,1,.926,2.261c.056.842-.93,1.361-1.011,2.161a13.157,13.157,0,0,0,1.734,1.694c2.575-1.285,1.373-1.513,4.4-.124.517.638.333,1.607.744,2.265a14.015,14.015,0,0,0,2.475-.016" transform="translate(-18.165 -16.989)" fill="#344866"/>
        <path id="Trazado_1273998" data-name="Trazado 1273998" d="M237.258,230.839a6.37,6.37,0,1,1-6.37-6.37,6.37,6.37,0,0,1,6.37,6.37m-1.289,0a5.082,5.082,0,1,0-5.082,5.082,5.082,5.082,0,0,0,5.082-5.082" transform="translate(-182.238 -182.198)" fill="#344866"/>
        <path id="Trazado_1273999" data-name="Trazado 1273999" d="M249.3,246.539a2.724,2.724,0,1,1-2.724-2.724,2.724,2.724,0,0,1,2.724,2.724m-1.292,0a1.429,1.429,0,1,0-1.429,1.429,1.429,1.429,0,0,0,1.429-1.429" transform="translate(-197.933 -197.901)" fill="#344866"/>
        <path id="Trazado_1274000" data-name="Trazado 1274000" d="M262.086,90.341c-.383-.339-.163-.856-.154-1.344l2.843-1.514c-1.578-1.181-3.472-.9-2.79-2.875,1.53.756,3.024,1.484,4.539,2.333.321.18.185.862.026,1.092Z" transform="translate(-212.533 -68.675)" fill="#344866"/>
        <path id="Trazado_1274001" data-name="Trazado 1274001" d="M211.1,88.909c.448.24.323.984.12,1.458l-4.459-2.322c-.429-.223-.283-1.008.1-1.2l4.392-2.225c.771,2.034-1.471,1.721-2.745,2.9Z" transform="translate(-167.613 -68.684)" fill="#344866"/>
        <path id="Trazado_1274002" data-name="Trazado 1274002" d="M239.133,84.966c-.169.434-.991.243-1.4.135l2.67-6.921c.289-.241.974-.143,1.37-.022Z" transform="translate(-192.966 -63.337)" fill="#344866"/>
        <path id="Trazado_1274003" data-name="Trazado 1274003" d="M282.733,34.134a.687.687,0,1,1-.688-.688.688.688,0,0,1,.688.688" transform="translate(-228.374 -27.148)" fill="#344866"/>
        <path id="Trazado_1274004" data-name="Trazado 1274004" d="M298.69,34.141a.688.688,0,1,1-.688-.688.688.688,0,0,1,.688.688" transform="translate(-241.325 -27.153)" fill="#344866"/>
        <path id="Trazado_1274005" data-name="Trazado 1274005" d="M266.735,34.146a.686.686,0,1,1-.686-.686.686.686,0,0,1,.686.686" transform="translate(-215.391 -27.159)" fill="#344866"/>
        <path id="Trazado_1274006" data-name="Trazado 1274006" d="M115.756,175.387a7.748,7.748,0,0,1-3.37.039c-.634-.114-.222-1.857-1.192-2.163-.91-.287-1.8,1.18-2.411.677a14.547,14.547,0,0,1-2.147-2.165c-.476-.6.921-1.466.705-2.339-.257-1.041-1.635-.5-2.2-1.255a9.69,9.69,0,0,1,.023-3.311c.144-.655,1.881-.195,2.19-1.263.232-.8-1.175-1.747-.71-2.321a13.632,13.632,0,0,1,2.165-2.16c.637-.5,1.4.912,2.392.682.965-.224.569-2.045,1.2-2.158a11.74,11.74,0,0,1,3.29-.025c.653.07.271,1.788,1.163,2.163.957.4,1.827-1.241,2.549-.608a16.532,16.532,0,0,1,2.04,2.064c.515.645-.9,1.619-.7,2.326.323,1.168,1.575.51,2.2,1.29a9.6,9.6,0,0,1,.015,3.382c-1.021.905-1.887.036-2.232,1.365-.148.568,1.2,1.639.726,2.2a11.734,11.734,0,0,1-2.291,2.218c-.739.2-1.327-1.068-2.325-.737-.833.276-.538,1.95-1.077,2.1m-.869-1.329c.367-.459.134-1.216.56-1.5,2.608-1.72,2.61.09,3.457-.121.393-.1,1.2-.793,1.067-1.09l-.663-1.508c-.223-.507.412-1.365.758-1.882.313-.467,1.175-.2,1.537-.6a1.652,1.652,0,0,0-.027-1.664c-.385-.367-1.234-.127-1.518-.589-.328-.533-.963-1.363-.736-1.878l.668-1.512c-.1-.408-.769-1.136-1.221-1.089-.553.058-.937.8-1.522.648-3.009-.777-1.67-1.674-2.379-2.294a1.594,1.594,0,0,0-1.623-.009c-.414.39-.118,1.237-.6,1.547-2.53,1.64-2.541.035-3.376.091a1.737,1.737,0,0,0-1.136,1.094c-.1.8,1.6.929-.1,3.405-.321.468-1.159.205-1.521.585a1.667,1.667,0,0,0,0,1.661c.486.5,1.721-.433,2.289,2.411.114.574-.736,1.017-.687,1.563a1.739,1.739,0,0,0,1.152,1.112c.564.041.965-.772,1.529-.654,2.357.49,1.933,1.036,2.433,2.4.459.076,1.311.295,1.655-.136" transform="translate(-85.236 -127.858)" fill="#344866"/>
        <path id="Trazado_1274007" data-name="Trazado 1274007" d="M140.131,188.574a3.9,3.9,0,1,1-3.9-3.9,3.9,3.9,0,0,1,3.9,3.9m-1.293,0a2.609,2.609,0,1,0-2.609,2.609,2.609,2.609,0,0,0,2.609-2.609" transform="translate(-107.412 -149.897)" fill="#344866"/>
      </g>
    </g>
  </g>
</svg>
