<svg xmlns="http://www.w3.org/2000/svg" xmlns:xlink="http://www.w3.org/1999/xlink" width="85" height="85" viewBox="0 0 85 85">
  <defs>
    <clipPath id="clip-path">
      <rect id="Rectángulo_464346" data-name="Rectángulo 464346" width="64.123" height="60.784" fill="#344866"/>
    </clipPath>
  </defs>
  <g id="Grupo_1211111" data-name="Grupo 1211111" transform="translate(-179.734 -5520.842)">
    <rect id="Rectángulo_402006" data-name="Rectángulo 402006" width="85" height="85" rx="5" transform="translate(179.734 5520.842)" fill="#69d7e5"/>
    <g id="Grupo_1211485" data-name="Grupo 1211485" transform="translate(190.173 5532.95)">
      <g id="Grupo_1211484" data-name="Grupo 1211484" clip-path="url(#clip-path)">
        <path id="Trazado_1274008" data-name="Trazado 1274008" d="M59.618,60.773l-55,.01a4.33,4.33,0,0,1-4.608-4.24L0,52.842c0-1.257,1.587-.7,2.33-.935a5,5,0,0,1-.457-2.015l0-29.467a3.291,3.291,0,0,1,3.1-3.49l8.9-.066.033-14.775a2.13,2.13,0,0,1,2.5-2.076H42.395l7.8,7.82.062,9.03,8.89.065a3.293,3.293,0,0,1,3.094,3.492l.006,29.056a5.162,5.162,0,0,1-.472,2.432c.766.221,2.351-.323,2.347.926l-.011,3.671a4.294,4.294,0,0,1-4.494,4.262M48.725,43.248,48.72,8.981l-5.433-.074a2.115,2.115,0,0,1-2-2.142l-.048-5.277L16.4,1.48c-.568,0-1,.212-1,.843l0,41.047c0,.54.261.9.823.9l31.682,0c.576,0,.823-.34.823-1.021M47.544,7.35,42.909,2.7a23.94,23.94,0,0,0-.086,4.075c0,1.122,3.634.56,4.722.573M57.59,20.8a.777.777,0,0,1,.741.859l-.009,27.205c0,.474-.371.735-.856.735H6.658c-.488,0-.858-.255-.858-.733L5.792,21.663a.793.793,0,0,1,.832-.868l7.221-.029a13,13,0,0,0,0-2.35L5.388,18.4A1.957,1.957,0,0,0,3.38,20.426l.013,29.661a1.905,1.905,0,0,0,2.034,1.9H58.693a1.9,1.9,0,0,0,2.033-1.9l.016-29.665a1.91,1.91,0,0,0-1.819-2l-8.642-.016a9.011,9.011,0,0,0,.036,2.384Zm-7.4,23.1a2.162,2.162,0,0,1-2.268,1.921l-31.71,0A2.216,2.216,0,0,1,13.9,43.6l-.022-21.267-6.554.007L7.328,48.1l49.471,0,0-25.749-6.548.021Zm12.333,9.65-21.583.036a3.309,3.309,0,0,1-.711,2.755,3.023,3.023,0,0,1-2.29.834l-11.927,0a2.83,2.83,0,0,1-2.212-.95,3.378,3.378,0,0,1-.616-2.644L1.563,53.559c-.081.953-.022,1.743-.031,2.7a2.9,2.9,0,0,0,2.884,3.013H59.7a2.868,2.868,0,0,0,2.876-2.815,16.071,16.071,0,0,0-.053-2.9M38.8,55.636a1.658,1.658,0,0,0,.427-2.089l-14.34.035c-.355.392-.268,1.951.519,1.957Z" transform="translate(0 0)" fill="#344866"/>
        <path id="Trazado_1274009" data-name="Trazado 1274009" d="M127.042,58c-.356,1.5-1.5,1.264-3.048,1.24-1.853-.028-1.114-2.567-2.555-1.739s-2.087-.255-3.124-1.32c-1-1.029.262-1.9.049-2.422a.908.908,0,0,0-.7-.615c-1.4-.308-1.23-1.668-1.165-3.073.068-1.464,1.406-1.008,1.855-1.889.289-.568-1.094-1.437.013-2.541l1.212-1.208c1.142-1.139,2.652,1.118,3.039-.633.3-1.368,1.706-1.249,3.225-1.12,1.368.116.9,1.472,1.664,1.776.743.295,1.551-1.041,2.651.068l1.107,1.116c1.109,1.118-.285,1.973.01,2.542.456.882,1.785.425,1.857,1.889.07,1.416.229,2.749-1.168,3.067a.894.894,0,0,0-.7.622c-.21.536,1.043,1.371.058,2.414a18.233,18.233,0,0,1-1.3,1.3c-1.214,1.054-2.591-1.073-2.97.524m-1.512-.5a1.955,1.955,0,0,1,1.348-1.522,2.109,2.109,0,0,1,2.094.159c.375,0,1.144-.706,1.016-1.071a1.945,1.945,0,0,1-.112-2.13,1.916,1.916,0,0,1,1.468-1.262c.406-.121.385-1.417-.047-1.5-.863-.162-1.13-.606-1.448-1.314a1.823,1.823,0,0,1,.192-2.1c-.047-.326-.755-1.12-1.076-.957a2.093,2.093,0,0,1-2.032.13,1.906,1.906,0,0,1-1.388-1.666c-.359-.2-1.266-.234-1.52.083-.019.89-.642,1.278-1.333,1.572a2.108,2.108,0,0,1-2.021-.111c-.358-.167-1.156.668-1.037,1.031a1.829,1.829,0,0,1,.143,2c-.358.742-.526,1.126-1.469,1.338-.447.1-.417,1.48.061,1.555.867.135,1.058.528,1.36,1.2a1.729,1.729,0,0,1-.214,2.2c.291.393.689.967,1.126,1.018a2.285,2.285,0,0,1,3.444,1.34c.149.341,1.337.37,1.446,0" transform="translate(-92.748 -33.932)" fill="#344866"/>
        <rect id="Rectángulo_464344" data-name="Rectángulo 464344" width="26.402" height="1.596" transform="translate(18.858 40.365)" fill="#344866"/>
        <rect id="Rectángulo_464345" data-name="Rectángulo 464345" width="26.436" height="1.593" transform="translate(18.831 37.493)" fill="#344866"/>
        <path id="Trazado_1274010" data-name="Trazado 1274010" d="M122.556,144.128c.617,1.069,3.06,2.39,2.393,3.379a.751.751,0,0,1-1.117.112l-2.951-2.944a.787.787,0,0,1,.026-1.1l2.867-2.863a.78.78,0,0,1,1.039-.071.809.809,0,0,1,.031,1.159Z" transform="translate(-96.107 -111.88)" fill="#344866"/>
        <path id="Trazado_1274011" data-name="Trazado 1274011" d="M173.949,147.593a.8.8,0,0,1-1.084.048.731.731,0,0,1-.1-.951l2.384-2.54-2.352-2.437a.767.767,0,0,1,.1-1.049.787.787,0,0,1,1.041.076l2.866,2.855a.825.825,0,0,1-.062,1.206Z" transform="translate(-137.491 -111.902)" fill="#344866"/>
        <path id="Trazado_1274012" data-name="Trazado 1274012" d="M151.42,147.007a.811.811,0,0,1-1.011.647.788.788,0,0,1-.484-.984l1.554-5.8a.773.773,0,0,1,.866-.626.757.757,0,0,1,.621.957Z" transform="translate(-119.383 -111.694)" fill="#344866"/>
        <path id="Trazado_1274013" data-name="Trazado 1274013" d="M144.867,66.585a4.339,4.339,0,1,1-4.339-4.339,4.339,4.339,0,0,1,4.339,4.339m-1.531,0a2.809,2.809,0,1,0-2.809,2.809,2.809,2.809,0,0,0,2.809-2.809" transform="translate(-108.468 -49.576)" fill="#344866"/>
      </g>
    </g>
  </g>
</svg>
