<svg xmlns="http://www.w3.org/2000/svg" xmlns:xlink="http://www.w3.org/1999/xlink" width="85" height="85" viewBox="0 0 85 85">
  <defs>
    <clipPath id="clip-path">
      <rect id="Rectángulo_464356" data-name="Rectángulo 464356" width="63.5" height="62.792" fill="#344866"/>
    </clipPath>
  </defs>
  <g id="Grupo_1211113" data-name="Grupo 1211113" transform="translate(-179.734 -5520.842)">
    <rect id="Rectángulo_402006" data-name="Rectángulo 402006" width="85" height="85" rx="5" transform="translate(179.734 5520.842)" fill="#69d7e5"/>
    <g id="Grupo_1211488" data-name="Grupo 1211488" transform="translate(187.485 5531.946)">
      <path id="Trazado_1274014" data-name="Trazado 1274014" d="M3.478,100.143l5.34-3.819,5.329,3.81-5.31,3.8ZM0,100.13l8.836,6.31,8.786-6.312L8.811,93.821Z" transform="translate(0 -74.815)" fill="#344866"/>
      <rect id="Rectángulo_464347" data-name="Rectángulo 464347" width="2.026" height="2.04" transform="translate(18.94 8.096)" fill="#344866"/>
      <rect id="Rectángulo_464348" data-name="Rectángulo 464348" width="2.026" height="2.04" transform="translate(22.991 8.096)" fill="#344866"/>
      <rect id="Rectángulo_464349" data-name="Rectángulo 464349" width="2.026" height="2.04" transform="translate(48.314 56.715)" fill="#344866"/>
      <rect id="Rectángulo_464350" data-name="Rectángulo 464350" width="2.026" height="2.04" transform="translate(52.365 56.715)" fill="#344866"/>
      <g id="Grupo_1211487" data-name="Grupo 1211487">
        <g id="Grupo_1211486" data-name="Grupo 1211486" clip-path="url(#clip-path)">
          <path id="Trazado_1274015" data-name="Trazado 1274015" d="M237.61,54.137l-2.1,2.27,6.637,0a4.374,4.374,0,0,1,1.9-1.833l0-28.648a3.787,3.787,0,0,1-1.864-1.867l-10.244-.01a16.592,16.592,0,0,1-.05-2L242.19,22a3.128,3.128,0,0,1,3.17-1.99,3.038,3.038,0,0,1,2.694,2.537,3.107,3.107,0,0,1-1.98,3.359l.018,28.726a3.023,3.023,0,0,1-.549,5.828A3.093,3.093,0,0,1,242.2,58.5l-6.7.012,2.09,2.246a6.306,6.306,0,0,1-1.335,1.46l-4.763-4.743,4.686-4.7a5.123,5.123,0,0,1,1.437,1.365m8.446-31.1a1,1,0,1,0-1,1,1,1,0,0,0,1-1m0,34.439a1,1,0,1,0-1,1,1,1,0,0,0,1-1" transform="translate(-184.592 -15.949)" fill="#344866"/>
          <path id="Trazado_1274016" data-name="Trazado 1274016" d="M42.45,184.562l4.71,4.712L42.408,194a10.725,10.725,0,0,1-1.36-1.361l2.1-2.309-8.727-.038a3.105,3.105,0,0,1-3.166,2,3.039,3.039,0,0,1-2.7-2.538,3.109,3.109,0,0,1,1.974-3.356l.009-21.407a18.968,18.968,0,0,1,2.025,0l.008,21.39a3.732,3.732,0,0,1,1.863,1.872l8.713-.015L41.066,186a3.986,3.986,0,0,1,1.384-1.438m-9.9,4.71a1,1,0,1,0-1,1,1,1,0,0,0,1-1" transform="translate(-22.745 -131.544)" fill="#344866"/>
          <rect id="Rectángulo_464351" data-name="Rectángulo 464351" width="2.026" height="2.04" transform="translate(14.888 8.096)" fill="#344866"/>
          <rect id="Rectángulo_464352" data-name="Rectángulo 464352" width="2.026" height="2.04" transform="translate(56.417 56.715)" fill="#344866"/>
          <path id="Trazado_1274017" data-name="Trazado 1274017" d="M104.534,59.888l-.025-3.986a3.128,3.128,0,0,1,3.238-3.241l5.874.017.006-5.511-8.971-5.644,8.94-5.6.039-6.548-6.061-.007-.031-3.032H98.476a12.2,12.2,0,0,1-.021-2.029l9.075.009.031-3.048,6.065,0,.007-7.087-8.1-.008,0-14.175h18.237V14.174l-8.107.01.007,7.087h6.075v8.1l-6.081.01.008,6.5,8.945,5.624-8.94,5.675,0,5.5,6.084,0a3,3,0,0,1,3.017,3.015v4.08a3,3,0,0,1-3.033,3.023H107.556a2.957,2.957,0,0,1-3.022-2.9m17.2-57.869H107.553V12.163h14.181ZM109.579,27.356h10.129V23.29H109.579Zm5.109,18.029,6.119-3.865-6.163-3.869-6.165,3.873ZM121.8,60.777a1.035,1.035,0,0,0,.926-1.025V55.7a.991.991,0,0,0-1.006-1l-14.162,0a.986.986,0,0,0-1.006,1l-.011,4.05a1.06,1.06,0,0,0,1.023,1.022Z" transform="translate(-78.484 -0.001)" fill="#344866"/>
          <rect id="Rectángulo_464353" data-name="Rectángulo 464353" width="10.129" height="2.04" transform="translate(31.094 4.044)" fill="#344866"/>
          <rect id="Rectángulo_464354" data-name="Rectángulo 464354" width="6.077" height="2.04" transform="translate(31.094 8.096)" fill="#344866"/>
          <rect id="Rectángulo_464355" data-name="Rectángulo 464355" width="2.026" height="2.04" transform="translate(39.198 8.096)" fill="#344866"/>
        </g>
      </g>
    </g>
  </g>
</svg>
