<svg xmlns="http://www.w3.org/2000/svg" xmlns:xlink="http://www.w3.org/1999/xlink" width="96" height="96" viewBox="0 0 96 96">
  <defs>
    <clipPath id="clip-path">
      <rect id="Rectángulo_454829" data-name="Rectángulo 454829" width="96" height="96" fill="#1e535a"/>
    </clipPath>
    <clipPath id="clip-path-2">
      <rect id="Rectángulo_464421" data-name="Rectángulo 464421" width="32.373" height="36.013" fill="#1e535a"/>
    </clipPath>
  </defs>
  <g id="Grupo_1211141" data-name="Grupo 1211141" transform="translate(-1481 -8562.5)">
    <g id="Grupo_1177591" data-name="Grupo 1177591" transform="translate(1481 8562.5)">
      <g id="Grupo_1177589" data-name="Grupo 1177589" transform="translate(0 0)">
        <g id="Grupo_1177587" data-name="Grupo 1177587" clip-path="url(#clip-path)">
          <path id="Trazado_997422" data-name="Trazado 997422" d="M92.081,42.491a44.136,44.136,0,0,0-9.97-22.967,5.076,5.076,0,0,0-7.142-6.838A44.071,44.071,0,0,0,52.151,3.77a5.077,5.077,0,0,0-9.861.2A44.132,44.132,0,0,0,20.4,13.329a5.079,5.079,0,0,0-7.048,7.1A44.1,44.1,0,0,0,4.112,42.448,5.08,5.08,0,0,0,3.99,52.4a44.082,44.082,0,0,0,8.949,22.468,5.078,5.078,0,0,0,6.9,7.17,44.128,44.128,0,0,0,22.412,9.8,5.078,5.078,0,0,0,9.949.2,44.091,44.091,0,0,0,22.985-9.08,5.077,5.077,0,0,0,7.107-6.874A44.147,44.147,0,0,0,92.2,52.349a5.078,5.078,0,0,0-.119-9.858M77.74,22.024a5.05,5.05,0,0,0,2.812-.851,41.913,41.913,0,0,1,9.25,21.3,5.086,5.086,0,0,0-3.246,2.351l-12.98-4.867c.01-.142.02-.286.02-.433a5.079,5.079,0,0,0-2.151-4.15l5.678-13.4a5.5,5.5,0,0,0,.616.041M75,21.216,69.354,34.523a5.026,5.026,0,0,0-5.594,3.23L40.279,32.344a4.941,4.941,0,0,0-.106-1.011l33.322-11.6A5.1,5.1,0,0,0,75,21.216M47.246,10.165a5.083,5.083,0,0,0,4.989-4.122,41.844,41.844,0,0,1,21.158,8.275,5.054,5.054,0,0,0-.735,2.625,5.335,5.335,0,0,0,.048.671L39.217,29.273a5.1,5.1,0,0,0-.92-.92l8.784-18.2c.056,0,.109.008.165.008M42.3,6.243A5.083,5.083,0,0,0,44.86,9.569L36.248,27.4a5.1,5.1,0,0,0-1.049-.109,5.045,5.045,0,0,0-2.9.91L22.1,19.678A5.052,5.052,0,0,0,21.923,15,41.877,41.877,0,0,1,42.3,6.243M10.041,46.332,31.153,35.442a5.064,5.064,0,0,0,4.006,2.014l7.236,23.129a5.166,5.166,0,0,0-1.12,1.239l-31.3-13.04a5.048,5.048,0,0,0,.187-1.348,5.107,5.107,0,0,0-.124-1.1m4.986-24.391a5.079,5.079,0,0,0,5.673-.484l10.079,8.417a5.068,5.068,0,0,0-.56,3.512L9.07,44.29A5.081,5.081,0,0,0,6.38,42.526a41.859,41.859,0,0,1,8.647-20.585m2.1,50.717a5.067,5.067,0,0,0-2.523.674A41.822,41.822,0,0,1,6.263,52.374,5.087,5.087,0,0,0,8.9,50.783l31.609,13.17a5.45,5.45,0,0,0-.041.611,5.081,5.081,0,0,0,.3,1.718L21.657,75.44a5.081,5.081,0,0,0-4.528-2.782M42.349,89.575a41.919,41.919,0,0,1-20.912-9.149,5.029,5.029,0,0,0,.775-2.686l0-.058L42,68.2A5.082,5.082,0,0,0,43.8,69.329l1.186,17.043a5.082,5.082,0,0,0-2.632,3.2m2.105-29.97-7.081-22.64a5.089,5.089,0,0,0,2.415-2.415L63.459,40a5.052,5.052,0,0,0,.808,2.311L48.032,60.13a5.019,5.019,0,0,0-3.577-.524m7.74,30.167a5.081,5.081,0,0,0-4.948-3.937l-.038,0L46.081,69.62a5.073,5.073,0,0,0,3.106-1.507L72.853,78.551c0,.046-.008.086-.008.132a5.057,5.057,0,0,0,.752,2.65,41.841,41.841,0,0,1-21.4,8.439M73.423,76.334,50.373,66.165a5.052,5.052,0,0,0-.666-4.52L65.893,43.877a5.052,5.052,0,0,0,2.622.735,5.594,5.594,0,0,0,.623-.041l6.05,29.836a5.071,5.071,0,0,0-1.766,1.928m7.292-1.9a5.051,5.051,0,0,0-3.377-.8L71.285,43.788a5.1,5.1,0,0,0,1.6-1.672L85.858,46.98a4.506,4.506,0,0,0-.023.456,5.08,5.08,0,0,0,4.084,4.981,41.876,41.876,0,0,1-9.2,22.017" transform="translate(0 0.001)" fill="#1e535a"/>
        </g>
      </g>
    </g>
    <g id="Elipse_13614" data-name="Elipse 13614" transform="translate(1497.766 8579.268)" fill="#d5f4f8" stroke="#1e535a" stroke-width="3">
      <ellipse cx="31.232" cy="31.233" rx="31.232" ry="31.233" stroke="none"/>
      <ellipse cx="31.232" cy="31.233" rx="29.732" ry="29.733" fill="none"/>
    </g>
    <g id="Grupo_1211587" data-name="Grupo 1211587" transform="translate(1514.813 8593.494)">
      <g id="Grupo_1211586" data-name="Grupo 1211586" clip-path="url(#clip-path-2)">
        <path id="Trazado_1274230" data-name="Trazado 1274230" d="M97.012,136.711,94,136.757l-.755-1.855a10.661,10.661,0,0,1-2.742-1.129l-1.807.756-2.131-2.093.769-1.82a11.833,11.833,0,0,1-1.155-2.783l-1.821-.73,0-2.953,1.834-.759a10.865,10.865,0,0,1,1.146-2.747l-.772-1.814,2.1-2.121,1.854.758a10.971,10.971,0,0,1,2.746-1.14l.707-1.8a28.7,28.7,0,0,1,3.022,0l.741,1.819a10.96,10.96,0,0,1,2.746,1.133l1.813-.774,2.1,2.132-.773,1.775a11.3,11.3,0,0,1,1.155,2.808l1.825.719-.016,2.986-1.809.718a11.1,11.1,0,0,1-1.151,2.773l.762,1.819-2.09,2.095-1.813-.762a10.826,10.826,0,0,1-2.778,1.142Zm3.72-11.09a5.248,5.248,0,1,0-5.248,5.248,5.248,5.248,0,0,0,5.248-5.248" transform="translate(-74.229 -100.744)" fill="#1e535a"/>
        <path id="Trazado_1274231" data-name="Trazado 1274231" d="M152.527,192.227c-.642-.614-1.233-1.189-1.807-1.814a.772.772,0,0,1,1.135-1.042l1.185,1.159,2.619-2.6a.769.769,0,0,1,1.032,1.139l-3.046,3.085a.787.787,0,0,1-1.118.071" transform="translate(-132.478 -165.212)" fill="#1e535a"/>
        <path id="Trazado_1274232" data-name="Trazado 1274232" d="M9.984,17.184c.44.113.854-.023,1.354.074-.032.242-.282.322-.418.547l.795,1.887a.494.494,0,0,1-.08.417c-.156.272-1.192-.008-1.766.2a.565.565,0,0,0-.248.812c.346.636,1.5.012,1.417.553l-2.108.9.006,4.6c.615.414,1.466.414,2,.887a10.233,10.233,0,0,1,.754,1.846c.018.7-.636,1.327-.752,2.023l1.053,1.2L.717,33.14A.671.671,0,0,1,0,32.481L0,.74A.671.671,0,0,1,.716,0H20.229l.013,3.84a1.471,1.471,0,0,0,1.462,1.48l3.86.025,0,9.637a8.214,8.214,0,0,1-1.185-.4l-.825-2.031-4.485.013c-.231,0-.263.355-.361.57l-8.511.021a.6.6,0,0,0-.653.581.576.576,0,0,0,.57.6l8.163.055a7.548,7.548,0,0,1-2.093.933l-1.989-.764c-.595.337-.942,1.157-1.571,1.391-.7.309-2.94-.353-3.072.551a.586.586,0,0,0,.434.678m12.791-9.9a.634.634,0,0,0,.468-.723.583.583,0,0,0-.58-.475l-12.465,0a.594.594,0,0,0-.654.574.584.584,0,0,0,.548.622ZM6.672,9.359l0-2.508a.619.619,0,0,0-.677-.614H3.578a.616.616,0,0,0-.67.613l0,2.487a.646.646,0,0,0,.68.654c1.366-.019,3.089.3,3.088-.634m16.078.788c.41-.144.547-.412.494-.708a.6.6,0,0,0-.581-.491l-12.466,0a.605.605,0,0,0-.654.588.577.577,0,0,0,.573.606Zm-16.6,6.926a.66.66,0,0,0,.517-.637l0-2.52a.6.6,0,0,0-.561-.605l-2.527,0a.626.626,0,0,0-.674.626l0,2.488a.654.654,0,0,0,.676.652Zm-.1,7.057a.6.6,0,0,0,.617-.612V21a.631.631,0,0,0-.678-.624H3.579a.639.639,0,0,0-.674.641V23.5a.629.629,0,0,0,.678.632Z" fill="#1e535a"/>
        <path id="Trazado_1274233" data-name="Trazado 1274233" d="M182.569,4.508l-3.965.04a35.961,35.961,0,0,1-.031-4.055Z" transform="translate(-157.102 -0.434)" fill="#1e535a"/>
      </g>
    </g>
  </g>
</svg>
