<svg xmlns="http://www.w3.org/2000/svg" xmlns:xlink="http://www.w3.org/1999/xlink" width="96" height="96" viewBox="0 0 96 96">
  <defs>
    <clipPath id="clip-path">
      <rect id="Rectángulo_454829" data-name="Rectángulo 454829" width="96" height="96" fill="#1e535a"/>
    </clipPath>
    <clipPath id="clip-path-2">
      <rect id="Rectángulo_464420" data-name="Rectángulo 464420" width="36.883" height="38.637" fill="#1e535a"/>
    </clipPath>
  </defs>
  <g id="Grupo_1211140" data-name="Grupo 1211140" transform="translate(-1481 -8562.5)">
    <g id="Grupo_1177591" data-name="Grupo 1177591" transform="translate(1481 8562.5)">
      <g id="Grupo_1177589" data-name="Grupo 1177589" transform="translate(0 0)">
        <g id="Grupo_1177587" data-name="Grupo 1177587" clip-path="url(#clip-path)">
          <path id="Trazado_997422" data-name="Trazado 997422" d="M92.081,42.491a44.136,44.136,0,0,0-9.97-22.967,5.076,5.076,0,0,0-7.142-6.838A44.071,44.071,0,0,0,52.151,3.77a5.077,5.077,0,0,0-9.861.2A44.132,44.132,0,0,0,20.4,13.329a5.079,5.079,0,0,0-7.048,7.1A44.1,44.1,0,0,0,4.112,42.448,5.08,5.08,0,0,0,3.99,52.4a44.082,44.082,0,0,0,8.949,22.468,5.078,5.078,0,0,0,6.9,7.17,44.128,44.128,0,0,0,22.412,9.8,5.078,5.078,0,0,0,9.949.2,44.091,44.091,0,0,0,22.985-9.08,5.077,5.077,0,0,0,7.107-6.874A44.147,44.147,0,0,0,92.2,52.349a5.078,5.078,0,0,0-.119-9.858M77.74,22.024a5.05,5.05,0,0,0,2.812-.851,41.913,41.913,0,0,1,9.25,21.3,5.086,5.086,0,0,0-3.246,2.351l-12.98-4.867c.01-.142.02-.286.02-.433a5.079,5.079,0,0,0-2.151-4.15l5.678-13.4a5.5,5.5,0,0,0,.616.041M75,21.216,69.354,34.523a5.026,5.026,0,0,0-5.594,3.23L40.279,32.344a4.941,4.941,0,0,0-.106-1.011l33.322-11.6A5.1,5.1,0,0,0,75,21.216M47.246,10.165a5.083,5.083,0,0,0,4.989-4.122,41.844,41.844,0,0,1,21.158,8.275,5.054,5.054,0,0,0-.735,2.625,5.335,5.335,0,0,0,.048.671L39.217,29.273a5.1,5.1,0,0,0-.92-.92l8.784-18.2c.056,0,.109.008.165.008M42.3,6.243A5.083,5.083,0,0,0,44.86,9.569L36.248,27.4a5.1,5.1,0,0,0-1.049-.109,5.045,5.045,0,0,0-2.9.91L22.1,19.678A5.052,5.052,0,0,0,21.923,15,41.877,41.877,0,0,1,42.3,6.243M10.041,46.332,31.153,35.442a5.064,5.064,0,0,0,4.006,2.014l7.236,23.129a5.166,5.166,0,0,0-1.12,1.239l-31.3-13.04a5.048,5.048,0,0,0,.187-1.348,5.107,5.107,0,0,0-.124-1.1m4.986-24.391a5.079,5.079,0,0,0,5.673-.484l10.079,8.417a5.068,5.068,0,0,0-.56,3.512L9.07,44.29A5.081,5.081,0,0,0,6.38,42.526a41.859,41.859,0,0,1,8.647-20.585m2.1,50.717a5.067,5.067,0,0,0-2.523.674A41.822,41.822,0,0,1,6.263,52.374,5.087,5.087,0,0,0,8.9,50.783l31.609,13.17a5.45,5.45,0,0,0-.041.611,5.081,5.081,0,0,0,.3,1.718L21.657,75.44a5.081,5.081,0,0,0-4.528-2.782M42.349,89.575a41.919,41.919,0,0,1-20.912-9.149,5.029,5.029,0,0,0,.775-2.686l0-.058L42,68.2A5.082,5.082,0,0,0,43.8,69.329l1.186,17.043a5.082,5.082,0,0,0-2.632,3.2m2.105-29.97-7.081-22.64a5.089,5.089,0,0,0,2.415-2.415L63.459,40a5.052,5.052,0,0,0,.808,2.311L48.032,60.13a5.019,5.019,0,0,0-3.577-.524m7.74,30.167a5.081,5.081,0,0,0-4.948-3.937l-.038,0L46.081,69.62a5.073,5.073,0,0,0,3.106-1.507L72.853,78.551c0,.046-.008.086-.008.132a5.057,5.057,0,0,0,.752,2.65,41.841,41.841,0,0,1-21.4,8.439M73.423,76.334,50.373,66.165a5.052,5.052,0,0,0-.666-4.52L65.893,43.877a5.052,5.052,0,0,0,2.622.735,5.594,5.594,0,0,0,.623-.041l6.05,29.836a5.071,5.071,0,0,0-1.766,1.928m7.292-1.9a5.051,5.051,0,0,0-3.377-.8L71.285,43.788a5.1,5.1,0,0,0,1.6-1.672L85.858,46.98a4.506,4.506,0,0,0-.023.456,5.08,5.08,0,0,0,4.084,4.981,41.876,41.876,0,0,1-9.2,22.017" transform="translate(0 0.001)" fill="#1e535a"/>
        </g>
      </g>
    </g>
    <g id="Elipse_13614" data-name="Elipse 13614" transform="translate(1497.766 8579.268)" fill="#d5f4f8" stroke="#1e535a" stroke-width="3">
      <ellipse cx="31.232" cy="31.233" rx="31.232" ry="31.233" stroke="none"/>
      <ellipse cx="31.232" cy="31.233" rx="29.732" ry="29.733" fill="none"/>
    </g>
    <g id="Grupo_1211585" data-name="Grupo 1211585" transform="translate(1510.559 8591.182)">
      <g id="Grupo_1211584" data-name="Grupo 1211584" clip-path="url(#clip-path-2)">
        <path id="Trazado_1274223" data-name="Trazado 1274223" d="M123.8,140.743c-.574.641-1.144,1.2-1.722,1.778a.77.77,0,0,1-1.1-.016l-4.661-4.545c-.347-.339-.118-.784.1-1.129l-2.539-2.528a8.447,8.447,0,1,1,1.439-1.585l2.634,2.5a1.008,1.008,0,0,1,1.294.073l4.47,4.363a.769.769,0,0,1,.088,1.086m-8.955-12.87a6.469,6.469,0,1,0-6.47,6.47,6.47,6.47,0,0,0,6.47-6.47" transform="translate(-87.103 -104.108)" fill="#1e535a"/>
        <path id="Trazado_1274224" data-name="Trazado 1274224" d="M48.225,114.992l-2.6-2.585a1.1,1.1,0,0,1-.036-1.474,1.088,1.088,0,0,1,1.547-.152l1.815,1.741,3.663-3.688a1.12,1.12,0,1,1,1.591,1.577l-4.464,4.509a1.068,1.068,0,0,1-1.515.07" transform="translate(-39.509 -94.587)" fill="#1e535a"/>
        <path id="Trazado_1274225" data-name="Trazado 1274225" d="M20.831,36.256a11.6,11.6,0,0,0-3.268.737,7.583,7.583,0,1,0-5.974,10.05,9.875,9.875,0,0,0,2.37,5.428L.01,52.486,0,25.524l16.146,0,.032,3.485A1.213,1.213,0,0,0,17.3,30.151l3.518.049Z" transform="translate(-0.001 -22.247)" fill="#1e535a"/>
        <path id="Trazado_1274226" data-name="Trazado 1274226" d="M41.652,3.329c-.783-.511-1.033-1.34-1.987-1.341l-14.1-.005A14.026,14.026,0,0,1,25.547.012L41.635,0Z" transform="translate(-22.25)" fill="#1e535a"/>
        <path id="Trazado_1274227" data-name="Trazado 1274227" d="M163.4,45.73l-.036-7.375c0-.915-.8-1.2-1.326-1.953a28.458,28.458,0,0,1,3.306-.029l0,9.691Z" transform="translate(-141.25 -31.678)" fill="#1e535a"/>
        <path id="Trazado_1274228" data-name="Trazado 1274228" d="M164.677,3.817l-3.259.084a30.723,30.723,0,0,1,.026-3.328Z" transform="translate(-140.684 -0.5)" fill="#1e535a"/>
        <path id="Trazado_1274229" data-name="Trazado 1274229" d="M139.564,29.37l-3.268.052.015-3.283Z" transform="translate(-118.813 -22.787)" fill="#1e535a"/>
      </g>
    </g>
  </g>
</svg>
