<svg xmlns="http://www.w3.org/2000/svg" xmlns:xlink="http://www.w3.org/1999/xlink" width="85" height="85" viewBox="0 0 85 85">
  <defs>
    <clipPath id="clip-path">
      <rect id="Rectángulo_464357" data-name="Rectángulo 464357" width="64.635" height="62.183" fill="#344866"/>
    </clipPath>
  </defs>
  <g id="Grupo_1211146" data-name="Grupo 1211146" transform="translate(-179.734 -5520.842)">
    <rect id="Rectángulo_402006" data-name="Rectángulo 402006" width="85" height="85" rx="5" transform="translate(179.734 5520.842)" fill="#69d7e5"/>
    <g id="Grupo_1211490" data-name="Grupo 1211490" transform="translate(189.917 5532.25)">
      <g id="Grupo_1211489" data-name="Grupo 1211489" clip-path="url(#clip-path)">
        <path id="Trazado_1274018" data-name="Trazado 1274018" d="M14.8,60.431c-.057-.94-.021-1.705-.016-2.52.015-2.637,3.344-1.579,4.937-1.853a13.927,13.927,0,0,0,3.921-8.251l-10.116-.016a.914.914,0,0,1-.946-.9.889.889,0,0,1,.971-.967l47.561-.012a1.618,1.618,0,0,0,1.612-1.607l.005-40.685a1.629,1.629,0,0,0-1.787-1.708H3.668A1.626,1.626,0,0,0,1.882,3.622l0,40.683A1.6,1.6,0,0,0,3.46,45.9l5.631.038a.884.884,0,0,1,.92.925.928.928,0,0,1-.925.918l-5.474.02a3.488,3.488,0,0,1-3.6-3.45L0,3.6A3.5,3.5,0,0,1,3.485,0H61.129a3.486,3.486,0,0,1,3.482,3.6l.024,40.335a3.641,3.641,0,0,1-3.877,3.885L40.971,47.8a13.966,13.966,0,0,0,3.916,8.262c1.539.276,4.788-.745,4.919,1.675.1,1.833.411,4.3-1.754,4.366-1.732.05-4.4.407-4.494-.858a.891.891,0,0,1,.891-1.048l3.4-.05a4.573,4.573,0,0,0-.017-2.12l-30.94-.008a2.908,2.908,0,0,0-.09,2.156l23.16.011a.933.933,0,0,1,.99.871.973.973,0,0,1-1,1.064l-23.358,0a1.759,1.759,0,0,1-1.789-1.68m27.512-4.36a16.654,16.654,0,0,1-3.273-8.288l-13.5.034a16.4,16.4,0,0,1-3.253,8.269Z" transform="translate(0)" fill="#344866"/>
        <path id="Trazado_1274019" data-name="Trazado 1274019" d="M74.773,22.106,22.112,22.09l-.01,32h42.83a.974.974,0,0,1,.991.87.986.986,0,0,1-.969,1.064H21.213a.994.994,0,0,1-1-1.033l-.006-33.662a1.025,1.025,0,0,1,1.07-1.156H75.585a1.026,1.026,0,0,1,1.077,1.157l0,33.661A.978.978,0,0,1,75.692,56H69.443a.965.965,0,0,1-.952-1.042,1.011,1.011,0,0,1,1.149-.867l5.127-.056Z" transform="translate(-16.128 -16.096)" fill="#344866"/>
        <path id="Trazado_1274020" data-name="Trazado 1274020" d="M223.139,115.137l-2.117,5.14a.891.891,0,0,1-.927.575.936.936,0,0,1-.839-.652l-3.3-11.02a.959.959,0,0,1,.241-.848.925.925,0,0,1,.9-.282l10.989,3.292a.964.964,0,0,1,.671.829.95.95,0,0,1-.566.956Zm1.57-2.822-6.395-1.889,1.969,6.424c2.246-4.8.359-2.175,4.426-4.535" transform="translate(-172.323 -86.206)" fill="#344866"/>
        <path id="Trazado_1274021" data-name="Trazado 1274021" d="M47.284,53.168l-5.756.015a1.035,1.035,0,0,1-1.112-1.066l.005-4.993a.94.94,0,0,1,.941-.945l5.811,0a.957.957,0,0,1,.993.923l.012,5.048a1.021,1.021,0,0,1-.894,1.021M46.27,51.179a26.689,26.689,0,0,0-.076-3.08l-3.844.007a21.4,21.4,0,0,0,0,3.153,18.178,18.178,0,0,0,3.924-.08" transform="translate(-32.255 -36.852)" fill="#344866"/>
        <path id="Trazado_1274022" data-name="Trazado 1274022" d="M47.29,144.065l-5.752.029a1.015,1.015,0,0,1-1.118-1.03l0-5a.951.951,0,0,1,.946-.955l5.8,0a1.028,1.028,0,0,1,1.02,1.125l-.015,4.863a.932.932,0,0,1-.885.968m-1.023-5.075H42.305v3.228h3.962Z" transform="translate(-32.258 -109.422)" fill="#344866"/>
        <path id="Trazado_1274023" data-name="Trazado 1274023" d="M47.228,98.649c-1.992.074-3.865.052-5.776.01a1.017,1.017,0,0,1-.991-.991l.005-5.133a.917.917,0,0,1,.921-.881l5.841-.009a.984.984,0,0,1,.986,1.028l.006,4.866a1.054,1.054,0,0,1-.992,1.111m-.928-5.1H42.338v3.174H46.3Z" transform="translate(-32.291 -73.139)" fill="#344866"/>
        <path id="Trazado_1274024" data-name="Trazado 1274024" d="M111.581,118.727l-15.831.012a1.024,1.024,0,0,1-.944-1.039.975.975,0,0,1,1.063-.907l15.515,0a1.034,1.034,0,0,1,1.065.737.994.994,0,0,1-.868,1.2" transform="translate(-75.661 -93.207)" fill="#344866"/>
        <path id="Trazado_1274025" data-name="Trazado 1274025" d="M111.608,73.4l-15.913,0a.926.926,0,0,1-.856-.911c-.009-.612.393-.958,1.047-.957l15.73.015a.872.872,0,0,1,.88.933.94.94,0,0,1-.887.916" transform="translate(-75.687 -57.091)" fill="#344866"/>
        <path id="Trazado_1274026" data-name="Trazado 1274026" d="M111.5,164.276l-15.624,0a.945.945,0,1,1,0-1.878l15.722.014a.9.9,0,0,1,.883.952.933.933,0,0,1-.985.91" transform="translate(-75.678 -129.606)" fill="#344866"/>
        <path id="Trazado_1274027" data-name="Trazado 1274027" d="M145.278,139.01,132.322,139a1.02,1.02,0,0,1-.977-.9.962.962,0,0,1,.97-1.008l12.877,0a.94.94,0,0,1,1.013.848.986.986,0,0,1-.926,1.065" transform="translate(-104.819 -109.412)" fill="#344866"/>
        <path id="Trazado_1274028" data-name="Trazado 1274028" d="M145.283,48.1H132.327a1.038,1.038,0,0,1-.981-.908.962.962,0,0,1,.974-1l13.015.005a.917.917,0,0,1,.869.83.959.959,0,0,1-.921,1.069" transform="translate(-104.822 -36.868)" fill="#344866"/>
        <path id="Trazado_1274029" data-name="Trazado 1274029" d="M145.324,93.523l-13,.009a.983.983,0,0,1-.948-.963.932.932,0,0,1,.953-.925l12.9-.01a.917.917,0,0,1,.983.749.933.933,0,0,1-.889,1.141" transform="translate(-104.846 -73.129)" fill="#344866"/>
        <path id="Trazado_1274030" data-name="Trazado 1274030" d="M99.624,137.969c.116,1.412-2.294,1.057-3.739,1.028a.958.958,0,0,1-1.042-.86.932.932,0,0,1,1.043-1.038l2.8.006a.951.951,0,0,1,.941.864" transform="translate(-75.688 -109.414)" fill="#344866"/>
        <path id="Trazado_1274031" data-name="Trazado 1274031" d="M99.6,47c.172,1.428-2.617,1.124-3.909,1.031a.935.935,0,0,1-.873-1.041.958.958,0,0,1,1.042-.848l2.8.015A.944.944,0,0,1,99.6,47" transform="translate(-75.668 -36.828)" fill="#344866"/>
        <path id="Trazado_1274032" data-name="Trazado 1274032" d="M99.615,92.439c.276,1.509-2.462,1.171-3.916,1.1a.915.915,0,0,1-.852-.939.925.925,0,0,1,1.03-.932l2.825.007a.929.929,0,0,1,.915.767" transform="translate(-75.694 -73.154)" fill="#344866"/>
      </g>
    </g>
  </g>
</svg>
