<svg xmlns="http://www.w3.org/2000/svg" xmlns:xlink="http://www.w3.org/1999/xlink" width="128" height="128" viewBox="0 0 128 128">
  <defs>
    <clipPath id="clip-path">
      <rect id="Rectángulo_454829" data-name="Rectángulo 454829" width="128" height="128" fill="#1e535a"/>
    </clipPath>
    <clipPath id="clip-path-2">
      <rect id="Rectángulo_464395" data-name="Rectángulo 464395" width="48.242" height="47.253" fill="#1e535a"/>
    </clipPath>
  </defs>
  <g id="Grupo_1211019" data-name="Grupo 1211019" transform="translate(-186 -4323.945)">
    <g id="Grupo_1177591" data-name="Grupo 1177591" transform="translate(186 4323.945)">
      <g id="Grupo_1177589" data-name="Grupo 1177589" transform="translate(0 0)">
        <g id="Grupo_1177587" data-name="Grupo 1177587" clip-path="url(#clip-path)">
          <path id="Trazado_997422" data-name="Trazado 997422" d="M122.774,56.654a58.848,58.848,0,0,0-13.293-30.623,6.768,6.768,0,0,0-9.523-9.118A58.761,58.761,0,0,0,69.535,5.027a6.769,6.769,0,0,0-13.148.267A58.842,58.842,0,0,0,27.2,17.772a6.771,6.771,0,0,0-9.4,9.462A58.794,58.794,0,0,0,5.483,56.6a6.774,6.774,0,0,0-.162,13.266A58.776,58.776,0,0,0,17.252,99.82a6.771,6.771,0,0,0,9.2,9.56,58.838,58.838,0,0,0,29.883,13.07,6.771,6.771,0,0,0,13.266.267,58.788,58.788,0,0,0,30.646-12.107,6.769,6.769,0,0,0,9.476-9.165A58.863,58.863,0,0,0,122.933,69.8a6.771,6.771,0,0,0-.159-13.144m-19.12-27.288a6.733,6.733,0,0,0,3.75-1.135,55.884,55.884,0,0,1,12.333,28.407,6.781,6.781,0,0,0-4.327,3.135L98.1,53.283c.013-.189.027-.382.027-.578a6.772,6.772,0,0,0-2.868-5.533l7.57-17.86a7.335,7.335,0,0,0,.821.054M100,28.288,92.472,46.03a6.7,6.7,0,0,0-7.459,4.307L53.705,43.125a6.588,6.588,0,0,0-.142-1.348L97.992,26.305a6.793,6.793,0,0,0,2,1.983M63,13.553a6.777,6.777,0,0,0,6.651-5.5A55.792,55.792,0,0,1,97.857,19.09a6.739,6.739,0,0,0-.98,3.5,7.114,7.114,0,0,0,.064.9L52.29,39.031A6.8,6.8,0,0,0,51.064,37.8L62.775,13.543c.074,0,.145.01.22.01M56.4,8.324a6.778,6.778,0,0,0,3.409,4.435L48.331,36.538a6.8,6.8,0,0,0-1.4-.145,6.727,6.727,0,0,0-3.861,1.213L29.461,26.238A6.736,6.736,0,0,0,29.231,20,55.836,55.836,0,0,1,56.4,8.324M13.387,61.776l28.15-14.519a6.751,6.751,0,0,0,5.341,2.686l9.648,30.839a6.887,6.887,0,0,0-1.493,1.652L13.3,65.046a6.731,6.731,0,0,0,.25-1.8,6.81,6.81,0,0,0-.166-1.473m6.648-32.521a6.771,6.771,0,0,0,7.564-.645L41.037,39.831a6.758,6.758,0,0,0-.747,4.682l-28.2,14.539A6.774,6.774,0,0,0,8.506,56.7,55.812,55.812,0,0,1,20.036,29.254m2.8,67.623a6.756,6.756,0,0,0-3.365.9A55.762,55.762,0,0,1,8.351,69.832a6.783,6.783,0,0,0,3.517-2.121L54.013,85.27a7.266,7.266,0,0,0-.054.814,6.775,6.775,0,0,0,.405,2.29L28.876,100.587a6.775,6.775,0,0,0-6.037-3.709m33.626,22.556a55.892,55.892,0,0,1-27.883-12.2,6.705,6.705,0,0,0,1.034-3.581l0-.078L56,90.929a6.776,6.776,0,0,0,2.392,1.51l1.581,22.725a6.776,6.776,0,0,0-3.51,4.27m2.807-39.96L49.831,49.287a6.786,6.786,0,0,0,3.219-3.219l31.562,7.266a6.736,6.736,0,0,0,1.078,3.081L64.042,80.173a6.692,6.692,0,0,0-4.77-.7M69.592,119.7a6.774,6.774,0,0,0-6.6-5.25l-.051,0-1.5-21.623a6.764,6.764,0,0,0,4.142-2.01l31.555,13.918c0,.061-.01.115-.01.176a6.743,6.743,0,0,0,1,3.534A55.789,55.789,0,0,1,69.592,119.7M97.9,101.779,67.164,88.22a6.736,6.736,0,0,0-.888-6.027L87.858,58.5a6.736,6.736,0,0,0,3.5.98,7.46,7.46,0,0,0,.831-.054l8.067,39.781a6.761,6.761,0,0,0-2.355,2.571m9.722-2.534a6.735,6.735,0,0,0-4.5-1.064l-8.07-39.8a6.8,6.8,0,0,0,2.135-2.23l17.3,6.486a6.009,6.009,0,0,0-.03.608,6.774,6.774,0,0,0,5.445,6.641A55.835,55.835,0,0,1,107.62,99.246" transform="translate(0 0.001)" fill="#1e535a"/>
        </g>
      </g>
    </g>
    <g id="Elipse_13614" data-name="Elipse 13614" transform="translate(210.273 4348.213)" fill="#fff" stroke="#1e535a" stroke-width="3">
      <ellipse cx="39.732" cy="39.733" rx="39.732" ry="39.733" stroke="none"/>
      <ellipse cx="39.732" cy="39.733" rx="38.232" ry="38.233" fill="none"/>
    </g>
    <g id="Grupo_1211545" data-name="Grupo 1211545" transform="translate(225.879 4364.319)">
      <g id="Grupo_1211544" data-name="Grupo 1211544" clip-path="url(#clip-path-2)">
        <path id="Trazado_1274133" data-name="Trazado 1274133" d="M161.813,160.794c-1.834.862-1.268.391-2.116,2.852a21.861,21.861,0,0,1-3.464.022c-1-2.756-.34-1.894-2.1-2.871-2.091-1.158-2.979.891-3.534.447-.887-.708-1.561-1.547-2.388-2.324l.84-1.643c.38-.743-.566-3.125-1.447-3.387l-1.675-.5.01-3.508,1.871-.63c.625-.211.724-.936.978-1.487.805-1.751.166-1.746-.585-3.425l2.481-2.457c.765.239,1.361,1,2.18.936a5.041,5.041,0,0,0,2.415-.98c.667-.508.542-1.493.912-2.2l3.474-.056c.813,1.882.129,2.075,2.108,2.857.558.22,1.13.614,1.7.333l1.793-.884,2.413,2.447-.864,1.748c-.308.624.144,1.231.367,1.826.687,1.832,1.145,1.3,2.828,1.976l-.018,3.489-1.911.626c-.634.208-.7.971-.972,1.5-.878,1.692.061,2,.581,3.416l-2.448,2.445-1.684-.865c-.582-.3-1.176.025-1.74.29m2.743-9.169a6.6,6.6,0,1,0-6.6,6.6,6.6,6.6,0,0,0,6.6-6.6" transform="translate(-121.762 -116.473)" fill="#1e535a"/>
        <path id="Trazado_1274134" data-name="Trazado 1274134" d="M25.454,61.892c-1.265,1.256.215,2.477.366,3.269a1.893,1.893,0,0,1-.55,1.4,6.008,6.008,0,0,1-1.527.515c-1.455.591-.909,1.753-1.136,2.9L3.412,70A3.459,3.459,0,0,1,.11,66.53l0-24.382h35.38l-.038,14.645c-.991-.134-1.812-.1-2.245.648l-.74,1.943c-1.653.976-1.365.376-2.716-.215a1.543,1.543,0,0,0-1.773.22ZM4.422,47.023c1.471-.245,3.831.68,3.95-.593a.734.734,0,0,0-.731-.852l-3.956-.214a.761.761,0,0,0-.855.8c.033,1.406.048,2.756.2,4.145a.728.728,0,0,0,.9.656.729.729,0,0,0,.6-.806Zm28.4-.094a.781.781,0,0,0,0-1.562l-15.382-.01a.82.82,0,0,0-.912.744.8.8,0,0,0,.805.835ZM4.562,55.381l8.292-8.3a.8.8,0,0,0-.008-1.011c-.154-.2-.714-.412-1-.129L3.508,54.251A.808.808,0,0,0,3.426,55.3a.749.749,0,0,0,1.136.076m28.257-4.405a.768.768,0,0,0,.768-.763.73.73,0,0,0-.761-.767L17.44,49.44c-.559,0-.918.268-.912.8a.772.772,0,0,0,.75.733Zm-23.944,4.9,3.651.173a.857.857,0,0,0,.961-.915l-.2-3.985a.744.744,0,0,0-.9-.7.787.787,0,0,0-.631.863l.132,3.115L8.658,54.3a.76.76,0,0,0-.757.876c.068.452.417.673.973.7m24.019-.848a.741.741,0,0,0,.683-.9.8.8,0,0,0-.764-.654l-15.529,0a.79.79,0,0,0-.757.854.82.82,0,0,0,.915.715ZM19.578,59.653a.76.76,0,0,0,.788-.8.769.769,0,0,0-.8-.75H4.039a.77.77,0,0,0-.782.751.751.751,0,0,0,.772.8Zm.063,4.059a.766.766,0,0,0-.067-1.531l-15.54-.006a.754.754,0,0,0-.778.786.774.774,0,0,0,.779.757Zm.028,4.047a.735.735,0,0,0,.68-.916.749.749,0,0,0-.777-.612H4.033a.757.757,0,0,0-.777.742.746.746,0,0,0,.765.794Z" transform="translate(-0.088 -35.169)" fill="#1e535a"/>
        <path id="Trazado_1274135" data-name="Trazado 1274135" d="M35.364,5.425.1,5.433A8.271,8.271,0,0,1,.024,3.384,3.346,3.346,0,0,1,3.325.007L32.052,0a3.31,3.31,0,0,1,3.325,3.046,18.6,18.6,0,0,1-.013,2.379M5.055,2.714A1.175,1.175,0,1,0,3.88,3.889,1.175,1.175,0,0,0,5.055,2.714m4.177,0A1.175,1.175,0,1,0,8.056,3.888,1.175,1.175,0,0,0,9.231,2.712m4.176,0a1.178,1.178,0,1,0-1.178,1.178,1.178,1.178,0,0,0,1.178-1.178m19.309.778a.786.786,0,0,0,.021-1.571l-13.369,0a.76.76,0,0,0-.727.887.75.75,0,0,0,.757.679Z" transform="translate(-0.001 0)" fill="#1e535a"/>
      </g>
    </g>
  </g>
</svg>
