<svg xmlns="http://www.w3.org/2000/svg" xmlns:xlink="http://www.w3.org/1999/xlink" width="85" height="85" viewBox="0 0 85 85">
  <defs>
    <clipPath id="clip-path">
      <rect id="Rectángulo_464323" data-name="Rectángulo 464323" width="65.286" height="65.329" transform="translate(0 0)" fill="#344866"/>
    </clipPath>
  </defs>
  <g id="Grupo_1211007" data-name="Grupo 1211007" transform="translate(-179.734 -5520.842)">
    <rect id="Rectángulo_402006" data-name="Rectángulo 402006" width="85" height="85" rx="5" transform="translate(179.734 5520.842)" fill="#69d7e5"/>
    <g id="Grupo_1211471" data-name="Grupo 1211471" transform="translate(189.591 5527.678)">
      <g id="Grupo_1211470" data-name="Grupo 1211470" transform="translate(0 -0.001)" clip-path="url(#clip-path)">
        <path id="Trazado_1273918" data-name="Trazado 1273918" d="M46.609,62.614a2.529,2.529,0,0,1-2.46,2.715l-23.2-.017a2.479,2.479,0,0,1-2.285-2.6l.009-3.635c.008-3.345,4.082-2.32,5.88-2.575V51.991l-19.5-.029A4.959,4.959,0,0,1,0,47.082V15.123A5.071,5.071,0,0,1,5.141,10.2c.224-1.97,2.423-.719,2.912-1.719.469-.961-2.059-1.514-1.043-2.983A12.808,12.808,0,0,1,10.547,2.1c1.615-1.069,2.077,1.684,3.073,1.153,1.054-.562-.1-2.7,1.416-3.008A12.208,12.208,0,0,1,20.1.288c1.737.373.186,2.231,1.247,2.978.951.67,1.433-2.216,3.2-.932,1.092.792,3.462,3.1,3.39,4.224-.052.8-1.67,1.372-1.4,2.231.307.979,2.274-.415,2.826,1.433l31.045.049a4.943,4.943,0,0,1,4.873,5.057l0,31.544a5.012,5.012,0,0,1-5.076,5.1l-19.493.023,0,4.532,3.5.06a2.438,2.438,0,0,1,2.382,2.5ZM18.344,22.952a3.41,3.41,0,0,1,1.607-2.82,3.093,3.093,0,0,1,3.455.878,5.658,5.658,0,0,0,2.043-1.844,3.141,3.141,0,0,1-.766-3.581c.555-1.075,1.714-1.338,2.857-1.535a5.592,5.592,0,0,0,.159-2.692,3.108,3.108,0,0,1-2.856-1.625,2.949,2.949,0,0,1,.892-3.288,4.4,4.4,0,0,0-1.853-2.079,2.883,2.883,0,0,1-3.4.79,3.318,3.318,0,0,1-1.438-2.951,6.019,6.019,0,0,0-2.7-.024A3.981,3.981,0,0,1,15.1,4.88c-1.247.992-2.67.328-3.8-.513A2.842,2.842,0,0,0,9.34,6.121c.467.895,1.208,1.752.907,2.823a3.026,3.026,0,0,1-3.193,2A4.781,4.781,0,0,0,7.1,13.695a3.449,3.449,0,0,1,2.735,1.49c.649,1.2.076,2.5-.832,3.485a4.361,4.361,0,0,0,1.891,1.975c.887-.766,2.058-1.364,3.133-.831,1.1.547,1.448,1.872,1.588,3.085a4.63,4.63,0,0,0,2.729.055m.51,1.98a10.4,10.4,0,0,1-4.58-.1c-1.472-.324-.016-2.6-1.215-2.987-.9-.291-1.431,2.049-2.824,1.133A12.3,12.3,0,0,1,6.85,19.463c-1.064-1.572,1.628-2.152,1.167-3.105S5.3,16.573,5.1,14.637a19.856,19.856,0,0,0-.214-2.35,2.99,2.99,0,0,0-2.868,3.054l.013,28.4h61.21l-.031-28.8a2.851,2.851,0,0,0-2.582-2.608l-31.123-.007a17.014,17.014,0,0,1-.309,2.9c-.4,1.663-2.445.128-3.01,1.236-.491.962,1.29,1.505,1.327,2.383.048,1.137-2.761,3.793-4.384,4.358-.8.278-1.619-1.912-2.5-1.4-1.046.61.482,2.614-1.781,3.139M60.527,49.865c2.113,0,3.107-2.288,2.607-4.061l-61-.006a3.38,3.38,0,0,0,.592,3.059A3.091,3.091,0,0,0,5.3,49.917L39.987,49.9Zm-21.853,2.1H26.594v4.588h12.08ZM20.687,58.636l0,4.672,23.895.009,0-4.672Z" transform="translate(0 0)" fill="#344866"/>
        <path id="Trazado_1273919" data-name="Trazado 1273919" d="M147.093,224.782c-1.413.13-4.248.463-4.159-1.061a.955.955,0,0,1,1.062-.935h2.965a.957.957,0,0,1,1.062.936.98.98,0,0,1-.931,1.061" transform="translate(-112.845 -175.889)" fill="#344866"/>
        <path id="Trazado_1273920" data-name="Trazado 1273920" d="M43.3,162.491l-16.891.033a4.285,4.285,0,0,1-4.194-4.436A4.335,4.335,0,0,1,26.6,153.78l16.2-.012a4.359,4.359,0,0,1,4.5,4.112,4.21,4.21,0,0,1-3.988,4.611m-.181-2.017a2.312,2.312,0,0,0-.1-4.615L26.6,155.848a2.324,2.324,0,0,0-2.318,2.431,2.376,2.376,0,0,0,2.321,2.23Z" transform="translate(-17.541 -121.4)" fill="#344866"/>
        <path id="Trazado_1273921" data-name="Trazado 1273921" d="M55.04,171.85l-8.935.012a1.013,1.013,0,0,1-1.049-.949,1,1,0,0,1,1.049-1.135l8.837-.005c.7,0,1.161.326,1.2.955a1.027,1.027,0,0,1-1.1,1.121" transform="translate(-35.569 -134.037)" fill="#344866"/>
        <path id="Trazado_1273922" data-name="Trazado 1273922" d="M63.02,34.627A6.832,6.832,0,1,1,56.188,27.8a6.832,6.832,0,0,1,6.832,6.832m-2.041,0a4.791,4.791,0,1,0-4.791,4.791,4.791,4.791,0,0,0,4.791-4.791" transform="translate(-38.967 -21.944)" fill="#344866"/>
        <path id="Trazado_1273923" data-name="Trazado 1273923" d="M178.477,99.493l-21.749,0a3.43,3.43,0,0,1-3.548-3.33l-.005-18.925a3.391,3.391,0,0,1,3.356-3.337l22.068,0a3.37,3.37,0,0,1,3.312,3.352l.026,18.495a3.675,3.675,0,0,1-3.458,3.745m1.371-18.758c-.045-2,.728-4.8-1.663-4.8l-21.454.016c-2.192,0-1.458,3.255-1.48,4.779Zm-1.566,16.727a1.669,1.669,0,0,0,1.608-1.713l0-12.981H155.205l-.018,12.989a1.651,1.651,0,0,0,1.759,1.708Z" transform="translate(-120.932 -58.342)" fill="#344866"/>
        <path id="Trazado_1273924" data-name="Trazado 1273924" d="M213.237,135.808a1.149,1.149,0,0,1-1.312.766.971.971,0,0,1-.716-1.187l2.131-7.944a1.025,1.025,0,0,1,1.263-.7.986.986,0,0,1,.669,1.174Z" transform="translate(-166.725 -100.042)" fill="#344866"/>
        <path id="Trazado_1273925" data-name="Trazado 1273925" d="M187.21,135.076c.746,1.2,3.231,2.41,2.191,3.663a1.034,1.034,0,0,1-1.424.04l-2.945-2.935a1.039,1.039,0,0,1-.049-1.453l3.1-2.987a1,1,0,0,1,1.427.059c1.084,1.172-1.469,2.415-2.3,3.613" transform="translate(-145.827 -103.527)" fill="#344866"/>
        <path id="Trazado_1273926" data-name="Trazado 1273926" d="M235.616,138.646a1.108,1.108,0,0,1-1.282.337.963.963,0,0,1-.486-1.311c.628-.967,1.664-1.595,2.35-2.543l-2.375-2.439a.981.981,0,0,1,.23-1.339,1.041,1.041,0,0,1,1.272.053l3.178,3.085c.461.447.156,1.147-.232,1.53Z" transform="translate(-184.461 -103.551)" fill="#344866"/>
        <path id="Trazado_1273927" data-name="Trazado 1273927" d="M182.053,92.224l-11.626.029c-.594,0-.779-.74-.731-1.149a.96.96,0,0,1,.982-.848l11-.008a1.045,1.045,0,0,1,1,.7c.084.329.015,1.27-.621,1.272" transform="translate(-133.97 -71.251)" fill="#344866"/>
        <path id="Trazado_1273928" data-name="Trazado 1273928" d="M239.791,91.971a2.9,2.9,0,0,1-2.331-.025c-.491-.257-.406-1.092-.178-1.41a2.351,2.351,0,0,1,2.756.014.979.979,0,0,1-.248,1.421" transform="translate(-187.191 -71.131)" fill="#344866"/>
        <path id="Trazado_1273929" data-name="Trazado 1273929" d="M260.461,90.29a1.016,1.016,0,0,1,.415,1.387c-.333.7-2.657.778-2.961-.12a.98.98,0,0,1,.628-1.329,3.15,3.15,0,0,1,1.918.062" transform="translate(-203.574 -71.141)" fill="#344866"/>
      </g>
    </g>
  </g>
</svg>
