<svg xmlns="http://www.w3.org/2000/svg" xmlns:xlink="http://www.w3.org/1999/xlink" width="128" height="128" viewBox="0 0 128 128">
  <defs>
    <clipPath id="clip-path">
      <rect id="Rectángulo_454829" data-name="Rectángulo 454829" width="128" height="128" fill="#1e535a"/>
    </clipPath>
    <clipPath id="clip-path-2">
      <rect id="Rectángulo_464397" data-name="Rectángulo 464397" width="48" height="48" transform="translate(0)" fill="#1e535a"/>
    </clipPath>
  </defs>
  <g id="Grupo_1211017" data-name="Grupo 1211017" transform="translate(-186 -4323.945)">
    <g id="Grupo_1177591" data-name="Grupo 1177591" transform="translate(186 4323.945)">
      <g id="Grupo_1177589" data-name="Grupo 1177589" transform="translate(0 0)">
        <g id="Grupo_1177587" data-name="Grupo 1177587" clip-path="url(#clip-path)">
          <path id="Trazado_997422" data-name="Trazado 997422" d="M122.774,56.654a58.848,58.848,0,0,0-13.293-30.623,6.768,6.768,0,0,0-9.523-9.118A58.761,58.761,0,0,0,69.535,5.027a6.769,6.769,0,0,0-13.148.267A58.842,58.842,0,0,0,27.2,17.772a6.771,6.771,0,0,0-9.4,9.462A58.794,58.794,0,0,0,5.483,56.6a6.774,6.774,0,0,0-.162,13.266A58.776,58.776,0,0,0,17.252,99.82a6.771,6.771,0,0,0,9.2,9.56,58.838,58.838,0,0,0,29.883,13.07,6.771,6.771,0,0,0,13.266.267,58.788,58.788,0,0,0,30.646-12.107,6.769,6.769,0,0,0,9.476-9.165A58.863,58.863,0,0,0,122.933,69.8a6.771,6.771,0,0,0-.159-13.144m-19.12-27.288a6.733,6.733,0,0,0,3.75-1.135,55.884,55.884,0,0,1,12.333,28.407,6.781,6.781,0,0,0-4.327,3.135L98.1,53.283c.013-.189.027-.382.027-.578a6.772,6.772,0,0,0-2.868-5.533l7.57-17.86a7.335,7.335,0,0,0,.821.054M100,28.288,92.472,46.03a6.7,6.7,0,0,0-7.459,4.307L53.705,43.125a6.588,6.588,0,0,0-.142-1.348L97.992,26.305a6.793,6.793,0,0,0,2,1.983M63,13.553a6.777,6.777,0,0,0,6.651-5.5A55.792,55.792,0,0,1,97.857,19.09a6.739,6.739,0,0,0-.98,3.5,7.114,7.114,0,0,0,.064.9L52.29,39.031A6.8,6.8,0,0,0,51.064,37.8L62.775,13.543c.074,0,.145.01.22.01M56.4,8.324a6.778,6.778,0,0,0,3.409,4.435L48.331,36.538a6.8,6.8,0,0,0-1.4-.145,6.727,6.727,0,0,0-3.861,1.213L29.461,26.238A6.736,6.736,0,0,0,29.231,20,55.836,55.836,0,0,1,56.4,8.324M13.387,61.776l28.15-14.519a6.751,6.751,0,0,0,5.341,2.686l9.648,30.839a6.887,6.887,0,0,0-1.493,1.652L13.3,65.046a6.731,6.731,0,0,0,.25-1.8,6.81,6.81,0,0,0-.166-1.473m6.648-32.521a6.771,6.771,0,0,0,7.564-.645L41.037,39.831a6.758,6.758,0,0,0-.747,4.682l-28.2,14.539A6.774,6.774,0,0,0,8.506,56.7,55.812,55.812,0,0,1,20.036,29.254m2.8,67.623a6.756,6.756,0,0,0-3.365.9A55.762,55.762,0,0,1,8.351,69.832a6.783,6.783,0,0,0,3.517-2.121L54.013,85.27a7.266,7.266,0,0,0-.054.814,6.775,6.775,0,0,0,.405,2.29L28.876,100.587a6.775,6.775,0,0,0-6.037-3.709m33.626,22.556a55.892,55.892,0,0,1-27.883-12.2,6.705,6.705,0,0,0,1.034-3.581l0-.078L56,90.929a6.776,6.776,0,0,0,2.392,1.51l1.581,22.725a6.776,6.776,0,0,0-3.51,4.27m2.807-39.96L49.831,49.287a6.786,6.786,0,0,0,3.219-3.219l31.562,7.266a6.736,6.736,0,0,0,1.078,3.081L64.042,80.173a6.692,6.692,0,0,0-4.77-.7M69.592,119.7a6.774,6.774,0,0,0-6.6-5.25l-.051,0-1.5-21.623a6.764,6.764,0,0,0,4.142-2.01l31.555,13.918c0,.061-.01.115-.01.176a6.743,6.743,0,0,0,1,3.534A55.789,55.789,0,0,1,69.592,119.7M97.9,101.779,67.164,88.22a6.736,6.736,0,0,0-.888-6.027L87.858,58.5a6.736,6.736,0,0,0,3.5.98,7.46,7.46,0,0,0,.831-.054l8.067,39.781a6.761,6.761,0,0,0-2.355,2.571m9.722-2.534a6.735,6.735,0,0,0-4.5-1.064l-8.07-39.8a6.8,6.8,0,0,0,2.135-2.23l17.3,6.486a6.009,6.009,0,0,0-.03.608,6.774,6.774,0,0,0,5.445,6.641A55.835,55.835,0,0,1,107.62,99.246" transform="translate(0 0.001)" fill="#1e535a"/>
        </g>
      </g>
    </g>
    <g id="Elipse_13614" data-name="Elipse 13614" transform="translate(210.273 4348.213)" fill="#fff" stroke="#1e535a" stroke-width="3">
      <ellipse cx="39.732" cy="39.733" rx="39.732" ry="39.733" stroke="none"/>
      <ellipse cx="39.732" cy="39.733" rx="38.232" ry="38.233" fill="none"/>
    </g>
    <g id="Grupo_1211549" data-name="Grupo 1211549" transform="translate(226.266 4362.007)">
      <g id="Grupo_1211548" data-name="Grupo 1211548" transform="translate(0.054)" clip-path="url(#clip-path-2)">
        <path id="Trazado_1274139" data-name="Trazado 1274139" d="M125.8,240.281l-11.245.01a1.47,1.47,0,0,1-1.509-1.523l0-11.163a1.481,1.481,0,0,1,1.362-1.488h11.455a1.485,1.485,0,0,1,1.363,1.49l-.013,11.305a1.406,1.406,0,0,1-1.417,1.372" transform="translate(-95.999 -191.966)" fill="#1e535a"/>
        <path id="Trazado_1274140" data-name="Trazado 1274140" d="M12.75,240.3l-11.231,0A1.451,1.451,0,0,1,0,238.922V227.607a1.422,1.422,0,0,1,1.371-1.467l11.312-.014a1.469,1.469,0,0,1,1.486,1.486l0,11.167A1.48,1.48,0,0,1,12.75,240.3" transform="translate(-0.026 -191.976)" fill="#1e535a"/>
        <path id="Trazado_1274141" data-name="Trazado 1274141" d="M238.886,240.275l-11.232.008a1.475,1.475,0,0,1-1.5-1.519l0-11.169a1.464,1.464,0,0,1,1.486-1.483l11.312-.006a1.465,1.465,0,0,1,1.371,1.488V238.9a1.42,1.42,0,0,1-1.443,1.37" transform="translate(-192.028 -191.959)" fill="#1e535a"/>
        <path id="Trazado_1274142" data-name="Trazado 1274142" d="M57.45,148.077a11.246,11.246,0,0,1-2.795.036l-.033-3.835-14.243,0-.05,3.878-2.751-.013-.027-5.322a1.458,1.458,0,0,1,1.586-1.417l15.484,0,.035-3.831h2.777l.034,3.826,15.632.021a1.5,1.5,0,0,1,1.462,1.655l-.036,5.047-2.764.039-.051-3.88-14.243,0Z" transform="translate(-31.906 -116.796)" fill="#1e535a"/>
        <path id="Trazado_1274143" data-name="Trazado 1274143" d="M117.235,17.954H102.253a1.473,1.473,0,0,1-1.572-1.5l.01-15.093A1.371,1.371,0,0,1,102.093,0h15.095a1.373,1.373,0,0,1,1.4,1.359l.01,15.091a1.476,1.476,0,0,1-1.364,1.5" transform="translate(-85.502)" fill="#1e535a"/>
      </g>
    </g>
  </g>
</svg>
