<svg xmlns="http://www.w3.org/2000/svg" xmlns:xlink="http://www.w3.org/1999/xlink" width="396" height="317" viewBox="0 0 396 317">
  <defs>
    <clipPath id="clip-path">
      <rect id="Rectángulo_461007" data-name="Rectángulo 461007" width="357.539" height="315.841" fill="none"/>
    </clipPath>
    <clipPath id="clip-path-3">
      <rect id="Rectángulo_460906" data-name="Rectángulo 460906" width="330.442" height="315.756" fill="#ffe79e"/>
    </clipPath>
    <clipPath id="clip-path-4">
      <rect id="Rectángulo_460909" data-name="Rectángulo 460909" width="9.791" height="9.791" fill="none"/>
    </clipPath>
    <clipPath id="clip-path-5">
      <rect id="Rectángulo_460919" data-name="Rectángulo 460919" width="28.303" height="14.77" fill="none"/>
    </clipPath>
    <clipPath id="clip-path-6">
      <rect id="Rectángulo_460927" data-name="Rectángulo 460927" width="28.303" height="14.769" fill="none"/>
    </clipPath>
  </defs>
  <g id="Grupo_1211194" data-name="Grupo 1211194" transform="translate(-186 -309)">
    <rect id="Rectángulo_460610" data-name="Rectángulo 460610" width="396" height="317" transform="translate(186 309)" fill="none"/>
    <g id="Grupo_1211193" data-name="Grupo 1211193" transform="translate(205 310)">
      <g id="Grupo_1211192" data-name="Grupo 1211192" clip-path="url(#clip-path)">
        <g id="Grupo_1211189" data-name="Grupo 1211189">
          <g id="Grupo_1211188" data-name="Grupo 1211188" clip-path="url(#clip-path)">
            <g id="Grupo_1211169" data-name="Grupo 1211169" transform="translate(14.772 0.085)" opacity="0.45">
              <g id="Grupo_1211168" data-name="Grupo 1211168">
                <g id="Grupo_1211167" data-name="Grupo 1211167" clip-path="url(#clip-path-3)">
                  <path id="Trazado_1273380" data-name="Trazado 1273380" d="M392.73,289.416A67.312,67.312,0,1,1,325.417,222.1a67.313,67.313,0,0,1,67.312,67.312" transform="translate(-62.287 -40.973)" fill="#ffe79e"/>
                  <path id="Trazado_1273381" data-name="Trazado 1273381" d="M247.375,114.739A114.635,114.635,0,1,1,132.74.1,114.635,114.635,0,0,1,247.375,114.739" transform="translate(-18.105 -0.104)" fill="#ffe79e"/>
                </g>
              </g>
            </g>
            <path id="Trazado_1273382" data-name="Trazado 1273382" d="M389.253,176.525l-.119,0-4.636-.182a3.029,3.029,0,0,1-2.905-3.144l.182-4.635c0-.049.006-.1.011-.145a22.6,22.6,0,0,1-6.521-3.016c-.033.032-.065.064-.1.095l-3.421,3.133a3.032,3.032,0,0,1-4.276-.188l-3.133-3.423a3.028,3.028,0,0,1,.189-4.275l3.421-3.134c.034-.031.069-.061.1-.09a22.644,22.644,0,0,1-2.391-6.55c-.048,0-.1,0-.143,0l-4.638-.183a3.03,3.03,0,0,1-2.9-3.142l.182-4.637a3.027,3.027,0,0,1,3.143-2.9l4.636.182q.073,0,.144.01a22.617,22.617,0,0,1,3.016-6.521c-.033-.032-.064-.064-.1-.1l-3.133-3.422a3.03,3.03,0,0,1,.188-4.275l3.421-3.133a3.031,3.031,0,0,1,4.276.188l3.134,3.422c.03.034.061.069.09.1a22.6,22.6,0,0,1,6.549-2.392c0-.048,0-.1,0-.144l.183-4.635a3.044,3.044,0,0,1,3.142-2.905l4.637.183a3.029,3.029,0,0,1,2.9,3.142l-.181,4.636c0,.049-.006.1-.011.145a22.591,22.591,0,0,1,6.52,3.016c.032-.033.065-.064.1-.1l3.422-3.133a3.028,3.028,0,0,1,4.276.188l3.134,3.421a3.03,3.03,0,0,1-.189,4.275l-3.421,3.134c-.034.031-.069.06-.1.09a22.58,22.58,0,0,1,2.391,6.55c.049,0,.1,0,.144,0l4.636.182a3.031,3.031,0,0,1,2.905,3.143L417.831,150a3.008,3.008,0,0,1-.982,2.112,3.049,3.049,0,0,1-2.162.793l-4.635-.183c-.05,0-.1-.006-.145-.011a22.59,22.59,0,0,1-3.016,6.522c.033.032.064.064.1.1l3.134,3.422a3.03,3.03,0,0,1-.189,4.275l-3.421,3.134a3.033,3.033,0,0,1-4.276-.188l-3.133-3.422c-.031-.034-.06-.069-.091-.1a22.575,22.575,0,0,1-6.549,2.391c0,.047,0,.095,0,.143l-.182,4.638a3.032,3.032,0,0,1-3.025,2.908M375.11,164.3l.319.223a21.805,21.805,0,0,0,6.923,3.2l.379.1-.084.382a2.215,2.215,0,0,0-.056.385l-.182,4.637a2.211,2.211,0,0,0,2.121,2.3l4.636.182a2.17,2.17,0,0,0,1.58-.579,2.2,2.2,0,0,0,.716-1.542l.182-4.636a2.273,2.273,0,0,0-.024-.388l-.054-.388.385-.07a21.77,21.77,0,0,0,6.973-2.546l.338-.193.209.327a2.2,2.2,0,0,0,.233.306l3.133,3.422a2.213,2.213,0,0,0,3.122.138l3.421-3.134a2.212,2.212,0,0,0,.138-3.122l-3.133-3.422a2.2,2.2,0,0,0-.283-.256l-.31-.237.223-.321a21.767,21.767,0,0,0,3.2-6.922l.1-.378.383.083a2.226,2.226,0,0,0,.388.055l4.634.183a2.148,2.148,0,0,0,1.579-.58,2.19,2.19,0,0,0,.717-1.542l.182-4.637a2.213,2.213,0,0,0-2.121-2.3l-4.637-.182a2.3,2.3,0,0,0-.39.023l-.386.052-.07-.383a21.792,21.792,0,0,0-2.545-6.971l-.193-.338.327-.21a2.174,2.174,0,0,0,.306-.232l3.421-3.133a2.212,2.212,0,0,0,.138-3.122l-3.133-3.422a2.213,2.213,0,0,0-3.123-.138l-3.421,3.133a2.106,2.106,0,0,0-.257.285l-.237.308-.32-.223a21.777,21.777,0,0,0-6.921-3.2l-.378-.1.083-.382a2.283,2.283,0,0,0,.055-.388l.181-4.635a2.212,2.212,0,0,0-2.121-2.3l-4.637-.183a2.2,2.2,0,0,0-2.294,2.122l-.183,4.636a2.2,2.2,0,0,0,.023.389l.054.387-.384.07a21.805,21.805,0,0,0-6.973,2.545l-.338.194-.209-.328a2.271,2.271,0,0,0-.231-.305l-3.135-3.422a2.213,2.213,0,0,0-3.122-.138l-3.421,3.133a2.212,2.212,0,0,0-.137,3.123l3.133,3.421a2.053,2.053,0,0,0,.283.258l.309.237-.223.32a21.813,21.813,0,0,0-3.2,6.921l-.1.377-.381-.082a2.348,2.348,0,0,0-.388-.054l-4.635-.182a2.208,2.208,0,0,0-2.3,2.121l-.182,4.636a2.212,2.212,0,0,0,2.121,2.3l4.637.183a2.4,2.4,0,0,0,.388-.025l.388-.054.07.385a21.837,21.837,0,0,0,2.546,6.974l.193.338-.328.21a2.23,2.23,0,0,0-.306.231l-3.42,3.133a2.211,2.211,0,0,0-.137,3.122l3.133,3.423a2.214,2.214,0,0,0,3.122.137l3.421-3.134a2.151,2.151,0,0,0,.258-.283Zm12.9-5.1q-.286,0-.574-.012a12.72,12.72,0,1,1,.574.012m-.03-24.582a11.9,11.9,0,1,0,.537.011c-.18-.008-.358-.011-.537-.011" transform="translate(-65.9 -21.443)" fill="#0f1b63"/>
            <path id="Trazado_1273383" data-name="Trazado 1273383" d="M69.753,317.779h-1.8a.6.6,0,0,1,0-1.205h1.8a.6.6,0,1,1,0,1.205m-5.821,0H59.914a.6.6,0,1,1,0-1.205h4.018a.6.6,0,0,1,0,1.205m-8.037,0H51.877a.6.6,0,1,1,0-1.205H55.9a.6.6,0,0,1,0,1.205m-8.037,0H43.84a.6.6,0,1,1,0-1.205h4.018a.6.6,0,0,1,0,1.205m-8.037,0H35.8a.6.6,0,1,1,0-1.205h4.018a.6.6,0,1,1,0,1.205m-8.037,0H27.767a.6.6,0,1,1,0-1.205h4.018a.6.6,0,1,1,0,1.205m-8.037-.006h-.016a15.308,15.308,0,0,1-4.114-.68.6.6,0,0,1,.358-1.151,14.121,14.121,0,0,0,3.789.627.6.6,0,0,1-.017,1.205m-7.577-2.356a.6.6,0,0,1-.327-.1,15.365,15.365,0,0,1-3.158-2.722.6.6,0,0,1,.9-.8,14.129,14.129,0,0,0,2.91,2.508.6.6,0,0,1-.329,1.109m-5.252-5.95a.6.6,0,0,1-.544-.34,15.348,15.348,0,0,1-1.284-3.967.6.6,0,0,1,1.187-.211,14.064,14.064,0,0,0,1.183,3.654.6.6,0,0,1-.542.865m-1.462-7.814a.6.6,0,0,1-.6-.6v-4.018a.6.6,0,0,1,1.205,0v4.018a.6.6,0,0,1-.6.6m0-8.037a.6.6,0,0,1-.6-.6V289a.6.6,0,0,1,1.205,0v4.018a.6.6,0,0,1-.6.6m0-8.037a.6.6,0,0,1-.6-.6V280.96a.6.6,0,1,1,1.205,0v4.018a.6.6,0,0,1-.6.6m0-8.037a.6.6,0,0,1-.6-.6v-4.018a.6.6,0,1,1,1.205,0v4.018a.6.6,0,0,1-.6.6m0-8.037a.6.6,0,0,1-.6-.6v-4.018a.6.6,0,1,1,1.205,0v4.018a.6.6,0,0,1-.6.6m0-8.036a.6.6,0,0,1-.6-.6V256.85a.6.6,0,1,1,1.205,0v4.018a.6.6,0,0,1-.6.6m0-8.037a.6.6,0,0,1-.6-.6v-4.018a.6.6,0,1,1,1.205,0v4.018a.6.6,0,0,1-.6.6m0-8.037a.6.6,0,0,1-.6-.6v-4.018a.6.6,0,1,1,1.205,0V244.8a.6.6,0,0,1-.6.6m0-8.037a.6.6,0,0,1-.6-.6V232.74a.6.6,0,1,1,1.205,0v4.018a.6.6,0,0,1-.6.6m0-8.037a.6.6,0,0,1-.6-.6V224.7a.6.6,0,1,1,1.205,0v4.018a.6.6,0,0,1-.6.6m0-8.037a.6.6,0,0,1-.6-.6v-4.018a.6.6,0,0,1,1.205,0v4.018a.6.6,0,0,1-.6.6m0-8.037a.6.6,0,0,1-.6-.6V208.63a.6.6,0,0,1,1.205,0v4.018a.6.6,0,0,1-.6.6m0-8.037a.6.6,0,0,1-.6-.6v-.406a15.341,15.341,0,0,1,.455-3.721.6.6,0,0,1,1.169.292,14.164,14.164,0,0,0-.419,3.428v.406a.6.6,0,0,1-.6.6m1.93-7.7a.611.611,0,0,1-.3-.079.6.6,0,0,1-.224-.822,15.389,15.389,0,0,1,2.541-3.305.6.6,0,0,1,.848.858,14.126,14.126,0,0,0-2.342,3.045.6.6,0,0,1-.524.3m5.645-5.578a.6.6,0,0,1-.294-1.13,15.23,15.23,0,0,1,3.889-1.507.6.6,0,0,1,.278,1.173,14,14,0,0,0-3.581,1.388.6.6,0,0,1-.292.076M117.176,190.1h-4.018a.6.6,0,0,1,0-1.206h4.018a.6.6,0,0,1,0,1.206m-8.037,0h-4.018a.6.6,0,1,1,0-1.206h4.018a.6.6,0,0,1,0,1.206m-8.037,0H97.084a.6.6,0,0,1,0-1.206H101.1a.6.6,0,0,1,0,1.206m-8.037,0H89.047a.6.6,0,0,1,0-1.206h4.018a.6.6,0,0,1,0,1.206m-8.037,0H81.011a.6.6,0,0,1,0-1.206h4.018a.6.6,0,0,1,0,1.206m-8.036,0H72.974a.6.6,0,0,1,0-1.206h4.019a.6.6,0,0,1,0,1.206m-8.037,0H64.938a.6.6,0,0,1,0-1.206h4.018a.6.6,0,0,1,0,1.206m-8.037,0H56.9a.6.6,0,0,1,0-1.206H60.92a.6.6,0,0,1,0,1.206m-8.037,0H48.865a.6.6,0,0,1,0-1.206h4.018a.6.6,0,0,1,0,1.206m-8.037,0H40.828a.6.6,0,0,1,0-1.206h4.018a.6.6,0,0,1,0,1.206m-8.037,0H32.791a.6.6,0,0,1,0-1.206H36.81a.6.6,0,0,1,0,1.206m-8.037,0H24.755a.6.6,0,0,1,0-1.206h4.018a.6.6,0,0,1,0,1.206" transform="translate(-1.63 -34.773)" fill="#6cb9ff"/>
            <path id="Trazado_1273384" data-name="Trazado 1273384" d="M11.627,267.5A2.626,2.626,0,1,1,9,264.875a2.626,2.626,0,0,1,2.626,2.626" transform="translate(-1.173 -48.762)" fill="#6cb9ff"/>
            <path id="Trazado_1273385" data-name="Trazado 1273385" d="M8.482,271.906a4.922,4.922,0,1,1,4.922-4.922,4.928,4.928,0,0,1-4.922,4.922m0-9.242a4.32,4.32,0,1,0,4.319,4.319,4.324,4.324,0,0,0-4.319-4.319" transform="translate(-0.655 -48.244)" fill="#6cb9ff"/>
            <path id="Trazado_1273386" data-name="Trazado 1273386" d="M175.236,137.955a.734.734,0,0,1-.733-.734v-4.889a.733.733,0,1,1,1.466,0v4.889a.734.734,0,0,1-.733.734m0-9.778a.734.734,0,0,1-.733-.733v-4.889a.733.733,0,1,1,1.466,0v4.889a.734.734,0,0,1-.733.733m0-9.779a.733.733,0,0,1-.733-.733v-4.889a.733.733,0,1,1,1.466,0v4.889a.733.733,0,0,1-.733.733m0-9.778a.734.734,0,0,1-.733-.734V103a.733.733,0,0,1,1.466,0v4.889a.733.733,0,0,1-.733.734m0-9.778a.734.734,0,0,1-.733-.733V93.221a.733.733,0,1,1,1.466,0V98.11a.733.733,0,0,1-.733.733m0-9.778a.734.734,0,0,1-.733-.733V83.443a.733.733,0,1,1,1.466,0v4.889a.734.734,0,0,1-.733.733m77.643-8.808a.734.734,0,0,1-.734-.734V76.81a.733.733,0,1,1,1.466,0v2.714a.733.733,0,0,1-.733.734m-77.643-.97a.734.734,0,0,1-.733-.734V73.665a.733.733,0,1,1,1.466,0v4.889a.734.734,0,0,1-.733.734m77.643-6.633a.734.734,0,0,1-.734-.733V67.033a.733.733,0,1,1,1.466,0v4.889a.733.733,0,0,1-.733.733M175.236,69.51a.734.734,0,0,1-.733-.733V63.887a.733.733,0,1,1,1.466,0v4.889a.734.734,0,0,1-.733.733m77.643-6.633a.734.734,0,0,1-.734-.733V57.255a.733.733,0,1,1,1.466,0v4.889a.733.733,0,0,1-.733.733m-77.643-3.146A.733.733,0,0,1,174.5,59V54.109a.733.733,0,1,1,1.466,0V59a.733.733,0,0,1-.733.733M252.879,53.1a.733.733,0,0,1-.734-.733v-4.89a.733.733,0,0,1,1.466,0v4.89a.733.733,0,0,1-.733.733m-77.643-3.145a.734.734,0,0,1-.733-.734V44.331a.733.733,0,0,1,1.466,0V49.22a.733.733,0,0,1-.733.734m77.643-6.633a.733.733,0,0,1-.734-.734V37.7a.733.733,0,1,1,1.466,0v4.889a.733.733,0,0,1-.733.734m-77.643-3.145a.734.734,0,0,1-.733-.733V34.553a.733.733,0,1,1,1.466,0v4.889a.733.733,0,0,1-.733.733m77.643-6.633a.734.734,0,0,1-.734-.734V27.92a.733.733,0,1,1,1.466,0v4.889a.733.733,0,0,1-.733.734M175.236,30.4a.734.734,0,0,1-.733-.733V24.775a.733.733,0,1,1,1.466,0v4.889a.734.734,0,0,1-.733.733m77.612-6.632a.733.733,0,0,1-.732-.692,17.075,17.075,0,0,0-.9-4.585.733.733,0,0,1,1.387-.476,18.538,18.538,0,0,1,.974,4.978.734.734,0,0,1-.69.774h-.042m-77.13-3.108a.7.7,0,0,1-.169-.02.733.733,0,0,1-.545-.883,18.46,18.46,0,0,1,1.836-4.731.733.733,0,1,1,1.28.714,17.052,17.052,0,0,0-1.69,4.355.731.731,0,0,1-.712.565m74-6.021a.732.732,0,0,1-.6-.316,17.3,17.3,0,0,0-3.154-3.452.733.733,0,1,1,.939-1.126,18.766,18.766,0,0,1,3.422,3.743.732.732,0,0,1-.187,1.02.721.721,0,0,1-.416.131M180.4,12.216a.734.734,0,0,1-.522-1.249,18.74,18.74,0,0,1,4.02-3.091.733.733,0,1,1,.728,1.274A17.248,17.248,0,0,0,180.923,12a.728.728,0,0,1-.521.218m61.9-3.76a.737.737,0,0,1-.3-.064,17.076,17.076,0,0,0-4.486-1.31.733.733,0,1,1,.214-1.451A18.573,18.573,0,0,1,242.6,7.054a.733.733,0,0,1-.3,1.4M188.785,7.429a.734.734,0,0,1-.177-1.445,18.719,18.719,0,0,1,4.528-.554h.494a.734.734,0,1,1,0,1.467h-.494a17.24,17.24,0,0,0-4.173.51.733.733,0,0,1-.178.022M232.742,6.9h-4.89a.734.734,0,0,1,0-1.467h4.89a.734.734,0,1,1,0,1.467m-9.779,0h-4.888a.734.734,0,0,1,0-1.467h4.888a.734.734,0,0,1,0,1.467m-9.778,0H208.3a.734.734,0,1,1,0-1.467h4.889a.734.734,0,1,1,0,1.467m-9.777,0h-4.889a.734.734,0,1,1,0-1.467h4.889a.734.734,0,0,1,0,1.467" transform="translate(-32.125 -1)" fill="#6cb9ff"/>
            <path id="Trazado_1273387" data-name="Trazado 1273387" d="M222.36,8.463A2.755,2.755,0,1,0,219.6,5.707a2.755,2.755,0,0,0,2.755,2.755" transform="translate(-40.428 -0.543)" fill="#6cb9ff"/>
            <path id="Trazado_1273388" data-name="Trazado 1273388" d="M221.817,10.328a5.164,5.164,0,1,1,5.164-5.164,5.17,5.17,0,0,1-5.164,5.164m0-9.7a4.532,4.532,0,1,0,4.532,4.532A4.537,4.537,0,0,0,221.817.632" transform="translate(-39.884 0)" fill="#6cb9ff"/>
            <rect id="Rectángulo_460907" data-name="Rectángulo 460907" width="47.285" height="8.084" transform="translate(137.94 44.889)" fill="#c1c1c1"/>
            <path id="Trazado_1273389" data-name="Trazado 1273389" d="M253.922,51.289h-33.8a9.583,9.583,0,0,0-6.375,2.256l-9.182,6.871H168.391a2.737,2.737,0,0,0-2.737,2.738V113.22a2.738,2.738,0,0,0,2.737,2.738H256.53a2.739,2.739,0,0,0,2.738-2.738V57.373c0-3.215-2.394-6.084-5.346-6.084" transform="translate(-30.496 -9.442)" fill="#ffc655"/>
            <path id="Trazado_1273390" data-name="Trazado 1273390" d="M66.227,312.6h-.046l-6.982-.076a4.347,4.347,0,0,1-4.3-4.394l.075-6.982a3.628,3.628,0,0,1,.024-.377A33.822,33.822,0,0,1,44.8,296.4c-.081.095-.165.182-.25.266l-5.013,4.861a4.355,4.355,0,0,1-6.149-.1l-4.86-5.013a4.353,4.353,0,0,1,.095-6.148l5.014-4.86c.086-.083.176-.163.274-.242a33.791,33.791,0,0,1-3.982-10.013c-.131.012-.255.015-.376.016l-6.982-.076a4.352,4.352,0,0,1-4.3-4.394l.076-6.982a4.348,4.348,0,0,1,4.346-4.3h.048l6.982.076c.122,0,.246.009.377.024a33.837,33.837,0,0,1,4.368-10.2c-.095-.08-.183-.163-.267-.249l-4.86-5.015a4.352,4.352,0,0,1,.1-6.148l5.012-4.86a4.21,4.21,0,0,1,3.094-1.223,4.313,4.313,0,0,1,3.055,1.319l4.86,5.013q.126.128.243.274a33.774,33.774,0,0,1,10.012-3.982,3.752,3.752,0,0,1-.016-.377l.075-6.982a4.321,4.321,0,0,1,1.308-3.059,4.41,4.41,0,0,1,3.087-1.242l6.982.076a4.353,4.353,0,0,1,4.3,4.394l-.075,6.983a3.615,3.615,0,0,1-.024.378,33.789,33.789,0,0,1,10.195,4.368c.081-.095.165-.183.251-.267l5.013-4.861a4.354,4.354,0,0,1,6.149.1l4.86,5.013a4.353,4.353,0,0,1-.1,6.148l-5.013,4.86c-.086.084-.177.164-.274.242a33.8,33.8,0,0,1,3.982,10.012c.131-.012.255-.015.376-.015l6.982.075a4.354,4.354,0,0,1,4.3,4.394L108,271.671a4.319,4.319,0,0,1-1.322,3.073,4.427,4.427,0,0,1-3.073,1.227l-6.982-.076a3.651,3.651,0,0,1-.378-.025,33.791,33.791,0,0,1-4.368,10.2c.1.081.184.164.268.25l4.86,5.015a4.352,4.352,0,0,1-.1,6.148l-5.012,4.86a4.386,4.386,0,0,1-3.094,1.224,4.32,4.32,0,0,1-3.055-1.319l-4.86-5.013a3.457,3.457,0,0,1-.242-.275,33.793,33.793,0,0,1-10.014,3.983,3.548,3.548,0,0,1,.016.376l-.075,6.982a4.355,4.355,0,0,1-4.349,4.3M44.61,295.3l.325.214a33.063,33.063,0,0,0,10.617,4.546l.381.089-.073.384a3.452,3.452,0,0,0-.07.619l-.075,6.982a3.531,3.531,0,0,0,3.493,3.57l6.983.075a3.617,3.617,0,0,0,2.494-1,3.5,3.5,0,0,0,1.075-2.5l.075-6.982a3.373,3.373,0,0,0-.057-.618l-.064-.385.383-.082a33,33,0,0,0,10.445-4.155l.332-.2.219.321a3.569,3.569,0,0,0,.384.478l4.86,5.012a3.508,3.508,0,0,0,2.481,1.071,3.616,3.616,0,0,0,2.514-.995l5.012-4.86a3.533,3.533,0,0,0,.078-4.993l-4.86-5.015a3.681,3.681,0,0,0-.466-.4l-.315-.228.214-.326a32.983,32.983,0,0,0,4.547-10.616l.089-.381.384.073a3.47,3.47,0,0,0,.619.07l6.982.076a3.537,3.537,0,0,0,3.57-3.494l.076-6.982a3.537,3.537,0,0,0-3.494-3.57l-6.982-.075a3.656,3.656,0,0,0-.621.054l-.385.064-.081-.381a33.018,33.018,0,0,0-4.153-10.444l-.2-.332.323-.219a3.467,3.467,0,0,0,.476-.383l5.013-4.86a3.536,3.536,0,0,0,.078-4.994l-4.86-5.012a3.538,3.538,0,0,0-4.995-.078l-5.013,4.86a3.434,3.434,0,0,0-.4.464l-.228.316-.326-.214A33.034,33.034,0,0,0,70.8,235.329l-.38-.089.073-.384a3.529,3.529,0,0,0,.068-.62l.075-6.982a3.536,3.536,0,0,0-3.494-3.57l-6.982-.076a3.673,3.673,0,0,0-2.506,1.008,3.513,3.513,0,0,0-1.063,2.485l-.075,6.983a3.508,3.508,0,0,0,.055.62l.064.385-.383.081a32.97,32.97,0,0,0-10.442,4.153l-.333.2-.219-.323a3.436,3.436,0,0,0-.383-.476l-4.86-5.014a3.538,3.538,0,0,0-4.995-.077L30,238.5a3.534,3.534,0,0,0-.078,4.994l4.86,5.013a3.522,3.522,0,0,0,.465.4l.316.228-.214.326a33.012,33.012,0,0,0-4.547,10.615l-.089.379-.383-.072a3.493,3.493,0,0,0-.621-.068l-6.982-.076a3.569,3.569,0,0,0-2.5,1,3.52,3.52,0,0,0-1.073,2.5l-.075,6.982a3.535,3.535,0,0,0,3.493,3.569l6.982.076a3.5,3.5,0,0,0,.618-.056l.387-.065.081.383A33,33,0,0,0,34.8,285.064l.2.331-.322.219a3.456,3.456,0,0,0-.476.383l-5.013,4.861a3.536,3.536,0,0,0-.078,4.994l4.86,5.012a3.536,3.536,0,0,0,4.995.078l5.013-4.86a3.521,3.521,0,0,0,.4-.464Zm18.572-8.7-.3,0a18.909,18.909,0,1,1,.3,0m-.017-36.992a18.088,18.088,0,0,0-.272,36.174l.289,0a18.088,18.088,0,0,0,.272-36.173l-.289,0" transform="translate(-3.364 -41.015)" fill="#0f1b63"/>
            <rect id="Rectángulo_460908" data-name="Rectángulo 460908" width="75.04" height="35.972" transform="translate(141.655 250.37)" fill="#133c41"/>
            <path id="Trazado_1273391" data-name="Trazado 1273391" d="M316.131,96.556V260.425a9.531,9.531,0,0,1-9.537,9.53H76.358a9.536,9.536,0,0,1-9.537-9.53V96.556a9.542,9.542,0,0,1,9.537-9.537H306.594a9.537,9.537,0,0,1,9.537,9.537" transform="translate(-12.301 -16.02)" fill="#1e535a"/>
            <g id="Grupo_1211172" data-name="Grupo 1211172" transform="translate(173.874 237.514)" opacity="0.5">
              <g id="Grupo_1211171" data-name="Grupo 1211171">
                <g id="Grupo_1211170" data-name="Grupo 1211170" clip-path="url(#clip-path-4)">
                  <path id="Trazado_1273392" data-name="Trazado 1273392" d="M222.9,296a4.9,4.9,0,1,1-4.9-4.9,4.9,4.9,0,0,1,4.9,4.9" transform="translate(-213.105 -291.104)" fill="#fff"/>
                </g>
              </g>
            </g>
            <path id="Trazado_1273393" data-name="Trazado 1273393" d="M313.813,248.348V99.11a8.053,8.053,0,0,0-7.909-8.191H78.4a8.053,8.053,0,0,0-7.909,8.191V248.348Z" transform="translate(-12.977 -16.738)" fill="#d5f4f8"/>
            <path id="Trazado_1273394" data-name="Trazado 1273394" d="M260.09,353.951H155.521v-.25a7.5,7.5,0,0,1,7.5-7.5h89.565a7.5,7.5,0,0,1,7.5,7.5Z" transform="translate(-28.63 -63.733)" fill="#1e535a"/>
            <path id="Trazado_1273395" data-name="Trazado 1273395" d="M77.133,81.041A14.066,14.066,0,0,0,64.68,67.071,12.488,12.488,0,0,0,52.229,53.094a12.473,12.473,0,0,0-5.194,1.137A18.777,18.777,0,0,0,12.443,64.355a18.974,18.974,0,0,0,.194,2.688A14.071,14.071,0,0,0,14.07,95.111h49.69v-.036A14.058,14.058,0,0,0,77.133,81.041" transform="translate(0 -8.39)" fill="#69d7e5"/>
            <path id="Trazado_1273396" data-name="Trazado 1273396" d="M52.976,114.514V92.654H34.952v21.861H29.318l14.646,13.721L58.61,114.514Z" transform="translate(-5.397 -17.057)" fill="#ffc655"/>
            <path id="Trazado_1273397" data-name="Trazado 1273397" d="M290.684,95.048H246.431a7.409,7.409,0,0,1-7.409-7.408V72.923a7.409,7.409,0,0,1,7.409-7.409h44.252a7.409,7.409,0,0,1,7.409,7.409V87.64a7.409,7.409,0,0,1-7.409,7.408" transform="translate(-44.002 -12.061)" fill="#69d7e5"/>
            <path id="Trazado_1273398" data-name="Trazado 1273398" d="M88.226,355.544H43.973a7.41,7.41,0,0,1-7.409-7.409V333.418a7.41,7.41,0,0,1,7.409-7.41H88.226a7.41,7.41,0,0,1,7.409,7.41v14.717a7.41,7.41,0,0,1-7.409,7.409" transform="translate(-6.731 -60.016)" fill="#69d7e5"/>
            <path id="Trazado_1273399" data-name="Trazado 1273399" d="M114.306,202.4H70.053A7.41,7.41,0,0,1,62.644,195V180.279a7.41,7.41,0,0,1,7.409-7.41h44.252a7.41,7.41,0,0,1,7.409,7.41V195a7.41,7.41,0,0,1-7.409,7.409" transform="translate(-11.532 -31.824)" fill="#69d7e5"/>
            <path id="Trazado_1273400" data-name="Trazado 1273400" d="M316.454,324.686h-2.107a.632.632,0,0,1,0-1.265h2.107a.632.632,0,0,1,0,1.265" transform="translate(-57.753 -59.539)" fill="#b19cfe"/>
            <path id="Trazado_1273401" data-name="Trazado 1273401" d="M368.478,307.924h-4.217a.632.632,0,0,1,0-1.265h4.217a.632.632,0,1,1,0,1.265m-8.433,0H355.83a.632.632,0,0,1,0-1.265h4.215a.632.632,0,0,1,0,1.265m-8.432,0H347.4a.632.632,0,1,1,0-1.265h4.217a.632.632,0,0,1,0,1.265m-8.433,0h-4.217a.632.632,0,1,1,0-1.265h4.217a.632.632,0,1,1,0,1.265m-8.433,0h-4.216a.632.632,0,0,1,0-1.265h4.216a.632.632,0,1,1,0,1.265m-8.432,0H322.1a.632.632,0,1,1,0-1.265h4.217a.632.632,0,0,1,0,1.265m46.339-.49a.632.632,0,0,1-.148-1.247,16.7,16.7,0,0,0,3.794-1.425.633.633,0,1,1,.585,1.122,18.013,18.013,0,0,1-4.081,1.532.672.672,0,0,1-.149.017m7.407-3.856a.632.632,0,0,1-.418-1.107,16.95,16.95,0,0,0,2.7-3.021.632.632,0,1,1,1.036.725,18.245,18.245,0,0,1-2.9,3.247.633.633,0,0,1-.418.157m4.78-6.843a.632.632,0,0,1-.59-.86,16.647,16.647,0,0,0,.99-3.929.632.632,0,0,1,1.255.157,17.971,17.971,0,0,1-1.065,4.226.631.631,0,0,1-.59.4m1.167-8.287a.632.632,0,0,1-.632-.632V283.6a.632.632,0,0,1,1.265,0v4.217a.632.632,0,0,1-.632.632m0-8.432a.633.633,0,0,1-.632-.632v-4.217a.632.632,0,0,1,1.265,0v4.217a.633.633,0,0,1-.632.632m0-8.433a.632.632,0,0,1-.632-.632v-4.216a.632.632,0,0,1,1.265,0v4.216a.632.632,0,0,1-.632.632m0-8.432a.632.632,0,0,1-.632-.632V258.3a.632.632,0,0,1,1.265,0v4.217a.632.632,0,0,1-.632.632m0-8.432a.632.632,0,0,1-.632-.632v-4.217a.632.632,0,0,1,1.265,0v4.217a.632.632,0,0,1-.632.632m0-8.433a.632.632,0,0,1-.632-.632v-4.216a.632.632,0,0,1,1.265,0v4.216a.632.632,0,0,1-.632.632m0-8.432a.632.632,0,0,1-.632-.632V233a.632.632,0,1,1,1.265,0v4.217a.632.632,0,0,1-.632.632" transform="translate(-59.18 -42.778)" fill="#6cb9ff"/>
            <path id="Trazado_1273402" data-name="Trazado 1273402" d="M400.165,227.968a.632.632,0,0,1-.632-.632V225.86H399a.633.633,0,0,1,0-1.265h1.163a.633.633,0,0,1,.632.632v2.108a.632.632,0,0,1-.632.632" transform="translate(-73.337 -41.346)" fill="#b19cfe"/>
            <path id="Trazado_1273403" data-name="Trazado 1273403" d="M362.675,147.1H307.352a6.021,6.021,0,0,0-6.021,6.021V268.089a6.021,6.021,0,0,0,6.021,6.021h55.323a6.021,6.021,0,0,0,6.021-6.021V153.12a6.021,6.021,0,0,0-6.021-6.021" transform="translate(-55.473 -27.08)" fill="#69d7e5"/>
            <path id="Trazado_1273404" data-name="Trazado 1273404" d="M350.693,154.76H320.262a.957.957,0,0,1-.956-.956v-.124a.957.957,0,0,1,.956-.956h30.431a.957.957,0,0,1,.956.956v.124a.957.957,0,0,1-.956.956" transform="translate(-58.782 -28.115)" fill="#0f1b63"/>
            <path id="Trazado_1273405" data-name="Trazado 1273405" d="M365.461,153.741a1.018,1.018,0,1,1-1.018-1.018,1.018,1.018,0,0,1,1.018,1.018" transform="translate(-66.904 -28.115)" fill="#0f1b63"/>
            <rect id="Rectángulo_460910" data-name="Rectángulo 460910" width="59.949" height="36.837" transform="translate(249.566 131.554)" fill="#fff"/>
            <path id="Trazado_1273406" data-name="Trazado 1273406" d="M348.7,178.218l-4.4,5.258L332.936,169.87l-19.016,22.747h46.821Z" transform="translate(-57.791 -31.272)" fill="#ffc655"/>
            <rect id="Rectángulo_460911" data-name="Rectángulo 460911" width="28.303" height="16.6" transform="translate(249.566 217.184)" fill="#fff"/>
            <path id="Trazado_1273407" data-name="Trazado 1273407" d="M326.1,273.2l-2.075,2.482-5.369-6.423L309.675,280h22.1Z" transform="translate(-57.009 -49.57)" fill="#ffc655"/>
            <g id="Grupo_1211175" data-name="Grupo 1211175" transform="translate(249.566 174.533)" style="mix-blend-mode: multiply;isolation: isolate">
              <g id="Grupo_1211174" data-name="Grupo 1211174">
                <g id="Grupo_1211173" data-name="Grupo 1211173" clip-path="url(#clip-path-5)">
                  <rect id="Rectángulo_460912" data-name="Rectángulo 460912" width="28.303" height="1.59" transform="translate(0 3.333)" fill="#b19cfe"/>
                  <rect id="Rectángulo_460913" data-name="Rectángulo 460913" width="28.303" height="1.59" transform="translate(0 0)" fill="#b19cfe"/>
                  <rect id="Rectángulo_460914" data-name="Rectángulo 460914" width="17.896" height="1.59" transform="translate(0 6.588)" fill="#b19cfe"/>
                  <rect id="Rectángulo_460915" data-name="Rectángulo 460915" width="9.134" height="1.59" transform="translate(19.169 6.588)" fill="#b19cfe"/>
                  <rect id="Rectángulo_460916" data-name="Rectángulo 460916" width="25.04" height="1.59" transform="translate(0 9.839)" fill="#b19cfe"/>
                  <rect id="Rectángulo_460917" data-name="Rectángulo 460917" width="8.697" height="1.59" transform="translate(0 13.179)" fill="#b19cfe"/>
                  <rect id="Rectángulo_460918" data-name="Rectángulo 460918" width="6.264" height="1.59" transform="translate(10.197 13.179)" fill="#b19cfe"/>
                </g>
              </g>
            </g>
            <g id="Grupo_1211178" data-name="Grupo 1211178" transform="translate(281.212 196.803)" style="mix-blend-mode: multiply;isolation: isolate">
              <g id="Grupo_1211177" data-name="Grupo 1211177">
                <g id="Grupo_1211176" data-name="Grupo 1211176" clip-path="url(#clip-path-6)">
                  <rect id="Rectángulo_460920" data-name="Rectángulo 460920" width="28.303" height="1.59" transform="translate(0 3.332)" fill="#b19cfe"/>
                  <rect id="Rectángulo_460921" data-name="Rectángulo 460921" width="28.303" height="1.59" transform="translate(0 0)" fill="#b19cfe"/>
                  <rect id="Rectángulo_460922" data-name="Rectángulo 460922" width="17.896" height="1.59" transform="translate(0 6.587)" fill="#b19cfe"/>
                  <rect id="Rectángulo_460923" data-name="Rectángulo 460923" width="9.134" height="1.59" transform="translate(19.169 6.587)" fill="#b19cfe"/>
                  <rect id="Rectángulo_460924" data-name="Rectángulo 460924" width="25.04" height="1.59" transform="translate(0 9.838)" fill="#b19cfe"/>
                  <rect id="Rectángulo_460925" data-name="Rectángulo 460925" width="8.697" height="1.59" transform="translate(0 13.179)" fill="#b19cfe"/>
                  <rect id="Rectángulo_460926" data-name="Rectángulo 460926" width="6.264" height="1.59" transform="translate(10.197 13.179)" fill="#b19cfe"/>
                </g>
              </g>
            </g>
            <g id="Grupo_1211181" data-name="Grupo 1211181" transform="translate(281.212 174.533)" style="mix-blend-mode: multiply;isolation: isolate">
              <g id="Grupo_1211180" data-name="Grupo 1211180">
                <g id="Grupo_1211179" data-name="Grupo 1211179" clip-path="url(#clip-path-5)">
                  <rect id="Rectángulo_460928" data-name="Rectángulo 460928" width="28.303" height="1.59" transform="translate(0 3.333)" fill="#b19cfe"/>
                  <rect id="Rectángulo_460929" data-name="Rectángulo 460929" width="28.303" height="1.59" transform="translate(0 0)" fill="#b19cfe"/>
                  <rect id="Rectángulo_460930" data-name="Rectángulo 460930" width="17.896" height="1.59" transform="translate(0 6.588)" fill="#b19cfe"/>
                  <rect id="Rectángulo_460931" data-name="Rectángulo 460931" width="9.134" height="1.59" transform="translate(19.169 6.588)" fill="#b19cfe"/>
                  <rect id="Rectángulo_460932" data-name="Rectángulo 460932" width="28.303" height="1.59" transform="translate(0 9.839)" fill="#b19cfe"/>
                  <rect id="Rectángulo_460933" data-name="Rectángulo 460933" width="8.697" height="1.59" transform="translate(0 13.179)" fill="#b19cfe"/>
                  <rect id="Rectángulo_460934" data-name="Rectángulo 460934" width="18.106" height="1.59" transform="translate(10.197 13.179)" fill="#b19cfe"/>
                </g>
              </g>
            </g>
            <g id="Grupo_1211184" data-name="Grupo 1211184" transform="translate(249.566 196.803)" style="mix-blend-mode: multiply;isolation: isolate">
              <g id="Grupo_1211183" data-name="Grupo 1211183">
                <g id="Grupo_1211182" data-name="Grupo 1211182" clip-path="url(#clip-path-6)">
                  <rect id="Rectángulo_460936" data-name="Rectángulo 460936" width="28.303" height="1.59" transform="translate(0 3.332)" fill="#b19cfe"/>
                  <rect id="Rectángulo_460937" data-name="Rectángulo 460937" width="28.303" height="1.59" transform="translate(0 0)" fill="#b19cfe"/>
                  <rect id="Rectángulo_460938" data-name="Rectángulo 460938" width="28.303" height="1.59" transform="translate(0 6.587)" fill="#b19cfe"/>
                  <rect id="Rectángulo_460939" data-name="Rectángulo 460939" width="28.303" height="1.59" transform="translate(0 9.838)" fill="#b19cfe"/>
                  <rect id="Rectángulo_460940" data-name="Rectángulo 460940" width="28.303" height="1.59" transform="translate(0 13.179)" fill="#b19cfe"/>
                </g>
              </g>
            </g>
            <g id="Grupo_1211187" data-name="Grupo 1211187" transform="translate(281.212 217.727)" style="mix-blend-mode: multiply;isolation: isolate">
              <g id="Grupo_1211186" data-name="Grupo 1211186">
                <g id="Grupo_1211185" data-name="Grupo 1211185" clip-path="url(#clip-path-5)">
                  <rect id="Rectángulo_460942" data-name="Rectángulo 460942" width="28.303" height="1.59" transform="translate(0 3.332)" fill="#b19cfe"/>
                  <rect id="Rectángulo_460943" data-name="Rectángulo 460943" width="28.303" height="1.59" fill="#b19cfe"/>
                  <rect id="Rectángulo_460944" data-name="Rectángulo 460944" width="17.896" height="1.59" transform="translate(10.407 6.588)" fill="#b19cfe"/>
                  <rect id="Rectángulo_460945" data-name="Rectángulo 460945" width="9.134" height="1.59" transform="translate(0 6.588)" fill="#b19cfe"/>
                  <rect id="Rectángulo_460946" data-name="Rectángulo 460946" width="21.732" height="1.59" transform="translate(0 9.839)" fill="#b19cfe"/>
                  <rect id="Rectángulo_460947" data-name="Rectángulo 460947" width="5.06" height="1.59" transform="translate(23.242 9.839)" fill="#b19cfe"/>
                  <rect id="Rectángulo_460948" data-name="Rectángulo 460948" width="20.877" height="1.59" transform="translate(7.426 13.179)" fill="#b19cfe"/>
                  <rect id="Rectángulo_460949" data-name="Rectángulo 460949" width="6.264" height="1.59" transform="translate(0 13.179)" fill="#b19cfe"/>
                </g>
              </g>
            </g>
            <path id="Trazado_1273408" data-name="Trazado 1273408" d="M306.1,332.3H261.849a7.41,7.41,0,0,1-7.409-7.409V310.178a7.409,7.409,0,0,1,7.409-7.409H306.1a7.409,7.409,0,0,1,7.409,7.409v14.717A7.41,7.41,0,0,1,306.1,332.3" transform="translate(-46.841 -55.738)" fill="#69d7e5"/>
            <path id="Trazado_1273409" data-name="Trazado 1273409" d="M402.12,278.307a2.755,2.755,0,1,1-2.755-2.755,2.755,2.755,0,0,1,2.755,2.755" transform="translate(-73.013 -50.727)" fill="#6cb9ff"/>
            <path id="Trazado_1273410" data-name="Trazado 1273410" d="M398.82,282.928a5.164,5.164,0,1,1,5.164-5.165,5.17,5.17,0,0,1-5.164,5.165m0-9.7a4.532,4.532,0,1,0,4.532,4.532,4.537,4.537,0,0,0-4.532-4.532" transform="translate(-72.469 -50.184)" fill="#6cb9ff"/>
            <path id="Trazado_1273411" data-name="Trazado 1273411" d="M417.473,222.714H373.22a7.41,7.41,0,0,1-7.409-7.409V200.588a7.409,7.409,0,0,1,7.409-7.409h44.252a7.409,7.409,0,0,1,7.409,7.409V215.3a7.41,7.41,0,0,1-7.409,7.409" transform="translate(-67.343 -35.563)" fill="#69d7e5"/>
            <rect id="Rectángulo_460951" data-name="Rectángulo 460951" width="18.588" height="1.686" transform="translate(172.671 192.558)" fill="#0f1b63"/>
            <rect id="Rectángulo_460952" data-name="Rectángulo 460952" width="43.045" height="1.686" transform="translate(196.027 192.558)" fill="#0f1b63"/>
            <path id="Trazado_1273412" data-name="Trazado 1273412" d="M260.973,253.4c-7.389,0-14.794-.009-22.165-.027l0-1.686c14.74.036,29.617.036,44.221,0l0,1.686c-7.3.018-14.674.027-22.063.027" transform="translate(-43.963 -46.334)" fill="#0f1b63"/>
            <rect id="Rectángulo_460953" data-name="Rectángulo 460953" width="50.998" height="1.686" transform="translate(188.073 198.957)" fill="#0f1b63"/>
            <rect id="Rectángulo_460954" data-name="Rectángulo 460954" width="53.773" height="1.686" transform="translate(185.298 211.782)" fill="#0f1b63"/>
            <rect id="Rectángulo_460955" data-name="Rectángulo 460955" width="61.231" height="1.686" transform="translate(177.841 218.181)" fill="#0f1b63"/>
            <rect id="Rectángulo_460956" data-name="Rectángulo 460956" width="28.789" height="1.686" transform="translate(72.214 96.131)" fill="#6cb9ff"/>
            <rect id="Rectángulo_460957" data-name="Rectángulo 460957" width="29.709" height="1.686" transform="translate(138.207 96.131)" fill="#6cb9ff"/>
            <rect id="Rectángulo_460958" data-name="Rectángulo 460958" width="20.608" height="1.686" transform="translate(147.307 102.53)" fill="#ffc655"/>
            <rect id="Rectángulo_460959" data-name="Rectángulo 460959" width="29.085" height="1.686" transform="translate(138.83 115.355)" fill="#ffc655"/>
            <rect id="Rectángulo_460960" data-name="Rectángulo 460960" width="34.782" height="1.686" transform="translate(133.133 121.754)" fill="#ffc655"/>
            <rect id="Rectángulo_460961" data-name="Rectángulo 460961" width="44.74" height="1.686" transform="translate(123.175 129.235)" fill="#ffc655"/>
            <rect id="Rectángulo_460962" data-name="Rectángulo 460962" width="28.789" height="1.686" transform="translate(105.67 96.131)" fill="#ffc655"/>
            <path id="Trazado_1273413" data-name="Trazado 1273413" d="M172.043,135.22c-4.4,0-8.811-.007-17.637-.019l-5.738-.007,0-1.686,5.739.008c17.65.024,17.651.024,35.176,0l5.7-.008v1.686l-5.7.007c-8.764.012-13.146.019-17.544.019" transform="translate(-27.369 -24.578)" fill="#ffc655"/>
            <path id="Trazado_1273414" data-name="Trazado 1273414" d="M110.569,135.22c-7.389,0-14.761-.009-22.063-.026l0-1.686c14.6.035,29.481.035,44.221,0l0,1.686c-7.371.017-14.777.026-22.165.026" transform="translate(-16.293 -24.578)" fill="#6cb9ff"/>
            <rect id="Rectángulo_460963" data-name="Rectángulo 460963" width="71.004" height="1.686" transform="translate(72.214 102.53)" fill="#6cb9ff"/>
            <rect id="Rectángulo_460964" data-name="Rectángulo 460964" width="47.019" height="1.686" transform="translate(72.214 129.235)" fill="#6cb9ff"/>
            <rect id="Rectángulo_460965" data-name="Rectángulo 460965" width="62.944" height="1.686" transform="translate(72.214 115.355)" fill="#6cb9ff"/>
            <rect id="Rectángulo_460966" data-name="Rectángulo 460966" width="57.046" height="1.686" transform="translate(72.213 121.754)" fill="#6cb9ff"/>
            <path id="Trazado_1273415" data-name="Trazado 1273415" d="M82.022,118.593a1.163,1.163,0,1,1-1.163-1.163,1.163,1.163,0,0,1,1.163,1.163" transform="translate(-14.672 -21.618)" fill="#d42190"/>
            <path id="Trazado_1273416" data-name="Trazado 1273416" d="M82.022,126.436a1.163,1.163,0,1,1-1.163-1.163,1.163,1.163,0,0,1,1.163,1.163" transform="translate(-14.672 -23.062)" fill="#d42190"/>
            <path id="Trazado_1273417" data-name="Trazado 1273417" d="M82.022,134.278a1.163,1.163,0,1,1-1.163-1.162,1.163,1.163,0,0,1,1.163,1.162" transform="translate(-14.672 -24.506)" fill="#d42190"/>
            <path id="Trazado_1273418" data-name="Trazado 1273418" d="M82.022,142.121a1.163,1.163,0,1,1-1.163-1.162,1.163,1.163,0,0,1,1.163,1.162" transform="translate(-14.672 -25.95)" fill="#d42190"/>
            <path id="Trazado_1273419" data-name="Trazado 1273419" d="M82.022,150a1.163,1.163,0,1,1-1.163-1.163A1.163,1.163,0,0,1,82.022,150" transform="translate(-14.672 -27.399)" fill="#d42190"/>
            <path id="Trazado_1273420" data-name="Trazado 1273420" d="M82.022,159.166A1.163,1.163,0,1,1,80.86,158a1.163,1.163,0,0,1,1.163,1.163" transform="translate(-14.672 -29.087)" fill="#d42190"/>
            <path id="Trazado_1273421" data-name="Trazado 1273421" d="M215.113,155.463a.421.421,0,0,1-.422-.422V117.6a.422.422,0,0,1,.844,0v37.442a.421.421,0,0,1-.422.422" transform="translate(-39.523 -21.571)" fill="#cfe8ff"/>
            <path id="Trazado_1273422" data-name="Trazado 1273422" d="M123.882,256.918H121.29a.432.432,0,0,1,0-.864h2.592a.432.432,0,0,1,0,.864m-5.183,0h-2.592a.432.432,0,0,1,0-.864H118.7a.432.432,0,0,1,0,.864m-5.183,0h-1.05a3.478,3.478,0,0,1-1.686-.436.432.432,0,1,1,.419-.755,2.624,2.624,0,0,0,1.268.326h1.05a.432.432,0,0,1,0,.864m-4.03-2.4a.432.432,0,0,1-.421-.34,3.513,3.513,0,0,1-.08-.743V251.5a.432.432,0,1,1,.864,0v1.935a2.7,2.7,0,0,0,.06.56.432.432,0,0,1-.33.514.458.458,0,0,1-.093.01m-.069-5.178a.432.432,0,0,1-.432-.432v-2.591a.432.432,0,1,1,.864,0v2.591a.432.432,0,0,1-.432.432m0-5.183a.432.432,0,0,1-.432-.432v-2.591a.432.432,0,1,1,.864,0v2.591a.432.432,0,0,1-.432.432m0-5.183a.432.432,0,0,1-.432-.432v-2.591a.432.432,0,1,1,.864,0v2.591a.432.432,0,0,1-.432.432m0-5.183a.432.432,0,0,1-.432-.432v-.316a3.469,3.469,0,0,1,.924-2.363.432.432,0,0,1,.635.587,2.61,2.61,0,0,0-.7,1.776v.316a.432.432,0,0,1-.432.432m16.085-3.365h-2.591a.432.432,0,1,1,0-.864H125.5a.432.432,0,1,1,0,.864m-5.183,0h-2.592a.432.432,0,0,1,0-.864h2.592a.432.432,0,0,1,0,.864m-5.183,0h-2.591a.432.432,0,1,1,0-.864h2.591a.432.432,0,0,1,0,.864" transform="translate(-20.063 -42.261)" fill="#0f1b63"/>
            <rect id="Rectángulo_460967" data-name="Rectángulo 460967" width="13.875" height="1.728" transform="translate(99.345 203.44)" fill="#0f1b63"/>
            <rect id="Rectángulo_460968" data-name="Rectángulo 460968" width="22.415" height="1.728" transform="translate(116.851 203.44)" fill="#0f1b63"/>
            <rect id="Rectángulo_460969" data-name="Rectángulo 460969" width="13.875" height="1.728" transform="translate(125.391 218.139)" fill="#0f1b63"/>
            <rect id="Rectángulo_460970" data-name="Rectángulo 460970" width="22.415" height="1.728" transform="translate(99.345 218.139)" fill="#0f1b63"/>
            <rect id="Rectángulo_460971" data-name="Rectángulo 460971" width="24.403" height="1.728" transform="translate(99.345 208.446)" fill="#0f1b63"/>
            <rect id="Rectángulo_460972" data-name="Rectángulo 460972" width="11.886" height="1.728" transform="translate(127.379 208.446)" fill="#0f1b63"/>
            <rect id="Rectángulo_460973" data-name="Rectángulo 460973" width="20.082" height="1.728" transform="translate(99.345 213.361)" fill="#0f1b63"/>
            <rect id="Rectángulo_460974" data-name="Rectángulo 460974" width="13.626" height="1.728" transform="translate(125.639 213.361)" fill="#0f1b63"/>
            <rect id="Rectángulo_460975" data-name="Rectángulo 460975" width="7.263" height="13.524" transform="translate(99.345 182.566)" fill="#ffc655"/>
            <rect id="Rectángulo_460976" data-name="Rectángulo 460976" width="7.263" height="18.658" transform="translate(110.74 177.431)" fill="#6cb9ff"/>
            <rect id="Rectángulo_460977" data-name="Rectángulo 460977" width="7.263" height="29.302" transform="translate(121.759 166.787)" fill="#344866"/>
            <rect id="Rectángulo_460978" data-name="Rectángulo 460978" width="2.607" height="1.728" transform="translate(121.346 213.361)" fill="#0f1b63"/>
            <rect id="Rectángulo_460979" data-name="Rectángulo 460979" width="54.371" height="60.663" transform="translate(184.047 120.882)" fill="#69d7e5"/>
            <rect id="Rectángulo_460980" data-name="Rectángulo 460980" width="37.912" height="1.265" transform="translate(188.437 131.663)" fill="#fff"/>
            <path id="Trazado_1273423" data-name="Trazado 1273423" d="M249.869,173.912c-6.511,0-13.01-.007-18.917-.021l0-1.265c11.813.029,25.986.029,37.909,0l0,1.265c-5.963.015-12.487.021-19,.021" transform="translate(-42.517 -31.779)" fill="#fff"/>
            <rect id="Rectángulo_460981" data-name="Rectángulo 460981" width="37.912" height="1.265" transform="translate(188.437 136.255)" fill="#fff"/>
            <rect id="Rectángulo_460982" data-name="Rectángulo 460982" width="27.638" height="1.265" transform="translate(188.437 145.46)" fill="#fff"/>
            <rect id="Rectángulo_460983" data-name="Rectángulo 460983" width="37.912" height="1.265" transform="translate(188.437 176.371)" fill="#fff"/>
            <path id="Trazado_1273424" data-name="Trazado 1273424" d="M268.864,206.17c-11.924-.029-26.1-.029-37.909,0l0-1.265c11.815-.028,25.99-.028,37.915,0Z" transform="translate(-42.517 -37.718)" fill="#fff"/>
            <rect id="Rectángulo_460984" data-name="Rectángulo 460984" width="37.912" height="1.265" transform="translate(188.437 171.779)" fill="#fff"/>
            <rect id="Rectángulo_460985" data-name="Rectángulo 460985" width="27.638" height="1.265" transform="translate(188.437 162.574)" fill="#fff"/>
            <path id="Trazado_1273425" data-name="Trazado 1273425" d="M280.6,209.467H224.539V147.1H280.6Zm-55.214-.843h54.371V147.942H225.383Z" transform="translate(-41.336 -27.08)" fill="#1e535a"/>
            <rect id="Rectángulo_460986" data-name="Rectángulo 460986" width="55.215" height="7.266" transform="translate(183.624 120.44)" fill="#1e535a"/>
            <path id="Trazado_1273426" data-name="Trazado 1273426" d="M272.3,193.316a.634.634,0,0,1-.419-.158l-4.248-3.755a.633.633,0,0,1,0-.947l4.248-3.754a.633.633,0,1,1,.839.947l-3.713,3.281,3.713,3.28a.633.633,0,0,1-.419,1.106" transform="translate(-49.23 -33.973)" fill="#fff"/>
            <path id="Trazado_1273427" data-name="Trazado 1273427" d="M281.293,193.317a.633.633,0,0,1-.419-1.106l3.713-3.28-3.713-3.281a.633.633,0,1,1,.839-.947l4.248,3.754a.633.633,0,0,1,0,.947l-4.248,3.755a.635.635,0,0,1-.419.158" transform="translate(-51.668 -33.973)" fill="#fff"/>
            <path id="Trazado_1273428" data-name="Trazado 1273428" d="M230.882,151.6l1.473-1.473a.357.357,0,0,0-.5-.5l-1.473,1.473-1.473-1.473a.357.357,0,0,0-.505.5l1.474,1.473-1.474,1.473a.357.357,0,0,0,.505.505l1.473-1.474,1.473,1.474a.357.357,0,0,0,.5-.505Z" transform="translate(-42.028 -27.525)" fill="#fff"/>
            <path id="Trazado_1273429" data-name="Trazado 1273429" d="M238.738,153.682a2.082,2.082,0,1,1,2.081-2.082,2.085,2.085,0,0,1-2.081,2.082m0-3.5a1.415,1.415,0,1,0,1.415,1.415,1.417,1.417,0,0,0-1.415-1.415" transform="translate(-43.567 -27.525)" fill="#fff"/>
            <path id="Trazado_1273430" data-name="Trazado 1273430" d="M248.233,154.459h-3.393a.357.357,0,1,1,0-.713h3.393a.357.357,0,1,1,0,.713" transform="translate(-45.008 -28.304)" fill="#fff"/>
            <path id="Trazado_1273431" data-name="Trazado 1273431" d="M190.96,44.012l-4.91,1.553a2.858,2.858,0,0,0-.464.195,24.693,24.693,0,0,0-5.572-6.58,2.93,2.93,0,0,0,.278-.432l2.352-4.582a2.909,2.909,0,0,0-1.258-3.912L176.8,27.9a2.911,2.911,0,0,0-3.913,1.258l-2.352,4.582a2.957,2.957,0,0,0-.188.476,24.692,24.692,0,0,0-8.361-.712,2.946,2.946,0,0,0-.108-.493l-1.553-4.91a2.91,2.91,0,0,0-3.648-1.895l-4.91,1.553a2.909,2.909,0,0,0-1.895,3.647l1.553,4.91a2.83,2.83,0,0,0,.195.464,24.693,24.693,0,0,0-6.58,5.572,2.928,2.928,0,0,0-.432-.277l-4.581-2.352a2.888,2.888,0,0,0-2.2-.186l-.014,0a2.887,2.887,0,0,0-1.7,1.439l-2.352,4.582a2.909,2.909,0,0,0,1.258,3.912l4.581,2.353a2.964,2.964,0,0,0,.476.187,24.7,24.7,0,0,0-.712,8.363,2.942,2.942,0,0,0-.493.107l-4.91,1.553a2.909,2.909,0,0,0-1.895,3.647l1.553,4.911a2.91,2.91,0,0,0,3.647,1.895l4.911-1.553a2.851,2.851,0,0,0,.463-.2,24.7,24.7,0,0,0,5.573,6.582,2.926,2.926,0,0,0-.278.431l-2.352,4.581a2.9,2.9,0,0,0,1.257,3.912l4.582,2.353a2.909,2.909,0,0,0,3.912-1.258l2.353-4.581a2.892,2.892,0,0,0,.186-.476,24.707,24.707,0,0,0,8.364.713,2.931,2.931,0,0,0,.107.492L167.9,88.4a2.909,2.909,0,0,0,3.648,1.895l4.91-1.553a2.911,2.911,0,0,0,1.895-3.648l-1.553-4.91a2.861,2.861,0,0,0-.2-.464,24.7,24.7,0,0,0,6.582-5.573,2.929,2.929,0,0,0,.431.279L188.2,76.78a2.909,2.909,0,0,0,3.913-1.258l2.352-4.581a2.91,2.91,0,0,0-1.258-3.913l-4.581-2.352a2.892,2.892,0,0,0-.477-.188,24.694,24.694,0,0,0,.713-8.362,2.852,2.852,0,0,0,.492-.107l4.91-1.553a2.91,2.91,0,0,0,1.895-3.648l-1.553-4.91a2.91,2.91,0,0,0-3.648-1.895M168.232,71.266a13.65,13.65,0,1,1,8.9-17.13,13.665,13.665,0,0,1-8.9,17.13" transform="translate(-24.288 -4.8)" fill="#0f1b63"/>
            <path id="Trazado_1273432" data-name="Trazado 1273432" d="M191.453,187.529l-1.194,2.923a1.829,1.829,0,0,0-.09.3,15.141,15.141,0,0,0-5.285.046,1.806,1.806,0,0,0-.095-.3l-1.236-2.9a1.784,1.784,0,0,0-2.338-.942l-2.9,1.236a1.785,1.785,0,0,0-.942,2.338l1.237,2.9a1.836,1.836,0,0,0,.15.276,15.135,15.135,0,0,0-3.614,3.66,1.7,1.7,0,0,0-.274-.142l-2.923-1.194a1.783,1.783,0,0,0-2.323.976l-1.194,2.923a1.785,1.785,0,0,0,.977,2.324l2.923,1.193a1.7,1.7,0,0,0,.3.09,15.141,15.141,0,0,0,.045,5.285,1.83,1.83,0,0,0-.3.095l-2.9,1.237a1.771,1.771,0,0,0-.951.965l0,.008a1.771,1.771,0,0,0,.013,1.363l1.237,2.9a1.783,1.783,0,0,0,2.337.942L175,214.793a1.783,1.783,0,0,0,.274-.152,15.131,15.131,0,0,0,3.662,3.615,1.854,1.854,0,0,0-.143.274l-1.193,2.923a1.783,1.783,0,0,0,.976,2.323l2.923,1.194a1.783,1.783,0,0,0,2.323-.976l1.194-2.923a1.86,1.86,0,0,0,.09-.3,15.128,15.128,0,0,0,5.286-.045,1.7,1.7,0,0,0,.094.3l1.236,2.9a1.782,1.782,0,0,0,2.337.942l2.905-1.237a1.783,1.783,0,0,0,.942-2.337l-1.237-2.9a1.749,1.749,0,0,0-.151-.275,15.145,15.145,0,0,0,3.615-3.662,1.737,1.737,0,0,0,.273.143l2.923,1.194a1.784,1.784,0,0,0,2.323-.976l1.193-2.923a1.783,1.783,0,0,0-.976-2.323l-2.923-1.193a1.709,1.709,0,0,0-.3-.09,15.131,15.131,0,0,0-.046-5.287,1.75,1.75,0,0,0,.3-.093l2.905-1.237a1.783,1.783,0,0,0,.941-2.337l-1.236-2.905a1.784,1.784,0,0,0-2.337-.941l-2.905,1.236a1.76,1.76,0,0,0-.275.151,15.138,15.138,0,0,0-3.661-3.614,1.856,1.856,0,0,0,.143-.274l1.193-2.923a1.783,1.783,0,0,0-.976-2.323l-2.923-1.194a1.783,1.783,0,0,0-2.323.976m3.931,21.4a8.367,8.367,0,1,1-4.583-10.91,8.378,8.378,0,0,1,4.583,10.91" transform="translate(-30.982 -34.319)" fill="#6cb9ff"/>
            <path id="Trazado_1273433" data-name="Trazado 1273433" d="M159.769,193.889a1.453,1.453,0,0,1-1.451-1.435l-.025-2.212c0-.021,0-.042,0-.061a10.779,10.779,0,0,1-3.166-1.274c-.012.015-.025.028-.039.042l-1.553,1.574a1.454,1.454,0,0,1-2.054.013l-1.575-1.553a1.455,1.455,0,0,1-.013-2.054l1.554-1.573c.013-.014.027-.028.041-.04a10.771,10.771,0,0,1-1.292-3.05l-.061,0-2.211.025a1.442,1.442,0,0,1-1.469-1.435l-.024-2.212a1.451,1.451,0,0,1,1.435-1.469l2.211-.024h.062a10.761,10.761,0,0,1,1.274-3.166c-.015-.012-.029-.025-.042-.039L149.8,172.4a1.454,1.454,0,0,1-.014-2.054l1.553-1.574a1.453,1.453,0,0,1,2.054-.014l1.575,1.553.04.042a10.771,10.771,0,0,1,3.049-1.292q0-.031,0-.061l-.025-2.211a1.454,1.454,0,0,1,1.435-1.469l2.212-.024a1.454,1.454,0,0,1,1.469,1.435l.024,2.211c0,.021,0,.042,0,.062a10.8,10.8,0,0,1,3.165,1.274l.04-.042,1.554-1.574a1.455,1.455,0,0,1,2.054-.014l1.574,1.553a1.456,1.456,0,0,1,.014,2.054l-1.554,1.574-.041.04a10.78,10.78,0,0,1,1.291,3.048l.06,0,2.213-.024a1.385,1.385,0,0,1,1.031.414,1.447,1.447,0,0,1,.437,1.022l.025,2.212A1.453,1.453,0,0,1,173.594,182l-2.211.025h-.062a10.769,10.769,0,0,1-1.274,3.165c.015.013.029.027.042.04l1.575,1.554a1.454,1.454,0,0,1,.014,2.053l-1.554,1.574a1.444,1.444,0,0,1-1.024.432h-.01a1.442,1.442,0,0,1-1.02-.419l-1.574-1.553c-.014-.013-.027-.027-.04-.042a10.752,10.752,0,0,1-3.049,1.292c0,.021,0,.041,0,.062l.025,2.211A1.453,1.453,0,0,1,162,193.863l-2.211.025Zm-4.745-5.528.165.1a10.353,10.353,0,0,0,3.37,1.355l.192.041-.033.193a1.059,1.059,0,0,0-.017.184l.025,2.212a1.045,1.045,0,0,0,1.043,1.032h.013l2.211-.025a1.046,1.046,0,0,0,1.033-1.056L163,190.189a1.017,1.017,0,0,0-.021-.182l-.037-.193.191-.044a10.4,10.4,0,0,0,3.255-1.379l.162-.1.113.157a1.1,1.1,0,0,0,.118.139l1.574,1.553a1.037,1.037,0,0,0,.733.3h.007a1.042,1.042,0,0,0,.737-.311l1.553-1.573a1.046,1.046,0,0,0-.011-1.477l-1.574-1.553a1.044,1.044,0,0,0-.14-.115l-.159-.111.1-.165a10.373,10.373,0,0,0,1.356-3.37l.04-.191.193.032a1.027,1.027,0,0,0,.184.017l2.211-.025a1.046,1.046,0,0,0,1.032-1.055l-.024-2.212a1.036,1.036,0,0,0-.315-.734.983.983,0,0,0-.741-.3l-2.212.024a1.054,1.054,0,0,0-.183.02l-.192.037-.045-.19a10.374,10.374,0,0,0-1.379-3.255l-.105-.164.159-.113a1.1,1.1,0,0,0,.14-.117l1.553-1.574a1.046,1.046,0,0,0-.01-1.477l-1.575-1.553a1.045,1.045,0,0,0-1.476.01l-1.553,1.575a.965.965,0,0,0-.114.139l-.111.162-.165-.1a10.384,10.384,0,0,0-3.37-1.356l-.191-.04.032-.193a.972.972,0,0,0,.016-.183l-.025-2.212a1.046,1.046,0,0,0-1.044-1.032h-.011l-2.212.024a1.046,1.046,0,0,0-1.032,1.056l.025,2.211a1.073,1.073,0,0,0,.02.185l.035.19-.189.045a10.364,10.364,0,0,0-3.255,1.379l-.164.105-.113-.16a1.087,1.087,0,0,0-.116-.139l-1.574-1.553a1.046,1.046,0,0,0-1.477.01l-1.553,1.574a1.046,1.046,0,0,0,.01,1.477l1.574,1.553a1.02,1.02,0,0,0,.14.114l.16.111-.1.165a10.391,10.391,0,0,0-1.356,3.37l-.04.19-.193-.032a1.63,1.63,0,0,0-.184-.016l-2.211.024a1.043,1.043,0,0,0-1.032,1.056l.024,2.212a1.035,1.035,0,0,0,.315.733,1.019,1.019,0,0,0,.741.3l2.212-.025a.957.957,0,0,0,.182-.021l.193-.036.045.19a10.358,10.358,0,0,0,1.378,3.255l.105.164-.158.113a1.009,1.009,0,0,0-.138.115l-1.554,1.575a1.045,1.045,0,0,0,.01,1.476l1.574,1.554a1.045,1.045,0,0,0,1.477-.011l1.553-1.574a.976.976,0,0,0,.114-.14Zm5.706-2.708a6.025,6.025,0,1,1,.04,0Zm0-11.717h-.038a5.658,5.658,0,0,0-3.937,9.682,5.7,5.7,0,0,0,4.011,1.628,5.655,5.655,0,0,0-.036-11.309" transform="translate(-26.957 -30.429)" fill="#b19cfe"/>
            <rect id="Rectángulo_460987" data-name="Rectángulo 460987" width="10.081" height="1.686" transform="translate(6.816 117.812)" fill="#0f1b63"/>
            <rect id="Rectángulo_460988" data-name="Rectángulo 460988" width="25.712" height="1.686" transform="translate(21.063 117.812)" fill="#0f1b63"/>
            <rect id="Rectángulo_460989" data-name="Rectángulo 460989" width="15.916" height="1.686" transform="translate(30.859 135.916)" fill="#0f1b63"/>
            <rect id="Rectángulo_460990" data-name="Rectángulo 460990" width="19.878" height="1.686" transform="translate(6.816 135.916)" fill="#0f1b63"/>
            <rect id="Rectángulo_460991" data-name="Rectángulo 460991" width="22.158" height="1.686" transform="translate(6.816 123.977)" fill="#0f1b63"/>
            <rect id="Rectángulo_460992" data-name="Rectángulo 460992" width="13.635" height="1.686" transform="translate(33.14 123.977)" fill="#0f1b63"/>
            <rect id="Rectángulo_460993" data-name="Rectángulo 460993" width="17.201" height="1.686" transform="translate(6.816 130.031)" fill="#0f1b63"/>
            <rect id="Rectángulo_460994" data-name="Rectángulo 460994" width="15.632" height="1.686" transform="translate(31.143 130.031)" fill="#0f1b63"/>
            <rect id="Rectángulo_460995" data-name="Rectángulo 460995" width="2.99" height="1.686" transform="translate(26.219 130.031)" fill="#0f1b63"/>
            <rect id="Rectángulo_460996" data-name="Rectángulo 460996" width="10.081" height="1.686" transform="translate(272.498 275.737)" fill="#0f1b63"/>
            <rect id="Rectángulo_460997" data-name="Rectángulo 460997" width="25.713" height="1.686" transform="translate(286.744 275.737)" fill="#0f1b63"/>
            <rect id="Rectángulo_460998" data-name="Rectángulo 460998" width="15.916" height="1.686" transform="translate(296.541 293.842)" fill="#0f1b63"/>
            <rect id="Rectángulo_460999" data-name="Rectángulo 460999" width="19.877" height="1.686" transform="translate(272.498 293.842)" fill="#0f1b63"/>
            <rect id="Rectángulo_461000" data-name="Rectángulo 461000" width="22.158" height="1.686" transform="translate(272.498 281.902)" fill="#0f1b63"/>
            <rect id="Rectángulo_461001" data-name="Rectángulo 461001" width="13.635" height="1.686" transform="translate(298.822 281.902)" fill="#0f1b63"/>
            <rect id="Rectángulo_461002" data-name="Rectángulo 461002" width="17.201" height="1.686" transform="translate(272.498 287.956)" fill="#0f1b63"/>
            <rect id="Rectángulo_461003" data-name="Rectángulo 461003" width="15.632" height="1.686" transform="translate(296.825 287.956)" fill="#0f1b63"/>
            <rect id="Rectángulo_461004" data-name="Rectángulo 461004" width="2.99" height="1.686" transform="translate(291.901 287.956)" fill="#0f1b63"/>
            <path id="Trazado_1273434" data-name="Trazado 1273434" d="M364.271,79.161l-3.959.848a2.3,2.3,0,0,0-.379.118,19.416,19.416,0,0,0-3.867-5.567,2.262,2.262,0,0,0,.25-.317l2.184-3.409a2.288,2.288,0,0,0-.692-3.156L354.4,65.493a2.287,2.287,0,0,0-3.156.692l-2.184,3.409a2.358,2.358,0,0,0-.184.358,19.4,19.4,0,0,0-6.49-1.184,2.238,2.238,0,0,0-.047-.393l-.847-3.959a2.288,2.288,0,0,0-2.713-1.756l-3.959.848a2.287,2.287,0,0,0-1.756,2.712l.848,3.959a2.292,2.292,0,0,0,.118.379,19.416,19.416,0,0,0-5.567,3.867,2.308,2.308,0,0,0-.317-.25l-3.41-2.183a2.263,2.263,0,0,0-1.71-.311l-.011,0a2.27,2.27,0,0,0-1.435,1L319.4,76.091h0a2.288,2.288,0,0,0,.692,3.156l3.409,2.184a2.216,2.216,0,0,0,.359.182,19.39,19.39,0,0,0-1.185,6.491,2.257,2.257,0,0,0-.393.047L318.32,89a2.288,2.288,0,0,0-1.756,2.713l.848,3.959a2.288,2.288,0,0,0,2.713,1.756l3.959-.848a2.31,2.31,0,0,0,.378-.118,19.412,19.412,0,0,0,3.867,5.568,2.336,2.336,0,0,0-.25.316l-2.183,3.409a2.285,2.285,0,0,0,.691,3.157L330,111.094a2.287,2.287,0,0,0,3.157-.692l2.183-3.409a2.209,2.209,0,0,0,.182-.359,19.414,19.414,0,0,0,6.491,1.185,2.257,2.257,0,0,0,.047.393l.848,3.959a2.287,2.287,0,0,0,2.712,1.756l3.959-.848a2.287,2.287,0,0,0,1.756-2.712l-.848-3.96a2.239,2.239,0,0,0-.118-.378,19.412,19.412,0,0,0,5.568-3.867,2.383,2.383,0,0,0,.316.25l3.41,2.183a2.287,2.287,0,0,0,3.156-.691L365,100.5a2.288,2.288,0,0,0-.691-3.156l-3.41-2.184a2.282,2.282,0,0,0-.358-.184,19.4,19.4,0,0,0,1.184-6.49,2.238,2.238,0,0,0,.393-.047l3.959-.848a2.287,2.287,0,0,0,1.756-2.712l-.848-3.959a2.287,2.287,0,0,0-2.712-1.756M344.444,98.786a10.73,10.73,0,1,1,8.246-12.739,10.742,10.742,0,0,1-8.246,12.739" transform="translate(-58.268 -11.526)" fill="#0f1b63"/>
          </g>
        </g>
        <path id="Trazado_1273435" data-name="Trazado 1273435" d="M265.592,79.3l-6.79,2.488,6.79,2.468v2.549l-9.706-3.691V80.464l9.706-3.691Z" transform="translate(-47.107 -14.133)" fill="#fff"/>
        <path id="Trazado_1273436" data-name="Trazado 1273436" d="M275.215,70.624h2.835l-6.73,19.21h-2.835Z" transform="translate(-49.426 -13.001)" fill="#fff"/>
        <path id="Trazado_1273437" data-name="Trazado 1273437" d="M290.366,80.464v2.652l-9.706,3.69V84.257l6.791-2.467L280.66,79.3V76.772Z" transform="translate(-51.667 -14.133)" fill="#fff"/>
        <path id="Trazado_1273438" data-name="Trazado 1273438" d="M57.162,336.74v10.284h-2.38v-4.217H50.111v4.217h-2.38V336.74h2.38v4.054h4.672V336.74Z" transform="translate(-8.787 -61.991)" fill="#fff"/>
        <path id="Trazado_1273439" data-name="Trazado 1273439" d="M64.144,338.678H60.853V336.74h8.961v1.939H66.524v8.345h-2.38Z" transform="translate(-11.203 -61.991)" fill="#fff"/>
        <path id="Trazado_1273440" data-name="Trazado 1273440" d="M82.757,347.023l-.015-6.17-3.027,5.082H78.643l-3.011-4.95v6.038H73.4V336.739h1.969l3.849,6.391,3.79-6.391h1.954l.029,10.284Z" transform="translate(-13.512 -61.991)" fill="#fff"/>
        <path id="Trazado_1273441" data-name="Trazado 1273441" d="M90.588,336.74h2.38v8.344h5.157v1.939H90.588Z" transform="translate(-16.677 -61.991)" fill="#fff"/>
        <g id="Grupo_1211191" data-name="Grupo 1211191">
          <g id="Grupo_1211190" data-name="Grupo 1211190" clip-path="url(#clip-path)">
            <path id="Trazado_1273442" data-name="Trazado 1273442" d="M88.212,193.139l1.416-1.7a2.53,2.53,0,0,0,2.045,1.212c1.023,0,1.558-.614,1.558-1.825v-5.24H89.36v-2.046h6.4v7.144c0,2.723-1.369,4.061-3.966,4.061a4.429,4.429,0,0,1-3.587-1.6" transform="translate(-16.239 -33.788)" fill="#fff"/>
            <path id="Trazado_1273443" data-name="Trazado 1273443" d="M99.5,193.427l.866-1.92A6.475,6.475,0,0,0,104,192.656c1.511,0,2.125-.5,2.125-1.181,0-2.061-6.4-.645-6.4-4.736,0-1.872,1.511-3.43,4.642-3.43a7.385,7.385,0,0,1,3.824.976l-.787,1.935a6.221,6.221,0,0,0-3.053-.867c-1.51,0-2.093.568-2.093,1.259,0,2.031,6.4.63,6.4,4.674,0,1.841-1.527,3.415-4.674,3.415a7.851,7.851,0,0,1-4.485-1.274" transform="translate(-18.317 -33.746)" fill="#fff"/>
            <path id="Trazado_1273444" data-name="Trazado 1273444" d="M270.29,317.778c0-4.193,3.218-7.193,7.55-7.193a7.184,7.184,0,0,1,5.723,2.464l-2.068,1.908a4.474,4.474,0,0,0-3.5-1.629,4.451,4.451,0,0,0,0,8.9,4.432,4.432,0,0,0,3.5-1.649l2.068,1.907a7.148,7.148,0,0,1-5.743,2.484c-4.312,0-7.53-3-7.53-7.192" transform="translate(-49.758 -57.176)" fill="#fff"/>
            <path id="Trazado_1273445" data-name="Trazado 1273445" d="M298.006,319.577h-3.457v3.378h-2.564v-3.378h-3.437v-2.424h3.437v-3.378h2.564v3.378h3.457Z" transform="translate(-53.12 -57.764)" fill="#fff"/>
            <path id="Trazado_1273446" data-name="Trazado 1273446" d="M312.736,319.577h-3.457v3.378h-2.564v-3.378h-3.437v-2.424h3.437v-3.378h2.564v3.378h3.457Z" transform="translate(-55.831 -57.764)" fill="#fff"/>
            <path id="Trazado_1273447" data-name="Trazado 1273447" d="M377.368,213.655l1.341-1.609a2.394,2.394,0,0,0,1.937,1.148c.968,0,1.475-.582,1.475-1.73V206.5h-3.666v-1.938h6.065v6.766c0,2.579-1.3,3.845-3.756,3.845a4.2,4.2,0,0,1-3.4-1.52" transform="translate(-69.471 -37.659)" fill="#fff"/>
            <path id="Trazado_1273448" data-name="Trazado 1273448" d="M395.341,212.762H390.5L389.573,215H387.1l4.649-10.431h2.385L398.8,215h-2.534Zm-.76-1.833-1.654-3.994-1.655,3.994Z" transform="translate(-71.262 -37.659)" fill="#fff"/>
            <path id="Trazado_1273449" data-name="Trazado 1273449" d="M411.793,204.565,407.278,215h-2.385l-4.5-10.431H403l3.173,7.451,3.22-7.451Z" transform="translate(-73.709 -37.659)" fill="#fff"/>
            <path id="Trazado_1273450" data-name="Trazado 1273450" d="M421.562,212.762h-4.844L415.794,215h-2.473l4.649-10.431h2.385L425.019,215h-2.534Zm-.76-1.833-1.654-3.994-1.655,3.994Z" transform="translate(-76.089 -37.659)" fill="#fff"/>
          </g>
        </g>
      </g>
    </g>
  </g>
</svg>
