<svg xmlns="http://www.w3.org/2000/svg" xmlns:xlink="http://www.w3.org/1999/xlink" width="396" height="237" viewBox="0 0 396 237">
  <defs>
    <clipPath id="clip-path">
      <rect id="Rectángulo_460646" data-name="Rectángulo 460646" width="396" height="237" transform="translate(290 3687)" fill="#ffe79e" stroke="#707070" stroke-width="1"/>
    </clipPath>
    <clipPath id="clip-path-2">
      <rect id="Rectángulo_461008" data-name="Rectángulo 461008" width="358.665" height="238.503" fill="none"/>
    </clipPath>
    <clipPath id="clip-path-3">
      <path id="Trazado_1273473" data-name="Trazado 1273473" d="M201.313,232.038c-31.525.073-24.442,87.113-52.957,85.86s-30.4-50.45-53.271-50.45c-24.442,0-38.543,59.194-38.543,59.194H254.9s-15.265-94.612-53.53-94.6h-.054" transform="translate(-56.542 -232.038)" fill="#6cb9ff"/>
    </clipPath>
    <clipPath id="clip-path-5">
      <path id="Trazado_1273509" data-name="Trazado 1273509" d="M446.889,166.487s-.376,4.668,4.383,4.338c4.125-.286,3.614-4.338,3.614-4.338a9.436,9.436,0,0,1-8,0" transform="translate(-446.882 -166.487)" fill="none"/>
    </clipPath>
  </defs>
  <g id="Enmascarar_grupo_1178571" data-name="Enmascarar grupo 1178571" transform="translate(-290 -3687)" clip-path="url(#clip-path)">
    <g id="Grupo_1211205" data-name="Grupo 1211205" transform="translate(309 3693.136)">
      <g id="Grupo_1211196" data-name="Grupo 1211196">
        <g id="Grupo_1211195" data-name="Grupo 1211195" clip-path="url(#clip-path-2)">
          <path id="Trazado_1273451" data-name="Trazado 1273451" d="M350.049,232.238a146.15,146.15,0,0,0,14.035-62.528c0-85.922-74.7-155.575-166.836-155.575S30.412,83.788,30.412,169.71a146.167,146.167,0,0,0,14.035,62.528Z" transform="translate(-13.602 -6.322)" fill="#ffe79e"/>
          <path id="Trazado_1273452" data-name="Trazado 1273452" d="M86.752,136.159a17.744,17.744,0,1,1-17.744-17.744,17.744,17.744,0,0,1,17.744,17.744" transform="translate(-22.929 -52.964)" fill="#fff"/>
          <path id="Trazado_1273453" data-name="Trazado 1273453" d="M585.648,130.025A17.744,17.744,0,1,1,567.9,112.281a17.744,17.744,0,0,1,17.744,17.744" transform="translate(-246.072 -50.22)" fill="#fff"/>
          <path id="Trazado_1273454" data-name="Trazado 1273454" d="M280.6,17.744A17.744,17.744,0,1,1,262.86,0,17.744,17.744,0,0,1,280.6,17.744" transform="translate(-109.634)" fill="#fff"/>
          <path id="Trazado_1273455" data-name="Trazado 1273455" d="M129.98,111.614a5.126,5.126,0,1,1-5.126-5.126,5.126,5.126,0,0,1,5.126,5.126" transform="translate(-53.551 -47.629)" fill="#fff"/>
          <path id="Trazado_1273456" data-name="Trazado 1273456" d="M551.139,96.544a5.126,5.126,0,1,1-5.126-5.126,5.126,5.126,0,0,1,5.126,5.126" transform="translate(-241.924 -40.889)" fill="#fff"/>
          <path id="Trazado_1273457" data-name="Trazado 1273457" d="M249.622,69.33A5.126,5.126,0,1,1,244.5,64.2a5.126,5.126,0,0,1,5.126,5.126" transform="translate(-107.064 -28.717)" fill="#fff"/>
          <path id="Trazado_1273458" data-name="Trazado 1273458" d="M320.137,229.471a146.15,146.15,0,0,0,14.035-62.528c0-85.922-74.7-155.575-166.836-155.575S.5,81.021.5,166.943a146.158,146.158,0,0,0,14.035,62.528Z" transform="translate(-0.224 -5.085)" fill="none" stroke="#263f5c" stroke-linecap="round" stroke-miterlimit="10" stroke-width="1" stroke-dasharray="5 5 5 5 5 5"/>
          <path id="Trazado_1273459" data-name="Trazado 1273459" d="M530.49,347.5s-4.178-40.528,57.24-52.226c0,0-7.311,54.107-57.24,52.226" transform="translate(-237.247 -132.069)" fill="#65afaf"/>
          <path id="Trazado_1273460" data-name="Trazado 1273460" d="M530.49,347.5s-4.178-40.528,57.24-52.226c0,0-21.454,17.757-30.469,25.277S530.49,347.5,530.49,347.5" transform="translate(-237.247 -132.069)" fill="#93e8e4"/>
          <path id="Trazado_1273461" data-name="Trazado 1273461" d="M527.649,317.108s-14.926-16.29,8.024-41.247c0,0,14.317,25.917-8.024,41.247" transform="translate(-233.869 -123.385)" fill="#65afaf"/>
          <path id="Trazado_1273462" data-name="Trazado 1273462" d="M527.649,317.108s-14.926-16.29,8.024-41.247c0,0-3.6,14.668-5.087,20.857s-2.937,20.389-2.937,20.389" transform="translate(-233.869 -123.385)" fill="#93e8e4"/>
          <path id="Trazado_1273463" data-name="Trazado 1273463" d="M46.709,252.5S60.552,214.187,3.778,188c0,0-5.973,54.27,42.931,64.5" transform="translate(-1.587 -84.087)" fill="#65afaf"/>
          <path id="Trazado_1273464" data-name="Trazado 1273464" d="M46.9,252.5S60.738,214.187,3.964,188c0,0,16.53,22.413,23.462,31.888S46.9,252.5,46.9,252.5" transform="translate(-1.773 -84.087)" fill="#93e8e4"/>
          <path id="Trazado_1273465" data-name="Trazado 1273465" d="M92.466,261.856s21.392-5.527,15.745-38.959c0,0-26.126,13.931-15.745,38.959" transform="translate(-40.267 -99.696)" fill="#65afaf"/>
          <path id="Trazado_1273466" data-name="Trazado 1273466" d="M94.439,261.856s21.392-5.527,15.745-38.959c0,0-4.977,14.259-7.1,20.262s-8.646,18.7-8.646,18.7" transform="translate(-42.24 -99.696)" fill="#93e8e4"/>
          <path id="Trazado_1273467" data-name="Trazado 1273467" d="M178.832,228.96a33.8,33.8,0,1,1,33.8-33.8,33.839,33.839,0,0,1-33.8,33.8m0-57.27A23.469,23.469,0,1,0,202.3,195.16a23.5,23.5,0,0,0-23.469-23.469" transform="translate(-64.869 -72.171)" fill="#fff"/>
          <path id="Trazado_1273468" data-name="Trazado 1273468" d="M229.615,195.076h10.332a33.839,33.839,0,0,0-33.8-33.717H206.1v10.331h.046a23.5,23.5,0,0,1,23.468,23.385" transform="translate(-92.183 -72.171)" fill="#69d7e5"/>
          <path id="Trazado_1273469" data-name="Trazado 1273469" d="M314.518,140.254a39.739,39.739,0,1,1,39.739-39.739,39.784,39.784,0,0,1-39.739,39.739m0-67.332a27.593,27.593,0,1,0,27.593,27.593,27.624,27.624,0,0,0-27.593-27.593" transform="translate(-122.901 -27.183)" fill="#fff"/>
          <path id="Trazado_1273470" data-name="Trazado 1273470" d="M314.52,60.776l-.158,0V72.927c.052,0,.1,0,.158,0a27.592,27.592,0,1,1-27.587,27.8h-12.15A39.738,39.738,0,1,0,314.52,60.776" transform="translate(-122.903 -27.183)" fill="#100664"/>
          <path id="Trazado_1273471" data-name="Trazado 1273471" d="M73.834,326.642s14.1-59.194,38.543-59.194c22.875,0,24.756,49.2,53.271,50.45s21.433-85.787,52.957-85.86c38.3-.089,53.584,94.6,53.584,94.6Z" transform="translate(-33.024 -103.784)" fill="#fff"/>
        </g>
      </g>
      <g id="Grupo_1211198" data-name="Grupo 1211198" transform="translate(31.252 128.254)">
        <g id="Grupo_1211197" data-name="Grupo 1211197" clip-path="url(#clip-path-3)">
          <path id="Trazado_1273472" data-name="Trazado 1273472" d="M56.543,326.642s14.1-59.194,38.543-59.194c22.875,0,24.756,49.2,53.271,50.45s21.433-85.787,52.957-85.86c38.3-.089,53.584,94.6,53.584,94.6Z" transform="translate(-56.542 -232.038)" fill="#6cb9ff"/>
          <line id="Línea_3268" data-name="Línea 3268" y2="111.682" transform="translate(18.508 -1.433)" fill="none" stroke="#fff" stroke-miterlimit="10" stroke-width="1"/>
          <line id="Línea_3269" data-name="Línea 3269" y2="111.682" transform="translate(37.641 -1.433)" fill="none" stroke="#fff" stroke-miterlimit="10" stroke-width="1"/>
          <line id="Línea_3270" data-name="Línea 3270" y2="111.682" transform="translate(56.773 -1.433)" fill="none" stroke="#fff" stroke-miterlimit="10" stroke-width="1"/>
          <line id="Línea_3271" data-name="Línea 3271" y2="111.682" transform="translate(75.906 -1.433)" fill="none" stroke="#fff" stroke-miterlimit="10" stroke-width="1"/>
          <line id="Línea_3272" data-name="Línea 3272" y2="111.682" transform="translate(95.038 -1.433)" fill="none" stroke="#fff" stroke-miterlimit="10" stroke-width="1"/>
          <line id="Línea_3273" data-name="Línea 3273" y2="111.682" transform="translate(114.171 -1.433)" fill="none" stroke="#fff" stroke-miterlimit="10" stroke-width="1"/>
          <line id="Línea_3274" data-name="Línea 3274" y2="111.682" transform="translate(133.304 -1.433)" fill="none" stroke="#fff" stroke-miterlimit="10" stroke-width="1"/>
          <line id="Línea_3275" data-name="Línea 3275" y2="111.682" transform="translate(152.436 -1.433)" fill="none" stroke="#fff" stroke-miterlimit="10" stroke-width="1"/>
          <line id="Línea_3276" data-name="Línea 3276" y2="111.682" transform="translate(171.569 -1.433)" fill="none" stroke="#fff" stroke-miterlimit="10" stroke-width="1"/>
          <line id="Línea_3277" data-name="Línea 3277" y2="111.682" transform="translate(190.701 -1.433)" fill="none" stroke="#fff" stroke-miterlimit="10" stroke-width="1"/>
          <line id="Línea_3278" data-name="Línea 3278" x1="201.272" transform="translate(-2.917 27.555)" fill="none" stroke="#fff" stroke-miterlimit="10" stroke-width="1"/>
          <line id="Línea_3279" data-name="Línea 3279" x1="201.272" transform="translate(-2.917 7.911)" fill="none" stroke="#fff" stroke-miterlimit="10" stroke-width="1"/>
          <line id="Línea_3280" data-name="Línea 3280" x1="201.272" transform="translate(-2.917 46.687)" fill="none" stroke="#fff" stroke-miterlimit="10" stroke-width="1"/>
          <line id="Línea_3281" data-name="Línea 3281" x1="201.272" transform="translate(-2.917 65.82)" fill="none" stroke="#fff" stroke-miterlimit="10" stroke-width="1"/>
          <line id="Línea_3282" data-name="Línea 3282" x1="201.272" transform="translate(-2.917 84.952)" fill="none" stroke="#fff" stroke-miterlimit="10" stroke-width="1"/>
        </g>
      </g>
      <g id="Grupo_1211200" data-name="Grupo 1211200">
        <g id="Grupo_1211199" data-name="Grupo 1211199" clip-path="url(#clip-path-2)">
          <path id="Trazado_1273474" data-name="Trazado 1273474" d="M287.772,259.287h0a.824.824,0,0,0,.821-.821v-4.422a.821.821,0,0,0-1.643,0v4.422a.824.824,0,0,0,.821.821" transform="translate(-128.345 -113.259)" fill="#263f5c"/>
          <path id="Trazado_1273475" data-name="Trazado 1273475" d="M282.951,258.044h0a.824.824,0,0,0,.821.821h4.422a.821.821,0,0,0,0-1.643h-4.422a.824.824,0,0,0-.821.821" transform="translate(-126.556 -115.049)" fill="#263f5c"/>
          <path id="Trazado_1273476" data-name="Trazado 1273476" d="M169.5,107.024h0a.824.824,0,0,0,.821-.821V101.78a.821.821,0,1,0-1.643,0V106.2a.824.824,0,0,0,.821.821" transform="translate(-75.445 -45.156)" fill="#263f5c"/>
          <path id="Trazado_1273477" data-name="Trazado 1273477" d="M164.678,105.781h0a.824.824,0,0,0,.821.821h4.422a.821.821,0,0,0,0-1.643H165.5a.824.824,0,0,0-.821.821" transform="translate(-73.656 -46.946)" fill="#263f5c"/>
          <path id="Trazado_1273478" data-name="Trazado 1273478" d="M220.641,126.092h0a1.4,1.4,0,0,0,1.4-1.4v-7.532a1.4,1.4,0,1,0-2.8,0v7.532a1.4,1.4,0,0,0,1.4,1.4" transform="translate(-98.061 -51.777)" fill="#263f5c"/>
          <path id="Trazado_1273479" data-name="Trazado 1273479" d="M212.429,123.975h0a1.4,1.4,0,0,0,1.4,1.4h7.532a1.4,1.4,0,1,0,0-2.8h-7.532a1.4,1.4,0,0,0-1.4,1.4" transform="translate(-95.014 -54.825)" fill="#263f5c"/>
          <path id="Trazado_1273480" data-name="Trazado 1273480" d="M544.244,198.5h0a1.4,1.4,0,0,0,1.4-1.4v-7.532a1.4,1.4,0,0,0-2.8,0V197.1a1.4,1.4,0,0,0,1.4,1.4" transform="translate(-242.8 -84.162)" fill="#263f5c"/>
          <path id="Trazado_1273481" data-name="Trazado 1273481" d="M536.032,196.38h0a1.4,1.4,0,0,0,1.4,1.4h7.532a1.4,1.4,0,1,0,0-2.8h-7.532a1.4,1.4,0,0,0-1.4,1.4" transform="translate(-239.752 -87.21)" fill="#263f5c"/>
          <path id="Trazado_1273482" data-name="Trazado 1273482" d="M248.07,289.993h0a.712.712,0,0,0,.71-.71v-3.823a.71.71,0,0,0-1.421,0v3.823a.712.712,0,0,0,.71.71" transform="translate(-110.637 -127.36)" fill="#263f5c"/>
          <path id="Trazado_1273483" data-name="Trazado 1273483" d="M243.9,288.918h0a.712.712,0,0,0,.71.71h3.823a.71.71,0,1,0,0-1.421h-3.823a.712.712,0,0,0-.71.71" transform="translate(-109.09 -128.908)" fill="#263f5c"/>
          <path id="Trazado_1273484" data-name="Trazado 1273484" d="M569.69,221.237h0a.712.712,0,0,0,.71-.71V216.7a.71.71,0,0,0-1.421,0v3.823a.712.712,0,0,0,.71.71" transform="translate(-254.489 -96.608)" fill="#263f5c"/>
          <path id="Trazado_1273485" data-name="Trazado 1273485" d="M565.522,220.162h0a.712.712,0,0,0,.71.71h3.823a.71.71,0,1,0,0-1.421h-3.823a.712.712,0,0,0-.71.71" transform="translate(-252.943 -98.155)" fill="#263f5c"/>
          <path id="Trazado_1273486" data-name="Trazado 1273486" d="M55.968,328.343h0a.712.712,0,0,0,.71-.71v-3.823a.71.71,0,1,0-1.421,0v3.823a.712.712,0,0,0,.71.71" transform="translate(-24.715 -144.513)" fill="#263f5c"/>
          <path id="Trazado_1273487" data-name="Trazado 1273487" d="M51.8,327.267h0a.712.712,0,0,0,.71.71h3.823a.71.71,0,0,0,0-1.421H52.51a.712.712,0,0,0-.71.71" transform="translate(-23.169 -146.06)" fill="#263f5c"/>
          <path id="Trazado_1273488" data-name="Trazado 1273488" d="M455.2,107.889s19.721-2.323,25.765,23.8a90.771,90.771,0,0,0,8.466,22.041c5.051,9.512,9.428,23.168-.737,31.394a17.861,17.861,0,0,0-4.875-19.508S498.947,196.5,455.2,194.69Z" transform="translate(-203.596 -48.232)" fill="#0c143b"/>
          <path id="Trazado_1273489" data-name="Trazado 1273489" d="M426.533,107.889s-19.721-2.323-25.765,23.8a90.77,90.77,0,0,1-8.466,22.041c-5.051,9.512-9.428,23.168.737,31.394a17.861,17.861,0,0,1,4.875-19.508s-15.132,30.876,28.62,29.071Z" transform="translate(-173.043 -48.232)" fill="#0c143b"/>
          <path id="Trazado_1273490" data-name="Trazado 1273490" d="M373.744,221.323c-5.5,6.762-14.176,17.208-21.915,25.5,0,0-18.771-21.213-27.006-27.577l-2.549,3.706S333.738,251.6,349,262.105a7.16,7.16,0,0,0,7.21.46c5.364-2.636,14-11.262,29.683-31.115,3.16-4,4.552-8.466.519-11.582a9.129,9.129,0,0,0-12.67,1.455" transform="translate(-144.144 -97.486)" fill="#ecc4a1"/>
          <path id="Trazado_1273491" data-name="Trazado 1273491" d="M310.421,211.356a4.659,4.659,0,0,0,.337-5.864c-2.249-3.092-1.233-7.089-2.9-7.994-1.381-.748-2.2,1.773-2,3.762.145,1.456,1.144,3.023.759,2.976a8.916,8.916,0,0,1-3.6-1.753c-1.056-1.1-5.922-7.009-6.11-7.307-1.4-2.233-2.393-1.35-2.393-1.35-1.681,1.04,1.375,5.113,2.21,6.257,1.261,1.727,3.566,4.436,3.566,4.436l-.205.252s-9.764-6.04-10.275-6.348a1.184,1.184,0,0,0-1.644.151c-.258.378-.342,1.11.6,2.026,1.419,1.384,6.655,5.978,9.085,7.32,0,0-5.853-2.889-8.4-3.327-.843-.146-2.2-.405-2.45.546-.287,1.084,1.533,1.846,1.8,1.984a57.7,57.7,0,0,0,8.4,3.484l.025.408s-5.724,1.611-7.389,1.94c-.161.032-.965.166-.983.884-.027,1.129,1.082,1.058,1.31,1.056a48.311,48.311,0,0,0,6.847-.509,3.378,3.378,0,0,1,2.148.259c1.565.768,4.6,1.945,7.266,1.164a5.234,5.234,0,0,0,3.985-4.455" transform="translate(-128.356 -86.617)" fill="#ecc4a1"/>
          <path id="Trazado_1273492" data-name="Trazado 1273492" d="M479.621,150.7c-2.165,2.909-2.792,7.8-.383,9.554s6.944-.29,9.109-3.2,1.967-6.69-.443-8.445-6.118-.82-8.283,2.089" transform="translate(-213.659 -66.073)" fill="#dfb38c"/>
          <path id="Trazado_1273493" data-name="Trazado 1273493" d="M454.809,376.949h30.84c-.811-16.326-2.917-29.46-7.268-33.782l-29.133-.6v27.2l4.567-.089s.3,2.3.994,7.279" transform="translate(-200.936 -153.219)"/>
          <path id="Trazado_1273494" data-name="Trazado 1273494" d="M428.926,376.949c.447-4.683.758-7.216.758-7.216l2.02-.039,2.032-26.509-26.111-.621c-2.97,10.464-4.514,22.269-5.106,34.385Z" transform="translate(-180.035 -153.219)"/>
          <path id="Trazado_1273495" data-name="Trazado 1273495" d="M425.405,200.932c15.127-4.664,11-20.114,11-20.114h15.029s-4.126,15.449,11,20.114c.942.291,1.832.582,2.684.876-12,11.877-31.662,8.908-42.348.187-.007-.067-.015-.134-.021-.2q1.263-.434,2.654-.862" transform="translate(-189.085 -80.875)" fill="#ecc4a1"/>
          <path id="Trazado_1273496" data-name="Trazado 1273496" d="M461.994,183.695a18.945,18.945,0,0,1,.492-3.663l-6.974-.841v-.13l-.541.065-.54-.065v.13l-6.974.841a20.345,20.345,0,0,1,.478,5.839c1.53,3.09,7.036,7.376,14.059-2.176" transform="translate(-200.135 -80.089)" fill="#d29b70"/>
          <path id="Trazado_1273497" data-name="Trazado 1273497" d="M428.917,123.91c-.633,6.307-1.161,19.894,4.778,25.825,7.809,7.8,21.315,3.182,24.606-4.81,2.84-6.9,2.829-19.534-2.137-27.839-2.573-4.3-7.978-7.433-14.618-7.1-9.853.5-12.43,11.933-12.629,13.92" transform="translate(-191.677 -49.184)" fill="#ecc4a1"/>
          <path id="Trazado_1273498" data-name="Trazado 1273498" d="M450.29,139.414l-.2,4.025-.325,6.425q-.038.744-.076,1.487a.162.162,0,0,0,.118.155l2.3.444c.2.039.288-.27.085-.31l-2.3-.444.118.155.2-4.025q.163-3.213.326-6.425.038-.744.075-1.487c.011-.206-.31-.206-.321,0" transform="translate(-201.132 -62.287)" fill="#0c143b"/>
          <path id="Trazado_1273499" data-name="Trazado 1273499" d="M466.639,161.743a3.437,3.437,0,1,0,3.4-2.934,3.193,3.193,0,0,0-3.4,2.934" transform="translate(-208.715 -71.031)" fill="#d57f6d"/>
          <path id="Trazado_1273500" data-name="Trazado 1273500" d="M431.348,161.743a3.437,3.437,0,1,0,3.4-2.934,3.193,3.193,0,0,0-3.4,2.934" transform="translate(-192.93 -71.031)" fill="#d57f6d"/>
          <path id="Trazado_1273501" data-name="Trazado 1273501" d="M466.685,142.215c-.126.652-1.373.327-2.931.033s-2.839-.447-2.713-1.1,1.492-.942,3.05-.648,2.72,1.062,2.594,1.715" transform="translate(-206.207 -62.791)" fill="#0c143b"/>
          <path id="Trazado_1273502" data-name="Trazado 1273502" d="M442.706,142.234c.129.652-1.15.81-2.708,1.112s-2.8.632-2.931-.019,1.029-1.424,2.586-1.726,2.924-.018,3.053.634" transform="translate(-195.484 -63.28)" fill="#0c143b"/>
          <path id="Trazado_1273503" data-name="Trazado 1273503" d="M401.954,286.4c2.619-7.173,5.087-12.475,6.171-14.878,2.5-5.544-.232-18.521-1.617-24.178a37.062,37.062,0,0,1-1.109-10.282c.537-13.343,8.049-18.3,8.049-18.3,16.388,11.352,42.37.014,42.37.014,6.22,24.265-6.454,29.914,4.1,55.714a113.8,113.8,0,0,1,4.957,15.728c-15.607,7.555-53.245,8.86-62.923-3.82" transform="translate(-179.783 -97.849)" fill="#6cb9ff"/>
          <path id="Trazado_1273504" data-name="Trazado 1273504" d="M464.4,152.542c0,.994-.485,1.8-1.083,1.8s-1.083-.806-1.083-1.8.485-1.8,1.083-1.8,1.083.806,1.083,1.8" transform="translate(-206.745 -67.422)" fill="#0c143b"/>
          <path id="Trazado_1273505" data-name="Trazado 1273505" d="M444.341,152.542c0,.994-.485,1.8-1.083,1.8s-1.083-.806-1.083-1.8.485-1.8,1.083-1.8,1.083.806,1.083,1.8" transform="translate(-197.773 -67.422)" fill="#0c143b"/>
          <path id="Trazado_1273506" data-name="Trazado 1273506" d="M446.889,166.487a9.436,9.436,0,0,0,8,0s.511,4.052-3.613,4.338c-4.76.33-4.383-4.338-4.383-4.338" transform="translate(-199.878 -74.465)" fill="#6d2d25"/>
        </g>
      </g>
      <g id="Grupo_1211202" data-name="Grupo 1211202" transform="translate(247.004 92.022)">
        <g id="Grupo_1211201" data-name="Grupo 1211201" clip-path="url(#clip-path-5)">
          <path id="Trazado_1273507" data-name="Trazado 1273507" d="M448.526,173.415s.572-1.948,3.3-1.842a4.6,4.6,0,0,1,3.812,1.99s-3.6,3.07-7.115-.148" transform="translate(-447.617 -168.76)" fill="#d57f6d"/>
          <path id="Trazado_1273508" data-name="Trazado 1273508" d="M454.842,166.3s.169,1.634-3.452,1.626-3.155-1.851-3.155-1.851Z" transform="translate(-447.479 -166.305)" fill="#fff"/>
        </g>
      </g>
      <g id="Grupo_1211204" data-name="Grupo 1211204">
        <g id="Grupo_1211203" data-name="Grupo 1211203" clip-path="url(#clip-path-2)">
          <path id="Trazado_1273510" data-name="Trazado 1273510" d="M452.714,176.9c0,.158.306.286.683.286s.683-.128.683-.286-.306-.286-.683-.286-.683.128-.683.286" transform="translate(-202.487 -78.995)" fill="#d29b70"/>
          <path id="Trazado_1273511" data-name="Trazado 1273511" d="M277.71,209.327A47.386,47.386,0,1,0,325.1,161.941a47.386,47.386,0,0,0-47.386,47.386" transform="translate(-124.212 -72.432)" fill="#1e535a"/>
          <path id="Trazado_1273512" data-name="Trazado 1273512" d="M362.717,209.327H410.1a47.612,47.612,0,0,0-47.386-47.386q-.448,0-.895.009Z" transform="translate(-161.833 -72.432)" fill="#f1cb6f"/>
          <path id="Trazado_1273513" data-name="Trazado 1273513" d="M363.441,247.672l41.365,23.116a47.377,47.377,0,0,0,6.02-23.028Z" transform="translate(-162.557 -110.777)" fill="#a4e7f0"/>
          <path id="Trazado_1273514" data-name="Trazado 1273514" d="M445.974,226.884c-.234,8.711-.747,22.282-1.823,33.577,0,0-27.812-5.372-38.219-5.4l.239,4.492s26.551,15.718,45.053,14.737a7.157,7.157,0,0,0,6-4.03c2.645-5.36,4.228-17.46,4.559-42.76.067-5.1-1.552-9.486-6.65-9.5a9.129,9.129,0,0,0-9.155,8.877" transform="translate(-181.562 -97.509)" fill="#ecc4a1"/>
          <path id="Trazado_1273515" data-name="Trazado 1273515" d="M395.88,278.769a4.66,4.66,0,0,0-2.189-5.451c-3.35-1.842-4.13-5.891-6.027-6-1.568-.09-1.234,2.538-.209,4.254.751,1.256,2.321,2.249,1.953,2.371a8.9,8.9,0,0,1-4-.056c-1.424-.547-8.342-3.824-8.637-4.014-2.219-1.425-2.74-.2-2.74-.2-1.079,1.656,3.419,4.043,4.662,4.723,1.876,1.027,5.113,2.5,5.113,2.5l-.078.316s-11.407-1.314-12-1.376a1.185,1.185,0,0,0-1.423.836c-.073.452.163,1.151,1.4,1.58,1.873.649,8.565,2.58,11.335,2.761,0,0-6.525-.125-9.013.559-.826.227-2.162.568-1.985,1.536.2,1.1,2.173,1.018,2.476,1.029a57.64,57.64,0,0,0,9.087-.421l.2.359s-4.5,3.892-5.863,4.9c-.131.1-.8.56-.513,1.218.455,1.033,1.43.5,1.634.4a48.163,48.163,0,0,0,5.981-3.372,3.376,3.376,0,0,1,2.054-.679c1.743.029,4.987-.2,7.071-2.037a5.234,5.234,0,0,0,1.712-5.727" transform="translate(-165.621 -119.564)" fill="#ecc4a1"/>
          <path id="Trazado_1273516" data-name="Trazado 1273516" d="M461.455,129.263s1.047,8.052-4.621,8.252c0,0-3.074-19.959-11.734-22.414,0,0-4.483.58-2.029,10.866,0,0-14,3.768-21.57,1.073,0,0,3.275-19.46,21.875-17.736,0,0,14.683,1.324,18.078,19.96" transform="translate(-188.526 -48.84)" fill="#0c143b"/>
          <path id="Trazado_1273517" data-name="Trazado 1273517" d="M486.935,217.207s-10.47-3.579-12.449,12.163l-4.54-8.044s3.306-7.345,10.064-6.771c0,0,5.827,1.53,6.924,2.652" transform="translate(-210.194 -95.95)" fill="#6cb9ff"/>
          <path id="Trazado_1273518" data-name="Trazado 1273518" d="M13.359,406.254H362.427a1.529,1.529,0,1,0,0-3.058H13.359a1.529,1.529,0,1,0,0,3.058" transform="translate(-5.291 -180.338)"/>
        </g>
      </g>
    </g>
  </g>
</svg>
