<svg xmlns="http://www.w3.org/2000/svg" xmlns:xlink="http://www.w3.org/1999/xlink" width="160" height="160" viewBox="0 0 160 160">
  <defs>
    <clipPath id="clip-path">
      <rect id="Rectángulo_454829" data-name="Rectángulo 454829" width="160" height="160" fill="#1e535a"/>
    </clipPath>
    <clipPath id="clip-path-2">
      <rect id="Rectángulo_464399" data-name="Rectángulo 464399" width="48.355" height="67.71" fill="#1e535a"/>
    </clipPath>
  </defs>
  <g id="Grupo_1211023" data-name="Grupo 1211023" transform="translate(-186 -4323.945)">
    <g id="Grupo_1177591" data-name="Grupo 1177591" transform="translate(186 4323.945)">
      <g id="Grupo_1177589" data-name="Grupo 1177589" transform="translate(0 0)">
        <g id="Grupo_1177587" data-name="Grupo 1177587" clip-path="url(#clip-path)">
          <path id="Trazado_997422" data-name="Trazado 997422" d="M153.468,70.818A73.56,73.56,0,0,0,136.851,32.54a8.46,8.46,0,0,0-11.9-11.4A73.452,73.452,0,0,0,86.919,6.283a8.462,8.462,0,0,0-16.435.334A73.553,73.553,0,0,0,34,22.215,8.464,8.464,0,0,0,22.249,34.043a73.492,73.492,0,0,0-15.4,36.7,8.467,8.467,0,0,0-.2,16.582,73.47,73.47,0,0,0,14.914,37.446,8.463,8.463,0,0,0,11.5,11.95,73.548,73.548,0,0,0,37.353,16.337A8.464,8.464,0,0,0,87,153.4a73.485,73.485,0,0,0,38.308-15.134,8.462,8.462,0,0,0,11.845-11.456,73.578,73.578,0,0,0,16.515-39.558,8.464,8.464,0,0,0-.2-16.43m-23.9-34.11a8.416,8.416,0,0,0,4.687-1.419A69.855,69.855,0,0,1,149.671,70.8a8.476,8.476,0,0,0-5.409,3.919L122.63,66.6c.017-.236.034-.477.034-.722a8.465,8.465,0,0,0-3.585-6.917l9.463-22.325a9.168,9.168,0,0,0,1.026.068m-4.573-1.347-9.4,22.177a8.377,8.377,0,0,0-9.324,5.384L67.131,53.906a8.235,8.235,0,0,0-.177-1.685l55.536-19.34a8.491,8.491,0,0,0,2.5,2.479M78.744,16.941a8.471,8.471,0,0,0,8.314-6.87,69.74,69.74,0,0,1,35.263,13.791,8.424,8.424,0,0,0-1.225,4.375,8.893,8.893,0,0,0,.08,1.119L65.362,48.788a8.5,8.5,0,0,0-1.533-1.533l14.64-30.327c.093,0,.182.013.274.013M70.505,10.4a8.472,8.472,0,0,0,4.261,5.544L60.413,45.672a8.494,8.494,0,0,0-1.748-.182,8.409,8.409,0,0,0-4.826,1.516L36.826,32.8A8.42,8.42,0,0,0,36.538,25,69.8,69.8,0,0,1,70.505,10.4M16.734,77.219,51.922,59.07A8.439,8.439,0,0,0,58.6,62.427l12.06,38.548a8.609,8.609,0,0,0-1.866,2.065L16.629,81.307a8.414,8.414,0,0,0,.312-2.246,8.512,8.512,0,0,0-.207-1.841m8.31-40.651a8.464,8.464,0,0,0,9.454-.807L51.3,49.789a8.447,8.447,0,0,0-.933,5.853L15.117,73.816a8.468,8.468,0,0,0-4.484-2.939A69.764,69.764,0,0,1,25.044,36.568m3.5,84.529a8.445,8.445,0,0,0-4.206,1.123A69.7,69.7,0,0,1,10.438,87.29a8.478,8.478,0,0,0,4.4-2.652l52.682,21.949a9.082,9.082,0,0,0-.068,1.018,8.469,8.469,0,0,0,.507,2.863L36.1,125.733a8.469,8.469,0,0,0-7.546-4.636m42.032,28.195a69.865,69.865,0,0,1-34.854-15.248,8.382,8.382,0,0,0,1.292-4.476l0-.1L70,113.661a8.47,8.47,0,0,0,2.99,1.888l1.976,28.406a8.47,8.47,0,0,0-4.387,5.337M74.09,99.342l-11.8-37.733a8.482,8.482,0,0,0,4.024-4.024l39.452,9.083a8.42,8.42,0,0,0,1.347,3.851l-27.059,29.7a8.366,8.366,0,0,0-5.962-.874m12.9,50.279a8.468,8.468,0,0,0-8.247-6.562l-.063,0L76.8,116.034a8.455,8.455,0,0,0,5.177-2.512l39.444,17.4c0,.076-.013.144-.013.22a8.428,8.428,0,0,0,1.254,4.417A69.736,69.736,0,0,1,86.991,149.62m35.381-22.4-38.418-16.95a8.42,8.42,0,0,0-1.111-7.533l26.978-29.613a8.42,8.42,0,0,0,4.37,1.225,9.324,9.324,0,0,0,1.039-.068l10.084,49.726a8.451,8.451,0,0,0-2.943,3.213m12.153-3.167a8.419,8.419,0,0,0-5.629-1.33L118.808,72.98a8.5,8.5,0,0,0,2.669-2.787L143.1,78.3a7.511,7.511,0,0,0-.038.76,8.467,8.467,0,0,0,6.807,8.3,69.793,69.793,0,0,1-15.341,36.695" transform="translate(0 0.002)" fill="#1e535a"/>
        </g>
      </g>
    </g>
    <g id="Elipse_13614" data-name="Elipse 13614" transform="translate(210.273 4348.213)" fill="#fff" stroke="#1e535a" stroke-width="3">
      <ellipse cx="55.732" cy="55.733" rx="55.732" ry="55.733" stroke="none"/>
      <ellipse cx="55.732" cy="55.733" rx="54.232" ry="54.233" fill="none"/>
    </g>
    <g id="Grupo_1211553" data-name="Grupo 1211553" transform="translate(241.827 4370.091)">
      <g id="Grupo_1211552" data-name="Grupo 1211552" clip-path="url(#clip-path-2)">
        <path id="Trazado_1274145" data-name="Trazado 1274145" d="M48.356,66.273a1.256,1.256,0,0,1-1.361,1.436H1.358A1.241,1.241,0,0,1,0,66.4V1.31A1.219,1.219,0,0,1,1.351,0L38.686,0l.052,6.343a3.517,3.517,0,0,0,3.625,3.323l5.991.045ZM8.058,12.378,5.389,9.661,8.243,6.687A1.132,1.132,0,0,0,8.1,5.165a1.2,1.2,0,0,0-1.645-.028l-3.7,3.7a1.231,1.231,0,0,0,.058,1.714l3.491,3.5a1.217,1.217,0,1,0,1.756-1.673m5.116,1.466L18,6.534a1.181,1.181,0,0,0-.57-1.611,1.232,1.232,0,0,0-1.471.4l-4.9,7.36a1.191,1.191,0,0,0,.431,1.612,1.254,1.254,0,0,0,1.684-.45m9.418.307,3.543-3.521a1.318,1.318,0,0,0,.038-1.889L22.607,5.183a1.211,1.211,0,0,0-1.764.046,1.181,1.181,0,0,0,.063,1.654l2.722,2.8-2.775,2.828A1.169,1.169,0,0,0,21,14.241a1.192,1.192,0,0,0,1.6-.089M7.224,19.35c0-1.619-2.665-1.332-3.977-1.118a1.112,1.112,0,0,0-.8,1.284,1.2,1.2,0,0,0,1.189,1.036c1.477.04,3.586.343,3.583-1.2m20.635,1.2a1.2,1.2,0,0,0,1.121-1.353c-.1-.731-.648-1.061-1.422-1.061h-16.5a1.234,1.234,0,0,0-1.381,1.228,1.252,1.252,0,0,0,1.195,1.2ZM6.076,26.584a1.151,1.151,0,0,0,1.144-1.291,1.176,1.176,0,0,0-1.241-1.118l-2.325,0a1.207,1.207,0,1,0,.005,2.415Zm18.149-.006a1.208,1.208,0,0,0,1.148-1.266,1.238,1.238,0,0,0-1.232-1.137H10.881a1.221,1.221,0,0,0-1.2,1.277,1.242,1.242,0,0,0,1.2,1.137Zm18.013.02a1.2,1.2,0,0,0,1.249-1.317,1.219,1.219,0,0,0-1.338-1.116l-13.1.011a1.209,1.209,0,1,0,0,2.419Zm-36.125,6a1.151,1.151,0,0,0,1.1-1.378,1.175,1.175,0,0,0-1.22-.99H3.642a1.167,1.167,0,0,0-1.2,1.18c-.007,1.477,1.872,1.31,3.674,1.186m27.674.023A1.152,1.152,0,0,0,35,31.228a1.177,1.177,0,0,0-1.307-1l-22.817.011a1.191,1.191,0,0,0-.021,2.383ZM44.824,32.6A1.135,1.135,0,0,0,45.9,31.248a1.177,1.177,0,0,0-1.194-1.02H38.767a1.2,1.2,0,1,0,.01,2.4Zm-37.6,4.759a1.218,1.218,0,0,0-1.277-1.1c-1.419-.023-3.385-.331-3.5,1.1A1.111,1.111,0,0,0,3.3,38.605c1.289.209,4.053.5,3.916-1.251M19.2,38.684a1.2,1.2,0,0,0,1.322-1.156,1.178,1.178,0,0,0-1.094-1.245l-8.542-.02a1.24,1.24,0,0,0-1.209,1.25,1.279,1.279,0,0,0,1.375,1.177Zm16.921,0a1.211,1.211,0,0,0,1.327-1.149,1.26,1.26,0,0,0-1.1-1.288l-12.131.01a1.244,1.244,0,0,0-1.245,1.284,1.269,1.269,0,0,0,1.414,1.148Zm9.786-1.334a1.229,1.229,0,0,0-1.247-1.088c-1.962-.055-4.869-.458-4.755,1.28a1.189,1.189,0,0,0,1.2,1.124c2.182.074,4.945.479,4.8-1.315M6.091,44.684a1.143,1.143,0,0,0,1.115-1.373,1.2,1.2,0,0,0-1.228-.993l-2.318.009a1.177,1.177,0,0,0-1.223,1.165C2.43,44.971,4.255,44.8,6.091,44.684m19.141.022a1.162,1.162,0,0,0,1.323-1.223,1.143,1.143,0,0,0-1.121-1.156l-14.582,0A1.187,1.187,0,0,0,9.69,43.661a1.219,1.219,0,0,0,1.367,1.051ZM6.073,50.755a1.178,1.178,0,0,0,1.141-1.344A1.151,1.151,0,0,0,5.98,48.383H3.652a1.148,1.148,0,0,0-1.215,1.209c.016,1.458,2.03,1.283,3.635,1.163m27.7.022A1.185,1.185,0,0,0,35.008,49.4c-.073-.658-.544-1.02-1.324-1.02l-22.615-.008c-.837,0-1.387.452-1.386,1.208a1.21,1.21,0,0,0,1.2,1.2Zm9.7-1.384a1.155,1.155,0,0,0-1.306-1.014l-3.4,0a1.18,1.18,0,0,0-1.277,1.233,1.23,1.23,0,0,0,1.28,1.16c2.247.037,4.914.468,4.7-1.38M6.188,56.786A1.172,1.172,0,0,0,7.2,55.375c-.217-1.235-2.188-1.04-3.741-.93A1.122,1.122,0,0,0,2.446,55.73c.125,1.4,2.4,1.237,3.742,1.056m10.831.027a1.153,1.153,0,0,0,1.075-1.258c-.033-.445-.313-1.087-.93-1.092l-6.118-.051a1.213,1.213,0,1,0-.165,2.416Zm23.005.033a1.264,1.264,0,0,0,1.034-1.474,1.18,1.18,0,0,0-1.242-.947l-17.95,0a1.2,1.2,0,0,0-1.3,1.121,1.219,1.219,0,0,0,1.163,1.281ZM7.224,61.67c0-1.619-2.665-1.332-3.977-1.118a1.112,1.112,0,0,0-.8,1.284,1.2,1.2,0,0,0,1.189,1.036c1.477.041,3.585.343,3.583-1.2m15.783,1.192a1.189,1.189,0,0,0,1.136-1.377,1.175,1.175,0,0,0-1.227-1.02l-11.862-.017a1.219,1.219,0,1,0-.186,2.428Z" transform="translate(0 0)" fill="#1e535a"/>
        <path id="Trazado_1274146" data-name="Trazado 1274146" d="M195.323,14.013c-2,.058-1.109-3.569-1.192-5.41l5.3,5.286a22.633,22.633,0,0,1-4.106.125" transform="translate(-152.952 -6.783)" fill="#1e535a"/>
      </g>
    </g>
  </g>
</svg>
