<svg xmlns="http://www.w3.org/2000/svg" xmlns:xlink="http://www.w3.org/1999/xlink" width="130" height="130" viewBox="0 0 130 130">
  <defs>
    <clipPath id="clip-path">
      <rect id="Rectángulo_454829" data-name="Rectángulo 454829" width="130" height="130" fill="#1e535a"/>
    </clipPath>
    <clipPath id="clip-path-2">
      <rect id="Rectángulo_464400" data-name="Rectángulo 464400" width="47.153" height="47.278" fill="#1e535a"/>
    </clipPath>
  </defs>
  <g id="Grupo_1211053" data-name="Grupo 1211053" transform="translate(-186 -4323.945)">
    <g id="Grupo_1177591" data-name="Grupo 1177591" transform="translate(186 4323.945)">
      <g id="Grupo_1177589" data-name="Grupo 1177589" transform="translate(0 0)">
        <g id="Grupo_1177587" data-name="Grupo 1177587" clip-path="url(#clip-path)">
          <path id="Trazado_997422" data-name="Trazado 997422" d="M124.692,57.54a59.768,59.768,0,0,0-13.5-31.1,6.874,6.874,0,0,0-9.672-9.26,59.68,59.68,0,0,0-30.9-12.073,6.875,6.875,0,0,0-13.353.271A59.762,59.762,0,0,0,27.622,18.05a6.877,6.877,0,0,0-9.545,9.61A59.712,59.712,0,0,0,5.568,57.481,6.88,6.88,0,0,0,5.4,70.954,59.7,59.7,0,0,0,17.522,101.38a6.876,6.876,0,0,0,9.342,9.709,59.757,59.757,0,0,0,30.35,13.274,6.877,6.877,0,0,0,13.473.271,59.706,59.706,0,0,0,31.125-12.3,6.875,6.875,0,0,0,9.624-9.308,59.783,59.783,0,0,0,13.418-32.141,6.877,6.877,0,0,0-.161-13.35M105.274,29.825a6.838,6.838,0,0,0,3.808-1.153,56.758,56.758,0,0,1,12.526,28.85,6.887,6.887,0,0,0-4.395,3.184L99.637,54.116c.014-.192.027-.388.027-.587a6.877,6.877,0,0,0-2.913-5.62L104.44,29.77a7.449,7.449,0,0,0,.834.055m-3.716-1.094L93.917,46.749a6.806,6.806,0,0,0-7.575,4.374L54.544,43.8A6.691,6.691,0,0,0,54.4,42.43L99.523,26.716a6.9,6.9,0,0,0,2.035,2.014M63.979,13.765a6.883,6.883,0,0,0,6.755-5.582A56.663,56.663,0,0,1,99.386,19.388a6.844,6.844,0,0,0-.995,3.554,7.226,7.226,0,0,0,.065.909L53.107,39.641A6.9,6.9,0,0,0,51.861,38.4L63.756,13.754c.075,0,.148.01.223.01M57.286,8.454a6.884,6.884,0,0,0,3.462,4.5L49.086,37.109a6.9,6.9,0,0,0-1.42-.148,6.832,6.832,0,0,0-3.922,1.232L29.921,26.648a6.842,6.842,0,0,0-.233-6.333,56.709,56.709,0,0,1,27.6-11.861M13.6,62.741l28.59-14.746a6.857,6.857,0,0,0,5.424,2.728l9.8,31.321a7,7,0,0,0-1.516,1.678L13.511,66.062a6.836,6.836,0,0,0,.254-1.825,6.916,6.916,0,0,0-.168-1.5m6.752-33.029a6.877,6.877,0,0,0,7.682-.655l13.648,11.4a6.863,6.863,0,0,0-.758,4.755L12.283,59.976a6.88,6.88,0,0,0-3.644-2.388,56.684,56.684,0,0,1,11.71-27.876M23.2,98.391a6.862,6.862,0,0,0-3.417.913,56.633,56.633,0,0,1-11.3-28.38,6.888,6.888,0,0,0,3.572-2.155L54.857,86.6a7.38,7.38,0,0,0-.055.827,6.881,6.881,0,0,0,.412,2.326l-25.886,12.4A6.881,6.881,0,0,0,23.2,98.391M57.347,121.3A56.765,56.765,0,0,1,29.029,108.91a6.81,6.81,0,0,0,1.05-3.637l0-.079,26.8-12.845a6.882,6.882,0,0,0,2.429,1.534l1.606,23.08a6.882,6.882,0,0,0-3.565,4.337M60.2,80.715,50.609,50.057a6.892,6.892,0,0,0,3.27-3.27l32.055,7.38A6.842,6.842,0,0,0,87.028,57.3L65.043,81.426a6.8,6.8,0,0,0-4.844-.71M70.68,121.567a6.88,6.88,0,0,0-6.7-5.332l-.051,0L62.4,94.278a6.87,6.87,0,0,0,4.206-2.041l32.048,14.135c0,.062-.01.117-.01.178a6.848,6.848,0,0,0,1.019,3.589A56.66,56.66,0,0,1,70.68,121.567m28.747-18.2L68.213,89.6a6.842,6.842,0,0,0-.9-6.121l21.92-24.061a6.841,6.841,0,0,0,3.551.995,7.576,7.576,0,0,0,.844-.055l8.193,40.4a6.867,6.867,0,0,0-2.391,2.611M109.3,100.8a6.84,6.84,0,0,0-4.573-1.081L96.532,59.3A6.91,6.91,0,0,0,98.7,57.032l17.566,6.587a6.1,6.1,0,0,0-.031.618,6.88,6.88,0,0,0,5.531,6.745A56.707,56.707,0,0,1,109.3,100.8" transform="translate(0 0.001)" fill="#1e535a"/>
        </g>
      </g>
    </g>
    <g id="Elipse_13614" data-name="Elipse 13614" transform="translate(210.273 4348.213)" fill="#fff" stroke="#1e535a" stroke-width="3">
      <ellipse cx="40.732" cy="40.733" rx="40.732" ry="40.733" stroke="none"/>
      <ellipse cx="40.732" cy="40.733" rx="39.232" ry="39.233" fill="none"/>
    </g>
    <g id="Grupo_1211555" data-name="Grupo 1211555" transform="translate(227.428 4365.307)">
      <g id="Grupo_1211554" data-name="Grupo 1211554" clip-path="url(#clip-path-2)">
        <path id="Trazado_1274147" data-name="Trazado 1274147" d="M45.785,47.261,29.5,47.272a1.414,1.414,0,0,1-1.639-1.491l-.012-6.789H19.307l-.017,6.933a1.35,1.35,0,0,1-1.336,1.345H1.44A1.371,1.371,0,0,1,.008,45.9L0,29.135a1.364,1.364,0,0,1,1.421-1.388L8.2,27.72l.01-8.16-6.792-.027A1.367,1.367,0,0,1,.033,18.159L.041,1.335A1.328,1.328,0,0,1,1.429.006L17.808,0a1.356,1.356,0,0,1,1.507,1.467l.009,6.808,8.524.007.01-6.95A1.34,1.34,0,0,1,29.2,0H45.725a1.349,1.349,0,0,1,1.421,1.363l.008,16.761a1.416,1.416,0,0,1-1.57,1.412l-6.621.009v8.19l6.771.007a1.365,1.365,0,0,1,1.419,1.269L47.146,45.9a1.339,1.339,0,0,1-1.361,1.365m-34.6-36.017,2.469-.076a1.4,1.4,0,0,0,1.182-1.62c-.265-1.8-2.439-1.127-3.66-1.305l-.024-2.2a1.471,1.471,0,0,0-2.941-.009L8.193,8.245l-2.337.043a1.43,1.43,0,0,0-1.34,1.523,1.478,1.478,0,0,0,1.477,1.4l2.186.02.073,2.475A1.393,1.393,0,0,0,9.892,14.9c1.763-.255,1.134-2.461,1.3-3.653m25.193-4.1a1.5,1.5,0,1,0-1.5,1.5,1.5,1.5,0,0,0,1.5-1.5m-.395,6.209,5.19-5.208a1.449,1.449,0,0,0-.031-2.039,1.466,1.466,0,0,0-2.03-.017L33.8,11.406a1.45,1.45,0,0,0,.119,2.073,1.474,1.474,0,0,0,2.065-.126m5.636-.969a1.5,1.5,0,1,0-1.5,1.5,1.5,1.5,0,0,0,1.5-1.5M27.857,36.025V29.1a1.343,1.343,0,0,1,1.183-1.343l6.987-.058-.015-8.15-6.832-.011a1.409,1.409,0,0,1-1.32-1.239l-.009-7.071-8.526,0-.012,6.946a1.368,1.368,0,0,1-1.355,1.362l-6.792.008V27.74l6.809.009A1.339,1.339,0,0,1,19.3,29.1l.006,6.937Zm11.765,1.481c.756-1.022,2.809-2.11,1.618-3.553a1.385,1.385,0,0,0-1.985-.236L37.487,35.38c-.982-.786-2.26-2.93-3.635-1.535-1.407,1.428.791,2.668,1.537,3.66l-1.6,1.659a1.451,1.451,0,0,0,.09,2.016c1.415,1.336,2.651-.809,3.627-1.56l1.7,1.627a1.43,1.43,0,0,0,2.014-.168c1.25-1.422-.844-2.579-1.6-3.572M13.444,38.957a1.459,1.459,0,0,0-.065-2.916L6,36.034a1.464,1.464,0,0,0-1.5,1.55A1.485,1.485,0,0,0,6,38.979Z" transform="translate(0 0)" fill="#1e535a"/>
      </g>
    </g>
  </g>
</svg>
