<svg xmlns="http://www.w3.org/2000/svg" xmlns:xlink="http://www.w3.org/1999/xlink" width="128" height="128" viewBox="0 0 128 128">
  <defs>
    <clipPath id="clip-path">
      <rect id="Rectángulo_454829" data-name="Rectángulo 454829" width="128" height="128" fill="#1e535a"/>
    </clipPath>
    <clipPath id="clip-path-2">
      <rect id="Rectángulo_464362" data-name="Rectángulo 464362" width="43.522" height="43.519" fill="#1e535a"/>
    </clipPath>
  </defs>
  <g id="Grupo_1209806" data-name="Grupo 1209806" transform="translate(-186 -4323.945)">
    <g id="Grupo_1177591" data-name="Grupo 1177591" transform="translate(186 4323.945)">
      <g id="Grupo_1177589" data-name="Grupo 1177589" transform="translate(0 0)">
        <g id="Grupo_1177587" data-name="Grupo 1177587" clip-path="url(#clip-path)">
          <path id="Trazado_997422" data-name="Trazado 997422" d="M122.774,56.654a58.848,58.848,0,0,0-13.293-30.623,6.768,6.768,0,0,0-9.523-9.118A58.761,58.761,0,0,0,69.535,5.027a6.769,6.769,0,0,0-13.148.267A58.842,58.842,0,0,0,27.2,17.772a6.771,6.771,0,0,0-9.4,9.462A58.794,58.794,0,0,0,5.483,56.6a6.774,6.774,0,0,0-.162,13.266A58.776,58.776,0,0,0,17.252,99.82a6.771,6.771,0,0,0,9.2,9.56,58.838,58.838,0,0,0,29.883,13.07,6.771,6.771,0,0,0,13.266.267,58.788,58.788,0,0,0,30.646-12.107,6.769,6.769,0,0,0,9.476-9.165A58.863,58.863,0,0,0,122.933,69.8a6.771,6.771,0,0,0-.159-13.144m-19.12-27.288a6.733,6.733,0,0,0,3.75-1.135,55.884,55.884,0,0,1,12.333,28.407,6.781,6.781,0,0,0-4.327,3.135L98.1,53.283c.013-.189.027-.382.027-.578a6.772,6.772,0,0,0-2.868-5.533l7.57-17.86a7.335,7.335,0,0,0,.821.054M100,28.288,92.472,46.03a6.7,6.7,0,0,0-7.459,4.307L53.705,43.125a6.588,6.588,0,0,0-.142-1.348L97.992,26.305a6.793,6.793,0,0,0,2,1.983M63,13.553a6.777,6.777,0,0,0,6.651-5.5A55.792,55.792,0,0,1,97.857,19.09a6.739,6.739,0,0,0-.98,3.5,7.114,7.114,0,0,0,.064.9L52.29,39.031A6.8,6.8,0,0,0,51.064,37.8L62.775,13.543c.074,0,.145.01.22.01M56.4,8.324a6.778,6.778,0,0,0,3.409,4.435L48.331,36.538a6.8,6.8,0,0,0-1.4-.145,6.727,6.727,0,0,0-3.861,1.213L29.461,26.238A6.736,6.736,0,0,0,29.231,20,55.836,55.836,0,0,1,56.4,8.324M13.387,61.776l28.15-14.519a6.751,6.751,0,0,0,5.341,2.686l9.648,30.839a6.887,6.887,0,0,0-1.493,1.652L13.3,65.046a6.731,6.731,0,0,0,.25-1.8,6.81,6.81,0,0,0-.166-1.473m6.648-32.521a6.771,6.771,0,0,0,7.564-.645L41.037,39.831a6.758,6.758,0,0,0-.747,4.682l-28.2,14.539A6.774,6.774,0,0,0,8.506,56.7,55.812,55.812,0,0,1,20.036,29.254m2.8,67.623a6.756,6.756,0,0,0-3.365.9A55.762,55.762,0,0,1,8.351,69.832a6.783,6.783,0,0,0,3.517-2.121L54.013,85.27a7.266,7.266,0,0,0-.054.814,6.775,6.775,0,0,0,.405,2.29L28.876,100.587a6.775,6.775,0,0,0-6.037-3.709m33.626,22.556a55.892,55.892,0,0,1-27.883-12.2,6.705,6.705,0,0,0,1.034-3.581l0-.078L56,90.929a6.776,6.776,0,0,0,2.392,1.51l1.581,22.725a6.776,6.776,0,0,0-3.51,4.27m2.807-39.96L49.831,49.287a6.786,6.786,0,0,0,3.219-3.219l31.562,7.266a6.736,6.736,0,0,0,1.078,3.081L64.042,80.173a6.692,6.692,0,0,0-4.77-.7M69.592,119.7a6.774,6.774,0,0,0-6.6-5.25l-.051,0-1.5-21.623a6.764,6.764,0,0,0,4.142-2.01l31.555,13.918c0,.061-.01.115-.01.176a6.743,6.743,0,0,0,1,3.534A55.789,55.789,0,0,1,69.592,119.7M97.9,101.779,67.164,88.22a6.736,6.736,0,0,0-.888-6.027L87.858,58.5a6.736,6.736,0,0,0,3.5.98,7.46,7.46,0,0,0,.831-.054l8.067,39.781a6.761,6.761,0,0,0-2.355,2.571m9.722-2.534a6.735,6.735,0,0,0-4.5-1.064l-8.07-39.8a6.8,6.8,0,0,0,2.135-2.23l17.3,6.486a6.009,6.009,0,0,0-.03.608,6.774,6.774,0,0,0,5.445,6.641A55.835,55.835,0,0,1,107.62,99.246" transform="translate(0 0.001)" fill="#1e535a"/>
        </g>
      </g>
    </g>
    <g id="Elipse_13614" data-name="Elipse 13614" transform="translate(210.273 4348.213)" fill="#fff" stroke="#1e535a" stroke-width="3">
      <ellipse cx="39.732" cy="39.733" rx="39.732" ry="39.733" stroke="none"/>
      <ellipse cx="39.732" cy="39.733" rx="38.232" ry="38.233" fill="none"/>
    </g>
    <g id="Grupo_1211500" data-name="Grupo 1211500" transform="translate(228.243 4366.186)">
      <g id="Grupo_1211499" data-name="Grupo 1211499" clip-path="url(#clip-path-2)">
        <path id="Trazado_1274037" data-name="Trazado 1274037" d="M40.445,102.892H3.3A3.151,3.151,0,0,1,0,99.6L.014,68.717h43.5v31.02a3.1,3.1,0,0,1-3.067,3.155m-32.656-2.43,0-29.372a.768.768,0,0,0-.776-.817.709.709,0,0,0-.762.673l0,29.74c0,.482.574.678.856.624a.81.81,0,0,0,.682-.848m-3.14-28.65c0-1-1.461-.843-2.473-.742a.739.739,0,0,0-.6.836.79.79,0,0,0,.749.675c.99.058,2.319.213,2.323-.77m13.779-.784-8.221.007a.756.756,0,0,0-.853.777.8.8,0,0,0,.848.785l8.428-.007a.784.784,0,0,0,.781-.878c-.059-.458-.4-.683-.982-.683M3.982,76.451a.752.752,0,0,0,.643-.952.78.78,0,0,0-.814-.588l-1.477.006a.778.778,0,0,0-.764.82c.068.9,1.43.821,2.412.713m18.5.022a.767.767,0,0,0,.809-.846.781.781,0,0,0-.863-.717l-12.332.01a.775.775,0,0,0,0,1.548Zm5.565-.02a.754.754,0,0,0,.666-.953.8.8,0,0,0-.837-.591l-2.172,0a.8.8,0,0,0-.825.728.78.78,0,0,0,.709.823c.807.01,1.6.035,2.46-.01m8.566,0c.535,0,.722-.582.646-.948a.783.783,0,0,0-.818-.593h-5.3a.8.8,0,0,0-.828.73.786.786,0,0,0,.71.826Zm5.341-.806a.78.78,0,0,0-.765-.728l-1.476-.007a.77.77,0,0,0-.834.713.749.749,0,0,0,.717.834c.892.042,2.439.236,2.357-.813m-38.138,4.7A.774.774,0,1,0,3.823,78.8H2.452a.809.809,0,0,0-.883.765.8.8,0,0,0,.878.784Zm10.876,0A.773.773,0,1,0,14.7,78.8H10.2a.775.775,0,1,0,.006,1.544ZM3.809,84.236a.773.773,0,0,0,.837-.725c.051-1.05-1.305-.871-2.306-.823a.79.79,0,0,0-.772.8c.057.961,1.294.77,2.24.748m14.75.005a.777.777,0,0,0,.854-.738.806.806,0,0,0-.7-.826l-8.493,0a.79.79,0,1,0-.011,1.575Zm13.309-.005a.777.777,0,0,0,.036-1.552l-10.11,0a.8.8,0,0,0-.8.827.818.818,0,0,0,.912.74Zm6.19-.852a.785.785,0,0,0-.82-.706c-1.225-.014-3.113-.29-3.038.811a.819.819,0,0,0,.88.752c1.381,0,3.072.314,2.978-.857M4.148,88.048c.484-.086.554-.632.455-.974a.775.775,0,0,0-.783-.5l-1.506.007a.745.745,0,0,0-.745.759c-.025,1.017,1.746.855,2.578.707m18.287.061c.543,0,.862-.292.854-.786a.734.734,0,0,0-.723-.744l-12.487,0a.742.742,0,0,0-.716.87c.052.43.347.659.846.659Zm13.265,0a.765.765,0,1,0,.057-1.529l-10.181.007a.756.756,0,0,0-.694.847.772.772,0,0,0,.828.675Zm4.757-.015a.73.73,0,0,0,.7-.879.758.758,0,0,0-.771-.641H38.894a.77.77,0,0,0-.8.752c-.006.954,1.181.847,2.363.767M3.884,92a.755.755,0,0,0,.757-.87.731.731,0,0,0-.825-.661l-1.37-.006a.788.788,0,0,0-.877.773c0,.95,1.258.831,2.315.764M27.79,90.465l-17.572,0c-.565,0-.866.3-.861.784a.781.781,0,0,0,.863.763H27.865a.779.779,0,0,0,.862-.762c0-.5-.279-.787-.937-.787m6.371.655a.742.742,0,0,0-.839-.652H31.138a.759.759,0,0,0-.821.792.79.79,0,0,0,.822.745c1.444.024,3.158.3,3.022-.887M40.435,92a.749.749,0,0,0,.728-.862.74.74,0,0,0-.775-.663l-3.81,0a.761.761,0,0,0-.822.793.79.79,0,0,0,.823.747ZM3.956,95.877a.751.751,0,0,0,.673-.938.765.765,0,0,0-.819-.591H2.446a.805.805,0,0,0-.877.741c-.066,1.008,1.547.9,2.387.789m13.2.042c.488-.147.721-.44.692-.849-.018-.248-.2-.7-.6-.7l-7.3,0c-.44,0-.621.51-.6.831a.776.776,0,0,0,.737.7Zm14.785-.01a.812.812,0,0,0,.664-.947.758.758,0,0,0-.8-.608l-11.534,0a.771.771,0,0,0-.837.72.783.783,0,0,0,.748.824Zm7.767-.033a.751.751,0,0,0,.672-.923.779.779,0,0,0-.814-.6l-4.49,0a.779.779,0,1,0-.107,1.552ZM4.649,99.006c0-1-1.461-.843-2.473-.742a.739.739,0,0,0-.6.836.79.79,0,0,0,.749.675c.99.058,2.319.213,2.323-.77m23.142-.784-17.571.006a.755.755,0,0,0-.864.778.792.792,0,0,0,.857.785H27.869a.789.789,0,0,0,.858-.782c-.007-.482-.281-.787-.937-.786" transform="translate(0.001 -59.374)" fill="#1e535a"/>
        <path id="Trazado_1274038" data-name="Trazado 1274038" d="M43.584,7.784.1,7.788.09,3.137A3.107,3.107,0,0,1,3.37,0H40.309A3.133,3.133,0,0,1,43.6,3.137ZM6.3,3.887A2.327,2.327,0,1,0,3.971,6.214,2.327,2.327,0,0,0,6.3,3.887m6.213,0a2.326,2.326,0,1,0-2.326,2.326A2.326,2.326,0,0,0,12.51,3.887m6.218,0A2.327,2.327,0,1,0,16.4,6.215a2.327,2.327,0,0,0,2.327-2.327M39.952,6.225a2.368,2.368,0,0,0,2.079-2.457,2.3,2.3,0,0,0-2.274-2.205l-7.931.009a2.277,2.277,0,0,0-2.21,2.3A2.267,2.267,0,0,0,31.8,6.194Z" transform="translate(-0.078)" fill="#1e535a"/>
        <path id="Trazado_1274039" data-name="Trazado 1274039" d="M237.33,24.438l-7.672.011a.778.778,0,1,1,0-1.55l7.61.005a.775.775,0,0,1,.813.639.755.755,0,0,1-.755.894" transform="translate(-197.697 -19.786)" fill="#1e535a"/>
        <path id="Trazado_1274040" data-name="Trazado 1274040" d="M24.515,23.709a.766.766,0,1,1-.766-.766.766.766,0,0,1,.766.766" transform="translate(-19.858 -19.824)" fill="#1e535a"/>
        <path id="Trazado_1274041" data-name="Trazado 1274041" d="M115.943,23.689a.768.768,0,1,1-.768-.768.768.768,0,0,1,.768.768" transform="translate(-98.852 -19.805)" fill="#1e535a"/>
        <path id="Trazado_1274042" data-name="Trazado 1274042" d="M70.244,23.71a.767.767,0,1,1-.767-.767.767.767,0,0,1,.767.767" transform="translate(-59.368 -19.824)" fill="#1e535a"/>
      </g>
    </g>
  </g>
</svg>
