<svg xmlns="http://www.w3.org/2000/svg" xmlns:xlink="http://www.w3.org/1999/xlink" width="128" height="128" viewBox="0 0 128 128">
  <defs>
    <clipPath id="clip-path">
      <rect id="Rectángulo_454829" data-name="Rectángulo 454829" width="128" height="128" fill="#1e535a"/>
    </clipPath>
    <clipPath id="clip-path-2">
      <rect id="Rectángulo_464379" data-name="Rectángulo 464379" width="52.203" height="43.093" fill="#1e535a"/>
    </clipPath>
  </defs>
  <g id="Grupo_1209841" data-name="Grupo 1209841" transform="translate(-186 -4323.945)">
    <g id="Grupo_1177591" data-name="Grupo 1177591" transform="translate(186 4323.945)">
      <g id="Grupo_1177589" data-name="Grupo 1177589" transform="translate(0 0)">
        <g id="Grupo_1177587" data-name="Grupo 1177587" clip-path="url(#clip-path)">
          <path id="Trazado_997422" data-name="Trazado 997422" d="M122.774,56.654a58.848,58.848,0,0,0-13.293-30.623,6.768,6.768,0,0,0-9.523-9.118A58.761,58.761,0,0,0,69.535,5.027a6.769,6.769,0,0,0-13.148.267A58.842,58.842,0,0,0,27.2,17.772a6.771,6.771,0,0,0-9.4,9.462A58.794,58.794,0,0,0,5.483,56.6a6.774,6.774,0,0,0-.162,13.266A58.776,58.776,0,0,0,17.252,99.82a6.771,6.771,0,0,0,9.2,9.56,58.838,58.838,0,0,0,29.883,13.07,6.771,6.771,0,0,0,13.266.267,58.788,58.788,0,0,0,30.646-12.107,6.769,6.769,0,0,0,9.476-9.165A58.863,58.863,0,0,0,122.933,69.8a6.771,6.771,0,0,0-.159-13.144m-19.12-27.288a6.733,6.733,0,0,0,3.75-1.135,55.884,55.884,0,0,1,12.333,28.407,6.781,6.781,0,0,0-4.327,3.135L98.1,53.283c.013-.189.027-.382.027-.578a6.772,6.772,0,0,0-2.868-5.533l7.57-17.86a7.335,7.335,0,0,0,.821.054M100,28.288,92.472,46.03a6.7,6.7,0,0,0-7.459,4.307L53.705,43.125a6.588,6.588,0,0,0-.142-1.348L97.992,26.305a6.793,6.793,0,0,0,2,1.983M63,13.553a6.777,6.777,0,0,0,6.651-5.5A55.792,55.792,0,0,1,97.857,19.09a6.739,6.739,0,0,0-.98,3.5,7.114,7.114,0,0,0,.064.9L52.29,39.031A6.8,6.8,0,0,0,51.064,37.8L62.775,13.543c.074,0,.145.01.22.01M56.4,8.324a6.778,6.778,0,0,0,3.409,4.435L48.331,36.538a6.8,6.8,0,0,0-1.4-.145,6.727,6.727,0,0,0-3.861,1.213L29.461,26.238A6.736,6.736,0,0,0,29.231,20,55.836,55.836,0,0,1,56.4,8.324M13.387,61.776l28.15-14.519a6.751,6.751,0,0,0,5.341,2.686l9.648,30.839a6.887,6.887,0,0,0-1.493,1.652L13.3,65.046a6.731,6.731,0,0,0,.25-1.8,6.81,6.81,0,0,0-.166-1.473m6.648-32.521a6.771,6.771,0,0,0,7.564-.645L41.037,39.831a6.758,6.758,0,0,0-.747,4.682l-28.2,14.539A6.774,6.774,0,0,0,8.506,56.7,55.812,55.812,0,0,1,20.036,29.254m2.8,67.623a6.756,6.756,0,0,0-3.365.9A55.762,55.762,0,0,1,8.351,69.832a6.783,6.783,0,0,0,3.517-2.121L54.013,85.27a7.266,7.266,0,0,0-.054.814,6.775,6.775,0,0,0,.405,2.29L28.876,100.587a6.775,6.775,0,0,0-6.037-3.709m33.626,22.556a55.892,55.892,0,0,1-27.883-12.2,6.705,6.705,0,0,0,1.034-3.581l0-.078L56,90.929a6.776,6.776,0,0,0,2.392,1.51l1.581,22.725a6.776,6.776,0,0,0-3.51,4.27m2.807-39.96L49.831,49.287a6.786,6.786,0,0,0,3.219-3.219l31.562,7.266a6.736,6.736,0,0,0,1.078,3.081L64.042,80.173a6.692,6.692,0,0,0-4.77-.7M69.592,119.7a6.774,6.774,0,0,0-6.6-5.25l-.051,0-1.5-21.623a6.764,6.764,0,0,0,4.142-2.01l31.555,13.918c0,.061-.01.115-.01.176a6.743,6.743,0,0,0,1,3.534A55.789,55.789,0,0,1,69.592,119.7M97.9,101.779,67.164,88.22a6.736,6.736,0,0,0-.888-6.027L87.858,58.5a6.736,6.736,0,0,0,3.5.98,7.46,7.46,0,0,0,.831-.054l8.067,39.781a6.761,6.761,0,0,0-2.355,2.571m9.722-2.534a6.735,6.735,0,0,0-4.5-1.064l-8.07-39.8a6.8,6.8,0,0,0,2.135-2.23l17.3,6.486a6.009,6.009,0,0,0-.03.608,6.774,6.774,0,0,0,5.445,6.641A55.835,55.835,0,0,1,107.62,99.246" transform="translate(0 0.001)" fill="#1e535a"/>
        </g>
      </g>
    </g>
    <g id="Elipse_13614" data-name="Elipse 13614" transform="translate(210.273 4348.213)" fill="#fff" stroke="#1e535a" stroke-width="3">
      <ellipse cx="39.732" cy="39.733" rx="39.732" ry="39.733" stroke="none"/>
      <ellipse cx="39.732" cy="39.733" rx="38.232" ry="38.233" fill="none"/>
    </g>
    <g id="Grupo_1211529" data-name="Grupo 1211529" transform="translate(223.898 4366.398)">
      <g id="Grupo_1211528" data-name="Grupo 1211528" clip-path="url(#clip-path-2)">
        <path id="Trazado_1274085" data-name="Trazado 1274085" d="M4.034,32.81l1.538-2.293-2-4.862L.876,25.1A1.016,1.016,0,0,1,0,24.06V19.019a1.014,1.014,0,0,1,.877-1.041l2.693-.547,2-4.813L4,10.213a1.033,1.033,0,0,1,.215-1.326L7.663,5.445a1,1,0,0,1,1.232-.269l2.529,1.611,4.807-2.016.564-2.788a1.009,1.009,0,0,1,1.067-.776l5.045.013c1.4,0,1.029,2.468,1.558,3.585l4.8,1.973,2.386-1.548A.977.977,0,0,1,32.8,5.28l3.775,3.78c.45.451.2,1.027-.18,1.59l6.1.042L42.5,5.842a3,3,0,0,1-2.2-3.171A2.976,2.976,0,0,1,46.2,2.5a3,3,0,0,1-2.189,3.354l-.034,5.605a.694.694,0,0,1-.739.683l-14.263-.008a12.779,12.779,0,1,0,.006,18.8l14.264-.009c.522,0,.729.371.741.856l.024,5.447a2.975,2.975,0,1,1-1.51,0l-.011-4.846-6.085.021c.461.684.551,1.254.011,1.795l-3.362,3.361a1.076,1.076,0,0,1-1.406.291l-2.38-1.565-4.856,2.024-.529,2.689a1.01,1.01,0,0,1-.979.866l-5.354-.02a.877.877,0,0,1-.715-.636l-.607-2.9-4.809-2.021c-1.181.466-2.667,2.419-3.669,1.421L4.217,34.193a1.049,1.049,0,0,1-.183-1.383M44.769,2.96a1.5,1.5,0,1,0-1.5,1.5,1.5,1.5,0,0,0,1.5-1.5m0,37.162a1.495,1.495,0,1,0-1.495,1.495,1.495,1.495,0,0,0,1.495-1.495" transform="translate(0 0)" fill="#1e535a"/>
        <path id="Trazado_1274086" data-name="Trazado 1274086" d="M112.132,83.75c-.045.7-.839.861-1.26.889s-1.378-.134-1.42-.775l-.745-11.283a1.374,1.374,0,0,1,1.426-1.508l1.362,0a1.35,1.35,0,0,1,1.357,1.541Z" transform="translate(-90.432 -59.126)" fill="#1e535a"/>
        <path id="Trazado_1274087" data-name="Trazado 1274087" d="M191,83.436a.725.725,0,0,1-.779-.648A.665.665,0,0,1,190.9,82l7.839-.032,1.971-2.233,4.145-.057a2.918,2.918,0,0,1,3.06-2.089,2.829,2.829,0,0,1,.185,5.6,2.878,2.878,0,0,1-3.235-2.038c-1.158.111-2.408-.237-3.449.127-.819.455-1.213,1.507-2,2.105Zm17.969-3.028a1.349,1.349,0,1,0-1.349,1.349,1.349,1.349,0,0,0,1.349-1.349" transform="translate(-158.246 -64.535)" fill="#1e535a"/>
        <path id="Trazado_1274088" data-name="Trazado 1274088" d="M204.866,147.64l-4.166-.065-1.968-2.228-7.671-.012c-.49,0-.821-.23-.851-.661a.716.716,0,0,1,.7-.79l8.5.035c.785.615,1.194,1.641,2,2.122,1.045.331,2.291,0,3.448.117a2.87,2.87,0,0,1,3.1-2.047,2.8,2.8,0,0,1,2.486,2.749,2.837,2.837,0,0,1-5.575.779m4.1-.737a1.349,1.349,0,1,0-1.349,1.349,1.349,1.349,0,0,0,1.349-1.349" transform="translate(-158.239 -119.7)" fill="#1e535a"/>
        <path id="Trazado_1274089" data-name="Trazado 1274089" d="M205.129,127.419c-.847,1.14-2.158-1.432-2.9-2l-8.685-.021a.709.709,0,0,1-.747-.663.7.7,0,0,1,.746-.761l9.374.012c.8.864,1.486,1.665,2.2,2.532a.763.763,0,0,1,.007.9" transform="translate(-160.39 -103.135)" fill="#1e535a"/>
        <path id="Trazado_1274090" data-name="Trazado 1274090" d="M190.027,85.2l-7.83.01a.756.756,0,0,1-.812-.645c-.051-.477.287-.8.824-.8l7.73-.014a.723.723,0,0,1,.767.678.7.7,0,0,1-.679.768" transform="translate(-150.893 -69.676)" fill="#1e535a"/>
        <path id="Trazado_1274091" data-name="Trazado 1274091" d="M189.931,165.357H182.2a.734.734,0,1,1,0-1.454l7.731,0a.726.726,0,1,1,0,1.451" transform="translate(-150.885 -136.355)" fill="#1e535a"/>
        <path id="Trazado_1274092" data-name="Trazado 1274092" d="M113.861,165.362a1.82,1.82,0,1,1-1.82-1.82,1.82,1.82,0,0,1,1.82,1.82" transform="translate(-91.695 -136.054)" fill="#1e535a"/>
      </g>
    </g>
  </g>
</svg>
