<svg xmlns="http://www.w3.org/2000/svg" xmlns:xlink="http://www.w3.org/1999/xlink" width="85" height="85" viewBox="0 0 85 85">
  <defs>
    <clipPath id="clip-path">
      <rect id="Rectángulo_464315" data-name="Rectángulo 464315" width="62.959" height="62.937" fill="#344866"/>
    </clipPath>
  </defs>
  <g id="Grupo_1210963" data-name="Grupo 1210963" transform="translate(-179.734 -5520.842)">
    <rect id="Rectángulo_402006" data-name="Rectángulo 402006" width="85" height="85" rx="5" transform="translate(179.734 5520.842)" fill="#69d7e5"/>
    <g id="Grupo_1211463" data-name="Grupo 1211463" transform="translate(190.755 5531.873)">
      <path id="Trazado_1273888" data-name="Trazado 1273888" d="M118.091,70.174h-8.119V60.011h8.119Zm-2.03-8.133H112v6.1h4.059Z" transform="translate(-87.651 -47.83)" fill="#344866"/>
      <rect id="Rectángulo_464303" data-name="Rectángulo 464303" width="16.238" height="2.044" transform="translate(4.054 16.24)" fill="#344866"/>
      <rect id="Rectángulo_464304" data-name="Rectángulo 464304" width="10.149" height="2.044" transform="translate(10.143 12.181)" fill="#344866"/>
      <rect id="Rectángulo_464305" data-name="Rectángulo 464305" width="6.089" height="2.044" transform="translate(4.054 20.3)" fill="#344866"/>
      <rect id="Rectángulo_464306" data-name="Rectángulo 464306" width="4.059" height="2.044" transform="translate(4.054 12.181)" fill="#344866"/>
      <rect id="Rectángulo_464307" data-name="Rectángulo 464307" width="4.059" height="2.044" transform="translate(16.232 20.3)" fill="#344866"/>
      <rect id="Rectángulo_464308" data-name="Rectángulo 464308" width="2.03" height="2.044" transform="translate(12.173 20.3)" fill="#344866"/>
      <rect id="Rectángulo_464309" data-name="Rectángulo 464309" width="2.03" height="2.044" transform="translate(4.054 4.062)" fill="#344866"/>
      <rect id="Rectángulo_464310" data-name="Rectángulo 464310" width="2.03" height="2.044" transform="translate(8.113 4.062)" fill="#344866"/>
      <rect id="Rectángulo_464311" data-name="Rectángulo 464311" width="2.03" height="2.044" transform="translate(12.173 4.062)" fill="#344866"/>
      <g id="Grupo_1211462" data-name="Grupo 1211462">
        <g id="Grupo_1211461" data-name="Grupo 1211461" clip-path="url(#clip-path)">
          <path id="Trazado_1273889" data-name="Trazado 1273889" d="M54.819,37.573l-.032,14.192a5.026,5.026,0,0,1-5.064,5.067l-12.175.016.008,4.055,6.064-.006a15.438,15.438,0,0,1-.019,2.038l-26.3,0a10.543,10.543,0,0,1-.041-2.04l6.063.006.008-4.054L11.157,56.83a5.019,5.019,0,0,1-5.063-5.081L6.081,26.405l-3.058-.013A3.011,3.011,0,0,1,0,23.336L0,3.059A3.05,3.05,0,0,1,3.258,0L31.64.039c1.895,0,2.886,1.7,2.883,3.413L34.5,18.279l5.807-.052a3.251,3.251,0,0,1,4.071-1.1A1.469,1.469,0,0,0,46.22,16.4a3.4,3.4,0,0,1,3.5-2.222,3.4,3.4,0,0,1,3.5,2.223,1.479,1.479,0,0,0,1.834.737,3.373,3.373,0,0,1,4.019.924c.965,1,1.66,2.292,1.009,3.7a1.572,1.572,0,0,0,.657,2.145A3.431,3.431,0,0,1,62.959,27.4a3.519,3.519,0,0,1-2.347,3.588c-.766.292-.819,1.421-.529,2.055.652,1.422-.036,2.7-1.011,3.707a3.373,3.373,0,0,1-4.253.824M32.454,8.131l.015-5.085a1.032,1.032,0,0,0-1.04-1l-28.364,0A.987.987,0,0,0,2.041,3.049l0,5.088ZM31.5,24.371c.65-.154.957-.51.958-1.041l.014-13.169H2.021l.013,13.169A1.046,1.046,0,0,0,3.07,24.37ZM50.971,38.2c1.063-2.446,3.179-3.136,5.538-2.284.613.222,1.831-1.143,1.721-1.8-.236-1.12-.655-2.249.016-3.52a5.539,5.539,0,0,1,2.3-1.979c.564-.341.51-2.064-.021-2.433-1.023-.711-1.963-1.162-2.354-2.122a5.032,5.032,0,0,1,.062-3.435c.141-.633-1.106-1.859-1.733-1.73-1.319.272-2.253.625-3.585-.018A5.594,5.594,0,0,1,50.947,16.6a1.986,1.986,0,0,0-2.449,0,5.456,5.456,0,0,1-2.106,2.353c-1.268.545-2.236.187-3.415-.048-.665-.133-1.914,1.087-1.765,1.724.309,1.318.613,2.262-.018,3.581a5.391,5.391,0,0,1-2.283,1.971c-.559.342-.516,2.054.012,2.431,1.025.73,1.943,1.2,2.349,2.12.567,1.285.162,2.215-.059,3.422-.12.651,1.091,1.9,1.736,1.755,1.318-.305,2.253-.6,3.588.018a5.7,5.7,0,0,1,1.944,2.264c.345.556,2.23.6,2.49.005M39.505,22.28a7.568,7.568,0,0,1-.427-1.939L34.512,20.3a15.693,15.693,0,0,0,.019,2.05Zm.864,14.466a3.244,3.244,0,0,1-1.012-3.7A1.564,1.564,0,0,0,38.7,30.9a3.39,3.39,0,0,1-2.2-3.51,3.686,3.686,0,0,1,1.207-2.972,29.41,29.41,0,0,0-3.393-.036A3.181,3.181,0,0,1,31.241,26.4l-19.072,0,0,20.305,36.519,0,.024-6.126A3.473,3.473,0,0,1,46.153,38.3c-.868-2.085-2.889,1.373-5.784-1.553M29.611,48.754l-17.238-.03a2.054,2.054,0,0,1-2.223-2.046l-.008-20.261-2.033,0,.011,25.332A3.021,3.021,0,0,0,11.17,54.8l18.52-.012A3.285,3.285,0,0,1,27.4,51.663a3.325,3.325,0,0,1,2.213-2.909m1.693,0a3.242,3.242,0,0,1,2.161,3.3,3.314,3.314,0,0,1-2.27,2.733l18.313.041a3.079,3.079,0,0,0,3.25-3.066l-.022-12.351a4.366,4.366,0,0,1-2,1.183l.009,5.9a2.076,2.076,0,0,1-2.059,2.217Zm.133,3.007a1,1,0,1,0-1,1,1,1,0,0,0,1-1m-6.072,9.148H35.515V56.835H25.366Z" transform="translate(0 0)" fill="#344866"/>
          <rect id="Rectángulo_464312" data-name="Rectángulo 464312" width="20.297" height="2.044" transform="translate(14.202 28.419)" fill="#344866"/>
          <rect id="Rectángulo_464313" data-name="Rectángulo 464313" width="20.297" height="2.044" transform="translate(14.202 32.478)" fill="#344866"/>
          <path id="Trazado_1273890" data-name="Trazado 1273890" d="M68.249,186.271c-.676-.234-.983-.794-1.5-1.324l3.225-3.362-3.194-3.266a3.362,3.362,0,0,1,1.428-1.422l4.673,4.689Z" transform="translate(-53.2 -140.992)" fill="#344866"/>
          <rect id="Rectángulo_464314" data-name="Rectángulo 464314" width="8.119" height="2.044" transform="translate(20.292 42.627)" fill="#344866"/>
          <path id="Trazado_1273891" data-name="Trazado 1273891" d="M224.205,107.15a7.1,7.1,0,1,1-7.1-7.1,7.1,7.1,0,0,1,7.1,7.1m-2.029,0a5.068,5.068,0,1,0-5.067,5.067,5.067,5.067,0,0,0,5.067-5.067" transform="translate(-167.386 -79.746)" fill="#344866"/>
          <path id="Trazado_1273892" data-name="Trazado 1273892" d="M236.075,123.078a3.039,3.039,0,1,1-3.039-3.04,3.039,3.039,0,0,1,3.039,3.04m-2.042,0a1,1,0,1,0-1,1,1,1,0,0,0,1-1" transform="translate(-183.313 -95.673)" fill="#344866"/>
        </g>
      </g>
    </g>
  </g>
</svg>
