<svg xmlns="http://www.w3.org/2000/svg" xmlns:xlink="http://www.w3.org/1999/xlink" width="130" height="130" viewBox="0 0 130 130">
  <defs>
    <clipPath id="clip-path">
      <rect id="Rectángulo_454829" data-name="Rectángulo 454829" width="130" height="130" fill="#1e535a"/>
    </clipPath>
    <clipPath id="clip-path-2">
      <rect id="Rectángulo_464383" data-name="Rectángulo 464383" width="47.679" height="48.491" fill="#1e535a"/>
    </clipPath>
  </defs>
  <g id="Grupo_1210975" data-name="Grupo 1210975" transform="translate(-186 -4323.945)">
    <g id="Grupo_1177591" data-name="Grupo 1177591" transform="translate(186 4323.945)">
      <g id="Grupo_1177589" data-name="Grupo 1177589" transform="translate(0 0)">
        <g id="Grupo_1177587" data-name="Grupo 1177587" clip-path="url(#clip-path)">
          <path id="Trazado_997422" data-name="Trazado 997422" d="M124.692,57.54a59.768,59.768,0,0,0-13.5-31.1,6.874,6.874,0,0,0-9.672-9.26,59.68,59.68,0,0,0-30.9-12.073,6.875,6.875,0,0,0-13.353.271A59.762,59.762,0,0,0,27.622,18.05a6.877,6.877,0,0,0-9.545,9.61A59.712,59.712,0,0,0,5.568,57.481,6.88,6.88,0,0,0,5.4,70.954,59.7,59.7,0,0,0,17.522,101.38a6.876,6.876,0,0,0,9.342,9.709,59.757,59.757,0,0,0,30.35,13.274,6.877,6.877,0,0,0,13.473.271,59.706,59.706,0,0,0,31.125-12.3,6.875,6.875,0,0,0,9.624-9.308,59.783,59.783,0,0,0,13.418-32.141,6.877,6.877,0,0,0-.161-13.35M105.274,29.825a6.838,6.838,0,0,0,3.808-1.153,56.758,56.758,0,0,1,12.526,28.85,6.887,6.887,0,0,0-4.395,3.184L99.637,54.116c.014-.192.027-.388.027-.587a6.877,6.877,0,0,0-2.913-5.62L104.44,29.77a7.449,7.449,0,0,0,.834.055m-3.716-1.094L93.917,46.749a6.806,6.806,0,0,0-7.575,4.374L54.544,43.8A6.691,6.691,0,0,0,54.4,42.43L99.523,26.716a6.9,6.9,0,0,0,2.035,2.014M63.979,13.765a6.883,6.883,0,0,0,6.755-5.582A56.663,56.663,0,0,1,99.386,19.388a6.844,6.844,0,0,0-.995,3.554,7.226,7.226,0,0,0,.065.909L53.107,39.641A6.9,6.9,0,0,0,51.861,38.4L63.756,13.754c.075,0,.148.01.223.01M57.286,8.454a6.884,6.884,0,0,0,3.462,4.5L49.086,37.109a6.9,6.9,0,0,0-1.42-.148,6.832,6.832,0,0,0-3.922,1.232L29.921,26.648a6.842,6.842,0,0,0-.233-6.333,56.709,56.709,0,0,1,27.6-11.861M13.6,62.741l28.59-14.746a6.857,6.857,0,0,0,5.424,2.728l9.8,31.321a7,7,0,0,0-1.516,1.678L13.511,66.062a6.836,6.836,0,0,0,.254-1.825,6.916,6.916,0,0,0-.168-1.5m6.752-33.029a6.877,6.877,0,0,0,7.682-.655l13.648,11.4a6.863,6.863,0,0,0-.758,4.755L12.283,59.976a6.88,6.88,0,0,0-3.644-2.388,56.684,56.684,0,0,1,11.71-27.876M23.2,98.391a6.862,6.862,0,0,0-3.417.913,56.633,56.633,0,0,1-11.3-28.38,6.888,6.888,0,0,0,3.572-2.155L54.857,86.6a7.38,7.38,0,0,0-.055.827,6.881,6.881,0,0,0,.412,2.326l-25.886,12.4A6.881,6.881,0,0,0,23.2,98.391M57.347,121.3A56.765,56.765,0,0,1,29.029,108.91a6.81,6.81,0,0,0,1.05-3.637l0-.079,26.8-12.845a6.882,6.882,0,0,0,2.429,1.534l1.606,23.08a6.882,6.882,0,0,0-3.565,4.337M60.2,80.715,50.609,50.057a6.892,6.892,0,0,0,3.27-3.27l32.055,7.38A6.842,6.842,0,0,0,87.028,57.3L65.043,81.426a6.8,6.8,0,0,0-4.844-.71M70.68,121.567a6.88,6.88,0,0,0-6.7-5.332l-.051,0L62.4,94.278a6.87,6.87,0,0,0,4.206-2.041l32.048,14.135c0,.062-.01.117-.01.178a6.848,6.848,0,0,0,1.019,3.589A56.66,56.66,0,0,1,70.68,121.567m28.747-18.2L68.213,89.6a6.842,6.842,0,0,0-.9-6.121l21.92-24.061a6.841,6.841,0,0,0,3.551.995,7.576,7.576,0,0,0,.844-.055l8.193,40.4a6.867,6.867,0,0,0-2.391,2.611M109.3,100.8a6.84,6.84,0,0,0-4.573-1.081L96.532,59.3A6.91,6.91,0,0,0,98.7,57.032l17.566,6.587a6.1,6.1,0,0,0-.031.618,6.88,6.88,0,0,0,5.531,6.745A56.707,56.707,0,0,1,109.3,100.8" transform="translate(0 0.001)" fill="#1e535a"/>
        </g>
      </g>
    </g>
    <g id="Elipse_13614" data-name="Elipse 13614" transform="translate(210.273 4348.213)" fill="#fff" stroke="#1e535a" stroke-width="3">
      <ellipse cx="40.732" cy="40.733" rx="40.732" ry="40.733" stroke="none"/>
      <ellipse cx="40.732" cy="40.733" rx="39.232" ry="39.233" fill="none"/>
    </g>
    <g id="Grupo_1211537" data-name="Grupo 1211537" transform="translate(227.166 4364.7)">
      <g id="Grupo_1211536" data-name="Grupo 1211536" clip-path="url(#clip-path-2)">
        <path id="Trazado_1274106" data-name="Trazado 1274106" d="M44.148,63.669l-12.8.02-.016,5.8,6.065.076A2.689,2.689,0,0,1,39.988,71.6a13.389,13.389,0,0,1,.028,2.927H7.658a13.825,13.825,0,0,1,.024-2.915,2.889,2.889,0,0,1,2.592-2.086l6.046-.016.025-5.817L3.3,63.643A3.481,3.481,0,0,1,.007,60.42L0,34.47c0-2.126,2.013-3.417,3.95-3.413l13.243.032-.01,3.06-13.537.009c-.265.011-.629.137-.628.489l0,22.85H44.653l-.018-23.1c-.323-.333-1.017-.24-1.461-.233-.25-.73.017-1.5-.143-2.224-.545-.314-1.145-.282-1.676-.8A16.907,16.907,0,0,1,44.23,31.1a3.59,3.59,0,0,1,3.448,3.367V60.278a3.556,3.556,0,0,1-3.531,3.391" transform="translate(0 -26.038)" fill="#1e535a"/>
        <path id="Trazado_1274107" data-name="Trazado 1274107" d="M165.532,16.126a6.234,6.234,0,0,1-2.238.035c-.294-.345-.221-.947-.594-1.2l-1.905-.886-1.4.5a18.741,18.741,0,0,1-1.485-1.482l.526-1.338-.912-1.981c-.254-.357-.889-.274-1.2-.594a14.63,14.63,0,0,1-.032-2.088l1.3-.635a11.061,11.061,0,0,1,.812-1.947l-.486-1.382a19.183,19.183,0,0,1,1.493-1.476,9.188,9.188,0,0,1,1.265.506l2.084-.846.524-1.268a10.318,10.318,0,0,1,2.19.031c.272.335.212.944.567,1.192l1.921.887,1.389-.5,1.487,1.473-.506,1.386.884,1.933c.261.34.859.294,1.212.573a13.2,13.2,0,0,1,.031,2.158,8.739,8.739,0,0,1-1.275.538l-.789,2.077c-.046.449.431.827.436,1.3a17.9,17.9,0,0,1-1.439,1.466l-1.426-.479c-1.792,1.075-1.835.108-2.443,2.046m2.674-8.006a3.822,3.822,0,1,0-3.822,3.822,3.822,3.822,0,0,0,3.822-3.822" transform="translate(-131.027 0)" fill="#1e535a"/>
        <path id="Trazado_1274108" data-name="Trazado 1274108" d="M120.769,23.117l-4.315,0L116.5,6.19c0-1.084,1.2-1.51,2.045-1.534a1.916,1.916,0,0,1,2.22,1.859Z" transform="translate(-97.636 -3.903)" fill="#1e535a"/>
        <path id="Trazado_1274109" data-name="Trazado 1274109" d="M53.442,168.962l-16.856,0a.813.813,0,0,1-.775-.9.826.826,0,0,1,.934-.721l16.76.012a.757.757,0,0,1,.7.686.8.8,0,0,1-.767.915" transform="translate(-30.021 -140.307)" fill="#1e535a"/>
        <path id="Trazado_1274110" data-name="Trazado 1274110" d="M224.85,133.9a.8.8,0,0,1-1.059,0,.76.76,0,0,1-.1-1.089l2.719-2.369-2.633-2.266a.807.807,0,0,1-.15-1.015.823.823,0,0,1,1.1-.237l3.423,2.843a.824.824,0,0,1,.058,1.282Z" transform="translate(-187.385 -106.306)" fill="#1e535a"/>
        <path id="Trazado_1274111" data-name="Trazado 1274111" d="M45.006,108.572l-8.747.023a.85.85,0,0,1-.826-.735c-.036-.323.162-.857.639-.858l8.893-.016a.776.776,0,0,1,.8.749.818.818,0,0,1-.76.837" transform="translate(-29.704 -89.698)" fill="#1e535a"/>
        <path id="Trazado_1274112" data-name="Trazado 1274112" d="M45.122,88.473l-8.711.011a.884.884,0,0,1-.826-.7c-.054-.338.16-.882.63-.883l9.041-.012c.442,0,.64.456.658.755a.826.826,0,0,1-.792.832" transform="translate(-29.827 -72.846)" fill="#1e535a"/>
        <path id="Trazado_1274113" data-name="Trazado 1274113" d="M45.012,128.706l-8.775-.007a.827.827,0,0,1-.824-.749.793.793,0,0,1,.825-.861h8.716a.774.774,0,0,1,.789.726.86.86,0,0,1-.731.891" transform="translate(-29.686 -106.553)" fill="#1e535a"/>
        <path id="Trazado_1274114" data-name="Trazado 1274114" d="M169.274,132.613a.857.857,0,0,1,.22,1.115.782.782,0,0,1-1.146.2l-3.335-2.79a.876.876,0,0,1-.023-1.376l3.427-2.853a.84.84,0,0,1,.972.1c.2.169.395.732.1.995l-2.754,2.442Z" transform="translate(-138.059 -106.303)" fill="#1e535a"/>
        <path id="Trazado_1274115" data-name="Trazado 1274115" d="M45.175,148.912l-8.758.01a.837.837,0,0,1-.807-.766c-.022-.291.187-.825.648-.826l9.011-.007c.423,0,.635.436.669.706a.812.812,0,0,1-.764.882" transform="translate(-29.854 -123.518)" fill="#1e535a"/>
        <path id="Trazado_1274116" data-name="Trazado 1274116" d="M45.355,68.065l-8.638.014a.8.8,0,0,1-.919-.786.816.816,0,0,1,.79-.82l8.788.007a.841.841,0,0,1,.746.673.774.774,0,0,1-.766.912" transform="translate(-30.013 -55.732)" fill="#1e535a"/>
        <path id="Trazado_1274117" data-name="Trazado 1274117" d="M199.724,129.114a.834.834,0,0,1-.973.688.786.786,0,0,1-.611-.991l2.088-7.805a.8.8,0,0,1,.912-.51.783.783,0,0,1,.6,1.038Z" transform="translate(-166.098 -101.017)" fill="#1e535a"/>
        <path id="Trazado_1274118" data-name="Trazado 1274118" d="M120.86,129.1l-2.088,3.647-2.1-3.651Z" transform="translate(-97.817 -108.232)" fill="#1e535a"/>
      </g>
    </g>
  </g>
</svg>
