<svg xmlns="http://www.w3.org/2000/svg" width="396" height="643" viewBox="0 0 396 643">
  <g id="Grupo_1211608" data-name="Grupo 1211608" transform="translate(3775.746 6941)">
    <g id="Grupo_1210996" data-name="Grupo 1210996" transform="translate(-4065.746 -12252)">
      <rect id="Rectángulo_460600" data-name="Rectángulo 460600" width="396" height="643" rx="14" transform="translate(290 5311)" fill="#cfe8ff"/>
      <g id="Grupo_1210995" data-name="Grupo 1210995" transform="translate(3 4)">
        <path id="Trazado_1274302" data-name="Trazado 1274302" d="M19.5,0h100a19.5,19.5,0,0,1,0,39H19.5a19.5,19.5,0,0,1,0-39Z" transform="translate(349 5339)" fill="#69d7e5"/>
        <path id="Trazado_1274303" data-name="Trazado 1274303" d="M19.5,0h100a19.5,19.5,0,0,1,0,39H19.5a19.5,19.5,0,0,1,0-39Z" transform="translate(350 5411)" fill="#6cb9ff"/>
        <path id="Trazado_1274304" data-name="Trazado 1274304" d="M14,0H72A14,14,0,0,1,86,14V42A14,14,0,0,1,72,56H14A14,14,0,0,1,0,42V14A14,14,0,0,1,14,0Z" transform="translate(453 5867)" fill="#1e535a"/>
        <path id="Trazado_1274305" data-name="Trazado 1274305" d="M14,0H72A14,14,0,0,1,86,14V42A14,14,0,0,1,72,56H14A14,14,0,0,1,0,42V14A14,14,0,0,1,14,0Z" transform="translate(297 5867)" fill="#1e535a"/>
        <g id="Trazado_1274306" data-name="Trazado 1274306" transform="translate(437.652 5867.366) rotate(90)" fill="none" stroke-dasharray="10">
          <path d="M6,0H49.633a6,6,0,0,1,6,6V33a6,6,0,0,1-6,6H6a6,6,0,0,1-6-6V6A6,6,0,0,1,6,0Z" stroke="none"/>
          <path d="M 5.999996185302734 0 L 15.99999618530273 0 L 15.99999618530273 2 L 5.999996185302734 2 L 5.999996185302734 0 C 5.999996185302734 0 5.999996185302734 0 5.999996185302734 0 Z M 25.99999618530273 0 L 35.99999618530273 0 L 35.99999618530273 2 L 25.99999618530273 2 L 25.99999618530273 0 Z M 45.99999618530273 0 L 49.63280487060547 0 C 49.63280487060547 0 49.63280487060547 0 49.63280487060547 0 C 49.63533782958984 0 49.63790512084961 0 49.64043426513672 3.814697265625e-06 C 49.64241409301758 7.62939453125e-06 49.64466857910156 1.1444091796875e-05 49.64664840698242 1.52587890625e-05 C 49.64897537231445 1.9073486328125e-05 49.65090942382812 3.814697265625e-05 49.65323257446289 3.4332275390625e-05 C 49.65548706054688 4.1961669921875e-05 49.65800094604492 6.4849853515625e-05 49.66025543212891 6.103515625e-05 C 49.6622314453125 7.2479248046875e-05 49.66421508789062 8.392333984375e-05 49.66619110107422 9.1552734375e-05 C 49.66851806640625 0.000102996826171875 49.67106246948242 0.000118255615234375 49.67338943481445 0.000133514404296875 C 49.67570495605469 0.000148773193359375 49.67753219604492 0.000164031982421875 49.67984771728516 0.000179290771484375 C 49.68196105957031 0.000194549560546875 49.68375015258789 0.000217437744140625 49.68586349487305 0.0002288818359375 C 49.68838882446289 0.000255584716796875 49.69062805175781 0.000274658203125 49.69314956665039 0.00029754638671875 C 49.69512557983398 0.0003204345703125 49.69751358032227 0.0003509521484375 49.69948959350586 0.000362396240234375 C 49.70147323608398 0.000385284423828125 49.70336532592773 0.000396728515625 49.70534515380859 0.000431060791015625 C 49.7080078125 0.000461578369140625 49.71035385131836 0.00049591064453125 49.71300888061523 0.00052642822265625 C 49.71518707275391 0.000560760498046875 49.71695327758789 0.000583648681640625 49.7191276550293 0.0006103515625 C 49.72110748291016 0.000637054443359375 49.72356414794922 0.00064849853515625 49.72554779052734 0.000701904296875 C 49.72793197631836 0.00074005126953125 49.73025894165039 0.00078582763671875 49.73263931274414 0.000812530517578125 C 49.73461151123047 0.00084686279296875 49.73672866821289 0.00087738037109375 49.73870086669922 0.00091552734375 C 49.74088287353516 0.000949859619140625 49.74346160888672 0.001003265380859375 49.74563980102539 0.001041412353515625 C 49.74788665771484 0.0010833740234375 49.75002670288086 0.001125335693359375 49.75226974487305 0.00116729736328125 C 49.7540397644043 0.001201629638671875 49.75642776489258 0.001255035400390625 49.75819396972656 0.001285552978515625 C 49.76051330566406 0.001331329345703125 49.76306915283203 0.001377105712890625 49.76538467407227 0.001438140869140625 C 49.76749038696289 0.001483917236328125 49.76963806152344 0.00153350830078125 49.7717399597168 0.00157928466796875 C 49.77357864379883 0.001617431640625 49.77583694458008 0.001644134521484375 49.77767944335938 0.00171661376953125 C 49.78019332885742 0.00177001953125 49.78252410888672 0.001827239990234375 49.78504180908203 0.001895904541015625 C 49.78714370727539 0.00194549560546875 49.78926849365234 0.002002716064453125 49.79137420654297 0.002056121826171875 C 49.79335021972656 0.002105712890625 49.79524230957031 0.002166748046875 49.79721832275391 0.002208709716796875 C 49.79972839355469 0.002277374267578125 49.80227279663086 0.0023345947265625 49.80478668212891 0.00241851806640625 C 49.8067512512207 0.002475738525390625 49.80891418457031 0.002529144287109375 49.81088256835938 0.002593994140625 C 49.81299209594727 0.002651214599609375 49.81520843505859 0.00272369384765625 49.81731414794922 0.00278472900390625 C 49.8196907043457 0.002857208251953125 49.82188034057617 0.00292205810546875 49.82425689697266 0.00299835205078125 C 49.82635879516602 0.003063201904296875 49.82827758789062 0.003131866455078125 49.83037948608398 0.003192901611328125 C 49.83288955688477 0.003269195556640625 49.83490753173828 0.003326416015625 49.83741760253906 0.00342559814453125 C 49.83971786499023 0.003498077392578125 49.84169387817383 0.003570556640625 49.843994140625 0.0036468505859375 C 49.84575653076172 0.003711700439453125 49.84808731079102 0.003780364990234375 49.84984970092773 0.00385284423828125 C 49.85215759277344 0.003936767578125 49.854736328125 0.0040283203125 49.8570442199707 0.00411224365234375 C 49.8591423034668 0.0041961669921875 49.86120223999023 0.004268646240234375 49.86330032348633 0.004344940185546875 C 49.86533355712891 0.004425048828125 49.86727905273438 0.004486083984375 49.86930847167969 0.00457763671875 C 49.8718147277832 0.004673004150390625 49.8741455078125 0.004764556884765625 49.87665176391602 0.004863739013671875 C 49.87861251831055 0.00494384765625 49.88088607788086 0.005039215087890625 49.88284683227539 0.005115509033203125 C 49.88481140136719 0.00519561767578125 49.88676452636719 0.0052642822265625 49.88873291015625 0.005359649658203125 C 49.89143753051758 0.005474090576171875 49.89360809326172 0.005565643310546875 49.89630889892578 0.00568389892578125 C 49.8982048034668 0.005764007568359375 49.90028381347656 0.00585174560546875 49.90217971801758 0.005939483642578125 C 49.9044189453125 0.006038665771484375 49.90634536743164 0.006160736083984375 49.90857696533203 0.0062255859375 C 49.91094207763672 0.0063323974609375 49.91325378417969 0.006427764892578125 49.91561889648438 0.006549835205078125 C 49.91764831542969 0.0066375732421875 49.91957855224609 0.0067291259765625 49.92160797119141 0.00682830810546875 C 49.92384338378906 0.006931304931640625 49.92607116699219 0.00705718994140625 49.92830657958984 0.00714874267578125 C 49.93047332763672 0.00725555419921875 49.93283843994141 0.007373809814453125 49.93499755859375 0.007476806640625 C 49.93696212768555 0.00757598876953125 49.93898010253906 0.00771331787109375 49.94094085693359 0.00777435302734375 C 49.94337844848633 0.00789642333984375 49.94577789306641 0.008037567138671875 49.94821166992188 0.008148193359375 C 49.950439453125 0.00826263427734375 49.95234680175781 0.00836181640625 49.95457458496094 0.008480072021484375 C 49.95673370361328 0.008594512939453125 49.95827484130859 0.0086822509765625 49.9604377746582 0.008792877197265625 C 49.96306991577148 0.00893402099609375 49.965087890625 0.0090484619140625 49.96772003173828 0.009189605712890625 C 49.96994400024414 0.00931549072265625 49.97173309326172 0.00940704345703125 49.97395706176758 0.0095367431640625 C 49.9782829284668 0.0097808837890625 49.98295211791992 0.009990692138671875 49.98727798461914 0.0102996826171875 C 49.98949813842773 0.0104217529296875 49.99113464355469 0.01052474975585938 49.99335479736328 0.01065444946289062 C 49.99578475952148 0.01079940795898438 49.99755096435547 0.01090621948242188 49.99998474121094 0.01105117797851562 C 50.00220489501953 0.01118850708007812 50.00454330444336 0.01133346557617188 50.00676727294922 0.01146316528320312 C 50.0087890625 0.01158905029296875 50.01064300537109 0.01170730590820312 50.01266479492188 0.01182937622070312 C 50.01488876342773 0.01196670532226562 50.01705169677734 0.0120849609375 50.01927947998047 0.01224899291992188 C 50.02143478393555 0.01238250732421875 50.02399444580078 0.012542724609375 50.02614974975586 0.01268768310546875 C 50.02816772460938 0.01282119750976562 50.03001403808594 0.01294326782226562 50.03203582763672 0.01307296752929688 C 50.03432464599609 0.01321792602539062 50.03694915771484 0.01338577270507812 50.03923797607422 0.0135498046875 C 50.04145431518555 0.01369476318359375 50.04332733154297 0.01382827758789062 50.0455436706543 0.01397323608398438 C 50.04756164550781 0.01411056518554688 50.04939270019531 0.0142364501953125 50.05140686035156 0.014373779296875 C 50.0538330078125 0.0145416259765625 50.05618667602539 0.014678955078125 50.0586051940918 0.0148773193359375 C 50.06062316894531 0.0150146484375 50.06278228759766 0.01517486572265625 50.06479644775391 0.01531219482421875 C 50.06917190551758 0.015625 50.07371520996094 0.01596450805664062 50.07808685302734 0.01627349853515625 C 50.08029937744141 0.0164337158203125 50.08185958862305 0.01654434204101562 50.08407592773438 0.01671600341796875 C 50.08629608154297 0.01688003540039062 50.08833312988281 0.01703262329101562 50.09054946899414 0.01720046997070312 C 50.0928955078125 0.0173797607421875 50.09496307373047 0.0175323486328125 50.09731292724609 0.0177154541015625 C 50.09932327270508 0.0178680419921875 50.10137939453125 0.01800918579101562 50.1033935546875 0.01818466186523438 C 50.10547637939453 0.01834869384765625 50.10802459716797 0.0185699462890625 50.11009979248047 0.018707275390625 C 50.11211395263672 0.01886367797851562 50.11468124389648 0.01907730102539062 50.11669158935547 0.01922988891601562 C 50.11863708496094 0.01938629150390625 50.12056732177734 0.01953125 50.12251663208008 0.01969528198242188 C 50.12493133544922 0.01988983154296875 50.12714385986328 0.02007675170898438 50.12955856323242 0.02027130126953125 C 50.13176727294922 0.02045059204101562 50.1336669921875 0.020599365234375 50.13587951660156 0.02079010009765625 C 50.14030838012695 0.02115631103515625 50.14462661743164 0.02152633666992188 50.14905166625977 0.02190017700195312 C 50.15106201171875 0.02207183837890625 50.15322494506836 0.02225875854492188 50.15523147583008 0.022430419921875 C 50.15966033935547 0.0228118896484375 50.16379547119141 0.02318572998046875 50.168212890625 0.02356338500976562 C 50.17002487182617 0.02372360229492188 50.17251586914062 0.02398681640625 50.17432403564453 0.02410507202148438 C 50.17633819580078 0.02428817749023438 50.17834091186523 0.02446746826171875 50.18035125732422 0.02465057373046875 C 50.18035125732422 0.02465057373046875 50.18070983886719 0.02468109130859375 50.18070983886719 0.02468109130859375 C 50.1828498840332 0.02487564086914062 50.18545913696289 0.02510452270507812 50.18759918212891 0.02531051635742188 C 50.18960189819336 0.02548980712890625 50.19157409667969 0.02566909790039062 50.19357681274414 0.02585983276367188 C 50.19578552246094 0.02606582641601562 50.19804382324219 0.02626800537109375 50.20025253295898 0.02648162841796875 C 50.202392578125 0.02667999267578125 50.20465850830078 0.026885986328125 50.20679473876953 0.027099609375 C 50.21087646484375 0.02748870849609375 50.21550750732422 0.02795791625976562 50.21958923339844 0.02832794189453125 C 50.22166061401367 0.02853012084960938 50.22378158569336 0.02873992919921875 50.22585678100586 0.02893829345703125 C 50.23007202148438 0.02935409545898438 50.23466110229492 0.02979278564453125 50.23887252807617 0.03023147583007812 C 50.24094390869141 0.03043746948242188 50.24292755126953 0.0306243896484375 50.2449951171875 0.03084945678710938 C 50.2494010925293 0.03129196166992188 50.25392913818359 0.0317535400390625 50.25833892822266 0.03221511840820312 C 50.26027679443359 0.03241348266601562 50.26230621337891 0.03263092041015625 50.26424407958984 0.03282928466796875 C 50.26625061035156 0.03303909301757812 50.26835250854492 0.03326034545898438 50.27035522460938 0.03347396850585938 C 50.27035522460938 0.03347396850585938 50.27058410644531 0.03349685668945312 50.27058410644531 0.03349685668945312 C 50.27298355102539 0.03374862670898438 50.27500152587891 0.03395462036132812 50.27740097045898 0.03422164916992188 C 50.27946853637695 0.03444290161132812 50.28128051757812 0.03462600708007812 50.28334426879883 0.03485870361328125 C 50.28567504882812 0.03510665893554688 50.28777313232422 0.035369873046875 50.29010772705078 0.03559112548828125 C 50.292236328125 0.03582382202148438 50.29449844360352 0.03607559204101562 50.29662704467773 0.03630447387695312 C 50.30082702636719 0.03676605224609375 50.30532455444336 0.0372161865234375 50.30952453613281 0.03773880004882812 C 50.31151962280273 0.03796005249023438 50.3137092590332 0.03820037841796875 50.31570434570312 0.0384368896484375 C 50.32009506225586 0.03893661499023438 50.32421112060547 0.039398193359375 50.32859802246094 0.03991317749023438 C 50.33072280883789 0.04015731811523438 50.33267211914062 0.04038619995117188 50.33479309082031 0.04063034057617188 C 50.33918380737305 0.04114151000976562 50.34345245361328 0.041656494140625 50.34784698486328 0.04216384887695312 C 50.34996795654297 0.04241561889648438 50.35173034667969 0.04264068603515625 50.35385513305664 0.04288101196289062 C 50.35585021972656 0.043121337890625 50.35793304443359 0.04337310791015625 50.35992813110352 0.04361343383789062 C 50.35992813110352 0.04361343383789062 50.36023712158203 0.04365158081054688 50.36023712158203 0.04365158081054688 C 50.36249160766602 0.04392623901367188 50.36464309692383 0.044189453125 50.36689376831055 0.04445648193359375 C 50.36894989013672 0.044708251953125 50.37078857421875 0.04490280151367188 50.37284851074219 0.04518890380859375 C 50.37517166137695 0.04547500610351562 50.37699890136719 0.04571533203125 50.37932205200195 0.04598617553710938 C 50.38151168823242 0.04626083374023438 50.3837890625 0.04654693603515625 50.38597106933594 0.04681777954101562 C 50.39028549194336 0.04735565185546875 50.39430618286133 0.0478515625 50.39861297607422 0.04841232299804688 C 50.40085983276367 0.04869842529296875 50.4027099609375 0.04894256591796875 50.40496063232422 0.049224853515625 C 50.40933227539062 0.0497894287109375 50.41353225708008 0.050323486328125 50.41790390014648 0.0509033203125 C 50.41995620727539 0.05117034912109375 50.42194747924805 0.05148696899414062 50.42399597167969 0.05170059204101562 C 50.42816925048828 0.05225372314453125 50.43280410766602 0.05281448364257812 50.43696975708008 0.05342483520507812 C 50.43882369995117 0.05367279052734375 50.44072341918945 0.05392837524414062 50.44257736206055 0.05418014526367188 C 50.44257736206055 0.05418014526367188 50.44292449951172 0.05422592163085938 50.44292449951172 0.05422592163085938 C 50.44741821289062 0.05483245849609375 50.45143127441406 0.05536270141601562 50.45592498779297 0.05599594116210938 C 50.45791244506836 0.05626678466796875 50.45977783203125 0.05652618408203125 50.46176147460938 0.05679702758789062 C 50.46176147460938 0.05679702758789062 50.46192932128906 0.05681991577148438 50.46192932128906 0.05681991577148438 C 50.46404647827148 0.0571136474609375 50.46609497070312 0.05739974975585938 50.46820831298828 0.0576934814453125 C 50.46820831298828 0.0576934814453125 50.46830749511719 0.057708740234375 50.46830749511719 0.057708740234375 C 50.47048568725586 0.05801010131835938 50.47269058227539 0.0583038330078125 50.47488021850586 0.05862808227539062 C 50.47904205322266 0.05921173095703125 50.48353576660156 0.05992889404296875 50.48769760131836 0.0604400634765625 C 50.48993682861328 0.06075668334960938 50.49166488647461 0.06100082397460938 50.49390411376953 0.06132888793945312 C 50.49800109863281 0.06191635131835938 50.50203704833984 0.06250381469726562 50.50613021850586 0.06309890747070312 C 50.50613021850586 0.06309890747070312 50.50653839111328 0.06315994262695312 50.50653839111328 0.06315994262695312 C 50.50857925415039 0.06345748901367188 50.5107307434082 0.0637969970703125 50.51277542114258 0.0640716552734375 C 50.51705932617188 0.06470489501953125 50.52124786376953 0.06523513793945312 50.52554321289062 0.0659637451171875 C 50.53173828125 0.06688690185546875 50.53806304931641 0.067840576171875 50.54425430297852 0.06878280639648438 C 50.54425430297852 0.06878280639648438 50.54430389404297 0.06879043579101562 50.54430389404297 0.06879043579101562 C 50.55068969726562 0.06976318359375 50.55707168579102 0.07070541381835938 50.56344985961914 0.07174301147460938 C 50.56753158569336 0.07237625122070312 50.57178497314453 0.0730438232421875 50.57586288452148 0.07368850708007812 C 50.57586288452148 0.07368850708007812 50.57588958740234 0.07369232177734375 50.57588958740234 0.07369232177734375 C 50.58851623535156 0.07568359375 50.60095977783203 0.07769012451171875 50.61355972290039 0.07976150512695312 C 50.61375045776367 0.07979202270507812 50.61369323730469 0.07978439331054688 50.61388778686523 0.07981491088867188 C 50.62018585205078 0.08085250854492188 50.62625885009766 0.08185958862304688 50.63255310058594 0.082916259765625 C 50.63255310058594 0.082916259765625 50.63264465332031 0.0829315185546875 50.63264465332031 0.0829315185546875 C 50.63893508911133 0.08398818969726562 50.64511108398438 0.08503341674804688 50.65139770507812 0.08610916137695312 C 50.65139770507812 0.08610916137695312 50.65151977539062 0.08612823486328125 50.65151977539062 0.08612823486328125 C 50.65571212768555 0.08684539794921875 50.65982437133789 0.087554931640625 50.66400909423828 0.08827972412109375 C 50.66400909423828 0.08827972412109375 50.66407775878906 0.08829116821289062 50.66407775878906 0.08829116821289062 C 52.47328948974609 0.4016838073730469 54.00471496582031 1.525356292724609 54.87107467651367 3.07196044921875 L 53.12619781494141 4.049388885498047 C 52.41807556152344 2.7852783203125 51.07948684692383 2 49.63280487060547 2 L 45.99999618530273 2 L 45.99999618530273 0 Z M 53.63280487060547 12.94131088256836 L 55.63280487060547 12.94131088256836 C 55.63280487060547 12.94131088256836 55.63280487060547 22.94131088256836 55.63280487060547 22.94131088256836 L 53.63280487060547 22.94131088256836 L 53.63280487060547 12.94131088256836 Z M 53.63280487060547 32.94131088256836 L 55.63280487060547 32.94131088256836 C 55.63280487060547 32.94131088256836 55.63280487060547 33 55.63280487060547 33 C 55.63280487060547 36.3137092590332 52.94651794433594 39 49.63280487060547 39 C 49.63280487060547 39 49.11737823486328 39 49.11737823486328 39 L 49.11737823486328 37 L 49.63280487060547 37 C 51.83841705322266 37 53.63280487060547 35.20560836791992 53.63280487060547 33 L 53.63280487060547 32.94131088256836 Z M 29.11737632751465 37 L 39.11737823486328 37 L 39.11737823486328 39 C 39.11737823486328 39 29.11737632751465 39 29.11737632751465 39 L 29.11737632751465 37 Z M 9.117374420166016 37 L 19.11737442016602 37 L 19.11737442016602 39 C 19.11737442016602 39 9.117374420166016 39 9.117374420166016 39 L 9.117374420166016 37 Z M -3.814697265625e-06 25.54325103759766 L 1.999996185302734 25.54325103759766 L 1.999996185302734 33 C 1.999996185302734 33.57421875 2.118446350097656 34.12751007080078 2.352066040039062 34.64450836181641 L 0.5294952392578125 35.46807098388672 C 0.5271492004394531 35.4628791809082 0.52490234375 35.4578857421875 0.5225715637207031 35.45268630981445 C 0.522552490234375 35.45264053344727 0.5225143432617188 35.45255279541016 0.522491455078125 35.45250701904297 C 0.2663078308105469 34.88124084472656 0.09691619873046875 34.26277542114258 0.03098297119140625 33.61354446411133 C 0.03097152709960938 33.61344146728516 0.030975341796875 33.61348342895508 0.03096389770507812 33.61338043212891 C 0.02872467041015625 33.5913200378418 0.026611328125 33.56931304931641 0.0246124267578125 33.54718017578125 C 0.0246124267578125 33.54718017578125 0.0246124267578125 33.54717254638672 0.0246124267578125 33.54717254638672 C 0.02446746826171875 33.54559326171875 0.02433013916015625 33.54405212402344 0.02418899536132812 33.54247283935547 C 0.02418899536132812 33.54247283935547 0.02418136596679688 33.54240798950195 0.02418136596679688 33.54240798950195 C 0.02404022216796875 33.54082489013672 0.02392578125 33.53952026367188 0.02378463745117188 33.53794097900391 C 0.02376937866210938 33.53778076171875 0.02375411987304688 33.53762435913086 0.02374267578125 33.53746795654297 C 0.02360153198242188 33.53588485717773 0.02349090576171875 33.5346565246582 0.02335357666015625 33.53307342529297 C 0.023345947265625 33.5329704284668 0.02333831787109375 33.53291320800781 0.0233306884765625 33.53280639648438 C 0.02318954467773438 33.53122711181641 0.02306747436523438 33.52981567382812 0.02293014526367188 33.52823257446289 C 0.02292633056640625 33.52817916870117 0.02292633056640625 33.52820205688477 0.02292251586914062 33.52815246582031 C 0.02112960815429688 33.50758361816406 0.01946258544921875 33.48729705810547 0.01787567138671875 33.46666717529297 C 0.01786422729492188 33.46651077270508 0.01785659790039062 33.46642303466797 0.01784515380859375 33.46626281738281 C 0.01773834228515625 33.46487426757812 0.01763916015625 33.46360015869141 0.01753616333007812 33.46221160888672 C 0.01750946044921875 33.46189498901367 0.017486572265625 33.46157836914062 0.01746368408203125 33.46126556396484 C 0.01737213134765625 33.4600715637207 0.01725006103515625 33.45846176147461 0.01716232299804688 33.45727157592773 C 0.01714324951171875 33.45706176757812 0.01712417602539062 33.45678329467773 0.01710891723632812 33.45657348632812 C 0.01700210571289062 33.45518493652344 0.01689910888671875 33.45378494262695 0.01679611206054688 33.45239639282227 C 0.01678466796875 33.45223999023438 0.01676559448242188 33.45199203491211 0.016754150390625 33.45183563232422 C 0.01663589477539062 33.45024871826172 0.0165557861328125 33.44915771484375 0.01643753051757812 33.44756698608398 C 0.01642227172851562 33.44735717773438 0.01641464233398438 33.44724273681641 0.01639938354492188 33.4470329284668 C 0.01629638671875 33.44564437866211 0.01619338989257812 33.44425964355469 0.01609420776367188 33.44287109375 C 0.01607513427734375 33.44260787963867 0.01605606079101562 33.44235229492188 0.0160369873046875 33.44208908081055 C 0.01593399047851562 33.44070053100586 0.015838623046875 33.43938064575195 0.01573944091796875 33.43798828125 C 0.01572799682617188 33.43783187866211 0.01570892333984375 33.43758010864258 0.01569747924804688 33.43741989135742 C 0.01559829711914062 33.43603134155273 0.0154876708984375 33.43451690673828 0.01538848876953125 33.43312835693359 C 0.01538467407226562 33.43307495117188 0.01537322998046875 33.43288803100586 0.01536941528320312 33.43283462524414 C 0.01447677612304688 33.42031860351562 0.0136260986328125 33.40782165527344 0.01280975341796875 33.39528656005859 C 0.01279830932617188 33.39512634277344 0.012786865234375 33.39494323730469 0.01277542114257812 33.39478302001953 C 0.01268768310546875 33.39339065551758 0.01261138916015625 33.39222717285156 0.01252365112304688 33.39083480834961 C 0.01250076293945312 33.39051818847656 0.01247787475585938 33.39015579223633 0.01245880126953125 33.38983917236328 C 0.01238250732421875 33.38864517211914 0.01231002807617188 33.38752365112305 0.01223373413085938 33.38632965087891 C 0.01213836669921875 33.38480758666992 0.01202011108398438 33.38298416137695 0.01192855834960938 33.38146209716797 C 0.01189804077148438 33.38098526000977 0.01186752319335938 33.3805046081543 0.01183700561523438 33.38002777099609 C 0.01176071166992188 33.37883377075195 0.01169204711914062 33.37769317626953 0.01161575317382812 33.37649536132812 C 0.01159286499023438 33.37607574462891 0.01156234741210938 33.37560272216797 0.01153564453125 33.37518310546875 C 0.01146316528320312 33.37398529052734 0.01139068603515625 33.37279891967773 0.01131820678710938 33.37160491943359 C 0.01129150390625 33.37118148803711 0.01126861572265625 33.37081527709961 0.01124191284179688 33.37039184570312 C 0.01116943359375 33.36919403076172 0.01109695434570312 33.36798095703125 0.01102447509765625 33.36678314208984 C 0.01099395751953125 33.36630630493164 0.01096725463867188 33.36586761474609 0.0109405517578125 33.36539077758789 C 0.01086807250976562 33.36419677734375 0.01080703735351562 33.36314392089844 0.01073455810546875 33.3619499206543 C 0.01070785522460938 33.36152648925781 0.01067733764648438 33.36099624633789 0.010650634765625 33.36057281494141 C 0.01058197021484375 33.359375 0.0105133056640625 33.35823059082031 0.01044464111328125 33.35703277587891 C 0.01035690307617188 33.35561370849609 0.0102386474609375 33.35358810424805 0.01015853881835938 33.35216522216797 C 0.01013565063476562 33.35174179077148 0.01011276245117188 33.35136413574219 0.01008987426757812 33.3509407043457 C 0.01002120971679688 33.3497428894043 0.009944915771484375 33.34845733642578 0.009876251220703125 33.34726333618164 C 0.009857177734375 33.34689331054688 0.009838104248046875 33.34657287597656 0.00981903076171875 33.3462028503418 C 0.009738922119140625 33.34480667114258 0.009677886962890625 33.34375381469727 0.009601593017578125 33.34235763549805 C 0.00959014892578125 33.34220123291016 0.009578704833984375 33.34198760986328 0.009571075439453125 33.34182739257812 C 0.009143829345703125 33.33425140380859 0.00872802734375 33.32658767700195 0.008331298828125 33.31900024414062 C 0.0083160400390625 33.3187370300293 0.008304595947265625 33.31850051879883 0.00829315185546875 33.3182373046875 C 0.008228302001953125 33.31703948974609 0.0081787109375 33.31607818603516 0.00811767578125 33.31488037109375 C 0.00804901123046875 33.31349945068359 0.0079498291015625 33.31170272827148 0.007884979248046875 33.31031799316406 C 0.00778961181640625 33.30863189697266 0.0077056884765625 33.30691909790039 0.007625579833984375 33.30522918701172 C 0.00754547119140625 33.30364990234375 0.007465362548828125 33.30205154418945 0.007389068603515625 33.30046844482422 C 0.007297515869140625 33.29877853393555 0.007228851318359375 33.29719924926758 0.007144927978515625 33.29550933837891 C 0.0070648193359375 33.29387283325195 0.00699615478515625 33.29228973388672 0.0069122314453125 33.29065322875977 C 0.00684356689453125 33.28896713256836 0.006755828857421875 33.28729248046875 0.00667572021484375 33.28559875488281 C 0.006595611572265625 33.28396224975586 0.00652313232421875 33.28242874145508 0.006450653076171875 33.28079223632812 C 0.006381988525390625 33.27910232543945 0.006298065185546875 33.27745819091797 0.006221771240234375 33.2757682800293 C 0.006191253662109375 33.27513122558594 0.006160736083984375 33.27438354492188 0.006130218505859375 33.27375030517578 C 0.00605010986328125 33.27205657958984 0.00598907470703125 33.27048873901367 0.005908966064453125 33.268798828125 C 0.00586700439453125 33.26779937744141 0.005825042724609375 33.26686477661133 0.0057830810546875 33.26586532592773 C 0.005756378173828125 33.26533508300781 0.005733489990234375 33.26480102539062 0.005710601806640625 33.26426696777344 C 0.0056610107421875 33.26306915283203 0.00562286376953125 33.26218795776367 0.0055694580078125 33.260986328125 C 0.00554656982421875 33.26045608520508 0.005527496337890625 33.25996780395508 0.005504608154296875 33.25943756103516 C 0.00545501708984375 33.25823593139648 0.00540924072265625 33.25719451904297 0.005359649658203125 33.25599670410156 C 0.005352020263671875 33.25583648681641 0.005344390869140625 33.25563430786133 0.005336761474609375 33.25547409057617 C 0.005153656005859375 33.25107192993164 0.004970550537109375 33.24657821655273 0.004795074462890625 33.24217224121094 C 0.00478363037109375 33.24190521240234 0.004779815673828125 33.24176025390625 0.00476837158203125 33.24149322509766 C 0.004718780517578125 33.24029159545898 0.00467681884765625 33.23917388916016 0.00463104248046875 33.23797225952148 C 0.004611968994140625 33.237548828125 0.0045928955078125 33.23701858520508 0.004573822021484375 33.23659133911133 C 0.004535675048828125 33.23559188842773 0.004505157470703125 33.23474502563477 0.004467010498046875 33.23374176025391 C 0.0044097900390625 33.23214340209961 0.00434112548828125 33.23036575317383 0.004276275634765625 33.22876739501953 C 0.004222869873046875 33.22721862792969 0.00415802001953125 33.22542572021484 0.00409698486328125 33.22388076782227 C 0.00406646728515625 33.22308349609375 0.004039764404296875 33.22236251831055 0.0040130615234375 33.22156524658203 C 0.00397491455078125 33.22056198120117 0.003955841064453125 33.21998977661133 0.003917694091796875 33.21898651123047 C 0.0038909912109375 33.21824264526367 0.003864288330078125 33.21742248535156 0.00383758544921875 33.21667861938477 C 0.0037994384765625 33.21567535400391 0.00377655029296875 33.21502304077148 0.003742218017578125 33.21401977539062 C 0.00368499755859375 33.21247100830078 0.0036163330078125 33.21050262451172 0.003566741943359375 33.20895385742188 C 0.003513336181640625 33.20751190185547 0.003448486328125 33.20547103881836 0.003398895263671875 33.20402908325195 C 0.003376007080078125 33.20328521728516 0.003353118896484375 33.20256042480469 0.003326416015625 33.20181655883789 C 0.003292083740234375 33.20081329345703 0.003269195556640625 33.20009231567383 0.003238677978515625 33.19908905029297 C 0.00321197509765625 33.19834136962891 0.0031890869140625 33.19761276245117 0.00316619873046875 33.19686508178711 C 0.003131866455078125 33.19586181640625 0.00311279296875 33.19524383544922 0.003082275390625 33.19424438476562 C 0.003025054931640625 33.19258880615234 0.002971649169921875 33.19087982177734 0.00292205810546875 33.18922805786133 C 0.00286865234375 33.18767547607422 0.00281524658203125 33.18575668334961 0.00276947021484375 33.18420791625977 C 0.00272369384765625 33.18260192871094 0.0026702880859375 33.18091583251953 0.00262451171875 33.17931365966797 C 0.00260162353515625 33.17856597900391 0.0025787353515625 33.17774200439453 0.00255584716796875 33.17699432373047 C 0.002529144287109375 33.17599105834961 0.00251007080078125 33.17531585693359 0.00247955322265625 33.17430877685547 C 0.002460479736328125 33.17361831665039 0.00244140625 33.17298126220703 0.002422332763671875 33.17228698730469 C 0.002315521240234375 33.1684684753418 0.00222015380859375 33.16493988037109 0.002117156982421875 33.1611213684082 C 0.0020904541015625 33.15983963012695 0.002056121826171875 33.15864562988281 0.00202178955078125 33.15736389160156 C 0.001979827880859375 33.15579986572266 0.001941680908203125 33.15405654907227 0.001895904541015625 33.15248870849609 C 0.00185394287109375 33.15072631835938 0.00180816650390625 33.14901733398438 0.00177001953125 33.14725112915039 C 0.001728057861328125 33.14553833007812 0.00168609619140625 33.14374542236328 0.001644134521484375 33.14203262329102 C 0.001605987548828125 33.14042663574219 0.0015716552734375 33.13883209228516 0.00153350830078125 33.13722610473633 C 0.001495361328125 33.13556671142578 0.001461029052734375 33.13381195068359 0.001422882080078125 33.13214874267578 C 0.001392364501953125 33.13054656982422 0.00135040283203125 33.12882995605469 0.00131988525390625 33.12722396850586 C 0.001285552978515625 33.12556457519531 0.001251220703125 33.12384796142578 0.001216888427734375 33.12218856811523 C 0.001178741455078125 33.12052536010742 0.001155853271484375 33.1190185546875 0.00112152099609375 33.11735916137695 C 0.0010833740234375 33.11564636230469 0.001056671142578125 33.11400985717773 0.001026153564453125 33.11229705810547 C 0.000995635986328125 33.11052703857422 0.000965118408203125 33.10910415649414 0.00093841552734375 33.10733413696289 C 0.00090789794921875 33.10562133789062 0.000873565673828125 33.10392761230469 0.000850677490234375 33.10221481323242 C 0.000823974609375 33.10055160522461 0.000797271728515625 33.09899520874023 0.00077056884765625 33.09733581542969 C 0.000743865966796875 33.09561920166016 0.000720977783203125 33.09399032592773 0.000690460205078125 33.0922737121582 C 0.00067138671875 33.09061050415039 0.000640869140625 33.08895111083984 0.00061798095703125 33.08728790283203 C 0.0006103515625 33.08670043945312 0.00060272216796875 33.08610534667969 0.0005950927734375 33.08551406860352 C 0.000568389892578125 33.08370208740234 0.000545501708984375 33.08200454711914 0.000522613525390625 33.08019256591797 C 0.000499725341796875 33.07862091064453 0.00048065185546875 33.07718276977539 0.000461578369140625 33.07561492919922 C 0.00045013427734375 33.07454299926758 0.000438690185546875 33.07349395751953 0.000423431396484375 33.07242202758789 C 0.00040435791015625 33.07065200805664 0.000385284423828125 33.06914138793945 0.0003662109375 33.0673713684082 C 0.000347137451171875 33.06585311889648 0.000331878662109375 33.06394958496094 0.00031280517578125 33.06243515014648 C 0.000293731689453125 33.06066513061523 0.000286102294921875 33.05909729003906 0.000263214111328125 33.05732345581055 C 0.00025177001953125 33.05560684204102 0.00023651123046875 33.05411148071289 0.00022125244140625 33.05239105224609 C 0.000194549560546875 33.05087661743164 0.000186920166015625 33.04890441894531 0.000179290771484375 33.04738616943359 C 0.000171661376953125 33.04572296142578 0.000152587890625 33.04412078857422 0.00014495849609375 33.04245758056641 C 0.000133514404296875 33.04073715209961 0.000118255615234375 33.03899765014648 0.000110626220703125 33.03727722167969 C 9.5367431640625e-05 33.03576278686523 9.1552734375e-05 33.03383255004883 8.0108642578125e-05 33.03231430053711 C 8.392333984375e-05 33.03074264526367 6.4849853515625e-05 33.02882385253906 5.7220458984375e-05 33.02725219726562 C 5.340576171875e-05 33.02553558349609 4.9591064453125e-05 33.02404022216797 3.814697265625e-05 33.02231979370117 C 3.0517578125e-05 33.02065277099609 2.288818359375e-05 33.01902770996094 2.288818359375e-05 33.01736068725586 C 1.52587890625e-05 33.01569366455078 1.52587890625e-05 33.01414489746094 7.62939453125e-06 33.01247787475586 C 7.62939453125e-06 33.01146697998047 7.62939453125e-06 33.01096343994141 3.814697265625e-06 33.00995254516602 C 3.814697265625e-06 33.00893402099609 3.814697265625e-06 33.00802612304688 0 33.00700378417969 C 0 33.00619506835938 0 33.00580215454102 0 33.0049934387207 C -3.814697265625e-06 33.00332641601562 -3.814697265625e-06 33.00166320800781 -3.814697265625e-06 33 L -3.814697265625e-06 25.54325103759766 Z M 0.01709747314453125 5.543651580810547 L 2.011455535888672 5.693641662597656 C 2.003856658935547 5.794780731201172 1.999996185302734 5.897850036621094 1.999996185302734 6 L 1.999996185302734 15.54324913024902 L -3.814697265625e-06 15.54324913024902 L -3.814697265625e-06 6 C -3.814697265625e-06 6 -3.814697265625e-06 6 -3.814697265625e-06 6 C -3.814697265625e-06 5.997852325439453 -3.814697265625e-06 5.995700836181641 0 5.993556976318359 C 0 5.993152618408203 0 5.992424011230469 3.814697265625e-06 5.992019653320312 C 3.814697265625e-06 5.990024566650391 7.62939453125e-06 5.988018035888672 1.1444091796875e-05 5.98602294921875 C 1.1444091796875e-05 5.985820770263672 1.1444091796875e-05 5.985713958740234 1.52587890625e-05 5.985511779785156 C 1.9073486328125e-05 5.983402252197266 2.6702880859375e-05 5.981288909912109 3.0517578125e-05 5.979183197021484 C 3.4332275390625e-05 5.97857666015625 3.4332275390625e-05 5.978126525878906 3.814697265625e-05 5.977519989013672 C 4.57763671875e-05 5.975608825683594 5.340576171875e-05 5.973697662353516 6.103515625e-05 5.971786499023438 C 6.103515625e-05 5.971584320068359 6.4849853515625e-05 5.971286773681641 6.4849853515625e-05 5.971084594726562 C 7.62939453125e-05 5.968959808349609 8.7738037109375e-05 5.966838836669922 9.918212890625e-05 5.964714050292969 C 0.000102996826171875 5.964107513427734 0.000102996826171875 5.963825225830078 0.0001068115234375 5.963222503662109 C 0.000118255615234375 5.961273193359375 0.00012969970703125 5.959335327148438 0.00014495849609375 5.957389831542969 C 0.00014495849609375 5.957187652587891 0.000148773193359375 5.956890106201172 0.000148773193359375 5.956687927246094 C 0.000164031982421875 5.954544067382812 0.00018310546875 5.952396392822266 0.0001983642578125 5.950252532958984 C 0.000202178955078125 5.949848175048828 0.00020599365234375 5.949272155761719 0.000209808349609375 5.948867797851562 C 0.000225067138671875 5.946887969970703 0.000244140625 5.944904327392578 0.000263214111328125 5.942920684814453 C 0.000263214111328125 5.942722320556641 0.00026702880859375 5.942550659179688 0.00026702880859375 5.942348480224609 C 0.0002899169921875 5.940132141113281 0.000308990478515625 5.937919616699219 0.000335693359375 5.935703277587891 C 0.000339508056640625 5.935298919677734 0.000339508056640625 5.935138702392578 0.00034332275390625 5.934734344482422 C 0.0003662109375 5.932613372802734 0.00038909912109375 5.930465698242188 0.000415802001953125 5.9283447265625 C 0.00041961669921875 5.928142547607422 0.000415802001953125 5.928253173828125 0.00041961669921875 5.928050994873047 C 0.000446319580078125 5.925743103027344 0.0004730224609375 5.923442840576172 0.0005035400390625 5.921134948730469 C 0.000507354736328125 5.920932769775391 0.000507354736328125 5.920841217041016 0.00051116943359375 5.920639038085938 C 0.000537872314453125 5.918434143066406 0.000568389892578125 5.916236877441406 0.000598907470703125 5.914031982421875 C 0.00060272216796875 5.913829803466797 0.00060272216796875 5.913875579833984 0.000606536865234375 5.913673400878906 C 0.000637054443359375 5.911350250244141 0.00067138671875 5.909023284912109 0.000705718994140625 5.906700134277344 C 0.000705718994140625 5.906700134277344 0.00070953369140625 5.906455993652344 0.00070953369140625 5.906455993652344 C 0.002574920654296875 5.784610748291016 0.0080718994140625 5.663627624511719 0.01709747314453125 5.543651580810547 Z" stroke="none" fill="#1e535a"/>
        </g>
        <path id="Trazado_1274307" data-name="Trazado 1274307" d="M31.743,18h-2.49V5.914h2.49ZM36.1,9.019l.075,1.038a3.136,3.136,0,0,1,2.582-1.2,2.606,2.606,0,0,1,2.125.838A3.912,3.912,0,0,1,41.6,12.2V18H39.2V12.256a1.556,1.556,0,0,0-.332-1.108,1.486,1.486,0,0,0-1.1-.344,1.65,1.65,0,0,0-1.519.863V18h-2.4V9.019ZM45.945,18H43.538V9.019h2.407ZM43.4,6.694a1.181,1.181,0,0,1,.361-.888,1.556,1.556,0,0,1,1.963,0,1.175,1.175,0,0,1,.365.888,1.178,1.178,0,0,1-.369.9,1.539,1.539,0,0,1-1.951,0A1.178,1.178,0,0,1,43.4,6.694Zm8.259,9.538a1.573,1.573,0,0,0,1.079-.365,1.28,1.28,0,0,0,.432-.971h2.25a3.077,3.077,0,0,1-.5,1.673,3.286,3.286,0,0,1-1.341,1.179,4.2,4.2,0,0,1-1.88.419,3.9,3.9,0,0,1-3.038-1.224,4.845,4.845,0,0,1-1.112-3.383V13.4a4.79,4.79,0,0,1,1.1-3.312,3.854,3.854,0,0,1,3.03-1.237,3.778,3.778,0,0,1,2.7.959,3.4,3.4,0,0,1,1.033,2.552h-2.25a1.648,1.648,0,0,0-.432-1.139,1.6,1.6,0,0,0-2.362.173,3.541,3.541,0,0,0-.427,1.983v.249a3.586,3.586,0,0,0,.423,2A1.463,1.463,0,0,0,51.656,16.232ZM59.318,18H56.911V9.019h2.407ZM56.77,6.694a1.181,1.181,0,0,1,.361-.888,1.556,1.556,0,0,1,1.963,0,1.175,1.175,0,0,1,.365.888,1.178,1.178,0,0,1-.369.9,1.539,1.539,0,0,1-1.951,0A1.178,1.178,0,0,1,56.77,6.694Zm4.15,6.732a5.327,5.327,0,0,1,.515-2.382,3.767,3.767,0,0,1,1.482-1.619,4.323,4.323,0,0,1,2.245-.573,4.09,4.09,0,0,1,2.968,1.112,4.464,4.464,0,0,1,1.282,3.021l.017.614a4.694,4.694,0,0,1-1.154,3.316,4.472,4.472,0,0,1-6.2,0,4.777,4.777,0,0,1-1.158-3.387Zm2.4.17a3.357,3.357,0,0,0,.481,1.958,1.73,1.73,0,0,0,2.739.008,3.674,3.674,0,0,0,.49-2.141,3.324,3.324,0,0,0-.49-1.945,1.592,1.592,0,0,0-1.378-.69,1.566,1.566,0,0,0-1.361.686A3.735,3.735,0,0,0,63.319,13.6Z" transform="translate(370 5346)" fill="#12263f"/>
        <path id="Trazado_1274308" data-name="Trazado 1274308" d="M9.243,18H6.752V5.914h2.49ZM13.6,9.019l.075,1.038a3.136,3.136,0,0,1,2.582-1.2,2.606,2.606,0,0,1,2.125.838A3.912,3.912,0,0,1,19.1,12.2V18H16.7V12.256a1.556,1.556,0,0,0-.332-1.108,1.486,1.486,0,0,0-1.1-.344,1.65,1.65,0,0,0-1.519.863V18h-2.4V9.019ZM23.445,18H21.038V9.019h2.407ZM20.9,6.694a1.181,1.181,0,0,1,.361-.888,1.556,1.556,0,0,1,1.963,0,1.175,1.175,0,0,1,.365.888,1.178,1.178,0,0,1-.369.9,1.539,1.539,0,0,1-1.951,0A1.178,1.178,0,0,1,20.9,6.694Zm8.259,9.538a1.573,1.573,0,0,0,1.079-.365,1.28,1.28,0,0,0,.432-.971h2.25a3.077,3.077,0,0,1-.5,1.673,3.286,3.286,0,0,1-1.341,1.179,4.2,4.2,0,0,1-1.88.419,3.9,3.9,0,0,1-3.038-1.224,4.845,4.845,0,0,1-1.112-3.383V13.4a4.79,4.79,0,0,1,1.1-3.312,3.854,3.854,0,0,1,3.03-1.237,3.778,3.778,0,0,1,2.7.959,3.4,3.4,0,0,1,1.033,2.552h-2.25a1.648,1.648,0,0,0-.432-1.139,1.6,1.6,0,0,0-2.362.173,3.541,3.541,0,0,0-.427,1.983v.249a3.586,3.586,0,0,0,.423,2A1.463,1.463,0,0,0,29.156,16.232ZM36.818,18H34.411V9.019h2.407ZM34.27,6.694a1.181,1.181,0,0,1,.361-.888,1.556,1.556,0,0,1,1.963,0,1.175,1.175,0,0,1,.365.888,1.178,1.178,0,0,1-.369.9,1.539,1.539,0,0,1-1.951,0A1.178,1.178,0,0,1,34.27,6.694Zm4.15,6.732a5.327,5.327,0,0,1,.515-2.382,3.767,3.767,0,0,1,1.482-1.619,4.323,4.323,0,0,1,2.245-.573,4.09,4.09,0,0,1,2.968,1.112,4.464,4.464,0,0,1,1.282,3.021l.017.614a4.694,4.694,0,0,1-1.154,3.316,4.472,4.472,0,0,1-6.2,0,4.777,4.777,0,0,1-1.158-3.387Zm2.4.17a3.357,3.357,0,0,0,.481,1.958,1.73,1.73,0,0,0,2.739.008,3.674,3.674,0,0,0,.49-2.141,3.324,3.324,0,0,0-.49-1.945,1.592,1.592,0,0,0-1.378-.69,1.566,1.566,0,0,0-1.361.686A3.735,3.735,0,0,0,40.819,13.6ZM14.46,38.6l1.66-5.586h2.573L15.082,43.395l-.2.473a2.738,2.738,0,0,1-2.656,1.76,3.774,3.774,0,0,1-1.062-.158V43.652l.365.008a1.973,1.973,0,0,0,1.017-.208,1.363,1.363,0,0,0,.527-.689l.282-.739L10.21,33.019h2.582ZM24.454,42V34.778H23.117v-1.76h1.336V32.6A3.368,3.368,0,0,1,25.5,29.993a4.191,4.191,0,0,1,2.893-.917,9.6,9.6,0,0,1,2.723.49l-.349,1.984a10.622,10.622,0,0,0-1.262-.311,6.2,6.2,0,0,0-.963-.071q-1.677,0-1.677,1.486v.365h1.768v1.76H26.861V42Zm7.778,0H29.824V33.019h2.407Zm4.192-8.981.075,1.038a3.136,3.136,0,0,1,2.582-1.2,2.606,2.606,0,0,1,2.125.838,3.912,3.912,0,0,1,.714,2.507V42h-2.4V36.256a1.556,1.556,0,0,0-.332-1.108,1.486,1.486,0,0,0-1.1-.344,1.65,1.65,0,0,0-1.519.863V42h-2.4V33.019Z" transform="translate(582 5335)" fill="#12263f"/>
        <path id="Trazado_1274309" data-name="Trazado 1274309" d="M8.626,13.742V18H6.136V5.914h4.715a5.455,5.455,0,0,1,2.395.5,3.67,3.67,0,0,1,1.59,1.415,3.946,3.946,0,0,1,.556,2.088,3.47,3.47,0,0,1-1.216,2.8,5.065,5.065,0,0,1-3.366,1.025Zm0-2.017h2.225a2.187,2.187,0,0,0,1.507-.465,1.691,1.691,0,0,0,.519-1.328A1.994,1.994,0,0,0,12.353,8.5a1.953,1.953,0,0,0-1.444-.564H8.626Zm13.364-.457a6.517,6.517,0,0,0-.863-.066,1.757,1.757,0,0,0-1.785.921V18h-2.4V9.019h2.266l.066,1.071a2.223,2.223,0,0,1,2-1.237,2.514,2.514,0,0,1,.747.108Zm.481,2.158a5.327,5.327,0,0,1,.515-2.382,3.768,3.768,0,0,1,1.482-1.619,4.323,4.323,0,0,1,2.245-.573,4.09,4.09,0,0,1,2.968,1.112,4.464,4.464,0,0,1,1.282,3.021l.017.614a4.694,4.694,0,0,1-1.154,3.316,4.011,4.011,0,0,1-3.1,1.249,4.031,4.031,0,0,1-3.1-1.245,4.777,4.777,0,0,1-1.158-3.387Zm2.4.17a3.357,3.357,0,0,0,.481,1.958,1.73,1.73,0,0,0,2.739.008,3.674,3.674,0,0,0,.49-2.141,3.324,3.324,0,0,0-.49-1.945,1.592,1.592,0,0,0-1.378-.69,1.566,1.566,0,0,0-1.361.686A3.735,3.735,0,0,0,24.871,13.6Zm11.322,2.635a1.573,1.573,0,0,0,1.079-.365A1.28,1.28,0,0,0,37.7,14.9h2.25a3.077,3.077,0,0,1-.5,1.673,3.286,3.286,0,0,1-1.341,1.179,4.2,4.2,0,0,1-1.88.419A3.9,3.9,0,0,1,33.2,16.942a4.845,4.845,0,0,1-1.112-3.383V13.4a4.79,4.79,0,0,1,1.1-3.312,3.854,3.854,0,0,1,3.03-1.237,3.778,3.778,0,0,1,2.7.959,3.4,3.4,0,0,1,1.033,2.552H37.7a1.648,1.648,0,0,0-.432-1.139,1.6,1.6,0,0,0-2.362.173,3.541,3.541,0,0,0-.427,1.983v.249a3.586,3.586,0,0,0,.423,2A1.463,1.463,0,0,0,36.193,16.232Zm9.264,1.934a4.409,4.409,0,0,1-3.217-1.212A4.308,4.308,0,0,1,41,13.725v-.232a5.426,5.426,0,0,1,.523-2.42A3.838,3.838,0,0,1,43,9.429a4.159,4.159,0,0,1,2.187-.577,3.727,3.727,0,0,1,2.9,1.162,4.722,4.722,0,0,1,1.058,3.3v.979H43.431a2.229,2.229,0,0,0,.7,1.411,2.12,2.12,0,0,0,1.482.531,2.589,2.589,0,0,0,2.167-1l1.179,1.32A3.6,3.6,0,0,1,47.5,17.739,4.793,4.793,0,0,1,45.457,18.166Zm-.274-7.379a1.5,1.5,0,0,0-1.158.484,2.5,2.5,0,0,0-.569,1.384h3.337v-.192a1.786,1.786,0,0,0-.432-1.238A1.547,1.547,0,0,0,45.183,10.787Zm10.193,4.731a.773.773,0,0,0-.436-.693,4.95,4.95,0,0,0-1.4-.452q-3.2-.672-3.2-2.723a2.468,2.468,0,0,1,.992-2,4,4,0,0,1,2.594-.8,4.307,4.307,0,0,1,2.735.805,2.538,2.538,0,0,1,1.025,2.092h-2.4a1.161,1.161,0,0,0-.332-.851,1.405,1.405,0,0,0-1.038-.336,1.436,1.436,0,0,0-.938.274.865.865,0,0,0-.332.7.739.739,0,0,0,.378.643A3.885,3.885,0,0,0,54.3,12.6a10.407,10.407,0,0,1,1.511.4,2.482,2.482,0,0,1,1.9,2.416,2.343,2.343,0,0,1-1.054,1.988,4.548,4.548,0,0,1-2.723.76,4.75,4.75,0,0,1-2-.4,3.363,3.363,0,0,1-1.374-1.1,2.565,2.565,0,0,1-.5-1.515H52.33a1.252,1.252,0,0,0,.473.979,1.877,1.877,0,0,0,1.179.34,1.737,1.737,0,0,0,1.042-.261A.814.814,0,0,0,55.376,15.518Zm3.5-2.092a5.327,5.327,0,0,1,.515-2.382,3.767,3.767,0,0,1,1.482-1.619,4.323,4.323,0,0,1,2.245-.573,4.09,4.09,0,0,1,2.968,1.112,4.464,4.464,0,0,1,1.282,3.021l.017.614a4.694,4.694,0,0,1-1.154,3.316,4.472,4.472,0,0,1-6.2,0,4.777,4.777,0,0,1-1.158-3.387Zm2.4.17a3.357,3.357,0,0,0,.481,1.958,1.73,1.73,0,0,0,2.739.008,3.674,3.674,0,0,0,.49-2.141,3.324,3.324,0,0,0-.49-1.945,1.592,1.592,0,0,0-1.378-.69,1.566,1.566,0,0,0-1.361.686A3.735,3.735,0,0,0,61.278,13.6Z" transform="translate(582 5418)" fill="#12263f"/>
        <path id="Trazado_1274310" data-name="Trazado 1274310" d="M12.382,12.762H7.6V16h5.611v2h-8.1V5.914H13.2V7.931H7.6v2.88h4.781Zm4.341-3.744.075,1.038a3.136,3.136,0,0,1,2.582-1.2,2.606,2.606,0,0,1,2.125.838,3.912,3.912,0,0,1,.714,2.507V18h-2.4V12.256a1.556,1.556,0,0,0-.332-1.108,1.486,1.486,0,0,0-1.1-.344,1.65,1.65,0,0,0-1.519.863V18h-2.4V9.019ZM26.908,6.811V9.019h1.536v1.76H26.908v4.482a1.07,1.07,0,0,0,.191.714.959.959,0,0,0,.73.216,3.826,3.826,0,0,0,.706-.058V17.95a4.938,4.938,0,0,1-1.453.216,2.29,2.29,0,0,1-2.573-2.548V10.778H23.2V9.019H24.51V6.811Zm7.919,4.458a6.517,6.517,0,0,0-.863-.066,1.757,1.757,0,0,0-1.785.921V18h-2.4V9.019h2.266l.066,1.071a2.223,2.223,0,0,1,2-1.237,2.514,2.514,0,0,1,.747.108ZM40.937,18a2.664,2.664,0,0,1-.241-.805,2.9,2.9,0,0,1-2.266.971,3.189,3.189,0,0,1-2.187-.764,2.456,2.456,0,0,1-.867-1.926,2.538,2.538,0,0,1,1.058-2.191,5.222,5.222,0,0,1,3.059-.772h1.1V12a1.48,1.48,0,0,0-.32-1,1.257,1.257,0,0,0-1.009-.374,1.429,1.429,0,0,0-.95.291.987.987,0,0,0-.344.8h-2.4a2.41,2.41,0,0,1,.481-1.444A3.182,3.182,0,0,1,37.417,9.23a4.961,4.961,0,0,1,1.976-.378,3.92,3.92,0,0,1,2.635.834A2.918,2.918,0,0,1,43,12.032v3.893a4.294,4.294,0,0,0,.357,1.934V18Zm-1.984-1.668a2.066,2.066,0,0,0,.979-.237,1.554,1.554,0,0,0,.664-.635V13.916h-.9q-1.8,0-1.917,1.245l-.008.141a.96.96,0,0,0,.315.739A1.225,1.225,0,0,0,38.953,16.332Zm5.52-2.889a5.413,5.413,0,0,1,.942-3.345,3.057,3.057,0,0,1,2.577-1.245,2.751,2.751,0,0,1,2.167.979V5.25h2.407V18H50.4l-.116-.955a2.823,2.823,0,0,1-2.308,1.121,3.049,3.049,0,0,1-2.544-1.249A5.587,5.587,0,0,1,44.473,13.443Zm2.4.179a3.546,3.546,0,0,0,.44,1.937,1.433,1.433,0,0,0,1.278.673,1.605,1.605,0,0,0,1.569-.939v-3.55a1.582,1.582,0,0,0-1.552-.939Q46.872,10.8,46.872,13.621ZM59.63,18a2.664,2.664,0,0,1-.241-.805,2.9,2.9,0,0,1-2.266.971,3.189,3.189,0,0,1-2.187-.764,2.456,2.456,0,0,1-.867-1.926,2.538,2.538,0,0,1,1.058-2.191,5.222,5.222,0,0,1,3.059-.772h1.1V12a1.48,1.48,0,0,0-.32-1,1.257,1.257,0,0,0-1.009-.374,1.429,1.429,0,0,0-.95.291.987.987,0,0,0-.344.8h-2.4a2.41,2.41,0,0,1,.481-1.444A3.182,3.182,0,0,1,56.111,9.23a4.961,4.961,0,0,1,1.976-.378,3.92,3.92,0,0,1,2.635.834,2.918,2.918,0,0,1,.975,2.345v3.893a4.294,4.294,0,0,0,.357,1.934V18Zm-1.984-1.668a2.066,2.066,0,0,0,.979-.237,1.554,1.554,0,0,0,.664-.635V13.916h-.9q-1.8,0-1.917,1.245l-.008.141a.96.96,0,0,0,.315.739A1.225,1.225,0,0,0,57.646,16.332ZM64.3,19.038H62.51L66.96,5.914h1.785ZM19.5,39.518a.773.773,0,0,0-.436-.693,4.95,4.95,0,0,0-1.4-.452q-3.2-.672-3.2-2.723a2.468,2.468,0,0,1,.992-2,4,4,0,0,1,2.594-.8,4.307,4.307,0,0,1,2.735.805,2.538,2.538,0,0,1,1.025,2.092h-2.4a1.161,1.161,0,0,0-.332-.851,1.405,1.405,0,0,0-1.038-.336,1.436,1.436,0,0,0-.938.274.865.865,0,0,0-.332.7.739.739,0,0,0,.378.643,3.885,3.885,0,0,0,1.274.423,10.407,10.407,0,0,1,1.511.4,2.482,2.482,0,0,1,1.9,2.416,2.343,2.343,0,0,1-1.054,1.988,4.548,4.548,0,0,1-2.723.76,4.75,4.75,0,0,1-2-.4,3.363,3.363,0,0,1-1.374-1.1,2.565,2.565,0,0,1-.5-1.515h2.274a1.252,1.252,0,0,0,.473.979,1.877,1.877,0,0,0,1.179.34,1.737,1.737,0,0,0,1.042-.261A.814.814,0,0,0,19.5,39.518ZM28.585,42a2.664,2.664,0,0,1-.241-.805,2.9,2.9,0,0,1-2.266.971,3.189,3.189,0,0,1-2.187-.764,2.456,2.456,0,0,1-.867-1.926,2.538,2.538,0,0,1,1.058-2.191,5.222,5.222,0,0,1,3.059-.772h1.1V36a1.48,1.48,0,0,0-.32-1,1.257,1.257,0,0,0-1.009-.374,1.429,1.429,0,0,0-.95.291.987.987,0,0,0-.344.8h-2.4a2.41,2.41,0,0,1,.481-1.444,3.182,3.182,0,0,1,1.361-1.042,4.961,4.961,0,0,1,1.976-.378,3.92,3.92,0,0,1,2.635.834,2.918,2.918,0,0,1,.975,2.345v3.893a4.294,4.294,0,0,0,.357,1.934V42ZM26.6,40.332a2.066,2.066,0,0,0,.979-.237,1.554,1.554,0,0,0,.664-.635V37.916h-.9q-1.8,0-1.917,1.245l-.008.141a.96.96,0,0,0,.315.739A1.225,1.225,0,0,0,26.6,40.332ZM35.027,42H32.619V29.25h2.407Zm4.507,0H37.127V33.019h2.407ZM36.986,30.694a1.181,1.181,0,0,1,.361-.888,1.556,1.556,0,0,1,1.963,0,1.268,1.268,0,0,1,0,1.785,1.539,1.539,0,0,1-1.951,0A1.178,1.178,0,0,1,36.986,30.694Zm4.15,6.749a5.413,5.413,0,0,1,.942-3.345,3.057,3.057,0,0,1,2.577-1.245,2.751,2.751,0,0,1,2.167.979V29.25h2.407V42H47.063l-.116-.955a2.823,2.823,0,0,1-2.308,1.121,3.049,3.049,0,0,1-2.544-1.249A5.587,5.587,0,0,1,41.136,37.443Zm2.4.179a3.546,3.546,0,0,0,.44,1.937,1.433,1.433,0,0,0,1.278.673,1.605,1.605,0,0,0,1.569-.939v-3.55A1.582,1.582,0,0,0,45.27,34.8Q43.535,34.8,43.535,37.621ZM56.293,42a2.664,2.664,0,0,1-.241-.805,2.9,2.9,0,0,1-2.266.971A3.189,3.189,0,0,1,51.6,41.4a2.456,2.456,0,0,1-.867-1.926,2.538,2.538,0,0,1,1.058-2.191,5.222,5.222,0,0,1,3.059-.772h1.1V36a1.48,1.48,0,0,0-.32-1,1.257,1.257,0,0,0-1.009-.374,1.429,1.429,0,0,0-.95.291.987.987,0,0,0-.344.8h-2.4a2.41,2.41,0,0,1,.481-1.444,3.182,3.182,0,0,1,1.361-1.042,4.961,4.961,0,0,1,1.976-.378,3.92,3.92,0,0,1,2.635.834,2.918,2.918,0,0,1,.975,2.345v3.893a4.294,4.294,0,0,0,.357,1.934V42Zm-1.984-1.668a2.066,2.066,0,0,0,.979-.237,1.554,1.554,0,0,0,.664-.635V37.916h-.9q-1.8,0-1.917,1.245l-.008.141a.96.96,0,0,0,.315.739A1.225,1.225,0,0,0,54.309,40.332Z" transform="translate(582 5479)" fill="#12263f"/>
        <path id="Trazado_1274311" data-name="Trazado 1274311" d="M4.583,18V5.914H8.3a5.647,5.647,0,0,1,2.851.718,5.007,5.007,0,0,1,1.963,2.042,6.3,6.3,0,0,1,.706,3.009v.556a6.316,6.316,0,0,1-.693,3,4.964,4.964,0,0,1-1.955,2.034A5.69,5.69,0,0,1,8.327,18ZM7.074,7.931V16h1.2a2.7,2.7,0,0,0,2.233-.955,4.314,4.314,0,0,0,.789-2.731v-.639a4.382,4.382,0,0,0-.764-2.793A2.7,2.7,0,0,0,8.3,7.931ZM19.608,18.166a4.409,4.409,0,0,1-3.217-1.212,4.308,4.308,0,0,1-1.241-3.229v-.232a5.426,5.426,0,0,1,.523-2.42,3.838,3.838,0,0,1,1.482-1.644,4.159,4.159,0,0,1,2.187-.577,3.727,3.727,0,0,1,2.9,1.162,4.722,4.722,0,0,1,1.058,3.3v.979H17.583a2.229,2.229,0,0,0,.7,1.411,2.12,2.12,0,0,0,1.482.531,2.589,2.589,0,0,0,2.167-1l1.179,1.32a3.6,3.6,0,0,1-1.461,1.191A4.793,4.793,0,0,1,19.608,18.166Zm-.274-7.379a1.5,1.5,0,0,0-1.158.484,2.5,2.5,0,0,0-.569,1.384h3.337v-.192a1.786,1.786,0,0,0-.432-1.238A1.547,1.547,0,0,0,19.334,10.787ZM28.4,16.232a1.573,1.573,0,0,0,1.079-.365,1.28,1.28,0,0,0,.432-.971h2.25a3.077,3.077,0,0,1-.5,1.673,3.286,3.286,0,0,1-1.341,1.179,4.2,4.2,0,0,1-1.88.419A3.9,3.9,0,0,1,25.4,16.942a4.845,4.845,0,0,1-1.112-3.383V13.4a4.79,4.79,0,0,1,1.1-3.312,3.854,3.854,0,0,1,3.03-1.237,3.778,3.778,0,0,1,2.7.959,3.4,3.4,0,0,1,1.033,2.552h-2.25a1.648,1.648,0,0,0-.432-1.139,1.6,1.6,0,0,0-2.362.173,3.541,3.541,0,0,0-.427,1.983v.249a3.586,3.586,0,0,0,.423,2A1.463,1.463,0,0,0,28.4,16.232ZM36.06,18H33.653V9.019H36.06ZM33.512,6.694a1.181,1.181,0,0,1,.361-.888,1.556,1.556,0,0,1,1.963,0,1.175,1.175,0,0,1,.365.888,1.178,1.178,0,0,1-.369.9,1.539,1.539,0,0,1-1.951,0A1.178,1.178,0,0,1,33.512,6.694ZM42.9,15.518a.773.773,0,0,0-.436-.693,4.95,4.95,0,0,0-1.4-.452q-3.2-.672-3.2-2.723a2.468,2.468,0,0,1,.992-2,4,4,0,0,1,2.594-.8,4.307,4.307,0,0,1,2.735.805,2.538,2.538,0,0,1,1.025,2.092h-2.4a1.161,1.161,0,0,0-.332-.851,1.405,1.405,0,0,0-1.038-.336,1.436,1.436,0,0,0-.938.274.865.865,0,0,0-.332.7.739.739,0,0,0,.378.643,3.885,3.885,0,0,0,1.274.423,10.407,10.407,0,0,1,1.511.4,2.482,2.482,0,0,1,1.9,2.416,2.343,2.343,0,0,1-1.054,1.988,4.548,4.548,0,0,1-2.723.76,4.75,4.75,0,0,1-2-.4,3.363,3.363,0,0,1-1.374-1.1,2.565,2.565,0,0,1-.5-1.515h2.274a1.252,1.252,0,0,0,.473.979,1.877,1.877,0,0,0,1.179.34,1.737,1.737,0,0,0,1.042-.261A.814.814,0,0,0,42.9,15.518ZM49.308,18H46.9V9.019h2.407ZM46.76,6.694a1.181,1.181,0,0,1,.361-.888,1.556,1.556,0,0,1,1.963,0,1.175,1.175,0,0,1,.365.888,1.178,1.178,0,0,1-.369.9,1.539,1.539,0,0,1-1.951,0A1.178,1.178,0,0,1,46.76,6.694Zm4.15,6.732a5.327,5.327,0,0,1,.515-2.382,3.767,3.767,0,0,1,1.482-1.619,4.323,4.323,0,0,1,2.245-.573,4.09,4.09,0,0,1,2.968,1.112A4.464,4.464,0,0,1,59.4,12.986l.017.614a4.694,4.694,0,0,1-1.154,3.316,4.472,4.472,0,0,1-6.2,0,4.777,4.777,0,0,1-1.158-3.387Zm2.4.17a3.357,3.357,0,0,0,.481,1.958,1.73,1.73,0,0,0,2.739.008,3.674,3.674,0,0,0,.49-2.141,3.324,3.324,0,0,0-.49-1.945,1.592,1.592,0,0,0-1.378-.69,1.566,1.566,0,0,0-1.361.686A3.735,3.735,0,0,0,53.309,13.6ZM55.625,5.25H58.24l-2.3,2.573H53.99ZM63.1,9.019l.075,1.038a3.136,3.136,0,0,1,2.582-1.2,2.606,2.606,0,0,1,2.125.838A3.912,3.912,0,0,1,68.6,12.2V18H66.2V12.256a1.556,1.556,0,0,0-.332-1.108,1.486,1.486,0,0,0-1.1-.344,1.65,1.65,0,0,0-1.519.863V18h-2.4V9.019Z" transform="translate(582 5605.043)" fill="#12263f"/>
        <path id="Trazado_1274312" data-name="Trazado 1274312" d="M7.725,16h5.288v2H5.235V5.914h2.49Zm9.147,2h-2.4V9.019h2.4ZM16.167,5.375h2.615l-2.3,2.573H14.532Zm4.98,3.644.075,1.038a3.136,3.136,0,0,1,2.582-1.2,2.606,2.606,0,0,1,2.125.838,3.912,3.912,0,0,1,.714,2.507V18h-2.4V12.256a1.556,1.556,0,0,0-.332-1.108,1.486,1.486,0,0,0-1.1-.344,1.65,1.65,0,0,0-1.519.863V18h-2.4V9.019Zm11.447,9.147a4.409,4.409,0,0,1-3.217-1.212,4.308,4.308,0,0,1-1.241-3.229v-.232a5.426,5.426,0,0,1,.523-2.42,3.838,3.838,0,0,1,1.482-1.644,4.159,4.159,0,0,1,2.187-.577,3.727,3.727,0,0,1,2.9,1.162,4.722,4.722,0,0,1,1.058,3.3v.979H30.569a2.229,2.229,0,0,0,.7,1.411,2.12,2.12,0,0,0,1.482.531,2.589,2.589,0,0,0,2.167-1l1.179,1.32a3.6,3.6,0,0,1-1.461,1.191A4.793,4.793,0,0,1,32.594,18.166Zm-.274-7.379a1.5,1.5,0,0,0-1.158.484,2.5,2.5,0,0,0-.569,1.384h3.337v-.192a1.786,1.786,0,0,0-.432-1.238A1.547,1.547,0,0,0,32.321,10.787ZM42.854,18a2.664,2.664,0,0,1-.241-.805,2.9,2.9,0,0,1-2.266.971A3.189,3.189,0,0,1,38.16,17.4a2.456,2.456,0,0,1-.867-1.926,2.538,2.538,0,0,1,1.058-2.191,5.222,5.222,0,0,1,3.059-.772h1.1V12a1.48,1.48,0,0,0-.32-1,1.257,1.257,0,0,0-1.009-.374,1.429,1.429,0,0,0-.95.291.987.987,0,0,0-.344.8h-2.4a2.41,2.41,0,0,1,.481-1.444A3.182,3.182,0,0,1,39.335,9.23a4.961,4.961,0,0,1,1.976-.378,3.92,3.92,0,0,1,2.635.834,2.918,2.918,0,0,1,.975,2.345v3.893a4.294,4.294,0,0,0,.357,1.934V18ZM40.87,16.332a2.066,2.066,0,0,0,.979-.237,1.554,1.554,0,0,0,.664-.635V13.916h-.9q-1.8,0-1.917,1.245l-.008.141a.96.96,0,0,0,.315.739A1.225,1.225,0,0,0,40.87,16.332Zm9.753-2.889a5.413,5.413,0,0,1,.942-3.345,3.057,3.057,0,0,1,2.577-1.245,2.751,2.751,0,0,1,2.167.979V5.25h2.407V18H56.551l-.116-.955a2.823,2.823,0,0,1-2.308,1.121,3.049,3.049,0,0,1-2.544-1.249A5.587,5.587,0,0,1,50.624,13.443Zm2.4.179a3.546,3.546,0,0,0,.44,1.937,1.433,1.433,0,0,0,1.278.673,1.605,1.605,0,0,0,1.569-.939v-3.55a1.582,1.582,0,0,0-1.552-.939Q53.023,10.8,53.023,13.621ZM64.71,18.166a4.409,4.409,0,0,1-3.217-1.212,4.308,4.308,0,0,1-1.241-3.229v-.232a5.426,5.426,0,0,1,.523-2.42,3.838,3.838,0,0,1,1.482-1.644,4.159,4.159,0,0,1,2.187-.577,3.727,3.727,0,0,1,2.9,1.162,4.722,4.722,0,0,1,1.058,3.3v.979H62.685a2.229,2.229,0,0,0,.7,1.411,2.12,2.12,0,0,0,1.482.531,2.589,2.589,0,0,0,2.167-1l1.179,1.32a3.6,3.6,0,0,1-1.461,1.191A4.793,4.793,0,0,1,64.71,18.166Zm-.274-7.379a1.5,1.5,0,0,0-1.158.484,2.5,2.5,0,0,0-.569,1.384h3.337v-.192a1.786,1.786,0,0,0-.432-1.238A1.547,1.547,0,0,0,64.436,10.787ZM26.46,31.109a11.546,11.546,0,0,0-1.328-.083q-1.627,0-1.627,1.386v.606H25.29v1.76H23.505V42H21.1V34.778H19.761v-1.76H21.1v-.7a3.069,3.069,0,0,1,.979-2.4,4,4,0,0,1,2.723-.843q1.253,0,4.067.266V42H26.46Zm9.778,9.978a3.008,3.008,0,0,1-2.457,1.079,2.837,2.837,0,0,1-2.2-.83A3.543,3.543,0,0,1,30.8,38.9V33.019h2.4v5.809q0,1.4,1.278,1.4a1.732,1.732,0,0,0,1.677-.848V33.019h2.407V42H36.3Zm6.674-8.068V42.49a3.213,3.213,0,0,1-.789,2.312,3,3,0,0,1-2.274.826,4.878,4.878,0,0,1-1.187-.141v-1.9a4.5,4.5,0,0,0,.755.075q1.087,0,1.087-1.154V33.019Zm-2.6-2.324a1.181,1.181,0,0,1,.361-.888,1.562,1.562,0,0,1,1.967,0,1.273,1.273,0,0,1-.008,1.785,1.539,1.539,0,0,1-1.951,0A1.178,1.178,0,0,1,40.314,30.694Zm4.1,6.732a5.327,5.327,0,0,1,.515-2.382,3.767,3.767,0,0,1,1.482-1.619,4.323,4.323,0,0,1,2.245-.573,4.09,4.09,0,0,1,2.968,1.112,4.464,4.464,0,0,1,1.282,3.021l.017.614a4.694,4.694,0,0,1-1.154,3.316,4.472,4.472,0,0,1-6.2,0,4.777,4.777,0,0,1-1.158-3.387Zm2.4.17a3.357,3.357,0,0,0,.481,1.958,1.73,1.73,0,0,0,2.739.008,3.674,3.674,0,0,0,.49-2.141,3.324,3.324,0,0,0-.49-1.945,1.592,1.592,0,0,0-1.378-.69,1.566,1.566,0,0,0-1.361.686A3.735,3.735,0,0,0,46.814,37.6Z" transform="translate(582 5688.782)" fill="#12263f"/>
        <path id="Trazado_1274313" data-name="Trazado 1274313" d="M11.293,13.974a4.277,4.277,0,0,1-1.44,3.071,5.058,5.058,0,0,1-3.424,1.121A4.548,4.548,0,0,1,2.772,16.6a6.416,6.416,0,0,1-1.332-4.3v-.739A7.245,7.245,0,0,1,2.054,8.5,4.6,4.6,0,0,1,3.81,6.458a4.918,4.918,0,0,1,2.652-.71,4.927,4.927,0,0,1,3.37,1.121,4.6,4.6,0,0,1,1.478,3.146H8.819a2.524,2.524,0,0,0-.652-1.7A2.413,2.413,0,0,0,6.462,7.79,2.116,2.116,0,0,0,4.6,8.682a5,5,0,0,0-.635,2.768v.913a5.352,5.352,0,0,0,.594,2.864,2.077,2.077,0,0,0,1.872.9,2.458,2.458,0,0,0,1.722-.527A2.381,2.381,0,0,0,8.8,13.974Zm1.1-.548a5.327,5.327,0,0,1,.515-2.382,3.768,3.768,0,0,1,1.482-1.619,4.323,4.323,0,0,1,2.245-.573,4.09,4.09,0,0,1,2.968,1.112,4.464,4.464,0,0,1,1.282,3.021l.017.614a4.694,4.694,0,0,1-1.154,3.316,4.011,4.011,0,0,1-3.1,1.249,4.031,4.031,0,0,1-3.1-1.245A4.777,4.777,0,0,1,12.4,13.534Zm2.4.17a3.357,3.357,0,0,0,.481,1.958,1.73,1.73,0,0,0,2.739.008,3.674,3.674,0,0,0,.49-2.141,3.324,3.324,0,0,0-.49-1.945,1.592,1.592,0,0,0-1.378-.69,1.566,1.566,0,0,0-1.361.686A3.735,3.735,0,0,0,14.8,13.6Zm9.795-4.578.075,1.038a3.136,3.136,0,0,1,2.582-1.2,2.606,2.606,0,0,1,2.125.838,3.912,3.912,0,0,1,.714,2.507V18h-2.4V12.256a1.556,1.556,0,0,0-.332-1.108,1.486,1.486,0,0,0-1.1-.344,1.65,1.65,0,0,0-1.519.863V18h-2.4V9.019Zm11.447,9.147a4.409,4.409,0,0,1-3.217-1.212,4.308,4.308,0,0,1-1.241-3.229v-.232a5.426,5.426,0,0,1,.523-2.42,3.838,3.838,0,0,1,1.482-1.644,4.159,4.159,0,0,1,2.187-.577,3.727,3.727,0,0,1,2.9,1.162,4.722,4.722,0,0,1,1.058,3.3v.979H34.012a2.229,2.229,0,0,0,.7,1.411,2.12,2.12,0,0,0,1.482.531,2.589,2.589,0,0,0,2.167-1l1.179,1.32a3.6,3.6,0,0,1-1.461,1.191A4.793,4.793,0,0,1,36.037,18.166Zm-.274-7.379a1.5,1.5,0,0,0-1.158.484,2.5,2.5,0,0,0-.569,1.384h3.337v-.192a1.786,1.786,0,0,0-.432-1.238A1.547,1.547,0,0,0,35.763,10.787Zm9.064,5.445a1.573,1.573,0,0,0,1.079-.365,1.28,1.28,0,0,0,.432-.971h2.25a3.077,3.077,0,0,1-.5,1.673,3.286,3.286,0,0,1-1.341,1.179,4.2,4.2,0,0,1-1.88.419,3.9,3.9,0,0,1-3.038-1.224,4.845,4.845,0,0,1-1.112-3.383V13.4a4.79,4.79,0,0,1,1.1-3.312,3.854,3.854,0,0,1,3.03-1.237,3.778,3.778,0,0,1,2.7.959,3.4,3.4,0,0,1,1.033,2.552h-2.25a1.648,1.648,0,0,0-.432-1.139,1.6,1.6,0,0,0-2.362.173,3.541,3.541,0,0,0-.427,1.983v.249a3.586,3.586,0,0,0,.423,2A1.463,1.463,0,0,0,44.828,16.232Zm8-9.421V9.019h1.536v1.76H52.83v4.482a1.07,1.07,0,0,0,.191.714.959.959,0,0,0,.73.216,3.826,3.826,0,0,0,.706-.058V17.95A4.939,4.939,0,0,1,53,18.166a2.29,2.29,0,0,1-2.573-2.548V10.778H49.119V9.019h1.312V6.811Zm2.25,6.616a5.327,5.327,0,0,1,.515-2.382,3.767,3.767,0,0,1,1.482-1.619,4.323,4.323,0,0,1,2.245-.573,4.09,4.09,0,0,1,2.968,1.112,4.464,4.464,0,0,1,1.282,3.021l.017.614a4.694,4.694,0,0,1-1.154,3.316,4.472,4.472,0,0,1-6.2,0,4.777,4.777,0,0,1-1.158-3.387Zm2.4.17a3.357,3.357,0,0,0,.481,1.958,1.73,1.73,0,0,0,2.739.008,3.674,3.674,0,0,0,.49-2.141,3.324,3.324,0,0,0-.49-1.945,1.592,1.592,0,0,0-1.378-.69,1.566,1.566,0,0,0-1.361.686A3.735,3.735,0,0,0,57.478,13.6Zm12.634-2.328a6.517,6.517,0,0,0-.863-.066,1.757,1.757,0,0,0-1.785.921V18h-2.4V9.019h2.266l.066,1.071a2.223,2.223,0,0,1,2-1.237,2.514,2.514,0,0,1,.747.108Zm5.288,6.9a4.409,4.409,0,0,1-3.217-1.212,4.308,4.308,0,0,1-1.241-3.229v-.232a5.426,5.426,0,0,1,.523-2.42,3.838,3.838,0,0,1,1.482-1.644,4.159,4.159,0,0,1,2.187-.577,3.727,3.727,0,0,1,2.9,1.162,4.722,4.722,0,0,1,1.058,3.3v.979H73.374a2.229,2.229,0,0,0,.7,1.411,2.12,2.12,0,0,0,1.482.531,2.589,2.589,0,0,0,2.167-1l1.179,1.32a3.6,3.6,0,0,1-1.461,1.191A4.793,4.793,0,0,1,75.4,18.166Zm-.274-7.379a1.5,1.5,0,0,0-1.158.484,2.5,2.5,0,0,0-.569,1.384h3.337v-.192a1.786,1.786,0,0,0-.432-1.238A1.547,1.547,0,0,0,75.126,10.787Zm10.193,4.731a.773.773,0,0,0-.436-.693,4.95,4.95,0,0,0-1.4-.452q-3.2-.672-3.2-2.723a2.468,2.468,0,0,1,.992-2,4,4,0,0,1,2.594-.8,4.307,4.307,0,0,1,2.735.805,2.538,2.538,0,0,1,1.025,2.092h-2.4A1.161,1.161,0,0,0,84.9,10.9a1.405,1.405,0,0,0-1.038-.336,1.436,1.436,0,0,0-.938.274.865.865,0,0,0-.332.7.739.739,0,0,0,.378.643,3.885,3.885,0,0,0,1.274.423,10.407,10.407,0,0,1,1.511.4,2.482,2.482,0,0,1,1.9,2.416A2.343,2.343,0,0,1,86.6,17.406a4.548,4.548,0,0,1-2.723.76,4.75,4.75,0,0,1-2-.4,3.363,3.363,0,0,1-1.374-1.1,2.565,2.565,0,0,1-.5-1.515h2.274a1.252,1.252,0,0,0,.473.979,1.877,1.877,0,0,0,1.179.34,1.737,1.737,0,0,0,1.042-.261A.814.814,0,0,0,85.319,15.518Z" transform="translate(582 5795.261)" fill="#12263f"/>
        <path id="Trazado_1274314" data-name="Trazado 1274314" d="M11.293,13.974a4.277,4.277,0,0,1-1.44,3.071,5.058,5.058,0,0,1-3.424,1.121A4.548,4.548,0,0,1,2.772,16.6a6.416,6.416,0,0,1-1.332-4.3v-.739A7.245,7.245,0,0,1,2.054,8.5,4.6,4.6,0,0,1,3.81,6.458a4.918,4.918,0,0,1,2.652-.71,4.927,4.927,0,0,1,3.37,1.121,4.6,4.6,0,0,1,1.478,3.146H8.819a2.524,2.524,0,0,0-.652-1.7A2.413,2.413,0,0,0,6.462,7.79,2.116,2.116,0,0,0,4.6,8.682a5,5,0,0,0-.635,2.768v.913a5.352,5.352,0,0,0,.594,2.864,2.077,2.077,0,0,0,1.872.9,2.458,2.458,0,0,0,1.722-.527A2.381,2.381,0,0,0,8.8,13.974Zm1.1-.548a5.327,5.327,0,0,1,.515-2.382,3.768,3.768,0,0,1,1.482-1.619,4.323,4.323,0,0,1,2.245-.573,4.09,4.09,0,0,1,2.968,1.112,4.464,4.464,0,0,1,1.282,3.021l.017.614a4.694,4.694,0,0,1-1.154,3.316,4.011,4.011,0,0,1-3.1,1.249,4.031,4.031,0,0,1-3.1-1.245A4.777,4.777,0,0,1,12.4,13.534Zm2.4.17a3.357,3.357,0,0,0,.481,1.958,1.73,1.73,0,0,0,2.739.008,3.674,3.674,0,0,0,.49-2.141,3.324,3.324,0,0,0-.49-1.945,1.592,1.592,0,0,0-1.378-.69,1.566,1.566,0,0,0-1.361.686A3.735,3.735,0,0,0,14.8,13.6Zm9.795-4.578.075,1.038a3.136,3.136,0,0,1,2.582-1.2,2.606,2.606,0,0,1,2.125.838,3.912,3.912,0,0,1,.714,2.507V18h-2.4V12.256a1.556,1.556,0,0,0-.332-1.108,1.486,1.486,0,0,0-1.1-.344,1.65,1.65,0,0,0-1.519.863V18h-2.4V9.019Zm11.447,9.147a4.409,4.409,0,0,1-3.217-1.212,4.308,4.308,0,0,1-1.241-3.229v-.232a5.426,5.426,0,0,1,.523-2.42,3.838,3.838,0,0,1,1.482-1.644,4.159,4.159,0,0,1,2.187-.577,3.727,3.727,0,0,1,2.9,1.162,4.722,4.722,0,0,1,1.058,3.3v.979H34.012a2.229,2.229,0,0,0,.7,1.411,2.12,2.12,0,0,0,1.482.531,2.589,2.589,0,0,0,2.167-1l1.179,1.32a3.6,3.6,0,0,1-1.461,1.191A4.793,4.793,0,0,1,36.037,18.166Zm-.274-7.379a1.5,1.5,0,0,0-1.158.484,2.5,2.5,0,0,0-.569,1.384h3.337v-.192a1.786,1.786,0,0,0-.432-1.238A1.547,1.547,0,0,0,35.763,10.787Zm9.064,5.445a1.573,1.573,0,0,0,1.079-.365,1.28,1.28,0,0,0,.432-.971h2.25a3.077,3.077,0,0,1-.5,1.673,3.286,3.286,0,0,1-1.341,1.179,4.2,4.2,0,0,1-1.88.419,3.9,3.9,0,0,1-3.038-1.224,4.845,4.845,0,0,1-1.112-3.383V13.4a4.79,4.79,0,0,1,1.1-3.312,3.854,3.854,0,0,1,3.03-1.237,3.778,3.778,0,0,1,2.7.959,3.4,3.4,0,0,1,1.033,2.552h-2.25a1.648,1.648,0,0,0-.432-1.139,1.6,1.6,0,0,0-2.362.173,3.541,3.541,0,0,0-.427,1.983v.249a3.586,3.586,0,0,0,.423,2A1.463,1.463,0,0,0,44.828,16.232Zm8-9.421V9.019h1.536v1.76H52.83v4.482a1.07,1.07,0,0,0,.191.714.959.959,0,0,0,.73.216,3.826,3.826,0,0,0,.706-.058V17.95A4.939,4.939,0,0,1,53,18.166a2.29,2.29,0,0,1-2.573-2.548V10.778H49.119V9.019h1.312V6.811Zm2.25,6.616a5.327,5.327,0,0,1,.515-2.382,3.767,3.767,0,0,1,1.482-1.619,4.323,4.323,0,0,1,2.245-.573,4.09,4.09,0,0,1,2.968,1.112,4.464,4.464,0,0,1,1.282,3.021l.017.614a4.694,4.694,0,0,1-1.154,3.316,4.472,4.472,0,0,1-6.2,0,4.777,4.777,0,0,1-1.158-3.387Zm2.4.17a3.357,3.357,0,0,0,.481,1.958,1.73,1.73,0,0,0,2.739.008,3.674,3.674,0,0,0,.49-2.141,3.324,3.324,0,0,0-.49-1.945,1.592,1.592,0,0,0-1.378-.69,1.566,1.566,0,0,0-1.361.686A3.735,3.735,0,0,0,57.478,13.6Zm12.634-2.328a6.517,6.517,0,0,0-.863-.066,1.757,1.757,0,0,0-1.785.921V18h-2.4V9.019h2.266l.066,1.071a2.223,2.223,0,0,1,2-1.237,2.514,2.514,0,0,1,.747.108Zm5.288,6.9a4.409,4.409,0,0,1-3.217-1.212,4.308,4.308,0,0,1-1.241-3.229v-.232a5.426,5.426,0,0,1,.523-2.42,3.838,3.838,0,0,1,1.482-1.644,4.159,4.159,0,0,1,2.187-.577,3.727,3.727,0,0,1,2.9,1.162,4.722,4.722,0,0,1,1.058,3.3v.979H73.374a2.229,2.229,0,0,0,.7,1.411,2.12,2.12,0,0,0,1.482.531,2.589,2.589,0,0,0,2.167-1l1.179,1.32a3.6,3.6,0,0,1-1.461,1.191A4.793,4.793,0,0,1,75.4,18.166Zm-.274-7.379a1.5,1.5,0,0,0-1.158.484,2.5,2.5,0,0,0-.569,1.384h3.337v-.192a1.786,1.786,0,0,0-.432-1.238A1.547,1.547,0,0,0,75.126,10.787Zm10.193,4.731a.773.773,0,0,0-.436-.693,4.95,4.95,0,0,0-1.4-.452q-3.2-.672-3.2-2.723a2.468,2.468,0,0,1,.992-2,4,4,0,0,1,2.594-.8,4.307,4.307,0,0,1,2.735.805,2.538,2.538,0,0,1,1.025,2.092h-2.4A1.161,1.161,0,0,0,84.9,10.9a1.405,1.405,0,0,0-1.038-.336,1.436,1.436,0,0,0-.938.274.865.865,0,0,0-.332.7.739.739,0,0,0,.378.643,3.885,3.885,0,0,0,1.274.423,10.407,10.407,0,0,1,1.511.4,2.482,2.482,0,0,1,1.9,2.416A2.343,2.343,0,0,1,86.6,17.406a4.548,4.548,0,0,1-2.723.76,4.75,4.75,0,0,1-2-.4,3.363,3.363,0,0,1-1.374-1.1,2.565,2.565,0,0,1-.5-1.515h2.274a1.252,1.252,0,0,0,.473.979,1.877,1.877,0,0,0,1.179.34,1.737,1.737,0,0,0,1.042-.261A.814.814,0,0,0,85.319,15.518Z" transform="translate(582 5883.261)" fill="#12263f"/>
        <path id="Trazado_1274315" data-name="Trazado 1274315" d="M21.126,13.742V18h-2.49V5.914h4.715a5.455,5.455,0,0,1,2.395.5,3.67,3.67,0,0,1,1.59,1.415,3.946,3.946,0,0,1,.556,2.088,3.47,3.47,0,0,1-1.216,2.8,5.065,5.065,0,0,1-3.366,1.025Zm0-2.017h2.225a2.187,2.187,0,0,0,1.507-.465,1.691,1.691,0,0,0,.519-1.328A1.994,1.994,0,0,0,24.853,8.5a1.953,1.953,0,0,0-1.444-.564H21.126Zm13.364-.457a6.517,6.517,0,0,0-.863-.066,1.757,1.757,0,0,0-1.785.921V18h-2.4V9.019h2.266l.066,1.071a2.223,2.223,0,0,1,2-1.237,2.514,2.514,0,0,1,.747.108Zm.481,2.158a5.327,5.327,0,0,1,.515-2.382,3.767,3.767,0,0,1,1.482-1.619,4.323,4.323,0,0,1,2.245-.573,4.09,4.09,0,0,1,2.968,1.112,4.464,4.464,0,0,1,1.282,3.021l.017.614a4.694,4.694,0,0,1-1.154,3.316,4.472,4.472,0,0,1-6.2,0,4.777,4.777,0,0,1-1.158-3.387Zm2.4.17a3.357,3.357,0,0,0,.481,1.958,1.73,1.73,0,0,0,2.739.008,3.674,3.674,0,0,0,.49-2.141,3.324,3.324,0,0,0-.49-1.945,1.592,1.592,0,0,0-1.378-.69,1.566,1.566,0,0,0-1.361.686A3.735,3.735,0,0,0,37.371,13.6Zm11.322,2.635a1.573,1.573,0,0,0,1.079-.365A1.28,1.28,0,0,0,50.2,14.9h2.25a3.077,3.077,0,0,1-.5,1.673,3.286,3.286,0,0,1-1.341,1.179,4.2,4.2,0,0,1-1.88.419A3.9,3.9,0,0,1,45.7,16.942a4.845,4.845,0,0,1-1.112-3.383V13.4a4.79,4.79,0,0,1,1.1-3.312,3.854,3.854,0,0,1,3.03-1.237,3.778,3.778,0,0,1,2.7.959,3.4,3.4,0,0,1,1.033,2.552H50.2a1.648,1.648,0,0,0-.432-1.139,1.6,1.6,0,0,0-2.362.173,3.541,3.541,0,0,0-.427,1.983v.249a3.586,3.586,0,0,0,.423,2A1.463,1.463,0,0,0,48.693,16.232Zm9.264,1.934a4.409,4.409,0,0,1-3.217-1.212A4.308,4.308,0,0,1,53.5,13.725v-.232a5.426,5.426,0,0,1,.523-2.42A3.838,3.838,0,0,1,55.5,9.429a4.159,4.159,0,0,1,2.187-.577,3.727,3.727,0,0,1,2.9,1.162,4.722,4.722,0,0,1,1.058,3.3v.979H55.931a2.229,2.229,0,0,0,.7,1.411,2.12,2.12,0,0,0,1.482.531,2.589,2.589,0,0,0,2.167-1l1.179,1.32A3.6,3.6,0,0,1,60,17.739,4.793,4.793,0,0,1,57.957,18.166Zm-.274-7.379a1.5,1.5,0,0,0-1.158.484,2.5,2.5,0,0,0-.569,1.384h3.337v-.192a1.786,1.786,0,0,0-.432-1.238A1.547,1.547,0,0,0,57.683,10.787Zm10.193,4.731a.773.773,0,0,0-.436-.693,4.95,4.95,0,0,0-1.4-.452q-3.2-.672-3.2-2.723a2.468,2.468,0,0,1,.992-2,4,4,0,0,1,2.594-.8,4.307,4.307,0,0,1,2.735.805,2.538,2.538,0,0,1,1.025,2.092h-2.4a1.161,1.161,0,0,0-.332-.851,1.405,1.405,0,0,0-1.038-.336,1.436,1.436,0,0,0-.938.274.865.865,0,0,0-.332.7.739.739,0,0,0,.378.643A3.885,3.885,0,0,0,66.8,12.6a10.407,10.407,0,0,1,1.511.4,2.482,2.482,0,0,1,1.9,2.416,2.343,2.343,0,0,1-1.054,1.988,4.548,4.548,0,0,1-2.723.76,4.75,4.75,0,0,1-2-.4,3.363,3.363,0,0,1-1.374-1.1,2.565,2.565,0,0,1-.5-1.515H64.83a1.252,1.252,0,0,0,.473.979,1.877,1.877,0,0,0,1.179.34,1.737,1.737,0,0,0,1.042-.261A.814.814,0,0,0,67.876,15.518Zm3.5-2.092a5.326,5.326,0,0,1,.515-2.382,3.768,3.768,0,0,1,1.482-1.619,4.323,4.323,0,0,1,2.245-.573,4.09,4.09,0,0,1,2.968,1.112,4.464,4.464,0,0,1,1.282,3.021l.017.614a4.694,4.694,0,0,1-1.154,3.316,4.472,4.472,0,0,1-6.2,0,4.777,4.777,0,0,1-1.158-3.387Zm2.4.17a3.357,3.357,0,0,0,.481,1.958A1.73,1.73,0,0,0,77,15.563a3.674,3.674,0,0,0,.49-2.141A3.324,3.324,0,0,0,77,11.477a1.592,1.592,0,0,0-1.378-.69,1.566,1.566,0,0,0-1.361.686A3.736,3.736,0,0,0,73.778,13.6Z" transform="translate(371 5418)" fill="#12263f"/>
        <path id="Trazado_1274316" data-name="Trazado 1274316" d="M17.258,13.974a4.277,4.277,0,0,1-1.44,3.071,5.058,5.058,0,0,1-3.424,1.121A4.548,4.548,0,0,1,8.737,16.6a6.416,6.416,0,0,1-1.332-4.3v-.739A7.245,7.245,0,0,1,8.019,8.5,4.6,4.6,0,0,1,9.774,6.458a4.918,4.918,0,0,1,2.652-.71A4.927,4.927,0,0,1,15.8,6.869a4.6,4.6,0,0,1,1.478,3.146h-2.49a2.524,2.524,0,0,0-.652-1.7,2.413,2.413,0,0,0-1.706-.527,2.116,2.116,0,0,0-1.864.892,5,5,0,0,0-.635,2.768v.913a5.352,5.352,0,0,0,.594,2.864,2.077,2.077,0,0,0,1.872.9,2.458,2.458,0,0,0,1.722-.527,2.381,2.381,0,0,0,.652-1.631Zm1.1-.548a5.327,5.327,0,0,1,.515-2.382,3.768,3.768,0,0,1,1.482-1.619A4.323,4.323,0,0,1,22.6,8.853a4.09,4.09,0,0,1,2.968,1.112,4.464,4.464,0,0,1,1.282,3.021l.017.614a4.694,4.694,0,0,1-1.154,3.316,4.011,4.011,0,0,1-3.1,1.249,4.031,4.031,0,0,1-3.1-1.245,4.777,4.777,0,0,1-1.158-3.387Zm2.4.17a3.357,3.357,0,0,0,.481,1.958,1.73,1.73,0,0,0,2.739.008,3.674,3.674,0,0,0,.49-2.141,3.324,3.324,0,0,0-.49-1.945,1.592,1.592,0,0,0-1.378-.69,1.566,1.566,0,0,0-1.361.686A3.735,3.735,0,0,0,20.76,13.6Zm9.795-4.578.075,1.038a3.136,3.136,0,0,1,2.582-1.2,2.606,2.606,0,0,1,2.125.838,3.912,3.912,0,0,1,.714,2.507V18h-2.4V12.256a1.556,1.556,0,0,0-.332-1.108,1.486,1.486,0,0,0-1.1-.344,1.65,1.65,0,0,0-1.519.863V18H28.3V9.019ZM42,18.166a4.409,4.409,0,0,1-3.217-1.212,4.308,4.308,0,0,1-1.241-3.229v-.232a5.426,5.426,0,0,1,.523-2.42,3.838,3.838,0,0,1,1.482-1.644,4.159,4.159,0,0,1,2.187-.577,3.727,3.727,0,0,1,2.9,1.162,4.722,4.722,0,0,1,1.058,3.3v.979H39.977a2.229,2.229,0,0,0,.7,1.411,2.12,2.12,0,0,0,1.482.531,2.589,2.589,0,0,0,2.167-1l1.179,1.32a3.6,3.6,0,0,1-1.461,1.191A4.793,4.793,0,0,1,42,18.166Zm-.274-7.379a1.5,1.5,0,0,0-1.158.484A2.5,2.5,0,0,0,40,12.654h3.337v-.192a1.786,1.786,0,0,0-.432-1.238A1.547,1.547,0,0,0,41.728,10.787Zm9.064,5.445a1.573,1.573,0,0,0,1.079-.365A1.28,1.28,0,0,0,52.3,14.9h2.25a3.077,3.077,0,0,1-.5,1.673,3.286,3.286,0,0,1-1.341,1.179,4.2,4.2,0,0,1-1.88.419A3.9,3.9,0,0,1,47.8,16.942a4.845,4.845,0,0,1-1.112-3.383V13.4a4.79,4.79,0,0,1,1.1-3.312,3.854,3.854,0,0,1,3.03-1.237,3.778,3.778,0,0,1,2.7.959,3.4,3.4,0,0,1,1.033,2.552H52.3a1.648,1.648,0,0,0-.432-1.139,1.6,1.6,0,0,0-2.362.173,3.541,3.541,0,0,0-.427,1.983v.249a3.586,3.586,0,0,0,.423,2A1.463,1.463,0,0,0,50.793,16.232Zm8-9.421V9.019H60.33v1.76H58.795v4.482a1.07,1.07,0,0,0,.191.714.959.959,0,0,0,.73.216,3.826,3.826,0,0,0,.706-.058V17.95a4.939,4.939,0,0,1-1.453.216A2.29,2.29,0,0,1,56.4,15.618V10.778H55.084V9.019H56.4V6.811Zm2.25,6.616a5.327,5.327,0,0,1,.515-2.382,3.767,3.767,0,0,1,1.482-1.619,4.323,4.323,0,0,1,2.245-.573,4.09,4.09,0,0,1,2.968,1.112,4.464,4.464,0,0,1,1.282,3.021l.017.614A4.694,4.694,0,0,1,68.4,16.917a4.472,4.472,0,0,1-6.2,0,4.777,4.777,0,0,1-1.158-3.387Zm2.4.17a3.357,3.357,0,0,0,.481,1.958,1.73,1.73,0,0,0,2.739.008,3.674,3.674,0,0,0,.49-2.141,3.324,3.324,0,0,0-.49-1.945,1.592,1.592,0,0,0-1.378-.69,1.566,1.566,0,0,0-1.361.686A3.735,3.735,0,0,0,63.443,13.6Zm12.634-2.328a6.517,6.517,0,0,0-.863-.066,1.757,1.757,0,0,0-1.785.921V18h-2.4V9.019H73.3l.066,1.071a2.223,2.223,0,0,1,2-1.237,2.514,2.514,0,0,1,.747.108ZM43.683,39.51H39.317L38.487,42H35.839l4.5-12.086h2.308L47.169,42H44.521Zm-3.694-2.017h3.021l-1.519-4.524Z" transform="translate(454 5872)" fill="#fff"/>
        <path id="Trazado_1274317" data-name="Trazado 1274317" d="M17.258,13.974a4.277,4.277,0,0,1-1.44,3.071,5.058,5.058,0,0,1-3.424,1.121A4.548,4.548,0,0,1,8.737,16.6a6.416,6.416,0,0,1-1.332-4.3v-.739A7.245,7.245,0,0,1,8.019,8.5,4.6,4.6,0,0,1,9.774,6.458a4.918,4.918,0,0,1,2.652-.71A4.927,4.927,0,0,1,15.8,6.869a4.6,4.6,0,0,1,1.478,3.146h-2.49a2.524,2.524,0,0,0-.652-1.7,2.413,2.413,0,0,0-1.706-.527,2.116,2.116,0,0,0-1.864.892,5,5,0,0,0-.635,2.768v.913a5.352,5.352,0,0,0,.594,2.864,2.077,2.077,0,0,0,1.872.9,2.458,2.458,0,0,0,1.722-.527,2.381,2.381,0,0,0,.652-1.631Zm1.1-.548a5.327,5.327,0,0,1,.515-2.382,3.768,3.768,0,0,1,1.482-1.619A4.323,4.323,0,0,1,22.6,8.853a4.09,4.09,0,0,1,2.968,1.112,4.464,4.464,0,0,1,1.282,3.021l.017.614a4.694,4.694,0,0,1-1.154,3.316,4.011,4.011,0,0,1-3.1,1.249,4.031,4.031,0,0,1-3.1-1.245,4.777,4.777,0,0,1-1.158-3.387Zm2.4.17a3.357,3.357,0,0,0,.481,1.958,1.73,1.73,0,0,0,2.739.008,3.674,3.674,0,0,0,.49-2.141,3.324,3.324,0,0,0-.49-1.945,1.592,1.592,0,0,0-1.378-.69,1.566,1.566,0,0,0-1.361.686A3.735,3.735,0,0,0,20.76,13.6Zm9.795-4.578.075,1.038a3.136,3.136,0,0,1,2.582-1.2,2.606,2.606,0,0,1,2.125.838,3.912,3.912,0,0,1,.714,2.507V18h-2.4V12.256a1.556,1.556,0,0,0-.332-1.108,1.486,1.486,0,0,0-1.1-.344,1.65,1.65,0,0,0-1.519.863V18H28.3V9.019ZM42,18.166a4.409,4.409,0,0,1-3.217-1.212,4.308,4.308,0,0,1-1.241-3.229v-.232a5.426,5.426,0,0,1,.523-2.42,3.838,3.838,0,0,1,1.482-1.644,4.159,4.159,0,0,1,2.187-.577,3.727,3.727,0,0,1,2.9,1.162,4.722,4.722,0,0,1,1.058,3.3v.979H39.977a2.229,2.229,0,0,0,.7,1.411,2.12,2.12,0,0,0,1.482.531,2.589,2.589,0,0,0,2.167-1l1.179,1.32a3.6,3.6,0,0,1-1.461,1.191A4.793,4.793,0,0,1,42,18.166Zm-.274-7.379a1.5,1.5,0,0,0-1.158.484A2.5,2.5,0,0,0,40,12.654h3.337v-.192a1.786,1.786,0,0,0-.432-1.238A1.547,1.547,0,0,0,41.728,10.787Zm9.064,5.445a1.573,1.573,0,0,0,1.079-.365A1.28,1.28,0,0,0,52.3,14.9h2.25a3.077,3.077,0,0,1-.5,1.673,3.286,3.286,0,0,1-1.341,1.179,4.2,4.2,0,0,1-1.88.419A3.9,3.9,0,0,1,47.8,16.942a4.845,4.845,0,0,1-1.112-3.383V13.4a4.79,4.79,0,0,1,1.1-3.312,3.854,3.854,0,0,1,3.03-1.237,3.778,3.778,0,0,1,2.7.959,3.4,3.4,0,0,1,1.033,2.552H52.3a1.648,1.648,0,0,0-.432-1.139,1.6,1.6,0,0,0-2.362.173,3.541,3.541,0,0,0-.427,1.983v.249a3.586,3.586,0,0,0,.423,2A1.463,1.463,0,0,0,50.793,16.232Zm8-9.421V9.019H60.33v1.76H58.795v4.482a1.07,1.07,0,0,0,.191.714.959.959,0,0,0,.73.216,3.826,3.826,0,0,0,.706-.058V17.95a4.939,4.939,0,0,1-1.453.216A2.29,2.29,0,0,1,56.4,15.618V10.778H55.084V9.019H56.4V6.811Zm2.25,6.616a5.327,5.327,0,0,1,.515-2.382,3.767,3.767,0,0,1,1.482-1.619,4.323,4.323,0,0,1,2.245-.573,4.09,4.09,0,0,1,2.968,1.112,4.464,4.464,0,0,1,1.282,3.021l.017.614A4.694,4.694,0,0,1,68.4,16.917a4.472,4.472,0,0,1-6.2,0,4.777,4.777,0,0,1-1.158-3.387Zm2.4.17a3.357,3.357,0,0,0,.481,1.958,1.73,1.73,0,0,0,2.739.008,3.674,3.674,0,0,0,.49-2.141,3.324,3.324,0,0,0-.49-1.945,1.592,1.592,0,0,0-1.378-.69,1.566,1.566,0,0,0-1.361.686A3.735,3.735,0,0,0,63.443,13.6Zm12.634-2.328a6.517,6.517,0,0,0-.863-.066,1.757,1.757,0,0,0-1.785.921V18h-2.4V9.019H73.3l.066,1.071a2.223,2.223,0,0,1,2-1.237,2.514,2.514,0,0,1,.747.108ZM43.683,39.51H39.317L38.487,42H35.839l4.5-12.086h2.308L47.169,42H44.521Zm-3.694-2.017h3.021l-1.519-4.524Z" transform="translate(298 5872)" fill="#fff"/>
        <path id="Trazado_1273082" data-name="Trazado 1273082" d="M-4468-6872h-148.27v15.426" transform="translate(-6375.922 10233.791) rotate(90)" fill="none" stroke="#344866" stroke-width="2"/>
        <path id="Trazado_1273083" data-name="Trazado 1273083" d="M148.27,15.426H0V0" transform="translate(355.559 5617.521) rotate(90)" fill="none" stroke="#344866" stroke-width="2"/>
        <path id="Trazado_1273084" data-name="Trazado 1273084" d="M-4468-6872h-148.271" transform="translate(-6453.499 10234.791) rotate(90)" fill="none" stroke="#344866" stroke-width="2"/>
        <path id="Trazado_1273081" data-name="Trazado 1273081" d="M-4561.693-6872h-54.576" transform="translate(5124.384 12230)" fill="none" stroke="#344866" stroke-width="2" stroke-dasharray="10"/>
        <path id="Trazado_1273090" data-name="Trazado 1273090" d="M-4561.693-6872h-54.576" transform="translate(5124.384 12302)" fill="none" stroke="#344866" stroke-width="2" stroke-dasharray="10"/>
        <path id="Trazado_1273091" data-name="Trazado 1273091" d="M-4561.693-6872h-54.576" transform="translate(5124.384 12375)" fill="none" stroke="#344866" stroke-width="2" stroke-dasharray="10"/>
        <path id="Trazado_1273092" data-name="Trazado 1273092" d="M-4561.693-6872h-54.576" transform="translate(5124.384 12489.521)" fill="none" stroke="#344866" stroke-width="2" stroke-dasharray="10"/>
        <path id="Trazado_1273093" data-name="Trazado 1273093" d="M-4414.079-6872h-202.191" transform="translate(4976.769 12584.521)" fill="none" stroke="#344866" stroke-width="2" stroke-dasharray="10"/>
        <path id="Trazado_1273094" data-name="Trazado 1273094" d="M-4414.079-6872h-202.191" transform="translate(4976.769 12679)" fill="none" stroke="#344866" stroke-width="2" stroke-dasharray="10"/>
        <path id="Trazado_1273095" data-name="Trazado 1273095" d="M-4587.749-6872h-28.521" transform="translate(5150.439 12767)" fill="none" stroke="#344866" stroke-width="2" stroke-dasharray="10"/>
        <path id="Trazado_1273080" data-name="Trazado 1273080" d="M-4591.9-6872h-24.366" transform="translate(-6354.999 10452.27) rotate(90)" fill="none" stroke="#344866" stroke-width="2"/>
        <path id="Trazado_1273085" data-name="Trazado 1273085" d="M-4591.9-6872h-24.366" transform="translate(-6531.999 10452.27) rotate(90)" fill="none" stroke="#344866" stroke-width="2"/>
        <path id="Trazado_1273086" data-name="Trazado 1273086" d="M-4585.27-6872h-31" transform="translate(-6453.346 10452.27) rotate(90)" fill="none" stroke="#344866" stroke-width="2" stroke-dasharray="10"/>
        <path id="Trazado_1273087" data-name="Trazado 1273087" d="M7.448,0H0" transform="translate(398.653 5893.727) rotate(180)" fill="none" stroke="#344866" stroke-width="2" stroke-dasharray="10"/>
        <path id="Trazado_1273089" data-name="Trazado 1273089" d="M7.448,0H0" transform="translate(437.347 5895)" fill="none" stroke="#344866" stroke-width="2" stroke-dasharray="10"/>
        <path id="Trazado_1274318" data-name="Trazado 1274318" d="M8.5,0,17,15H0Z" transform="translate(504.078 5776.791) rotate(180)" fill="#344866"/>
        <path id="Trazado_1274319" data-name="Trazado 1274319" d="M8.5,0,17,15H0Z" transform="translate(349.133 5776.791) rotate(180)" fill="#344866"/>
        <path id="Trazado_1274320" data-name="Trazado 1274320" d="M8.5,0,17,15H0Z" transform="translate(427 5777.791) rotate(180)" fill="#344866"/>
        <path id="Trazado_1274321" data-name="Trazado 1274321" d="M8.5,0,17,15H0Z" transform="translate(576.691 5349.5) rotate(90)" fill="#344866"/>
        <path id="Trazado_1274322" data-name="Trazado 1274322" d="M8.5,0,17,15H0Z" transform="translate(576.691 5421.5) rotate(90)" fill="#344866"/>
        <path id="Trazado_1274323" data-name="Trazado 1274323" d="M8.5,0,17,15H0Z" transform="translate(576.691 5494.5) rotate(90)" fill="#344866"/>
        <path id="Trazado_1274324" data-name="Trazado 1274324" d="M8.5,0,17,15H0Z" transform="translate(576.691 5609.021) rotate(90)" fill="#344866"/>
        <path id="Trazado_1274325" data-name="Trazado 1274325" d="M8.5,0,17,15H0Z" transform="translate(576.691 5704.021) rotate(90)" fill="#344866"/>
        <path id="Trazado_1274326" data-name="Trazado 1274326" d="M8.5,0,17,15H0Z" transform="translate(576.691 5798.5) rotate(90)" fill="#344866"/>
        <path id="Trazado_1274327" data-name="Trazado 1274327" d="M8.5,0,17,15H0Z" transform="translate(576.691 5886.5) rotate(90)" fill="#344866"/>
        <path id="Trazado_1274328" data-name="Trazado 1274328" d="M8.5,0,17,15H0Z" transform="translate(525.5 5867.366) rotate(180)" fill="#344866"/>
        <path id="Trazado_1274329" data-name="Trazado 1274329" d="M8.5,0,17,15H0Z" transform="translate(348.5 5867.366) rotate(180)" fill="#344866"/>
        <path id="Trazado_1274330" data-name="Trazado 1274330" d="M4.819,0,9.637,8.5H0Z" transform="translate(395.598 5896.273) rotate(150)" fill="#344866"/>
        <path id="Trazado_1274331" data-name="Trazado 1274331" d="M4.819,0,9.637,8.5H0Z" transform="translate(440.402 5892.454) rotate(-30)" fill="#344866"/>
        <g id="Grupo_1210992" data-name="Grupo 1210992" transform="translate(5848.021 4929.888) rotate(90)">
          <path id="Trazado_1273079" data-name="Trazado 1273079" d="M-4590.538-6872h-25.732" transform="translate(5064.538 12301.521)" fill="none" stroke="#344866" stroke-width="2"/>
          <path id="Polígono_55" data-name="Polígono 55" d="M8.5,0,17,15H0Z" transform="translate(481 5421.021) rotate(90)" fill="#344866"/>
        </g>
        <g id="Grupo_1210993" data-name="Grupo 1210993" transform="translate(5848.021 5001.845) rotate(90)">
          <path id="Trazado_1273079-2" data-name="Trazado 1273079" d="M-4590.538-6872h-25.732" transform="translate(5064.538 12301.521)" fill="none" stroke="#344866" stroke-width="2"/>
          <path id="Polígono_55-2" data-name="Polígono 55" d="M8.5,0,17,15H0Z" transform="translate(481 5421.021) rotate(90)" fill="#344866"/>
        </g>
        <g id="Grupo_1210994" data-name="Grupo 1210994" transform="translate(5848.021 5073.888) rotate(90)">
          <path id="Trazado_1273079-3" data-name="Trazado 1273079" d="M-4590.538-6872h-25.732" transform="translate(5064.538 12301.521)" fill="none" stroke="#344866" stroke-width="2"/>
          <path id="Polígono_55-3" data-name="Polígono 55" d="M8.5,0,17,15H0Z" transform="translate(481 5421.021) rotate(90)" fill="#344866"/>
        </g>
        <path id="Trazado_1274332" data-name="Trazado 1274332" d="M18,0H81.671a18,18,0,0,1,18,18V81.671a18,18,0,0,1-18,18H18a18,18,0,0,1-18-18V18A18,18,0,0,1,18,0Z" transform="translate(418 5547.043) rotate(45)" fill="#ffd453"/>
        <path id="Trazado_1274333" data-name="Trazado 1274333" d="M15.646,12.654a5.151,5.151,0,0,1-.257,1.786,3.47,3.47,0,0,1-.917,1.3,9.675,9.675,0,0,0-.9.914,2.384,2.384,0,0,0-.357.607,1.833,1.833,0,0,0-.12.674,1.142,1.142,0,0,0,1.278,1.305,1.381,1.381,0,0,0,1.017-.374,1.464,1.464,0,0,0,.394-1.048h2.4A3.2,3.2,0,0,1,17.165,20.3a3.987,3.987,0,0,1-2.748.893,4.081,4.081,0,0,1-2.748-.843,3,3,0,0,1-.979-2.405,3.7,3.7,0,0,1,1.27-2.592l.805-.773a2.129,2.129,0,0,0,.577-.781,3.424,3.424,0,0,0,.178-1.147Zm.3-2.536a1.189,1.189,0,0,1-.382.91,1.481,1.481,0,0,1-1.926,0,1.189,1.189,0,0,1-.382-.91,1.208,1.208,0,0,1,.369-.91,1.515,1.515,0,0,1,1.951,0A1.208,1.208,0,0,1,15.944,10.118Zm13.2,3.856a4.277,4.277,0,0,1-1.44,3.071,5.058,5.058,0,0,1-3.424,1.121A4.548,4.548,0,0,1,20.622,16.6a6.416,6.416,0,0,1-1.332-4.3v-.739A7.245,7.245,0,0,1,19.9,8.5a4.6,4.6,0,0,1,1.756-2.038,4.918,4.918,0,0,1,2.652-.71,4.927,4.927,0,0,1,3.37,1.121,4.6,4.6,0,0,1,1.478,3.146h-2.49a2.524,2.524,0,0,0-.652-1.7,2.413,2.413,0,0,0-1.706-.527,2.116,2.116,0,0,0-1.864.892,5,5,0,0,0-.635,2.768v.913a5.352,5.352,0,0,0,.594,2.864,2.077,2.077,0,0,0,1.872.9A2.458,2.458,0,0,0,26,15.605a2.381,2.381,0,0,0,.652-1.631Zm1.1-.548a5.327,5.327,0,0,1,.515-2.382,3.768,3.768,0,0,1,1.482-1.619,4.323,4.323,0,0,1,2.245-.573,4.09,4.09,0,0,1,2.968,1.112,4.464,4.464,0,0,1,1.282,3.021l.017.614A4.694,4.694,0,0,1,37.6,16.917a4.011,4.011,0,0,1-3.1,1.249,4.031,4.031,0,0,1-3.1-1.245,4.777,4.777,0,0,1-1.158-3.387Zm2.4.17a3.357,3.357,0,0,0,.481,1.958,1.73,1.73,0,0,0,2.739.008,3.674,3.674,0,0,0,.49-2.141,3.324,3.324,0,0,0-.49-1.945,1.592,1.592,0,0,0-1.378-.69,1.566,1.566,0,0,0-1.361.686A3.735,3.735,0,0,0,32.646,13.6ZM42.44,9.019l.075,1.038a3.136,3.136,0,0,1,2.582-1.2,2.606,2.606,0,0,1,2.125.838,3.912,3.912,0,0,1,.714,2.507V18h-2.4V12.256a1.556,1.556,0,0,0-.332-1.108,1.486,1.486,0,0,0-1.1-.344,1.65,1.65,0,0,0-1.519.863V18h-2.4V9.019Zm6.939,4.424a5.413,5.413,0,0,1,.942-3.345A3.057,3.057,0,0,1,52.9,8.853a2.751,2.751,0,0,1,2.167.979V5.25h2.407V18H55.307l-.116-.955a2.823,2.823,0,0,1-2.308,1.121,3.049,3.049,0,0,1-2.544-1.249A5.587,5.587,0,0,1,49.38,13.443Zm2.4.179a3.546,3.546,0,0,0,.44,1.937,1.433,1.433,0,0,0,1.278.673,1.605,1.605,0,0,0,1.569-.939v-3.55a1.582,1.582,0,0,0-1.552-.939Q51.779,10.8,51.779,13.621ZM61.864,18H59.457V9.019h2.407ZM59.316,6.694a1.181,1.181,0,0,1,.361-.888,1.556,1.556,0,0,1,1.963,0,1.175,1.175,0,0,1,.365.888,1.178,1.178,0,0,1-.369.9,1.539,1.539,0,0,1-1.951,0A1.178,1.178,0,0,1,59.316,6.694Zm8.259,9.538a1.573,1.573,0,0,0,1.079-.365,1.28,1.28,0,0,0,.432-.971h2.25a3.077,3.077,0,0,1-.5,1.673A3.286,3.286,0,0,1,69.5,17.747a4.2,4.2,0,0,1-1.88.419,3.9,3.9,0,0,1-3.038-1.224,4.845,4.845,0,0,1-1.112-3.383V13.4a4.79,4.79,0,0,1,1.1-3.312A3.854,3.854,0,0,1,67.6,8.853a3.778,3.778,0,0,1,2.7.959,3.4,3.4,0,0,1,1.033,2.552h-2.25a1.648,1.648,0,0,0-.432-1.139,1.6,1.6,0,0,0-2.362.173,3.541,3.541,0,0,0-.427,1.983v.249a3.586,3.586,0,0,0,.423,2A1.463,1.463,0,0,0,67.575,16.232ZM75.237,18H72.83V9.019h2.407ZM72.688,6.694a1.181,1.181,0,0,1,.361-.888,1.556,1.556,0,0,1,1.963,0,1.175,1.175,0,0,1,.365.888,1.178,1.178,0,0,1-.369.9,1.539,1.539,0,0,1-1.951,0A1.178,1.178,0,0,1,72.688,6.694Zm4.15,6.732a5.326,5.326,0,0,1,.515-2.382,3.768,3.768,0,0,1,1.482-1.619,4.323,4.323,0,0,1,2.245-.573,4.09,4.09,0,0,1,2.968,1.112,4.464,4.464,0,0,1,1.282,3.021l.017.614a4.694,4.694,0,0,1-1.154,3.316,4.472,4.472,0,0,1-6.2,0,4.777,4.777,0,0,1-1.158-3.387Zm2.4.17a3.357,3.357,0,0,0,.481,1.958,1.73,1.73,0,0,0,2.739.008,3.674,3.674,0,0,0,.49-2.141,3.324,3.324,0,0,0-.49-1.945,1.592,1.592,0,0,0-1.378-.69,1.566,1.566,0,0,0-1.361.686A3.736,3.736,0,0,0,79.238,13.6ZM81.554,5.25h2.615l-2.3,2.573H79.918Zm7.479,3.769.075,1.038a3.136,3.136,0,0,1,2.582-1.2,2.606,2.606,0,0,1,2.125.838,3.912,3.912,0,0,1,.714,2.507V18h-2.4V12.256a1.556,1.556,0,0,0-.332-1.108,1.486,1.486,0,0,0-1.1-.344,1.65,1.65,0,0,0-1.519.863V18h-2.4V9.019ZM98.3,14.3a4.994,4.994,0,0,1,.282-1.853,3.8,3.8,0,0,1,1.033-1.358,5.284,5.284,0,0,0,1-1.089,1.709,1.709,0,0,0,.249-.886q0-1.405-1.295-1.405a1.312,1.312,0,0,0-.984.379,1.487,1.487,0,0,0-.386,1.044H95.8a3.2,3.2,0,0,1,1.025-2.484,4.735,4.735,0,0,1,5.483-.046,3.03,3.03,0,0,1,.971,2.405,2.928,2.928,0,0,1-.315,1.334,5.494,5.494,0,0,1-1.1,1.392l-.672.64a2.279,2.279,0,0,0-.722,1.421l-.033.507Zm-.241,2.544a1.208,1.208,0,0,1,.378-.914,1.479,1.479,0,0,1,1.934,0,1.29,1.29,0,0,1,.008,1.816,1.515,1.515,0,0,1-1.951,0A1.2,1.2,0,0,1,98.064,16.842Z" transform="translate(360.689 5606.043)" fill="#12263f"/>
        <path id="Trazado_1274334" data-name="Trazado 1274334" d="M16.1,18h-2.49L8.762,10.048V18H6.271V5.914h2.49l4.856,7.969V5.914H16.1Zm1.644-4.574a5.327,5.327,0,0,1,.515-2.382A3.768,3.768,0,0,1,19.74,9.425a4.323,4.323,0,0,1,2.245-.573,4.09,4.09,0,0,1,2.968,1.112,4.464,4.464,0,0,1,1.282,3.021l.017.614A4.694,4.694,0,0,1,25.1,16.917,4.011,4.011,0,0,1,22,18.166a4.031,4.031,0,0,1-3.1-1.245,4.777,4.777,0,0,1-1.158-3.387Zm2.4.17a3.357,3.357,0,0,0,.481,1.958,1.73,1.73,0,0,0,2.739.008,3.674,3.674,0,0,0,.49-2.141,3.324,3.324,0,0,0-.49-1.945,1.592,1.592,0,0,0-1.378-.69,1.566,1.566,0,0,0-1.361.686A3.735,3.735,0,0,0,20.142,13.6Z" transform="translate(480 5590)" fill="#12263f"/>
        <path id="Trazado_1274335" data-name="Trazado 1274335" d="M15.792,14.829a1.278,1.278,0,0,0-.5-1.083,6.533,6.533,0,0,0-1.793-.8,12.71,12.71,0,0,1-2.05-.826,3.35,3.35,0,0,1-2.059-3,2.919,2.919,0,0,1,.552-1.747,3.6,3.6,0,0,1,1.585-1.2,5.967,5.967,0,0,1,2.32-.432,5.432,5.432,0,0,1,2.308.469,3.674,3.674,0,0,1,1.573,1.324,3.464,3.464,0,0,1,.56,1.942H15.8a1.63,1.63,0,0,0-.523-1.291,2.15,2.15,0,0,0-1.469-.461,2.3,2.3,0,0,0-1.419.386,1.217,1.217,0,0,0-.506,1.017,1.166,1.166,0,0,0,.594.988,6.705,6.705,0,0,0,1.747.747,7.55,7.55,0,0,1,3.1,1.585,3.157,3.157,0,0,1,.971,2.357A2.909,2.909,0,0,1,17.1,17.274a5.2,5.2,0,0,1-3.2.892,6.171,6.171,0,0,1-2.54-.51,4.019,4.019,0,0,1-1.747-1.4,3.582,3.582,0,0,1-.6-2.059h2.5q0,2,2.391,2a2.326,2.326,0,0,0,1.386-.361A1.175,1.175,0,0,0,15.792,14.829ZM22.408,18h-2.4V9.019h2.4ZM21.7,5.375h2.615l-2.3,2.573H20.067Z" transform="translate(325 5590)" fill="#12263f"/>
        <path id="Trazado_1274336" data-name="Trazado 1274336" d="M29,0A29,29,0,1,1,0,29,29,29,0,0,1,29,0Z" transform="translate(525 5778) rotate(90)" fill="#69d7e5"/>
        <path id="Trazado_1274337" data-name="Trazado 1274337" d="M29,0A29,29,0,1,1,0,29,29,29,0,0,1,29,0Z" transform="translate(447 5778) rotate(90)" fill="#69d7e5"/>
        <path id="Trazado_1274338" data-name="Trazado 1274338" d="M29,0A29,29,0,1,1,0,29,29,29,0,0,1,29,0Z" transform="translate(369 5778) rotate(90)" fill="#69d7e5"/>
        <path id="Trazado_1274339" data-name="Trazado 1274339" d="M19.5,0h116a19.5,19.5,0,0,1,0,39H19.5a19.5,19.5,0,0,1,0-39Z" transform="translate(341 5483)" fill="#9ed1ff"/>
        <path id="Trazado_1274340" data-name="Trazado 1274340" d="M10.1,12.762H5.319V16h5.611v2h-8.1V5.914h8.085V7.931H5.319v2.88H10.1Zm4.341-3.744.075,1.038a3.136,3.136,0,0,1,2.582-1.2,2.606,2.606,0,0,1,2.125.838,3.912,3.912,0,0,1,.714,2.507V18h-2.4V12.256a1.556,1.556,0,0,0-.332-1.108,1.486,1.486,0,0,0-1.1-.344,1.65,1.65,0,0,0-1.519.863V18h-2.4V9.019ZM24.627,6.811V9.019h1.536v1.76H24.627v4.482a1.07,1.07,0,0,0,.191.714.959.959,0,0,0,.73.216,3.826,3.826,0,0,0,.706-.058V17.95a4.938,4.938,0,0,1-1.453.216,2.29,2.29,0,0,1-2.573-2.548V10.778H20.917V9.019h1.312V6.811Zm7.919,4.458a6.517,6.517,0,0,0-.863-.066,1.757,1.757,0,0,0-1.785.921V18H27.5V9.019h2.266l.066,1.071a2.223,2.223,0,0,1,2-1.237,2.514,2.514,0,0,1,.747.108ZM38.655,18a2.664,2.664,0,0,1-.241-.805,2.9,2.9,0,0,1-2.266.971,3.189,3.189,0,0,1-2.187-.764,2.456,2.456,0,0,1-.867-1.926,2.538,2.538,0,0,1,1.058-2.191,5.222,5.222,0,0,1,3.059-.772h1.1V12A1.48,1.48,0,0,0,38,11a1.257,1.257,0,0,0-1.009-.374,1.429,1.429,0,0,0-.95.291.987.987,0,0,0-.344.8h-2.4a2.41,2.41,0,0,1,.481-1.444A3.182,3.182,0,0,1,35.136,9.23a4.961,4.961,0,0,1,1.976-.378,3.92,3.92,0,0,1,2.635.834,2.918,2.918,0,0,1,.975,2.345v3.893a4.294,4.294,0,0,0,.357,1.934V18Zm-1.984-1.668a2.066,2.066,0,0,0,.979-.237,1.554,1.554,0,0,0,.664-.635V13.916h-.9q-1.8,0-1.917,1.245l-.008.141a.96.96,0,0,0,.315.739A1.225,1.225,0,0,0,36.671,16.332Zm5.52-2.889a5.413,5.413,0,0,1,.942-3.345,3.057,3.057,0,0,1,2.577-1.245,2.751,2.751,0,0,1,2.167.979V5.25h2.407V18H48.118L48,17.045a2.823,2.823,0,0,1-2.308,1.121,3.049,3.049,0,0,1-2.544-1.249A5.587,5.587,0,0,1,42.191,13.443Zm2.4.179a3.546,3.546,0,0,0,.44,1.937,1.433,1.433,0,0,0,1.278.673,1.605,1.605,0,0,0,1.569-.939v-3.55a1.582,1.582,0,0,0-1.552-.939Q44.59,10.8,44.59,13.621ZM57.349,18a2.664,2.664,0,0,1-.241-.805,2.9,2.9,0,0,1-2.266.971,3.189,3.189,0,0,1-2.187-.764,2.456,2.456,0,0,1-.867-1.926,2.538,2.538,0,0,1,1.058-2.191,5.222,5.222,0,0,1,3.059-.772h1.1V12a1.48,1.48,0,0,0-.32-1,1.257,1.257,0,0,0-1.009-.374,1.429,1.429,0,0,0-.95.291.987.987,0,0,0-.344.8h-2.4a2.41,2.41,0,0,1,.481-1.444A3.182,3.182,0,0,1,53.829,9.23,4.961,4.961,0,0,1,55.8,8.853a3.92,3.92,0,0,1,2.635.834,2.918,2.918,0,0,1,.975,2.345v3.893a4.294,4.294,0,0,0,.357,1.934V18Zm-1.984-1.668a2.066,2.066,0,0,0,.979-.237,1.554,1.554,0,0,0,.664-.635V13.916h-.9q-1.8,0-1.917,1.245l-.008.141a.96.96,0,0,0,.315.739A1.225,1.225,0,0,0,55.365,16.332Zm6.649,2.706H60.229L64.678,5.914h1.785Zm10.459-3.52a.773.773,0,0,0-.436-.693,4.95,4.95,0,0,0-1.4-.452q-3.2-.672-3.2-2.723a2.468,2.468,0,0,1,.992-2,4,4,0,0,1,2.594-.8,4.307,4.307,0,0,1,2.735.805A2.538,2.538,0,0,1,74.78,11.75h-2.4a1.161,1.161,0,0,0-.332-.851,1.405,1.405,0,0,0-1.038-.336,1.436,1.436,0,0,0-.938.274.865.865,0,0,0-.332.7.739.739,0,0,0,.378.643,3.885,3.885,0,0,0,1.274.423A10.407,10.407,0,0,1,72.9,13a2.482,2.482,0,0,1,1.9,2.416,2.343,2.343,0,0,1-1.054,1.988,4.548,4.548,0,0,1-2.723.76,4.75,4.75,0,0,1-2-.4,3.363,3.363,0,0,1-1.374-1.1,2.565,2.565,0,0,1-.5-1.515h2.274a1.252,1.252,0,0,0,.473.979,1.877,1.877,0,0,0,1.179.34A1.737,1.737,0,0,0,72.12,16.2.814.814,0,0,0,72.473,15.518ZM81.554,18a2.664,2.664,0,0,1-.241-.805,2.9,2.9,0,0,1-2.266.971A3.189,3.189,0,0,1,76.86,17.4a2.456,2.456,0,0,1-.867-1.926,2.538,2.538,0,0,1,1.058-2.191,5.222,5.222,0,0,1,3.059-.772h1.1V12a1.48,1.48,0,0,0-.32-1,1.257,1.257,0,0,0-1.009-.374,1.429,1.429,0,0,0-.95.291.987.987,0,0,0-.344.8h-2.4a2.41,2.41,0,0,1,.481-1.444A3.182,3.182,0,0,1,78.034,9.23a4.961,4.961,0,0,1,1.976-.378,3.92,3.92,0,0,1,2.635.834,2.918,2.918,0,0,1,.975,2.345v3.893a4.294,4.294,0,0,0,.357,1.934V18ZM79.57,16.332a2.066,2.066,0,0,0,.979-.237,1.554,1.554,0,0,0,.664-.635V13.916h-.9q-1.8,0-1.917,1.245l-.008.141a.96.96,0,0,0,.315.739A1.225,1.225,0,0,0,79.57,16.332ZM88,18H85.588V5.25H88ZM92.5,18H90.1V9.019H92.5ZM89.954,6.694a1.181,1.181,0,0,1,.361-.888,1.556,1.556,0,0,1,1.963,0,1.175,1.175,0,0,1,.365.888,1.178,1.178,0,0,1-.369.9,1.539,1.539,0,0,1-1.951,0A1.178,1.178,0,0,1,89.954,6.694Zm4.15,6.749a5.413,5.413,0,0,1,.942-3.345,3.057,3.057,0,0,1,2.577-1.245,2.751,2.751,0,0,1,2.167.979V5.25H102.2V18h-2.167l-.116-.955a2.823,2.823,0,0,1-2.308,1.121,3.049,3.049,0,0,1-2.544-1.249A5.587,5.587,0,0,1,94.1,13.443Zm2.4.179a3.546,3.546,0,0,0,.44,1.937,1.433,1.433,0,0,0,1.278.673,1.605,1.605,0,0,0,1.569-.939v-3.55a1.582,1.582,0,0,0-1.552-.939Q96.5,10.8,96.5,13.621ZM109.262,18a2.664,2.664,0,0,1-.241-.805,2.9,2.9,0,0,1-2.266.971,3.189,3.189,0,0,1-2.187-.764,2.456,2.456,0,0,1-.867-1.926,2.538,2.538,0,0,1,1.058-2.191,5.222,5.222,0,0,1,3.059-.772h1.1V12a1.48,1.48,0,0,0-.32-1,1.257,1.257,0,0,0-1.009-.374,1.429,1.429,0,0,0-.95.291.987.987,0,0,0-.344.8h-2.4a2.41,2.41,0,0,1,.481-1.444,3.182,3.182,0,0,1,1.361-1.042,4.961,4.961,0,0,1,1.976-.378,3.92,3.92,0,0,1,2.635.834,2.918,2.918,0,0,1,.975,2.345v3.893a4.294,4.294,0,0,0,.357,1.934V18Zm-1.984-1.668a2.066,2.066,0,0,0,.979-.237,1.554,1.554,0,0,0,.664-.635V13.916h-.9q-1.8,0-1.917,1.245l-.008.141a.96.96,0,0,0,.315.739A1.225,1.225,0,0,0,107.278,16.332Z" transform="translate(362 5490)" fill="#12263f"/>
      </g>
    </g>
  </g>
</svg>
