<svg xmlns="http://www.w3.org/2000/svg" xmlns:xlink="http://www.w3.org/1999/xlink" width="150" height="150" viewBox="0 0 150 150">
  <defs>
    <clipPath id="clip-path">
      <rect id="Rectángulo_454829" data-name="Rectángulo 454829" width="150" height="150" fill="#1e535a"/>
    </clipPath>
    <clipPath id="clip-path-2">
      <rect id="Rectángulo_464406" data-name="Rectángulo 464406" width="57.864" height="52.631" fill="#1e535a"/>
    </clipPath>
  </defs>
  <g id="Grupo_1211070" data-name="Grupo 1211070" transform="translate(-186 -4323.945)">
    <g id="Grupo_1177591" data-name="Grupo 1177591" transform="translate(186 4323.945)">
      <g id="Grupo_1177589" data-name="Grupo 1177589" transform="translate(0 0)">
        <g id="Grupo_1177587" data-name="Grupo 1177587" clip-path="url(#clip-path)">
          <path id="Trazado_997422" data-name="Trazado 997422" d="M143.876,66.392A68.963,68.963,0,0,0,128.3,30.506a7.931,7.931,0,0,0-11.16-10.685A68.861,68.861,0,0,0,81.486,5.891,7.933,7.933,0,0,0,66.079,6.2,68.956,68.956,0,0,0,31.872,20.827,7.935,7.935,0,0,0,20.859,31.915,68.9,68.9,0,0,0,6.425,66.324a7.938,7.938,0,0,0-.19,15.546,68.878,68.878,0,0,0,13.982,35.106A7.934,7.934,0,0,0,31,128.179,68.951,68.951,0,0,0,66.016,143.5a7.935,7.935,0,0,0,15.546.313,68.892,68.892,0,0,0,35.914-14.188,7.933,7.933,0,0,0,11.1-10.74A68.98,68.98,0,0,0,144.062,81.8a7.935,7.935,0,0,0-.186-15.4M121.469,34.413a7.89,7.89,0,0,0,4.394-1.33,65.489,65.489,0,0,1,14.453,33.289,7.946,7.946,0,0,0-5.071,3.674l-20.281-7.6c.016-.222.032-.447.032-.677a7.935,7.935,0,0,0-3.361-6.484l8.871-20.93a8.6,8.6,0,0,0,.962.063m-4.287-1.263-8.816,20.791a7.853,7.853,0,0,0-8.741,5.047L62.936,50.537a7.72,7.72,0,0,0-.166-1.58l52.065-18.131a7.961,7.961,0,0,0,2.348,2.324M73.822,15.882a7.941,7.941,0,0,0,7.795-6.441,65.381,65.381,0,0,1,33.059,12.929,7.9,7.9,0,0,0-1.148,4.1,8.337,8.337,0,0,0,.075,1.049L61.277,45.739A7.965,7.965,0,0,0,59.84,44.3L73.565,15.87c.087,0,.17.012.257.012M66.1,9.754a7.943,7.943,0,0,0,3.994,5.2L56.637,42.817A7.963,7.963,0,0,0,55,42.647a7.883,7.883,0,0,0-4.525,1.421L34.524,30.747a7.894,7.894,0,0,0-.269-7.308A65.433,65.433,0,0,1,66.1,9.754M15.688,72.393,48.676,55.378a7.912,7.912,0,0,0,6.259,3.147L66.241,94.665a8.071,8.071,0,0,0-1.75,1.936l-48.9-20.376a7.888,7.888,0,0,0,.293-2.106,7.98,7.98,0,0,0-.194-1.726m7.791-38.111a7.935,7.935,0,0,0,8.864-.756L48.091,46.677a7.919,7.919,0,0,0-.875,5.487L14.172,69.2a7.939,7.939,0,0,0-4.2-2.755A65.4,65.4,0,0,1,23.479,34.282m3.286,79.246a7.918,7.918,0,0,0-3.943,1.053A65.346,65.346,0,0,1,9.786,81.835a7.948,7.948,0,0,0,4.121-2.486L63.3,99.926a8.514,8.514,0,0,0-.063.954,7.939,7.939,0,0,0,.475,2.684L33.839,117.875a7.94,7.94,0,0,0-7.074-4.347M66.17,139.96a65.5,65.5,0,0,1-32.675-14.295,7.858,7.858,0,0,0,1.211-4.2l0-.091,30.926-14.821a7.941,7.941,0,0,0,2.8,1.77l1.853,26.63a7.941,7.941,0,0,0-4.113,5m3.29-46.828L58.4,57.758a7.952,7.952,0,0,0,3.773-3.773L99.154,62.5a7.894,7.894,0,0,0,1.263,3.61L75.049,93.952a7.843,7.843,0,0,0-5.59-.819m12.094,47.136a7.938,7.938,0,0,0-7.731-6.152l-.059,0L72,108.782a7.927,7.927,0,0,0,4.853-2.355l36.978,16.31c0,.071-.012.135-.012.206A7.9,7.9,0,0,0,115,127.083a65.377,65.377,0,0,1-33.443,13.186m33.17-21-36.016-15.89a7.894,7.894,0,0,0-1.041-7.062l25.292-27.762a7.894,7.894,0,0,0,4.1,1.148,8.74,8.74,0,0,0,.974-.063l9.453,46.618a7.923,7.923,0,0,0-2.759,3.013m11.393-2.969a7.893,7.893,0,0,0-5.277-1.247l-9.457-46.638a7.973,7.973,0,0,0,2.5-2.613l20.269,7.6a7.042,7.042,0,0,0-.036.713A7.938,7.938,0,0,0,140.5,81.9a65.431,65.431,0,0,1-14.382,34.4" transform="translate(0 0.002)" fill="#1e535a"/>
        </g>
      </g>
    </g>
    <g id="Elipse_13614" data-name="Elipse 13614" transform="translate(210.273 4348.213)" fill="#fff" stroke="#1e535a" stroke-width="3">
      <ellipse cx="50.732" cy="50.733" rx="50.732" ry="50.733" stroke="none"/>
      <ellipse cx="50.732" cy="50.733" rx="49.232" ry="49.233" fill="none"/>
    </g>
    <g id="Grupo_1211563" data-name="Grupo 1211563" transform="translate(232.068 4372.63)">
      <g id="Grupo_1211562" data-name="Grupo 1211562" clip-path="url(#clip-path-2)">
        <path id="Trazado_1274163" data-name="Trazado 1274163" d="M16.308,46.619A12.1,12.1,0,0,0,26.951,43.2,11.955,11.955,0,0,0,30.018,32.01L54.1,31.994l0-27.545a.647.647,0,0,0-.7-.719l-49.109,0a.6.6,0,0,0-.552.544l0,27.7,3.121.075a12.53,12.53,0,0,0,.578,7.4,21.363,21.363,0,0,1-3.432.006A4.414,4.414,0,0,1,0,35.109V4.452A4.444,4.444,0,0,1,4.55,0H53.286a4.437,4.437,0,0,1,4.547,4.453l.031,30.293a4.477,4.477,0,0,1-4.394,4.732l-15.443.05.021,7.009,7.083.057a3.385,3.385,0,0,1,3.329,2.395A12.924,12.924,0,0,1,48.5,52.63H9.332a15.45,15.45,0,0,1,.008-3.483,3.284,3.284,0,0,1,3.035-2.506,16.993,16.993,0,0,1,3.932-.024" transform="translate(0 0)" fill="#1e535a"/>
        <path id="Trazado_1274164" data-name="Trazado 1274164" d="M150.672,39.005a2.755,2.755,0,0,1-1.094,3.109,2.6,2.6,0,0,1-3.446-3.785,2.71,2.71,0,0,1,3.254-.751l2.176-1.9a2.656,2.656,0,0,1,2.155-3.436,2.692,2.692,0,0,1,2.987,2.682,2.781,2.781,0,0,0,1.548.774c.712-.676,1.817-.53,2.629-.506a22.631,22.631,0,0,0,2.521-2.536,2.661,2.661,0,0,1,.94-3.228,2.606,2.606,0,0,1,3.246.289,2.566,2.566,0,0,1,.446,3.165,2.679,2.679,0,0,1-3.228,1.142l-2.495,2.613a2.645,2.645,0,0,1-1.884,3.621,2.693,2.693,0,0,1-3.15-2.611c-2.163-1.963-1.615.554-4.413-.492Zm15.776-7.419a.655.655,0,1,0-.655.655.655.655,0,0,0,.655-.655M154.709,34.81a.657.657,0,1,0-.657.656.657.657,0,0,0,.657-.656M160.57,37.7a.655.655,0,1,0-.655.655.655.655,0,0,0,.655-.655m-11.729,2.22a.656.656,0,1,0-.656.656.656.656,0,0,0,.656-.656" transform="translate(-117.628 -23.422)" fill="#1e535a"/>
        <rect id="Rectángulo_464404" data-name="Rectángulo 464404" width="3.149" height="15.566" transform="translate(46.593 13.643)" fill="#1e535a"/>
        <rect id="Rectángulo_464405" data-name="Rectángulo 464405" width="3.151" height="11.396" transform="translate(34.86 17.812)" fill="#1e535a"/>
        <path id="Trazado_1274165" data-name="Trazado 1274165" d="M215.151,113.059a9.639,9.639,0,0,1-3.133.006l0-9.015a10.327,10.327,0,0,1,3.109-.016Z" transform="translate(-171.298 -83.965)" fill="#1e535a"/>
        <path id="Trazado_1274166" data-name="Trazado 1274166" d="M154.138,132.57a10.3,10.3,0,0,1-3.1.066l-.04-5.87a9,9,0,0,1,3.11,0Z" transform="translate(-121.998 -102.311)" fill="#1e535a"/>
        <path id="Trazado_1274167" data-name="Trazado 1274167" d="M57.14,44.829l-.016,11.208a11.974,11.974,0,0,0-15.462,3.89.606.606,0,0,1-.295.238c-.111.036-.421-.09-.421-.317l.023-20.585,9.914-.024.06,3.373c.371,3.19,3.541,1.9,6.2,2.217m-8.115,2a.957.957,0,1,0-.075-1.91l-5.587.016a.908.908,0,0,0-.959,1.075,1.028,1.028,0,0,0,1,.825c1.85.042,3.657.053,5.62-.006m3.081,3.5a.911.911,0,0,0,.911-1.053.927.927,0,0,0-1.011-.859l-8.629.009a.959.959,0,0,0-.989,1.027,1,1,0,0,0,.989.892Zm-.083,3.52a.934.934,0,0,0,1-.929.918.918,0,0,0-.9-.981l-8.88.011a.95.95,0,0,0,.114,1.9Z" transform="translate(-33.082 -31.702)" fill="#1e535a"/>
        <path id="Trazado_1274168" data-name="Trazado 1274168" d="M107.146,42.556c-1.308.41-2.643.095-4.131.158a18.084,18.084,0,0,1,.008-3.655Z" transform="translate(-83.159 -31.557)" fill="#1e535a"/>
        <path id="Trazado_1274169" data-name="Trazado 1274169" d="M2.272,156.917.329,154.936a.939.939,0,0,1,.01-1.37l5.432-5.279c.446-.434.98-.1,1.454.017l3.056-2.926a9.95,9.95,0,1,1,1.71,1.9L9.051,150.17c.049.433.457.986.017,1.414l-5.436,5.283a.933.933,0,0,1-1.36.051M24.8,139.67a6.32,6.32,0,1,0-6.32,6.32,6.32,6.32,0,0,0,6.32-6.32" transform="translate(-0.031 -104.792)" fill="#1e535a"/>
        <path id="Trazado_1274170" data-name="Trazado 1274170" d="M79.067,172.058c-.994.9-2.029-.5-3.184-1.748a.97.97,0,0,1,.05-1.31c1.011-.862,1.686.532,2.442,1.032l3.668-3.233a.944.944,0,0,1,1.248.187.99.99,0,0,1-.1,1.324Z" transform="translate(-61.123 -134.632)" fill="#1e535a"/>
      </g>
    </g>
  </g>
</svg>
