<svg xmlns="http://www.w3.org/2000/svg" xmlns:xlink="http://www.w3.org/1999/xlink" width="150" height="150" viewBox="0 0 150 150">
  <defs>
    <clipPath id="clip-path">
      <rect id="Rectángulo_454829" data-name="Rectángulo 454829" width="150" height="150" fill="#1e535a"/>
    </clipPath>
    <clipPath id="clip-path-2">
      <rect id="Rectángulo_464407" data-name="Rectángulo 464407" width="55.498" height="55.497" fill="#1e535a"/>
    </clipPath>
  </defs>
  <g id="Grupo_1211071" data-name="Grupo 1211071" transform="translate(-186 -4323.945)">
    <g id="Grupo_1177591" data-name="Grupo 1177591" transform="translate(186 4323.945)">
      <g id="Grupo_1177589" data-name="Grupo 1177589" transform="translate(0 0)">
        <g id="Grupo_1177587" data-name="Grupo 1177587" clip-path="url(#clip-path)">
          <path id="Trazado_997422" data-name="Trazado 997422" d="M143.876,66.392A68.963,68.963,0,0,0,128.3,30.506a7.931,7.931,0,0,0-11.16-10.685A68.861,68.861,0,0,0,81.486,5.891,7.933,7.933,0,0,0,66.079,6.2,68.956,68.956,0,0,0,31.872,20.827,7.935,7.935,0,0,0,20.859,31.915,68.9,68.9,0,0,0,6.425,66.324a7.938,7.938,0,0,0-.19,15.546,68.878,68.878,0,0,0,13.982,35.106A7.934,7.934,0,0,0,31,128.179,68.951,68.951,0,0,0,66.016,143.5a7.935,7.935,0,0,0,15.546.313,68.892,68.892,0,0,0,35.914-14.188,7.933,7.933,0,0,0,11.1-10.74A68.98,68.98,0,0,0,144.062,81.8a7.935,7.935,0,0,0-.186-15.4M121.469,34.413a7.89,7.89,0,0,0,4.394-1.33,65.489,65.489,0,0,1,14.453,33.289,7.946,7.946,0,0,0-5.071,3.674l-20.281-7.6c.016-.222.032-.447.032-.677a7.935,7.935,0,0,0-3.361-6.484l8.871-20.93a8.6,8.6,0,0,0,.962.063m-4.287-1.263-8.816,20.791a7.853,7.853,0,0,0-8.741,5.047L62.936,50.537a7.72,7.72,0,0,0-.166-1.58l52.065-18.131a7.961,7.961,0,0,0,2.348,2.324M73.822,15.882a7.941,7.941,0,0,0,7.795-6.441,65.381,65.381,0,0,1,33.059,12.929,7.9,7.9,0,0,0-1.148,4.1,8.337,8.337,0,0,0,.075,1.049L61.277,45.739A7.965,7.965,0,0,0,59.84,44.3L73.565,15.87c.087,0,.17.012.257.012M66.1,9.754a7.943,7.943,0,0,0,3.994,5.2L56.637,42.817A7.963,7.963,0,0,0,55,42.647a7.883,7.883,0,0,0-4.525,1.421L34.524,30.747a7.894,7.894,0,0,0-.269-7.308A65.433,65.433,0,0,1,66.1,9.754M15.688,72.393,48.676,55.378a7.912,7.912,0,0,0,6.259,3.147L66.241,94.665a8.071,8.071,0,0,0-1.75,1.936l-48.9-20.376a7.888,7.888,0,0,0,.293-2.106,7.98,7.98,0,0,0-.194-1.726m7.791-38.111a7.935,7.935,0,0,0,8.864-.756L48.091,46.677a7.919,7.919,0,0,0-.875,5.487L14.172,69.2a7.939,7.939,0,0,0-4.2-2.755A65.4,65.4,0,0,1,23.479,34.282m3.286,79.246a7.918,7.918,0,0,0-3.943,1.053A65.346,65.346,0,0,1,9.786,81.835a7.948,7.948,0,0,0,4.121-2.486L63.3,99.926a8.514,8.514,0,0,0-.063.954,7.939,7.939,0,0,0,.475,2.684L33.839,117.875a7.94,7.94,0,0,0-7.074-4.347M66.17,139.96a65.5,65.5,0,0,1-32.675-14.295,7.858,7.858,0,0,0,1.211-4.2l0-.091,30.926-14.821a7.941,7.941,0,0,0,2.8,1.77l1.853,26.63a7.941,7.941,0,0,0-4.113,5m3.29-46.828L58.4,57.758a7.952,7.952,0,0,0,3.773-3.773L99.154,62.5a7.894,7.894,0,0,0,1.263,3.61L75.049,93.952a7.843,7.843,0,0,0-5.59-.819m12.094,47.136a7.938,7.938,0,0,0-7.731-6.152l-.059,0L72,108.782a7.927,7.927,0,0,0,4.853-2.355l36.978,16.31c0,.071-.012.135-.012.206A7.9,7.9,0,0,0,115,127.083a65.377,65.377,0,0,1-33.443,13.186m33.17-21-36.016-15.89a7.894,7.894,0,0,0-1.041-7.062l25.292-27.762a7.894,7.894,0,0,0,4.1,1.148,8.74,8.74,0,0,0,.974-.063l9.453,46.618a7.923,7.923,0,0,0-2.759,3.013m11.393-2.969a7.893,7.893,0,0,0-5.277-1.247l-9.457-46.638a7.973,7.973,0,0,0,2.5-2.613l20.269,7.6a7.042,7.042,0,0,0-.036.713A7.938,7.938,0,0,0,140.5,81.9a65.431,65.431,0,0,1-14.382,34.4" transform="translate(0 0.002)" fill="#1e535a"/>
        </g>
      </g>
    </g>
    <g id="Elipse_13614" data-name="Elipse 13614" transform="translate(210.273 4348.213)" fill="#fff" stroke="#1e535a" stroke-width="3">
      <ellipse cx="50.732" cy="50.733" rx="50.732" ry="50.733" stroke="none"/>
      <ellipse cx="50.732" cy="50.733" rx="49.232" ry="49.233" fill="none"/>
    </g>
    <g id="Grupo_1211565" data-name="Grupo 1211565" transform="translate(233.256 4371.197)">
      <g id="Grupo_1211564" data-name="Grupo 1211564" clip-path="url(#clip-path-2)">
        <path id="Trazado_1274171" data-name="Trazado 1274171" d="M264.132,76.011a1.548,1.548,0,0,1-1.951.98,1.5,1.5,0,0,1-.978-1.907,24.768,24.768,0,0,0-1.931-25.307c-.083,1.154-.417,2.009-1.39,2.149a1.535,1.535,0,0,1-1.754-1.555l0-4.888a1.508,1.508,0,0,1,1.519-1.533l4.87,0A1.511,1.511,0,0,1,264.1,45.4a1.561,1.561,0,0,1-1.587,1.627,3.879,3.879,0,0,0-1.392.078,27.781,27.781,0,0,1,3.008,28.9" transform="translate(-211.36 -36.267)" fill="#1e535a"/>
        <path id="Trazado_1274172" data-name="Trazado 1274172" d="M45.575,10.754a1.606,1.606,0,0,1-1.631-1.705l.008-4.719a1.517,1.517,0,0,1,1.62-1.572A1.547,1.547,0,0,1,47.011,4.5a2.6,2.6,0,0,0,.1,1.231A27.773,27.773,0,0,1,76.2,2.819,1.515,1.515,0,0,1,77,4.674a1.488,1.488,0,0,1-1.918.974A24.761,24.761,0,0,0,49.792,7.581c1.094.1,1.9.358,2.112,1.25a1.519,1.519,0,0,1-1.39,1.9Z" transform="translate(-36.263 0)" fill="#1e535a"/>
        <path id="Trazado_1274173" data-name="Trazado 1274173" d="M114.158,262.425a3.12,3.12,0,0,0-.1-1.327,27.7,27.7,0,0,1-29.2,2.853,1.523,1.523,0,0,1,1.373-2.713,24.706,24.706,0,0,0,25.148-1.982c-1.09-.112-1.9-.359-2.114-1.252a1.491,1.491,0,0,1,1.37-1.874l5.045-.02a1.5,1.5,0,0,1,1.529,1.513l.007,4.879a1.532,1.532,0,1,1-3.057-.077" transform="translate(-69.4 -211.346)" fill="#1e535a"/>
        <path id="Trazado_1274174" data-name="Trazado 1274174" d="M80.3,94.451l-6.038.016a1.55,1.55,0,0,1-1.578-1.352c-.071-.72.063-1.347-.065-2.03L70.654,90.3,69.3,91.6a1.484,1.484,0,0,1-2.084-.04L62.861,87.2a1.5,1.5,0,0,1-.046-2.073l1.306-1.36-.84-2.014-1.617.014a1.6,1.6,0,0,1-1.7-1.614V74.219a1.592,1.592,0,0,1,1.884-1.6,5.074,5.074,0,0,0,1.5-.06l.771-1.96c-.727-.842-2.579-2.1-1.258-3.429l4.263-4.28a1.533,1.533,0,0,1,2.176-.117l1.348,1.3,1.968-.78c.128-.684,0-1.314.065-2.033a1.542,1.542,0,0,1,1.577-1.341h5.952a1.5,1.5,0,0,1,1.574,1.343l.027,1.974,2.008.844,1.254-1.226a1.538,1.538,0,0,1,2.18-.04l4.356,4.358a1.5,1.5,0,0,1,.042,2.079L90.345,70.6a16.566,16.566,0,0,0,.825,1.921,2.936,2.936,0,0,0,1.446.084,1.6,1.6,0,0,1,1.89,1.61l-.019,6.1C94.481,82.189,92,81.669,91.131,81.8l-.779,1.969c.746.841,2.57,2.121,1.258,3.433L87.255,91.56c-1.315,1.315-2.592-.52-3.431-1.258l-1.969.779c-.175.834.445,3.364-1.555,3.369m3.047-17.265A6.112,6.112,0,1,0,77.235,83.3a6.112,6.112,0,0,0,6.112-6.112" transform="translate(-49.483 -49.443)" fill="#1e535a"/>
        <path id="Trazado_1274175" data-name="Trazado 1274175" d="M9.3,117.15l-4.961.019a1.521,1.521,0,0,1-1.579-1.617,1.544,1.544,0,0,1,1.747-1.436,2.568,2.568,0,0,0,1.231-.109A27.652,27.652,0,0,1,3.008,84.616c.353-.688,1.426-.644,1.9-.4a1.48,1.48,0,0,1,.761,1.817,24.745,24.745,0,0,0,1.929,25.3c.082-1.152.417-2.009,1.389-2.148a1.535,1.535,0,0,1,1.755,1.554l0,4.89A1.47,1.47,0,0,1,9.3,117.15" transform="translate(0 -69.362)" fill="#1e535a"/>
      </g>
    </g>
  </g>
</svg>
