<svg xmlns="http://www.w3.org/2000/svg" xmlns:xlink="http://www.w3.org/1999/xlink" width="133" height="133" viewBox="0 0 133 133">
  <defs>
    <clipPath id="clip-path">
      <rect id="Rectángulo_454829" data-name="Rectángulo 454829" width="133" height="133" fill="#1e535a"/>
    </clipPath>
    <clipPath id="clip-path-2">
      <rect id="Rectángulo_464414" data-name="Rectángulo 464414" width="50.513" height="50.799" fill="#1e535a"/>
    </clipPath>
  </defs>
  <g id="Grupo_1211077" data-name="Grupo 1211077" transform="translate(-186 -4323.945)">
    <g id="Grupo_1177591" data-name="Grupo 1177591" transform="translate(186 4323.945)">
      <g id="Grupo_1177589" data-name="Grupo 1177589" transform="translate(0 0)">
        <g id="Grupo_1177587" data-name="Grupo 1177587" clip-path="url(#clip-path)">
          <path id="Trazado_997422" data-name="Trazado 997422" d="M127.57,58.867a61.147,61.147,0,0,0-13.812-31.819,7.032,7.032,0,0,0-9.895-9.474A61.057,61.057,0,0,0,72.251,5.223,7.034,7.034,0,0,0,58.59,5.5,61.141,61.141,0,0,0,28.26,18.467,7.036,7.036,0,0,0,18.495,28.3,61.09,61.09,0,0,0,5.7,58.808a7.039,7.039,0,0,0-.168,13.784,61.072,61.072,0,0,0,12.4,31.127,7.035,7.035,0,0,0,9.558,9.934,61.136,61.136,0,0,0,31.05,13.58,7.036,7.036,0,0,0,13.784.277,61.084,61.084,0,0,0,31.843-12.58,7.034,7.034,0,0,0,9.846-9.523,61.162,61.162,0,0,0,13.728-32.882,7.036,7.036,0,0,0-.165-13.658M107.7,30.513a7,7,0,0,0,3.9-1.179A58.067,58.067,0,0,1,124.414,58.85a7.046,7.046,0,0,0-4.5,3.257l-17.982-6.743c.014-.2.028-.4.028-.6a7.036,7.036,0,0,0-2.98-5.749l7.866-18.558a7.621,7.621,0,0,0,.853.056m-3.8-1.12L96.085,47.828a6.963,6.963,0,0,0-7.75,4.475L55.8,44.81a6.845,6.845,0,0,0-.147-1.4L101.82,27.333a7.058,7.058,0,0,0,2.081,2.06M65.456,14.082a7.041,7.041,0,0,0,6.911-5.711A57.971,57.971,0,0,1,101.68,19.835a7,7,0,0,0-1.018,3.636,7.392,7.392,0,0,0,.067.93l-46.4,16.153a7.062,7.062,0,0,0-1.274-1.274L65.228,14.072c.077,0,.151.011.228.011M58.608,8.649a7.043,7.043,0,0,0,3.542,4.609L50.219,37.965a7.061,7.061,0,0,0-1.453-.151,6.99,6.99,0,0,0-4.012,1.26L30.611,27.263a7,7,0,0,0-.239-6.48A58.017,58.017,0,0,1,58.608,8.649m-44.7,55.54L43.16,49.1a7.015,7.015,0,0,0,5.549,2.791L58.734,83.936a7.157,7.157,0,0,0-1.551,1.716L13.823,67.586a6.994,6.994,0,0,0,.26-1.867,7.076,7.076,0,0,0-.172-1.53M20.818,30.4a7.036,7.036,0,0,0,7.859-.67L42.64,41.387a7.022,7.022,0,0,0-.776,4.865L12.566,61.36a7.039,7.039,0,0,0-3.728-2.443A57.992,57.992,0,0,1,20.818,30.4m2.913,70.265a7.02,7.02,0,0,0-3.5.934A57.94,57.94,0,0,1,8.677,72.56a7.047,7.047,0,0,0,3.654-2.2L56.122,88.6a7.55,7.55,0,0,0-.056.846,7.04,7.04,0,0,0,.421,2.38L30,104.516a7.04,7.04,0,0,0-6.272-3.854M58.671,124.1A58.075,58.075,0,0,1,29.7,111.424a6.967,6.967,0,0,0,1.074-3.721l0-.081L58.19,94.481a7.041,7.041,0,0,0,2.485,1.569l1.643,23.612a7.041,7.041,0,0,0-3.647,4.437m2.917-41.521L51.777,51.212a7.051,7.051,0,0,0,3.345-3.345l32.795,7.55a7,7,0,0,0,1.12,3.2L66.544,83.3a6.954,6.954,0,0,0-4.956-.727m10.723,41.794a7.039,7.039,0,0,0-6.855-5.455l-.053,0L63.841,96.453a7.028,7.028,0,0,0,4.3-2.088l32.788,14.462c0,.063-.011.119-.011.183a7.006,7.006,0,0,0,1.042,3.672,57.968,57.968,0,0,1-29.653,11.692m29.411-18.617L69.787,91.666a7,7,0,0,0-.923-6.262L91.29,60.787a7,7,0,0,0,3.633,1.018,7.75,7.75,0,0,0,.863-.056l8.382,41.335a7.025,7.025,0,0,0-2.447,2.671m10.1-2.633a7,7,0,0,0-4.679-1.106L98.759,60.665a7.069,7.069,0,0,0,2.218-2.317l17.972,6.739a6.245,6.245,0,0,0-.032.632,7.039,7.039,0,0,0,5.658,6.9,58.016,58.016,0,0,1-12.752,30.5" transform="translate(0 0.001)" fill="#1e535a"/>
        </g>
      </g>
    </g>
    <g id="Elipse_13614" data-name="Elipse 13614" transform="translate(210.273 4348.213)" fill="#fff" stroke="#1e535a" stroke-width="3">
      <ellipse cx="42.232" cy="42.233" rx="42.232" ry="42.233" stroke="none"/>
      <ellipse cx="42.232" cy="42.233" rx="40.732" ry="40.733" fill="none"/>
    </g>
    <g id="Grupo_1211573" data-name="Grupo 1211573" transform="translate(227.248 4364.046)">
      <g id="Grupo_1211572" data-name="Grupo 1211572" clip-path="url(#clip-path-2)">
        <path id="Trazado_1274186" data-name="Trazado 1274186" d="M108.51,219.864a40.9,40.9,0,0,0-4.869-.114c-1.066-.058-.829,1.227-.992,1.753l-7-.006-.008-11.265,20.466-.016,0,11.295-7.091-.036c-.008-.5.129-1.5-.51-1.611" transform="translate(-80.444 -176.816)" fill="#1e535a"/>
        <path id="Trazado_1274187" data-name="Trazado 1274187" d="M95.033,287.15H64.947a5.78,5.78,0,0,1-.01-1.688l13.61-.008L78.605,281l2.815.011.052,4.446,13.569.006a4.877,4.877,0,0,1-.008,1.689" transform="translate(-54.572 -236.351)" fill="#1e535a"/>
        <path id="Trazado_1274188" data-name="Trazado 1274188" d="M179.847,252.347l7.906-.024a.834.834,0,0,0,.813-.8l.049-6.7a10.6,10.6,0,0,1,2.526,8.549l-11.273,0a1.958,1.958,0,0,1-.021-1.018" transform="translate(-151.226 -205.92)" fill="#1e535a"/>
        <path id="Trazado_1274189" data-name="Trazado 1274189" d="M79.626,252.5c.222.07.2.819.028.99L68.4,253.5a10.763,10.763,0,0,1,2.515-8.524l.056,6.518a.9.9,0,0,0,.952.962Z" transform="translate(-57.47 -206.057)" fill="#1e535a"/>
        <path id="Trazado_1274190" data-name="Trazado 1274190" d="M9.769,100.539a2.62,2.62,0,0,1-5.155.024c-2.071-.691-1.127-2.279-1.585-2.722-1.04-1.006-.218-1.609-1.209-2.631A6.407,6.407,0,0,1,.228,89,7.149,7.149,0,0,1,7.69,83.677,7.1,7.1,0,0,1,14.3,89.884,6.157,6.157,0,0,1,12.724,95c-1.334,1.4-.183,1.6-1.581,3.183a1.866,1.866,0,0,1-1.374,2.357m.456-4.061a4.062,4.062,0,0,1,1.088-2.4,4.77,4.77,0,0,0,1.2-4.628,5.466,5.466,0,0,0-5.591-4.095,5.426,5.426,0,0,0-5.145,4.54c-.554,3.729,1.946,3.644,2.416,6.59Z" transform="translate(0 -70.369)" fill="#1e535a"/>
        <path id="Trazado_1274191" data-name="Trazado 1274191" d="M244.6,109.985l-11.8.01a.935.935,0,0,1-.987-.941v-13.8a.921.921,0,0,1,.984-.911l10.335.022a22.864,22.864,0,0,1,2.35,2.361l.013,12.33a.912.912,0,0,1-.893.932m-7.9-5.069a.814.814,0,0,0,1.207.028l4.36-4.841a.884.884,0,0,0,.038-1.109.848.848,0,0,0-1.15-.124l-3.784,4.107c-.75-.617-1.121-2.065-2.2-1.447a.853.853,0,0,0-.221,1.11c.538.784,1.112,1.49,1.756,2.276" transform="translate(-194.978 -79.352)" fill="#1e535a"/>
        <path id="Trazado_1274192" data-name="Trazado 1274192" d="M113.628,107.749a18.863,18.863,0,0,1-2.619,2.362,9.6,9.6,0,0,0,1.562,5.366,8.141,8.141,0,0,1-1.888.016,11.886,11.886,0,0,1-1.447-6.248c.05-3.518.145-7.708,4.28-9.025a13.14,13.14,0,0,1,7.087-.156,5.749,5.749,0,0,1,4.371,4.513c.682,3.131.741,8.115-1.038,10.926a9.516,9.516,0,0,1-1.922-.033,9.183,9.183,0,0,0,1.561-4.444,9.888,9.888,0,0,1-9.947-3.277" transform="translate(-91.879 -83.819)" fill="#1e535a"/>
        <path id="Trazado_1274193" data-name="Trazado 1274193" d="M126.816,12.608c-.106.4-1.308.34-1.6.1-.157-.764-.369-1.319-1.157-1.577a1.58,1.58,0,0,0-1.885.386,3.267,3.267,0,0,1-1.215-1.233,1.571,1.571,0,0,0,.355-1.929c-.252-.734-.783-.941-1.514-1.089a1.533,1.533,0,0,1,.03-1.617,1.834,1.834,0,0,0,1.5-1.1,2.08,2.08,0,0,0-.222-1.924c-.137-.371.678-1.1,1.058-1.138a1.9,1.9,0,0,0,1.929.3c.734-.3.907-.783,1.13-1.495.167-.362,1.409-.395,1.566-.011.258.632.351,1.168,1.034,1.451a1.789,1.789,0,0,0,2.042-.277,2,2,0,0,1,1.142,1.172,1.675,1.675,0,0,0-.32,1.873,1.69,1.69,0,0,0,1.531,1.128c.337.308.165,1.155.114,1.667A1.639,1.639,0,0,0,130.657,8.5,1.7,1.7,0,0,0,131,10.3a1.844,1.844,0,0,1-1.154,1.127,1.769,1.769,0,0,0-1.9-.285,1.743,1.743,0,0,0-1.13,1.464M128.5,6.455a2.486,2.486,0,1,0-2.486,2.486A2.486,2.486,0,0,0,128.5,6.455" transform="translate(-100.585 0)" fill="#1e535a"/>
      </g>
    </g>
  </g>
</svg>
