<svg xmlns="http://www.w3.org/2000/svg" xmlns:xlink="http://www.w3.org/1999/xlink" width="133" height="133" viewBox="0 0 133 133">
  <defs>
    <clipPath id="clip-path">
      <rect id="Rectángulo_454829" data-name="Rectángulo 454829" width="133" height="133" fill="#1e535a"/>
    </clipPath>
    <clipPath id="clip-path-2">
      <rect id="Rectángulo_464413" data-name="Rectángulo 464413" width="55.386" height="55.398" fill="#1e535a"/>
    </clipPath>
  </defs>
  <g id="Grupo_1211076" data-name="Grupo 1211076" transform="translate(-186 -4323.945)">
    <g id="Grupo_1177591" data-name="Grupo 1177591" transform="translate(186 4323.945)">
      <g id="Grupo_1177589" data-name="Grupo 1177589" transform="translate(0 0)">
        <g id="Grupo_1177587" data-name="Grupo 1177587" clip-path="url(#clip-path)">
          <path id="Trazado_997422" data-name="Trazado 997422" d="M127.57,58.867a61.147,61.147,0,0,0-13.812-31.819,7.032,7.032,0,0,0-9.895-9.474A61.057,61.057,0,0,0,72.251,5.223,7.034,7.034,0,0,0,58.59,5.5,61.141,61.141,0,0,0,28.26,18.467,7.036,7.036,0,0,0,18.495,28.3,61.09,61.09,0,0,0,5.7,58.808a7.039,7.039,0,0,0-.168,13.784,61.072,61.072,0,0,0,12.4,31.127,7.035,7.035,0,0,0,9.558,9.934,61.136,61.136,0,0,0,31.05,13.58,7.036,7.036,0,0,0,13.784.277,61.084,61.084,0,0,0,31.843-12.58,7.034,7.034,0,0,0,9.846-9.523,61.162,61.162,0,0,0,13.728-32.882,7.036,7.036,0,0,0-.165-13.658M107.7,30.513a7,7,0,0,0,3.9-1.179A58.067,58.067,0,0,1,124.414,58.85a7.046,7.046,0,0,0-4.5,3.257l-17.982-6.743c.014-.2.028-.4.028-.6a7.036,7.036,0,0,0-2.98-5.749l7.866-18.558a7.621,7.621,0,0,0,.853.056m-3.8-1.12L96.085,47.828a6.963,6.963,0,0,0-7.75,4.475L55.8,44.81a6.845,6.845,0,0,0-.147-1.4L101.82,27.333a7.058,7.058,0,0,0,2.081,2.06M65.456,14.082a7.041,7.041,0,0,0,6.911-5.711A57.971,57.971,0,0,1,101.68,19.835a7,7,0,0,0-1.018,3.636,7.392,7.392,0,0,0,.067.93l-46.4,16.153a7.062,7.062,0,0,0-1.274-1.274L65.228,14.072c.077,0,.151.011.228.011M58.608,8.649a7.043,7.043,0,0,0,3.542,4.609L50.219,37.965a7.061,7.061,0,0,0-1.453-.151,6.99,6.99,0,0,0-4.012,1.26L30.611,27.263a7,7,0,0,0-.239-6.48A58.017,58.017,0,0,1,58.608,8.649m-44.7,55.54L43.16,49.1a7.015,7.015,0,0,0,5.549,2.791L58.734,83.936a7.157,7.157,0,0,0-1.551,1.716L13.823,67.586a6.994,6.994,0,0,0,.26-1.867,7.076,7.076,0,0,0-.172-1.53M20.818,30.4a7.036,7.036,0,0,0,7.859-.67L42.64,41.387a7.022,7.022,0,0,0-.776,4.865L12.566,61.36a7.039,7.039,0,0,0-3.728-2.443A57.992,57.992,0,0,1,20.818,30.4m2.913,70.265a7.02,7.02,0,0,0-3.5.934A57.94,57.94,0,0,1,8.677,72.56a7.047,7.047,0,0,0,3.654-2.2L56.122,88.6a7.55,7.55,0,0,0-.056.846,7.04,7.04,0,0,0,.421,2.38L30,104.516a7.04,7.04,0,0,0-6.272-3.854M58.671,124.1A58.075,58.075,0,0,1,29.7,111.424a6.967,6.967,0,0,0,1.074-3.721l0-.081L58.19,94.481a7.041,7.041,0,0,0,2.485,1.569l1.643,23.612a7.041,7.041,0,0,0-3.647,4.437m2.917-41.521L51.777,51.212a7.051,7.051,0,0,0,3.345-3.345l32.795,7.55a7,7,0,0,0,1.12,3.2L66.544,83.3a6.954,6.954,0,0,0-4.956-.727m10.723,41.794a7.039,7.039,0,0,0-6.855-5.455l-.053,0L63.841,96.453a7.028,7.028,0,0,0,4.3-2.088l32.788,14.462c0,.063-.011.119-.011.183a7.006,7.006,0,0,0,1.042,3.672,57.968,57.968,0,0,1-29.653,11.692m29.411-18.617L69.787,91.666a7,7,0,0,0-.923-6.262L91.29,60.787a7,7,0,0,0,3.633,1.018,7.75,7.75,0,0,0,.863-.056l8.382,41.335a7.025,7.025,0,0,0-2.447,2.671m10.1-2.633a7,7,0,0,0-4.679-1.106L98.759,60.665a7.069,7.069,0,0,0,2.218-2.317l17.972,6.739a6.245,6.245,0,0,0-.032.632,7.039,7.039,0,0,0,5.658,6.9,58.016,58.016,0,0,1-12.752,30.5" transform="translate(0 0.001)" fill="#1e535a"/>
        </g>
      </g>
    </g>
    <g id="Elipse_13614" data-name="Elipse 13614" transform="translate(210.273 4348.213)" fill="#fff" stroke="#1e535a" stroke-width="3">
      <ellipse cx="42.232" cy="42.233" rx="42.232" ry="42.233" stroke="none"/>
      <ellipse cx="42.232" cy="42.233" rx="40.732" ry="40.733" fill="none"/>
    </g>
    <g id="Grupo_1211571" data-name="Grupo 1211571" transform="translate(224.812 4362.746)">
      <g id="Grupo_1211570" data-name="Grupo 1211570" clip-path="url(#clip-path-2)">
        <path id="Trazado_1274182" data-name="Trazado 1274182" d="M87.313,170.16c-1.55.052-3.068.058-4.552.005a1.725,1.725,0,0,1-1.553-2.08,21.718,21.718,0,0,1-3.114-1.317,1.733,1.733,0,0,1-2.47.477c-1.135-1-2.127-2.1-3.211-3.165a1.67,1.67,0,0,1,.316-2.621,19.311,19.311,0,0,1-1.268-3.168,2.218,2.218,0,0,1-1.586-.408,1.859,1.859,0,0,1-.573-1.368l.014-4.157c0-1.177,1-1.722,2.169-1.687a22.306,22.306,0,0,1,1.193-3.08c-.289-.417-.725-.83-.758-1.253a1.8,1.8,0,0,1,.555-1.493l3.045-3.011a1.717,1.717,0,0,1,2.587.413l2.993-1.416c.266-.632.275-1.89,1.361-1.938,1.653-.072,3.428-.082,5.087,0,1.12.056,1.094,1.363,1.381,1.989l2.979,1.35a1.722,1.722,0,0,1,2.58-.4l3.045,3.012a1.86,1.86,0,0,1,.569,1.354c.01.493-.447.944-.775,1.4.395.981.936,2.049,1.256,3.127a1.756,1.756,0,0,1,2.121,1.806l-.019,4.156a1.7,1.7,0,0,1-2.132,1.584,20.218,20.218,0,0,1-1.27,3.2,1.655,1.655,0,0,1,.39,2.52c-1.084,1.12-2.134,2.231-3.293,3.269a1.73,1.73,0,0,1-2.474-.487c-.927.592-2.057.828-3,1.346-.2.8-.34,2.01-1.588,2.052M90.4,154.5a5.4,5.4,0,1,0-5.4,5.4,5.4,5.4,0,0,0,5.4-5.4" transform="translate(-57.307 -114.803)" fill="#1e535a"/>
        <path id="Trazado_1274183" data-name="Trazado 1274183" d="M132.993,20.811c-2.16-.037-4.279-.093-6.509.024l-.025-11.975c-.965-.288-2.179.275-2.847-.916a1.638,1.638,0,0,1,.208-1.921l4.626-5.4a1.644,1.644,0,0,1,2.573,0l4.7,5.5a1.592,1.592,0,0,1,.136,1.816c-.659,1.206-1.87.628-2.851.919Z" transform="translate(-102.035 0)" fill="#1e535a"/>
        <path id="Trazado_1274184" data-name="Trazado 1274184" d="M14.779,81.755l-.093-4.436-5.85,0c-.181,1,.261,2.449-1.072,2.977A1.665,1.665,0,0,1,6,79.966L.51,75.234a1.592,1.592,0,0,1,.061-2.387l5.482-4.7a1.657,1.657,0,0,1,1.85-.217c1.222.56.71,2.054.953,2.892l6.554.091c3.923.054,6.645,4.6,5.7,8.783-2.877-.821-4.173-.014-6.334,2.061" transform="translate(0 -56.018)" fill="#1e535a"/>
        <path id="Trazado_1274185" data-name="Trazado 1274185" d="M203.57,77.3l-.086,4.492c-2.116-2.061-3.321-2.908-6.384-2.119-.871-4.318,1.878-8.714,5.733-8.767l6.555-.09c.25-.834-.26-2.211.843-2.831a1.656,1.656,0,0,1,1.959.152l5.48,4.7a1.621,1.621,0,0,1-.017,2.479l-5.4,4.638a1.663,1.663,0,0,1-1.881.288c-1.252-.614-.743-1.952-.977-2.926Z" transform="translate(-162.851 -56.008)" fill="#1e535a"/>
      </g>
    </g>
  </g>
</svg>
