<svg xmlns="http://www.w3.org/2000/svg" xmlns:xlink="http://www.w3.org/1999/xlink" width="85" height="85" viewBox="0 0 85 85">
  <defs>
    <clipPath id="clip-path">
      <rect id="Rectángulo_464341" data-name="Rectángulo 464341" width="63.459" height="53.003" fill="#344866"/>
    </clipPath>
  </defs>
  <g id="Grupo_1211068" data-name="Grupo 1211068" transform="translate(-179.734 -5520.842)">
    <rect id="Rectángulo_402006" data-name="Rectángulo 402006" width="85" height="85" rx="5" transform="translate(179.734 5520.842)" fill="#69d7e5"/>
    <g id="Grupo_1211479" data-name="Grupo 1211479" transform="translate(190.505 5538.842)">
      <g id="Grupo_1211478" data-name="Grupo 1211478" clip-path="url(#clip-path)">
        <path id="Trazado_1273967" data-name="Trazado 1273967" d="M44.929,28.1a1.022,1.022,0,0,0,1.289.9c.27-.042.577.073.794-.119a1.945,1.945,0,0,0,.387-.775,1.814,1.814,0,0,1,2.505-1.3l2.78,1.166A1.872,1.872,0,0,1,53.743,29c.424,1.121-.509,2.041-.468,2.574A4.737,4.737,0,0,0,54.34,32.7c.4.181,2.642-1.5,3.512.373a32.852,32.852,0,0,1,1.37,3.381c.59,1.755-1.8,2.288-2.1,2.487-.285.186-.235,1.579-.063,1.8.152.2,2.892.777,2.1,2.709l-1.238,3.006a2.876,2.876,0,0,0,3.671-2.735l.032-11.468a.882.882,0,0,1,.94-.912.929.929,0,0,1,.887.928l.009,11.3a4.8,4.8,0,0,1-4.775,4.876c-1.8.038-3.531-.076-5.418.081.6,1.055.759,2.352-.308,2.948-.979.547-2.048.85-3.062,1.314a1.821,1.821,0,0,1-1.7-.009c-.864-.479-.943-1.637-1.3-2.051-.181-.211-1.579-.121-1.66-.063-.311.222-.514,1.559-1.21,1.993A1.82,1.82,0,0,1,42.3,52.8l-2.515-1.041a2.142,2.142,0,0,1-1.375-1.28,3.24,3.24,0,0,1,.376-2L4.609,48.428A4.668,4.668,0,0,1,0,43.764V4.713A4.67,4.67,0,0,1,4.612.044L40.212,0a.951.951,0,0,1,1.046.841A.93.93,0,0,1,40.215,1.9l-35.642.02a2.8,2.8,0,0,0-2.721,2.81l0,5.883,59.7,0c.1-1.955.061-3.859.035-5.893a2.779,2.779,0,0,0-2.514-2.772L45.215,1.892a.948.948,0,0,1-1-.9A.971.971,0,0,1,45.1.021L58.838.048a4.645,4.645,0,0,1,4.6,4.658l.025,22.786a.922.922,0,0,1-.91.981.889.889,0,0,1-.934-.973l-.045-15.045-59.729,0,0,31.248a2.906,2.906,0,0,0,3.1,2.88l29.334-.01c-.341-1.171-.88-2.169-1.269-3.272-.68-1.932,1.73-2.407,2.072-2.629.32-.208.233-1.589.054-1.806-.141-.171-2.825-.841-2.123-2.559l1.246-3.049a1.927,1.927,0,0,1,1.044-1.1c1.146-.383,1.884.447,2.462.481.345.021,1.223-1.005,1.241-1.118.08-.5-1.426-2.522.265-3.4,1.019-.529,2.109-.9,3.183-1.338a1.784,1.784,0,0,1,2.47,1.32m6.89,21.823-.706-1.766c-.42-1.052.885-1.249,2.126-2.918.773-1.041,2.1.354,3,.325L57.318,43l-2.294-1.185.043-3.939,2.281-1.1a18.449,18.449,0,0,0-1.106-2.664c-.891.171-2.187,1.243-2.828.456a11.146,11.146,0,0,0-1.866-1.9c-1.029-.789.191-1.878.348-2.974a16.215,16.215,0,0,0-2.689-1.08c-.442.681-.453,1.765-1.138,2.143-.814.449-1.928-.074-2.848.147-1.656.4-1.483-1.6-2.223-2.344l-2.588,1.081c.215,1.127,1.317,2.188.351,2.946a9.253,9.253,0,0,0-1.775,1.763c-.813,1.093-2.151-.366-3.028-.314l-1.074,2.581L37.178,37.8l-.053,3.964-2.263,1.082,1.068,2.671c.738-.069,2.208-1.263,2.865-.472a8.894,8.894,0,0,0,1.764,1.787c1.188.815-.095,2.02-.244,3.081l2.622,1.115,1.127-2.272,4,.043,1.116,2.27a20.813,20.813,0,0,0,2.638-1.141" transform="translate(0 0)" fill="#344866"/>
        <path id="Trazado_1273968" data-name="Trazado 1273968" d="M31.9,79.6l13.871.03a2.106,2.106,0,0,1,1.971,2.165v9.733a2.185,2.185,0,0,1-2.19,2.2l-20.793.012a2.215,2.215,0,0,1-2.285-2.217l0-9.728a2.185,2.185,0,0,1,2.259-2.2l2.38.013a.914.914,0,0,1,.179,1.813l-2.913.086,0,10.357,21.465.019.033-10.4-13.98-.038a.926.926,0,0,1,0-1.851" transform="translate(-18.011 -63.809)" fill="#344866"/>
        <path id="Trazado_1273969" data-name="Trazado 1273969" d="M102.137,176.177l-6.415.007a2.216,2.216,0,0,1-2.288-2.2l0-6.8a2.146,2.146,0,0,1,2.091-2.2h6.727a2.151,2.151,0,0,1,2.11,2.131l.018,6.906a2.26,2.26,0,0,1-2.24,2.161m.336-9.332H95.266V174.3h7.206Z" transform="translate(-74.899 -132.255)" fill="#344866"/>
        <path id="Trazado_1273970" data-name="Trazado 1273970" d="M187.791,106.768l-24,.012a.965.965,0,0,1-1.049-.855.925.925,0,0,1,.867-1.023l24.133-.007a.966.966,0,0,1,.95.866.93.93,0,0,1-.9,1.008" transform="translate(-130.463 -84.089)" fill="#344866"/>
        <path id="Trazado_1273971" data-name="Trazado 1273971" d="M178.666,86.771l-14.893.022a.973.973,0,0,1-1.039-.851.925.925,0,0,1,.862-1.025h15a.926.926,0,0,1,.857.85c.029.318-.2,1-.792,1" transform="translate(-130.453 -68.075)" fill="#344866"/>
        <path id="Trazado_1273972" data-name="Trazado 1273972" d="M35.787,171.757l-8.5-.016a.935.935,0,0,1,0-1.869l8.493-.012a.957.957,0,0,1,1.04.856.943.943,0,0,1-1.037,1.042" transform="translate(-21.13 -136.168)" fill="#344866"/>
        <path id="Trazado_1273973" data-name="Trazado 1273973" d="M35.789,191.8l-8.5-.008a.971.971,0,0,1-.927-.866.961.961,0,0,1,.929-1.007l8.493-.011a.947.947,0,0,1,1.038.848.938.938,0,0,1-1.035,1.043" transform="translate(-21.132 -152.241)" fill="#344866"/>
        <path id="Trazado_1273974" data-name="Trazado 1273974" d="M265.535,86.757l-4.81.024a.947.947,0,0,1-1.04-.829.9.9,0,0,1,.863-1.037l4.93-.009a.958.958,0,0,1,.931.859.919.919,0,0,1-.874.99" transform="translate(-208.173 -68.067)" fill="#344866"/>
        <path id="Trazado_1273975" data-name="Trazado 1273975" d="M34.443,24.594a1.71,1.71,0,1,1-1.71-1.71,1.71,1.71,0,0,1,1.71,1.71" transform="translate(-24.869 -18.345)" fill="#344866"/>
        <path id="Trazado_1273976" data-name="Trazado 1273976" d="M87.874,24.592a1.711,1.711,0,1,1-1.711-1.711,1.711,1.711,0,0,1,1.711,1.711" transform="translate(-67.702 -18.343)" fill="#344866"/>
        <path id="Trazado_1273977" data-name="Trazado 1273977" d="M61.163,24.59a1.711,1.711,0,1,1-1.711-1.711,1.711,1.711,0,0,1,1.711,1.711" transform="translate(-46.288 -18.341)" fill="#344866"/>
        <path id="Trazado_1273978" data-name="Trazado 1273978" d="M214.357,176.7a5.946,5.946,0,1,1-5.946-5.946,5.946,5.946,0,0,1,5.946,5.946m-1.862,0a4.086,4.086,0,1,0-4.086,4.086A4.086,4.086,0,0,0,212.5,176.7" transform="translate(-162.307 -136.885)" fill="#344866"/>
        <path id="Trazado_1273979" data-name="Trazado 1273979" d="M228.395,195.343a1.333,1.333,0,1,1-1.333-1.333,1.333,1.333,0,0,1,1.333,1.333" transform="translate(-180.955 -155.529)" fill="#344866"/>
      </g>
    </g>
  </g>
</svg>
