<svg xmlns="http://www.w3.org/2000/svg" xmlns:xlink="http://www.w3.org/1999/xlink" width="85" height="85" viewBox="0 0 85 85">
  <defs>
    <clipPath id="clip-path">
      <rect id="Rectángulo_464321" data-name="Rectángulo 464321" width="58.763" height="58.724" fill="#344866"/>
    </clipPath>
  </defs>
  <g id="Grupo_1210976" data-name="Grupo 1210976" transform="translate(-179.734 -5520.842)">
    <rect id="Rectángulo_402006" data-name="Rectángulo 402006" width="85" height="85" rx="5" transform="translate(179.734 5520.842)" fill="#69d7e5"/>
    <g id="Grupo_1211467" data-name="Grupo 1211467" transform="translate(192.853 5533.98)">
      <g id="Grupo_1211466" data-name="Grupo 1211466" clip-path="url(#clip-path)">
        <path id="Trazado_1273903" data-name="Trazado 1273903" d="M167.821,18.171a11.94,11.94,0,0,1-3.26,3.354l-.032,7.658a17.238,17.238,0,0,1-2.209.079l-.061,4.363-8.58,0-.071-4.342-2.256-.1-.037-7.689a11.772,11.772,0,1,1,17.433-5.048,3.961,3.961,0,0,1-1.562-.7,10.05,10.05,0,1,0-14.116,4.8l.04,2.879h9.683l.071-2.879a11.446,11.446,0,0,0,3.551-3.314,9.337,9.337,0,0,1,1.405.929M153.087,27.55h9.772V25.182h-9.772Zm7.442,1.7h-5.176v2.683h5.176Z" transform="translate(-119.329 0.001)" fill="#344866"/>
        <path id="Trazado_1273904" data-name="Trazado 1273904" d="M184.891,54.384a5.2,5.2,0,0,1,1.2-1.2l2.7,2.618,4.2-4.155a3.9,3.9,0,0,1,1.232,1.188l-5.431,5.419Z" transform="translate(-150.934 -42.164)" fill="#344866"/>
        <path id="Trazado_1273905" data-name="Trazado 1273905" d="M109.088,62.977l-5.083.041a6.221,6.221,0,0,1,.006-1.743h5.05a5.3,5.3,0,0,1,.027,1.7" transform="translate(-84.857 -50.02)" fill="#344866"/>
        <rect id="Rectángulo_464317" data-name="Rectángulo 464317" width="5.171" height="1.767" transform="translate(50.796 4.826) rotate(-30.051)" fill="#344866"/>
        <rect id="Rectángulo_464318" data-name="Rectángulo 464318" width="1.777" height="5.17" transform="translate(21.426 3.183) rotate(-59.897)" fill="#344866"/>
        <rect id="Rectángulo_464319" data-name="Rectángulo 464319" width="5.167" height="1.74" transform="matrix(0.866, -0.499, 0.499, 0.866, 21.108, 21.18)" fill="#344866"/>
        <rect id="Rectángulo_464320" data-name="Rectángulo 464320" width="1.737" height="5.169" transform="translate(50.459 20.686) rotate(-60.019)" fill="#344866"/>
        <path id="Trazado_1273906" data-name="Trazado 1273906" d="M293.574,66.737l-5-.015a3.191,3.191,0,0,1,.01-1.681l4.968,0a3.9,3.9,0,0,1,.019,1.693" transform="translate(-235.49 -53.095)" fill="#344866"/>
        <path id="Trazado_1273907" data-name="Trazado 1273907" d="M13.721,195.819h-12l0,18.954H13.713l.042-10.341a4.818,4.818,0,0,1,1.673,0l.05,7.367,5.3.063,21.053,2.216,6.881-5.566a6.356,6.356,0,0,1,1.072,1.306l-7.407,6.06L20.6,213.588l-5.136-.03-.049,2.92-15.411.009L0,194.084l15.41.007.071,2.755c.663-.074,1.642.234,2.258-.073,3.91-3.4,8.6-3.707,13.141-1.142l5.733-2.152a3.675,3.675,0,0,1,4.649,2.208,3.8,3.8,0,0,1-1.964,4.857l-5.906,2.542,7.868,2.3,3.984-8.479a3.46,3.46,0,0,1,4.264-2.038,3.411,3.411,0,0,1,2.124,4.321,12.118,12.118,0,0,0,1.941-1.1,3.407,3.407,0,0,1,4.6.91,3.447,3.447,0,0,1-.846,4.709l-6.1,4.95a4.779,4.779,0,0,1-1.093-1.318l6.271-5.135a1.634,1.634,0,0,0-1.946-2.625L41.72,207.3l-13.675-3.88L38.513,199a2.081,2.081,0,0,0,1.158-2.634,2.042,2.042,0,0,0-2.638-1.23l-6.321,2.413c-4.328-2.755-8.547-2.608-12.328.95-.689.476-1.936-.054-2.858.131l-.1,3.883a2.84,2.84,0,0,1-1.674.014Zm35.64,4.837.641-2.13a1.625,1.625,0,0,0-.94-1.973,1.67,1.67,0,0,0-2.155.9l-2.953,6.429Z" transform="translate(0 -157.764)" fill="#344866"/>
        <path id="Trazado_1273908" data-name="Trazado 1273908" d="M30.779,263.528a3.285,3.285,0,1,1-3.285-3.285,3.285,3.285,0,0,1,3.285,3.285m-1.728,0A1.553,1.553,0,1,0,27.5,265.08a1.553,1.553,0,0,0,1.553-1.553" transform="translate(-19.762 -212.447)" fill="#344866"/>
      </g>
    </g>
  </g>
</svg>
