<svg xmlns="http://www.w3.org/2000/svg" xmlns:xlink="http://www.w3.org/1999/xlink" width="85" height="85" viewBox="0 0 85 85">
  <defs>
    <clipPath id="clip-path">
      <rect id="Rectángulo_464294" data-name="Rectángulo 464294" width="54.003" height="53.862" fill="#344866"/>
    </clipPath>
  </defs>
  <g id="Grupo_1211607" data-name="Grupo 1211607" transform="translate(-289 -687.33)">
    <g id="Grupo_1211453" data-name="Grupo 1211453">
      <g id="Grupo_1208937" data-name="Grupo 1208937" transform="translate(109.266 -4833.512)">
        <rect id="Rectángulo_402006" data-name="Rectángulo 402006" width="85" height="85" rx="5" transform="translate(179.734 5520.842)" fill="#69d7e5"/>
      </g>
      <g id="Grupo_1211452" data-name="Grupo 1211452" transform="translate(304.499 702.899)">
        <g id="Grupo_1211451" data-name="Grupo 1211451" clip-path="url(#clip-path)">
          <path id="Trazado_1273836" data-name="Trazado 1273836" d="M18.83,47.965l.01-2.766-7.6-.067a.743.743,0,0,1-.739-.811.77.77,0,0,1,.82-.754l16.829-.01c.1-.724.019-1.349.06-2.03a1.634,1.634,0,0,1,2.018-1.482,1.719,1.719,0,0,0,.067-1.383l-28.67,0a23.493,23.493,0,0,0-.046,3,1.924,1.924,0,0,0,1.951,1.906l2.874,0a.771.771,0,0,1,.8.75.787.787,0,0,1-.862.827l-2.887,0A3.446,3.446,0,0,1,0,41.674L0,3.386A3.344,3.344,0,0,1,3.056,0H50.95A3.342,3.342,0,0,1,54,3.386l-.042,38.1a3.588,3.588,0,0,1-2.677,3.58,1.66,1.66,0,0,1-1.657,1.911l-14.464.007a1.111,1.111,0,0,0,0,.919,11.51,11.51,0,0,0,2.3.081,2.892,2.892,0,0,1,2.877,2.643c.049.632,0,1.251.013,1.887a1.285,1.285,0,0,1-1.375,1.346l-24.1,0c-1.566,0-1.336-1.985-1.254-3.229A2.8,2.8,0,0,1,16.373,48ZM52.351,9.109l0-5.74a1.844,1.844,0,0,0-1.915-1.844H3.567A1.844,1.844,0,0,0,1.65,3.375l.009,5.738ZM49.645,28.164a29.922,29.922,0,0,0-.037-3.769l-4.381-.035a.756.756,0,0,1-.75-.816.8.8,0,0,1,.758-.742l4.4-.012a1.621,1.621,0,0,1,1.645,1.678l0,3.554a1.746,1.746,0,0,1-.567,1.35,2.181,2.181,0,0,1-1.568.4,5.567,5.567,0,0,0,.006,1.627c.593.065,1.1,0,1.531.369a1.724,1.724,0,0,1,.6,1.316l.012,3.984a1.465,1.465,0,0,0,1.087-.114l0-26.263-50.795,0L1.563,37.076l26.633.013.024-4.321a1.617,1.617,0,0,1,2.034-1.307,3.1,3.1,0,0,0,.059-1.7,1.687,1.687,0,0,1-2.1-1.553l0-3.9a1.519,1.519,0,0,1,1.494-1.5l10.625,0a.818.818,0,0,1,.761.751.773.773,0,0,1-.751.816l-10.563.046.012,3.754Zm-17.695,1.6v1.677l15.533,0V29.764Zm17.723,3.222H29.763V36.8H49.674ZM31.951,38.367v1.657l15.532,0V38.369Zm19.413,4.951c1.5-.679.91-3.185.979-4.62a21.789,21.789,0,0,0-3.195.012c-.038.351-.211,1.141.127,1.241.584.173,1.111.1,1.5.508.836.874.308,1.825.587,2.859m-1.69-1.7H29.763v3.794H49.674Zm-16.31,5.4c-1.263-.063-2.375-.067-3.481-.021-1.186.05-1.552-.9-1.8-1.8l-7.623-.022a13.239,13.239,0,0,0,.049,2.816l12.87-.024c.232-.081.232-.936-.011-.948m5.362,3.595a1.282,1.282,0,0,0-1.274-1.044l-20.9-.006a1.318,1.318,0,0,0-1.343,1.1,4.983,4.983,0,0,0,.015,1.659l23.513-.007a5.565,5.565,0,0,0-.008-1.7" transform="translate(0 0.001)" fill="#344866"/>
          <path id="Trazado_1273837" data-name="Trazado 1273837" d="M155.214,94.232l-16.587.022a.8.8,0,0,1-.888-.762c-.023-.485.344-.808.895-.808l16.52.008a.758.758,0,0,1,.775.654.773.773,0,0,1-.714.887" transform="translate(-114.485 -77.037)" fill="#344866"/>
          <path id="Trazado_1273838" data-name="Trazado 1273838" d="M82.376,137.388l-9.281,0a.769.769,0,0,1-.8-.76.733.733,0,0,1,.789-.778l9.281-.007a.759.759,0,0,1,.83.769.782.782,0,0,1-.823.779" transform="translate(-60.093 -112.908)" fill="#344866"/>
          <path id="Trazado_1273839" data-name="Trazado 1273839" d="M60.937,157l-6.583.008a.848.848,0,0,1-.929-.772.806.806,0,0,1,.822-.825l6.665,0a.8.8,0,0,1,.819.7.792.792,0,0,1-.795.89" transform="translate(-44.404 -129.174)" fill="#344866"/>
          <path id="Trazado_1273840" data-name="Trazado 1273840" d="M189,114.734l-6.78.015a.806.806,0,0,1-.78-.72.818.818,0,0,1,.791-.871h6.715a.823.823,0,0,1,.784.755.788.788,0,0,1-.73.82" transform="translate(-150.803 -94.055)" fill="#344866"/>
          <path id="Trazado_1273841" data-name="Trazado 1273841" d="M22.853,82.2c.571.98,2.725,2.053,1.873,3.007a.777.777,0,0,1-1.141.022L21.152,82.8a.857.857,0,0,1,.026-1.209l2.456-2.429a.783.783,0,0,1,1.106.062.831.831,0,0,1-.073,1.114Z" transform="translate(-17.384 -65.632)" fill="#344866"/>
          <path id="Trazado_1273842" data-name="Trazado 1273842" d="M72.1,85.159a.829.829,0,0,1-1.1.169.785.785,0,0,1-.117-1.158l1.881-1.963-1.852-1.9a.818.818,0,0,1-.035-1.083A.8.8,0,0,1,72,79.2l2.441,2.443a.825.825,0,0,1-.028,1.192Z" transform="translate(-58.742 -65.645)" fill="#344866"/>
          <path id="Trazado_1273843" data-name="Trazado 1273843" d="M117.408,176.551l-6.828.018a.8.8,0,1,1,0-1.59l6.727,0a.817.817,0,0,1,.843.641.762.762,0,0,1-.748.929" transform="translate(-91.174 -145.44)" fill="#344866"/>
          <path id="Trazado_1273844" data-name="Trazado 1273844" d="M109.931,114.667l-5.508.02a.815.815,0,1,1-.009-1.616l5.4,0a.808.808,0,0,1,.877.739.757.757,0,0,1-.758.852" transform="translate(-86.025 -93.983)" fill="#344866"/>
          <path id="Trazado_1273845" data-name="Trazado 1273845" d="M49.29,84.948a.8.8,0,0,1-.966.512.791.791,0,0,1-.515-1.034l1.906-4.861a.815.815,0,0,1,.984-.54.782.782,0,0,1,.5,1.048Z" transform="translate(-39.692 -65.662)" fill="#344866"/>
          <path id="Trazado_1273846" data-name="Trazado 1273846" d="M251.943,152.56l-5.316.03a.786.786,0,0,1-.882-.812.776.776,0,0,1,.876-.743l5.235.008a.746.746,0,0,1,.769.617.718.718,0,0,1-.683.9" transform="translate(-204.26 -125.537)" fill="#344866"/>
          <path id="Trazado_1273847" data-name="Trazado 1273847" d="M68.325,176.585l-5.331.013a.786.786,0,1,1,.023-1.571h5.2a.768.768,0,0,1,.794.62.736.736,0,0,1-.69.938" transform="translate(-51.694 -145.48)" fill="#344866"/>
          <path id="Trazado_1273848" data-name="Trazado 1273848" d="M29.687,137.389l-5.155.018a.793.793,0,0,1-.888-.778c-.013-.49.329-.777.888-.776l5.075,0a.766.766,0,0,1,.862.629.752.752,0,0,1-.781.9" transform="translate(-19.652 -112.918)" fill="#344866"/>
          <path id="Trazado_1273849" data-name="Trazado 1273849" d="M28.508,176.538l-3.967.022a.792.792,0,0,1-.893-.819.805.805,0,0,1,.9-.771l3.861.007a.827.827,0,0,1,.829.629.759.759,0,0,1-.735.932" transform="translate(-19.656 -145.432)" fill="#344866"/>
          <path id="Trazado_1273850" data-name="Trazado 1273850" d="M188.568,152.6l-3.723,0a.76.76,0,0,1-.827-.78.8.8,0,0,1,.835-.757l3.712,0a.764.764,0,0,1,.806.754.742.742,0,0,1-.8.774" transform="translate(-152.952 -125.569)" fill="#344866"/>
          <path id="Trazado_1273851" data-name="Trazado 1273851" d="M137.017,156.793l-2.353-.008a.789.789,0,0,1-.877-.734c-.063-1.184,1.627-.864,3.208-.863a.822.822,0,0,1,.871.7.8.8,0,0,1-.848.906" transform="translate(-111.2 -128.957)" fill="#344866"/>
          <path id="Trazado_1273852" data-name="Trazado 1273852" d="M107.759,93.343c.163,1.252-1.9.914-3.514.908a.782.782,0,0,1-.746-.747c-.009-.533.369-.813.914-.809l2.545.015a.748.748,0,0,1,.8.634" transform="translate(-86.028 -77.046)" fill="#344866"/>
          <path id="Trazado_1273853" data-name="Trazado 1273853" d="M156.59,113.6c.1,1.156-1.89.9-3.085.844a.775.775,0,0,1-.767-.693c-.106-1.189,1.793-.948,3.069-.877a.805.805,0,0,1,.782.725" transform="translate(-126.95 -93.761)" fill="#344866"/>
          <path id="Trazado_1273854" data-name="Trazado 1273854" d="M27.414,155.866c.1,1.208-1.486.913-2.882.908a.8.8,0,0,1-.89-.751.769.769,0,0,1,.79-.838c1.138-.042,2.9-.273,2.982.681" transform="translate(-19.65 -128.942)" fill="#344866"/>
          <path id="Trazado_1273855" data-name="Trazado 1273855" d="M113.605,156.15c-.059.916-1.209.82-2.152.731a.747.747,0,0,1-.737-.715.759.759,0,0,1,.776-.852,6.64,6.64,0,0,1,1.391.011.764.764,0,0,1,.722.826" transform="translate(-92.023 -129.068)" fill="#344866"/>
          <path id="Trazado_1273856" data-name="Trazado 1273856" d="M224.795,152.382c-.592.181-2.345.37-2.33-.7a.774.774,0,0,1,.753-.739c.721-.046,1.75-.143,1.96.451a.721.721,0,0,1-.383.984" transform="translate(-184.909 -125.435)" fill="#344866"/>
          <path id="Trazado_1273857" data-name="Trazado 1273857" d="M95.414,19.984a2.308,2.308,0,1,1-2.309-2.309,2.309,2.309,0,0,1,2.309,2.309m-1.59-.006a.714.714,0,1,0-.714.714.714.714,0,0,0,.714-.714" transform="translate(-75.469 -14.691)" fill="#344866"/>
          <path id="Trazado_1273858" data-name="Trazado 1273858" d="M25.432,19.982a2.308,2.308,0,1,1-2.308-2.308,2.308,2.308,0,0,1,2.308,2.308m-1.59-.005a.714.714,0,1,0-.714.714.714.714,0,0,0,.714-.714" transform="translate(-17.302 -14.69)" fill="#344866"/>
          <path id="Trazado_1273859" data-name="Trazado 1273859" d="M60.424,19.98a2.308,2.308,0,1,1-2.308-2.308,2.308,2.308,0,0,1,2.308,2.308m-1.59,0a.713.713,0,1,0-.713.713.713.713,0,0,0,.713-.713" transform="translate(-46.388 -14.689)" fill="#344866"/>
          <path id="Trazado_1273860" data-name="Trazado 1273860" d="M251.874,203.566l-5.243.017a.808.808,0,0,1-.875-.838.792.792,0,0,1,.884-.75l5.231.008a.787.787,0,0,1,.777.756.766.766,0,0,1-.775.807" transform="translate(-204.268 -167.895)" fill="#344866"/>
          <path id="Trazado_1273861" data-name="Trazado 1273861" d="M188.581,203.587l-3.726,0a.793.793,0,0,1-.832-.807.808.808,0,0,1,.84-.769l3.7.005a.785.785,0,0,1,.809.763.765.765,0,0,1-.792.805" transform="translate(-152.957 -167.911)" fill="#344866"/>
          <path id="Trazado_1273862" data-name="Trazado 1273862" d="M224.642,203.388a4.793,4.793,0,0,1-1.425.034.786.786,0,0,1-.752-.81c0-.91,1.367-.821,2.088-.732a.782.782,0,0,1,.671.607.741.741,0,0,1-.581.9" transform="translate(-184.908 -167.754)" fill="#344866"/>
          <path id="Trazado_1273863" data-name="Trazado 1273863" d="M251.969,254.572l-5.32.031a.8.8,0,0,1-.875-.831.785.785,0,0,1,.869-.75l5.234.009a.783.783,0,0,1,.769.623.732.732,0,0,1-.677.919" transform="translate(-204.282 -210.307)" fill="#344866"/>
          <path id="Trazado_1273864" data-name="Trazado 1273864" d="M189.362,253.7c.318,1.381-2.707.952-4.5.949a.785.785,0,1,1,0-1.567h3.71a.805.805,0,0,1,.794.618" transform="translate(-152.958 -210.354)" fill="#344866"/>
          <path id="Trazado_1273865" data-name="Trazado 1273865" d="M224.917,254.217a3.529,3.529,0,0,1-2.02.024.743.743,0,0,1-.429-.823c.216-.972,2.433-.843,2.707-.149a.838.838,0,0,1-.258.949" transform="translate(-184.9 -210.055)" fill="#344866"/>
        </g>
      </g>
    </g>
  </g>
</svg>
