<svg xmlns="http://www.w3.org/2000/svg" xmlns:xlink="http://www.w3.org/1999/xlink" width="128" height="128" viewBox="0 0 128 128">
  <defs>
    <clipPath id="clip-path">
      <rect id="Rectángulo_454829" data-name="Rectángulo 454829" width="128" height="128" fill="#1e535a"/>
    </clipPath>
    <clipPath id="clip-path-2">
      <rect id="Rectángulo_464396" data-name="Rectángulo 464396" width="43.68" height="43.647" fill="#1e535a"/>
    </clipPath>
  </defs>
  <g id="Grupo_1211018" data-name="Grupo 1211018" transform="translate(-186 -4323.945)">
    <g id="Grupo_1177591" data-name="Grupo 1177591" transform="translate(186 4323.945)">
      <g id="Grupo_1177589" data-name="Grupo 1177589" transform="translate(0 0)">
        <g id="Grupo_1177587" data-name="Grupo 1177587" clip-path="url(#clip-path)">
          <path id="Trazado_997422" data-name="Trazado 997422" d="M122.774,56.654a58.848,58.848,0,0,0-13.293-30.623,6.768,6.768,0,0,0-9.523-9.118A58.761,58.761,0,0,0,69.535,5.027a6.769,6.769,0,0,0-13.148.267A58.842,58.842,0,0,0,27.2,17.772a6.771,6.771,0,0,0-9.4,9.462A58.794,58.794,0,0,0,5.483,56.6a6.774,6.774,0,0,0-.162,13.266A58.776,58.776,0,0,0,17.252,99.82a6.771,6.771,0,0,0,9.2,9.56,58.838,58.838,0,0,0,29.883,13.07,6.771,6.771,0,0,0,13.266.267,58.788,58.788,0,0,0,30.646-12.107,6.769,6.769,0,0,0,9.476-9.165A58.863,58.863,0,0,0,122.933,69.8a6.771,6.771,0,0,0-.159-13.144m-19.12-27.288a6.733,6.733,0,0,0,3.75-1.135,55.884,55.884,0,0,1,12.333,28.407,6.781,6.781,0,0,0-4.327,3.135L98.1,53.283c.013-.189.027-.382.027-.578a6.772,6.772,0,0,0-2.868-5.533l7.57-17.86a7.335,7.335,0,0,0,.821.054M100,28.288,92.472,46.03a6.7,6.7,0,0,0-7.459,4.307L53.705,43.125a6.588,6.588,0,0,0-.142-1.348L97.992,26.305a6.793,6.793,0,0,0,2,1.983M63,13.553a6.777,6.777,0,0,0,6.651-5.5A55.792,55.792,0,0,1,97.857,19.09a6.739,6.739,0,0,0-.98,3.5,7.114,7.114,0,0,0,.064.9L52.29,39.031A6.8,6.8,0,0,0,51.064,37.8L62.775,13.543c.074,0,.145.01.22.01M56.4,8.324a6.778,6.778,0,0,0,3.409,4.435L48.331,36.538a6.8,6.8,0,0,0-1.4-.145,6.727,6.727,0,0,0-3.861,1.213L29.461,26.238A6.736,6.736,0,0,0,29.231,20,55.836,55.836,0,0,1,56.4,8.324M13.387,61.776l28.15-14.519a6.751,6.751,0,0,0,5.341,2.686l9.648,30.839a6.887,6.887,0,0,0-1.493,1.652L13.3,65.046a6.731,6.731,0,0,0,.25-1.8,6.81,6.81,0,0,0-.166-1.473m6.648-32.521a6.771,6.771,0,0,0,7.564-.645L41.037,39.831a6.758,6.758,0,0,0-.747,4.682l-28.2,14.539A6.774,6.774,0,0,0,8.506,56.7,55.812,55.812,0,0,1,20.036,29.254m2.8,67.623a6.756,6.756,0,0,0-3.365.9A55.762,55.762,0,0,1,8.351,69.832a6.783,6.783,0,0,0,3.517-2.121L54.013,85.27a7.266,7.266,0,0,0-.054.814,6.775,6.775,0,0,0,.405,2.29L28.876,100.587a6.775,6.775,0,0,0-6.037-3.709m33.626,22.556a55.892,55.892,0,0,1-27.883-12.2,6.705,6.705,0,0,0,1.034-3.581l0-.078L56,90.929a6.776,6.776,0,0,0,2.392,1.51l1.581,22.725a6.776,6.776,0,0,0-3.51,4.27m2.807-39.96L49.831,49.287a6.786,6.786,0,0,0,3.219-3.219l31.562,7.266a6.736,6.736,0,0,0,1.078,3.081L64.042,80.173a6.692,6.692,0,0,0-4.77-.7M69.592,119.7a6.774,6.774,0,0,0-6.6-5.25l-.051,0-1.5-21.623a6.764,6.764,0,0,0,4.142-2.01l31.555,13.918c0,.061-.01.115-.01.176a6.743,6.743,0,0,0,1,3.534A55.789,55.789,0,0,1,69.592,119.7M97.9,101.779,67.164,88.22a6.736,6.736,0,0,0-.888-6.027L87.858,58.5a6.736,6.736,0,0,0,3.5.98,7.46,7.46,0,0,0,.831-.054l8.067,39.781a6.761,6.761,0,0,0-2.355,2.571m9.722-2.534a6.735,6.735,0,0,0-4.5-1.064l-8.07-39.8a6.8,6.8,0,0,0,2.135-2.23l17.3,6.486a6.009,6.009,0,0,0-.03.608,6.774,6.774,0,0,0,5.445,6.641A55.835,55.835,0,0,1,107.62,99.246" transform="translate(0 0.001)" fill="#1e535a"/>
        </g>
      </g>
    </g>
    <g id="Elipse_13614" data-name="Elipse 13614" transform="translate(210.273 4348.213)" fill="#fff" stroke="#1e535a" stroke-width="3">
      <ellipse cx="39.732" cy="39.733" rx="39.732" ry="39.733" stroke="none"/>
      <ellipse cx="39.732" cy="39.733" rx="38.232" ry="38.233" fill="none"/>
    </g>
    <g id="Grupo_1211547" data-name="Grupo 1211547" transform="translate(229.165 4366.122)">
      <g id="Grupo_1211546" data-name="Grupo 1211546" clip-path="url(#clip-path-2)">
        <path id="Trazado_1274136" data-name="Trazado 1274136" d="M23.221,59.761a6.857,6.857,0,0,0,2.051,5.525l2.008.072.013,3.348-13.485.021L13.8,65.361l1.972-.052a7.025,7.025,0,0,0,2.144-5.555l-16.4.011A1.453,1.453,0,0,1,0,58.206l.005-27.1a1.316,1.316,0,0,1,1.189-1.4l3.716-.026a15.863,15.863,0,0,1,.017,2.35L2.441,32.1,2.436,53.783l36.218,0,.024-6.807c.995.18,1.531,1.293,2.38.631l.009,10.777a1.373,1.373,0,0,1-1.415,1.376Z" transform="translate(0 -25.081)" fill="#1e535a"/>
        <path id="Trazado_1274137" data-name="Trazado 1274137" d="M57.918,16.63c.722.32,1.431.3,2.1.645a1.21,1.21,0,0,1,.456,1.351l-.959,1.78,2.424,2.413,2.038-1.04c1.69.309,1.057,1.084,1.757,2.6l1.75.087c0,.578-.444.9-1.073.9H39.319A.943.943,0,0,1,38.3,24.44V.9A.927.927,0,0,1,39.315,0L66.56,0a.9.9,0,0,1,.941.88V5.366l-1.782.061a20.523,20.523,0,0,1-.7,2.149,1.267,1.267,0,0,1-1.171.409l-1.9-1.006L59.514,9.423l.992,1.89a1.144,1.144,0,0,1-.476,1.232l-2.086.649ZM43.9,8.355l1.543-5.789a.442.442,0,0,0-.357-.586.5.5,0,0,0-.587.4L42.961,8.164a.48.48,0,0,0,.429.625.534.534,0,0,0,.512-.434M40.631,5.233c.448-.556,1.772-1.042,1.314-1.668a.478.478,0,0,0-.69-.08L39.524,4.837a.5.5,0,0,0-.024.8c.791.587,2.233,2.084,2.52,1.157.188-.607-1.039-1.035-1.389-1.562m6.557,1.744L48.876,5.66a.521.521,0,0,0-.016-.85L47.12,3.468a.487.487,0,0,0-.634.053c-.55.686.922,1.165,1.282,1.741l-1.3,1.1c-.223.189-.079.555.1.667a.545.545,0,0,0,.624-.055M59.757,4.532c.306,0,.465-.426.395-.571s-.2-.379-.442-.379l-7.684,0a.482.482,0,0,0-.507.483.525.525,0,0,0,.514.493ZM59.679,7.4a.488.488,0,0,0,.475-.528.476.476,0,0,0-.418-.412l-7.713-.009a.479.479,0,0,0-.508.542.5.5,0,0,0,.494.413ZM44.546,11.7c.312,0,.427-.324.424-.494a.5.5,0,0,0-.552-.447l-4.039.013a.458.458,0,0,0-.471.58.489.489,0,0,0,.484.358Zm10.543.011a.484.484,0,0,0,.494-.5.465.465,0,0,0-.483-.439H47.2a.468.468,0,0,0-.5.58.484.484,0,0,0,.5.366ZM49.677,15.29a.463.463,0,0,0,.475-.512.434.434,0,0,0-.47-.414h-9.31a.45.45,0,0,0-.47.554.48.48,0,0,0,.478.378Zm5.436-.006a.455.455,0,0,0,.471-.5.44.44,0,0,0-.466-.421l-2.807.008a.427.427,0,0,0-.428.53c.089.618,2.291.414,3.229.385m-10.864,3.6a.463.463,0,0,0,.507-.544.472.472,0,0,0-.5-.4l-3.873.008a.468.468,0,1,0-.018.934Zm10.915-.011c.381,0,.421-.366.407-.535a.449.449,0,0,0-.47-.4l-8.047,0a.484.484,0,1,0,0,.954Zm-9.429,3.6a.471.471,0,0,0,.516-.565.5.5,0,0,0-.481-.393l-5.383.007a.475.475,0,1,0,0,.948Zm9.362,0a.468.468,0,0,0,.476-.572.479.479,0,0,0-.475-.388l-6.646.006a.473.473,0,0,0-.472.536.466.466,0,0,0,.476.416Z" transform="translate(-32.356)" fill="#1e535a"/>
        <path id="Trazado_1274138" data-name="Trazado 1274138" d="M180.645,58.053a9.594,9.594,0,0,1-1.986-.018c-.352-.632-.2-1.543-.717-1.989a10.843,10.843,0,0,0-1.674-.746c-.7.063-1.222.757-1.933.934a11.579,11.579,0,0,1-1.375-1.384c.139-.671.85-1.186.9-1.882a10.292,10.292,0,0,0-.695-1.752c-.546-.478-1.418-.344-2.014-.727a12.69,12.69,0,0,1,0-1.92l1.946-.686.859-1.734L172.939,44.2a12.146,12.146,0,0,1,1.389-1.38l1.883.925A9.3,9.3,0,0,0,178,42.983l.687-1.972a9.422,9.422,0,0,1,1.94.016c.994,2.49-.227,1.6,2.468,2.716l1.893-.92a11.555,11.555,0,0,1,1.381,1.364c-.167.7-.847,1.212-.921,1.909a11.553,11.553,0,0,0,.72,1.742l1.9.716c.345.454.085,1.359.1,1.946-.589.384-1.412.215-1.945.693-1.258,2.53-.8,1.433.139,3.663a11.615,11.615,0,0,1-1.384,1.389c-.674-.177-1.187-.87-1.891-.915a8.729,8.729,0,0,0-1.731.708c-.471.494-.354,1.34-.711,2.016m2.129-8.281a3.115,3.115,0,1,0-3.115,3.115,3.115,3.115,0,0,0,3.115-3.115" transform="translate(-144.567 -34.614)" fill="#1e535a"/>
      </g>
    </g>
  </g>
</svg>
