<svg xmlns="http://www.w3.org/2000/svg" xmlns:xlink="http://www.w3.org/1999/xlink" width="85" height="85" viewBox="0 0 85 85">
  <defs>
    <clipPath id="clip-path">
      <rect id="Rectángulo_464342" data-name="Rectángulo 464342" width="60.078" height="54.107" fill="#344866"/>
    </clipPath>
  </defs>
  <g id="Grupo_1211615" data-name="Grupo 1211615" transform="translate(-290 -2454)">
    <g id="Grupo_1211614" data-name="Grupo 1211614">
      <g id="Grupo_1211097" data-name="Grupo 1211097" transform="translate(110.266 -3066.842)">
        <rect id="Rectángulo_402006" data-name="Rectángulo 402006" width="85" height="85" rx="5" transform="translate(179.734 5520.842)" fill="#69d7e5"/>
        <g id="Grupo_1211481" data-name="Grupo 1211481" transform="translate(192.195 5536.288)">
          <g id="Grupo_1211480" data-name="Grupo 1211480" clip-path="url(#clip-path)">
            <path id="Trazado_1273980" data-name="Trazado 1273980" d="M49.118,39.029l-21.909.01a2.051,2.051,0,0,1-2.2-2.024V27a2.025,2.025,0,0,1,2.2-2.006l21.824.015a1.967,1.967,0,0,1,2,1.985V37.017a2.014,2.014,0,0,1-1.918,2.013M49.042,27H27V37.03H49.042Z" transform="translate(-19.999 -19.987)" fill="#344866"/>
            <path id="Trazado_1273981" data-name="Trazado 1273981" d="M35.109,117.048l-7.927.042A2.066,2.066,0,0,1,25,115.07v-8.028a1.984,1.984,0,0,1,1.984-1.983h8.035A1.978,1.978,0,0,1,37,107.043v8.032a1.946,1.946,0,0,1-1.9,1.974m-.1-10H26.995v8.029h8.014Z" transform="translate(-19.991 -84.01)" fill="#344866"/>
            <path id="Trazado_1273982" data-name="Trazado 1273982" d="M105.109,117.048l-7.927.042A2.066,2.066,0,0,1,95,115.07v-8.028a1.984,1.984,0,0,1,1.984-1.983h8.035A1.977,1.977,0,0,1,107,107.043v8.032a1.946,1.946,0,0,1-1.9,1.974m-.1-10H96.995v8.029h8.014Z" transform="translate(-75.966 -84.01)" fill="#344866"/>
            <path id="Trazado_1273983" data-name="Trazado 1273983" d="M38.942,54.107,21.058,54.1A3.081,3.081,0,0,1,18.5,52.7a3.005,3.005,0,0,1-.1-3.074l2.807-5.513L5,44.071A4.954,4.954,0,0,1,0,39.05L0,5.031A4.993,4.993,0,0,1,5.228,0l49.84.018a4.931,4.931,0,0,1,5.008,5.007l0,34.027a4.95,4.95,0,0,1-4.993,5.019l-16.215.038,2.881,5.68a2.9,2.9,0,0,1-.157,2.883,3.058,3.058,0,0,1-2.653,1.434M33.054,36.07l0-34.056H4.822A3,3,0,0,0,1.994,5.028V36.08ZM58.1,5.119a3.011,3.011,0,0,0-2.823-3.108l-20.222,0V36.077l23.047,0ZM54.961,42.081a3.148,3.148,0,0,0,3.067-4H2.1a3.177,3.177,0,0,0,.541,2.83,3.021,3.021,0,0,0,2.4,1.175ZM38.93,52.1a1.024,1.024,0,0,0,1-1.482L36.6,44.1l-13.118-.006L20.09,50.751a1.019,1.019,0,0,0,.195.984,1.251,1.251,0,0,0,.955.367Z" transform="translate(0 0)" fill="#344866"/>
            <path id="Trazado_1273984" data-name="Trazado 1273984" d="M206.089,107.051l-15,0a.985.985,0,0,1-.986-.914.954.954,0,0,1,.981-1.073l15.006-.006a.948.948,0,0,1,.978.9.981.981,0,0,1-.981,1.087" transform="translate(-152.014 -84.01)" fill="#344866"/>
            <path id="Trazado_1273985" data-name="Trazado 1273985" d="M206.088,132.051l-15,0a.985.985,0,0,1-.986-.914.954.954,0,0,1,.981-1.073l15.006-.006a.948.948,0,0,1,.978.9.981.981,0,0,1-.981,1.087" transform="translate(-152.013 -104.001)" fill="#344866"/>
            <path id="Trazado_1273986" data-name="Trazado 1273986" d="M206.089,157.051l-15,0a.985.985,0,0,1-.986-.914.954.954,0,0,1,.98-1.073l15.007-.006a.948.948,0,0,1,.978.9.981.981,0,0,1-.981,1.087" transform="translate(-152.014 -123.993)" fill="#344866"/>
            <path id="Trazado_1273987" data-name="Trazado 1273987" d="M189.975,38.534a.977.977,0,0,1-.26,1.375,1.029,1.029,0,0,1-1.348-.234l-2.833-3.741a1.294,1.294,0,0,1,0-1.71l2.833-3.741a1.025,1.025,0,0,1,1.348-.241.98.98,0,0,1,.295,1.322l-2.535,3.515Z" transform="translate(-148.103 -24.062)" fill="#344866"/>
            <path id="Trazado_1273988" data-name="Trazado 1273988" d="M251.738,39.725a1,1,0,0,1-1.491.024c-.953-1.124,1.742-3.187,2.439-4.663l-2.541-3.519a.967.967,0,0,1,.3-1.314,1.012,1.012,0,0,1,1.35.235l2.833,3.741a1.3,1.3,0,0,1,0,1.711Z" transform="translate(-199.906 -24.065)" fill="#344866"/>
            <path id="Trazado_1273989" data-name="Trazado 1273989" d="M222.064,39.191a1.03,1.03,0,0,1-1.283.84,1.009,1.009,0,0,1-.669-1.315l1.954-7.825a1,1,0,0,1,1.085-.795.953.953,0,0,1,.86,1.177Z" transform="translate(-175.977 -24.064)" fill="#344866"/>
          </g>
        </g>
      </g>
    </g>
  </g>
</svg>
