<svg xmlns="http://www.w3.org/2000/svg" xmlns:xlink="http://www.w3.org/1999/xlink" width="85" height="85" viewBox="0 0 85 85">
  <defs>
    <clipPath id="clip-path">
      <rect id="Rectángulo_464300" data-name="Rectángulo 464300" width="65.328" height="65.319" fill="#344866"/>
    </clipPath>
  </defs>
  <g id="Grupo_1209800" data-name="Grupo 1209800" transform="translate(-179.734 -5520.842)">
    <rect id="Rectángulo_402006" data-name="Rectángulo 402006" width="85" height="85" rx="5" transform="translate(179.734 5520.842)" fill="#69d7e5"/>
    <g id="Grupo_1211456" data-name="Grupo 1211456" transform="translate(189.57 5530.682)">
      <rect id="Rectángulo_464295" data-name="Rectángulo 464295" width="2.133" height="2.104" transform="translate(54.789 4.223)" fill="#344866"/>
      <g id="Grupo_1211455" data-name="Grupo 1211455">
        <g id="Grupo_1211454" data-name="Grupo 1211454" clip-path="url(#clip-path)">
          <path id="Trazado_1273866" data-name="Trazado 1273866" d="M291.057,43.224a6.174,6.174,0,0,1-2.017.061,10.67,10.67,0,0,1-.005-2.091,9.97,9.97,0,0,1,1.994.007,7.235,7.235,0,0,1,.029,2.023" transform="translate(-229.993 -32.748)" fill="#344866"/>
          <rect id="Rectángulo_464296" data-name="Rectángulo 464296" width="2.111" height="2.17" transform="translate(63.218 8.412)" fill="#344866"/>
          <rect id="Rectángulo_464297" data-name="Rectángulo 464297" width="2.099" height="2.102" transform="translate(59.005 4.223)" fill="#344866"/>
          <path id="Trazado_1273867" data-name="Trazado 1273867" d="M46.1,55.085c-2.52,1.077-1.654,3.712-1.873,5.981l-6.24.053-.056,4.2H6.339l.006-5.708a11.361,11.361,0,0,1,6.752-10.1,11.7,11.7,0,0,1-6.753-11.6A5.592,5.592,0,0,1,.959,35.671a5.294,5.294,0,0,1-.1-5.9L.04,21.239a8.971,8.971,0,0,1,8.5-9.634A4.317,4.317,0,0,1,12.67,8.425l15.123-.016A11.041,11.041,0,0,1,35.583.48,11.658,11.658,0,0,1,50.24,8.772a15.828,15.828,0,0,0,1.534-1.423L62.167,17.73,59.81,20.184a2.884,2.884,0,0,0-.5,3.277A3.093,3.093,0,0,0,62.061,25.3l3.254.027,0,14.667-3.259.03a3.056,3.056,0,0,0-2.686,1.689,2.928,2.928,0,0,0,.435,3.422l2.356,2.452L51.8,57.965l-2.345-2.29a3.011,3.011,0,0,0-3.351-.59M35.6,23.218l6.8-.039c1.283-3.1,4.007-5.015,5.3-7.947a9.308,9.308,0,0,0-1.5-9.8,9.549,9.549,0,0,0-9.2-3.126,9.02,9.02,0,0,0-7.406,7.9c-.786,6.406,3.784,8.025,6.011,13m16.177,31.8,7.476-7.528A5.258,5.258,0,0,1,57.4,40.966a5.343,5.343,0,0,1,5.823-2.993l-.044-10.635a5.247,5.247,0,0,1-3.926-9.506L51.86,10.379c-.4.323-1.188.719-1.229,1.264a12.638,12.638,0,0,1-1.389,5.272A20.039,20.039,0,0,1,35.292,52.641a12.206,12.206,0,0,1,2.587,6.317,27.734,27.734,0,0,0,4.292-.037,5.32,5.32,0,0,1,3.25-5.841,5.415,5.415,0,0,1,6.353,1.941M16.856,16.471a6.33,6.33,0,0,0,6.267,6.7l10.033.009a7.582,7.582,0,0,0-1.388-2.1l-8.7-.021A4.159,4.159,0,0,1,19,17.331a12.935,12.935,0,0,1-.012-2.515,7.276,7.276,0,0,1,2.062.015l.033,2.1a2.132,2.132,0,0,0,2.19,2.037l6.771-.076a11.922,11.922,0,0,1-2.642-8.3l-14.535-.028a2.091,2.091,0,0,0-2.315,2.1L10.5,16.786a5,5,0,0,1-2.034.033l-.116-3.056a6.994,6.994,0,0,0-6.18,7.893l.687,6.317a6.951,6.951,0,0,1,3.531-.592,7.428,7.428,0,0,1,6.891-6.29,20.545,20.545,0,0,0,2.529-.11,10.211,10.211,0,0,1-.962-6.2,10.036,10.036,0,0,1,1.961.046,8.576,8.576,0,0,1,.045,1.646M33.47,48.1,31.25,49.6A17.867,17.867,0,0,0,48.107,18.729,13.258,13.258,0,0,0,46.8,20.4,15.787,15.787,0,0,1,33.47,48.1M37.933,37.97A12.125,12.125,0,0,1,35.4,46.248a13.655,13.655,0,0,0,10.12-24.17,4.674,4.674,0,0,0-1.245,4.046c.232,1.517-.359,3.064-.236,4.461.178,2.006.435,3.813-.99,5.445a6.005,6.005,0,0,1-5.118,1.94m-2.135-5.4c-2.818-2.258-1.8-4.352-2.173-7.214l-9.73-.04a8.729,8.729,0,0,1-6.181-2.1,34.365,34.365,0,0,0-5.046.1,5.168,5.168,0,0,0-4.23,5.052L8.446,39.2a9.325,9.325,0,0,0,9.31,9.248l8.787,0a9.417,9.417,0,0,0,9.289-9.578Zm6.263-5.2a3.982,3.982,0,0,0-.034-2.065l-6.058.006a3.623,3.623,0,0,0-.018,2.062ZM6.319,29.584a3.444,3.444,0,0,0-3.586,1.207,3.159,3.159,0,0,0,0,3.743,3.43,3.43,0,0,0,3.586,1.205Zm35.586-.07-5.837.006a3.034,3.034,0,0,0,3.017,2.069,3,3,0,0,0,2.82-2.075m-3.915,6.24A3.229,3.229,0,0,0,42.1,32.762a6.049,6.049,0,0,1-4.09.884,9.705,9.705,0,0,0-.017,2.108M17.068,53.037a24.6,24.6,0,0,0,2.363-2.394,9.6,9.6,0,0,0-3.645.225,20.2,20.2,0,0,0,1.282,2.17m11.346-2.215a9.178,9.178,0,0,0-3.561-.136,30.136,30.136,0,0,0,2.322,2.34,8.285,8.285,0,0,0,1.24-2.2m-4.806,1.706a9.8,9.8,0,0,0-1.488-1.45,12.485,12.485,0,0,0-1.47,1.461c.383.757.816,2.29,1.5,2.251.664-.037,1.108-1.541,1.454-2.262m-3.643,3.41a17.015,17.015,0,0,0-.959-1.739l-2.37,2.21-2.942-4.815c-4.718,2.533-5.637,6.556-5.233,11.613l9.674.006Zm6.183,7.283,9.663-.043c.057-1.11.029-2.053.021-3.088a9.378,9.378,0,0,0-5.291-8.48l-2.936,4.8L25.252,54.2a7.107,7.107,0,0,0-.913,1.775Zm-2.205-.112c-.76-2.291-.845-4.323-1.827-6.408-.943,2.211-1.107,4.253-1.789,6.434a14.59,14.59,0,0,0,3.616-.026" transform="translate(0 0)" fill="#344866"/>
          <path id="Trazado_1273868" data-name="Trazado 1273868" d="M169.421,33.271l0-4.183a3.383,3.383,0,0,0,4.141-2.724,3.149,3.149,0,0,0-3.237-3.575,3.27,3.27,0,0,0-2.982,4.071,4.2,4.2,0,0,1-2.07.119,5.266,5.266,0,1,1,6.22,4.14l-.02,2.123a4.608,4.608,0,0,1-2.055.028" transform="translate(-131.459 -16.463)" fill="#344866"/>
          <rect id="Rectángulo_464298" data-name="Rectángulo 464298" width="2.065" height="2.122" transform="translate(37.956 18.951)" fill="#344866"/>
          <rect id="Rectángulo_464299" data-name="Rectángulo 464299" width="2.111" height="2.104" transform="translate(63.218 4.223)" fill="#344866"/>
          <path id="Trazado_1273869" data-name="Trazado 1273869" d="M90.637,198.02a6.352,6.352,0,0,0-5.432,3.593,12.232,12.232,0,0,1-1.832-.961c2.167-4.149,5.83-5.076,10.313-4.763a8.717,8.717,0,0,1,0,2.036Z" transform="translate(-66.354 -155.857)" fill="#344866"/>
          <path id="Trazado_1273870" data-name="Trazado 1273870" d="M68.351,144.4a10.546,10.546,0,0,1,2.044,0,4.114,4.114,0,0,1-3.974,4.18,4.184,4.184,0,0,1-4.382-4.127,6.073,6.073,0,0,1,2.046-.051,2.222,2.222,0,0,0,1.967,2.062,2.118,2.118,0,0,0,2.3-2.069" transform="translate(-49.374 -114.878)" fill="#344866"/>
          <path id="Trazado_1273871" data-name="Trazado 1273871" d="M119.992,144.417a6.8,6.8,0,0,1,2.059,0,4.18,4.18,0,0,1-8.36.044,5.333,5.333,0,0,1,2.037-.058,2.216,2.216,0,0,0,2.049,2.059,2.1,2.1,0,0,0,2.216-2.042" transform="translate(-90.482 -114.868)" fill="#344866"/>
        </g>
      </g>
    </g>
  </g>
</svg>
