<svg xmlns="http://www.w3.org/2000/svg" xmlns:xlink="http://www.w3.org/1999/xlink" width="84" height="84" viewBox="0 0 84 84">
  <defs>
    <clipPath id="clip-path">
      <rect id="Rectángulo_464340" data-name="Rectángulo 464340" width="61" height="57.684" fill="#344866"/>
    </clipPath>
  </defs>
  <g id="Grupo_1208936" data-name="Grupo 1208936" transform="translate(0.289 0.137)">
    <g id="Grupo_1119665" data-name="Grupo 1119665" transform="translate(-0.289 -0.137)">
      <rect id="Rectángulo_402006" data-name="Rectángulo 402006" width="84" height="84" rx="5" fill="#a4e7f0"/>
    </g>
    <g id="Grupo_1211477" data-name="Grupo 1211477" transform="translate(13.211 13.021)">
      <g id="Grupo_1211476" data-name="Grupo 1211476" clip-path="url(#clip-path)">
        <path id="Trazado_1273949" data-name="Trazado 1273949" d="M216.356,174.363l-7.711.025a.99.99,0,0,1-.98-.97l.009-7.821a.823.823,0,0,1,.783-.821l7.632-.048c.7,0,1.184.312,1.184,1.058l0,7.632a.954.954,0,0,1-.912.945m-1.044-1.981-.055-5.711-5.631.053.02,5.7Z" transform="translate(-166.975 -132.451)" fill="#344866"/>
        <path id="Trazado_1273950" data-name="Trazado 1273950" d="M64.325,174.458l-7.525.006a1.1,1.1,0,0,1-1.178-1.163l.011-7.451c0-.44.27-1.01.765-1.012l7.853-.023a.973.973,0,0,1,1.028,1.037l-.006,7.635a1.03,1.03,0,0,1-.948.97m-1.037-7.711H57.6V172.5h5.688Z" transform="translate(-44.724 -132.521)" fill="#344866"/>
        <path id="Trazado_1273951" data-name="Trazado 1273951" d="M120.555,194.028a1.014,1.014,0,0,1-1.013,1.044,1,1,0,0,1-.947-1.116l-.021-7.568-6.966-.041a.944.944,0,0,1-.974-.927c-.019-.381.216-1.009.814-1.009l16.21,0c.637,0,.833.595.831,1.022a.928.928,0,0,1-.995.919l-6.9.034Z" transform="translate(-88.954 -148.275)" fill="#344866"/>
        <path id="Trazado_1273952" data-name="Trazado 1273952" d="M270.558,254.661l-7.548,0a1.113,1.113,0,0,1-1.13-1.062v-7.583A1.07,1.07,0,0,1,263,244.984l7.46,0a1.056,1.056,0,0,1,1.1,1.031v7.582a1.117,1.117,0,0,1-1.008,1.068m-.96-7.737h-5.749v5.77H269.6Z" transform="translate(-210.566 -196.978)" fill="#344866"/>
        <path id="Trazado_1273953" data-name="Trazado 1273953" d="M10.054,254.675l-7.724-.007a1.011,1.011,0,0,1-1.04-1.026V246a.982.982,0,0,1,1.044-1l7.646.014a.953.953,0,0,1,.934.985l0,7.634a1.074,1.074,0,0,1-.863,1.039m-1.1-7.732h-5.7v5.77h5.7Z" transform="translate(-1.037 -196.997)" fill="#344866"/>
        <path id="Trazado_1273954" data-name="Trazado 1273954" d="M140.32,254.68l-7.723-.018a1.027,1.027,0,0,1-1-1.015V246a.993.993,0,0,1,1-.99l7.632,0a.979.979,0,0,1,1.012,1l.013,7.639a1.1,1.1,0,0,1-.934,1.041m-1.035-7.732H133.56v5.764h5.724Z" transform="translate(-105.812 -196.996)" fill="#344866"/>
        <path id="Trazado_1273955" data-name="Trazado 1273955" d="M199.449,266.593l-11.509,0a1.046,1.046,0,0,1-1-1.011.99.99,0,0,1,1-.982l11.61.009a.961.961,0,0,1,.89.962,1.019,1.019,0,0,1-.985,1.018" transform="translate(-150.309 -212.758)" fill="#344866"/>
        <path id="Trazado_1273956" data-name="Trazado 1273956" d="M69.138,266.577l-11.655.033a1.105,1.105,0,0,1-.879-1.04.986.986,0,0,1,1.069-.969l11.413-.007a.974.974,0,0,1,1,.836,1,1,0,0,1-.944,1.147" transform="translate(-45.513 -212.748)" fill="#344866"/>
        <path id="Trazado_1273957" data-name="Trazado 1273957" d="M268.223,194.02a1,1,0,0,1-1.057,1.027,1.03,1.03,0,0,1-.905-1.127l-.011-7.558-2.734-.038a.941.941,0,0,1-.989-.924.888.888,0,0,1,.821-1.005l3.907-.021a.949.949,0,0,1,.961.927Z" transform="translate(-211.085 -148.247)" fill="#344866"/>
        <path id="Trazado_1273958" data-name="Trazado 1273958" d="M22.856,186.31l-.027,7.564a1.007,1.007,0,0,1-.926,1.113.975.975,0,0,1-1.03-.95v-8.755a1.008,1.008,0,0,1,1.114-.968l3.87.051c.533.007.714.61.7.971a.956.956,0,0,1-1.019.944Z" transform="translate(-16.784 -148.199)" fill="#344866"/>
        <path id="Trazado_1273959" data-name="Trazado 1273959" d="M1.988,7.26l0,19.818,10.6.069a.974.974,0,0,1,.914.992.963.963,0,0,1-1.037.952l-10.194-.03A2.392,2.392,0,0,1,0,26.637L.008,2.428A2.431,2.431,0,0,1,2.5,0L33.8.016a2.388,2.388,0,0,1,2.265,2.42l0,8.234a1.013,1.013,0,0,1-.963.959c-1.692.038-.688-3.115-1.074-4.366ZM34.11,1.945H1.962V5.3H34.11Z" transform="translate(0 0)" fill="#344866"/>
        <path id="Trazado_1273960" data-name="Trazado 1273960" d="M117.51,71.934c-.882.608-1.387-1.411-3.746.4-.447.342-.281,1.411-.987,1.554a9.374,9.374,0,0,1-3.482.009c-.934-.185-.105-2.036-2.887-2.346-.571-.064-1.261.837-1.862.389a14.472,14.472,0,0,1-2.356-2.325c-.818-.986,1.426-1.25-.451-3.842-.307-.424-1.341-.264-1.5-.869a7.613,7.613,0,0,1,.011-3.733c.169-.594,1.2-.435,1.5-.872,2.446-3.646-2.271-2.1,2.7-6.094.608-.488,1.246.282,1.851.315a3.318,3.318,0,0,0,2-.8c.433-.385.3-1.37.983-1.525a11.562,11.562,0,0,1,3.323-.063c.421.03.758.574.816.9.135.771.6.943,1.2,1.2,2.032.875,2.167-.973,3.308.195l1.857,1.9a1.2,1.2,0,0,1-.017,1.378c-.418.622-.179,1.1.04,1.681.732,1.95,2.177.856,2.177,2.327v2.615A1.159,1.159,0,0,1,121,65.445c-1.079.189-1.8,2.1-1.182,3.028a1.179,1.179,0,0,1-.021,1.267,17.423,17.423,0,0,1-2.287,2.194m-5.709-.18c.8-1.754.391-.882,3.363-2.311.561-.27,1.022.227,1.594.335.38.072,1.033-.625.984-1.038-.065-.544-.606-1.012-.315-1.573a14.126,14.126,0,0,0,1.037-2.5c.173-.581.836-.567,1.285-.866a1.088,1.088,0,0,0,.016-1.506c-.472-.3-1.137-.31-1.312-.914a13.906,13.906,0,0,0-1.033-2.5c-.291-.567.293-1.032.326-1.583.025-.41-.6-1.041-.977-1-.5.057-.97.6-1.475.378a19.156,19.156,0,0,0-2.62-1.073c-.577-.159-.605-.829-.88-1.287a1.074,1.074,0,0,0-1.534,0c-.27.458-.276,1.089-.839,1.271a14.7,14.7,0,0,0-2.5,1.043c-.575.31-1.1-.237-1.656-.326-.347-.056-1.013.617-.952.981.1.615.608,1.143.265,1.742a16.33,16.33,0,0,0-1.044,2.5c-.185.495-.838.459-1.241.754a1.042,1.042,0,0,0,.105,1.58c1.719.814.719.19,2.219,3.293.276.571-.224,1.043-.3,1.6-.061.416.619,1.091,1.021,1.017.536-.1,1-.612,1.533-.343a21.534,21.534,0,0,0,2.612,1.088c.556.194.523.9.837,1.31.269.356,1.279.379,1.487-.08" transform="translate(-80.418 -41.848)" fill="#344866"/>
        <path id="Trazado_1273961" data-name="Trazado 1273961" d="M220.753,112.733a.969.969,0,0,1-.975,1.016.957.957,0,0,1-.973-.935l-.062-7.79c0-.438-1.9.3-1.978-1.067a1,1,0,0,1,.959-1.052c1.326-.1,3.034-.269,3.033,1.038Z" transform="translate(-174.29 -82.689)" fill="#344866"/>
        <path id="Trazado_1273962" data-name="Trazado 1273962" d="M77.27,105.043l-.045,7.7a.973.973,0,0,1-.886,1.067,1,1,0,0,1-1.076-1.059l.011-8.821c0-1.26,1.854-1.006,2.987-.964a.971.971,0,0,1,.983,1.057.987.987,0,0,1-1.181.889c-.118.027-.715-.089-.793.136" transform="translate(-60.516 -82.748)" fill="#344866"/>
        <path id="Trazado_1273963" data-name="Trazado 1273963" d="M23.021,15.023a.849.849,0,1,1-.849-.849.849.849,0,0,1,.849.849" transform="translate(-17.145 -11.397)" fill="#344866"/>
        <path id="Trazado_1273964" data-name="Trazado 1273964" d="M39.977,15.033a.849.849,0,1,1-.849-.849.849.849,0,0,1,.849.849" transform="translate(-30.779 -11.405)" fill="#344866"/>
        <path id="Trazado_1273965" data-name="Trazado 1273965" d="M56.979,15.025a.849.849,0,1,1-.849-.849.849.849,0,0,1,.849.849" transform="translate(-44.45 -11.398)" fill="#344866"/>
        <path id="Trazado_1273966" data-name="Trazado 1273966" d="M138.57,84.831a5.689,5.689,0,1,1-5.689-5.689,5.689,5.689,0,0,1,5.689,5.689m-1.969,0a3.721,3.721,0,1,0-3.721,3.721,3.721,3.721,0,0,0,3.721-3.721" transform="translate(-102.27 -63.635)" fill="#344866"/>
      </g>
    </g>
  </g>
</svg>
