<svg xmlns="http://www.w3.org/2000/svg" xmlns:xlink="http://www.w3.org/1999/xlink" width="130" height="130" viewBox="0 0 130 130">
  <defs>
    <clipPath id="clip-path">
      <rect id="Rectángulo_454829" data-name="Rectángulo 454829" width="130" height="130" fill="#1e535a"/>
    </clipPath>
    <clipPath id="clip-path-2">
      <rect id="Rectángulo_464361" data-name="Rectángulo 464361" width="48.224" height="52.758" fill="#1e535a"/>
    </clipPath>
  </defs>
  <g id="Grupo_1184508" data-name="Grupo 1184508" transform="translate(-186 -4323.945)">
    <g id="Grupo_1177591" data-name="Grupo 1177591" transform="translate(186 4323.945)">
      <g id="Grupo_1177589" data-name="Grupo 1177589" transform="translate(0 0)">
        <g id="Grupo_1177587" data-name="Grupo 1177587" clip-path="url(#clip-path)">
          <path id="Trazado_997422" data-name="Trazado 997422" d="M124.692,57.54a59.768,59.768,0,0,0-13.5-31.1,6.874,6.874,0,0,0-9.672-9.26,59.68,59.68,0,0,0-30.9-12.073,6.875,6.875,0,0,0-13.353.271A59.762,59.762,0,0,0,27.622,18.05a6.877,6.877,0,0,0-9.545,9.61A59.712,59.712,0,0,0,5.568,57.481,6.88,6.88,0,0,0,5.4,70.954,59.7,59.7,0,0,0,17.522,101.38a6.876,6.876,0,0,0,9.342,9.709,59.757,59.757,0,0,0,30.35,13.274,6.877,6.877,0,0,0,13.473.271,59.706,59.706,0,0,0,31.125-12.3,6.875,6.875,0,0,0,9.624-9.308,59.783,59.783,0,0,0,13.418-32.141,6.877,6.877,0,0,0-.161-13.35M105.274,29.825a6.838,6.838,0,0,0,3.808-1.153,56.758,56.758,0,0,1,12.526,28.85,6.887,6.887,0,0,0-4.395,3.184L99.637,54.116c.014-.192.027-.388.027-.587a6.877,6.877,0,0,0-2.913-5.62L104.44,29.77a7.449,7.449,0,0,0,.834.055m-3.716-1.094L93.917,46.749a6.806,6.806,0,0,0-7.575,4.374L54.544,43.8A6.691,6.691,0,0,0,54.4,42.43L99.523,26.716a6.9,6.9,0,0,0,2.035,2.014M63.979,13.765a6.883,6.883,0,0,0,6.755-5.582A56.663,56.663,0,0,1,99.386,19.388a6.844,6.844,0,0,0-.995,3.554,7.226,7.226,0,0,0,.065.909L53.107,39.641A6.9,6.9,0,0,0,51.861,38.4L63.756,13.754c.075,0,.148.01.223.01M57.286,8.454a6.884,6.884,0,0,0,3.462,4.5L49.086,37.109a6.9,6.9,0,0,0-1.42-.148,6.832,6.832,0,0,0-3.922,1.232L29.921,26.648a6.842,6.842,0,0,0-.233-6.333,56.709,56.709,0,0,1,27.6-11.861M13.6,62.741l28.59-14.746a6.857,6.857,0,0,0,5.424,2.728l9.8,31.321a7,7,0,0,0-1.516,1.678L13.511,66.062a6.836,6.836,0,0,0,.254-1.825,6.916,6.916,0,0,0-.168-1.5m6.752-33.029a6.877,6.877,0,0,0,7.682-.655l13.648,11.4a6.863,6.863,0,0,0-.758,4.755L12.283,59.976a6.88,6.88,0,0,0-3.644-2.388,56.684,56.684,0,0,1,11.71-27.876M23.2,98.391a6.862,6.862,0,0,0-3.417.913,56.633,56.633,0,0,1-11.3-28.38,6.888,6.888,0,0,0,3.572-2.155L54.857,86.6a7.38,7.38,0,0,0-.055.827,6.881,6.881,0,0,0,.412,2.326l-25.886,12.4A6.881,6.881,0,0,0,23.2,98.391M57.347,121.3A56.765,56.765,0,0,1,29.029,108.91a6.81,6.81,0,0,0,1.05-3.637l0-.079,26.8-12.845a6.882,6.882,0,0,0,2.429,1.534l1.606,23.08a6.882,6.882,0,0,0-3.565,4.337M60.2,80.715,50.609,50.057a6.892,6.892,0,0,0,3.27-3.27l32.055,7.38A6.842,6.842,0,0,0,87.028,57.3L65.043,81.426a6.8,6.8,0,0,0-4.844-.71M70.68,121.567a6.88,6.88,0,0,0-6.7-5.332l-.051,0L62.4,94.278a6.87,6.87,0,0,0,4.206-2.041l32.048,14.135c0,.062-.01.117-.01.178a6.848,6.848,0,0,0,1.019,3.589A56.66,56.66,0,0,1,70.68,121.567m28.747-18.2L68.213,89.6a6.842,6.842,0,0,0-.9-6.121l21.92-24.061a6.841,6.841,0,0,0,3.551.995,7.576,7.576,0,0,0,.844-.055l8.193,40.4a6.867,6.867,0,0,0-2.391,2.611M109.3,100.8a6.84,6.84,0,0,0-4.573-1.081L96.532,59.3A6.91,6.91,0,0,0,98.7,57.032l17.566,6.587a6.1,6.1,0,0,0-.031.618,6.88,6.88,0,0,0,5.531,6.745A56.707,56.707,0,0,1,109.3,100.8" transform="translate(0 0.001)" fill="#1e535a"/>
        </g>
      </g>
    </g>
    <g id="Elipse_13614" data-name="Elipse 13614" transform="translate(210.273 4348.213)" fill="#fff" stroke="#1e535a" stroke-width="3">
      <ellipse cx="40.732" cy="40.733" rx="40.732" ry="40.733" stroke="none"/>
      <ellipse cx="40.732" cy="40.733" rx="39.232" ry="39.233" fill="none"/>
    </g>
    <g id="Grupo_1211498" data-name="Grupo 1211498" transform="translate(226.889 4362.564)">
      <g id="Grupo_1211497" data-name="Grupo 1211497" transform="translate(0 0.001)" clip-path="url(#clip-path-2)">
        <path id="Trazado_1274035" data-name="Trazado 1274035" d="M27.3,46.6a6.468,6.468,0,0,0-.034,1.754h3.494l-.015,4.4L8.769,52.746c.149-5.653-.86-11.416-4.205-16.051A22.915,22.915,0,0,1,30.437,1.286c9.093,3.15,13.6,12.009,15.436,21.6l2.351,12.281-6.026.006L42.192,46.6ZM19.747,7.06l6.991-.025-.912,1.172a9.513,9.513,0,0,0,1.163,1.158L30.231,6.15,26.987,2.936a9.243,9.243,0,0,0-1.161,1.158l.911,1.173-5.813,0A14.687,14.687,0,0,0,8.574,11.448a14.063,14.063,0,0,0-.916,14.237,4.819,4.819,0,0,0,1.543-.8,12.377,12.377,0,0,1,.647-12.176,12.012,12.012,0,0,1,9.9-5.654m1.592,20.926c.608-1.265.483-2.208,2.35-2.4.643-.066,1.152.674,1.83.565.555-.088,1.657-1.027,1.506-1.5l-.573-1.823c-.134-.426.31-1.161.619-1.533.421-.5,1.362-.36,1.746-.892a2.653,2.653,0,0,0,0-2.116c-.8-.728-2.159-.278-2.362-2.433-.064-.68.745-1.232.566-1.915-.21-.533-1.03-1.57-1.5-1.417l-1.82.589c-.42.136-1.161-.328-1.531-.631-.508-.415-.365-1.36-.892-1.743a2.67,2.67,0,0,0-2.122,0c-.742.832-.242,2.124-2.427,2.369-.669.075-1.238-.773-1.915-.564a2.706,2.706,0,0,0-1.4,1.4c-.2.675.628,1.242.558,1.913-.051.489-.225,1.337-.619,1.538l-1.746.889a2.679,2.679,0,0,0,0,2.124c.839.741,2.132.245,2.363,2.429.071.671-.761,1.239-.557,1.914a2.69,2.69,0,0,0,1.395,1.392c.717.211,1.329-.7,2.019-.552,2.239.491,1.412,1.206,2.315,2.349a3.123,3.123,0,0,0,2.2.055m10.981-1.5a12.141,12.141,0,0,0,1.424-3.394,6.837,6.837,0,0,0-1.683-.4,18.182,18.182,0,0,1-1.22,2.944,7.463,7.463,0,0,0,1.479.85M11.162,30.057a5.285,5.285,0,0,0,1.077-1.346,15.679,15.679,0,0,1-2.13-2.3,4.207,4.207,0,0,0-1.406,1,11.944,11.944,0,0,0,2.459,2.644m17.5.541a13.682,13.682,0,0,0,2.507-2.484A3.4,3.4,0,0,0,29.8,27.059a14.055,14.055,0,0,1-2.223,2.157,3.174,3.174,0,0,0,1.09,1.383M16.045,32.73a3.583,3.583,0,0,0,.43-1.679,19.039,19.039,0,0,1-2.767-1.186,2.251,2.251,0,0,0-.923,1.4,10.558,10.558,0,0,0,3.26,1.468M23.533,33a12.428,12.428,0,0,0,3.384-1.314,4.3,4.3,0,0,0-.865-1.5,14.3,14.3,0,0,1-2.934,1.123A6.474,6.474,0,0,0,23.533,33m-2,.324a3.063,3.063,0,0,0-.2-1.728,13.361,13.361,0,0,1-3.056-.105A3.128,3.128,0,0,0,18,33.213a12.084,12.084,0,0,0,3.535.109M18.453,46.592H16.7v1.771h1.758Zm3.517,0H20.212v1.771H21.97Zm3.517,0H23.728v1.771h1.758Z" transform="translate(0 0)" fill="#1e535a"/>
        <path id="Trazado_1274036" data-name="Trazado 1274036" d="M102,93.521a3.511,3.511,0,1,1-3.511-3.511A3.511,3.511,0,0,1,102,93.521" transform="translate(-78.28 -74.183)" fill="#1e535a"/>
      </g>
    </g>
  </g>
</svg>
