<svg xmlns="http://www.w3.org/2000/svg" xmlns:xlink="http://www.w3.org/1999/xlink" width="130" height="130" viewBox="0 0 130 130">
  <defs>
    <clipPath id="clip-path">
      <rect id="Rectángulo_454829" data-name="Rectángulo 454829" width="130" height="130" fill="#1e535a"/>
    </clipPath>
    <clipPath id="clip-path-2">
      <rect id="Rectángulo_464403" data-name="Rectángulo 464403" width="43.648" height="49.109" fill="#1e535a"/>
    </clipPath>
  </defs>
  <g id="Grupo_1211067" data-name="Grupo 1211067" transform="translate(-186 -4323.945)">
    <g id="Grupo_1177591" data-name="Grupo 1177591" transform="translate(186 4323.945)">
      <g id="Grupo_1177589" data-name="Grupo 1177589" transform="translate(0 0)">
        <g id="Grupo_1177587" data-name="Grupo 1177587" clip-path="url(#clip-path)">
          <path id="Trazado_997422" data-name="Trazado 997422" d="M124.692,57.54a59.768,59.768,0,0,0-13.5-31.1,6.874,6.874,0,0,0-9.672-9.26,59.68,59.68,0,0,0-30.9-12.073,6.875,6.875,0,0,0-13.353.271A59.762,59.762,0,0,0,27.622,18.05a6.877,6.877,0,0,0-9.545,9.61A59.712,59.712,0,0,0,5.568,57.481,6.88,6.88,0,0,0,5.4,70.954,59.7,59.7,0,0,0,17.522,101.38a6.876,6.876,0,0,0,9.342,9.709,59.757,59.757,0,0,0,30.35,13.274,6.877,6.877,0,0,0,13.473.271,59.706,59.706,0,0,0,31.125-12.3,6.875,6.875,0,0,0,9.624-9.308,59.783,59.783,0,0,0,13.418-32.141,6.877,6.877,0,0,0-.161-13.35M105.274,29.825a6.838,6.838,0,0,0,3.808-1.153,56.758,56.758,0,0,1,12.526,28.85,6.887,6.887,0,0,0-4.395,3.184L99.637,54.116c.014-.192.027-.388.027-.587a6.877,6.877,0,0,0-2.913-5.62L104.44,29.77a7.449,7.449,0,0,0,.834.055m-3.716-1.094L93.917,46.749a6.806,6.806,0,0,0-7.575,4.374L54.544,43.8A6.691,6.691,0,0,0,54.4,42.43L99.523,26.716a6.9,6.9,0,0,0,2.035,2.014M63.979,13.765a6.883,6.883,0,0,0,6.755-5.582A56.663,56.663,0,0,1,99.386,19.388a6.844,6.844,0,0,0-.995,3.554,7.226,7.226,0,0,0,.065.909L53.107,39.641A6.9,6.9,0,0,0,51.861,38.4L63.756,13.754c.075,0,.148.01.223.01M57.286,8.454a6.884,6.884,0,0,0,3.462,4.5L49.086,37.109a6.9,6.9,0,0,0-1.42-.148,6.832,6.832,0,0,0-3.922,1.232L29.921,26.648a6.842,6.842,0,0,0-.233-6.333,56.709,56.709,0,0,1,27.6-11.861M13.6,62.741l28.59-14.746a6.857,6.857,0,0,0,5.424,2.728l9.8,31.321a7,7,0,0,0-1.516,1.678L13.511,66.062a6.836,6.836,0,0,0,.254-1.825,6.916,6.916,0,0,0-.168-1.5m6.752-33.029a6.877,6.877,0,0,0,7.682-.655l13.648,11.4a6.863,6.863,0,0,0-.758,4.755L12.283,59.976a6.88,6.88,0,0,0-3.644-2.388,56.684,56.684,0,0,1,11.71-27.876M23.2,98.391a6.862,6.862,0,0,0-3.417.913,56.633,56.633,0,0,1-11.3-28.38,6.888,6.888,0,0,0,3.572-2.155L54.857,86.6a7.38,7.38,0,0,0-.055.827,6.881,6.881,0,0,0,.412,2.326l-25.886,12.4A6.881,6.881,0,0,0,23.2,98.391M57.347,121.3A56.765,56.765,0,0,1,29.029,108.91a6.81,6.81,0,0,0,1.05-3.637l0-.079,26.8-12.845a6.882,6.882,0,0,0,2.429,1.534l1.606,23.08a6.882,6.882,0,0,0-3.565,4.337M60.2,80.715,50.609,50.057a6.892,6.892,0,0,0,3.27-3.27l32.055,7.38A6.842,6.842,0,0,0,87.028,57.3L65.043,81.426a6.8,6.8,0,0,0-4.844-.71M70.68,121.567a6.88,6.88,0,0,0-6.7-5.332l-.051,0L62.4,94.278a6.87,6.87,0,0,0,4.206-2.041l32.048,14.135c0,.062-.01.117-.01.178a6.848,6.848,0,0,0,1.019,3.589A56.66,56.66,0,0,1,70.68,121.567m28.747-18.2L68.213,89.6a6.842,6.842,0,0,0-.9-6.121l21.92-24.061a6.841,6.841,0,0,0,3.551.995,7.576,7.576,0,0,0,.844-.055l8.193,40.4a6.867,6.867,0,0,0-2.391,2.611M109.3,100.8a6.84,6.84,0,0,0-4.573-1.081L96.532,59.3A6.91,6.91,0,0,0,98.7,57.032l17.566,6.587a6.1,6.1,0,0,0-.031.618,6.88,6.88,0,0,0,5.531,6.745A56.707,56.707,0,0,1,109.3,100.8" transform="translate(0 0.001)" fill="#1e535a"/>
        </g>
      </g>
    </g>
    <g id="Elipse_13614" data-name="Elipse 13614" transform="translate(210.273 4348.213)" fill="#fff" stroke="#1e535a" stroke-width="3">
      <ellipse cx="40.732" cy="40.733" rx="40.732" ry="40.733" stroke="none"/>
      <ellipse cx="40.732" cy="40.733" rx="39.232" ry="39.233" fill="none"/>
    </g>
    <g id="Grupo_1211561" data-name="Grupo 1211561" transform="translate(229.181 4363.213)">
      <g id="Grupo_1211560" data-name="Grupo 1211560" clip-path="url(#clip-path-2)">
        <path id="Trazado_1274154" data-name="Trazado 1274154" d="M9.27,74.022c.232.443.062.948.069,1.416-.63.1-2.319.358-2.322-.7L7,66.209a19.188,19.188,0,0,0-2.427-.034,2.4,2.4,0,0,1-2.726,1.489,2.329,2.329,0,1,1,2.692-3.075l3.141.011a.863.863,0,0,1,.912.981l.007,8.193c0,.228.607.117.675.247" transform="translate(0 -52.926)" fill="#1e535a"/>
        <path id="Trazado_1274155" data-name="Trazado 1274155" d="M213.344,75.438c-.339-.195-.1-.952-.14-1.336.211-.178.581-.1.755-.3l.012-8.352c0-1.443,2.756-.561,4.04-.844a2.336,2.336,0,1,1,2.819,3.042,2.315,2.315,0,0,1-2.8-1.4,9.957,9.957,0,0,0-2.479-.02l-.022,8.5c0,1.194-2.07.771-2.187.7" transform="translate(-178.898 -52.939)" fill="#1e535a"/>
        <path id="Trazado_1274156" data-name="Trazado 1274156" d="M38.485,32.278a9.893,9.893,0,0,1-1.522,1.505l-.05-6.416-3.241-.006a2.327,2.327,0,0,1-4.516-.86,2.313,2.313,0,0,1,1.912-2.231,2.408,2.408,0,0,1,2.64,1.507l4.048.015a.735.735,0,0,1,.7.75Z" transform="translate(-24.469 -20.335)" fill="#1e535a"/>
        <path id="Trazado_1274157" data-name="Trazado 1274157" d="M184.426,32.565l-.018-5.672a.837.837,0,0,1,.864-.936l3.942-.023a2.31,2.31,0,0,1,2.684-1.439,2.283,2.283,0,0,1,1.828,2.288,2.322,2.322,0,0,1-4.506.776l-3.231-.022-.094,6.415a18.369,18.369,0,0,1-1.47-1.386" transform="translate(-154.767 -20.52)" fill="#1e535a"/>
        <path id="Trazado_1274158" data-name="Trazado 1274158" d="M37.244,121.748l1.98-.854,1.705,1.28,4.024-4.034-1.371-1.815.658-1.773a12.487,12.487,0,0,0,2.184-.4c.3-.268.508-.537,1.055-.45a2.475,2.475,0,0,0,3.021-2.335l.036-4.669a3.075,3.075,0,0,1,3.064,3.057v17.206H14.67l.017-17.357a3.025,3.025,0,0,1,3.035-2.9l.066,4.819a2.428,2.428,0,0,0,2.993,2.171c.6-.108.71.216,1.074.449.579.372,1.388.174,2.116.393a5.981,5.981,0,0,1,.64,1.779c-.208.693-.913,1.144-1.282,1.833l4.009,4.035,1.722-1.293c.551.38,1.472.469,1.91.952l.38,2,5.577,0a12.692,12.692,0,0,0,.317-2.087" transform="translate(-12.312 -89.545)" fill="#1e535a"/>
        <path id="Trazado_1274159" data-name="Trazado 1274159" d="M80.438,89.576a27.673,27.673,0,0,1-2.9.01,16.591,16.591,0,0,1-.293-1.776,10.853,10.853,0,0,1-3.412-1.47l-1.505,1.085L70.257,85.4,71.4,83.73a10.029,10.029,0,0,1-1.254-3.258L68.1,80.14l.011-2.887,2.173-.353a11.274,11.274,0,0,1,1.354-3L70.246,72.05a23.472,23.472,0,0,1,2.1-2.092l1.933,1.461a11.032,11.032,0,0,1,2.872-1.154l.377-2.455a25.529,25.529,0,0,1,2.892,0l.372,2.458a10.642,10.642,0,0,1,2.859,1.151L85.66,69.97l2.033,2.039L86.314,73.9a11.737,11.737,0,0,1,1.349,3l2.182.349.009,2.89-2.091.38a9.649,9.649,0,0,1-1.221,3.259l1.166,1.551a28.5,28.5,0,0,1-2.063,2.1l-1.522-1.094a10.026,10.026,0,0,1-3.369,1.435,15.338,15.338,0,0,0-.316,1.8M83.6,79.026a4.624,4.624,0,1,0-4.624,4.624A4.624,4.624,0,0,0,83.6,79.026" transform="translate(-57.153 -56.875)" fill="#1e535a"/>
        <path id="Trazado_1274160" data-name="Trazado 1274160" d="M124.363,9.243a2.836,2.836,0,0,1-1.523.071l-.028-4.748a2.438,2.438,0,0,1-1.541-2.514,2.331,2.331,0,0,1,4.584-.255,2.349,2.349,0,0,1-1.473,2.731Z" transform="translate(-101.763 0.001)" fill="#1e535a"/>
        <path id="Trazado_1274161" data-name="Trazado 1274161" d="M50.464,247.049l-32.812.007a3.17,3.17,0,0,1-3.1-3.659c.051-.409-.179-.762.181-1.034l38.7,0a8.2,8.2,0,0,1,.036,1.864,3.08,3.08,0,0,1-3,2.818" transform="translate(-12.194 -203.407)" fill="#1e535a"/>
        <path id="Trazado_1274162" data-name="Trazado 1274162" d="M88.926,285.2l-19.952.007a.827.827,0,0,1-.934-.712.745.745,0,0,1,.763-.861l3.049-.032.066-2.288H85.93L86,283.6l3.051.034a.74.74,0,0,1,.762.723.792.792,0,0,1-.882.841" transform="translate(-57.1 -236.095)" fill="#1e535a"/>
      </g>
    </g>
  </g>
</svg>
