<svg xmlns="http://www.w3.org/2000/svg" xmlns:xlink="http://www.w3.org/1999/xlink" width="85" height="85" viewBox="0 0 85 85">
  <defs>
    <clipPath id="clip-path">
      <rect id="Rectángulo_464331" data-name="Rectángulo 464331" width="61.571" height="60.564" fill="#344866"/>
    </clipPath>
  </defs>
  <g id="Grupo_1211020" data-name="Grupo 1211020" transform="translate(-179.734 -5520.842)">
    <rect id="Rectángulo_402006" data-name="Rectángulo 402006" width="85" height="85" rx="5" transform="translate(179.734 5520.842)" fill="#69d7e5"/>
    <g id="Grupo_1211473" data-name="Grupo 1211473" transform="translate(191.449 5533.06)">
      <g id="Grupo_1211472" data-name="Grupo 1211472" clip-path="url(#clip-path)">
        <path id="Trazado_1273930" data-name="Trazado 1273930" d="M59.527,60.022a4.126,4.126,0,0,1-4.315,4.223l-17.846,0,.53,6.12,3.151.022a17.627,17.627,0,0,1-.02,2.063l-22.5,0a11.731,11.731,0,0,1-.042-2.065l3.15-.024.544-6.092L4.1,64.226A4.069,4.069,0,0,1,0,60.105L0,19.085a4.044,4.044,0,0,1,4.11-4.109l31.781-.011a11.407,11.407,0,0,1-.005,2.059L4.324,17.012a2.116,2.116,0,0,0-2.282,2.258l.031,3.913,26.634-.006a11.734,11.734,0,0,1,0,2.056H2.041l.011,28.75,55.423,0,.006-16.422h2.057Zm-4.239,2.166a2.108,2.108,0,0,0,2.193-2.25l-.021-3.906H2.065l-.024,4.1a2.128,2.128,0,0,0,2.3,2.059ZM35.8,70.38l-.523-6.127H24.25l-.508,6.15Z" transform="translate(0 -11.892)" fill="#344866"/>
        <rect id="Rectángulo_464324" data-name="Rectángulo 464324" width="19.505" height="2.068" transform="translate(30.79 36.94)" fill="#344866"/>
        <rect id="Rectángulo_464325" data-name="Rectángulo 464325" width="17.452" height="2.068" transform="translate(36.949 32.834)" fill="#344866"/>
        <path id="Trazado_1273931" data-name="Trazado 1273931" d="M31.165,85.12c0,1.494-3.1,1.058-5.115,1.015a1.011,1.011,0,0,1-1.014-1.017V81.011a.985.985,0,0,1,1.01-1.005L30.159,80a.987.987,0,0,1,1.007,1.011Zm-2.037-3.083H27.075V84.1h2.053Z" transform="translate(-19.897 -63.575)" fill="#344866"/>
        <path id="Trazado_1273932" data-name="Trazado 1273932" d="M71.165,85.12c0,1.494-3.1,1.058-5.115,1.015a1.011,1.011,0,0,1-1.014-1.017V81.011a.985.985,0,0,1,1.01-1.005L70.159,80a.987.987,0,0,1,1.007,1.011Zm-2.037-3.083H67.075V84.1h2.053Z" transform="translate(-51.684 -63.575)" fill="#344866"/>
        <path id="Trazado_1273933" data-name="Trazado 1273933" d="M111.165,85.12c0,1.494-3.094,1.058-5.115,1.015a1.011,1.011,0,0,1-1.014-1.017V81.011a.985.985,0,0,1,1.01-1.005L110.159,80a.987.987,0,0,1,1.007,1.011Zm-2.037-3.083h-2.053V84.1h2.053Z" transform="translate(-83.471 -63.575)" fill="#344866"/>
        <path id="Trazado_1273934" data-name="Trazado 1273934" d="M31.165,125.12c0,1.494-3.1,1.058-5.115,1.015a1.011,1.011,0,0,1-1.014-1.017v-4.107a.985.985,0,0,1,1.01-1.005L30.159,120a.987.987,0,0,1,1.007,1.011Zm-2.037-3.083H27.075V124.1h2.053Z" transform="translate(-19.897 -95.362)" fill="#344866"/>
        <path id="Trazado_1273935" data-name="Trazado 1273935" d="M111.165,125.12c0,1.494-3.095,1.058-5.115,1.015a1.011,1.011,0,0,1-1.014-1.017v-4.107a.985.985,0,0,1,1.01-1.005l4.111-.006a.987.987,0,0,1,1.007,1.011Zm-2.037-3.083h-2.053V124.1h2.053Z" transform="translate(-83.471 -95.362)" fill="#344866"/>
        <path id="Trazado_1273936" data-name="Trazado 1273936" d="M31.165,165.12c0,1.494-3.095,1.058-5.115,1.015a1.011,1.011,0,0,1-1.014-1.017v-4.107a.985.985,0,0,1,1.01-1.005L30.159,160a.987.987,0,0,1,1.007,1.011Zm-2.037-3.083H27.075V164.1h2.053Z" transform="translate(-19.897 -127.15)" fill="#344866"/>
        <path id="Trazado_1273937" data-name="Trazado 1273937" d="M71.165,165.12c0,1.494-3.1,1.058-5.115,1.015a1.011,1.011,0,0,1-1.014-1.017v-4.107a.985.985,0,0,1,1.01-1.005L70.159,160a.987.987,0,0,1,1.007,1.011Zm-2.037-3.083H67.075V164.1h2.053Z" transform="translate(-51.684 -127.15)" fill="#344866"/>
        <path id="Trazado_1273938" data-name="Trazado 1273938" d="M111.165,165.12c0,1.494-3.1,1.058-5.115,1.015a1.011,1.011,0,0,1-1.014-1.017v-4.107a.985.985,0,0,1,1.01-1.005l4.111-.006a.987.987,0,0,1,1.007,1.011Zm-2.037-3.083h-2.053V164.1h2.053Z" transform="translate(-83.471 -127.15)" fill="#344866"/>
        <path id="Trazado_1273939" data-name="Trazado 1273939" d="M71.165,125.12c0,1.494-3.094,1.058-5.114,1.015a1.011,1.011,0,0,1-1.014-1.017v-4.107a.985.985,0,0,1,1.01-1.005L70.159,120a.987.987,0,0,1,1.007,1.011Zm-2.037-3.083H67.075V124.1h2.053Z" transform="translate(-51.684 -95.362)" fill="#344866"/>
        <rect id="Rectángulo_464326" data-name="Rectángulo 464326" width="2.053" height="2.068" transform="translate(4.099 7.17)" fill="#344866"/>
        <rect id="Rectángulo_464327" data-name="Rectángulo 464327" width="2.053" height="2.068" transform="translate(8.205 7.17)" fill="#344866"/>
        <rect id="Rectángulo_464328" data-name="Rectángulo 464328" width="2.053" height="2.068" transform="translate(12.311 7.17)" fill="#344866"/>
        <rect id="Rectángulo_464329" data-name="Rectángulo 464329" width="2.053" height="2.068" transform="translate(32.843 32.834)" fill="#344866"/>
        <rect id="Rectángulo_464330" data-name="Rectángulo 464330" width="2.053" height="2.068" transform="translate(28.736 46.18)" fill="#344866"/>
        <path id="Trazado_1273940" data-name="Trazado 1273940" d="M169.952,30.651a1.124,1.124,0,0,1-1.3-.223l-2.243-2.468a7.432,7.432,0,0,0-1.973,0l-2.14,2.368a1.141,1.141,0,0,1-1.327.348L157.686,29.3a1,1,0,0,1-.619-.984l.167-3.266a5.062,5.062,0,0,0-1.475-1.474l-3.265.166a1,1,0,0,1-.99-.625l-1.374-3.284a1.049,1.049,0,0,1,.159-1.114l2.558-2.349a7.046,7.046,0,0,0,0-1.973l-2.371-2.138a1.143,1.143,0,0,1-.347-1.327L151.5,7.645a.986.986,0,0,1,1-.618l3.259.169a5.186,5.186,0,0,0,1.482-1.476l-.177-3.065a1.183,1.183,0,0,1,.77-1.265l3.152-1.3A1.09,1.09,0,0,1,162.2.338l2.244,2.468a6.72,6.72,0,0,0,1.971,0L168.55.437a1.143,1.143,0,0,1,1.327-.347l3.279,1.371a1,1,0,0,1,.625.989l-.17,3.29c.413.427.86,1.259,1.494,1.376,1.61.3,3.728-.694,4.243.536l1.372,3.282a1.05,1.05,0,0,1-.159,1.115L178,14.4a6.841,6.841,0,0,0,0,1.97l2.371,2.139a1.147,1.147,0,0,1,.346,1.328l-1.373,3.277a1.006,1.006,0,0,1-.99.625l-3.263-.163a5.086,5.086,0,0,0-1.478,1.472l.167,3.266a1.012,1.012,0,0,1-.625.993Zm-.183-2.174a8.886,8.886,0,0,0,1.861-.817c.3-1.059-.449-2.338.063-3.446a6.95,6.95,0,0,1,2.451-2.509c1.055-.619,2.446.172,3.537-.086a4.915,4.915,0,0,0,.777-2.005c-.64-.941-2.006-1.389-2.39-2.488a6.314,6.314,0,0,1,0-3.491c.405-1.134,1.828-1.568,2.414-2.548a6.357,6.357,0,0,0-.789-1.914c-1.061-.292-2.329.462-3.435-.062a6.561,6.561,0,0,1-2.567-2.566c-.521-1.108.234-2.369-.06-3.437a4.88,4.88,0,0,0-1.984-.755c-.936.624-1.383,2.022-2.493,2.386a6.664,6.664,0,0,1-3.473,0c-1.145-.388-1.574-1.84-2.55-2.407a6.37,6.37,0,0,0-1.919.782c-.3,1.059.459,2.328-.062,3.432a6.531,6.531,0,0,1-2.566,2.568c-1.109.521-2.368-.232-3.437.06a4.9,4.9,0,0,0-.761,1.978c.624.915,1.891,1.325,2.347,2.4a5.891,5.891,0,0,1,0,3.676c-.476,1.108-1.8,1.5-2.373,2.459a6.464,6.464,0,0,0,.789,1.911c1.065.289,2.33-.45,3.444.068a6.5,6.5,0,0,1,2.559,2.56c.521,1.1-.239,2.375.063,3.441a7.051,7.051,0,0,0,1.9.79c.964-.572,1.362-1.906,2.467-2.38a5.916,5.916,0,0,1,3.678,0c1.111.471,1.5,1.82,2.506,2.406" transform="translate(-119.236 -0.001)" fill="#344866"/>
        <path id="Trazado_1273941" data-name="Trazado 1273941" d="M207.3,51.1a6.155,6.155,0,1,1-6.155-6.155A6.155,6.155,0,0,1,207.3,51.1m-2.056,0a4.1,4.1,0,1,0-4.1,4.1,4.1,4.1,0,0,0,4.1-4.1" transform="translate(-154.953 -35.717)" fill="#344866"/>
      </g>
    </g>
  </g>
</svg>
