<svg xmlns="http://www.w3.org/2000/svg" xmlns:xlink="http://www.w3.org/1999/xlink" width="128" height="128" viewBox="0 0 128 128">
  <defs>
    <clipPath id="clip-path">
      <rect id="Rectángulo_454829" data-name="Rectángulo 454829" width="128" height="128" fill="#1e535a"/>
    </clipPath>
    <clipPath id="clip-path-2">
      <rect id="Rectángulo_464365" data-name="Rectángulo 464365" width="42.52" height="37.95" fill="#1e535a"/>
    </clipPath>
  </defs>
  <g id="Grupo_1209804" data-name="Grupo 1209804" transform="translate(-186 -4323.945)">
    <g id="Grupo_1177591" data-name="Grupo 1177591" transform="translate(186 4323.945)">
      <g id="Grupo_1177589" data-name="Grupo 1177589" transform="translate(0 0)">
        <g id="Grupo_1177587" data-name="Grupo 1177587" clip-path="url(#clip-path)">
          <path id="Trazado_997422" data-name="Trazado 997422" d="M122.774,56.654a58.848,58.848,0,0,0-13.293-30.623,6.768,6.768,0,0,0-9.523-9.118A58.761,58.761,0,0,0,69.535,5.027a6.769,6.769,0,0,0-13.148.267A58.842,58.842,0,0,0,27.2,17.772a6.771,6.771,0,0,0-9.4,9.462A58.794,58.794,0,0,0,5.483,56.6a6.774,6.774,0,0,0-.162,13.266A58.776,58.776,0,0,0,17.252,99.82a6.771,6.771,0,0,0,9.2,9.56,58.838,58.838,0,0,0,29.883,13.07,6.771,6.771,0,0,0,13.266.267,58.788,58.788,0,0,0,30.646-12.107,6.769,6.769,0,0,0,9.476-9.165A58.863,58.863,0,0,0,122.933,69.8a6.771,6.771,0,0,0-.159-13.144m-19.12-27.288a6.733,6.733,0,0,0,3.75-1.135,55.884,55.884,0,0,1,12.333,28.407,6.781,6.781,0,0,0-4.327,3.135L98.1,53.283c.013-.189.027-.382.027-.578a6.772,6.772,0,0,0-2.868-5.533l7.57-17.86a7.335,7.335,0,0,0,.821.054M100,28.288,92.472,46.03a6.7,6.7,0,0,0-7.459,4.307L53.705,43.125a6.588,6.588,0,0,0-.142-1.348L97.992,26.305a6.793,6.793,0,0,0,2,1.983M63,13.553a6.777,6.777,0,0,0,6.651-5.5A55.792,55.792,0,0,1,97.857,19.09a6.739,6.739,0,0,0-.98,3.5,7.114,7.114,0,0,0,.064.9L52.29,39.031A6.8,6.8,0,0,0,51.064,37.8L62.775,13.543c.074,0,.145.01.22.01M56.4,8.324a6.778,6.778,0,0,0,3.409,4.435L48.331,36.538a6.8,6.8,0,0,0-1.4-.145,6.727,6.727,0,0,0-3.861,1.213L29.461,26.238A6.736,6.736,0,0,0,29.231,20,55.836,55.836,0,0,1,56.4,8.324M13.387,61.776l28.15-14.519a6.751,6.751,0,0,0,5.341,2.686l9.648,30.839a6.887,6.887,0,0,0-1.493,1.652L13.3,65.046a6.731,6.731,0,0,0,.25-1.8,6.81,6.81,0,0,0-.166-1.473m6.648-32.521a6.771,6.771,0,0,0,7.564-.645L41.037,39.831a6.758,6.758,0,0,0-.747,4.682l-28.2,14.539A6.774,6.774,0,0,0,8.506,56.7,55.812,55.812,0,0,1,20.036,29.254m2.8,67.623a6.756,6.756,0,0,0-3.365.9A55.762,55.762,0,0,1,8.351,69.832a6.783,6.783,0,0,0,3.517-2.121L54.013,85.27a7.266,7.266,0,0,0-.054.814,6.775,6.775,0,0,0,.405,2.29L28.876,100.587a6.775,6.775,0,0,0-6.037-3.709m33.626,22.556a55.892,55.892,0,0,1-27.883-12.2,6.705,6.705,0,0,0,1.034-3.581l0-.078L56,90.929a6.776,6.776,0,0,0,2.392,1.51l1.581,22.725a6.776,6.776,0,0,0-3.51,4.27m2.807-39.96L49.831,49.287a6.786,6.786,0,0,0,3.219-3.219l31.562,7.266a6.736,6.736,0,0,0,1.078,3.081L64.042,80.173a6.692,6.692,0,0,0-4.77-.7M69.592,119.7a6.774,6.774,0,0,0-6.6-5.25l-.051,0-1.5-21.623a6.764,6.764,0,0,0,4.142-2.01l31.555,13.918c0,.061-.01.115-.01.176a6.743,6.743,0,0,0,1,3.534A55.789,55.789,0,0,1,69.592,119.7M97.9,101.779,67.164,88.22a6.736,6.736,0,0,0-.888-6.027L87.858,58.5a6.736,6.736,0,0,0,3.5.98,7.46,7.46,0,0,0,.831-.054l8.067,39.781a6.761,6.761,0,0,0-2.355,2.571m9.722-2.534a6.735,6.735,0,0,0-4.5-1.064l-8.07-39.8a6.8,6.8,0,0,0,2.135-2.23l17.3,6.486a6.009,6.009,0,0,0-.03.608,6.774,6.774,0,0,0,5.445,6.641A55.835,55.835,0,0,1,107.62,99.246" transform="translate(0 0.001)" fill="#1e535a"/>
        </g>
      </g>
    </g>
    <g id="Elipse_13614" data-name="Elipse 13614" transform="translate(210.273 4348.213)" fill="#fff" stroke="#1e535a" stroke-width="3">
      <ellipse cx="39.732" cy="39.733" rx="39.732" ry="39.733" stroke="none"/>
      <ellipse cx="39.732" cy="39.733" rx="38.232" ry="38.233" fill="none"/>
    </g>
    <g id="Grupo_1211504" data-name="Grupo 1211504" transform="translate(228.745 4368.97)">
      <g id="Grupo_1211503" data-name="Grupo 1211503" clip-path="url(#clip-path-2)">
        <path id="Trazado_1274046" data-name="Trazado 1274046" d="M29.763,204.686,17.2,204.68a1.565,1.565,0,0,0-1.513,1.031l-1.114,2.769-12.021,0,2.43-6.085H41.921l2.414,6.093-12.009-.006-1.115-2.769a1.516,1.516,0,0,0-1.449-1.023" transform="translate(-2.192 -173.57)" fill="#1e535a"/>
        <rect id="Rectángulo_464364" data-name="Rectángulo 464364" width="42.52" height="1.523" transform="translate(0 36.427)" fill="#1e535a"/>
        <path id="Trazado_1274047" data-name="Trazado 1274047" d="M113.06,231.37l-14.424,0,.891-2.278,12.6-.012a19.7,19.7,0,0,1,.935,2.284" transform="translate(-84.59 -196.463)" fill="#1e535a"/>
        <path id="Trazado_1274048" data-name="Trazado 1274048" d="M57.775,27.344H21.331V0H57.775ZM54.7,25.788a1.468,1.468,0,0,0,1.553-1.438l.009-21.331A1.492,1.492,0,0,0,54.743,1.5l-30.378,0A1.494,1.494,0,0,0,22.844,3.02l.008,21.331a1.5,1.5,0,0,0,1.624,1.442Z" transform="translate(-18.293)" fill="#1e535a"/>
        <path id="Trazado_1274049" data-name="Trazado 1274049" d="M42.607,21.118H72.992V42.394H42.607Zm3.412,4.558c.282-.469.79-.711,1.039-1.178a.745.745,0,0,0-1.171-.885l-1.56,1.56a.742.742,0,0,0,.017,1.021L45.9,27.756a.765.765,0,0,0,1.053-.026c.743-.808-.591-1.456-.936-2.053m4.136,1.8,1.49-3a.749.749,0,0,0-1.323-.7l-1.558,3.091a.751.751,0,0,0,.347,1,.771.771,0,0,0,1.044-.393m4.44.2,1.455-1.46a.789.789,0,0,0,0-1.08l-1.5-1.494a.744.744,0,0,0-1.1.029c-.68.8.558,1.389.954,2-.388.61-1.639,1.216-.952,2.008a.764.764,0,0,0,1.145-.007m-6.624,3.306a.735.735,0,0,0,.7-.685c.1-1.118-1.515-.754-2.984-.8a.739.739,0,0,0-.789.687c-.09,1.106,1.847.837,3.076.8m9.109,0a.726.726,0,0,0,.7-.692c.024-.295-.157-.773-.583-.773l-6.378,0c-.508,0-.637.573-.564.913a.772.772,0,0,0,.848.573Zm-3.806,3.04a.739.739,0,0,0,.7-.854.728.728,0,0,0-.741-.656l-5.965-.008a.778.778,0,0,0-.845.779.764.764,0,0,0,.723.745Zm-2.258,3.026a.73.73,0,0,0,.684-.887.785.785,0,0,0-.757-.617l-3.805.008a.741.741,0,0,0-.707.86.776.776,0,0,0,.827.655Zm12.106.01a.746.746,0,0,0,.735-.852.77.77,0,0,0-.8-.668l-9.082.01a.76.76,0,0,0-.723.85.8.8,0,0,0,.843.672Zm6.052-.769a.731.731,0,0,0-.713-.737l-2.26-.01a.758.758,0,0,0-.791.764.77.77,0,0,0,.791.761c1.384.012,2.982.283,2.973-.778m-20.282,3.75a.655.655,0,0,0,.517-.765c-.066-.9-1.449-.754-2.409-.639a.7.7,0,0,0-.552.892c.17.758,1.728.635,2.444.512m8.119.042a.728.728,0,0,0,.769-.8.752.752,0,0,0-.837-.683l-5.126,0a.752.752,0,1,0,0,1.5Zm11.387,0a.729.729,0,0,0,.774-.805.754.754,0,0,0-.84-.684l-8.113,0c-.512,0-.852.24-.879.681a.712.712,0,0,0,.736.81Z" transform="translate(-36.54 -18.111)" fill="#1e535a"/>
      </g>
    </g>
  </g>
</svg>
