<svg xmlns="http://www.w3.org/2000/svg" xmlns:xlink="http://www.w3.org/1999/xlink" width="84" height="84" viewBox="0 0 84 84">
  <defs>
    <clipPath id="clip-path">
      <rect id="Rectángulo_464322" data-name="Rectángulo 464322" width="62.901" height="60.023" fill="#344866"/>
    </clipPath>
  </defs>
  <g id="Grupo_1210217" data-name="Grupo 1210217" transform="translate(0.289 0.137)">
    <g id="Grupo_1119665" data-name="Grupo 1119665" transform="translate(-0.289 -0.137)">
      <rect id="Rectángulo_402006" data-name="Rectángulo 402006" width="84" height="84" rx="5" fill="#a4e7f0"/>
    </g>
    <g id="Grupo_1211469" data-name="Grupo 1211469" transform="translate(10.26 11.852)">
      <g id="Grupo_1211468" data-name="Grupo 1211468" clip-path="url(#clip-path)">
        <path id="Trazado_1273909" data-name="Trazado 1273909" d="M24.067,45.545l7.148-.045c.067-.837.032-1.567.022-2.362a2.8,2.8,0,0,1,3.16-2.876l.971-2.273a2.808,2.808,0,0,1-.315-4.209c.583-.6,1.134-1.21,1.771-1.752a2.866,2.866,0,0,1,4.061.444l2.209-.945a2.875,2.875,0,0,1,2.611-3.19,17.119,17.119,0,0,1,2.688.006,2.818,2.818,0,0,1,2.536,3.166l2.332.921a3.107,3.107,0,0,1,2.676-1.1l-.019-12.476-53.443,0,.046,23.07A4.006,4.006,0,0,0,5.1,45.48l8.028.079a1.222,1.222,0,0,1,1.168,1.224,1.273,1.273,0,0,1-1.339,1.261H5.88C2.451,48.042,0,44.759,0,41.548L0,6.409C.006,3.28,2.387,0,5.962,0l46.6.005c3.467,0,5.838,3.333,5.843,6.4l.046,26.768a3.208,3.208,0,0,1,1.4,2.3,2.865,2.865,0,0,1-1.084,2.453l.972,2.345a2.735,2.735,0,0,1,3.157,2.674l.01,1.975a2.9,2.9,0,0,1-3.184,3.11l-.977,2.247a2.841,2.841,0,0,1,.436,4.092c-.52.6-1.1,1.121-1.659,1.683a2.84,2.84,0,0,1-4.278-.25l-2.268.952a2.88,2.88,0,0,1-2.546,3.2,13.552,13.552,0,0,1-2.559.02,2.9,2.9,0,0,1-2.709-3.235L40.9,55.788a2.811,2.811,0,0,1-4.272.263c-.556-.564-1.13-1.076-1.649-1.666a2.768,2.768,0,0,1,.38-4.044l-.879-2.275-10.467-.039a1.242,1.242,0,0,1,.052-2.483M55.932,16.38,55.873,6.2a3.831,3.831,0,0,0-2.892-3.727H5.386A3.92,3.92,0,0,0,2.547,6.032C2.343,9.468,2.51,12.9,2.485,16.4Zm-7.485,41,.058-1.662c.054-1.569,1.981-1.024,3.948-2.387,1.774-1.229,2.545,1.345,3.129,1A6.866,6.866,0,0,0,57.366,52.6c-.23-.822-2.062-1.438-1.2-2.855a11.055,11.055,0,0,0,1.318-3.179c.339-1.4,1.84-.915,2.854-1.084a8.408,8.408,0,0,0,0-2.678c-1.009-.256-2.5.341-2.85-1.107a10.8,10.8,0,0,0-1.313-3.179c-.847-1.373.838-1.973,1.244-2.876a9.315,9.315,0,0,0-1.83-1.73c-.546-.3-1.376,1.966-2.721,1.207A11.8,11.8,0,0,0,49.52,33.72c-1.57-.335-.868-2.006-1.2-2.88a10.232,10.232,0,0,0-2.6,0c-.321.888.359,2.541-1.1,2.869-3.282.741-3.515,2.5-5.091.943-.231-.228-.626-.838-.978-.729a6.121,6.121,0,0,0-1.7,1.649c-.46.616,2.131,1.4,1.064,3.067a10.133,10.133,0,0,0-1.251,3.042c-.369,1.475-1.823.845-2.851,1.119a8,8,0,0,0,0,2.67c1,.185,2.5-.341,2.855,1.105a11.093,11.093,0,0,0,1.314,3.162C38.861,51.2,36.918,51.8,36.81,52.6a6.029,6.029,0,0,0,1.75,1.744c.567.349,1.374-2.238,3.122-1.017a9.572,9.572,0,0,0,2.961,1.2c1.457.408.836,1.83,1.087,2.868a8.806,8.806,0,0,0,2.718-.014" transform="translate(0 0)" fill="#344866"/>
        <path id="Trazado_1273910" data-name="Trazado 1273910" d="M126.241,146.427a1.3,1.3,0,0,1-1.777.327,1.2,1.2,0,0,1-.279-1.716l3.05-3.506-2.865-3.247a1.32,1.32,0,0,1-.215-1.658,1.24,1.24,0,0,1,1.78-.258l3.62,4.011a1.8,1.8,0,0,1-.1,2.445Z" transform="translate(-99.568 -109.336)" fill="#344866"/>
        <path id="Trazado_1273911" data-name="Trazado 1273911" d="M41.477,145.131a1.2,1.2,0,0,1-.3,1.741,1.261,1.261,0,0,1-1.649-.257l-3.4-3.828a1.758,1.758,0,0,1,.038-2.363l3.432-3.842a1.294,1.294,0,0,1,1.624-.167,1.226,1.226,0,0,1,.282,1.691l-3.046,3.5Z" transform="translate(-28.672 -109.431)" fill="#344866"/>
        <path id="Trazado_1273912" data-name="Trazado 1273912" d="M85.127,143.179a1.236,1.236,0,1,1-2.417-.524l2.429-10.2a1.248,1.248,0,0,1,1.408-1.015,1.211,1.211,0,0,1,1.016,1.511Z" transform="translate(-66.422 -105.593)" fill="#344866"/>
        <path id="Trazado_1273913" data-name="Trazado 1273913" d="M90.756,232.973a1.235,1.235,0,1,1-1.235-1.235,1.235,1.235,0,0,1,1.235,1.235" transform="translate(-70.932 -186.183)" fill="#344866"/>
        <path id="Trazado_1273914" data-name="Trazado 1273914" d="M181.629,35.341c-3.941.111-7.651.109-11.459,0a4.141,4.141,0,0,1,.252-8.276l11.186.02a4.131,4.131,0,0,1,.021,8.254m.006-2.509a1.575,1.575,0,0,0,1.437-1.651c-.007-.641-.525-1.588-1.366-1.588l-11.539-.006a1.607,1.607,0,0,0-1.409,1.583,1.668,1.668,0,0,0,1.394,1.7Z" transform="translate(-133.584 -21.746)" fill="#344866"/>
        <path id="Trazado_1273915" data-name="Trazado 1273915" d="M100.414,31.2a4.15,4.15,0,1,1-4.15-4.15,4.15,4.15,0,0,1,4.15,4.15m-2.489,0a1.663,1.663,0,1,0-1.663,1.663A1.663,1.663,0,0,0,97.925,31.2" transform="translate(-74.005 -21.735)" fill="#344866"/>
        <path id="Trazado_1273916" data-name="Trazado 1273916" d="M45.605,31.213a4.151,4.151,0,1,1-4.151-4.151,4.151,4.151,0,0,1,4.151,4.151m-2.482,0a1.667,1.667,0,1,0-1.667,1.667,1.667,1.667,0,0,0,1.667-1.667" transform="translate(-29.971 -21.742)" fill="#344866"/>
        <path id="Trazado_1273917" data-name="Trazado 1273917" d="M216.078,193.607a7.561,7.561,0,1,1-7.561-7.561,7.561,7.561,0,0,1,7.561,7.561m-2.476,0a5.083,5.083,0,1,0-5.083,5.083,5.083,5.083,0,0,0,5.083-5.083" transform="translate(-161.451 -149.473)" fill="#344866"/>
      </g>
    </g>
  </g>
</svg>
