<svg xmlns="http://www.w3.org/2000/svg" xmlns:xlink="http://www.w3.org/1999/xlink" width="292" height="295" viewBox="0 0 292 295">
  <defs>
    <clipPath id="clip-path">
      <rect id="Rectángulo_460902" data-name="Rectángulo 460902" width="292" height="288.407" fill="none"/>
    </clipPath>
    <clipPath id="clip-path-2">
      <path id="Trazado_1273311" data-name="Trazado 1273311" d="M122.986,95.42a119.119,119.119,0,0,1-13.509,2.51,105.479,105.479,0,0,1,3.034,30.719c-.377,6.774-2.048,11.078-6.866,15.788a2.641,2.641,0,0,0-.548,1.811c-.063,1.665,1.946,2,3.145,2.6,3.492,1.734,6.882,3.668,10.3,5.524l5.369,2.605c10.576-26.232,6.389-44.175,1.923-61.908-.95.123-1.9.237-2.853.353" transform="translate(-105.096 -95.067)" fill="none"/>
    </clipPath>
    <clipPath id="clip-path-4">
      <path id="Trazado_1273320" data-name="Trazado 1273320" d="M98.569,126.915c-2.292.739-5.375,2.5-5.949,5.013a9.363,9.363,0,0,0,.086,3.5q.33,2.149.707,4.293c.377,2.149.775,4.3,1.261,6.418a1.3,1.3,0,0,1-.268,1.285,1.6,1.6,0,0,1-1.082.249,8.9,8.9,0,0,0,4.621,3.487,8.656,8.656,0,0,0,5.78-.187,7.716,7.716,0,0,0,1.653-.777,4.483,4.483,0,0,0,1.178-1.391.153.153,0,0,0,.026-.142.161.161,0,0,0-.112-.065,1.734,1.734,0,0,1-1.177-.774,1.992,1.992,0,0,1-.177-.783,11.331,11.331,0,0,1,0-1.661c.013-.189-.04-.53.185-.564a3.189,3.189,0,0,1,.586.087,3.61,3.61,0,0,0,2.029-.441,5.874,5.874,0,0,0,2.637-4.516c.41-3.7-1.428-9.952-4.594-12.271a7.507,7.507,0,0,0-4.369-1.211,10.029,10.029,0,0,0-3.02.452" transform="translate(-92.485 -126.463)" fill="none"/>
    </clipPath>
  </defs>
  <g id="Grupo_1211166" data-name="Grupo 1211166" transform="translate(-1122 -2500)">
    <rect id="Rectángulo_460557" data-name="Rectángulo 460557" width="292" height="295" transform="translate(1122 2500)" fill="none"/>
    <g id="Grupo_1211165" data-name="Grupo 1211165" transform="translate(1122 2503)">
      <g id="Grupo_1211156" data-name="Grupo 1211156">
        <g id="Grupo_1211155" data-name="Grupo 1211155" clip-path="url(#clip-path)">
          <path id="Trazado_1273275" data-name="Trazado 1273275" d="M52.841,77.422A69.44,69.44,0,0,0,14.958,74.9c-3.718.8-7.462,1.961-10.422,4.275S-.476,85.167.1,88.8a10.855,10.855,0,0,0,5.423,7.253,26.643,26.643,0,0,0,9,2.966,82.348,82.348,0,0,0,31.213-.363c3.754-.773,7.55-1.858,10.584-4.127C63.991,88.79,61.1,80.4,52.841,77.422" transform="translate(0 -22.434)" fill="#ffe79e"/>
          <path id="Trazado_1273276" data-name="Trazado 1273276" d="M237.442,286.065A61.218,61.218,0,0,0,254.624,274.4a57,57,0,0,0,2.719-78.956c-4.944-5.51-10.915-10.009-16-15.386-19.207-20.292-19.168-49.718-36.368-70.651-7.146-8.7-16.892-14.931-27.126-19.62-20.117-9.218-43.155-12.878-64.719-7.911-27.663,6.372-52.043,30.613-60.655,57.666-4.149,13.036-3.551,27.938,3.5,39.659,7.232,12.019,20.055,19.349,30.087,29.152,14.109,13.787,22.467,32.233,33.068,48.868,5.744,9.013,12.38,17.737,21.248,23.7,10.214,6.871,22.631,9.587,34.827,11.264,20.817,2.862,43.626,2.447,62.239-6.126" transform="translate(-15.251 -24.356)" fill="#ffe79e"/>
          <ellipse id="Elipse_13709" data-name="Elipse 13709" cx="3.184" cy="4.753" rx="3.184" ry="4.753" transform="translate(180.011 157.284)" fill="none" stroke="#000" stroke-linecap="round" stroke-miterlimit="10" stroke-width="1"/>
          <path id="Trazado_1273277" data-name="Trazado 1273277" d="M403.778,73.841a10.586,10.586,0,0,1,.4,11.628" transform="translate(-123.463 -22.578)" fill="none" stroke="#000" stroke-linecap="round" stroke-miterlimit="10" stroke-width="1"/>
          <path id="Trazado_1273278" data-name="Trazado 1273278" d="M381.127,84.834c-4.826,0-8.738-4.267-8.738-4.267S376.3,76.3,381.127,76.3s8.738,4.267,8.738,4.267S385.954,84.834,381.127,84.834Z" transform="translate(-113.865 -23.33)" fill="none" stroke="#1c1c1b" stroke-miterlimit="10" stroke-width="1"/>
          <path id="Trazado_1273279" data-name="Trazado 1273279" d="M383.252,84.846a4.3,4.3,0,1,1,3.812-4.272,4.062,4.062,0,0,1-3.812,4.272" transform="translate(-116.021 -23.331)"/>
          <line id="Línea_3255" data-name="Línea 3255" x1="2.671" y2="7.183" transform="translate(247.142 53.154)" fill="none" stroke="#000" stroke-linecap="round" stroke-miterlimit="10" stroke-width="1"/>
          <line id="Línea_3256" data-name="Línea 3256" x1="2.671" y2="7.183" transform="translate(250.54 53.154)" fill="none" stroke="#000" stroke-linecap="round" stroke-miterlimit="10" stroke-width="1"/>
          <path id="Trazado_1273280" data-name="Trazado 1273280" d="M22.922,237.269a.654.654,0,1,1-.655-.64.648.648,0,0,1,.655.64" transform="translate(-6.609 -72.354)"/>
          <path id="Trazado_1273281" data-name="Trazado 1273281" d="M22.922,237.269a.654.654,0,1,1-.655-.64A.648.648,0,0,1,22.922,237.269Z" transform="translate(-6.609 -72.354)" fill="none" stroke="#000" stroke-miterlimit="10" stroke-width="1"/>
          <path id="Trazado_1273282" data-name="Trazado 1273282" d="M22.922,241.877a.654.654,0,1,1-.655-.64.647.647,0,0,1,.655.64" transform="translate(-6.609 -73.763)"/>
          <path id="Trazado_1273283" data-name="Trazado 1273283" d="M22.922,241.877a.654.654,0,1,1-.655-.64A.647.647,0,0,1,22.922,241.877Z" transform="translate(-6.609 -73.763)" fill="none" stroke="#000" stroke-miterlimit="10" stroke-width="1"/>
          <path id="Trazado_1273284" data-name="Trazado 1273284" d="M35.514,238.023c0,2.3-1.318,4.158-2.945,4.158s-2.944-1.862-2.944-4.158,1.318-4.159,2.944-4.159S35.514,235.726,35.514,238.023Z" transform="translate(-9.058 -71.508)" fill="none" stroke="#000" stroke-linecap="round" stroke-miterlimit="10" stroke-width="1"/>
          <path id="Trazado_1273285" data-name="Trazado 1273285" d="M48.71,238.023c0,2.3-1.318,4.158-2.944,4.158s-2.945-1.862-2.945-4.158,1.318-4.159,2.945-4.159S48.71,235.726,48.71,238.023Z" transform="translate(-13.093 -71.508)" fill="none" stroke="#000" stroke-linecap="round" stroke-miterlimit="10" stroke-width="1"/>
          <path id="Trazado_1273286" data-name="Trazado 1273286" d="M198.609,393.322l-6.7,4.96,6.333,4.2" transform="translate(-58.678 -120.266)" fill="none" stroke="#000" stroke-linecap="round" stroke-miterlimit="10" stroke-width="1"/>
          <line id="Línea_3257" data-name="Línea 3257" x1="2.98" y2="8.394" transform="translate(157.067 273.438)" fill="none" stroke="#000" stroke-linecap="round" stroke-miterlimit="10" stroke-width="1"/>
          <line id="Línea_3258" data-name="Línea 3258" x1="2.98" y2="8.394" transform="translate(161.537 273.438)" fill="none" stroke="#000" stroke-linecap="round" stroke-miterlimit="10" stroke-width="1"/>
          <rect id="Rectángulo_460892" data-name="Rectángulo 460892" width="7.022" height="5.947" transform="translate(144.651 274.477)"/>
          <line id="Línea_3259" data-name="Línea 3259" x1="13.177" transform="translate(140.14 44.435)" fill="none" stroke="#000" stroke-linecap="round" stroke-miterlimit="10" stroke-width="1"/>
          <path id="Trazado_1273287" data-name="Trazado 1273287" d="M225.048,57.25l7.4,5.225L225.459,66.9" transform="translate(-68.813 -17.505)" fill="none" stroke="#000" stroke-linecap="round" stroke-miterlimit="10" stroke-width="1"/>
          <path id="Trazado_1273288" data-name="Trazado 1273288" d="M237.6,117.763H195.522A2.522,2.522,0,0,1,193,115.241v-12.3a2.523,2.523,0,0,1,2.524-2.524H237.6a2.523,2.523,0,0,1,2.523,2.524v12.3a2.522,2.522,0,0,1-2.523,2.522" transform="translate(-59.013 -30.706)" fill="#69d7e5"/>
          <line id="Línea_3260" data-name="Línea 3260" y1="9.36" x2="5.918" transform="translate(168.137 57.267)" fill="none" stroke="#000" stroke-linecap="round" stroke-linejoin="round" stroke-width="1"/>
          <line id="Línea_3261" data-name="Línea 3261" x2="5.305" y2="8.64" transform="translate(155.564 92.148)" fill="none" stroke="#000" stroke-linecap="round" stroke-linejoin="round" stroke-width="1"/>
          <line id="Línea_3262" data-name="Línea 3262" x2="14.803" y2="0.019" transform="translate(186.384 79.203)" fill="none" stroke="#000" stroke-linecap="round" stroke-linejoin="round" stroke-width="1"/>
          <line id="Línea_3263" data-name="Línea 3263" y1="9.36" x2="5.918" transform="translate(124.138 91.789)" fill="none" stroke="#000" stroke-linecap="round" stroke-linejoin="round" stroke-width="1"/>
          <line id="Línea_3264" data-name="Línea 3264" x2="13.665" y2="13.305" transform="translate(119.044 52.162)" fill="none" stroke="#000" stroke-linecap="round" stroke-linejoin="round" stroke-width="1"/>
          <line id="Línea_3265" data-name="Línea 3265" x1="0.36" y2="16.182" transform="translate(125.157 129.476)" fill="none" stroke="#000" stroke-linecap="round" stroke-linejoin="round" stroke-width="1"/>
          <line id="Línea_3266" data-name="Línea 3266" y1="9.36" x2="5.003" transform="translate(216.222 92.784)" fill="none" stroke="#000" stroke-linecap="round" stroke-linejoin="round" stroke-width="1"/>
          <path id="Trazado_1273289" data-name="Trazado 1273289" d="M253.1,169.821H211.022A2.523,2.523,0,0,1,208.5,167.3V155a2.524,2.524,0,0,1,2.524-2.524H253.1A2.523,2.523,0,0,1,255.627,155v12.3a2.523,2.523,0,0,1-2.523,2.523" transform="translate(-63.752 -46.623)" fill="#6cb9ff"/>
          <path id="Rectángulo_460893" data-name="Rectángulo 460893" d="M3.634,0H43.5a3.634,3.634,0,0,1,3.634,3.634V13.707a3.635,3.635,0,0,1-3.635,3.635H3.634A3.634,3.634,0,0,1,0,13.708V3.634A3.634,3.634,0,0,1,3.634,0Z" transform="translate(146.825 107.941)" fill="none" stroke="#000" stroke-linecap="round" stroke-linejoin="round" stroke-width="1"/>
          <path id="Rectángulo_460894" data-name="Rectángulo 460894" d="M3.634,0h39.86a3.635,3.635,0,0,1,3.635,3.635V13.707a3.635,3.635,0,0,1-3.635,3.635H3.634A3.634,3.634,0,0,1,0,13.708V3.634A3.634,3.634,0,0,1,3.634,0Z" transform="translate(136.064 71.801)" fill="none" stroke="#000" stroke-linecap="round" stroke-linejoin="round" stroke-width="1"/>
          <path id="Trazado_1273290" data-name="Trazado 1273290" d="M333.24,170.075H291.158a2.523,2.523,0,0,1-2.524-2.523v-12.3a2.523,2.523,0,0,1,2.524-2.524H333.24a2.523,2.523,0,0,1,2.523,2.524v12.3a2.523,2.523,0,0,1-2.523,2.523" transform="translate(-88.255 -46.701)" fill="#69d7e5"/>
          <path id="Rectángulo_460895" data-name="Rectángulo 460895" d="M3.634,0h39.86a3.635,3.635,0,0,1,3.635,3.635V13.707a3.635,3.635,0,0,1-3.635,3.635H3.634A3.634,3.634,0,0,1,0,13.708V3.634A3.634,3.634,0,0,1,3.634,0Z" transform="translate(203.159 108.117)" fill="none" stroke="#000" stroke-linecap="round" stroke-linejoin="round" stroke-width="1"/>
          <path id="Trazado_1273291" data-name="Trazado 1273291" d="M329.114,169.567l-6.395-8.72-8.05,8.72Z" transform="translate(-96.216 -49.182)" fill="#1d1d1b"/>
          <path id="Trazado_1273292" data-name="Trazado 1273292" d="M338.771,117.9H296.689a2.523,2.523,0,0,1-2.524-2.523v-12.3a2.524,2.524,0,0,1,2.524-2.524h42.083a2.524,2.524,0,0,1,2.524,2.524v12.3a2.523,2.523,0,0,1-2.524,2.523" transform="translate(-89.946 -30.747)" fill="#6cb9ff"/>
          <path id="Rectángulo_460896" data-name="Rectángulo 460896" d="M3.634,0H43.495A3.635,3.635,0,0,1,47.13,3.635V13.707a3.635,3.635,0,0,1-3.635,3.635H3.635A3.635,3.635,0,0,1,0,13.707V3.634A3.634,3.634,0,0,1,3.634,0Z" transform="translate(206.998 71.896)" fill="none" stroke="#000" stroke-linecap="round" stroke-linejoin="round" stroke-width="1"/>
          <path id="Trazado_1273293" data-name="Trazado 1273293" d="M333.392,115.516,327,106.8l-8.05,8.72Z" transform="translate(-97.524 -32.655)" fill="#1d1d1b"/>
          <path id="Trazado_1273294" data-name="Trazado 1273294" d="M231.64,112.617a4.723,4.723,0,1,1-4.724-4.724,4.723,4.723,0,0,1,4.724,4.724" transform="translate(-67.94 -32.99)" fill="#1d1d1b"/>
          <path id="Trazado_1273295" data-name="Trazado 1273295" d="M211.346,231.2H169.264a2.523,2.523,0,0,1-2.524-2.523v-12.3a2.524,2.524,0,0,1,2.524-2.524h42.083a2.524,2.524,0,0,1,2.524,2.524v12.3a2.523,2.523,0,0,1-2.524,2.523" transform="translate(-50.984 -65.39)" fill="#69d7e5"/>
          <path id="Rectángulo_460897" data-name="Rectángulo 460897" d="M3.635,0H43.494a3.635,3.635,0,0,1,3.635,3.635V13.707a3.635,3.635,0,0,1-3.635,3.635H3.634A3.634,3.634,0,0,1,0,13.708V3.635A3.635,3.635,0,0,1,3.635,0Z" transform="translate(118.537 150.55)" fill="none" stroke="#000" stroke-linecap="round" stroke-linejoin="round" stroke-width="1"/>
          <path id="Trazado_1273296" data-name="Trazado 1273296" d="M200.329,230.767a4.719,4.719,0,0,0,0-9.435Z" transform="translate(-61.254 -67.676)" fill="#1d1d1b"/>
          <path id="Trazado_1273297" data-name="Trazado 1273297" d="M305.141,67.2H256.446a2.523,2.523,0,0,1-2.523-2.524V49.948a2.523,2.523,0,0,1,2.523-2.524h48.695a2.524,2.524,0,0,1,2.524,2.524V64.675a2.524,2.524,0,0,1-2.524,2.524" transform="translate(-77.642 -14.501)" fill="#69d7e5"/>
          <path id="Rectángulo_460898" data-name="Rectángulo 460898" d="M3.634,0H50.107a3.634,3.634,0,0,1,3.634,3.634V16.14a3.634,3.634,0,0,1-3.634,3.634H3.635A3.635,3.635,0,0,1,0,16.139V3.634A3.634,3.634,0,0,1,3.634,0Z" transform="translate(179.452 35.301)" fill="none" stroke="#000" stroke-linecap="round" stroke-linejoin="round" stroke-width="1"/>
          <path id="Trazado_1273298" data-name="Trazado 1273298" d="M296.946,61.415a5.386,5.386,0,1,1-5.386-5.386,5.386,5.386,0,0,1,5.386,5.386" transform="translate(-87.503 -17.132)" fill="#1d1d1b"/>
          <path id="Trazado_1273299" data-name="Trazado 1273299" d="M168.937,169.821H126.855a2.523,2.523,0,0,1-2.524-2.523V155a2.524,2.524,0,0,1,2.524-2.524h42.083A2.524,2.524,0,0,1,171.461,155v12.3a2.523,2.523,0,0,1-2.524,2.523" transform="translate(-38.017 -46.623)" fill="#69d7e5"/>
          <path id="Rectángulo_460899" data-name="Rectángulo 460899" d="M3.634,0h39.86a3.635,3.635,0,0,1,3.635,3.635V13.707a3.635,3.635,0,0,1-3.635,3.635H3.634A3.634,3.634,0,0,1,0,13.708V3.634A3.634,3.634,0,0,1,3.634,0Z" transform="translate(88.393 107.941)" fill="none" stroke="#000" stroke-linecap="round" stroke-linejoin="round" stroke-width="1"/>
          <rect id="Rectángulo_460900" data-name="Rectángulo 460900" width="14.534" height="6.54" transform="translate(103.638 111.769)" fill="#1d1d1b"/>
          <path id="Trazado_1273300" data-name="Trazado 1273300" d="M53.348,372.922l-14.873-7.337a93.378,93.378,0,0,0-.158,12.865c.29,5.048-.251,13.565,3.627,13.845,2.713.2,7.766-.3,10.507-.3a51.433,51.433,0,0,1,.214-10.262c.282-2.658.49-5.736.684-8.812" transform="translate(-11.67 -111.784)" fill="#ff6363"/>
          <path id="Trazado_1273301" data-name="Trazado 1273301" d="M37.663,405.3c-.006-.044-.01-.089-.013-.133-.194-2.364-.459-4.548-.425-6.946a15.537,15.537,0,0,1,.571-5.313c4.693.271,9.468-.1,14.206.225.946.064,1.133,2.151,1.713,2.736,1.151,1.159,3.4,1.766,4.921,2.192,3.18.887,6.446,1.413,9.084,3.582,1.372,1.128,4.515,5.229,1.9,6.59-1.068.554-3.191.047-4.333,0q-2.828-.13-5.654-.31-10.706-.68-21.351-2.081a.774.774,0,0,1-.466-.171.617.617,0,0,1-.149-.366" transform="translate(-11.381 -120.139)" fill="#1e535a"/>
          <path id="Trazado_1273302" data-name="Trazado 1273302" d="M37.547,407.606q16.715,1.3,33.354,3.411" transform="translate(-11.481 -124.633)" fill="none" stroke="#000" stroke-linecap="round" stroke-linejoin="round" stroke-width="1"/>
          <path id="Trazado_1273303" data-name="Trazado 1273303" d="M69.785,402.236a4.277,4.277,0,0,0,1.953-1.62.814.814,0,0,0,.175-.544.618.618,0,0,0-.689-.445,1.8,1.8,0,0,0-.811.381l-1.863,1.3a1.329,1.329,0,0,1-.578.275.453.453,0,0,1-.505-.3,1.163,1.163,0,0,1,.495-.859,3.573,3.573,0,0,0,.751-.692.72.72,0,0,0-.051-.933.748.748,0,0,0-.618-.1c-1.042.212-1.6,1.468-2.631,1.732a.438.438,0,0,1-.3-.007.424.424,0,0,1-.14-.493c.183-.7,1.021-1.145,1.051-1.87a.537.537,0,0,0-.091-.349.623.623,0,0,0-.655-.137c-.993.262-1.475,1.359-1.821,2.325" transform="translate(-19.402 -121.555)" fill="none" stroke="#000" stroke-linecap="round" stroke-linejoin="round" stroke-width="1"/>
          <path id="Trazado_1273304" data-name="Trazado 1273304" d="M42.792,402.395a1.71,1.71,0,0,0,2.091-2.574,1.155,1.155,0,0,0-.5-.4,1.624,1.624,0,0,0-.844-.02,2.474,2.474,0,0,0-1.5.664,1.372,1.372,0,0,0,.776,2.256" transform="translate(-12.752 -122.11)" fill="none" stroke="#000" stroke-linecap="round" stroke-linejoin="round" stroke-width="1"/>
          <path id="Trazado_1273305" data-name="Trazado 1273305" d="M119.365,372.18l-14.873-7.337a93.268,93.268,0,0,0-.158,12.865c.289,5.048-.251,13.565,3.626,13.845,2.713.2,7.766-.3,10.507-.3a51.433,51.433,0,0,1,.214-10.262c.282-2.658.49-5.736.684-8.812" transform="translate(-31.856 -111.558)" fill="#ff6363"/>
          <path id="Trazado_1273306" data-name="Trazado 1273306" d="M103.68,404.557c-.006-.044-.01-.089-.013-.133-.194-2.364-.46-4.548-.425-6.946a15.537,15.537,0,0,1,.571-5.313c4.693.271,9.468-.1,14.206.225.946.064,1.133,2.151,1.713,2.735,1.151,1.159,3.4,1.767,4.921,2.192,3.18.887,6.446,1.413,9.084,3.582,1.372,1.128,4.515,5.229,1.895,6.59-1.067.554-3.191.047-4.332,0q-2.828-.13-5.654-.31-10.706-.68-21.351-2.081a.774.774,0,0,1-.466-.171.617.617,0,0,1-.149-.366" transform="translate(-31.567 -119.912)" fill="#1e535a"/>
          <path id="Trazado_1273307" data-name="Trazado 1273307" d="M109.283,54.348c.1.725.178,1.454.211,2.192.314,6.9,1.156,13.774,1.272,20.709.082,4.943.255,15.471,7.636,15.088a11.575,11.575,0,0,0,4.449-1.45,7.062,7.062,0,0,0,3.548-2.952c.68-1.459.331-3.165-.03-4.734L123.15,69.214c-.975-4.237-2.416-8.442-2.891-12.773-.122-1.114-.022-4.156-1.495-4.5a1.02,1.02,0,0,0-1.064.437,3.377,3.377,0,0,0-.287-1.111,1.146,1.146,0,0,0-.889-.654c-.605-.037-1.043.546-1.362,1.063a4.142,4.142,0,0,0-.36-1.194,1.4,1.4,0,0,0-.947-.75,1.36,1.36,0,0,0-1.215.522,3.263,3.263,0,0,0-.576,1.248c-.186.669-.129,2.2-.585,2.669a3.866,3.866,0,0,1-.561-2.569,13.271,13.271,0,0,1,.5-2.673,1.852,1.852,0,0,0-.078-1.61c-1.484-1.875-2.68,1.9-2.6,2.919.109,1.361.359,2.725.545,4.107" transform="translate(-33.248 -14.312)" fill="#ff6363"/>
          <path id="Trazado_1273308" data-name="Trazado 1273308" d="M122.987,95.421a119.053,119.053,0,0,1-13.509,2.51,105.455,105.455,0,0,1,3.033,30.72c-.376,6.774-2.047,11.077-6.866,15.787a2.644,2.644,0,0,0-.548,1.811c-.063,1.666,1.945,2,3.144,2.6,3.493,1.734,6.882,3.668,10.3,5.524l5.37,2.605c10.575-26.232,6.389-44.175,1.922-61.907-.95.122-1.9.237-2.851.353" transform="translate(-32.135 -29.069)" fill="#1e535a"/>
          <path id="Trazado_1273309" data-name="Trazado 1273309" d="M128.151,55.733H65.4a2.523,2.523,0,0,1-2.523-2.524V37.127A2.523,2.523,0,0,1,65.4,34.6h62.753a2.524,2.524,0,0,1,2.524,2.524V53.21a2.524,2.524,0,0,1-2.524,2.524" transform="translate(-19.225 -10.581)" fill="#69d7e5"/>
          <path id="Rectángulo_460901" data-name="Rectángulo 460901" d="M3.635,0h60.53A3.634,3.634,0,0,1,67.8,3.634V17.5a3.635,3.635,0,0,1-3.635,3.635H3.635A3.635,3.635,0,0,1,0,17.5V3.635A3.635,3.635,0,0,1,3.635,0Z" transform="translate(47.649 26.563)" fill="none" stroke="#000" stroke-linecap="round" stroke-linejoin="round" stroke-width="1"/>
        </g>
      </g>
      <g id="Grupo_1211158" data-name="Grupo 1211158" transform="translate(72.961 65.999)">
        <g id="Grupo_1211157" data-name="Grupo 1211157" clip-path="url(#clip-path-2)">
          <path id="Trazado_1273310" data-name="Trazado 1273310" d="M138.849,139.228c2.1.184,5.518-1.3,5.144-3.827a3.446,3.446,0,0,0-.465-1.136c-1.171-2.1-2.59-3.865-5.208-2.164a5.429,5.429,0,0,0-2.133,3.082,3.753,3.753,0,0,0-.144,1.776,3.1,3.1,0,0,0,2.787,2.267l.021,0" transform="translate(-114.542 -106.182)"/>
        </g>
      </g>
      <g id="Grupo_1211160" data-name="Grupo 1211160">
        <g id="Grupo_1211159" data-name="Grupo 1211159" clip-path="url(#clip-path)">
          <path id="Trazado_1273312" data-name="Trazado 1273312" d="M51.374,246.46l.2-.693c2.024-6.955,4.071-13.9,6.074-20.865,1.261-4.382.442-9.394,1.624-13.374,2.453-8.264,22.1-4.823,29.351-5.582,3.8-.4,10.284-2.326,13.49.7,2.87,2.71,2.966,9.484,3.632,13.195,3.157,17.587,2.055,35.626.942,53.459q-1.122,17.957-2.242,35.914c-.406,6.508-.313,13.255-1.576,19.612-9.359,1.8-20.269.659-29.694-.4l5.757-44.795c1.812-14.1,3.792-28.263,4.383-42.494-1.455,6.9-4.23,13.651-6.2,20.442-2.234,7.7-4.3,15.442-6.6,23.121C69.34,288.635,58.8,329.05,57.283,328.945L28,326.77q11.689-40.155,23.379-80.31" transform="translate(-8.56 -62.675)"/>
          <path id="Trazado_1273313" data-name="Trazado 1273313" d="M109.375,161.048a28.7,28.7,0,0,0-9.774-3.589,54.82,54.82,0,0,0-12.259-.514c-4.837.183-8.034,1.414-11.367,5.11-3.943,4.372-5.108,9.748-5.52,15.441q-.754,10.419-1.509,20.836c16.362-.468,33.237.176,49.5-1.509,2.031-.211-3.369-26.108-3.815-28.291a12.223,12.223,0,0,0-1.346-4.056,10.122,10.122,0,0,0-3.227-3q-.342-.222-.682-.43" transform="translate(-21.082 -47.957)" fill="#1e535a"/>
          <path id="Trazado_1273314" data-name="Trazado 1273314" d="M113.926,128.811a10.286,10.286,0,0,1,.027,1.761,2.051,2.051,0,0,1-.43,1.29c-1.427,1.52-4.574-3.73-5.13-4.674-.8-1.354-1.652-3.246-1.293-4.853a2.176,2.176,0,0,1,1.845-1.749c1.021-.048,2.092,1.173,2.6,1.936a14.181,14.181,0,0,1,2.385,6.29" transform="translate(-32.722 -36.871)"/>
          <path id="Trazado_1273315" data-name="Trazado 1273315" d="M98.749,126.23q-.46.22-.9.464c-1.6.885-3.367,2.033-3.669,3.988a18.1,18.1,0,0,0-.193,2.761A46.406,46.406,0,0,0,94.43,139q.291,2.408.582,4.814c.086.71.542,2.818-.258,3.27a.967.967,0,0,1-.411.085,3.669,3.669,0,0,0-.829.164c.033-.01.885,1.046,1.016,1.143.37.271.7.6,1.066.879a8.774,8.774,0,0,0,2.664,1.4,8.647,8.647,0,0,0,5.78-.187,7.649,7.649,0,0,0,1.653-.777,3.834,3.834,0,0,0,1.069-1.2.809.809,0,0,0-.362-1.126,2.459,2.459,0,0,1-.451-.286,1.445,1.445,0,0,1-.551-.94c-.056-.545-.167-1.624.327-1.947a20.4,20.4,0,0,1,2.09-.628c2.16-1.016,2.6-2.849,2.474-5.092a24.955,24.955,0,0,0-1.294-6.69c-.464-1.361-1.046-2.685-1.384-4.083a4.2,4.2,0,0,0-.571-1.575c-.487-.653-1.072-.6-1.779-.687-.676-.087-1.309-.342-2.011-.373a9.594,9.594,0,0,0-4.5,1.066" transform="translate(-28.594 -38.269)" fill="#ff6363"/>
          <path id="Trazado_1273316" data-name="Trazado 1273316" d="M72.391,142.57a21.44,21.44,0,0,0,2.71,3.98c1.1,1.3,2.051.981,3.568.362a15.848,15.848,0,0,1,7.974-1.038,3.153,3.153,0,0,0,1.076.026c1.018-.225,1.192-1.442,1.446-2.284.678-2.242.346-4.472.644-6.763a7.017,7.017,0,0,1,.968-2.838c.494-.78,1.266-1.15,1.829-1.829,1.306-1.574-.439-3.607.716-4.989a5.572,5.572,0,0,1,2.387-1.365c1.711-.576,4.09-.648,5.091-2.4a3.392,3.392,0,0,0-.625-3.831,6.266,6.266,0,0,0-3.675-1.758,11.242,11.242,0,0,0-8.8,2.361c-1.312,1.073-2.308,2.6-3.85,3.31-1.681.777-3.533,1.188-5.085,2.235a27.647,27.647,0,0,0-2.279,1.9c-2.051,1.729-4.75,3.649-5.682,6.279-.823,2.324-.117,4.907.874,7.164.218.5.454.991.707,1.477" transform="translate(-21.541 -35.989)"/>
          <path id="Trazado_1273317" data-name="Trazado 1273317" d="M96.275,139.846c.425,1.62,3.146,2.819,3.716.713.328-1.213-.239-3.244-1.7-3.4a2.118,2.118,0,0,0-2.018,2.688" transform="translate(-29.418 -41.935)" fill="#ff6363"/>
          <path id="Trazado_1273318" data-name="Trazado 1273318" d="M97.026,139.577a.832.832,0,0,1,.486-.454,1.461,1.461,0,0,1,1.184.065,1.924,1.924,0,0,1,.841.859" transform="translate(-29.667 -42.51)" fill="none" stroke="#000" stroke-linecap="round" stroke-linejoin="round" stroke-width="1"/>
        </g>
      </g>
      <g id="Grupo_1211162" data-name="Grupo 1211162" transform="translate(64.206 87.795)">
        <g id="Grupo_1211161" data-name="Grupo 1211161" clip-path="url(#clip-path-4)">
          <path id="Trazado_1273319" data-name="Trazado 1273319" d="M111.384,152.728a4.372,4.372,0,0,1-2.378-.5,3.109,3.109,0,0,0-1.168-.495.447.447,0,0,0-.416.148c-.137.205.056.478.271.6s.48.19.61.4.086.458.194.663a1.075,1.075,0,0,0,.779.427,8.731,8.731,0,0,1,1.973.616" transform="translate(-97.038 -134.19)"/>
        </g>
      </g>
      <g id="Grupo_1211164" data-name="Grupo 1211164">
        <g id="Grupo_1211163" data-name="Grupo 1211163" clip-path="url(#clip-path)">
          <path id="Trazado_1273321" data-name="Trazado 1273321" d="M67.359,54.973c-.26.915-.483,1.842-.729,2.76C64.688,65,62.345,72.185,60.2,79.41q-.459,1.544-.92,3.089c-.7,2.362-1.409,4.9-.667,7.246a7.609,7.609,0,0,0,6.152,4.885,11.221,11.221,0,0,0,5.37-.6c2.1-.732,2.483-1.316,3.108-3.377,1.022-3.367.364-7.628.663-11.167a107.38,107.38,0,0,1,1.674-11.87,77.677,77.677,0,0,1,3.354-13,4.194,4.194,0,0,0,.325-1.141,1.344,1.344,0,0,0-.355-1.095,1.1,1.1,0,0,0-1.576.262,2.159,2.159,0,0,0,.433-1.014,1.649,1.649,0,0,0-.168-1.043c-.52-.675-1.647.2-2.079.548.373-.47.926-1.193.8-1.836a.852.852,0,0,0-.619-.665,1.249,1.249,0,0,0-.849.2,9.159,9.159,0,0,0-2.208,1.954A23.62,23.62,0,0,0,70.14,54.16a8.188,8.188,0,0,1,2.548-4.649c.4-.387,1.055-.648.741-1.338a.959.959,0,0,0-1.051-.465A4.355,4.355,0,0,0,70.7,48.77a10.394,10.394,0,0,0-2.663,4.149c-.264.672-.483,1.36-.68,2.054" transform="translate(-17.824 -14.581)" fill="#ff6363"/>
          <path id="Trazado_1273322" data-name="Trazado 1273322" d="M74.817,124.351c-1.95-9.226-1.695-18.787-.46-28.148l-.154.026q-1.872.293-3.747.569c-4.836-.283-8.485-1.577-12.911-.781-3.949,18.651-.771,42.21,9.292,58.407,2.826,4.549,6.422,9,11.462,10.814,4.428-5.054,7.777-9.127,10.956-15.047-7.621-6.545-12.361-16.012-14.439-25.839" transform="translate(-17.092 -29.281)" fill="#1e535a"/>
          <rect id="Rectángulo_460904" data-name="Rectángulo 460904" width="22.109" height="6.339" transform="translate(70.779 31.534)" fill="#1d1d1b"/>
          <path id="Trazado_1273323" data-name="Trazado 1273323" d="M84.962,54.487a15.006,15.006,0,0,0-2.478,4.782" transform="translate(-25.221 -16.66)" fill="none" stroke="#1c1c1b" stroke-linecap="round" stroke-linejoin="round" stroke-width="1"/>
          <path id="Trazado_1273324" data-name="Trazado 1273324" d="M81.784,52.382A14.226,14.226,0,0,0,78.2,57.623" transform="translate(-23.91 -16.017)" fill="none" stroke="#1c1c1b" stroke-linecap="round" stroke-linejoin="round" stroke-width="1"/>
          <path id="Trazado_1273325" data-name="Trazado 1273325" d="M75.187,56.856a4.276,4.276,0,0,1-.328,1.011" transform="translate(-22.89 -17.385)" fill="none" stroke="#1c1c1b" stroke-linecap="round" stroke-linejoin="round" stroke-width="1"/>
          <path id="Trazado_1273326" data-name="Trazado 1273326" d="M69.383,53.722a1.616,1.616,0,0,1,.527-.551.934.934,0,0,1,1.209.155,1.505,1.505,0,0,1,.052,1.217,15.712,15.712,0,0,0-.328,3.387,24.017,24.017,0,0,1,.051,3.148,1.461,1.461,0,0,1-.5,1.07.988.988,0,0,1-1.051-.04,1.9,1.9,0,0,1-.673-.865,5.914,5.914,0,0,1-.346-2.755,11.32,11.32,0,0,1,1.056-4.765" transform="translate(-20.885 -16.212)" fill="#ff6363"/>
          <path id="Trazado_1273327" data-name="Trazado 1273327" d="M72.048,54.439a17.279,17.279,0,0,0-1.318,4.316" transform="translate(-21.627 -16.646)" fill="none" stroke="#1c1c1b" stroke-linecap="round" stroke-linejoin="round" stroke-width="1"/>
          <path id="Trazado_1273328" data-name="Trazado 1273328" d="M110.817,144.52a3.1,3.1,0,0,0,3.11.816,1.221,1.221,0,0,0,.65-.408" transform="translate(-33.884 -44.19)" fill="none" stroke="#000" stroke-linecap="round" stroke-linejoin="round" stroke-width="1"/>
          <path id="Trazado_1273329" data-name="Trazado 1273329" d="M71.907,179.843l1,2.989" transform="translate(-21.987 -54.99)" fill="none" stroke="#000" stroke-linecap="round" stroke-linejoin="round" stroke-width="1"/>
          <path id="Trazado_1273330" data-name="Trazado 1273330" d="M134.741,174.536a27.189,27.189,0,0,0-1.811,5.576" transform="translate(-40.646 -53.368)" fill="none" stroke="#000" stroke-linecap="round" stroke-linejoin="round" stroke-width="1"/>
          <path id="Trazado_1273331" data-name="Trazado 1273331" d="M60.762,133.473a2.774,2.774,0,0,1,2.017-2,2.622,2.622,0,0,1,2.579,1.354,4.8,4.8,0,0,1,.469,3.009c-.2,1.6-1.576,4.3-3.636,3.541-1.825-.675-1.886-4.415-1.429-5.907" transform="translate(-18.506 -40.192)"/>
          <path id="Trazado_1273332" data-name="Trazado 1273332" d="M103.563,406.865q16.715,1.3,33.354,3.411" transform="translate(-31.666 -124.407)" fill="none" stroke="#000" stroke-linecap="round" stroke-linejoin="round" stroke-width="1"/>
          <path id="Trazado_1273333" data-name="Trazado 1273333" d="M135.8,401.494a4.276,4.276,0,0,0,1.953-1.62.814.814,0,0,0,.175-.544.618.618,0,0,0-.689-.445,1.808,1.808,0,0,0-.811.381l-1.863,1.3a1.328,1.328,0,0,1-.578.275.453.453,0,0,1-.505-.3,1.163,1.163,0,0,1,.495-.859,3.556,3.556,0,0,0,.751-.692.72.72,0,0,0-.051-.933.751.751,0,0,0-.618-.1c-1.042.213-1.6,1.468-2.631,1.732a.437.437,0,0,1-.3-.007.424.424,0,0,1-.14-.493c.183-.7,1.021-1.145,1.051-1.87a.537.537,0,0,0-.091-.349.623.623,0,0,0-.655-.137c-.993.262-1.475,1.359-1.821,2.325" transform="translate(-39.588 -121.328)" fill="none" stroke="#000" stroke-linecap="round" stroke-linejoin="round" stroke-width="1"/>
          <path id="Trazado_1273334" data-name="Trazado 1273334" d="M108.809,401.653a1.71,1.71,0,0,0,2.091-2.574,1.155,1.155,0,0,0-.5-.4,1.621,1.621,0,0,0-.843-.02,2.474,2.474,0,0,0-1.5.664,1.372,1.372,0,0,0,.776,2.256" transform="translate(-32.938 -121.883)" fill="none" stroke="#000" stroke-linecap="round" stroke-linejoin="round" stroke-width="1"/>
          <path id="Trazado_1273335" data-name="Trazado 1273335" d="M107.233,253.4a112.427,112.427,0,0,0,2.548-16.85" transform="translate(-32.788 -72.331)" fill="none" stroke="#1e535a" stroke-linecap="round" stroke-linejoin="round" stroke-width="1"/>
          <path id="Trazado_1273336" data-name="Trazado 1273336" d="M107.08,157.427a4.68,4.68,0,0,1-2.422,2.906,9.182,9.182,0,0,1-6.823.351,6.9,6.9,0,0,1-1.282-.544,9.388,9.388,0,0,1-2.662-2.528" transform="translate(-28.709 -48.136)" fill="none" stroke="#000" stroke-linecap="round" stroke-linejoin="round" stroke-width="1"/>
          <line id="Línea_3267" data-name="Línea 3267" x2="274.016" transform="translate(17.637 288.06)" fill="none" stroke="#000" stroke-linecap="round" stroke-linejoin="round" stroke-width="1"/>
          <path id="Trazado_1273337" data-name="Trazado 1273337" d="M195.985,270.366H171.264a2.74,2.74,0,1,0,0,5.48h24.721a2.74,2.74,0,1,0,0-5.48" transform="translate(-51.51 -82.669)" fill="#1d1d1b"/>
          <path id="Trazado_1273338" data-name="Trazado 1273338" d="M241.506,270.366H223.155a2.862,2.862,0,0,0-2.909,2.471,2.765,2.765,0,0,0,2.789,3.009h18.471a2.74,2.74,0,1,0,0-5.48" transform="translate(-67.34 -82.669)" fill="#1e535a"/>
          <path id="Trazado_1273339" data-name="Trazado 1273339" d="M262.2,273.106h0a2.771,2.771,0,0,0,2.8,2.74h53.923a2.741,2.741,0,1,0,0-5.48H265a2.772,2.772,0,0,0-2.8,2.74" transform="translate(-80.173 -82.669)" fill="#1d1d1b"/>
          <path id="Trazado_1273340" data-name="Trazado 1273340" d="M377.152,270.366H359.919a2.74,2.74,0,1,0,0,5.48h17.233a2.74,2.74,0,1,0,0-5.48" transform="translate(-109.195 -82.669)" fill="#1e535a"/>
          <path id="Trazado_1273341" data-name="Trazado 1273341" d="M338.328,289.8H289.273a2.74,2.74,0,1,0,0,5.48h49.056a2.74,2.74,0,1,0,0-5.48" transform="translate(-87.594 -88.611)" fill="#1e535a"/>
          <path id="Trazado_1273342" data-name="Trazado 1273342" d="M372.044,292.536h0a2.771,2.771,0,0,0,2.8,2.74h10.445a2.741,2.741,0,1,0,0-5.48H374.846a2.772,2.772,0,0,0-2.8,2.74" transform="translate(-113.759 -88.611)" fill="#1e535a"/>
          <path id="Trazado_1273343" data-name="Trazado 1273343" d="M271.179,289.8H265a2.74,2.74,0,1,0,0,5.48h6.174a2.74,2.74,0,1,0,0-5.48" transform="translate(-80.173 -88.611)" fill="#1d1d1b"/>
          <path id="Trazado_1273344" data-name="Trazado 1273344" d="M245.28,308.961h-6.174a2.74,2.74,0,1,0,0,5.48h6.174a2.74,2.74,0,1,0,0-5.48" transform="translate(-72.254 -94.471)" fill="#ffd453"/>
          <path id="Trazado_1273345" data-name="Trazado 1273345" d="M150.757,292.536h0a2.74,2.74,0,0,0,2.74,2.74h53.854a2.74,2.74,0,0,0,0-5.48H153.5a2.74,2.74,0,0,0-2.74,2.74" transform="translate(-46.097 -88.611)" fill="#1d1d1b"/>
          <path id="Trazado_1273346" data-name="Trazado 1273346" d="M132.024,289.8h-.76a2.74,2.74,0,1,0,0,5.48h.76a2.74,2.74,0,1,0,0-5.48" transform="translate(-39.28 -88.611)" fill="#1e535a"/>
          <path id="Trazado_1273347" data-name="Trazado 1273347" d="M128.16,311.965h0c0,1.513,1.5,2.74,3.346,2.74H190.54c1.848,0,3.346-1.227,3.346-2.74s-1.5-2.74-3.346-2.74H131.506c-1.848,0-3.346,1.227-3.346,2.74" transform="translate(-39.187 -94.551)" fill="#ffd453"/>
          <path id="Trazado_1273348" data-name="Trazado 1273348" d="M266.912,311.965h0c0,1.513.9,2.74,2.008,2.74h58.231c1.109,0,2.008-1.227,2.008-2.74s-.9-2.74-2.008-2.74H268.92c-1.109,0-2.008,1.227-2.008,2.74" transform="translate(-81.613 -94.551)" fill="#1d1d1b"/>
          <path id="Trazado_1273349" data-name="Trazado 1273349" d="M365.219,311.965h0a2.771,2.771,0,0,0,2.8,2.74H385.2a2.741,2.741,0,1,0,0-5.48H368.021a2.772,2.772,0,0,0-2.8,2.74" transform="translate(-111.672 -94.551)" fill="#1d1d1b"/>
          <path id="Trazado_1273350" data-name="Trazado 1273350" d="M292.942,331.4h0a2.772,2.772,0,0,0,2.8,2.74h61.037a2.741,2.741,0,1,0,0-5.48H295.744a2.771,2.771,0,0,0-2.8,2.74" transform="translate(-89.572 -100.492)" fill="#ffd453"/>
          <path id="Trazado_1273351" data-name="Trazado 1273351" d="M150.033,331.4h0a2.772,2.772,0,0,0,2.8,2.74h46.81a2.741,2.741,0,1,0,0-5.48h-46.81a2.771,2.771,0,0,0-2.8,2.74" transform="translate(-45.875 -100.492)" fill="#1d1d1b"/>
          <path id="Trazado_1273352" data-name="Trazado 1273352" d="M230.386,331.4h0a2.772,2.772,0,0,0,2.8,2.74h28.465a2.741,2.741,0,1,0,0-5.48H233.188a2.771,2.771,0,0,0-2.8,2.74" transform="translate(-70.445 -100.492)" fill="#1e535a"/>
          <path id="Trazado_1273353" data-name="Trazado 1273353" d="M180.232,350.825h0a2.771,2.771,0,0,0,2.8,2.74h4.5a2.741,2.741,0,1,0,0-5.48h-4.5a2.772,2.772,0,0,0-2.8,2.74" transform="translate(-55.109 -106.433)" fill="#1d1d1b"/>
          <path id="Trazado_1273354" data-name="Trazado 1273354" d="M158.4,350.824a2.74,2.74,0,0,0-2.74-2.74H134.137a2.741,2.741,0,1,0,0,5.48h21.527a2.74,2.74,0,0,0,2.74-2.74" transform="translate(-40.158 -106.433)" fill="#1e535a"/>
          <path id="Trazado_1273355" data-name="Trazado 1273355" d="M200.186,350.825h0a2.771,2.771,0,0,0,2.8,2.74h3.756a2.741,2.741,0,1,0,0-5.48h-3.756a2.771,2.771,0,0,0-2.8,2.74" transform="translate(-61.211 -106.433)" fill="#1d1d1b"/>
          <path id="Trazado_1273356" data-name="Trazado 1273356" d="M219.061,350.825h0a2.771,2.771,0,0,0,2.8,2.74h36.7a2.741,2.741,0,1,0,0-5.48h-36.7a2.771,2.771,0,0,0-2.8,2.74" transform="translate(-66.982 -106.433)" fill="#ffd453"/>
          <path id="Trazado_1273357" data-name="Trazado 1273357" d="M288.628,350.825h0a2.771,2.771,0,0,0,2.8,2.74h13.49a2.741,2.741,0,1,0,0-5.48H291.43a2.772,2.772,0,0,0-2.8,2.74" transform="translate(-88.253 -106.433)" fill="#1e535a"/>
          <path id="Trazado_1273358" data-name="Trazado 1273358" d="M327.995,350.825h0a2.771,2.771,0,0,0,2.8,2.74h13.864a2.741,2.741,0,1,0,0-5.48H330.8a2.772,2.772,0,0,0-2.8,2.74" transform="translate(-100.291 -106.433)" fill="#1d1d1b"/>
          <path id="Trazado_1273359" data-name="Trazado 1273359" d="M370.059,350.825h0a2.771,2.771,0,0,0,2.8,2.74h7.5a2.741,2.741,0,1,0,0-5.48h-7.5a2.772,2.772,0,0,0-2.8,2.74" transform="translate(-113.152 -106.433)" fill="#1d1d1b"/>
          <path id="Trazado_1273360" data-name="Trazado 1273360" d="M175.721,370.254h0a2.771,2.771,0,0,0,2.8,2.74h34.551a2.741,2.741,0,1,0,0-5.48H178.523a2.772,2.772,0,0,0-2.8,2.74" transform="translate(-53.73 -112.374)" fill="#1e535a"/>
          <path id="Trazado_1273361" data-name="Trazado 1273361" d="M244.946,370.254h0a2.771,2.771,0,0,0,2.8,2.74H253a2.741,2.741,0,1,0,0-5.48h-5.253a2.772,2.772,0,0,0-2.8,2.74" transform="translate(-74.897 -112.374)" fill="#1e535a"/>
          <path id="Trazado_1273362" data-name="Trazado 1273362" d="M276.57,370.254h0a2.771,2.771,0,0,0,2.8,2.74h26.371a2.741,2.741,0,1,0,0-5.48H279.372a2.772,2.772,0,0,0-2.8,2.74" transform="translate(-84.566 -112.374)" fill="#1d1d1b"/>
          <path id="Trazado_1273363" data-name="Trazado 1273363" d="M330.812,370.254h0a2.771,2.771,0,0,0,2.8,2.74h20.6a2.741,2.741,0,1,0,0-5.48h-20.6a2.771,2.771,0,0,0-2.8,2.74" transform="translate(-101.152 -112.374)" fill="#ffd453"/>
          <path id="Trazado_1273364" data-name="Trazado 1273364" d="M298.679,217.046h0a2.771,2.771,0,0,0,2.8,2.74h61.037a2.741,2.741,0,1,0,0-5.48H301.481a2.772,2.772,0,0,0-2.8,2.74" transform="translate(-91.327 -65.528)" fill="#1d1d1b"/>
          <path id="Trazado_1273365" data-name="Trazado 1273365" d="M326.288,197.519h-7.461a2.74,2.74,0,1,0,0,5.48h7.461a2.74,2.74,0,1,0,0-5.48" transform="translate(-96.631 -60.395)" fill="#ffd453"/>
          <path id="Trazado_1273366" data-name="Trazado 1273366" d="M291.339,197.519H266a2.74,2.74,0,1,0,0,5.48h25.339a2.74,2.74,0,1,0,0-5.48" transform="translate(-80.478 -60.395)" fill="#1e535a"/>
          <path id="Trazado_1273367" data-name="Trazado 1273367" d="M341.117,200.259h0a2.771,2.771,0,0,0,2.8,2.74h31.574a2.741,2.741,0,1,0,0-5.48H343.919a2.771,2.771,0,0,0-2.8,2.74" transform="translate(-104.303 -60.395)" fill="#1e535a"/>
          <path id="Trazado_1273368" data-name="Trazado 1273368" d="M294.364,236.476h0a2.771,2.771,0,0,0,2.8,2.74h13.49a2.741,2.741,0,1,0,0-5.48h-13.49a2.771,2.771,0,0,0-2.8,2.74" transform="translate(-90.007 -71.469)" fill="#ffd453"/>
          <path id="Trazado_1273369" data-name="Trazado 1273369" d="M333.732,236.476h0a2.771,2.771,0,0,0,2.8,2.74H350.4a2.741,2.741,0,1,0,0-5.48H336.534a2.772,2.772,0,0,0-2.8,2.74" transform="translate(-102.045 -71.469)" fill="#1d1d1b"/>
          <path id="Trazado_1273370" data-name="Trazado 1273370" d="M373.473,236.476h0a2.771,2.771,0,0,0,2.8,2.74h10.211a2.741,2.741,0,1,0,0-5.48H376.275a2.772,2.772,0,0,0-2.8,2.74" transform="translate(-114.196 -71.469)" fill="#ffd453"/>
          <path id="Trazado_1273371" data-name="Trazado 1273371" d="M312.865,255.905h0a2.772,2.772,0,0,0,2.8,2.74H331.4a2.741,2.741,0,1,0,0-5.48H315.667a2.772,2.772,0,0,0-2.8,2.74" transform="translate(-95.664 -77.41)" fill="#ffd453"/>
          <path id="Trazado_1273372" data-name="Trazado 1273372" d="M250.683,255.905h0a2.771,2.771,0,0,0,2.8,2.74h5.253a2.741,2.741,0,1,0,0-5.48h-5.253a2.771,2.771,0,0,0-2.8,2.74" transform="translate(-76.651 -77.41)" fill="#1e535a"/>
          <path id="Trazado_1273373" data-name="Trazado 1273373" d="M273.872,255.905h0a2.771,2.771,0,0,0,2.8,2.74h11.618a2.741,2.741,0,1,0,0-5.48H276.674a2.771,2.771,0,0,0-2.8,2.74" transform="translate(-83.741 -77.41)" fill="#ffd453"/>
          <path id="Trazado_1273374" data-name="Trazado 1273374" d="M358.539,255.905h0a2.772,2.772,0,0,0,2.8,2.74h20.6a2.741,2.741,0,1,0,0-5.48h-20.6a2.772,2.772,0,0,0-2.8,2.74" transform="translate(-109.63 -77.41)" fill="#1e535a"/>
          <path id="Trazado_1273375" data-name="Trazado 1273375" d="M245.672,204.575a1.337,1.337,0,0,1-.9-.345L238.1,198.2l6.62-6.669a1.349,1.349,0,0,1,1.877-.027,1.277,1.277,0,0,1,.028,1.836L241.9,198.1l4.674,4.224a1.277,1.277,0,0,1,.074,1.834,1.338,1.338,0,0,1-.975.417" transform="translate(-72.803 -58.444)" fill="#1e535a"/>
          <path id="Trazado_1273376" data-name="Trazado 1273376" d="M257.262,204.575a1.338,1.338,0,0,1-.9-.345L249.69,198.2l6.62-6.669a1.349,1.349,0,0,1,1.877-.027,1.277,1.277,0,0,1,.028,1.836l-4.726,4.76,4.674,4.224a1.277,1.277,0,0,1,.074,1.834,1.338,1.338,0,0,1-.975.417" transform="translate(-76.347 -58.444)" fill="#1e535a"/>
          <path id="Trazado_1273377" data-name="Trazado 1273377" d="M385.635,375.755a1.338,1.338,0,0,1-.975-.417,1.277,1.277,0,0,1,.074-1.834l4.674-4.224-4.726-4.761a1.278,1.278,0,0,1,.029-1.836,1.349,1.349,0,0,1,1.877.028l6.62,6.67-6.672,6.029a1.337,1.337,0,0,1-.9.345" transform="translate(-117.509 -110.785)" fill="#1e535a"/>
          <path id="Trazado_1273378" data-name="Trazado 1273378" d="M374.045,375.755a1.338,1.338,0,0,1-.975-.417,1.277,1.277,0,0,1,.074-1.834l4.674-4.224-4.726-4.761a1.278,1.278,0,0,1,.029-1.836,1.349,1.349,0,0,1,1.877.028l6.62,6.67-6.672,6.029a1.337,1.337,0,0,1-.9.345" transform="translate(-113.965 -110.785)" fill="#1e535a"/>
          <path id="Trazado_1273379" data-name="Trazado 1273379" d="M185.689,1.954c-3.677,1.062-7.325,2.6-10.07,5.269s-4.451,6.636-3.634,10.375c1.14,5.21,6.487,8.28,11.494,10.116,12.049,4.418,25.694,5.4,37.661.763,6.867-2.66,15.387-11.512,8.724-18.81C224.286,3.558,212,.9,204.238.2a50.758,50.758,0,0,0-18.549,1.749" transform="translate(-52.525 0)" fill="#ffe79e"/>
        </g>
      </g>
    </g>
  </g>
</svg>
