<svg xmlns="http://www.w3.org/2000/svg" xmlns:xlink="http://www.w3.org/1999/xlink" width="128" height="128" viewBox="0 0 128 128">
  <defs>
    <clipPath id="clip-path">
      <rect id="Rectángulo_454829" data-name="Rectángulo 454829" width="128" height="128" fill="#1e535a"/>
    </clipPath>
    <clipPath id="clip-path-2">
      <rect id="Rectángulo_464384" data-name="Rectángulo 464384" width="40.648" height="40.652" fill="#1e535a"/>
    </clipPath>
  </defs>
  <g id="Grupo_1211013" data-name="Grupo 1211013" transform="translate(-186 -4323.945)">
    <g id="Grupo_1177591" data-name="Grupo 1177591" transform="translate(186 4323.945)">
      <g id="Grupo_1177589" data-name="Grupo 1177589" transform="translate(0 0)">
        <g id="Grupo_1177587" data-name="Grupo 1177587" clip-path="url(#clip-path)">
          <path id="Trazado_997422" data-name="Trazado 997422" d="M122.774,56.654a58.848,58.848,0,0,0-13.293-30.623,6.768,6.768,0,0,0-9.523-9.118A58.761,58.761,0,0,0,69.535,5.027a6.769,6.769,0,0,0-13.148.267A58.842,58.842,0,0,0,27.2,17.772a6.771,6.771,0,0,0-9.4,9.462A58.794,58.794,0,0,0,5.483,56.6a6.774,6.774,0,0,0-.162,13.266A58.776,58.776,0,0,0,17.252,99.82a6.771,6.771,0,0,0,9.2,9.56,58.838,58.838,0,0,0,29.883,13.07,6.771,6.771,0,0,0,13.266.267,58.788,58.788,0,0,0,30.646-12.107,6.769,6.769,0,0,0,9.476-9.165A58.863,58.863,0,0,0,122.933,69.8a6.771,6.771,0,0,0-.159-13.144m-19.12-27.288a6.733,6.733,0,0,0,3.75-1.135,55.884,55.884,0,0,1,12.333,28.407,6.781,6.781,0,0,0-4.327,3.135L98.1,53.283c.013-.189.027-.382.027-.578a6.772,6.772,0,0,0-2.868-5.533l7.57-17.86a7.335,7.335,0,0,0,.821.054M100,28.288,92.472,46.03a6.7,6.7,0,0,0-7.459,4.307L53.705,43.125a6.588,6.588,0,0,0-.142-1.348L97.992,26.305a6.793,6.793,0,0,0,2,1.983M63,13.553a6.777,6.777,0,0,0,6.651-5.5A55.792,55.792,0,0,1,97.857,19.09a6.739,6.739,0,0,0-.98,3.5,7.114,7.114,0,0,0,.064.9L52.29,39.031A6.8,6.8,0,0,0,51.064,37.8L62.775,13.543c.074,0,.145.01.22.01M56.4,8.324a6.778,6.778,0,0,0,3.409,4.435L48.331,36.538a6.8,6.8,0,0,0-1.4-.145,6.727,6.727,0,0,0-3.861,1.213L29.461,26.238A6.736,6.736,0,0,0,29.231,20,55.836,55.836,0,0,1,56.4,8.324M13.387,61.776l28.15-14.519a6.751,6.751,0,0,0,5.341,2.686l9.648,30.839a6.887,6.887,0,0,0-1.493,1.652L13.3,65.046a6.731,6.731,0,0,0,.25-1.8,6.81,6.81,0,0,0-.166-1.473m6.648-32.521a6.771,6.771,0,0,0,7.564-.645L41.037,39.831a6.758,6.758,0,0,0-.747,4.682l-28.2,14.539A6.774,6.774,0,0,0,8.506,56.7,55.812,55.812,0,0,1,20.036,29.254m2.8,67.623a6.756,6.756,0,0,0-3.365.9A55.762,55.762,0,0,1,8.351,69.832a6.783,6.783,0,0,0,3.517-2.121L54.013,85.27a7.266,7.266,0,0,0-.054.814,6.775,6.775,0,0,0,.405,2.29L28.876,100.587a6.775,6.775,0,0,0-6.037-3.709m33.626,22.556a55.892,55.892,0,0,1-27.883-12.2,6.705,6.705,0,0,0,1.034-3.581l0-.078L56,90.929a6.776,6.776,0,0,0,2.392,1.51l1.581,22.725a6.776,6.776,0,0,0-3.51,4.27m2.807-39.96L49.831,49.287a6.786,6.786,0,0,0,3.219-3.219l31.562,7.266a6.736,6.736,0,0,0,1.078,3.081L64.042,80.173a6.692,6.692,0,0,0-4.77-.7M69.592,119.7a6.774,6.774,0,0,0-6.6-5.25l-.051,0-1.5-21.623a6.764,6.764,0,0,0,4.142-2.01l31.555,13.918c0,.061-.01.115-.01.176a6.743,6.743,0,0,0,1,3.534A55.789,55.789,0,0,1,69.592,119.7M97.9,101.779,67.164,88.22a6.736,6.736,0,0,0-.888-6.027L87.858,58.5a6.736,6.736,0,0,0,3.5.98,7.46,7.46,0,0,0,.831-.054l8.067,39.781a6.761,6.761,0,0,0-2.355,2.571m9.722-2.534a6.735,6.735,0,0,0-4.5-1.064l-8.07-39.8a6.8,6.8,0,0,0,2.135-2.23l17.3,6.486a6.009,6.009,0,0,0-.03.608,6.774,6.774,0,0,0,5.445,6.641A55.835,55.835,0,0,1,107.62,99.246" transform="translate(0 0.001)" fill="#1e535a"/>
        </g>
      </g>
    </g>
    <g id="Elipse_13614" data-name="Elipse 13614" transform="translate(210.273 4348.213)" fill="#fff" stroke="#1e535a" stroke-width="3">
      <ellipse cx="39.732" cy="39.733" rx="39.732" ry="39.733" stroke="none"/>
      <ellipse cx="39.732" cy="39.733" rx="38.232" ry="38.233" fill="none"/>
    </g>
    <g id="Grupo_1211539" data-name="Grupo 1211539" transform="translate(229.681 4367.62)">
      <g id="Grupo_1211538" data-name="Grupo 1211538" clip-path="url(#clip-path-2)">
        <path id="Trazado_1274119" data-name="Trazado 1274119" d="M109.674,8.181h-27A1.386,1.386,0,0,1,81.2,6.856l0-5.488A1.366,1.366,0,0,1,82.668.03H109.5A1.4,1.4,0,0,1,110.991,1.5l0,5.223a1.42,1.42,0,0,1-1.314,1.463" transform="translate(-70.345 -0.025)" fill="#1e535a"/>
        <path id="Trazado_1274120" data-name="Trazado 1274120" d="M6.762,8.14h-5.4A1.388,1.388,0,0,1,0,6.7L0,1.48A1.427,1.427,0,0,1,1.475,0L6.7,0A1.379,1.379,0,0,1,8.136,1.354L8.148,6.7A1.4,1.4,0,0,1,6.762,8.14" transform="translate(0 0)" fill="#1e535a"/>
        <path id="Trazado_1274121" data-name="Trazado 1274121" d="M109.466,89.257l-26.881,0a1.4,1.4,0,0,1-1.49-1.452V82.59a1.406,1.406,0,0,1,1.224-1.457h27.35a1.4,1.4,0,0,1,1.234,1.451l0,5.226a1.368,1.368,0,0,1-1.433,1.446" transform="translate(-70.258 -70.29)" fill="#1e535a"/>
        <path id="Trazado_1274122" data-name="Trazado 1274122" d="M6.771,89.281l-5.408,0A1.372,1.372,0,0,1,.011,87.841l0-5.236A1.386,1.386,0,0,1,1.35,81.164l5.494,0a1.343,1.343,0,0,1,1.3,1.325l.013,5.47a1.384,1.384,0,0,1-1.387,1.32" transform="translate(-0.008 -70.317)" fill="#1e535a"/>
        <path id="Trazado_1274123" data-name="Trazado 1274123" d="M6.915,170.274l-5.43.006A1.417,1.417,0,0,1,.01,168.816l0-5.225a1.413,1.413,0,0,1,1.478-1.457l5.216,0a1.372,1.372,0,0,1,1.437,1.334l0,5.462a1.385,1.385,0,0,1-1.231,1.34" transform="translate(-0.009 -140.467)" fill="#1e535a"/>
        <path id="Trazado_1274124" data-name="Trazado 1274124" d="M6.777,251.329l-5.291.016A1.43,1.43,0,0,1,0,249.86l0-5.22a1.383,1.383,0,0,1,1.353-1.434l5.462-.01a1.414,1.414,0,0,1,1.331,1.451v5.217a1.393,1.393,0,0,1-1.377,1.465" transform="translate(-0.003 -210.696)" fill="#1e535a"/>
        <path id="Trazado_1274125" data-name="Trazado 1274125" d="M181.99,194.916a1.353,1.353,0,1,1-1.714,2.095l-4.682-3.637a7.135,7.135,0,0,1-10.456-9.589,7.155,7.155,0,0,1,9.45-1.9,7.081,7.081,0,0,1,2.674,9.321Zm-6.651-6.9a4.437,4.437,0,1,0-4.437,4.437,4.437,4.437,0,0,0,4.437-4.437" transform="translate(-141.87 -156.696)" fill="#1e535a"/>
        <path id="Trazado_1274126" data-name="Trazado 1274126" d="M82.552,170.28a1.4,1.4,0,0,1-1.464-1.466l0-5.221a1.409,1.409,0,0,1,1.356-1.456l14.58.027a9.963,9.963,0,0,0-7.453,8.094Z" transform="translate(-70.248 -140.469)" fill="#1e535a"/>
        <path id="Trazado_1274127" data-name="Trazado 1274127" d="M82.512,251.372a1.413,1.413,0,0,1-1.407-1.483v-5.222a1.407,1.407,0,0,1,1.225-1.444l7.2.005a9.937,9.937,0,0,0,6.445,8.106Z" transform="translate(-70.266 -210.72)" fill="#1e535a"/>
        <path id="Trazado_1274128" data-name="Trazado 1274128" d="M244.126,163.512l0,5.3a1.443,1.443,0,0,1-.535,1.158,1.51,1.51,0,0,1-1.348.249,10,10,0,0,0-7.377-8.042l7.775-.047a1.4,1.4,0,0,1,1.482,1.382" transform="translate(-203.481 -140.463)" fill="#1e535a"/>
      </g>
    </g>
  </g>
</svg>
