<svg xmlns="http://www.w3.org/2000/svg" xmlns:xlink="http://www.w3.org/1999/xlink" width="85" height="85" viewBox="0 0 85 85">
  <defs>
    <clipPath id="clip-path">
      <rect id="Rectángulo_464316" data-name="Rectángulo 464316" width="62.058" height="62.215" fill="#344866"/>
    </clipPath>
  </defs>
  <g id="Grupo_1210965" data-name="Grupo 1210965" transform="translate(-179.734 -5520.842)">
    <rect id="Rectángulo_402006" data-name="Rectángulo 402006" width="85" height="85" rx="5" transform="translate(179.734 5520.842)" fill="#69d7e5"/>
    <g id="Grupo_1211465" data-name="Grupo 1211465" transform="translate(191.206 5532.234)">
      <g id="Grupo_1211464" data-name="Grupo 1211464" clip-path="url(#clip-path)">
        <path id="Trazado_1273893" data-name="Trazado 1273893" d="M54.722,62.141c-2.379-.211-2.817-2.373-2.725-4.368a2.957,2.957,0,0,1-3.24-3.236,3.967,3.967,0,0,0-.113-1.674c-4.153-1.78.344-5.832-4.2-12.4L41.2,35.775a19.587,19.587,0,0,1-3.438-12.6C38.374,13.15,47.119,7.464,56.571,7.551a.833.833,0,0,1,.8.846l0,5.335a1.926,1.926,0,0,1-.877,1.6c-1.549,1.016-2.919-1.234-4.379.7a1.927,1.927,0,0,0,0,2.269c1.364,1.875,2.828-.3,4.391.694a2.051,2.051,0,0,1,.874,1.813l.02,6.529,6.753.013A13.059,13.059,0,0,1,66.1,18.1c.33-1.964-.026-4.183.078-6.226a3.587,3.587,0,0,1-4.323-.924,3.391,3.391,0,0,1,0-4.258,3.5,3.5,0,0,1,4.274-.919c.458-1.38-.789-6.325,1.229-5.724C76.4.1,84.407,5.936,84.147,15.751A12.322,12.322,0,0,1,84.662,34.1a.724.724,0,0,0,.058.994,2.149,2.149,0,0,1,1.7,1.049L91.112,44.3a3.309,3.309,0,0,1-5.793,3.2l-4.757-8.263c-.37-.644.044-1.343,0-1.979-.105-.316-.771-.366-1.1-.27a12.187,12.187,0,0,1-8.046-.541c-1.077,1.5-2.108,2.879-3.066,4.407-4.256,6.792.317,10.13-4.1,12.078l0,1.622a3.009,3.009,0,0,1-3.218,3.234c.014,2.006-.271,4.173-2.8,4.357a21.71,21.71,0,0,1-3.505,0M68.067,15.985A12.367,12.367,0,0,1,82.384,14.5c-.34-7.943-7.111-12.445-14.415-12.71L67.928,5.8a1.788,1.788,0,0,1-.917,1.479c-1.393.829-2.8-1.108-3.909.642a1.652,1.652,0,0,0,.222,2.068c1.355,1.4,2.321-.594,3.858.474,1.414.983.409,3.86.885,5.521M49.206,28.208a1.852,1.852,0,0,1,1.456-.827l4.963-.043-.072-6.943a3.784,3.784,0,0,1-4.767-.985,3.643,3.643,0,0,1,.072-4.586,3.775,3.775,0,0,1,4.677-.9,32.43,32.43,0,0,0,.054-4.664,20.144,20.144,0,0,0-8.481,2.252c-5.994,3.206-8.488,9.133-7.449,15.815,1.942.3,4.811-.588,5.791.831,1.127,1.63-1.139,2.947.682,4.41a1.946,1.946,0,0,0,2.4.013c1.84-1.461-.4-2.788.671-4.376m33.662,7.316a2.883,2.883,0,0,1,.764-2.841,10.517,10.517,0,1,0-4.351,2.588,2.946,2.946,0,0,1,2.68.809c.284.225.98-.187.907-.556m-22.037,5.02a1.959,1.959,0,0,0,.126-2.317c-1.284-1.933-2.955.191-4.375-.727a1.913,1.913,0,0,1-.93-1.524L55.608,29.1l-5.035.087A3.783,3.783,0,0,1,49.53,34a3.679,3.679,0,0,1-4.555-.141,3.867,3.867,0,0,1-.868-4.692l-4.048-.056a16.126,16.126,0,0,0,2.707,5.9l3.145,4.539a13.951,13.951,0,0,1,2.5,6.853l7.165-.017.08-3.84a1.8,1.8,0,0,1,.98-1.483c1.481-.861,2.816,1.168,4.19-.526m3.822,5.866c.285-4.556,2.855-7.316,5.174-10.77a12.564,12.564,0,0,1-5.2-6.532l-7.227-.013.048,7a3.77,3.77,0,0,1,4.746.9,3.643,3.643,0,0,1,.024,4.584,3.746,3.746,0,0,1-4.736.941,22,22,0,0,0-.057,3.869Zm24.95-1.28-4.83-8.36a13.223,13.223,0,0,0-2.726,1.605l5,8.55c.445.762,1.618.576,2.084.236a1.565,1.565,0,0,0,.475-2.031M63.471,51.272c1.521,0,1.164-2.189,1.09-3.157l-16.065,0c-.132.861-.432,3.155.981,3.155Zm-2.123,4.791c1.582,0,1.112-2.068,1.108-3.08l-11.9.012a9.8,9.8,0,0,0-.011,2.092,1.229,1.229,0,0,0,1.309,1Zm-2.215,3.587a3.873,3.873,0,0,0,0-1.857l-5.23,0a4.7,4.7,0,0,0-.057,1.655A1.125,1.125,0,0,0,55,60.432c1.406.042,3.869.348,4.137-.783" transform="translate(-30.277 0)" fill="#344866"/>
        <path id="Trazado_1273894" data-name="Trazado 1273894" d="M5.2,109.478c.324,1.516-2.193,1.11-4.344,1.092A.854.854,0,0,1,0,109.677a.875.875,0,0,1,.883-.823c1.18-.034,2.316-.037,3.5,0a.845.845,0,0,1,.822.629" transform="translate(0 -87.363)" fill="#344866"/>
        <path id="Trazado_1273895" data-name="Trazado 1273895" d="M129.925,3.929a.955.955,0,0,1-.732,1.057c-1.394.278-1.038-2.468-1-3.92a.859.859,0,0,1,.86-.867.831.831,0,0,1,.854.865Z" transform="translate(-102.856 -0.16)" fill="#344866"/>
        <path id="Trazado_1273896" data-name="Trazado 1273896" d="M48.2,29.9a.94.94,0,0,1,.149,1.163.85.85,0,0,1-1.312.092l-2.074-2.274a.91.91,0,0,1-.1-1.12.864.864,0,0,1,1.325-.08Z" transform="translate(-35.896 -22.002)" fill="#344866"/>
        <path id="Trazado_1273897" data-name="Trazado 1273897" d="M295.376,61.929c-.917.471-2.649,1.609-3.036.5a.874.874,0,0,1,.4-1.128l1.8-.846a.847.847,0,1,1,.831,1.477" transform="translate(-234.633 -48.454)" fill="#344866"/>
        <path id="Trazado_1273898" data-name="Trazado 1273898" d="M277.392,38.051c-.447.888-1.268,2.237-2.192,1.7-.958-.557.221-1.848.75-2.588a.874.874,0,0,1,1.144-.273.884.884,0,0,1,.3,1.161" transform="translate(-220.632 -29.527)" fill="#344866"/>
        <path id="Trazado_1273899" data-name="Trazado 1273899" d="M300.279,93.161c-.881.158-2.892.2-2.787-1.011a.82.82,0,0,1,.949-.732c.973.036,2.23-.079,2.412.749a.79.79,0,0,1-.574.994" transform="translate(-238.816 -73.388)" fill="#344866"/>
        <path id="Trazado_1273900" data-name="Trazado 1273900" d="M204.626,89.843a9.261,9.261,0,1,1-9.261-9.261,9.261,9.261,0,0,1,9.261,9.261m-1.731,0a7.53,7.53,0,1,0-7.53,7.53,7.53,7.53,0,0,0,7.53-7.53" transform="translate(-149.4 -64.689)" fill="#344866"/>
        <path id="Trazado_1273901" data-name="Trazado 1273901" d="M230.359,107.366c0,.711-.368,1.059-.9,1.043a.886.886,0,0,1-.845-.953l0-5.29a.862.862,0,0,1,.838-.874c.591-.015.906.407.905,1.042Z" transform="translate(-183.527 -81.315)" fill="#344866"/>
        <path id="Trazado_1273902" data-name="Trazado 1273902" d="M229.547,143.973a1.139,1.139,0,1,1-1.14-1.14,1.14,1.14,0,0,1,1.14,1.14" transform="translate(-182.445 -114.663)" fill="#344866"/>
      </g>
    </g>
  </g>
</svg>
