<svg xmlns="http://www.w3.org/2000/svg" xmlns:xlink="http://www.w3.org/1999/xlink" width="130" height="130" viewBox="0 0 130 130">
  <defs>
    <clipPath id="clip-path">
      <rect id="Rectángulo_454829" data-name="Rectángulo 454829" width="130" height="130" fill="#1e535a"/>
    </clipPath>
    <clipPath id="clip-path-2">
      <rect id="Rectángulo_464382" data-name="Rectángulo 464382" width="47.599" height="48.222" fill="#1e535a"/>
    </clipPath>
  </defs>
  <g id="Grupo_1210972" data-name="Grupo 1210972" transform="translate(-186 -4323.945)">
    <g id="Grupo_1177591" data-name="Grupo 1177591" transform="translate(186 4323.945)">
      <g id="Grupo_1177589" data-name="Grupo 1177589" transform="translate(0 0)">
        <g id="Grupo_1177587" data-name="Grupo 1177587" clip-path="url(#clip-path)">
          <path id="Trazado_997422" data-name="Trazado 997422" d="M124.692,57.54a59.768,59.768,0,0,0-13.5-31.1,6.874,6.874,0,0,0-9.672-9.26,59.68,59.68,0,0,0-30.9-12.073,6.875,6.875,0,0,0-13.353.271A59.762,59.762,0,0,0,27.622,18.05a6.877,6.877,0,0,0-9.545,9.61A59.712,59.712,0,0,0,5.568,57.481,6.88,6.88,0,0,0,5.4,70.954,59.7,59.7,0,0,0,17.522,101.38a6.876,6.876,0,0,0,9.342,9.709,59.757,59.757,0,0,0,30.35,13.274,6.877,6.877,0,0,0,13.473.271,59.706,59.706,0,0,0,31.125-12.3,6.875,6.875,0,0,0,9.624-9.308,59.783,59.783,0,0,0,13.418-32.141,6.877,6.877,0,0,0-.161-13.35M105.274,29.825a6.838,6.838,0,0,0,3.808-1.153,56.758,56.758,0,0,1,12.526,28.85,6.887,6.887,0,0,0-4.395,3.184L99.637,54.116c.014-.192.027-.388.027-.587a6.877,6.877,0,0,0-2.913-5.62L104.44,29.77a7.449,7.449,0,0,0,.834.055m-3.716-1.094L93.917,46.749a6.806,6.806,0,0,0-7.575,4.374L54.544,43.8A6.691,6.691,0,0,0,54.4,42.43L99.523,26.716a6.9,6.9,0,0,0,2.035,2.014M63.979,13.765a6.883,6.883,0,0,0,6.755-5.582A56.663,56.663,0,0,1,99.386,19.388a6.844,6.844,0,0,0-.995,3.554,7.226,7.226,0,0,0,.065.909L53.107,39.641A6.9,6.9,0,0,0,51.861,38.4L63.756,13.754c.075,0,.148.01.223.01M57.286,8.454a6.884,6.884,0,0,0,3.462,4.5L49.086,37.109a6.9,6.9,0,0,0-1.42-.148,6.832,6.832,0,0,0-3.922,1.232L29.921,26.648a6.842,6.842,0,0,0-.233-6.333,56.709,56.709,0,0,1,27.6-11.861M13.6,62.741l28.59-14.746a6.857,6.857,0,0,0,5.424,2.728l9.8,31.321a7,7,0,0,0-1.516,1.678L13.511,66.062a6.836,6.836,0,0,0,.254-1.825,6.916,6.916,0,0,0-.168-1.5m6.752-33.029a6.877,6.877,0,0,0,7.682-.655l13.648,11.4a6.863,6.863,0,0,0-.758,4.755L12.283,59.976a6.88,6.88,0,0,0-3.644-2.388,56.684,56.684,0,0,1,11.71-27.876M23.2,98.391a6.862,6.862,0,0,0-3.417.913,56.633,56.633,0,0,1-11.3-28.38,6.888,6.888,0,0,0,3.572-2.155L54.857,86.6a7.38,7.38,0,0,0-.055.827,6.881,6.881,0,0,0,.412,2.326l-25.886,12.4A6.881,6.881,0,0,0,23.2,98.391M57.347,121.3A56.765,56.765,0,0,1,29.029,108.91a6.81,6.81,0,0,0,1.05-3.637l0-.079,26.8-12.845a6.882,6.882,0,0,0,2.429,1.534l1.606,23.08a6.882,6.882,0,0,0-3.565,4.337M60.2,80.715,50.609,50.057a6.892,6.892,0,0,0,3.27-3.27l32.055,7.38A6.842,6.842,0,0,0,87.028,57.3L65.043,81.426a6.8,6.8,0,0,0-4.844-.71M70.68,121.567a6.88,6.88,0,0,0-6.7-5.332l-.051,0L62.4,94.278a6.87,6.87,0,0,0,4.206-2.041l32.048,14.135c0,.062-.01.117-.01.178a6.848,6.848,0,0,0,1.019,3.589A56.66,56.66,0,0,1,70.68,121.567m28.747-18.2L68.213,89.6a6.842,6.842,0,0,0-.9-6.121l21.92-24.061a6.841,6.841,0,0,0,3.551.995,7.576,7.576,0,0,0,.844-.055l8.193,40.4a6.867,6.867,0,0,0-2.391,2.611M109.3,100.8a6.84,6.84,0,0,0-4.573-1.081L96.532,59.3A6.91,6.91,0,0,0,98.7,57.032l17.566,6.587a6.1,6.1,0,0,0-.031.618,6.88,6.88,0,0,0,5.531,6.745A56.707,56.707,0,0,1,109.3,100.8" transform="translate(0 0.001)" fill="#1e535a"/>
        </g>
      </g>
    </g>
    <g id="Elipse_13614" data-name="Elipse 13614" transform="translate(210.273 4348.213)" fill="#fff" stroke="#1e535a" stroke-width="3">
      <ellipse cx="40.732" cy="40.733" rx="40.732" ry="40.733" stroke="none"/>
      <ellipse cx="40.732" cy="40.733" rx="39.232" ry="39.233" fill="none"/>
    </g>
    <g id="Grupo_1211535" data-name="Grupo 1211535" transform="translate(227.205 4364.834)">
      <g id="Grupo_1211534" data-name="Grupo 1211534" clip-path="url(#clip-path-2)">
        <path id="Trazado_1274097" data-name="Trazado 1274097" d="M6.7,247.069a4.1,4.1,0,0,1-1.795.051c-.229-.258-.082-.7-.338-.9-2.1-1.685-1.353,1.33-3.392-1.351,0-.379.425-.591.389-.908a2.735,2.735,0,0,0-.508-1.26c-.192-.252-.646-.1-.9-.324a4.546,4.546,0,0,1-.026-1.787l.887-.313c1.634-2.256-1.221-1.521,1.293-3.345.576-.418.386,1.011,2.221-.181.276-.179.163-.651.356-.93a4.722,4.722,0,0,1,1.812,0c.19.247.072.654.294.866,1.88,1.317,1.705-.2,2.3.246,2.521,1.857-.372,1.029,1.266,3.348.2.185.566.1.851.238a4.318,4.318,0,0,1,.022,1.86c-.268.209-.715.066-.9.314a2.829,2.829,0,0,0-.517,1.261c-.039.325.4.537.4.911A6.806,6.806,0,0,1,9.172,246.1l-.833-.411c-.449.014-1.216.167-1.338.516Zm2.019-5.605a2.927,2.927,0,1,0-2.927,2.927,2.927,2.927,0,0,0,2.927-2.927" transform="translate(-0.045 -199.614)" fill="#1e535a"/>
        <path id="Trazado_1274098" data-name="Trazado 1274098" d="M271.408,154.474l-5.685,0a.643.643,0,0,1-.67-.6.624.624,0,0,1,.666-.7l5.688,0a.6.6,0,0,1,.632.57.633.633,0,0,1-.632.718" transform="translate(-224.443 -129.713)" fill="#1e535a"/>
        <path id="Trazado_1274099" data-name="Trazado 1274099" d="M113.438,95.759a13.66,13.66,0,0,1-15.564-1.01c-.258-.2-.381-.327-.364-.629A1.225,1.225,0,0,1,99.3,93.6a1.838,1.838,0,0,0,2.405-.069,10.532,10.532,0,1,0,.045-18.9,2.147,2.147,0,0,0-2.809.157c-.182.15-1.32-.236-1.407-.6s.058-.529.339-.753a13.623,13.623,0,0,1,20.265,17.514c-.583.99-.523,2.88.791,3.106.651.112,1.219-.366,1.887.3l7.776,7.8a2.931,2.931,0,1,1-4.064,4.224l-7.889-7.852c-.684-.68-.174-1.28-.287-1.932-.2-1.062-1.923-1.424-2.91-.838" transform="translate(-82.566 -59.663)" fill="#1e535a"/>
        <path id="Trazado_1274100" data-name="Trazado 1274100" d="M19.527,111.338a16.615,16.615,0,0,1-3.421-.017,16.382,16.382,0,0,1-.426-1.758L13.2,108.515c-.48.132-1.416,1.255-1.94.7-.679-.714-1.425-1.34-2.052-2.134.18-.676.666-1.064.924-1.632l-1.05-2.476-1.751-.438a14.007,14.007,0,0,1,.008-3.448l1.746-.427,1.046-2.5c-.145-.459-1.212-1.406-.763-1.85.721-.712,1.391-1.467,2.187-2.129.7.19,1.052.7,1.671.945a18.692,18.692,0,0,0,2.425-1.115l.5-1.709a16.853,16.853,0,0,1,3.289-.035c.465.44.22,1.263.546,1.7a11.205,11.205,0,0,0,2.46,1.135c.5-.074,1.41-1.233,1.882-.76.712.714,1.453,1.385,2.132,2.184-.178.682-.669,1.038-.951,1.669.476.78.557,1.825,1.185,2.465.327.333,1.4.021,1.607.547a13.114,13.114,0,0,1,.075,3.258,16.884,16.884,0,0,1-1.85.548,21.876,21.876,0,0,0-.934,2.4c-.111.419,1.179,1.369.713,1.868-.641.686-1.292,1.331-1.976,1.979-.474.448-1.363-.6-1.85-.75l-2.492,1.029Zm3.719-10.519a5.422,5.422,0,1,0-5.422,5.422,5.422,5.422,0,0,0,5.422-5.422" transform="translate(-6.12 -76.391)" fill="#1e535a"/>
        <path id="Trazado_1274101" data-name="Trazado 1274101" d="M6.663,15.524a2.572,2.572,0,0,1-1.818.067c-.193-.247-.074-.658-.3-.861a2.392,2.392,0,0,0-1.37-.554c-.262-.006-.577.556-.909.309-2.52-1.868.346-1.047-1.287-3.35-.19-.188-.554-.09-.844-.233a3.26,3.26,0,0,1,.008-1.85c.125-.233.612-.074.8-.272A2.243,2.243,0,0,0,1.51,7.362c0-.28-.543-.586-.3-.909,1.926-2.547,1.182.424,3.315-1.262.252-.2.1-.644.332-.884A4.638,4.638,0,0,1,6.7,4.335c.15.265.036.684.265.857C9.228,6.907,8.217,3.821,10.38,6.544c0,.385-.446.59-.406.917A2.785,2.785,0,0,0,10.5,8.729c.189.248.624.1.893.309a4.162,4.162,0,0,1-.009,1.764c-.081.293-.62.1-.793.287a2.16,2.16,0,0,0-.6,1.474c.04.3.442.477.345.786a4.121,4.121,0,0,1-1.15,1.17c-.344.14-.573-.334-.871-.345A3.209,3.209,0,0,0,7,14.659c-.26.127-.1.684-.336.865M8.674,9.95a2.928,2.928,0,1,0-2.927,2.927A2.927,2.927,0,0,0,8.674,9.95" transform="translate(0 -3.581)" fill="#1e535a"/>
        <path id="Trazado_1274102" data-name="Trazado 1274102" d="M148.322,128.742a3.074,3.074,0,0,1,1.6-3.255,2.061,2.061,0,0,0,.6-3.117,2.13,2.13,0,0,0-3.328.061.77.77,0,0,1-1.016.138.76.76,0,0,1-.193-1.046,3.638,3.638,0,0,1,6.535,1.879,3.781,3.781,0,0,1-2.122,3.617c-1.112.582.077,2.56-1.294,2.6-.454.013-.729-.33-.779-.877" transform="translate(-123.503 -101.678)" fill="#1e535a"/>
        <path id="Trazado_1274103" data-name="Trazado 1274103" d="M150.312,6.262a.72.72,0,0,1-.586.8.656.656,0,0,1-.749-.633l-.012-5.74A.67.67,0,1,1,150.3.674Z" transform="translate(-126.142 -0.001)" fill="#1e535a"/>
        <path id="Trazado_1274104" data-name="Trazado 1274104" d="M150.3,275.105a.686.686,0,0,1-.719.755.668.668,0,0,1-.627-.7l0-5.623a.7.7,0,0,1,.649-.715.675.675,0,0,1,.691.688Z" transform="translate(-126.133 -227.639)" fill="#1e535a"/>
        <path id="Trazado_1274105" data-name="Trazado 1274105" d="M164.187,189.733a.752.752,0,1,1-.752-.752.752.752,0,0,1,.752.752" transform="translate(-137.758 -160.028)" fill="#1e535a"/>
      </g>
    </g>
  </g>
</svg>
