<svg xmlns="http://www.w3.org/2000/svg" width="1020" height="308" viewBox="0 0 1020 308">
  <g id="Grupo_1211612" data-name="Grupo 1211612" transform="translate(-290 -785)">
    <g id="Grupo_1211061" data-name="Grupo 1211061">
      <path id="Trazado_1274425" data-name="Trazado 1274425" d="M13,0h994a13,13,0,0,1,13,13V295a13,13,0,0,1-13,13H13A13,13,0,0,1,0,295V13A13,13,0,0,1,13,0Z" transform="translate(290 785)" fill="#cfe8ff"/>
      <path id="Trazado_1273130" data-name="Trazado 1273130" d="M29.652,0H0V51.5H31.85" transform="translate(968.5 991.5)" fill="none" stroke="#445866" stroke-width="3"/>
      <path id="Trazado_1273131" data-name="Trazado 1273131" d="M29.652,0H0V104H31.85" transform="translate(968.5 835.5)" fill="none" stroke="#445866" stroke-width="3"/>
      <path id="Trazado_1273133" data-name="Trazado 1273133" d="M29.652,0H0V130H31.85" transform="translate(631.5 887.5)" fill="none" stroke="#445866" stroke-width="3"/>
      <path id="Trazado_1273129" data-name="Trazado 1273129" d="M0,0V30.733" transform="translate(969.714 1017) rotate(90)" fill="none" stroke="#445866" stroke-width="3"/>
      <path id="Trazado_1273134" data-name="Trazado 1273134" d="M0,0V30.733" transform="translate(632.733 952.5) rotate(90)" fill="none" stroke="#445866" stroke-width="3"/>
      <path id="Trazado_1273132" data-name="Trazado 1273132" d="M0,0V59.02" transform="translate(998 887.5) rotate(90)" fill="none" stroke="#445866" stroke-width="3"/>
      <path id="Trazado_1274426" data-name="Trazado 1274426" d="M15.5,0H262.46a15.5,15.5,0,0,1,0,31H15.5a15.5,15.5,0,0,1,0-31Z" transform="translate(661.02 1002)" fill="#ffd453"/>
      <path id="Trazado_1274427" data-name="Trazado 1274427" d="M15.5,0H262.46a15.5,15.5,0,0,1,0,31H15.5a15.5,15.5,0,0,1,0-31Z" transform="translate(998 872)" fill="#6cb9ff"/>
      <path id="Trazado_1274428" data-name="Trazado 1274428" d="M15.5,0H262.46a15.5,15.5,0,0,1,0,31H15.5a15.5,15.5,0,0,1,0-31Z" transform="translate(998 924)" fill="#6cb9ff"/>
      <path id="Trazado_1274429" data-name="Trazado 1274429" d="M15.5,0H262.46a15.5,15.5,0,0,1,0,31H15.5a15.5,15.5,0,0,1,0-31Z" transform="translate(998 976)" fill="#6cb9ff"/>
      <path id="Trazado_1274430" data-name="Trazado 1274430" d="M15.5,0H262.46a15.5,15.5,0,0,1,0,31H15.5a15.5,15.5,0,0,1,0-31Z" transform="translate(998 1028)" fill="#6cb9ff"/>
      <g id="Grupo_1211055" data-name="Grupo 1211055" transform="translate(-0.04 -29)">
        <path id="Trazado_1274423" data-name="Trazado 1274423" d="M15.5,0H262.46a15.5,15.5,0,0,1,0,31H15.5a15.5,15.5,0,0,1,0-31Z" transform="translate(324.04 966)" fill="#69d7e5"/>
        <path id="Trazado_1274424" data-name="Trazado 1274424" d="M11.77,12.762H6.989V16H12.6v2H4.5V5.914h8.085V7.931H6.989v2.88H11.77Zm7,2.756a.773.773,0,0,0-.436-.693,4.95,4.95,0,0,0-1.4-.452q-3.2-.672-3.2-2.723a2.468,2.468,0,0,1,.992-2,4,4,0,0,1,2.594-.8,4.307,4.307,0,0,1,2.735.805,2.538,2.538,0,0,1,1.025,2.092h-2.4a1.161,1.161,0,0,0-.332-.851,1.405,1.405,0,0,0-1.038-.336,1.436,1.436,0,0,0-.938.274.865.865,0,0,0-.332.7.739.739,0,0,0,.378.643,3.885,3.885,0,0,0,1.274.423A10.407,10.407,0,0,1,19.2,13a2.482,2.482,0,0,1,1.9,2.416,2.343,2.343,0,0,1-1.054,1.988,4.548,4.548,0,0,1-2.723.76,4.75,4.75,0,0,1-2-.4,3.363,3.363,0,0,1-1.374-1.1,2.565,2.565,0,0,1-.5-1.515h2.274a1.252,1.252,0,0,0,.473.979,1.877,1.877,0,0,0,1.179.34,1.737,1.737,0,0,0,1.042-.261A.814.814,0,0,0,18.768,15.518Zm6.749-8.708V9.019h1.536v1.76H25.516v4.482a1.07,1.07,0,0,0,.191.714.959.959,0,0,0,.73.216,3.826,3.826,0,0,0,.706-.058V17.95a4.938,4.938,0,0,1-1.453.216,2.29,2.29,0,0,1-2.573-2.548V10.778H21.806V9.019h1.312V6.811Zm7.919,4.458a6.517,6.517,0,0,0-.863-.066,1.757,1.757,0,0,0-1.785.921V18h-2.4V9.019h2.266l.066,1.071a2.223,2.223,0,0,1,2-1.237,2.514,2.514,0,0,1,.747.108Zm6.533,5.819a3.008,3.008,0,0,1-2.457,1.079,2.837,2.837,0,0,1-2.2-.83,3.543,3.543,0,0,1-.776-2.432V9.019h2.4v5.809q0,1.4,1.278,1.4a1.732,1.732,0,0,0,1.677-.848V9.019h2.407V18H40.034Zm7.869-.855a1.573,1.573,0,0,0,1.079-.365,1.28,1.28,0,0,0,.432-.971H51.6a3.077,3.077,0,0,1-.5,1.673,3.286,3.286,0,0,1-1.341,1.179,4.2,4.2,0,0,1-1.88.419,3.9,3.9,0,0,1-3.038-1.224,4.845,4.845,0,0,1-1.112-3.383V13.4a4.79,4.79,0,0,1,1.1-3.312,3.854,3.854,0,0,1,3.03-1.237,3.778,3.778,0,0,1,2.7.959A3.4,3.4,0,0,1,51.6,12.364h-2.25a1.648,1.648,0,0,0-.432-1.139,1.6,1.6,0,0,0-2.362.173,3.541,3.541,0,0,0-.427,1.983v.249a3.586,3.586,0,0,0,.423,2A1.463,1.463,0,0,0,47.837,16.232Zm8-9.421V9.019h1.536v1.76H55.839v4.482a1.07,1.07,0,0,0,.191.714.959.959,0,0,0,.73.216,3.826,3.826,0,0,0,.706-.058V17.95a4.939,4.939,0,0,1-1.453.216,2.29,2.29,0,0,1-2.573-2.548V10.778H52.128V9.019H53.44V6.811ZM64.09,17.087a3.008,3.008,0,0,1-2.457,1.079,2.837,2.837,0,0,1-2.2-.83,3.543,3.543,0,0,1-.776-2.432V9.019h2.4v5.809q0,1.4,1.278,1.4a1.732,1.732,0,0,0,1.677-.848V9.019h2.407V18H64.156Zm9.181-5.819a6.517,6.517,0,0,0-.863-.066,1.757,1.757,0,0,0-1.785.921V18h-2.4V9.019H70.49l.066,1.071a2.223,2.223,0,0,1,2-1.237,2.514,2.514,0,0,1,.747.108ZM79.38,18a2.664,2.664,0,0,1-.241-.805,2.9,2.9,0,0,1-2.266.971,3.189,3.189,0,0,1-2.187-.764,2.456,2.456,0,0,1-.867-1.926,2.538,2.538,0,0,1,1.058-2.191,5.222,5.222,0,0,1,3.059-.772h1.1V12a1.48,1.48,0,0,0-.32-1,1.257,1.257,0,0,0-1.009-.374,1.429,1.429,0,0,0-.95.291.987.987,0,0,0-.344.8h-2.4a2.41,2.41,0,0,1,.481-1.444A3.182,3.182,0,0,1,75.86,9.23a4.961,4.961,0,0,1,1.976-.378,3.92,3.92,0,0,1,2.635.834,2.918,2.918,0,0,1,.975,2.345v3.893a4.294,4.294,0,0,0,.357,1.934V18ZM77.4,16.332a2.066,2.066,0,0,0,.979-.237,1.554,1.554,0,0,0,.664-.635V13.916h-.9q-1.8,0-1.917,1.245l-.008.141a.96.96,0,0,0,.315.739A1.225,1.225,0,0,0,77.4,16.332Zm10.758-.813a.773.773,0,0,0-.436-.693,4.95,4.95,0,0,0-1.4-.452q-3.2-.672-3.2-2.723a2.468,2.468,0,0,1,.992-2,4,4,0,0,1,2.594-.8,4.307,4.307,0,0,1,2.735.805,2.538,2.538,0,0,1,1.025,2.092h-2.4a1.161,1.161,0,0,0-.332-.851,1.405,1.405,0,0,0-1.038-.336,1.436,1.436,0,0,0-.938.274.865.865,0,0,0-.332.7.739.739,0,0,0,.378.643,3.885,3.885,0,0,0,1.274.423,10.407,10.407,0,0,1,1.511.4,2.482,2.482,0,0,1,1.9,2.416,2.343,2.343,0,0,1-1.054,1.988,4.548,4.548,0,0,1-2.723.76,4.75,4.75,0,0,1-2-.4,3.363,3.363,0,0,1-1.374-1.1,2.565,2.565,0,0,1-.5-1.515h2.274a1.252,1.252,0,0,0,.473.979,1.877,1.877,0,0,0,1.179.34A1.737,1.737,0,0,0,87.8,16.2.814.814,0,0,0,88.154,15.518Zm7.736-2.075a5.413,5.413,0,0,1,.942-3.345A3.057,3.057,0,0,1,99.41,8.853a2.751,2.751,0,0,1,2.167.979V5.25h2.407V18h-2.167l-.116-.955a2.823,2.823,0,0,1-2.308,1.121,3.049,3.049,0,0,1-2.544-1.249A5.587,5.587,0,0,1,95.89,13.443Zm2.4.179a3.546,3.546,0,0,0,.44,1.937,1.433,1.433,0,0,0,1.278.673,1.605,1.605,0,0,0,1.569-.939v-3.55a1.582,1.582,0,0,0-1.552-.939Q98.289,10.8,98.289,13.621Zm11.688,4.545a4.409,4.409,0,0,1-3.217-1.212,4.308,4.308,0,0,1-1.241-3.229v-.232a5.426,5.426,0,0,1,.523-2.42,3.838,3.838,0,0,1,1.482-1.644,4.159,4.159,0,0,1,2.187-.577,3.727,3.727,0,0,1,2.9,1.162,4.722,4.722,0,0,1,1.058,3.3v.979h-5.719a2.229,2.229,0,0,0,.7,1.411,2.12,2.12,0,0,0,1.482.531,2.589,2.589,0,0,0,2.167-1l1.179,1.32a3.6,3.6,0,0,1-1.461,1.191A4.793,4.793,0,0,1,109.977,18.166Zm-.274-7.379a1.5,1.5,0,0,0-1.158.484,2.5,2.5,0,0,0-.569,1.384h3.337v-.192a1.786,1.786,0,0,0-.432-1.238A1.547,1.547,0,0,0,109.7,10.787Zm17.647,2.806a5.387,5.387,0,0,1-.942,3.324,3.021,3.021,0,0,1-2.544,1.249,2.8,2.8,0,0,1-2.2-.946v4.233h-2.4V9.019h2.225l.083.88a2.819,2.819,0,0,1,2.274-1.046,3.041,3.041,0,0,1,2.582,1.229,5.532,5.532,0,0,1,.921,3.387Zm-2.4-.174a3.535,3.535,0,0,0-.444-1.934,1.446,1.446,0,0,0-1.291-.681,1.571,1.571,0,0,0-1.552.863v3.677a1.6,1.6,0,0,0,1.569.888Q124.951,16.232,124.951,13.418Zm8.932-2.15a6.517,6.517,0,0,0-.863-.066,1.757,1.757,0,0,0-1.785.921V18h-2.4V9.019H131.1l.066,1.071a2.223,2.223,0,0,1,2-1.237,2.514,2.514,0,0,1,.747.108Zm.481,2.158a5.327,5.327,0,0,1,.515-2.382,3.767,3.767,0,0,1,1.482-1.619,4.323,4.323,0,0,1,2.245-.573,4.09,4.09,0,0,1,2.968,1.112,4.464,4.464,0,0,1,1.282,3.021l.017.614a4.694,4.694,0,0,1-1.154,3.316,4.472,4.472,0,0,1-6.2,0,4.777,4.777,0,0,1-1.158-3.387Zm2.4.17a3.357,3.357,0,0,0,.481,1.958,1.73,1.73,0,0,0,2.739.008,3.674,3.674,0,0,0,.49-2.141,3.324,3.324,0,0,0-.49-1.945,1.592,1.592,0,0,0-1.378-.69,1.566,1.566,0,0,0-1.361.686A3.735,3.735,0,0,0,136.763,13.6ZM144,13.443a5.264,5.264,0,0,1,.984-3.329,3.187,3.187,0,0,1,2.652-1.262,2.8,2.8,0,0,1,2.3,1.013l.1-.847h2.175V17.7a3.839,3.839,0,0,1-.535,2.05,3.439,3.439,0,0,1-1.507,1.328,5.3,5.3,0,0,1-2.274.457,4.925,4.925,0,0,1-1.926-.394,3.418,3.418,0,0,1-1.419-1.017l1.063-1.461a2.81,2.81,0,0,0,2.175,1,2.057,2.057,0,0,0,1.486-.51,1.915,1.915,0,0,0,.531-1.448v-.481a2.775,2.775,0,0,1-2.183.938A3.179,3.179,0,0,1,145,16.9a5.262,5.262,0,0,1-1-3.358Zm2.4.179a3.278,3.278,0,0,0,.49,1.916,1.558,1.558,0,0,0,1.345.694,1.666,1.666,0,0,0,1.569-.823V11.626a1.662,1.662,0,0,0-1.552-.823,1.568,1.568,0,0,0-1.357.707A3.694,3.694,0,0,0,146.4,13.621Zm12.7-2.353a6.517,6.517,0,0,0-.863-.066,1.757,1.757,0,0,0-1.785.921V18h-2.4V9.019h2.266l.066,1.071a2.223,2.223,0,0,1,2-1.237,2.514,2.514,0,0,1,.747.108ZM165.21,18a2.664,2.664,0,0,1-.241-.805,2.9,2.9,0,0,1-2.266.971,3.189,3.189,0,0,1-2.187-.764,2.456,2.456,0,0,1-.867-1.926,2.538,2.538,0,0,1,1.058-2.191,5.222,5.222,0,0,1,3.059-.772h1.1V12a1.48,1.48,0,0,0-.32-1,1.257,1.257,0,0,0-1.009-.374,1.429,1.429,0,0,0-.95.291.987.987,0,0,0-.344.8h-2.4a2.41,2.41,0,0,1,.481-1.444A3.182,3.182,0,0,1,161.69,9.23a4.961,4.961,0,0,1,1.976-.378,3.92,3.92,0,0,1,2.635.834,2.918,2.918,0,0,1,.975,2.345v3.893a4.294,4.294,0,0,0,.357,1.934V18Zm-1.984-1.668a2.066,2.066,0,0,0,.979-.237,1.554,1.554,0,0,0,.664-.635V13.916h-.9q-1.8,0-1.917,1.245l-.008.141a.96.96,0,0,0,.315.739A1.225,1.225,0,0,0,163.226,16.332Zm8.143-7.313.075,1a3.156,3.156,0,0,1,2.582-1.17,2.4,2.4,0,0,1,2.382,1.37,3.084,3.084,0,0,1,2.7-1.37,2.679,2.679,0,0,1,2.175.851,3.911,3.911,0,0,1,.714,2.561V18h-2.407V12.272a1.71,1.71,0,0,0-.3-1.116,1.324,1.324,0,0,0-1.054-.353,1.5,1.5,0,0,0-1.494,1.029L176.748,18h-2.4V12.281a1.689,1.689,0,0,0-.307-1.129A1.337,1.337,0,0,0,173,10.8a1.555,1.555,0,0,0-1.478.847V18h-2.4V9.019ZM189.042,18a2.664,2.664,0,0,1-.241-.805,2.9,2.9,0,0,1-2.266.971,3.189,3.189,0,0,1-2.187-.764,2.456,2.456,0,0,1-.867-1.926,2.538,2.538,0,0,1,1.058-2.191,5.222,5.222,0,0,1,3.059-.772h1.1V12a1.48,1.48,0,0,0-.32-1,1.257,1.257,0,0,0-1.009-.374,1.429,1.429,0,0,0-.95.291.987.987,0,0,0-.344.8h-2.4a2.41,2.41,0,0,1,.481-1.444,3.182,3.182,0,0,1,1.361-1.042,4.961,4.961,0,0,1,1.976-.378,3.92,3.92,0,0,1,2.635.834,2.918,2.918,0,0,1,.975,2.345v3.893a4.294,4.294,0,0,0,.357,1.934V18Zm-1.984-1.668a2.066,2.066,0,0,0,.979-.237,1.554,1.554,0,0,0,.664-.635V13.916h-.9q-1.8,0-1.917,1.245l-.008.141a.96.96,0,0,0,.315.739A1.225,1.225,0,0,0,187.058,16.332Zm9.629-.1a1.573,1.573,0,0,0,1.079-.365,1.28,1.28,0,0,0,.432-.971h2.25a3.077,3.077,0,0,1-.5,1.673,3.286,3.286,0,0,1-1.341,1.179,4.2,4.2,0,0,1-1.88.419,3.9,3.9,0,0,1-3.038-1.224,4.845,4.845,0,0,1-1.112-3.383V13.4a4.79,4.79,0,0,1,1.1-3.312,3.854,3.854,0,0,1,3.03-1.237,3.778,3.778,0,0,1,2.7.959,3.4,3.4,0,0,1,1.033,2.552H198.2a1.648,1.648,0,0,0-.432-1.139,1.6,1.6,0,0,0-2.362.173,3.541,3.541,0,0,0-.427,1.983v.249a3.586,3.586,0,0,0,.423,2A1.463,1.463,0,0,0,196.687,16.232ZM204.348,18h-2.407V9.019h2.407ZM201.8,6.694a1.181,1.181,0,0,1,.361-.888,1.556,1.556,0,0,1,1.963,0,1.175,1.175,0,0,1,.365.888,1.178,1.178,0,0,1-.369.9,1.539,1.539,0,0,1-1.951,0A1.178,1.178,0,0,1,201.8,6.694Zm4.15,6.732a5.327,5.327,0,0,1,.515-2.382,3.767,3.767,0,0,1,1.482-1.619,4.323,4.323,0,0,1,2.245-.573,4.09,4.09,0,0,1,2.968,1.112,4.464,4.464,0,0,1,1.282,3.021l.017.614a4.694,4.694,0,0,1-1.154,3.316,4.472,4.472,0,0,1-6.2,0,4.777,4.777,0,0,1-1.158-3.387Zm2.4.17a3.357,3.357,0,0,0,.481,1.958,1.73,1.73,0,0,0,2.739.008,3.674,3.674,0,0,0,.49-2.141,3.324,3.324,0,0,0-.49-1.945,1.592,1.592,0,0,0-1.378-.69,1.566,1.566,0,0,0-1.361.686A3.735,3.735,0,0,0,208.349,13.6Zm2.316-8.347h2.615l-2.3,2.573H209.03Zm7.479,3.769.075,1.038a3.136,3.136,0,0,1,2.582-1.2,2.606,2.606,0,0,1,2.125.838,3.912,3.912,0,0,1,.714,2.507V18h-2.4V12.256a1.556,1.556,0,0,0-.332-1.108,1.486,1.486,0,0,0-1.1-.344,1.65,1.65,0,0,0-1.519.863V18h-2.4V9.019Z" transform="translate(349.04 969)" fill="#12263f"/>
      </g>
      <g id="Grupo_1211056" data-name="Grupo 1211056" transform="translate(-0.02 52)">
        <rect id="Rectángulo_460724" data-name="Rectángulo 460724" width="277.96" height="31" rx="15.5" transform="translate(661.02 820)" fill="#ffd453"/>
        <path id="Trazado_1274436" data-name="Trazado 1274436" d="M37.984,12.762H33.2V16h5.611v2h-8.1V5.914H38.8V7.931H33.2v2.88h4.781Zm7,2.756a.773.773,0,0,0-.436-.693,4.95,4.95,0,0,0-1.4-.452q-3.2-.672-3.2-2.723a2.468,2.468,0,0,1,.992-2,4,4,0,0,1,2.594-.8,4.307,4.307,0,0,1,2.735.805,2.538,2.538,0,0,1,1.025,2.092h-2.4a1.161,1.161,0,0,0-.332-.851,1.405,1.405,0,0,0-1.038-.336,1.436,1.436,0,0,0-.938.274.865.865,0,0,0-.332.7.739.739,0,0,0,.378.643A3.885,3.885,0,0,0,43.9,12.6a10.407,10.407,0,0,1,1.511.4,2.482,2.482,0,0,1,1.9,2.416,2.343,2.343,0,0,1-1.054,1.988,4.548,4.548,0,0,1-2.723.76,4.75,4.75,0,0,1-2-.4,3.363,3.363,0,0,1-1.374-1.1,2.565,2.565,0,0,1-.5-1.515h2.274a1.252,1.252,0,0,0,.473.979,1.877,1.877,0,0,0,1.179.34,1.737,1.737,0,0,0,1.042-.261A.814.814,0,0,0,44.981,15.518ZM51.73,6.811V9.019h1.536v1.76H51.73v4.482a1.07,1.07,0,0,0,.191.714.959.959,0,0,0,.73.216,3.826,3.826,0,0,0,.706-.058V17.95a4.939,4.939,0,0,1-1.453.216,2.29,2.29,0,0,1-2.573-2.548V10.778H48.02V9.019h1.312V6.811Zm7.919,4.458a6.517,6.517,0,0,0-.863-.066A1.757,1.757,0,0,0,57,12.123V18H54.6V9.019h2.266l.066,1.071a2.223,2.223,0,0,1,2-1.237,2.514,2.514,0,0,1,.747.108Zm6.533,5.819a3.008,3.008,0,0,1-2.457,1.079,2.837,2.837,0,0,1-2.2-.83,3.543,3.543,0,0,1-.776-2.432V9.019h2.4v5.809q0,1.4,1.278,1.4a1.732,1.732,0,0,0,1.677-.848V9.019h2.407V18H66.248Zm7.869-.855a1.573,1.573,0,0,0,1.079-.365,1.28,1.28,0,0,0,.432-.971h2.25a3.077,3.077,0,0,1-.5,1.673,3.286,3.286,0,0,1-1.341,1.179,4.2,4.2,0,0,1-1.88.419,3.9,3.9,0,0,1-3.038-1.224,4.845,4.845,0,0,1-1.112-3.383V13.4a4.79,4.79,0,0,1,1.1-3.312,3.854,3.854,0,0,1,3.03-1.237,3.778,3.778,0,0,1,2.7.959,3.4,3.4,0,0,1,1.033,2.552h-2.25a1.648,1.648,0,0,0-.432-1.139,1.6,1.6,0,0,0-2.362.173,3.541,3.541,0,0,0-.427,1.983v.249a3.586,3.586,0,0,0,.423,2A1.463,1.463,0,0,0,74.051,16.232Zm8-9.421V9.019h1.536v1.76H82.053v4.482a1.07,1.07,0,0,0,.191.714.959.959,0,0,0,.73.216,3.826,3.826,0,0,0,.706-.058V17.95a4.938,4.938,0,0,1-1.453.216,2.29,2.29,0,0,1-2.573-2.548V10.778H78.342V9.019h1.312V6.811ZM90.3,17.087a3.008,3.008,0,0,1-2.457,1.079,2.837,2.837,0,0,1-2.2-.83,3.543,3.543,0,0,1-.776-2.432V9.019h2.4v5.809q0,1.4,1.278,1.4a1.732,1.732,0,0,0,1.677-.848V9.019h2.407V18H90.37Zm9.181-5.819a6.517,6.517,0,0,0-.863-.066,1.757,1.757,0,0,0-1.785.921V18h-2.4V9.019H96.7l.066,1.071a2.223,2.223,0,0,1,2-1.237,2.514,2.514,0,0,1,.747.108ZM105.594,18a2.664,2.664,0,0,1-.241-.805,2.9,2.9,0,0,1-2.266.971A3.189,3.189,0,0,1,100.9,17.4a2.456,2.456,0,0,1-.867-1.926,2.538,2.538,0,0,1,1.058-2.191,5.222,5.222,0,0,1,3.059-.772h1.1V12a1.48,1.48,0,0,0-.32-1,1.257,1.257,0,0,0-1.009-.374,1.429,1.429,0,0,0-.95.291.987.987,0,0,0-.344.8h-2.4a2.41,2.41,0,0,1,.481-1.444,3.182,3.182,0,0,1,1.361-1.042,4.961,4.961,0,0,1,1.976-.378,3.92,3.92,0,0,1,2.635.834,2.918,2.918,0,0,1,.975,2.345v3.893a4.294,4.294,0,0,0,.357,1.934V18Zm-1.984-1.668a2.066,2.066,0,0,0,.979-.237,1.554,1.554,0,0,0,.664-.635V13.916h-.9q-1.8,0-1.917,1.245l-.008.141a.96.96,0,0,0,.315.739A1.225,1.225,0,0,0,103.61,16.332Zm10.758-.813a.773.773,0,0,0-.436-.693,4.95,4.95,0,0,0-1.4-.452q-3.2-.672-3.2-2.723a2.468,2.468,0,0,1,.992-2,4,4,0,0,1,2.594-.8,4.307,4.307,0,0,1,2.735.805,2.538,2.538,0,0,1,1.025,2.092h-2.4a1.161,1.161,0,0,0-.332-.851,1.405,1.405,0,0,0-1.038-.336,1.436,1.436,0,0,0-.938.274.865.865,0,0,0-.332.7.739.739,0,0,0,.378.643,3.885,3.885,0,0,0,1.274.423,10.407,10.407,0,0,1,1.511.4,2.482,2.482,0,0,1,1.9,2.416,2.343,2.343,0,0,1-1.054,1.988,4.548,4.548,0,0,1-2.723.76,4.75,4.75,0,0,1-2-.4,3.363,3.363,0,0,1-1.374-1.1,2.565,2.565,0,0,1-.5-1.515h2.274a1.252,1.252,0,0,0,.473.979,1.877,1.877,0,0,0,1.179.34,1.737,1.737,0,0,0,1.042-.261A.814.814,0,0,0,114.368,15.518Zm7.736-2.075a5.413,5.413,0,0,1,.942-3.345,3.057,3.057,0,0,1,2.577-1.245,2.751,2.751,0,0,1,2.167.979V5.25H130.2V18h-2.167l-.116-.955a2.823,2.823,0,0,1-2.308,1.121,3.049,3.049,0,0,1-2.544-1.249A5.587,5.587,0,0,1,122.1,13.443Zm2.4.179a3.546,3.546,0,0,0,.44,1.937,1.433,1.433,0,0,0,1.278.673,1.605,1.605,0,0,0,1.569-.939v-3.55a1.582,1.582,0,0,0-1.552-.939Q124.5,10.8,124.5,13.621Zm11.687,4.545a4.409,4.409,0,0,1-3.217-1.212,4.308,4.308,0,0,1-1.241-3.229v-.232a5.426,5.426,0,0,1,.523-2.42,3.838,3.838,0,0,1,1.482-1.644,4.159,4.159,0,0,1,2.187-.577,3.727,3.727,0,0,1,2.9,1.162,4.722,4.722,0,0,1,1.058,3.3v.979h-5.719a2.228,2.228,0,0,0,.7,1.411,2.12,2.12,0,0,0,1.482.531,2.589,2.589,0,0,0,2.167-1l1.179,1.32a3.6,3.6,0,0,1-1.461,1.191A4.793,4.793,0,0,1,136.19,18.166Zm-.274-7.379a1.5,1.5,0,0,0-1.158.484,2.5,2.5,0,0,0-.569,1.384h3.337v-.192a1.786,1.786,0,0,0-.432-1.238A1.547,1.547,0,0,0,135.917,10.787Zm13.3,5.445a1.573,1.573,0,0,0,1.079-.365,1.28,1.28,0,0,0,.432-.971h2.25a3.077,3.077,0,0,1-.5,1.673,3.286,3.286,0,0,1-1.341,1.179,4.2,4.2,0,0,1-1.88.419,3.9,3.9,0,0,1-3.038-1.224,4.845,4.845,0,0,1-1.112-3.383V13.4a4.79,4.79,0,0,1,1.1-3.312,3.854,3.854,0,0,1,3.03-1.237,3.778,3.778,0,0,1,2.7.959,3.4,3.4,0,0,1,1.033,2.552h-2.25a1.648,1.648,0,0,0-.432-1.139,1.6,1.6,0,0,0-2.362.173,3.541,3.541,0,0,0-.427,1.983v.249a3.586,3.586,0,0,0,.423,2A1.463,1.463,0,0,0,149.214,16.232Zm4.756-2.806a5.327,5.327,0,0,1,.515-2.382,3.767,3.767,0,0,1,1.482-1.619,4.323,4.323,0,0,1,2.245-.573,4.09,4.09,0,0,1,2.968,1.112,4.464,4.464,0,0,1,1.282,3.021l.017.614a4.694,4.694,0,0,1-1.154,3.316,4.472,4.472,0,0,1-6.2,0,4.777,4.777,0,0,1-1.158-3.387Zm2.4.17a3.357,3.357,0,0,0,.481,1.958,1.73,1.73,0,0,0,2.739.008,3.674,3.674,0,0,0,.49-2.141,3.324,3.324,0,0,0-.49-1.945,1.592,1.592,0,0,0-1.378-.69,1.566,1.566,0,0,0-1.361.686A3.735,3.735,0,0,0,156.37,13.6Zm9.795-4.578.075,1.038a3.136,3.136,0,0,1,2.582-1.2,2.606,2.606,0,0,1,2.125.838,3.912,3.912,0,0,1,.714,2.507V18h-2.4V12.256a1.556,1.556,0,0,0-.332-1.108,1.486,1.486,0,0,0-1.1-.344,1.65,1.65,0,0,0-1.519.863V18h-2.4V9.019ZM176.35,6.811V9.019h1.536v1.76H176.35v4.482a1.07,1.07,0,0,0,.191.714.959.959,0,0,0,.73.216,3.826,3.826,0,0,0,.706-.058V17.95a4.939,4.939,0,0,1-1.453.216,2.29,2.29,0,0,1-2.573-2.548V10.778h-1.312V9.019h1.312V6.811Zm7.919,4.458a6.517,6.517,0,0,0-.863-.066,1.757,1.757,0,0,0-1.785.921V18h-2.4V9.019h2.266l.066,1.071a2.223,2.223,0,0,1,2-1.237,2.514,2.514,0,0,1,.747.108Zm.481,2.158a5.327,5.327,0,0,1,.515-2.382,3.767,3.767,0,0,1,1.482-1.619,4.323,4.323,0,0,1,2.245-.573,4.09,4.09,0,0,1,2.968,1.112,4.464,4.464,0,0,1,1.282,3.021l.017.614a4.694,4.694,0,0,1-1.154,3.316,4.472,4.472,0,0,1-6.2,0,4.777,4.777,0,0,1-1.158-3.387Zm2.4.17a3.357,3.357,0,0,0,.481,1.958,1.73,1.73,0,0,0,2.739.008,3.674,3.674,0,0,0,.49-2.141,3.324,3.324,0,0,0-.49-1.945,1.592,1.592,0,0,0-1.378-.69,1.566,1.566,0,0,0-1.361.686A3.735,3.735,0,0,0,187.149,13.6ZM197.268,18H194.86V5.25h2.407Z" transform="translate(686.02 823)" fill="#12263f"/>
      </g>
      <path id="Trazado_1274431" data-name="Trazado 1274431" d="M43.6,12.762H38.814V16h5.611v2h-8.1V5.914h8.085V7.931H38.814v2.88H43.6Zm7,2.756a.773.773,0,0,0-.436-.693,4.95,4.95,0,0,0-1.4-.452q-3.2-.672-3.2-2.723a2.468,2.468,0,0,1,.992-2,4,4,0,0,1,2.594-.8,4.307,4.307,0,0,1,2.735.805A2.538,2.538,0,0,1,52.9,11.75H50.5a1.161,1.161,0,0,0-.332-.851,1.405,1.405,0,0,0-1.038-.336,1.436,1.436,0,0,0-.938.274.865.865,0,0,0-.332.7.739.739,0,0,0,.378.643,3.885,3.885,0,0,0,1.274.423,10.407,10.407,0,0,1,1.511.4,2.482,2.482,0,0,1,1.9,2.416,2.343,2.343,0,0,1-1.054,1.988,4.548,4.548,0,0,1-2.723.76,4.75,4.75,0,0,1-2-.4,3.363,3.363,0,0,1-1.374-1.1,2.565,2.565,0,0,1-.5-1.515h2.274a1.252,1.252,0,0,0,.473.979,1.877,1.877,0,0,0,1.179.34A1.737,1.737,0,0,0,50.24,16.2.814.814,0,0,0,50.593,15.518Zm6.749-8.708V9.019h1.536v1.76H57.341v4.482a1.07,1.07,0,0,0,.191.714.959.959,0,0,0,.73.216,3.826,3.826,0,0,0,.706-.058V17.95a4.939,4.939,0,0,1-1.453.216,2.29,2.29,0,0,1-2.573-2.548V10.778H53.631V9.019h1.312V6.811Zm7.919,4.458A6.517,6.517,0,0,0,64.4,11.2a1.757,1.757,0,0,0-1.785.921V18h-2.4V9.019H62.48l.066,1.071a2.223,2.223,0,0,1,2-1.237,2.514,2.514,0,0,1,.747.108Zm6.533,5.819a3.008,3.008,0,0,1-2.457,1.079,2.837,2.837,0,0,1-2.2-.83,3.543,3.543,0,0,1-.776-2.432V9.019h2.4v5.809q0,1.4,1.278,1.4a1.732,1.732,0,0,0,1.677-.848V9.019h2.407V18H71.859Zm7.869-.855a1.573,1.573,0,0,0,1.079-.365,1.28,1.28,0,0,0,.432-.971h2.25a3.077,3.077,0,0,1-.5,1.673,3.286,3.286,0,0,1-1.341,1.179,4.2,4.2,0,0,1-1.88.419,3.9,3.9,0,0,1-3.038-1.224,4.845,4.845,0,0,1-1.112-3.383V13.4a4.79,4.79,0,0,1,1.1-3.312,3.854,3.854,0,0,1,3.03-1.237,3.778,3.778,0,0,1,2.7.959,3.4,3.4,0,0,1,1.033,2.552h-2.25a1.648,1.648,0,0,0-.432-1.139,1.6,1.6,0,0,0-2.362.173,3.541,3.541,0,0,0-.427,1.983v.249a3.586,3.586,0,0,0,.423,2A1.463,1.463,0,0,0,79.662,16.232Zm8-9.421V9.019H89.2v1.76H87.664v4.482a1.07,1.07,0,0,0,.191.714.959.959,0,0,0,.73.216,3.826,3.826,0,0,0,.706-.058V17.95a4.938,4.938,0,0,1-1.453.216,2.29,2.29,0,0,1-2.573-2.548V10.778H83.954V9.019h1.312V6.811Zm8.251,10.276a3.008,3.008,0,0,1-2.457,1.079,2.837,2.837,0,0,1-2.2-.83,3.543,3.543,0,0,1-.776-2.432V9.019h2.4v5.809q0,1.4,1.278,1.4a1.732,1.732,0,0,0,1.677-.848V9.019h2.407V18H95.981Zm9.181-5.819a6.517,6.517,0,0,0-.863-.066,1.757,1.757,0,0,0-1.785.921V18h-2.4V9.019h2.266l.066,1.071a2.223,2.223,0,0,1,2-1.237,2.514,2.514,0,0,1,.747.108ZM111.205,18a2.664,2.664,0,0,1-.241-.805,2.9,2.9,0,0,1-2.266.971,3.189,3.189,0,0,1-2.187-.764,2.456,2.456,0,0,1-.867-1.926,2.538,2.538,0,0,1,1.058-2.191,5.222,5.222,0,0,1,3.059-.772h1.1V12a1.48,1.48,0,0,0-.32-1,1.257,1.257,0,0,0-1.009-.374,1.429,1.429,0,0,0-.95.291.987.987,0,0,0-.344.8h-2.4a2.41,2.41,0,0,1,.481-1.444,3.182,3.182,0,0,1,1.361-1.042,4.961,4.961,0,0,1,1.976-.378,3.92,3.92,0,0,1,2.635.834,2.918,2.918,0,0,1,.975,2.345v3.893a4.294,4.294,0,0,0,.357,1.934V18Zm-1.984-1.668a2.066,2.066,0,0,0,.979-.237,1.554,1.554,0,0,0,.664-.635V13.916h-.9q-1.8,0-1.917,1.245l-.008.141a.96.96,0,0,0,.315.739A1.225,1.225,0,0,0,109.221,16.332Zm10.758-.813a.773.773,0,0,0-.436-.693,4.95,4.95,0,0,0-1.4-.452q-3.2-.672-3.2-2.723a2.468,2.468,0,0,1,.992-2,4,4,0,0,1,2.594-.8,4.307,4.307,0,0,1,2.735.805,2.538,2.538,0,0,1,1.025,2.092h-2.4a1.161,1.161,0,0,0-.332-.851,1.405,1.405,0,0,0-1.038-.336,1.436,1.436,0,0,0-.938.274.865.865,0,0,0-.332.7.739.739,0,0,0,.378.643,3.885,3.885,0,0,0,1.274.423,10.407,10.407,0,0,1,1.511.4,2.482,2.482,0,0,1,1.9,2.416,2.343,2.343,0,0,1-1.054,1.988,4.548,4.548,0,0,1-2.723.76,4.75,4.75,0,0,1-2-.4,3.363,3.363,0,0,1-1.374-1.1,2.565,2.565,0,0,1-.5-1.515h2.274a1.252,1.252,0,0,0,.473.979,1.877,1.877,0,0,0,1.179.34,1.737,1.737,0,0,0,1.042-.261A.814.814,0,0,0,119.979,15.518Zm7.736-2.075a5.413,5.413,0,0,1,.942-3.345,3.057,3.057,0,0,1,2.577-1.245,2.751,2.751,0,0,1,2.167.979V5.25h2.407V18h-2.167l-.116-.955a2.823,2.823,0,0,1-2.308,1.121,3.049,3.049,0,0,1-2.544-1.249A5.587,5.587,0,0,1,127.715,13.443Zm2.4.179a3.546,3.546,0,0,0,.44,1.937,1.433,1.433,0,0,0,1.278.673,1.605,1.605,0,0,0,1.569-.939v-3.55a1.582,1.582,0,0,0-1.552-.939Q130.114,10.8,130.114,13.621ZM141.8,18.166a4.409,4.409,0,0,1-3.217-1.212,4.308,4.308,0,0,1-1.241-3.229v-.232a5.426,5.426,0,0,1,.523-2.42,3.838,3.838,0,0,1,1.482-1.644,4.159,4.159,0,0,1,2.187-.577,3.727,3.727,0,0,1,2.9,1.162,4.722,4.722,0,0,1,1.058,3.3v.979h-5.719a2.228,2.228,0,0,0,.7,1.411,2.12,2.12,0,0,0,1.482.531,2.589,2.589,0,0,0,2.167-1l1.179,1.32a3.6,3.6,0,0,1-1.461,1.191A4.793,4.793,0,0,1,141.8,18.166Zm-.274-7.379a1.5,1.5,0,0,0-1.158.484,2.5,2.5,0,0,0-.569,1.384h3.337v-.192a1.786,1.786,0,0,0-.432-1.238A1.547,1.547,0,0,0,141.528,10.787Zm9.189,2.656a5.413,5.413,0,0,1,.942-3.345,3.057,3.057,0,0,1,2.577-1.245,2.751,2.751,0,0,1,2.167.979V5.25h2.407V18h-2.167l-.116-.955a2.823,2.823,0,0,1-2.308,1.121,3.049,3.049,0,0,1-2.544-1.249A5.587,5.587,0,0,1,150.717,13.443Zm2.4.179a3.546,3.546,0,0,0,.44,1.937,1.433,1.433,0,0,0,1.278.673,1.605,1.605,0,0,0,1.569-.939v-3.55a1.582,1.582,0,0,0-1.552-.939Q153.116,10.8,153.116,13.621ZM165.874,18a2.664,2.664,0,0,1-.241-.805,2.9,2.9,0,0,1-2.266.971,3.189,3.189,0,0,1-2.187-.764,2.456,2.456,0,0,1-.867-1.926,2.538,2.538,0,0,1,1.058-2.191,5.222,5.222,0,0,1,3.059-.772h1.1V12a1.48,1.48,0,0,0-.32-1,1.257,1.257,0,0,0-1.009-.374,1.429,1.429,0,0,0-.95.291.987.987,0,0,0-.344.8h-2.4a2.41,2.41,0,0,1,.481-1.444,3.182,3.182,0,0,1,1.361-1.042,4.961,4.961,0,0,1,1.976-.378,3.92,3.92,0,0,1,2.635.834,2.918,2.918,0,0,1,.975,2.345v3.893a4.294,4.294,0,0,0,.357,1.934V18Zm-1.984-1.668a2.066,2.066,0,0,0,.979-.237,1.554,1.554,0,0,0,.664-.635V13.916h-.9q-1.8,0-1.917,1.245l-.008.141a.96.96,0,0,0,.315.739A1.225,1.225,0,0,0,163.89,16.332Zm8.766-9.521V9.019h1.536v1.76h-1.536v4.482a1.07,1.07,0,0,0,.191.714.959.959,0,0,0,.73.216,3.826,3.826,0,0,0,.706-.058V17.95a4.939,4.939,0,0,1-1.453.216,2.29,2.29,0,0,1-2.573-2.548V10.778h-1.312V9.019h1.312V6.811Zm2.25,6.616a5.327,5.327,0,0,1,.515-2.382A3.767,3.767,0,0,1,176.9,9.425a4.323,4.323,0,0,1,2.245-.573,4.09,4.09,0,0,1,2.968,1.112,4.464,4.464,0,0,1,1.282,3.021l.017.614a4.694,4.694,0,0,1-1.154,3.316,4.472,4.472,0,0,1-6.2,0,4.777,4.777,0,0,1-1.158-3.387Zm2.4.17a3.357,3.357,0,0,0,.481,1.958,1.73,1.73,0,0,0,2.739.008,3.674,3.674,0,0,0,.49-2.141,3.324,3.324,0,0,0-.49-1.945,1.592,1.592,0,0,0-1.378-.69,1.566,1.566,0,0,0-1.361.686A3.735,3.735,0,0,0,177.3,13.6Zm12.451,1.922a.773.773,0,0,0-.436-.693,4.95,4.95,0,0,0-1.4-.452q-3.2-.672-3.2-2.723a2.468,2.468,0,0,1,.992-2,4,4,0,0,1,2.594-.8,4.307,4.307,0,0,1,2.735.805,2.538,2.538,0,0,1,1.025,2.092h-2.4a1.161,1.161,0,0,0-.332-.851,1.405,1.405,0,0,0-1.038-.336,1.436,1.436,0,0,0-.938.274.865.865,0,0,0-.332.7.739.739,0,0,0,.378.643,3.885,3.885,0,0,0,1.274.423,10.407,10.407,0,0,1,1.511.4,2.482,2.482,0,0,1,1.9,2.416,2.343,2.343,0,0,1-1.054,1.988,4.548,4.548,0,0,1-2.723.76,4.75,4.75,0,0,1-2-.4,3.363,3.363,0,0,1-1.374-1.1,2.565,2.565,0,0,1-.5-1.515h2.274a1.252,1.252,0,0,0,.473.979,1.877,1.877,0,0,0,1.179.34A1.737,1.737,0,0,0,189.4,16.2.814.814,0,0,0,189.755,15.518Z" transform="translate(686.02 1005)" fill="#12263f"/>
      <g id="Grupo_1211057" data-name="Grupo 1211057" transform="translate(0 -31)">
        <rect id="Rectángulo_460726" data-name="Rectángulo 460726" width="277.96" height="31" rx="15.5" transform="translate(998 851)" fill="#6cb9ff"/>
        <text id="Estructura_secuencial" data-name="Estructura secuencial" transform="translate(1023 854)" fill="#12263f" font-size="17" font-family="Roboto-Bold, Roboto" font-weight="700"><tspan x="31.381" y="18">Estructura secuencial</tspan></text>
      </g>
      <path id="Trazado_1274432" data-name="Trazado 1274432" d="M23.3,12.762H18.514V16h5.611v2h-8.1V5.914h8.085V7.931H18.514v2.88H23.3Zm7,2.756a.773.773,0,0,0-.436-.693,4.95,4.95,0,0,0-1.4-.452q-3.2-.672-3.2-2.723a2.468,2.468,0,0,1,.992-2,4,4,0,0,1,2.594-.8,4.307,4.307,0,0,1,2.735.805A2.538,2.538,0,0,1,32.6,11.75H30.2a1.161,1.161,0,0,0-.332-.851,1.405,1.405,0,0,0-1.038-.336,1.436,1.436,0,0,0-.938.274.865.865,0,0,0-.332.7.739.739,0,0,0,.378.643,3.885,3.885,0,0,0,1.274.423,10.407,10.407,0,0,1,1.511.4,2.482,2.482,0,0,1,1.9,2.416,2.343,2.343,0,0,1-1.054,1.988,4.548,4.548,0,0,1-2.723.76,4.75,4.75,0,0,1-2-.4,3.363,3.363,0,0,1-1.374-1.1,2.565,2.565,0,0,1-.5-1.515h2.274a1.252,1.252,0,0,0,.473.979,1.877,1.877,0,0,0,1.179.34A1.737,1.737,0,0,0,29.94,16.2.814.814,0,0,0,30.293,15.518Zm6.749-8.708V9.019h1.536v1.76H37.042v4.482a1.07,1.07,0,0,0,.191.714.959.959,0,0,0,.73.216,3.826,3.826,0,0,0,.706-.058V17.95a4.939,4.939,0,0,1-1.453.216,2.29,2.29,0,0,1-2.573-2.548V10.778H33.331V9.019h1.312V6.811Zm7.919,4.458A6.517,6.517,0,0,0,44.1,11.2a1.757,1.757,0,0,0-1.785.921V18h-2.4V9.019H42.18l.066,1.071a2.223,2.223,0,0,1,2-1.237,2.514,2.514,0,0,1,.747.108Zm6.533,5.819a3.008,3.008,0,0,1-2.457,1.079,2.837,2.837,0,0,1-2.2-.83,3.543,3.543,0,0,1-.776-2.432V9.019h2.4v5.809q0,1.4,1.278,1.4a1.732,1.732,0,0,0,1.677-.848V9.019h2.407V18H51.56Zm7.869-.855a1.573,1.573,0,0,0,1.079-.365,1.28,1.28,0,0,0,.432-.971h2.25a3.077,3.077,0,0,1-.5,1.673,3.286,3.286,0,0,1-1.341,1.179,4.2,4.2,0,0,1-1.88.419,3.9,3.9,0,0,1-3.038-1.224,4.845,4.845,0,0,1-1.112-3.383V13.4a4.79,4.79,0,0,1,1.1-3.312,3.854,3.854,0,0,1,3.03-1.237,3.778,3.778,0,0,1,2.7.959,3.4,3.4,0,0,1,1.033,2.552h-2.25a1.648,1.648,0,0,0-.432-1.139,1.6,1.6,0,0,0-2.362.173,3.541,3.541,0,0,0-.427,1.983v.249a3.586,3.586,0,0,0,.423,2A1.463,1.463,0,0,0,59.363,16.232Zm8-9.421V9.019H68.9v1.76H67.365v4.482a1.07,1.07,0,0,0,.191.714.959.959,0,0,0,.73.216,3.826,3.826,0,0,0,.706-.058V17.95a4.938,4.938,0,0,1-1.453.216,2.29,2.29,0,0,1-2.573-2.548V10.778H63.654V9.019h1.312V6.811Zm8.251,10.276a3.008,3.008,0,0,1-2.457,1.079,2.837,2.837,0,0,1-2.2-.83,3.543,3.543,0,0,1-.776-2.432V9.019h2.4v5.809q0,1.4,1.278,1.4a1.732,1.732,0,0,0,1.677-.848V9.019H77.94V18H75.682ZM84.8,11.268a6.517,6.517,0,0,0-.863-.066,1.757,1.757,0,0,0-1.785.921V18h-2.4V9.019h2.266l.066,1.071a2.223,2.223,0,0,1,2-1.237,2.514,2.514,0,0,1,.747.108ZM90.906,18a2.664,2.664,0,0,1-.241-.805,2.9,2.9,0,0,1-2.266.971,3.189,3.189,0,0,1-2.187-.764,2.456,2.456,0,0,1-.867-1.926A2.538,2.538,0,0,1,86.4,13.285a5.222,5.222,0,0,1,3.059-.772h1.1V12a1.48,1.48,0,0,0-.32-1,1.257,1.257,0,0,0-1.009-.374,1.429,1.429,0,0,0-.95.291.987.987,0,0,0-.344.8h-2.4a2.41,2.41,0,0,1,.481-1.444A3.182,3.182,0,0,1,87.386,9.23a4.961,4.961,0,0,1,1.976-.378A3.92,3.92,0,0,1,92,9.687a2.918,2.918,0,0,1,.975,2.345v3.893a4.294,4.294,0,0,0,.357,1.934V18Zm-1.984-1.668a2.066,2.066,0,0,0,.979-.237,1.554,1.554,0,0,0,.664-.635V13.916h-.9q-1.8,0-1.917,1.245l-.008.141a.96.96,0,0,0,.315.739A1.225,1.225,0,0,0,88.922,16.332Zm10.758-.813a.773.773,0,0,0-.436-.693,4.95,4.95,0,0,0-1.4-.452q-3.2-.672-3.2-2.723a2.468,2.468,0,0,1,.992-2,4,4,0,0,1,2.594-.8,4.307,4.307,0,0,1,2.735.805,2.538,2.538,0,0,1,1.025,2.092h-2.4a1.161,1.161,0,0,0-.332-.851,1.405,1.405,0,0,0-1.038-.336,1.436,1.436,0,0,0-.938.274.865.865,0,0,0-.332.7.739.739,0,0,0,.378.643A3.885,3.885,0,0,0,98.6,12.6a10.407,10.407,0,0,1,1.511.4,2.482,2.482,0,0,1,1.9,2.416,2.343,2.343,0,0,1-1.054,1.988,4.548,4.548,0,0,1-2.723.76,4.75,4.75,0,0,1-2-.4,3.363,3.363,0,0,1-1.374-1.1,2.565,2.565,0,0,1-.5-1.515h2.274a1.252,1.252,0,0,0,.473.979,1.877,1.877,0,0,0,1.179.34,1.737,1.737,0,0,0,1.042-.261A.814.814,0,0,0,99.679,15.518Zm11.845.714a1.573,1.573,0,0,0,1.079-.365,1.28,1.28,0,0,0,.432-.971h2.25a3.077,3.077,0,0,1-.5,1.673,3.286,3.286,0,0,1-1.341,1.179,4.2,4.2,0,0,1-1.88.419,3.9,3.9,0,0,1-3.038-1.224,4.845,4.845,0,0,1-1.112-3.383V13.4a4.79,4.79,0,0,1,1.1-3.312,3.854,3.854,0,0,1,3.03-1.237,3.778,3.778,0,0,1,2.7.959,3.4,3.4,0,0,1,1.033,2.552h-2.25a1.648,1.648,0,0,0-.432-1.139,1.6,1.6,0,0,0-2.362.173,3.541,3.541,0,0,0-.427,1.983v.249a3.586,3.586,0,0,0,.423,2A1.463,1.463,0,0,0,111.525,16.232Zm4.756-2.806a5.326,5.326,0,0,1,.515-2.382,3.768,3.768,0,0,1,1.482-1.619,4.323,4.323,0,0,1,2.245-.573,4.09,4.09,0,0,1,2.968,1.112,4.464,4.464,0,0,1,1.282,3.021l.017.614a4.694,4.694,0,0,1-1.154,3.316,4.472,4.472,0,0,1-6.2,0,4.777,4.777,0,0,1-1.158-3.387Zm2.4.17a3.357,3.357,0,0,0,.481,1.958,1.73,1.73,0,0,0,2.739.008,3.674,3.674,0,0,0,.49-2.141,3.324,3.324,0,0,0-.49-1.945,1.592,1.592,0,0,0-1.378-.69,1.566,1.566,0,0,0-1.361.686A3.736,3.736,0,0,0,118.68,13.6Zm9.795-4.578.075,1.038a3.136,3.136,0,0,1,2.582-1.2,2.606,2.606,0,0,1,2.125.838,3.912,3.912,0,0,1,.714,2.507V18h-2.4V12.256a1.556,1.556,0,0,0-.332-1.108,1.486,1.486,0,0,0-1.1-.344,1.65,1.65,0,0,0-1.519.863V18h-2.4V9.019Zm6.939,4.424a5.413,5.413,0,0,1,.942-3.345,3.057,3.057,0,0,1,2.577-1.245,2.751,2.751,0,0,1,2.167.979V5.25h2.407V18h-2.167l-.116-.955a2.823,2.823,0,0,1-2.308,1.121,3.049,3.049,0,0,1-2.544-1.249A5.587,5.587,0,0,1,135.414,13.443Zm2.4.179a3.546,3.546,0,0,0,.44,1.937,1.433,1.433,0,0,0,1.278.673,1.605,1.605,0,0,0,1.569-.939v-3.55a1.582,1.582,0,0,0-1.552-.939Q137.813,10.8,137.813,13.621ZM147.9,18h-2.407V9.019H147.9ZM145.35,6.694a1.181,1.181,0,0,1,.361-.888,1.556,1.556,0,0,1,1.963,0,1.175,1.175,0,0,1,.365.888,1.178,1.178,0,0,1-.369.9,1.539,1.539,0,0,1-1.951,0A1.178,1.178,0,0,1,145.35,6.694Zm8.259,9.538a1.573,1.573,0,0,0,1.079-.365,1.28,1.28,0,0,0,.432-.971h2.25a3.077,3.077,0,0,1-.5,1.673,3.286,3.286,0,0,1-1.341,1.179,4.2,4.2,0,0,1-1.88.419,3.9,3.9,0,0,1-3.038-1.224,4.845,4.845,0,0,1-1.112-3.383V13.4a4.79,4.79,0,0,1,1.1-3.312,3.854,3.854,0,0,1,3.03-1.237,3.778,3.778,0,0,1,2.7.959,3.4,3.4,0,0,1,1.033,2.552h-2.25a1.648,1.648,0,0,0-.432-1.139,1.6,1.6,0,0,0-2.362.173,3.541,3.541,0,0,0-.427,1.983v.249a3.586,3.586,0,0,0,.423,2A1.463,1.463,0,0,0,153.61,16.232ZM161.271,18h-2.407V9.019h2.407ZM158.723,6.694a1.181,1.181,0,0,1,.361-.888,1.556,1.556,0,0,1,1.963,0,1.175,1.175,0,0,1,.365.888,1.178,1.178,0,0,1-.369.9,1.539,1.539,0,0,1-1.951,0A1.178,1.178,0,0,1,158.723,6.694Zm4.15,6.732a5.327,5.327,0,0,1,.515-2.382,3.767,3.767,0,0,1,1.482-1.619,4.323,4.323,0,0,1,2.245-.573,4.09,4.09,0,0,1,2.968,1.112,4.464,4.464,0,0,1,1.282,3.021l.017.614a4.694,4.694,0,0,1-1.154,3.316,4.472,4.472,0,0,1-6.2,0,4.777,4.777,0,0,1-1.158-3.387Zm2.4.17a3.357,3.357,0,0,0,.481,1.958,1.73,1.73,0,0,0,2.739.008,3.674,3.674,0,0,0,.49-2.141,3.324,3.324,0,0,0-.49-1.945,1.592,1.592,0,0,0-1.378-.69,1.566,1.566,0,0,0-1.361.686A3.735,3.735,0,0,0,165.272,13.6Zm9.795-4.578.075,1.038a3.136,3.136,0,0,1,2.582-1.2,2.606,2.606,0,0,1,2.125.838,3.912,3.912,0,0,1,.714,2.507V18h-2.4V12.256a1.556,1.556,0,0,0-.332-1.108,1.486,1.486,0,0,0-1.1-.344,1.65,1.65,0,0,0-1.519.863V18h-2.4V9.019ZM187.585,18a2.664,2.664,0,0,1-.241-.805,2.9,2.9,0,0,1-2.266.971,3.189,3.189,0,0,1-2.187-.764,2.456,2.456,0,0,1-.867-1.926,2.538,2.538,0,0,1,1.058-2.191,5.222,5.222,0,0,1,3.059-.772h1.1V12a1.48,1.48,0,0,0-.32-1,1.257,1.257,0,0,0-1.009-.374,1.429,1.429,0,0,0-.95.291.987.987,0,0,0-.344.8h-2.4a2.41,2.41,0,0,1,.481-1.444,3.182,3.182,0,0,1,1.361-1.042,4.961,4.961,0,0,1,1.976-.378,3.92,3.92,0,0,1,2.635.834,2.918,2.918,0,0,1,.975,2.345v3.893a4.294,4.294,0,0,0,.357,1.934V18ZM185.6,16.332a2.066,2.066,0,0,0,.979-.237,1.554,1.554,0,0,0,.664-.635V13.916h-.9q-1.8,0-1.917,1.245l-.008.141a.96.96,0,0,0,.315.739A1.225,1.225,0,0,0,185.6,16.332ZM194.026,18h-2.407V5.25h2.407Zm6.109.166a4.409,4.409,0,0,1-3.217-1.212,4.308,4.308,0,0,1-1.241-3.229v-.232a5.426,5.426,0,0,1,.523-2.42,3.838,3.838,0,0,1,1.482-1.644,4.159,4.159,0,0,1,2.187-.577,3.727,3.727,0,0,1,2.9,1.162,4.722,4.722,0,0,1,1.058,3.3v.979H198.11a2.228,2.228,0,0,0,.7,1.411,2.12,2.12,0,0,0,1.482.531,2.589,2.589,0,0,0,2.167-1l1.179,1.32a3.6,3.6,0,0,1-1.461,1.191A4.793,4.793,0,0,1,200.136,18.166Zm-.274-7.379a1.5,1.5,0,0,0-1.158.484,2.5,2.5,0,0,0-.569,1.384h3.337v-.192a1.786,1.786,0,0,0-.432-1.238A1.547,1.547,0,0,0,199.862,10.787Zm10.193,4.731a.773.773,0,0,0-.436-.693,4.95,4.95,0,0,0-1.4-.452q-3.2-.672-3.2-2.723a2.468,2.468,0,0,1,.992-2,4,4,0,0,1,2.594-.8,4.307,4.307,0,0,1,2.735.805,2.538,2.538,0,0,1,1.025,2.092h-2.4a1.161,1.161,0,0,0-.332-.851,1.405,1.405,0,0,0-1.038-.336,1.436,1.436,0,0,0-.938.274.865.865,0,0,0-.332.7.739.739,0,0,0,.378.643,3.885,3.885,0,0,0,1.274.423,10.407,10.407,0,0,1,1.511.4,2.482,2.482,0,0,1,1.9,2.416,2.343,2.343,0,0,1-1.054,1.988,4.548,4.548,0,0,1-2.723.76,4.75,4.75,0,0,1-2-.4,3.363,3.363,0,0,1-1.374-1.1,2.565,2.565,0,0,1-.5-1.515h2.274a1.252,1.252,0,0,0,.473.979,1.877,1.877,0,0,0,1.179.34A1.737,1.737,0,0,0,209.7,16.2.814.814,0,0,0,210.055,15.518Z" transform="translate(1023 875)" fill="#12263f"/>
      <path id="Trazado_1274433" data-name="Trazado 1274433" d="M31.36,12.762H26.579V16H32.19v2h-8.1V5.914h8.085V7.931H26.579v2.88H31.36Zm7,2.756a.773.773,0,0,0-.436-.693,4.95,4.95,0,0,0-1.4-.452q-3.2-.672-3.2-2.723a2.468,2.468,0,0,1,.992-2,4,4,0,0,1,2.594-.8,4.307,4.307,0,0,1,2.735.805,2.538,2.538,0,0,1,1.025,2.092h-2.4a1.161,1.161,0,0,0-.332-.851,1.405,1.405,0,0,0-1.038-.336,1.436,1.436,0,0,0-.938.274.865.865,0,0,0-.332.7.739.739,0,0,0,.378.643,3.885,3.885,0,0,0,1.274.423,10.407,10.407,0,0,1,1.511.4,2.482,2.482,0,0,1,1.9,2.416,2.343,2.343,0,0,1-1.054,1.988,4.548,4.548,0,0,1-2.723.76,4.75,4.75,0,0,1-2-.4,3.363,3.363,0,0,1-1.374-1.1,2.565,2.565,0,0,1-.5-1.515h2.274a1.252,1.252,0,0,0,.473.979,1.877,1.877,0,0,0,1.179.34A1.737,1.737,0,0,0,38,16.2.814.814,0,0,0,38.357,15.518Zm6.749-8.708V9.019h1.536v1.76H45.106v4.482a1.07,1.07,0,0,0,.191.714.959.959,0,0,0,.73.216,3.826,3.826,0,0,0,.706-.058V17.95a4.939,4.939,0,0,1-1.453.216,2.29,2.29,0,0,1-2.573-2.548V10.778H41.4V9.019h1.312V6.811Zm7.919,4.458a6.517,6.517,0,0,0-.863-.066,1.757,1.757,0,0,0-1.785.921V18h-2.4V9.019h2.266l.066,1.071a2.223,2.223,0,0,1,2-1.237,2.514,2.514,0,0,1,.747.108Zm6.533,5.819A3.008,3.008,0,0,1,57.1,18.166a2.837,2.837,0,0,1-2.2-.83,3.543,3.543,0,0,1-.776-2.432V9.019h2.4v5.809q0,1.4,1.278,1.4a1.732,1.732,0,0,0,1.677-.848V9.019h2.407V18H59.624Zm7.869-.855a1.573,1.573,0,0,0,1.079-.365,1.28,1.28,0,0,0,.432-.971h2.25a3.077,3.077,0,0,1-.5,1.673,3.286,3.286,0,0,1-1.341,1.179,4.2,4.2,0,0,1-1.88.419,3.9,3.9,0,0,1-3.038-1.224,4.845,4.845,0,0,1-1.112-3.383V13.4a4.79,4.79,0,0,1,1.1-3.312,3.854,3.854,0,0,1,3.03-1.237,3.778,3.778,0,0,1,2.7.959,3.4,3.4,0,0,1,1.033,2.552h-2.25a1.648,1.648,0,0,0-.432-1.139,1.6,1.6,0,0,0-2.362.173,3.541,3.541,0,0,0-.427,1.983v.249a3.586,3.586,0,0,0,.423,2A1.463,1.463,0,0,0,67.427,16.232Zm8-9.421V9.019h1.536v1.76H75.429v4.482a1.07,1.07,0,0,0,.191.714.959.959,0,0,0,.73.216,3.826,3.826,0,0,0,.706-.058V17.95a4.938,4.938,0,0,1-1.453.216,2.29,2.29,0,0,1-2.573-2.548V10.778H71.718V9.019H73.03V6.811ZM83.68,17.087a3.008,3.008,0,0,1-2.457,1.079,2.837,2.837,0,0,1-2.2-.83,3.543,3.543,0,0,1-.776-2.432V9.019h2.4v5.809q0,1.4,1.278,1.4a1.732,1.732,0,0,0,1.677-.848V9.019H86V18H83.746Zm9.181-5.819A6.517,6.517,0,0,0,92,11.2a1.757,1.757,0,0,0-1.785.921V18h-2.4V9.019H90.08l.066,1.071a2.223,2.223,0,0,1,2-1.237,2.514,2.514,0,0,1,.747.108ZM98.97,18a2.664,2.664,0,0,1-.241-.805,2.9,2.9,0,0,1-2.266.971,3.189,3.189,0,0,1-2.187-.764,2.456,2.456,0,0,1-.867-1.926,2.538,2.538,0,0,1,1.058-2.191,5.222,5.222,0,0,1,3.059-.772h1.1V12a1.48,1.48,0,0,0-.32-1,1.257,1.257,0,0,0-1.009-.374,1.429,1.429,0,0,0-.95.291.987.987,0,0,0-.344.8h-2.4a2.41,2.41,0,0,1,.481-1.444A3.182,3.182,0,0,1,95.45,9.23a4.961,4.961,0,0,1,1.976-.378,3.92,3.92,0,0,1,2.635.834,2.918,2.918,0,0,1,.975,2.345v3.893a4.294,4.294,0,0,0,.357,1.934V18Zm-1.984-1.668a2.066,2.066,0,0,0,.979-.237,1.554,1.554,0,0,0,.664-.635V13.916h-.9q-1.8,0-1.917,1.245l-.008.141a.96.96,0,0,0,.315.739A1.225,1.225,0,0,0,96.986,16.332Zm10.758-.813a.773.773,0,0,0-.436-.693,4.95,4.95,0,0,0-1.4-.452q-3.2-.672-3.2-2.723a2.468,2.468,0,0,1,.992-2,4,4,0,0,1,2.594-.8,4.307,4.307,0,0,1,2.735.805,2.538,2.538,0,0,1,1.025,2.092h-2.4a1.161,1.161,0,0,0-.332-.851,1.405,1.405,0,0,0-1.038-.336,1.436,1.436,0,0,0-.938.274.865.865,0,0,0-.332.7.739.739,0,0,0,.378.643,3.885,3.885,0,0,0,1.274.423,10.407,10.407,0,0,1,1.511.4,2.482,2.482,0,0,1,1.9,2.416,2.343,2.343,0,0,1-1.054,1.988,4.548,4.548,0,0,1-2.723.76,4.75,4.75,0,0,1-2-.4,3.363,3.363,0,0,1-1.374-1.1,2.565,2.565,0,0,1-.5-1.515H104.7a1.252,1.252,0,0,0,.473.979,1.877,1.877,0,0,0,1.179.34,1.737,1.737,0,0,0,1.042-.261A.814.814,0,0,0,107.744,15.518Zm7.736-2.075a5.413,5.413,0,0,1,.942-3.345A3.057,3.057,0,0,1,119,8.853a2.751,2.751,0,0,1,2.167.979V5.25h2.407V18h-2.167l-.116-.955a2.823,2.823,0,0,1-2.308,1.121,3.049,3.049,0,0,1-2.544-1.249A5.587,5.587,0,0,1,115.48,13.443Zm2.4.179a3.546,3.546,0,0,0,.44,1.937,1.433,1.433,0,0,0,1.278.673,1.605,1.605,0,0,0,1.569-.939v-3.55a1.582,1.582,0,0,0-1.552-.939Q117.879,10.8,117.879,13.621Zm11.687,4.545a4.409,4.409,0,0,1-3.217-1.212,4.308,4.308,0,0,1-1.241-3.229v-.232a5.426,5.426,0,0,1,.523-2.42,3.838,3.838,0,0,1,1.482-1.644,4.159,4.159,0,0,1,2.187-.577,3.727,3.727,0,0,1,2.9,1.162,4.722,4.722,0,0,1,1.058,3.3v.979h-5.719a2.229,2.229,0,0,0,.7,1.411,2.12,2.12,0,0,0,1.482.531,2.589,2.589,0,0,0,2.167-1l1.179,1.32a3.6,3.6,0,0,1-1.461,1.191A4.793,4.793,0,0,1,129.566,18.166Zm-.274-7.379a1.5,1.5,0,0,0-1.158.484,2.5,2.5,0,0,0-.569,1.384H130.9v-.192a1.786,1.786,0,0,0-.432-1.238A1.547,1.547,0,0,0,129.293,10.787ZM141.387,18H138.98V9.019h2.407ZM138.838,6.694a1.181,1.181,0,0,1,.361-.888,1.556,1.556,0,0,1,1.963,0,1.175,1.175,0,0,1,.365.888,1.178,1.178,0,0,1-.369.9,1.539,1.539,0,0,1-1.951,0A1.178,1.178,0,0,1,138.838,6.694Zm7.4.116V9.019h1.536v1.76h-1.536v4.482a1.07,1.07,0,0,0,.191.714.959.959,0,0,0,.73.216,3.826,3.826,0,0,0,.706-.058V17.95a4.939,4.939,0,0,1-1.453.216,2.29,2.29,0,0,1-2.573-2.548V10.778h-1.312V9.019h1.312V6.811Zm7.006,11.355a4.409,4.409,0,0,1-3.217-1.212,4.308,4.308,0,0,1-1.241-3.229v-.232a5.426,5.426,0,0,1,.523-2.42,3.838,3.838,0,0,1,1.482-1.644,4.159,4.159,0,0,1,2.187-.577,3.727,3.727,0,0,1,2.9,1.162,4.722,4.722,0,0,1,1.058,3.3v.979h-5.719a2.228,2.228,0,0,0,.7,1.411,2.12,2.12,0,0,0,1.482.531,2.589,2.589,0,0,0,2.167-1l1.179,1.32a3.6,3.6,0,0,1-1.461,1.191A4.793,4.793,0,0,1,153.24,18.166Zm-.274-7.379a1.5,1.5,0,0,0-1.158.484,2.5,2.5,0,0,0-.569,1.384h3.337v-.192a1.786,1.786,0,0,0-.432-1.238A1.547,1.547,0,0,0,152.966,10.787Zm10.376.481a6.517,6.517,0,0,0-.863-.066,1.757,1.757,0,0,0-1.785.921V18h-2.4V9.019h2.266l.066,1.071a2.223,2.223,0,0,1,2-1.237,2.514,2.514,0,0,1,.747.108ZM169.452,18a2.664,2.664,0,0,1-.241-.805,2.9,2.9,0,0,1-2.266.971,3.189,3.189,0,0,1-2.187-.764,2.456,2.456,0,0,1-.867-1.926,2.538,2.538,0,0,1,1.058-2.191,5.222,5.222,0,0,1,3.059-.772h1.1V12a1.48,1.48,0,0,0-.32-1,1.257,1.257,0,0,0-1.009-.374,1.429,1.429,0,0,0-.95.291.987.987,0,0,0-.344.8h-2.4a2.41,2.41,0,0,1,.481-1.444,3.182,3.182,0,0,1,1.361-1.042,4.961,4.961,0,0,1,1.976-.378,3.92,3.92,0,0,1,2.635.834,2.918,2.918,0,0,1,.975,2.345v3.893a4.294,4.294,0,0,0,.357,1.934V18Zm-1.984-1.668a2.066,2.066,0,0,0,.979-.237,1.554,1.554,0,0,0,.664-.635V13.916h-.9q-1.8,0-1.917,1.245l-.008.141a.96.96,0,0,0,.315.739A1.225,1.225,0,0,0,167.468,16.332Zm9.629-.1a1.573,1.573,0,0,0,1.079-.365,1.28,1.28,0,0,0,.432-.971h2.25a3.077,3.077,0,0,1-.5,1.673,3.286,3.286,0,0,1-1.341,1.179,4.2,4.2,0,0,1-1.88.419,3.9,3.9,0,0,1-3.038-1.224,4.845,4.845,0,0,1-1.112-3.383V13.4a4.79,4.79,0,0,1,1.1-3.312,3.854,3.854,0,0,1,3.03-1.237,3.778,3.778,0,0,1,2.7.959,3.4,3.4,0,0,1,1.033,2.552h-2.25a1.648,1.648,0,0,0-.432-1.139,1.6,1.6,0,0,0-2.362.173,3.541,3.541,0,0,0-.427,1.983v.249a3.586,3.586,0,0,0,.423,2A1.463,1.463,0,0,0,177.1,16.232ZM184.758,18h-2.407V9.019h2.407ZM182.21,6.694a1.181,1.181,0,0,1,.361-.888,1.556,1.556,0,0,1,1.963,0,1.175,1.175,0,0,1,.365.888,1.178,1.178,0,0,1-.369.9,1.539,1.539,0,0,1-1.951,0A1.178,1.178,0,0,1,182.21,6.694Zm4.15,6.732a5.327,5.327,0,0,1,.515-2.382,3.767,3.767,0,0,1,1.482-1.619,4.323,4.323,0,0,1,2.245-.573,4.09,4.09,0,0,1,2.968,1.112,4.464,4.464,0,0,1,1.282,3.021l.017.614a4.694,4.694,0,0,1-1.154,3.316,4.472,4.472,0,0,1-6.2,0,4.777,4.777,0,0,1-1.158-3.387Zm2.4.17a3.357,3.357,0,0,0,.481,1.958,1.73,1.73,0,0,0,2.739.008,3.674,3.674,0,0,0,.49-2.141,3.324,3.324,0,0,0-.49-1.945,1.592,1.592,0,0,0-1.378-.69,1.566,1.566,0,0,0-1.361.686A3.735,3.735,0,0,0,188.759,13.6Zm2.316-8.347h2.615l-2.3,2.573H189.44Zm7.479,3.769.075,1.038a3.136,3.136,0,0,1,2.582-1.2,2.606,2.606,0,0,1,2.125.838,3.912,3.912,0,0,1,.714,2.507V18h-2.4V12.256a1.556,1.556,0,0,0-.332-1.108,1.486,1.486,0,0,0-1.1-.344,1.65,1.65,0,0,0-1.519.863V18h-2.4V9.019Z" transform="translate(1023 927)" fill="#12263f"/>
      <path id="Trazado_1274434" data-name="Trazado 1274434" d="M85.319,15l2.739-9.089h2.772L86.622,18h-2.6L79.832,5.914H82.6Zm10.625,3.163a4.409,4.409,0,0,1-3.217-1.212,4.308,4.308,0,0,1-1.241-3.229v-.232a5.426,5.426,0,0,1,.523-2.42,3.838,3.838,0,0,1,1.482-1.644,4.159,4.159,0,0,1,2.187-.577,3.727,3.727,0,0,1,2.9,1.162,4.722,4.722,0,0,1,1.058,3.3v.979H93.919a2.229,2.229,0,0,0,.7,1.411,2.12,2.12,0,0,0,1.482.531,2.589,2.589,0,0,0,2.167-1l1.179,1.32a3.6,3.6,0,0,1-1.461,1.191A4.793,4.793,0,0,1,95.944,18.166Zm-.274-7.379a1.5,1.5,0,0,0-1.158.484,2.5,2.5,0,0,0-.569,1.384h3.337v-.192a1.786,1.786,0,0,0-.432-1.238A1.547,1.547,0,0,0,95.67,10.787Zm9.064,5.445a1.573,1.573,0,0,0,1.079-.365,1.28,1.28,0,0,0,.432-.971h2.25a3.077,3.077,0,0,1-.5,1.673,3.286,3.286,0,0,1-1.341,1.179,4.2,4.2,0,0,1-1.88.419,3.9,3.9,0,0,1-3.038-1.224,4.845,4.845,0,0,1-1.112-3.383V13.4a4.79,4.79,0,0,1,1.1-3.312,3.854,3.854,0,0,1,3.03-1.237,3.778,3.778,0,0,1,2.7.959,3.4,3.4,0,0,1,1.033,2.552h-2.25a1.648,1.648,0,0,0-.432-1.139,1.6,1.6,0,0,0-2.362.173,3.541,3.541,0,0,0-.427,1.983v.249a3.586,3.586,0,0,0,.423,2A1.463,1.463,0,0,0,104.735,16.232Zm8-9.421V9.019h1.536v1.76h-1.536v4.482a1.07,1.07,0,0,0,.191.714.959.959,0,0,0,.73.216,3.826,3.826,0,0,0,.706-.058V17.95a4.938,4.938,0,0,1-1.453.216,2.29,2.29,0,0,1-2.573-2.548V10.778h-1.312V9.019h1.312V6.811Zm2.25,6.616a5.326,5.326,0,0,1,.515-2.382,3.768,3.768,0,0,1,1.482-1.619,4.323,4.323,0,0,1,2.245-.573A4.09,4.09,0,0,1,122.2,9.965a4.464,4.464,0,0,1,1.282,3.021l.017.614a4.694,4.694,0,0,1-1.154,3.316,4.472,4.472,0,0,1-6.2,0,4.777,4.777,0,0,1-1.158-3.387Zm2.4.17a3.357,3.357,0,0,0,.481,1.958,1.73,1.73,0,0,0,2.739.008,3.674,3.674,0,0,0,.49-2.141,3.324,3.324,0,0,0-.49-1.945,1.592,1.592,0,0,0-1.378-.69,1.566,1.566,0,0,0-1.361.686A3.736,3.736,0,0,0,117.385,13.6Zm12.634-2.328a6.517,6.517,0,0,0-.863-.066,1.757,1.757,0,0,0-1.785.921V18h-2.4V9.019h2.266l.066,1.071a2.223,2.223,0,0,1,2-1.237,2.514,2.514,0,0,1,.747.108Zm5.288,6.9a4.409,4.409,0,0,1-3.217-1.212,4.308,4.308,0,0,1-1.241-3.229v-.232a5.426,5.426,0,0,1,.523-2.42,3.838,3.838,0,0,1,1.482-1.644,4.159,4.159,0,0,1,2.187-.577,3.727,3.727,0,0,1,2.9,1.162A4.722,4.722,0,0,1,139,13.31v.979h-5.719a2.228,2.228,0,0,0,.7,1.411,2.12,2.12,0,0,0,1.482.531,2.589,2.589,0,0,0,2.167-1l1.179,1.32a3.6,3.6,0,0,1-1.461,1.191A4.793,4.793,0,0,1,135.306,18.166Zm-.274-7.379a1.5,1.5,0,0,0-1.158.484,2.5,2.5,0,0,0-.569,1.384h3.337v-.192a1.786,1.786,0,0,0-.432-1.238A1.547,1.547,0,0,0,135.033,10.787Zm10.193,4.731a.773.773,0,0,0-.436-.693,4.95,4.95,0,0,0-1.4-.452q-3.2-.672-3.2-2.723a2.468,2.468,0,0,1,.992-2,4,4,0,0,1,2.594-.8,4.307,4.307,0,0,1,2.735.805,2.538,2.538,0,0,1,1.025,2.092h-2.4a1.161,1.161,0,0,0-.332-.851,1.405,1.405,0,0,0-1.038-.336,1.436,1.436,0,0,0-.938.274.865.865,0,0,0-.332.7.739.739,0,0,0,.378.643,3.885,3.885,0,0,0,1.274.423,10.407,10.407,0,0,1,1.511.4,2.482,2.482,0,0,1,1.9,2.416,2.343,2.343,0,0,1-1.054,1.988,4.548,4.548,0,0,1-2.723.76,4.75,4.75,0,0,1-2-.4,3.363,3.363,0,0,1-1.374-1.1,2.565,2.565,0,0,1-.5-1.515h2.274a1.252,1.252,0,0,0,.473.979,1.877,1.877,0,0,0,1.179.34,1.737,1.737,0,0,0,1.042-.261A.814.814,0,0,0,145.226,15.518Z" transform="translate(1023 979)" fill="#12263f"/>
      <path id="Trazado_1274435" data-name="Trazado 1274435" d="M84.684,5.914l3.1,8.766,3.088-8.766h3.271V18h-2.5V14.7l.249-5.7L88.635,18h-1.71L83.671,9,83.92,14.7V18H81.43V5.914ZM101.369,18a2.664,2.664,0,0,1-.241-.805,2.9,2.9,0,0,1-2.266.971,3.189,3.189,0,0,1-2.187-.764,2.456,2.456,0,0,1-.867-1.926,2.538,2.538,0,0,1,1.058-2.191,5.222,5.222,0,0,1,3.059-.772h1.1V12a1.48,1.48,0,0,0-.32-1,1.257,1.257,0,0,0-1.009-.374,1.429,1.429,0,0,0-.95.291.987.987,0,0,0-.344.8h-2.4a2.41,2.41,0,0,1,.481-1.444A3.182,3.182,0,0,1,97.849,9.23a4.961,4.961,0,0,1,1.976-.378,3.92,3.92,0,0,1,2.635.834,2.918,2.918,0,0,1,.975,2.345v3.893a4.294,4.294,0,0,0,.357,1.934V18Zm-1.984-1.668a2.066,2.066,0,0,0,.979-.237,1.554,1.554,0,0,0,.664-.635V13.916h-.9q-1.8,0-1.917,1.245l-.008.141a.96.96,0,0,0,.315.739A1.225,1.225,0,0,0,99.385,16.332Zm8.766-9.521V9.019h1.536v1.76H108.15v4.482a1.07,1.07,0,0,0,.191.714.959.959,0,0,0,.73.216,3.826,3.826,0,0,0,.706-.058V17.95a4.938,4.938,0,0,1-1.453.216,2.29,2.29,0,0,1-2.573-2.548V10.778H104.44V9.019h1.312V6.811Zm7.919,4.458a6.517,6.517,0,0,0-.863-.066,1.757,1.757,0,0,0-1.785.921V18h-2.4V9.019h2.266l.066,1.071a2.223,2.223,0,0,1,2-1.237,2.514,2.514,0,0,1,.747.108ZM119.755,18h-2.407V9.019h2.407ZM117.207,6.694a1.181,1.181,0,0,1,.361-.888,1.556,1.556,0,0,1,1.963,0,1.175,1.175,0,0,1,.365.888,1.178,1.178,0,0,1-.369.9,1.539,1.539,0,0,1-1.951,0A1.178,1.178,0,0,1,117.207,6.694Zm8.259,9.538a1.573,1.573,0,0,0,1.079-.365,1.28,1.28,0,0,0,.432-.971h2.25a3.077,3.077,0,0,1-.5,1.673,3.286,3.286,0,0,1-1.341,1.179,4.2,4.2,0,0,1-1.88.419,3.9,3.9,0,0,1-3.038-1.224,4.845,4.845,0,0,1-1.112-3.383V13.4a4.79,4.79,0,0,1,1.1-3.312,3.854,3.854,0,0,1,3.03-1.237,3.778,3.778,0,0,1,2.7.959,3.4,3.4,0,0,1,1.033,2.552h-2.25a1.648,1.648,0,0,0-.432-1.139,1.6,1.6,0,0,0-2.362.173,3.541,3.541,0,0,0-.427,1.983v.249a3.586,3.586,0,0,0,.423,2A1.463,1.463,0,0,0,125.466,16.232Zm9.264,1.934a4.409,4.409,0,0,1-3.217-1.212,4.308,4.308,0,0,1-1.241-3.229v-.232a5.426,5.426,0,0,1,.523-2.42,3.838,3.838,0,0,1,1.482-1.644,4.159,4.159,0,0,1,2.187-.577,3.727,3.727,0,0,1,2.9,1.162,4.722,4.722,0,0,1,1.058,3.3v.979H132.7a2.228,2.228,0,0,0,.7,1.411,2.12,2.12,0,0,0,1.482.531,2.589,2.589,0,0,0,2.167-1l1.179,1.32a3.6,3.6,0,0,1-1.461,1.191A4.793,4.793,0,0,1,134.73,18.166Zm-.274-7.379a1.5,1.5,0,0,0-1.158.484,2.5,2.5,0,0,0-.569,1.384h3.337v-.192a1.786,1.786,0,0,0-.432-1.238A1.547,1.547,0,0,0,134.456,10.787Zm10.193,4.731a.773.773,0,0,0-.436-.693,4.95,4.95,0,0,0-1.4-.452q-3.2-.672-3.2-2.723a2.468,2.468,0,0,1,.992-2,4,4,0,0,1,2.594-.8,4.307,4.307,0,0,1,2.735.805,2.538,2.538,0,0,1,1.025,2.092h-2.4a1.161,1.161,0,0,0-.332-.851,1.405,1.405,0,0,0-1.038-.336,1.436,1.436,0,0,0-.938.274.865.865,0,0,0-.332.7.739.739,0,0,0,.378.643,3.885,3.885,0,0,0,1.274.423,10.407,10.407,0,0,1,1.511.4,2.482,2.482,0,0,1,1.9,2.416,2.343,2.343,0,0,1-1.054,1.988,4.548,4.548,0,0,1-2.723.76,4.75,4.75,0,0,1-2-.4,3.363,3.363,0,0,1-1.374-1.1,2.565,2.565,0,0,1-.5-1.515H141.6a1.252,1.252,0,0,0,.473.979,1.877,1.877,0,0,0,1.179.34A1.737,1.737,0,0,0,144.3,16.2.814.814,0,0,0,144.649,15.518Z" transform="translate(1023 1031)" fill="#12263f"/>
    </g>
  </g>
</svg>
