<svg xmlns="http://www.w3.org/2000/svg" xmlns:xlink="http://www.w3.org/1999/xlink" width="128" height="128" viewBox="0 0 128 128">
  <defs>
    <clipPath id="clip-path">
      <rect id="Rectángulo_454829" data-name="Rectángulo 454829" width="128" height="128" fill="#1e535a"/>
    </clipPath>
    <clipPath id="clip-path-2">
      <rect id="Rectángulo_464366" data-name="Rectángulo 464366" width="45.596" height="42.331" fill="#1e535a"/>
    </clipPath>
  </defs>
  <g id="Grupo_1209812" data-name="Grupo 1209812" transform="translate(-186 -4323.945)">
    <g id="Grupo_1177591" data-name="Grupo 1177591" transform="translate(186 4323.945)">
      <g id="Grupo_1177589" data-name="Grupo 1177589" transform="translate(0 0)">
        <g id="Grupo_1177587" data-name="Grupo 1177587" clip-path="url(#clip-path)">
          <path id="Trazado_997422" data-name="Trazado 997422" d="M122.774,56.654a58.848,58.848,0,0,0-13.293-30.623,6.768,6.768,0,0,0-9.523-9.118A58.761,58.761,0,0,0,69.535,5.027a6.769,6.769,0,0,0-13.148.267A58.842,58.842,0,0,0,27.2,17.772a6.771,6.771,0,0,0-9.4,9.462A58.794,58.794,0,0,0,5.483,56.6a6.774,6.774,0,0,0-.162,13.266A58.776,58.776,0,0,0,17.252,99.82a6.771,6.771,0,0,0,9.2,9.56,58.838,58.838,0,0,0,29.883,13.07,6.771,6.771,0,0,0,13.266.267,58.788,58.788,0,0,0,30.646-12.107,6.769,6.769,0,0,0,9.476-9.165A58.863,58.863,0,0,0,122.933,69.8a6.771,6.771,0,0,0-.159-13.144m-19.12-27.288a6.733,6.733,0,0,0,3.75-1.135,55.884,55.884,0,0,1,12.333,28.407,6.781,6.781,0,0,0-4.327,3.135L98.1,53.283c.013-.189.027-.382.027-.578a6.772,6.772,0,0,0-2.868-5.533l7.57-17.86a7.335,7.335,0,0,0,.821.054M100,28.288,92.472,46.03a6.7,6.7,0,0,0-7.459,4.307L53.705,43.125a6.588,6.588,0,0,0-.142-1.348L97.992,26.305a6.793,6.793,0,0,0,2,1.983M63,13.553a6.777,6.777,0,0,0,6.651-5.5A55.792,55.792,0,0,1,97.857,19.09a6.739,6.739,0,0,0-.98,3.5,7.114,7.114,0,0,0,.064.9L52.29,39.031A6.8,6.8,0,0,0,51.064,37.8L62.775,13.543c.074,0,.145.01.22.01M56.4,8.324a6.778,6.778,0,0,0,3.409,4.435L48.331,36.538a6.8,6.8,0,0,0-1.4-.145,6.727,6.727,0,0,0-3.861,1.213L29.461,26.238A6.736,6.736,0,0,0,29.231,20,55.836,55.836,0,0,1,56.4,8.324M13.387,61.776l28.15-14.519a6.751,6.751,0,0,0,5.341,2.686l9.648,30.839a6.887,6.887,0,0,0-1.493,1.652L13.3,65.046a6.731,6.731,0,0,0,.25-1.8,6.81,6.81,0,0,0-.166-1.473m6.648-32.521a6.771,6.771,0,0,0,7.564-.645L41.037,39.831a6.758,6.758,0,0,0-.747,4.682l-28.2,14.539A6.774,6.774,0,0,0,8.506,56.7,55.812,55.812,0,0,1,20.036,29.254m2.8,67.623a6.756,6.756,0,0,0-3.365.9A55.762,55.762,0,0,1,8.351,69.832a6.783,6.783,0,0,0,3.517-2.121L54.013,85.27a7.266,7.266,0,0,0-.054.814,6.775,6.775,0,0,0,.405,2.29L28.876,100.587a6.775,6.775,0,0,0-6.037-3.709m33.626,22.556a55.892,55.892,0,0,1-27.883-12.2,6.705,6.705,0,0,0,1.034-3.581l0-.078L56,90.929a6.776,6.776,0,0,0,2.392,1.51l1.581,22.725a6.776,6.776,0,0,0-3.51,4.27m2.807-39.96L49.831,49.287a6.786,6.786,0,0,0,3.219-3.219l31.562,7.266a6.736,6.736,0,0,0,1.078,3.081L64.042,80.173a6.692,6.692,0,0,0-4.77-.7M69.592,119.7a6.774,6.774,0,0,0-6.6-5.25l-.051,0-1.5-21.623a6.764,6.764,0,0,0,4.142-2.01l31.555,13.918c0,.061-.01.115-.01.176a6.743,6.743,0,0,0,1,3.534A55.789,55.789,0,0,1,69.592,119.7M97.9,101.779,67.164,88.22a6.736,6.736,0,0,0-.888-6.027L87.858,58.5a6.736,6.736,0,0,0,3.5.98,7.46,7.46,0,0,0,.831-.054l8.067,39.781a6.761,6.761,0,0,0-2.355,2.571m9.722-2.534a6.735,6.735,0,0,0-4.5-1.064l-8.07-39.8a6.8,6.8,0,0,0,2.135-2.23l17.3,6.486a6.009,6.009,0,0,0-.03.608,6.774,6.774,0,0,0,5.445,6.641A55.835,55.835,0,0,1,107.62,99.246" transform="translate(0 0.001)" fill="#1e535a"/>
        </g>
      </g>
    </g>
    <g id="Elipse_13614" data-name="Elipse 13614" transform="translate(210.273 4348.213)" fill="#fff" stroke="#1e535a" stroke-width="3">
      <ellipse cx="39.732" cy="39.733" rx="39.732" ry="39.733" stroke="none"/>
      <ellipse cx="39.732" cy="39.733" rx="38.232" ry="38.233" fill="none"/>
    </g>
    <g id="Grupo_1211506" data-name="Grupo 1211506" transform="translate(229.207 4366.78)">
      <g id="Grupo_1211505" data-name="Grupo 1211505" clip-path="url(#clip-path-2)">
        <path id="Trazado_1274050" data-name="Trazado 1274050" d="M195.711,106.02h-19.46V94.7h19.46Zm-10.13-3.192,1.98-4.447a.641.641,0,0,0-.333-.892.665.665,0,0,0-.828.323l-2.04,4.606a.625.625,0,0,0,.375.811.691.691,0,0,0,.846-.4m-2.262-.959-2.527-1.481c.641-.775,3.611-1.483,2.716-2.56a.694.694,0,0,0-.756-.137l-3.692,2.116a.675.675,0,0,0-.294.569.629.629,0,0,0,.288.508L182.7,103a.644.644,0,0,0,.888-.252.635.635,0,0,0-.27-.881m5.981,1.087,3.4-1.967a.689.689,0,0,0,.417-.589.718.718,0,0,0-.353-.649l-3.587-2.044a.634.634,0,0,0-.654,1.086l2.593,1.551c-.813.8-3.4,1.42-2.777,2.438a.67.67,0,0,0,.956.174" transform="translate(-150.115 -80.655)" fill="#1e535a"/>
        <path id="Trazado_1274051" data-name="Trazado 1274051" d="M21.371,46.326a.763.763,0,0,1-.188-.871c.339-.739,2.317-.121,2.533-2.11a12.186,12.186,0,0,0,.011-2.182c-.162-2.247-2.712-1.405-2.547-2.356l14.407.034a1.915,1.915,0,0,1,1.8,1.985,28.786,28.786,0,0,1-.066,3.028l-2.669-2.312a1.27,1.27,0,0,0-.822-.332l-7.653.012a1.24,1.24,0,0,0-1.244,1.268l0,15.855c-.046.508.262.789.491,1.243L.09,59.594.1,41.481a2.7,2.7,0,0,1,2.6-2.672l2.67.024c.207.845-2.556.157-2.559,2.464l0,1.791c0,2.1,2.2,1.793,2.481,2.237a.763.763,0,0,1-.037.909,1.924,1.924,0,0,0,.005,2.756L6.6,50.311a1.855,1.855,0,0,0,2.646-.082.815.815,0,0,1,.765-.116c.722.161.084,2.571,2.486,2.56l1.755-.009a1.871,1.871,0,0,0,1.84-1.863.739.739,0,0,1,.415-.671.776.776,0,0,1,.823.132,1.889,1.889,0,0,0,2.662.019l1.274-1.263a1.942,1.942,0,0,0,.105-2.693" transform="translate(-0.077 -33.052)" fill="#1e535a"/>
        <path id="Trazado_1274052" data-name="Trazado 1274052" d="M37.276,18.32c-.615.013-1.178.022-1.789-.014-1.056-.063-.1-1.694-1.787-2.431-1.878-.82-2.311,1.225-3.2.328l-1.173-1.176c-.839-.842,1.138-1.217.393-3.1-.7-1.77-2.461-.768-2.46-1.912V8.3c0-1.153,1.652-.147,2.413-1.811.881-1.927-1.2-2.35-.337-3.211l1.193-1.193c.868-.868,1.31,1.2,3.208.336,1.658-.756.71-2.416,1.77-2.419L37.256,0c1.188,0,.137,1.6,1.807,2.411,1.865.9,2.387-1.161,3.211-.343l1.188,1.181c.892.887-1.179,1.352-.324,3.219.777,1.7,2.378.7,2.429,1.786.028.605.019,1.169,0,1.777-.026,1.115-1.661.129-2.436,1.828-.85,1.862,1.207,2.326.343,3.188l-1.192,1.19c-.821.819-1.291-1.135-3.121-.377-1.775.736-.726,2.436-1.89,2.461m3.53-9.16a4.394,4.394,0,1,0-4.394,4.394A4.394,4.394,0,0,0,40.807,9.16" transform="translate(-23.214 0)" fill="#1e535a"/>
        <path id="Trazado_1274053" data-name="Trazado 1274053" d="M34.7,192.541H2.678A2.693,2.693,0,0,1,.03,189.918a9.3,9.3,0,0,1,.054-2.057l37.184,0a12.92,12.92,0,0,1-.011,2.451,2.629,2.629,0,0,1-2.559,2.227m-14.635-2.031a.633.633,0,0,0,.7-.686.622.622,0,0,0-.652-.609l-2.929.007a.644.644,0,0,0-.623.738.679.679,0,0,0,.746.545Z" transform="translate(0 -160.002)" fill="#1e535a"/>
        <path id="Trazado_1274054" data-name="Trazado 1274054" d="M75.429,266.567l-17.5.031a1.686,1.686,0,0,1-1.729-1.572,1.6,1.6,0,0,1,1.575-1.7l17.333-.013a1.654,1.654,0,0,1,1.767,1.49,1.622,1.622,0,0,1-1.446,1.763" transform="translate(-47.865 -224.267)" fill="#1e535a"/>
        <path id="Trazado_1274055" data-name="Trazado 1274055" d="M99.574,232.174l-11.115.019a19.993,19.993,0,0,0,.693-3.905l9.624.007a20.218,20.218,0,0,0,.8,3.88" transform="translate(-75.342 -194.435)" fill="#1e535a"/>
        <path id="Trazado_1274056" data-name="Trazado 1274056" d="M187.515,66.833l-11.17.052-.012-3.284,7.51-.034Z" transform="translate(-150.186 -54.141)" fill="#1e535a"/>
      </g>
    </g>
  </g>
</svg>
