<svg xmlns="http://www.w3.org/2000/svg" xmlns:xlink="http://www.w3.org/1999/xlink" width="85" height="85" viewBox="0 0 85 85">
  <defs>
    <clipPath id="clip-path">
      <rect id="Rectángulo_464339" data-name="Rectángulo 464339" width="61.5" height="57.4" fill="#344866"/>
    </clipPath>
  </defs>
  <g id="Grupo_1211029" data-name="Grupo 1211029" transform="translate(-179.734 -5520.402)">
    <rect id="Rectángulo_402006" data-name="Rectángulo 402006" width="85" height="85" rx="5" transform="translate(179.734 5520.402)" fill="#69d7e5"/>
    <g id="Grupo_1211475" data-name="Grupo 1211475" transform="translate(191.484 5533.402)">
      <g id="Grupo_1211474" data-name="Grupo 1211474" transform="translate(0.25 1)" clip-path="url(#clip-path)">
        <path id="Trazado_1273942" data-name="Trazado 1273942" d="M91.837,91.889l-44.831.019a4.118,4.118,0,0,1-4.32-4.142L42.7,46.691a4.044,4.044,0,0,1,4.148-3.972l45,0a4.077,4.077,0,0,1,4.133,4.156L95.977,87.77a4.045,4.045,0,0,1-4.139,4.118m-.026-2a2.056,2.056,0,0,0,2.112-2.114l0-40.895a2.07,2.07,0,0,0-2.2-2.131l-44.913.006a2.074,2.074,0,0,0-2.083,2.014l.006,40.959A2.13,2.13,0,0,0,47.013,89.9Z" transform="translate(-34.482 -34.508)" fill="#344866"/>
        <path id="Trazado_1273943" data-name="Trazado 1273943" d="M2.075,4.011,2.057,44.987a2.057,2.057,0,0,0,2.17,2.159,13.505,13.505,0,0,1,1.9.035,11.044,11.044,0,0,1-.011,2.036,10.8,10.8,0,0,1-3.043-.168A4.076,4.076,0,0,1,0,45L0,4.3A4.135,4.135,0,0,1,4.262,0l44.92.007a4.062,4.062,0,0,1,4.033,3.338,10.749,10.749,0,0,1,.043,2.786,8.366,8.366,0,0,1-1.937,0c-.152-.749-.006-1.417-.088-2.178a2.073,2.073,0,0,0-2.1-1.918L4.1,2.043A2,2,0,0,0,2.075,4.011" transform="translate(0 0)" fill="#344866"/>
        <rect id="Rectángulo_464332" data-name="Rectángulo 464332" width="2.078" height="2.076" transform="translate(4.082 4.096)" fill="#344866"/>
        <path id="Trazado_1273944" data-name="Trazado 1273944" d="M66.011,23.238a6.67,6.67,0,0,1-1.982.068,16.5,16.5,0,0,1-.037-1.926A4.779,4.779,0,0,1,66,21.343a10.636,10.636,0,0,1,.013,1.895" transform="translate(-51.685 -17.17)" fill="#344866"/>
        <rect id="Rectángulo_464333" data-name="Rectángulo 464333" width="2.054" height="2.07" transform="translate(8.196 4.102)" fill="#344866"/>
        <rect id="Rectángulo_464334" data-name="Rectángulo 464334" width="45.12" height="2.102" transform="translate(12.305 16.385)" fill="#344866"/>
        <path id="Trazado_1273945" data-name="Trazado 1273945" d="M72.118,114.107l-8.116,0a9.865,9.865,0,0,1,0-2.007l8.061,0a5.4,5.4,0,0,1,.051,2.007" transform="translate(-51.661 -90.554)" fill="#344866"/>
        <rect id="Rectángulo_464335" data-name="Rectángulo 464335" width="6.144" height="2.057" transform="translate(12.305 25.616)" fill="#344866"/>
        <rect id="Rectángulo_464336" data-name="Rectángulo 464336" width="6.17" height="2.037" transform="translate(51.257 51.254)" fill="#344866"/>
        <path id="Trazado_1273946" data-name="Trazado 1273946" d="M66.01,65.864a4.637,4.637,0,0,1-2.015.01A9.854,9.854,0,0,1,64,63.963a6.276,6.276,0,0,1,1.965,0,13.8,13.8,0,0,1,.041,1.9" transform="translate(-51.661 -51.606)" fill="#344866"/>
        <rect id="Rectángulo_464337" data-name="Rectángulo 464337" width="2.046" height="2.055" transform="translate(16.404 12.295)" fill="#344866"/>
        <rect id="Rectángulo_464338" data-name="Rectángulo 464338" width="2.054" height="2.055" transform="translate(20.505 12.295)" fill="#344866"/>
        <path id="Trazado_1273947" data-name="Trazado 1273947" d="M115.431,139.461l-5.985,0a1.079,1.079,0,0,1-1.155-1.15l-.016-2.524-1.929-.807c-1.047.654-2.2,3.052-3.463,1.789l-4.2-4.206c-1.246-1.249,1.2-2.429,1.783-3.45l-.747-1.885c-1.165-.351-3.739.63-3.737-1.208l.005-5.959c0-1.743,2.712-.833,3.758-1.171a17.536,17.536,0,0,0,.716-1.906c-.729-1.075-3.011-2.161-1.744-3.431l4.123-4.132a1.1,1.1,0,0,1,1.577-.1l1.916,1.866,1.9-.784c.292-1.067-.556-3.711,1.08-3.714l6.056-.011c1.783,0,.831,2.622,1.179,3.723l1.9.761,1.944-1.875a1.058,1.058,0,0,1,1.461.061L126,113.474a1.144,1.144,0,0,1,.163,1.607l-1.869,1.931.757,1.871c1,.357,3.734-.573,3.731,1.194l-.009,6.041c0,1.677-2.545.807-3.7,1.087a15.272,15.272,0,0,0-.761,1.984l1.822,1.851a1.06,1.06,0,0,1,0,1.47l-4.215,4.233c-1.285,1.29-2.312-.972-3.45-1.757a14.237,14.237,0,0,0-1.962.817l-.03,2.674a1,1,0,0,1-1.045.985m-1.024-2.042c.259-1.456-.487-3.05.88-3.463,1.933-.585,3.3-1.733,4-1.054l1.779,1.727,2.862-2.838c-.746-1.131-2.519-1.818-1.785-3.113a12.553,12.553,0,0,0,1.116-2.7c.418-1.418,2.188-.578,3.464-.929l-.006-3.966c-1.255-.219-3.037.475-3.438-.869a14.26,14.26,0,0,0-1.18-2.844c-.625-1.138,1.083-1.933,1.835-2.974l-2.793-2.868c-1.094.632-1.829,2.553-3.193,1.777a11.8,11.8,0,0,0-2.617-1.082c-1.414-.408-.7-2.111-.911-3.487l-4-.02c-.339,1.242.506,3.068-.944,3.483-1.951.559-3.253,1.744-3.979,1.055l-1.825-1.73-2.831,2.818a11.267,11.267,0,0,0,1.456,1.511c1.17,1.079-.1,1.857-.789,4.314-.407,1.458-2.381.619-3.461.969l.028,3.924c1.3.336,3.033-.5,3.452.959a12.364,12.364,0,0,0,1.08,2.607c.761,1.383-1.081,2.09-1.762,3.188l2.856,2.806,1.848-1.756c.635-.6,2.094.553,3.873,1.065,1.489.428.7,2.049.969,3.465Z" transform="translate(-77.537 -86.174)" fill="#344866"/>
        <path id="Trazado_1273948" data-name="Trazado 1273948" d="M158.368,161.868a7.17,7.17,0,1,1-7.17-7.17,7.17,7.17,0,0,1,7.17,7.17m-2.064,0a5.105,5.105,0,1,0-5.105,5.105,5.105,5.105,0,0,0,5.105-5.105" transform="translate(-116.347 -124.965)" fill="#344866"/>
      </g>
    </g>
  </g>
</svg>
