<svg xmlns="http://www.w3.org/2000/svg" xmlns:xlink="http://www.w3.org/1999/xlink" width="128" height="128" viewBox="0 0 128 128">
  <defs>
    <clipPath id="clip-path">
      <rect id="Rectángulo_454829" data-name="Rectángulo 454829" width="128" height="128" fill="#1e535a"/>
    </clipPath>
    <clipPath id="clip-path-2">
      <rect id="Rectángulo_464370" data-name="Rectángulo 464370" width="49.977" height="49.977" fill="#1e535a"/>
    </clipPath>
  </defs>
  <g id="Grupo_1209817" data-name="Grupo 1209817" transform="translate(-186 -4323.945)">
    <g id="Grupo_1177591" data-name="Grupo 1177591" transform="translate(186 4323.945)">
      <g id="Grupo_1177589" data-name="Grupo 1177589" transform="translate(0 0)">
        <g id="Grupo_1177587" data-name="Grupo 1177587" clip-path="url(#clip-path)">
          <path id="Trazado_997422" data-name="Trazado 997422" d="M122.774,56.654a58.848,58.848,0,0,0-13.293-30.623,6.768,6.768,0,0,0-9.523-9.118A58.761,58.761,0,0,0,69.535,5.027a6.769,6.769,0,0,0-13.148.267A58.842,58.842,0,0,0,27.2,17.772a6.771,6.771,0,0,0-9.4,9.462A58.794,58.794,0,0,0,5.483,56.6a6.774,6.774,0,0,0-.162,13.266A58.776,58.776,0,0,0,17.252,99.82a6.771,6.771,0,0,0,9.2,9.56,58.838,58.838,0,0,0,29.883,13.07,6.771,6.771,0,0,0,13.266.267,58.788,58.788,0,0,0,30.646-12.107,6.769,6.769,0,0,0,9.476-9.165A58.863,58.863,0,0,0,122.933,69.8a6.771,6.771,0,0,0-.159-13.144m-19.12-27.288a6.733,6.733,0,0,0,3.75-1.135,55.884,55.884,0,0,1,12.333,28.407,6.781,6.781,0,0,0-4.327,3.135L98.1,53.283c.013-.189.027-.382.027-.578a6.772,6.772,0,0,0-2.868-5.533l7.57-17.86a7.335,7.335,0,0,0,.821.054M100,28.288,92.472,46.03a6.7,6.7,0,0,0-7.459,4.307L53.705,43.125a6.588,6.588,0,0,0-.142-1.348L97.992,26.305a6.793,6.793,0,0,0,2,1.983M63,13.553a6.777,6.777,0,0,0,6.651-5.5A55.792,55.792,0,0,1,97.857,19.09a6.739,6.739,0,0,0-.98,3.5,7.114,7.114,0,0,0,.064.9L52.29,39.031A6.8,6.8,0,0,0,51.064,37.8L62.775,13.543c.074,0,.145.01.22.01M56.4,8.324a6.778,6.778,0,0,0,3.409,4.435L48.331,36.538a6.8,6.8,0,0,0-1.4-.145,6.727,6.727,0,0,0-3.861,1.213L29.461,26.238A6.736,6.736,0,0,0,29.231,20,55.836,55.836,0,0,1,56.4,8.324M13.387,61.776l28.15-14.519a6.751,6.751,0,0,0,5.341,2.686l9.648,30.839a6.887,6.887,0,0,0-1.493,1.652L13.3,65.046a6.731,6.731,0,0,0,.25-1.8,6.81,6.81,0,0,0-.166-1.473m6.648-32.521a6.771,6.771,0,0,0,7.564-.645L41.037,39.831a6.758,6.758,0,0,0-.747,4.682l-28.2,14.539A6.774,6.774,0,0,0,8.506,56.7,55.812,55.812,0,0,1,20.036,29.254m2.8,67.623a6.756,6.756,0,0,0-3.365.9A55.762,55.762,0,0,1,8.351,69.832a6.783,6.783,0,0,0,3.517-2.121L54.013,85.27a7.266,7.266,0,0,0-.054.814,6.775,6.775,0,0,0,.405,2.29L28.876,100.587a6.775,6.775,0,0,0-6.037-3.709m33.626,22.556a55.892,55.892,0,0,1-27.883-12.2,6.705,6.705,0,0,0,1.034-3.581l0-.078L56,90.929a6.776,6.776,0,0,0,2.392,1.51l1.581,22.725a6.776,6.776,0,0,0-3.51,4.27m2.807-39.96L49.831,49.287a6.786,6.786,0,0,0,3.219-3.219l31.562,7.266a6.736,6.736,0,0,0,1.078,3.081L64.042,80.173a6.692,6.692,0,0,0-4.77-.7M69.592,119.7a6.774,6.774,0,0,0-6.6-5.25l-.051,0-1.5-21.623a6.764,6.764,0,0,0,4.142-2.01l31.555,13.918c0,.061-.01.115-.01.176a6.743,6.743,0,0,0,1,3.534A55.789,55.789,0,0,1,69.592,119.7M97.9,101.779,67.164,88.22a6.736,6.736,0,0,0-.888-6.027L87.858,58.5a6.736,6.736,0,0,0,3.5.98,7.46,7.46,0,0,0,.831-.054l8.067,39.781a6.761,6.761,0,0,0-2.355,2.571m9.722-2.534a6.735,6.735,0,0,0-4.5-1.064l-8.07-39.8a6.8,6.8,0,0,0,2.135-2.23l17.3,6.486a6.009,6.009,0,0,0-.03.608,6.774,6.774,0,0,0,5.445,6.641A55.835,55.835,0,0,1,107.62,99.246" transform="translate(0 0.001)" fill="#1e535a"/>
        </g>
      </g>
    </g>
    <g id="Elipse_13614" data-name="Elipse 13614" transform="translate(210.273 4348.213)" fill="#fff" stroke="#1e535a" stroke-width="3">
      <ellipse cx="39.732" cy="39.733" rx="39.732" ry="39.733" stroke="none"/>
      <ellipse cx="39.732" cy="39.733" rx="38.232" ry="38.233" fill="none"/>
    </g>
    <g id="Grupo_1211515" data-name="Grupo 1211515" transform="translate(225.012 4362.958)">
      <g id="Grupo_1211514" data-name="Grupo 1211514" clip-path="url(#clip-path-2)">
        <path id="Trazado_1274065" data-name="Trazado 1274065" d="M28.663,49.967l-7.27.01a1.144,1.144,0,0,1-1.155-.836l-.665-3.914a22.2,22.2,0,0,1-5.06-2.1l-3.07,2.2a1.183,1.183,0,0,1-1.555-.1L4.752,40.085a1.17,1.17,0,0,1-.162-1.46l2.255-3.164a22.129,22.129,0,0,1-2.1-5.068L1.1,29.811A1.215,1.215,0,0,1,0,28.579V21.391a1.218,1.218,0,0,1,1.092-1.227l3.655-.585a22.027,22.027,0,0,1,2.1-5.069l-2.2-3.072a1.2,1.2,0,0,1,.11-1.552L9.888,4.753a1.212,1.212,0,0,1,1.551-.11l3.076,2.2a21.521,21.521,0,0,1,5.059-2.092L20.2.956A1.157,1.157,0,0,1,21.395,0l7.188,0a1.161,1.161,0,0,1,1.2.956l.624,3.8a21.349,21.349,0,0,1,5.062,2.093L38.444,4.7a1.243,1.243,0,0,1,1.645.052L45.155,9.8a1.242,1.242,0,0,1,.178,1.636l-2.2,3.07a22.145,22.145,0,0,1,2.1,5.068l3.779.614a1.174,1.174,0,0,1,.968,1.2V28.58a1.161,1.161,0,0,1-.959,1.2l-3.788.618a22.214,22.214,0,0,1-2.1,5.066l2.205,3.074a1.208,1.208,0,0,1-.11,1.551l-5.056,5.067a1.211,1.211,0,0,1-1.539.232l-3.169-2.256a22.013,22.013,0,0,1-5.059,2.1l-.626,3.793a1.14,1.14,0,0,1-1.114.947M37.8,24.986A12.808,12.808,0,1,0,24.988,37.794,12.808,12.808,0,0,0,37.8,24.986" transform="translate(0 0)" fill="#1e535a"/>
        <path id="Trazado_1274066" data-name="Trazado 1274066" d="M111.583,99.836a1.278,1.278,0,0,0-1.56-1.153l-3.217.356a1.467,1.467,0,0,0-1.178.628,1.277,1.277,0,0,0,.174,1.423c.384.43.916.35,1.639.42l-4.14,5.04-4.358-5.226a1.17,1.17,0,0,0-1.766-.04l-3.734,4.46a10.417,10.417,0,1,1,.948,2.611l3.652-4.386,4.375,5.244a1.176,1.176,0,0,0,1.834-.094l5.252-6.263c.2.806.056,1.274.529,1.637a1.281,1.281,0,0,0,1.409.076,1.322,1.322,0,0,0,.523-1.255Z" transform="translate(-78.633 -78.52)" fill="#1e535a"/>
      </g>
    </g>
  </g>
</svg>
