<svg xmlns="http://www.w3.org/2000/svg" xmlns:xlink="http://www.w3.org/1999/xlink" width="85" height="85" viewBox="0 0 85 85">
  <defs>
    <clipPath id="clip-path">
      <rect id="Rectángulo_464302" data-name="Rectángulo 464302" width="62.432" height="62.079" fill="#344866"/>
    </clipPath>
  </defs>
  <g id="Grupo_1211608" data-name="Grupo 1211608" transform="translate(-602 -2506.789)">
    <g id="Grupo_1209831" data-name="Grupo 1209831" transform="translate(422.266 -3014.053)">
      <rect id="Rectángulo_402006" data-name="Rectángulo 402006" width="85" height="85" rx="5" transform="translate(179.734 5520.842)" fill="#69d7e5"/>
      <g id="Grupo_1211460" data-name="Grupo 1211460" transform="translate(191.018 5532.302)">
        <g id="Grupo_1211459" data-name="Grupo 1211459" clip-path="url(#clip-path)">
          <path id="Trazado_1273886" data-name="Trazado 1273886" d="M33.9,96.77l.041,13.158a1.749,1.749,0,0,1-1.774,1.773H1.78A1.731,1.731,0,0,1,0,109.93L.025,96.862C.031,93.545,2.91,91.8,5.588,90.787l4.349-1.639c.938-.353,2.438-2.035,1.67-3.195-1.05-1.587-2.668-2.832-2.938-5.057-1.817.444-3.763-.4-3.959-2.194-.277-2.544-.018-5.036-.1-7.6-.2-5.943,5.308-9.44,10.923-9.444l7.413-.006a1.752,1.752,0,0,1,1.512.935c.62,1.32-.379,1.863-.8,2.8,3.35.266,5.608,2.218,5.614,5.714l.012,7.036c0,2.327-2.058,2.97-4.156,2.956-.195,1.983-1.737,3.26-2.762,4.738-.832,1.2.588,2.927,1.646,3.324l4.2,1.576c2.561.96,5.676,2.711,5.686,6.04M19.728,70.192c2.079,1.676,3.487-.464,5.42,2.718l2.187.067a7.567,7.567,0,0,0-.591-4.019c-1.317-2.366-4.61-.808-5.262-2.881-.264-.84.162-1.393.845-2.391-2.654-.058-5.225-.09-7.9.01a9.564,9.564,0,0,0-4.658,1.542C6.815,67.074,6.3,69.763,6.608,73.019l2.164-.151c1.87-3.1,3.262-.983,5.461-2.725a4.244,4.244,0,0,1,5.495.049M16.87,85.542A6.292,6.292,0,0,0,23.431,79.3V74.215a1.331,1.331,0,0,0-1.39-1.311,5.13,5.13,0,0,1-3.544-1.19c-2.521-2-3.138,1.381-6.6,1.182a1.3,1.3,0,0,0-1.428,1.323l.013,5.282a6.215,6.215,0,0,0,6.393,6.041M8.428,78.807a19.036,19.036,0,0,0,.012-3.737c-.236-.365-1.534-.288-1.689.206a6,6,0,0,0,0,3.362c.146.479,1.549.6,1.679.169m18.76-.265a6.292,6.292,0,0,0-.021-3.226c-.161-.519-1.429-.622-1.708-.251a19.069,19.069,0,0,0,.022,3.858c.38.3,1.565.208,1.707-.381M20.2,87.873c.236-.241.116-.84-.113-.912a10.1,10.1,0,0,1-6.241.051c-.243-.058-.268.737-.074.936l3.171,3.246Zm-7.946,6.506L14.9,91.966l-2.219-2.351c-.333.231-1.021.55-.979.994a17.72,17.72,0,0,0,.544,3.77m9.489.009.547-3.8c-.2-.382-.714-.977-1.093-.891a24.953,24.953,0,0,0-2.164,2.263,29.32,29.32,0,0,0,2.709,2.432m-9.714,15.328a8.482,8.482,0,0,1-.109-1.536l2.073-9.933c.008-.651-.568-1.32-.746-1.943-.819.409-1.218,1.59-2.326,1.088a1.008,1.008,0,0,1-.48-.8l-.669-5.241c-3.24,1.335-7.844,1.9-7.834,6.089l.031,12.289,5-.007.06-5.458c.007-.593.588-.79,1.044-.757a.941.941,0,0,1,.857.959l.045,5.248Zm12.946-.021L25,104.474a.954.954,0,0,1,1.048-.973c.623.029.892.482.9,1.155l.034,5.081,5-.007L32,97.447c.007-4.18-4.624-4.759-7.831-6.1l-.7,5.348a.951.951,0,0,1-.6.751c-1.077.334-1.369-.8-2.191-1.126-.176.616-.86,1.354-.713,2.062l2.01,9.628c.128.613-.143,1.17,0,1.728ZM18.29,97.033l.821-2.274-2.139-2-2.184,2.03c.354.694.458,1.734,1.013,2.226a5.469,5.469,0,0,0,2.489.02m1.6,12.69a4.84,4.84,0,0,0-.043-2.446l-1.784-8.149a10.682,10.682,0,0,0-2.2,0L13.9,108.212a2.939,2.939,0,0,0,.207,1.523Z" transform="translate(0 -49.623)" fill="#344866"/>
          <path id="Trazado_1273887" data-name="Trazado 1273887" d="M162.37,35.3a3.051,3.051,0,0,1,1.962,2.667,2.921,2.921,0,0,1-1.986,2.833c-.227.086-.242.531-.217.767a3.019,3.019,0,0,1-2.911,3.483l-4.85.039a3.64,3.64,0,0,1-2.574-1.07c-.839-.784-.612-2.087-.816-3.012-.95-.737-2.068-1.365-2.1-2.688a3.023,3.023,0,0,1,1.939-3c-.7-2.365-3.051-3.532-4.284-6.17a11.06,11.06,0,0,1-.06-8.874l-4.585-2.688a1.1,1.1,0,0,1-.589-.993l-.027-6.2a3.41,3.41,0,0,1-2.3-3.653,3.326,3.326,0,0,1,6.565-.175,3.37,3.37,0,0,1-2.277,3.824l.006,5.748,4.193,2.378a11.381,11.381,0,0,1,3.57-3.35l.009-8.652a3.321,3.321,0,1,1,1.97.007v7.724a11.023,11.023,0,0,1,7.123-.016l.042-7.717a3.334,3.334,0,1,1,4.27-3.819,3.38,3.38,0,0,1-2.27,3.838l-.016,8.63a11.456,11.456,0,0,1,3.59,3.349l4.16-2.348.006-5.774a3.406,3.406,0,0,1-2.28-3.653,3.329,3.329,0,0,1,6.574-.141,3.4,3.4,0,0,1-2.274,3.8l-.035,6.2a1.022,1.022,0,0,1-.432.9l-4.732,2.776a11.023,11.023,0,0,1-.037,8.836c-1.24,2.671-3.43,3.678-4.325,6.193M153.389,3.328a1.367,1.367,0,1,0-1.367,1.367,1.367,1.367,0,0,0,1.367-1.367m9.152,0a1.365,1.365,0,1,0-1.365,1.365,1.365,1.365,0,0,0,1.365-1.365M143.633,7.186a1.366,1.366,0,1,0-1.365,1.365,1.365,1.365,0,0,0,1.365-1.365m28.666,0a1.367,1.367,0,1,0-1.368,1.368A1.368,1.368,0,0,0,172.3,7.186M157.693,26.175a2.7,2.7,0,1,1,5.34-.243,2.791,2.791,0,0,1-3.419,2.365l.06,6.778c0,.223.732.111.78-.105.611-2.747,3.307-4.29,4.386-6.538a9.058,9.058,0,1,0-16.479-.009c1.06,2.216,3.675,3.726,4.345,6.381a.476.476,0,0,0,.39.388c.131,0,.5-.009.5-.266l-.063-6.642a2.736,2.736,0,0,1-3.371-2.632,2.68,2.68,0,0,1,2.954-2.676,2.786,2.786,0,0,1,2.413,3.357c.777-.045,1.514.259,2.168-.157m-4.217.063c.243-.138.118-.736-.009-.956a.739.739,0,0,0-1.157-.11.688.688,0,0,0-.067.868.929.929,0,0,0,1.233.2m6.632.14c.638.029.957-.26.966-.706a.676.676,0,0,0-.761-.723c-.385.013-.691.268-.694.834a1.07,1.07,0,0,0,.034.437c.049.108.18.146.455.159m-2.449,1.936H155.54v6.871h2.119Zm3.972,10.681a.966.966,0,0,0,.691-1.177.977.977,0,0,0-.944-.675h-9.544a.924.924,0,1,0,0,1.845Zm-2.176,4.02c.792-.092.927-1.458.572-2.013l-6.807-.012c-.543.455-.222,2,.606,2.057a29.953,29.953,0,0,0,5.629-.032" transform="translate(-111.831 0)" fill="#344866"/>
        </g>
      </g>
    </g>
  </g>
</svg>
