<svg xmlns="http://www.w3.org/2000/svg" xmlns:xlink="http://www.w3.org/1999/xlink" width="500" height="316" viewBox="0 0 500 316">
  <defs>
    <clipPath id="clip-path">
      <rect id="Rectángulo_464276" data-name="Rectángulo 464276" width="385.265" height="315.783" fill="none"/>
    </clipPath>
  </defs>
  <g id="Grupo_1211428" data-name="Grupo 1211428" transform="translate(-914 -4003)">
    <rect id="Rectángulo_460757" data-name="Rectángulo 460757" width="500" height="316" transform="translate(914 4003)" fill="none"/>
    <g id="Grupo_1211427" data-name="Grupo 1211427" transform="translate(971 4003)">
      <g id="Grupo_1211426" data-name="Grupo 1211426" clip-path="url(#clip-path)">
        <path id="Trazado_1273672" data-name="Trazado 1273672" d="M87.292,109.119a104.725,104.725,0,0,0,74.028-46.94C180.345,32.686,216.813.7,284.7,5.526c122.529,8.72,143.043,210.371,5.8,283.4S-4.8,271.971.112,182.349c2.8-51.034,48.415-68.044,87.181-73.23" transform="translate(0 0.077)" fill="#fff7df"/>
        <path id="Trazado_1273673" data-name="Trazado 1273673" d="M2.67,204.4c8.906,33.724,39.121,65.323,80.419,85.708l260.384-46.021,0,0a176.809,176.809,0,0,0,38.913-82.772Z" transform="translate(0.041 2.464)" fill="#ffd453"/>
        <path id="Trazado_1273674" data-name="Trazado 1273674" d="M82.784,289.327l259.488-46.465c.34-.4.671-.807,1.007-1.211L81.253,288.57c.51.254,1.018.508,1.531.757" transform="translate(1.241 3.691)" fill="#8b9295"/>
        <path id="Trazado_1273675" data-name="Trazado 1273675" d="M105.685,47.613l-15.08-6.674v-4.79l15.08-6.674v5.407l-8.9,3.647,8.9,3.677Z" transform="translate(1.384 0.45)" fill="#c4c4c4"/>
        <path id="Trazado_1273676" data-name="Trazado 1273676" d="M106.98,48.2,114.21,27.74h5.964L112.944,48.2Z" transform="translate(1.634 0.424)" fill="#c4c4c4"/>
        <path id="Trazado_1273677" data-name="Trazado 1273677" d="M121.5,47.613V42.205l8.9-3.677-8.9-3.647V29.474l15.08,6.674v4.79Z" transform="translate(1.856 0.45)" fill="#c4c4c4"/>
        <path id="Trazado_1273678" data-name="Trazado 1273678" d="M323.216,80.852q-4.657.056-7.129-2.2a8.416,8.416,0,0,1-2.527-6.437,8.745,8.745,0,0,1,2.316-6.639q2.365-2.33,7.1-2.387a15.14,15.14,0,0,1,2.849.205,14.852,14.852,0,0,1,2.4.636l.053,4.363a11.984,11.984,0,0,0-4.908-.952,5.082,5.082,0,0,0-3.578,1.148,4.687,4.687,0,0,0-1.128,3.566,4.3,4.3,0,0,0,1.278,3.431,5.384,5.384,0,0,0,3.591,1.007,12.867,12.867,0,0,0,2.485-.269,12.3,12.3,0,0,0,2.4-.775l.053,4.391a15.842,15.842,0,0,1-2.4.653,16.424,16.424,0,0,1-2.857.26" transform="translate(4.79 0.965)" fill="#c4c4c4"/>
        <path id="Trazado_1273679" data-name="Trazado 1273679" d="M333,77.95l-.039-3.193L329.5,74.8l-.047-3.831,3.457-.042-.039-3.219,3.858-.047.039,3.219,3.458-.042.047,3.832-3.458.042.039,3.192Z" transform="translate(5.032 1.033)" fill="#c4c4c4"/>
        <path id="Trazado_1273680" data-name="Trazado 1273680" d="M344.919,77.807l-.039-3.193-3.458.042-.047-3.831,3.458-.042-.039-3.219,3.857-.047.039,3.219,3.458-.042.047,3.832-3.458.042.039,3.192Z" transform="translate(5.214 1.031)" fill="#c4c4c4"/>
        <path id="Trazado_1273681" data-name="Trazado 1273681" d="M53.909,203.748l-3.283-1.043a3.047,3.047,0,0,1-2.124-2.9V73.17a3.046,3.046,0,0,1,2.918-3.043l147.195-6.191a29.683,29.683,0,0,1,7.141.562l5.36,1.875L76.646,195.408Z" transform="translate(0.741 0.976)" fill="#263238"/>
        <path id="Trazado_1273682" data-name="Trazado 1273682" d="M63.419,206.9v3.24a3.046,3.046,0,0,0,1.589,2.675l24.232,13.2a3.044,3.044,0,0,0,1.865.343l114.532-15.479a2.03,2.03,0,0,0,1.759-2.012v-2.949l-32.321-12.8Z" transform="translate(0.969 2.95)" fill="#455a64"/>
        <path id="Trazado_1273683" data-name="Trazado 1273683" d="M109.278,208.836,104.767,207V190.388h6.153Z" transform="translate(1.6 2.908)" fill="#263238"/>
        <path id="Trazado_1273684" data-name="Trazado 1273684" d="M165.816,179.682l-56.6,5.947V209l56.6-6.964Z" transform="translate(1.668 2.745)" fill="#37474f"/>
        <path id="Trazado_1273685" data-name="Trazado 1273685" d="M210.07,185.057,53.828,203.715V75.61a3.047,3.047,0,0,1,2.916-3.044l152.834-6.534a3.045,3.045,0,0,1,3.176,3.043V182.032a3.046,3.046,0,0,1-2.684,3.025" transform="translate(0.822 1.009)" fill="#455a64"/>
        <path id="Trazado_1273686" data-name="Trazado 1273686" d="M63.846,183.9l141.128-14.8a2.354,2.354,0,0,0,2.109-2.341v-90.7a2.354,2.354,0,0,0-2.47-2.351l-141.129,7a2.353,2.353,0,0,0-2.237,2.35v98.5a2.354,2.354,0,0,0,2.6,2.341" transform="translate(0.936 1.126)" fill="#fafafa"/>
        <path id="Trazado_1273687" data-name="Trazado 1273687" d="M162.9,75.749,63.484,80.678a2.354,2.354,0,0,0-2.238,2.35v98.5a2.355,2.355,0,0,0,2.6,2.341L162.9,173.485Z" transform="translate(0.936 1.157)" fill="#e0e0e0"/>
        <path id="Trazado_1273688" data-name="Trazado 1273688" d="M73,106.572l-.058-3.041,38.253-2.646.058,3.041Z" transform="translate(1.114 1.541)" fill="#ffd453"/>
        <path id="Trazado_1273689" data-name="Trazado 1273689" d="M78.385,111.869l-.058-3.042,38.253-2.645.058,3.041Z" transform="translate(1.196 1.622)" fill="#455a64"/>
        <path id="Trazado_1273690" data-name="Trazado 1273690" d="M78.817,117.639l-.058-3.041,32.575-2.16.058,3.041Z" transform="translate(1.203 1.717)" fill="#455a64"/>
        <path id="Trazado_1273691" data-name="Trazado 1273691" d="M73.328,123.536,73.27,120.5l38.253-2.646.058,3.041Z" transform="translate(1.119 1.8)" fill="#ffd453"/>
        <path id="Trazado_1273692" data-name="Trazado 1273692" d="M79.864,128.683l-.058-3.042L118.059,123l.058,3.041Z" transform="translate(1.219 1.879)" fill="#455a64"/>
        <path id="Trazado_1273693" data-name="Trazado 1273693" d="M86.788,133.94l-.058-3.042,28.793-1.99.059,3.042Z" transform="translate(1.325 1.969)" fill="#455a64"/>
        <path id="Trazado_1273694" data-name="Trazado 1273694" d="M87.28,139.454l-.058-3.042,24.414-1.661.058,3.041Z" transform="translate(1.332 2.058)" fill="#455a64"/>
        <path id="Trazado_1273695" data-name="Trazado 1273695" d="M87.391,145.282l-.058-3.042,38.253-2.645.058,3.041Z" transform="translate(1.334 2.132)" fill="#455a64"/>
        <path id="Trazado_1273696" data-name="Trazado 1273696" d="M80.286,150.852l-.058-3.041,38.253-2.646.058,3.041Z" transform="translate(1.225 2.217)" fill="#455a64"/>
        <path id="Trazado_1273697" data-name="Trazado 1273697" d="M73.975,157.475l-.058-3.041,38.241-3.209.058,3.042Z" transform="translate(1.129 2.31)" fill="#ffd453"/>
        <path id="Trazado_1273698" data-name="Trazado 1273698" d="M66.942,80.717l-.209-.272-3.249.161a2.354,2.354,0,0,0-2.238,2.35v98.5a2.354,2.354,0,0,0,2.6,2.341l3.1-.325Z" transform="translate(0.936 1.229)" fill="#b5b8b9"/>
        <path id="Trazado_1273699" data-name="Trazado 1273699" d="M207.083,80.988V75.893a2.353,2.353,0,0,0-2.47-2.35l-141.129,7a2.354,2.354,0,0,0-2.237,2.351V87.7Z" transform="translate(0.936 1.123)" fill="#69d7e5"/>
        <path id="Trazado_1273700" data-name="Trazado 1273700" d="M168.1,158.9l32.927-2.963V90.242L168.1,91.995Z" transform="translate(2.568 1.378)" fill="#a4e7f0"/>
        <path id="Trazado_1273701" data-name="Trazado 1273701" d="M63.419,206.712v3.24a3.046,3.046,0,0,0,1.589,2.675l24.232,13.2a3.044,3.044,0,0,0,1.865.343l114.532-15.479a2.03,2.03,0,0,0,1.759-2.012v-2.949L90.483,221.594Z" transform="translate(0.969 3.143)" fill="#263238"/>
        <path id="Trazado_1273702" data-name="Trazado 1273702" d="M87.565,237.865v3.759a3.3,3.3,0,0,0,1.514,2.772l21.87,14.057a5.074,5.074,0,0,0,3.608.732L249.323,235.9a3.047,3.047,0,0,0,2.528-3v-2.472l-33.442-12.635Z" transform="translate(1.338 3.327)" fill="#455a64"/>
        <path id="Trazado_1273703" data-name="Trazado 1273703" d="M114.558,258.994l134.766-23.281a3.046,3.046,0,0,0,2.527-3v-2.472l-137.192,23a5.077,5.077,0,0,1-3.547-.713L87.566,237.675v4a2.854,2.854,0,0,0,1.31,2.4l22.073,14.186a5.077,5.077,0,0,0,3.609.732" transform="translate(1.338 3.517)" fill="#263238"/>
        <path id="Trazado_1273704" data-name="Trazado 1273704" d="M55.613,246.3H4.17a4.061,4.061,0,0,1-4.061-4.061V217.6a4.061,4.061,0,0,1,4.061-4.061H55.613a4.061,4.061,0,0,1,4.061,4.061v24.642a4.061,4.061,0,0,1-4.061,4.061" transform="translate(0.002 3.262)" fill="#6cb9ff"/>
        <path id="Trazado_1273705" data-name="Trazado 1273705" d="M14.326,234.75V223.709h5.693a4.225,4.225,0,0,1,2.238.539,3.332,3.332,0,0,1,1.312,1.466A4.844,4.844,0,0,1,24,227.771a4.241,4.241,0,0,1-.5,2.074,3.581,3.581,0,0,1-1.406,1.424,4.287,4.287,0,0,1-2.143.514h-2.4v2.967Zm3.223-5.436h1.663a1.4,1.4,0,0,0,1.123-.428,1.648,1.648,0,0,0,.369-1.115,1.815,1.815,0,0,0-.342-1.166,1.283,1.283,0,0,0-1.063-.428H17.549Z" transform="translate(0.219 3.417)" fill="#4188c9"/>
        <path id="Trazado_1273706" data-name="Trazado 1273706" d="M24.694,234.75V223.709h3.223v4.115h3.806v-4.115h3.223V234.75H31.724v-4.115H27.918v4.115Z" transform="translate(0.377 3.417)" fill="#4188c9"/>
        <path id="Trazado_1273707" data-name="Trazado 1273707" d="M36.312,234.75V223.709H42a4.225,4.225,0,0,1,2.238.539,3.332,3.332,0,0,1,1.312,1.466,4.844,4.844,0,0,1,.428,2.057,4.241,4.241,0,0,1-.5,2.074,3.581,3.581,0,0,1-1.406,1.424,4.287,4.287,0,0,1-2.143.514h-2.4v2.967Zm3.223-5.436H41.2a1.4,1.4,0,0,0,1.123-.428,1.648,1.648,0,0,0,.369-1.115,1.815,1.815,0,0,0-.342-1.166,1.283,1.283,0,0,0-1.063-.428H39.535Z" transform="translate(0.555 3.417)" fill="#4188c9"/>
        <path id="Trazado_1273708" data-name="Trazado 1273708" d="M364.178,153.326h-55.42a4.061,4.061,0,0,1-4.061-4.061V128.339a4.061,4.061,0,0,1,4.061-4.061h55.42a4.061,4.061,0,0,1,4.061,4.061v20.926a4.061,4.061,0,0,1-4.061,4.061" transform="translate(4.654 1.898)" fill="#6cb9ff"/>
        <path id="Trazado_1273709" data-name="Trazado 1273709" d="M316.78,144.568V134.044h3.072v3.922h3.629v-3.922h3.071v10.524h-3.071v-3.922h-3.629v3.922Z" transform="translate(4.839 2.047)" fill="#4188c9"/>
        <path id="Trazado_1273710" data-name="Trazado 1273710" d="M330.168,144.568v-8.237H327.21v-2.287H336.2v2.287H333.24v8.237Z" transform="translate(4.998 2.047)" fill="#4188c9"/>
        <path id="Trazado_1273711" data-name="Trazado 1273711" d="M336.868,144.568V134.044h2.99l2.615,5.343,2.6-5.343h2.975v10.524h-3.073v-5.262l-1.682,3.464H341.64l-1.7-3.464v5.262Z" transform="translate(5.146 2.047)" fill="#4188c9"/>
        <path id="Trazado_1273712" data-name="Trazado 1273712" d="M349.327,144.568V134.044H352.4v8.171h4.739v2.353Z" transform="translate(5.336 2.047)" fill="#4188c9"/>
        <path id="Trazado_1273713" data-name="Trazado 1273713" d="M238.366,29.048H195.78a4.061,4.061,0,0,1-4.061-4.061V4.061A4.061,4.061,0,0,1,195.78,0h42.586a4.061,4.061,0,0,1,4.061,4.061V24.987a4.061,4.061,0,0,1-4.061,4.061" transform="translate(2.928)" fill="#6cb9ff"/>
        <path id="Trazado_1273714" data-name="Trazado 1273714" d="M211.25,20.089a9.121,9.121,0,0,1-1.308-.09,6.567,6.567,0,0,1-1.194-.286V17.164a4.02,4.02,0,0,0,.882.245,5.937,5.937,0,0,0,.981.081,1.792,1.792,0,0,0,1.26-.359,1.6,1.6,0,0,0,.375-1.193V9.4h3.073v7.027a3.5,3.5,0,0,1-1.039,2.688,4.272,4.272,0,0,1-3.031.973" transform="translate(3.189 0.144)" fill="#4188c9"/>
        <path id="Trazado_1273715" data-name="Trazado 1273715" d="M220.042,20.091a11.335,11.335,0,0,1-2.01-.172,6.709,6.709,0,0,1-1.618-.482V16.9a8.436,8.436,0,0,0,1.635.555,7.312,7.312,0,0,0,1.682.213,4.147,4.147,0,0,0,1.235-.139.592.592,0,0,0,.416-.629.663.663,0,0,0-.237-.539,2.279,2.279,0,0,0-.736-.359q-.5-.163-1.3-.409a7.061,7.061,0,0,1-1.683-.751,2.39,2.39,0,0,1-.89-1,3.437,3.437,0,0,1-.27-1.438,2.749,2.749,0,0,1,1.1-2.363,5.515,5.515,0,0,1,3.276-.808,11.31,11.31,0,0,1,1.789.147,10.932,10.932,0,0,1,1.5.326v2.55a7.725,7.725,0,0,0-1.471-.442,7.254,7.254,0,0,0-1.324-.131,5.642,5.642,0,0,0-1.225.115.563.563,0,0,0-.507.588.624.624,0,0,0,.434.6,12.458,12.458,0,0,0,1.543.482,6.046,6.046,0,0,1,1.97.834,2.524,2.524,0,0,1,.924,1.135,4.1,4.1,0,0,1,.245,1.463,2.8,2.8,0,0,1-1.112,2.313,5.393,5.393,0,0,1-3.366.874" transform="translate(3.303 0.141)" fill="#4188c9"/>
        <path id="Trazado_1273716" data-name="Trazado 1273716" d="M222.48,122.4s-5.522.589-6.443-5.918-3.452-8.349-6.212-12.03,0-8.284,0-8.284-6.9-.921-6.213-8.054,5.293-7.593,5.293-7.593-3.912-10.355,6.443-10.584c0,0-2.531-7.594,2.3-12.2s7.364-5.062,7.364-5.062-3.912-5.522,0-8.513,3.221,5.753,9.895,2.531,19.329-8.974,22.089.92c0,0,11.506-3.912,14.5,6.443,0,0,15.877-5.983,19.329,6.443,0,0,14.036,5.062,10.815,20.019,0,0,6.9,4.142,6.673,14.5s-8.054,14.036-8.054,14.036,4.832,12.4-4.832,16.8c0,0-.417,11.928-11.6,7.459S232.6,121.483,232.6,121.483Z" transform="translate(3.109 0.643)" fill="#263238"/>
        <path id="Trazado_1273717" data-name="Trazado 1273717" d="M251.091,75.452a10.243,10.243,0,0,0-.352-9.068c-2.553-4.93-8.8-3.17-10.829,0S235.487,74,235.487,74v.395l4.159,2.642Z" transform="translate(3.597 0.967)" fill="#1d272b"/>
        <path id="Trazado_1273718" data-name="Trazado 1273718" d="M260.644,58.462a13.476,13.476,0,0,0,.077-5.866,18.735,18.735,0,0,1-.844,5.676,41.923,41.923,0,0,1-1.914,5.108,23.191,23.191,0,0,0-.027-5.707,12.773,12.773,0,0,0-3.484-6.894,11.1,11.1,0,0,0-7.174-2.871,17.025,17.025,0,0,0-7.613,1.233,13.009,13.009,0,0,0-5.708,5.188c-1.4,2.131-2.419,4.481-4.15,6.114a6.3,6.3,0,0,1-3.065,1.591,16.787,16.787,0,0,0-3.711,1.09,8.278,8.278,0,0,0-3.006,2.513,5.363,5.363,0,0,0-1.038,3.644,5.386,5.386,0,0,1,1.455-3.308,7.606,7.606,0,0,1,3.007-1.917,15.533,15.533,0,0,1,3.506-1.031,7.671,7.671,0,0,0,1.9-.668,8.117,8.117,0,0,0,1.641-1.17c1.95-1.863,2.952-4.262,4.313-6.307a11.991,11.991,0,0,1,5.268-4.813,16.078,16.078,0,0,1,7.141-1.146,10.089,10.089,0,0,1,6.532,2.592,11.8,11.8,0,0,1,3.191,6.359,23.527,23.527,0,0,1,.723,6.169c-.712,1.575-1.5,3.119-2.328,4.643a26.448,26.448,0,0,0-.151-6.247,10.316,10.316,0,0,0-3.249-6.584,6.532,6.532,0,0,0-3.511-1.5,10.224,10.224,0,0,0-3.732.309,11.618,11.618,0,0,0-6.33,3.737,40.6,40.6,0,0,0-3.936,6.088,14.945,14.945,0,0,1-2.065,2.779,8.23,8.23,0,0,1-2.774,1.872c-2.2.873-4.488,1.464-6.789,2.3a6.424,6.424,0,0,0-3.15,2.159,7.075,7.075,0,0,0-1.124,3.323,9.677,9.677,0,0,0-4.131,3,9,9,0,0,0-1.874,5.094,11.321,11.321,0,0,0,1.1,5.232,8.8,8.8,0,0,0,3.522,3.847,8.96,8.96,0,0,1-3.006-4.069,11.423,11.423,0,0,1-.578-4.95,7.727,7.727,0,0,1,1.637-4.524,8.755,8.755,0,0,1,3.94-2.791l.325-.113.037-.321a6.523,6.523,0,0,1,.983-3.137,5.453,5.453,0,0,1,2.689-1.8c2.19-.8,4.545-1.412,6.794-2.3a9.256,9.256,0,0,0,3.128-2.107,15.912,15.912,0,0,0,2.207-2.961,39.972,39.972,0,0,1,3.831-5.944,10.582,10.582,0,0,1,5.8-3.421c2.214-.594,4.667-.5,6.357.984a7.393,7.393,0,0,1,1.968,2.693,19.7,19.7,0,0,1,1.179,3.267,28.44,28.44,0,0,1,.794,6.3c-.453.812-.911,1.623-1.4,2.414a9.63,9.63,0,0,1-1.71,2.311,3.505,3.505,0,0,0,1.142-.918c.339-.356.658-.729.974-1.106q.921-1.147,1.724-2.379a37.52,37.52,0,0,0,2.826-5.154,28.177,28.177,0,0,0,1.864-5.6" transform="translate(3.246 0.731)" fill="#344a51"/>
        <path id="Trazado_1273719" data-name="Trazado 1273719" d="M280.055,91.921a7.775,7.775,0,0,1-2-2.476,12.644,12.644,0,0,1-.852-3.164c-.341-2.217-.448-4.5-.656-6.785a32.781,32.781,0,0,0-1.171-6.85,11.76,11.76,0,0,0-1.535-3.224,7.28,7.28,0,0,0-2.752-2.356l-.8-.4-.846-.3a11.835,11.835,0,0,0-1.739-.445,12.9,12.9,0,0,0-3.57,0,14.73,14.73,0,0,0-6.2,3.092,15.51,15.51,0,0,1,6.357-2.08,11.839,11.839,0,0,1,3.259-.009,10.852,10.852,0,0,1,1.575.4l.768.273.729.371a7.705,7.705,0,0,1,3.792,4.986,31.915,31.915,0,0,1,1.127,6.634c.207,2.264.311,4.552.664,6.854a13.55,13.55,0,0,0,.933,3.43,8.737,8.737,0,0,0,2.26,2.818c1.774,1.572,3.951,2.534,5.348,4.132a4.219,4.219,0,0,1,1.274,2.8,9.808,9.808,0,0,1-.5,3.318,8.986,8.986,0,0,0,1.036-3.316,5.014,5.014,0,0,0-1.032-3.463c-1.655-1.853-3.824-2.768-5.457-4.242" transform="translate(3.94 1.005)" fill="#344a51"/>
        <path id="Trazado_1273720" data-name="Trazado 1273720" d="M289.3,86.233c-1.263-1.082-2.573-2.1-3.849-3.125l-.934-.778a4.442,4.442,0,0,1-.71-.837,8.816,8.816,0,0,1-.967-2.122c-.965-3.063-1.313-6.382-2.108-9.614a25.971,25.971,0,0,0-1.575-4.784,11.537,11.537,0,0,0-3.035-4.13,9.115,9.115,0,0,0-4.732-2.029,6.245,6.245,0,0,0-1.289-.117,7.5,7.5,0,0,0-1.3.034,9.187,9.187,0,0,0-2.5.67,12.508,12.508,0,0,0-4.12,2.924,16.059,16.059,0,0,0-2.848,4.068,14.617,14.617,0,0,1,7.279-6.169,10.481,10.481,0,0,1,4.631-.406,8.1,8.1,0,0,1,4.231,1.805C277.9,63.645,279,66.87,279.751,70c.784,3.169,1.116,6.456,2.131,9.695a9.771,9.771,0,0,0,1.082,2.363,5.493,5.493,0,0,0,.887,1.041l.966.8c1.29,1.041,2.588,2.046,3.829,3.109a23.067,23.067,0,0,1,6.18,7.342,10.26,10.26,0,0,1,1.061,4.562,14.083,14.083,0,0,1-.863,4.667,12.363,12.363,0,0,1-2.29,4.119,8.681,8.681,0,0,1-1.768,1.5,5.817,5.817,0,0,1-2.068.816l-.977.15.662.712a14.64,14.64,0,0,1,1.914,2.786,8.494,8.494,0,0,1,.981,3.234,6.336,6.336,0,0,1-.569,3.352,8.7,8.7,0,0,1-.846,1.532c-.329.486-.746.911-1.12,1.374.414-.421.877-.808,1.259-1.267a8.171,8.171,0,0,0,1.014-1.49,8.008,8.008,0,0,0,.685-1.693,8.268,8.268,0,0,0,.212-1.832,9.27,9.27,0,0,0-.774-3.607,9.748,9.748,0,0,0-1.478-2.453,8.383,8.383,0,0,0,3.63-2.436,13.364,13.364,0,0,0,2.492-4.462A15.064,15.064,0,0,0,296.9,98.9a11.289,11.289,0,0,0-1.156-4.985,24.021,24.021,0,0,0-6.441-7.685" transform="translate(3.961 0.896)" fill="#344a51"/>
        <path id="Trazado_1273721" data-name="Trazado 1273721" d="M298.721,90.456a14.394,14.394,0,0,0-.947-4.032,10.763,10.763,0,0,0-2.329-3.493,9.54,9.54,0,0,0-3.217-2.116c.039-.6.089-1.195.07-1.8a13.509,13.509,0,0,0-.221-2.178,11.678,11.678,0,0,0-1.521-4.085,12.868,12.868,0,0,0-6.466-5.461,14.926,14.926,0,0,1,3.332,2.537,12.565,12.565,0,0,1,2.445,3.309,11.981,11.981,0,0,1,1.257,3.864,12.909,12.909,0,0,1,.18,2.031c.018.68-.08,1.364-.1,2.046l-.015.423.384.124a8.839,8.839,0,0,1,3.217,1.987,11.16,11.16,0,0,1,2.288,3.123,14.165,14.165,0,0,1,1.164,3.777c.125.656.166,1.326.254,2,.012.671.03,1.346.06,2.028.077-.672.151-1.35.2-2.031-.013-.68.02-1.369-.033-2.053" transform="translate(4.339 1.028)" fill="#344a51"/>
        <path id="Trazado_1273722" data-name="Trazado 1273722" d="M282.4,165.378l.008,0-.053-.291c-.011-.05-.019-.1-.029-.15l-5.987-31.968-3.812-2.408L244.9,147.072l3.258,23.008c.046.5.123,1,.21,1.487l.041.277h0a17.3,17.3,0,0,0,33.994-6.468" transform="translate(3.741 1.994)" fill="#6f4c47"/>
        <path id="Trazado_1273723" data-name="Trazado 1273723" d="M277.165,117.7a9.016,9.016,0,0,0-1.886.2c-3.75-2.16-1.728-10.486-.281-15.024a4.643,4.643,0,0,0-1.208-4.774c-6.918-6.59-.219-14.111-3.421-20.716-3.495-7.209-18.349-4.151-18.349-4.151a78.756,78.756,0,0,0-13.967-.145,4.6,4.6,0,0,0-2.967,1.3,6.789,6.789,0,0,1-6.559,1.9,1.754,1.754,0,0,0-2.091,1.8c.182,7.109-2.814,7.815-2.814,7.815-3.714,19-4.622,44.325-4.622,44.325h0c-.067.773-.108,1.554-.108,2.345a26.87,26.87,0,0,0,52.927,6.56h0l.007-.038c.2-.8.367-1.61.492-2.435l.454-2.245a8.938,8.938,0,1,0,4.391-16.723" transform="translate(3.344 1.109)" fill="#a56963"/>
        <path id="Trazado_1273724" data-name="Trazado 1273724" d="M139.189,238.973s3.629,5.518,6.35,3.175-7.71-11.339-7.71-11.339l-3.629.529-.755,3.931Z" transform="translate(2.038 3.526)" fill="#6f4c47"/>
        <path id="Trazado_1273725" data-name="Trazado 1273725" d="M172.179,236.569a17.328,17.328,0,0,1-8.927-7.439c-3.72-5.951-10.41-16.044-14.873-19.02s-16.873,6.438-15.477,9.052c1.687,3.162,11.833-4.127,11.833-4.127l5.276,5.021s-4.762-1.786-6.248,1.487c0,0-4.761-.595-6.249,2.827,0,0-2.616-1.042-4.656,1.934s-5.013,8.629-4.122,11.01,7.737,3.124,10.564,6.4,4.166-.149,2.232-3.423a13.578,13.578,0,0,0-5.289-4.851l.652-1.124s9.4,13.266,18.77,13.861,16.513.892,16.513.892Z" transform="translate(1.964 3.201)" fill="#a56963"/>
        <path id="Trazado_1273726" data-name="Trazado 1273726" d="M144.486,229.087a36.968,36.968,0,0,0-3.019-2.345,18.085,18.085,0,0,0-3.253-1.854,3.681,3.681,0,0,0-3.311-.139,5.966,5.966,0,0,0-2.373,2.552l-.025.05a57.868,57.868,0,0,0-3.355,5.87,21.4,21.4,0,0,1,1.134-3.228,32.731,32.731,0,0,1,1.54-3.064l-.025.049a6.317,6.317,0,0,1,2.691-3.045,4.4,4.4,0,0,1,4.066.187,14.483,14.483,0,0,1,3.259,2.174,19.568,19.568,0,0,1,2.672,2.793" transform="translate(1.973 3.414)" fill="#6f4c47"/>
        <path id="Trazado_1273727" data-name="Trazado 1273727" d="M137.38,224.2a4.641,4.641,0,0,1,2.577-2.733,6.931,6.931,0,0,1,1.887-.524,5.025,5.025,0,0,1,1.994.222,10.683,10.683,0,0,1,3.344,1.825,14.758,14.758,0,0,1,2.655,2.629c-1.011-.724-2.015-1.423-3.05-2.056a14.154,14.154,0,0,0-3.208-1.524,4.684,4.684,0,0,0-1.651-.211,7.942,7.942,0,0,0-1.692.34,5.757,5.757,0,0,0-2.856,2.032" transform="translate(2.098 3.374)" fill="#6f4c47"/>
        <path id="Trazado_1273728" data-name="Trazado 1273728" d="M143.534,221.4a3.327,3.327,0,0,1,2.539-2.263,6.061,6.061,0,0,1,1.783-.113,5.847,5.847,0,0,1,1.733.464,9.74,9.74,0,0,1,2.863,1.926,12.5,12.5,0,0,1,2.158,2.607c-.852-.736-1.7-1.443-2.59-2.083a13.351,13.351,0,0,0-2.777-1.613,6.468,6.468,0,0,0-1.48-.408,7.3,7.3,0,0,0-1.547-.013,3.813,3.813,0,0,0-2.682,1.5" transform="translate(2.192 3.345)" fill="#6f4c47"/>
        <path id="Trazado_1273729" data-name="Trazado 1273729" d="M135.692,232.352c1.462,1.614,2.818,3.251,4.228,4.854,1.384,1.626,2.829,3.174,4.235,4.843a20.468,20.468,0,0,1-4.93-4.24,25.059,25.059,0,0,1-1.971-2.594,16.626,16.626,0,0,1-1.561-2.863" transform="translate(2.073 3.549)" fill="#6f4c47"/>
        <path id="Trazado_1273730" data-name="Trazado 1273730" d="M137.184,234.182l-1.763,2.023.975-2.5Z" transform="translate(2.069 3.57)" fill="#6f4c47"/>
        <path id="Trazado_1273731" data-name="Trazado 1273731" d="M201,227.947a8.605,8.605,0,0,0,5.027-.133A33.868,33.868,0,0,0,212.709,224l-4.4-1.052Z" transform="translate(3.07 3.406)" fill="#8e514f"/>
        <path id="Trazado_1273732" data-name="Trazado 1273732" d="M222.066,228.128a25.336,25.336,0,0,0-10.539,3.13c-5.007,2.922-7.512,5.684-8.451,3.259s6.157-7.049,6.157-7.049l1.917-2.225a.465.465,0,0,0-.415-.764l-2.51.544s-9.329,5.6-12.319,4.017c0,0-5.037,3.47-7.331,2.114s7.2-8.451,11.372-10.12,10.442-.99,22.12-3.026Z" transform="translate(2.875 3.33)" fill="#a56963"/>
        <path id="Trazado_1273733" data-name="Trazado 1273733" d="M188.231,230.559a1.892,1.892,0,0,0,1.5.756,3.963,3.963,0,0,0,1.654-.409c1.052-.508,2.1-1.127,3.138-1.714l6.261-3.565.074-.043.075-.012c3.249-.506,6.509-.938,9.8-1.193-3.193.833-6.417,1.488-9.652,2.069l.15-.054c-2.075,1.23-4.179,2.4-6.335,3.493a32.679,32.679,0,0,1-3.326,1.491,3.949,3.949,0,0,1-1.866.216,1.9,1.9,0,0,1-1.473-1.037" transform="translate(2.875 3.427)" fill="#6f4c47"/>
        <path id="Trazado_1273734" data-name="Trazado 1273734" d="M307.2,173.149c-6.3-18.906-22.379-18.026-22.379-18.026s-5.916-4.3-17.6-.964c-10.754,3.072-18.168,13.514-18.168,13.514s-16.505,5.475-21.353,18.806S215.58,241.5,215.58,241.5l-44.842-4.363L167.1,251.681S192.8,263.8,230.365,268.406l-5.176,40.713a227.647,227.647,0,0,0,62.76-22.45,183.477,183.477,0,0,0,34.172-23.4l-15.406-29.527s6.787-41.69.485-60.6" transform="translate(2.552 2.335)" fill="#69d7e5"/>
        <path id="Trazado_1273735" data-name="Trazado 1273735" d="M227.311,266.4l-.02-.007v0l.021,0" transform="translate(3.472 4.069)" fill="#bc4b42"/>
        <path id="Trazado_1273736" data-name="Trazado 1273736" d="M242.837,271.15c1.971-4.819,3.319-55.93,3.319-55.93s-7.112,39.305-8.971,47.128c-1.244,5.234-5.255,5.622-7.776,5.306l-1.17,10.114c4.536.072,11.892,0,14.6-6.618" transform="translate(3.486 3.287)" fill="#4bb6c4"/>
        <path id="Trazado_1273737" data-name="Trazado 1273737" d="M247.819,167.641a68.633,68.633,0,0,1,16.929-9.019,63.079,63.079,0,0,1,9.266-2.65,44.367,44.367,0,0,1,9.575-.883c-3.158.553-6.251,1.2-9.3,2.04-3.037.874-6.059,1.792-9.013,2.921-2.968,1.088-5.893,2.3-8.8,3.563-2.895,1.292-5.79,2.606-8.655,4.029" transform="translate(3.785 2.369)" fill="#1e535a"/>
        <path id="Trazado_1273738" data-name="Trazado 1273738" d="M248.676,196.808c-.218,4.835-.6,9.663-1.061,14.484-.516,4.815-1.1,9.625-1.8,14.418-1.393,9.589-3.243,19.107-5.314,28.573q-.813,3.542-1.693,7.068c-.158.6-.27,1.148-.465,1.791a7.273,7.273,0,0,1-.824,1.818,7.508,7.508,0,0,1-6.753,3.529c-.685-.046-1.259-.149-1.863-.235l-1.8-.274q-3.594-.545-7.165-1.214c-9.517-1.758-19.056-3.685-28.221-6.843,4.665,1.29,9.384,2.33,14.135,3.217,4.74.93,9.5,1.742,14.28,2.47l7.166,1.067,1.792.256c.593.08,1.215.179,1.736.205a6.123,6.123,0,0,0,5.482-2.927,5.852,5.852,0,0,0,.653-1.481c.155-.515.286-1.153.429-1.725.564-2.347,1.1-4.7,1.623-7.058,2.189-9.409,4.01-18.9,5.647-28.42.841-4.758,1.549-9.537,2.216-14.325.712-4.782,1.238-9.587,1.8-14.4" transform="translate(2.928 3.006)" fill="#1e535a"/>
        <path id="Trazado_1273739" data-name="Trazado 1273739" d="M265.435,247.264c1.031-.966,2.082-1.912,3.144-2.852,1.113-.873,2.2-1.8,3.349-2.625,1.184-.784,2.309-1.669,3.559-2.356l1.841-1.091,1.909-.975a39.5,39.5,0,0,1,8.057-2.984,29.351,29.351,0,0,1,4.271-.726,18.893,18.893,0,0,1,4.425.031.721.721,0,0,1,.225,1.358l-.024.012q-4.892,2.418-9.825,4.755c-1.652.762-3.295,1.545-4.962,2.279s-3.317,1.5-5,2.206c1.561-.943,3.149-1.832,4.728-2.739s3.176-1.78,4.766-2.666q4.79-2.616,9.629-5.138l.2,1.372a17.834,17.834,0,0,0-4.019.028,34.837,34.837,0,0,0-4.067.684,44.814,44.814,0,0,0-7.847,2.719,63.478,63.478,0,0,0-7.39,3.939l-3.537,2.293c-1.134.831-2.27,1.665-3.433,2.475" transform="translate(4.054 3.567)" fill="#1e535a"/>
        <path id="Trazado_1273740" data-name="Trazado 1273740" d="M233.65,176.013a11.333,11.333,0,0,1,5.871-1.773,7.789,7.789,0,0,1,3.127.632,7.442,7.442,0,0,1,2.581,1.925,12.063,12.063,0,0,1,2.521,5.707,23.59,23.59,0,0,1,.285,6.118,45.924,45.924,0,0,0-1.057-5.941,12.977,12.977,0,0,0-2.514-5.216,7.016,7.016,0,0,0-4.972-2.435,14.2,14.2,0,0,0-5.843.984" transform="translate(3.569 2.661)" fill="#1e535a"/>
        <path id="Trazado_1273741" data-name="Trazado 1273741" d="M174.986,253.694c.313.119.629.238.958.36l3.919-17.3-1.018-.1Z" transform="translate(2.673 3.615)" fill="#1e535a"/>
        <path id="Trazado_1273742" data-name="Trazado 1273742" d="M254.675,109.145a2.372,2.372,0,1,1-2.373-2.372,2.373,2.373,0,0,1,2.373,2.372" transform="translate(3.818 1.631)" fill="#263238"/>
        <path id="Trazado_1273743" data-name="Trazado 1273743" d="M231.291,104.98c0,1.435-.825,2.6-1.844,2.6s-1.843-1.162-1.843-2.6.825-2.6,1.843-2.6,1.844,1.162,1.844,2.6" transform="translate(3.477 1.564)" fill="#263238"/>
        <path id="Trazado_1273744" data-name="Trazado 1273744" d="M238.976,135.2a5.411,5.411,0,1,0,4.244-6.036,5.224,5.224,0,0,0-4.244,6.036" transform="translate(3.649 1.971)" fill="#6f4c47"/>
        <path id="Trazado_1273745" data-name="Trazado 1273745" d="M248.947,102.723a3.933,3.933,0,0,1,1.53-3.029,4.736,4.736,0,0,1,3.476-.9,4.86,4.86,0,0,1,3.213,1.588,3.875,3.875,0,0,1,.9,3.273,5.533,5.533,0,0,0-1.727-2.421,5.167,5.167,0,0,0-2.548-.926,4.9,4.9,0,0,0-2.666.382,5.677,5.677,0,0,0-2.176,2.037" transform="translate(3.803 1.509)" fill="#263238"/>
        <path id="Trazado_1273746" data-name="Trazado 1273746" d="M226.482,98.641a3.92,3.92,0,0,1,1.017-2.836,3.452,3.452,0,0,1,3.1-1,4.255,4.255,0,0,1,1.555.593,3.635,3.635,0,0,1,1.132,1.2,4.163,4.163,0,0,1,.468,2.968,7.414,7.414,0,0,0-1.33-2.347,3.39,3.39,0,0,0-2.038-1.07,2.869,2.869,0,0,0-2.189.443,6.446,6.446,0,0,0-1.72,2.046" transform="translate(3.459 1.447)" fill="#263238"/>
        <path id="Trazado_1273747" data-name="Trazado 1273747" d="M237.4,95.418q-1.139,4.649-2.381,9.239c-.806,3.068-1.649,6.122-2.365,9.192-.376,1.529-.71,3.068-.955,4.6a17.8,17.8,0,0,0-.264,2.277,6.06,6.06,0,0,0,.036,1.064,1.354,1.354,0,0,0,.326.8c.761,1.067,2.372,1.436,3.881,1.52a20.3,20.3,0,0,0,4.7-.355,16.6,16.6,0,0,1-4.695,1.1,9.366,9.366,0,0,1-2.5-.175,4.308,4.308,0,0,1-2.312-1.344,2.623,2.623,0,0,1-.659-1.323,6.954,6.954,0,0,1-.114-1.31,19.237,19.237,0,0,1,.172-2.466c.214-1.612.544-3.185.9-4.747.757-3.113,1.67-6.172,2.713-9.185q1.541-4.526,3.514-8.894" transform="translate(3.515 1.457)" fill="#263238"/>
        <path id="Trazado_1273748" data-name="Trazado 1273748" d="M253.63,129.729a2.545,2.545,0,0,0-.546-1.369,3.363,3.363,0,0,0-1.149-.956,3.878,3.878,0,0,0-1.419-.4,2.91,2.91,0,0,0-1.444.215c.807.374,1.511.652,2.178.987-.371.455-.732.91-1.114,1.34l-.921.954-.448.478-.5.418c-.337.274-.661.559-.986.84l-1.072.707a7.4,7.4,0,0,1-1.108.628,6.507,6.507,0,0,1-1.158.52,14.414,14.414,0,0,1-5,1.035,22.777,22.777,0,0,1-5.293-.491,12.215,12.215,0,0,0,5.259,1.675,12.094,12.094,0,0,0,5.591-.8,11.828,11.828,0,0,0,4.6-3.268l.474-.519c.14-.187.272-.38.4-.576l.766-1.162c.29-.536.537-1.09.772-1.648a9.341,9.341,0,0,1,1.018.6c.361.225.679.51,1.1.8" transform="translate(3.569 1.94)" fill="#263238"/>
        <path id="Trazado_1273749" data-name="Trazado 1273749" d="M250.552,92.623,263.423,94.2a.675.675,0,0,0,.7-1,9.813,9.813,0,0,0-13.974-1.724.663.663,0,0,0,.4,1.151" transform="translate(3.818 1.364)" fill="#263238"/>
        <path id="Trazado_1273750" data-name="Trazado 1273750" d="M226.853,87.421l9.226,2.777a.633.633,0,0,0,.809-.67c-.1-1.218-.871-3.365-4.768-4.456-3.073-.862-4.792.436-5.572,1.343a.628.628,0,0,0,.3,1.006" transform="translate(3.458 1.295)" fill="#263238"/>
        <path id="Trazado_1273751" data-name="Trazado 1273751" d="M275.759,119.975a6.718,6.718,0,0,1,4.716,1.691,4.832,4.832,0,0,1,1.334,2.3,7.379,7.379,0,0,1-.751,5.124,4.618,4.618,0,0,1-1.944,1.822,6.369,6.369,0,0,1-5.006.006,7.252,7.252,0,0,0,4.667-.636,5.952,5.952,0,0,0,1.182-8.12,7.79,7.79,0,0,0-4.2-2.189" transform="translate(4.187 1.833)" fill="#6f4c47"/>
      </g>
    </g>
  </g>
</svg>
