<svg xmlns="http://www.w3.org/2000/svg" xmlns:xlink="http://www.w3.org/1999/xlink" width="128" height="128" viewBox="0 0 128 128">
  <defs>
    <clipPath id="clip-path">
      <rect id="Rectángulo_454829" data-name="Rectángulo 454829" width="128" height="128" fill="#1e535a"/>
    </clipPath>
    <clipPath id="clip-path-2">
      <rect id="Rectángulo_464371" data-name="Rectángulo 464371" width="47.438" height="41.233" fill="#1e535a"/>
    </clipPath>
  </defs>
  <g id="Grupo_1209816" data-name="Grupo 1209816" transform="translate(-186 -4323.945)">
    <g id="Grupo_1177591" data-name="Grupo 1177591" transform="translate(186 4323.945)">
      <g id="Grupo_1177589" data-name="Grupo 1177589" transform="translate(0 0)">
        <g id="Grupo_1177587" data-name="Grupo 1177587" clip-path="url(#clip-path)">
          <path id="Trazado_997422" data-name="Trazado 997422" d="M122.774,56.654a58.848,58.848,0,0,0-13.293-30.623,6.768,6.768,0,0,0-9.523-9.118A58.761,58.761,0,0,0,69.535,5.027a6.769,6.769,0,0,0-13.148.267A58.842,58.842,0,0,0,27.2,17.772a6.771,6.771,0,0,0-9.4,9.462A58.794,58.794,0,0,0,5.483,56.6a6.774,6.774,0,0,0-.162,13.266A58.776,58.776,0,0,0,17.252,99.82a6.771,6.771,0,0,0,9.2,9.56,58.838,58.838,0,0,0,29.883,13.07,6.771,6.771,0,0,0,13.266.267,58.788,58.788,0,0,0,30.646-12.107,6.769,6.769,0,0,0,9.476-9.165A58.863,58.863,0,0,0,122.933,69.8a6.771,6.771,0,0,0-.159-13.144m-19.12-27.288a6.733,6.733,0,0,0,3.75-1.135,55.884,55.884,0,0,1,12.333,28.407,6.781,6.781,0,0,0-4.327,3.135L98.1,53.283c.013-.189.027-.382.027-.578a6.772,6.772,0,0,0-2.868-5.533l7.57-17.86a7.335,7.335,0,0,0,.821.054M100,28.288,92.472,46.03a6.7,6.7,0,0,0-7.459,4.307L53.705,43.125a6.588,6.588,0,0,0-.142-1.348L97.992,26.305a6.793,6.793,0,0,0,2,1.983M63,13.553a6.777,6.777,0,0,0,6.651-5.5A55.792,55.792,0,0,1,97.857,19.09a6.739,6.739,0,0,0-.98,3.5,7.114,7.114,0,0,0,.064.9L52.29,39.031A6.8,6.8,0,0,0,51.064,37.8L62.775,13.543c.074,0,.145.01.22.01M56.4,8.324a6.778,6.778,0,0,0,3.409,4.435L48.331,36.538a6.8,6.8,0,0,0-1.4-.145,6.727,6.727,0,0,0-3.861,1.213L29.461,26.238A6.736,6.736,0,0,0,29.231,20,55.836,55.836,0,0,1,56.4,8.324M13.387,61.776l28.15-14.519a6.751,6.751,0,0,0,5.341,2.686l9.648,30.839a6.887,6.887,0,0,0-1.493,1.652L13.3,65.046a6.731,6.731,0,0,0,.25-1.8,6.81,6.81,0,0,0-.166-1.473m6.648-32.521a6.771,6.771,0,0,0,7.564-.645L41.037,39.831a6.758,6.758,0,0,0-.747,4.682l-28.2,14.539A6.774,6.774,0,0,0,8.506,56.7,55.812,55.812,0,0,1,20.036,29.254m2.8,67.623a6.756,6.756,0,0,0-3.365.9A55.762,55.762,0,0,1,8.351,69.832a6.783,6.783,0,0,0,3.517-2.121L54.013,85.27a7.266,7.266,0,0,0-.054.814,6.775,6.775,0,0,0,.405,2.29L28.876,100.587a6.775,6.775,0,0,0-6.037-3.709m33.626,22.556a55.892,55.892,0,0,1-27.883-12.2,6.705,6.705,0,0,0,1.034-3.581l0-.078L56,90.929a6.776,6.776,0,0,0,2.392,1.51l1.581,22.725a6.776,6.776,0,0,0-3.51,4.27m2.807-39.96L49.831,49.287a6.786,6.786,0,0,0,3.219-3.219l31.562,7.266a6.736,6.736,0,0,0,1.078,3.081L64.042,80.173a6.692,6.692,0,0,0-4.77-.7M69.592,119.7a6.774,6.774,0,0,0-6.6-5.25l-.051,0-1.5-21.623a6.764,6.764,0,0,0,4.142-2.01l31.555,13.918c0,.061-.01.115-.01.176a6.743,6.743,0,0,0,1,3.534A55.789,55.789,0,0,1,69.592,119.7M97.9,101.779,67.164,88.22a6.736,6.736,0,0,0-.888-6.027L87.858,58.5a6.736,6.736,0,0,0,3.5.98,7.46,7.46,0,0,0,.831-.054l8.067,39.781a6.761,6.761,0,0,0-2.355,2.571m9.722-2.534a6.735,6.735,0,0,0-4.5-1.064l-8.07-39.8a6.8,6.8,0,0,0,2.135-2.23l17.3,6.486a6.009,6.009,0,0,0-.03.608,6.774,6.774,0,0,0,5.445,6.641A55.835,55.835,0,0,1,107.62,99.246" transform="translate(0 0.001)" fill="#1e535a"/>
        </g>
      </g>
    </g>
    <g id="Elipse_13614" data-name="Elipse 13614" transform="translate(210.273 4348.213)" fill="#fff" stroke="#1e535a" stroke-width="3">
      <ellipse cx="39.732" cy="39.733" rx="39.732" ry="39.733" stroke="none"/>
      <ellipse cx="39.732" cy="39.733" rx="38.232" ry="38.233" fill="none"/>
    </g>
    <g id="Grupo_1211517" data-name="Grupo 1211517" transform="translate(226.286 4367.329)">
      <g id="Grupo_1211516" data-name="Grupo 1211516" clip-path="url(#clip-path-2)">
        <path id="Trazado_1274067" data-name="Trazado 1274067" d="M104.163,165.1l-6.141.008a8.745,8.745,0,0,0-.094-1.669,6.9,6.9,0,0,1-1.832-1.05c-.585.09-.922.522-1.512.722L91.539,157.8l1.355-.833a10.26,10.26,0,0,1,.02-2.246l-1.384-.856,3.089-5.33,1.388.775a9.953,9.953,0,0,1,1.969-1.123l.031-1.611,6.131-.022.115,1.681a9.106,9.106,0,0,1,1.92,1.07l1.409-.757,3.051,5.289-1.369.88a8.256,8.256,0,0,1-.007,2.174c.38.442.939.534,1.384.943l-3.048,5.283-1.421-.738a10.635,10.635,0,0,1-1.922,1.067,9.774,9.774,0,0,0-.087,1.657m2.077-9.265a5.153,5.153,0,1,0-5.153,5.153,5.153,5.153,0,0,0,5.153-5.153" transform="translate(-77.368 -123.877)" fill="#1e535a"/>
        <path id="Trazado_1274068" data-name="Trazado 1274068" d="M139.5,189.68a3.09,3.09,0,1,1-3.09-3.09,3.09,3.09,0,0,1,3.09,3.09" transform="translate(-112.694 -157.718)" fill="#1e535a"/>
        <path id="Trazado_1274069" data-name="Trazado 1274069" d="M39.107,30.946a1.058,1.058,0,0,0,1.1-.956l.012-13.481-5.128-.03L35.042,9.3h-5.12l-.026,7.18-12.325.014L17.512,9.3H12.4l-.054,7.176-5.124.034,0,13.353a1.048,1.048,0,0,0,1.059,1.074l3.224.047a.934.934,0,0,1,.857,1,1.013,1.013,0,0,1-1.018,1l-3.1.008a3.058,3.058,0,0,1-3.079-3.1L5.142,16.5,0,16.461,0,.015,8.256,0l4.1,4.094.052,3.092,5.107,0L17.543.011,25.82.018l4.066,4.073.045,3.094,5.113-.006L35.078.021,43.357.014l4.074,4.073.007,12.372L42.3,16.5,42.28,29.894a3.055,3.055,0,0,1-3.079,3.1H36.1a1.023,1.023,0,0,1-1.01-.887.944.944,0,0,1,.846-1.12ZM7.216,12.18,7.2,6.217A1.049,1.049,0,0,0,6.087,5.14H4.218a1.027,1.027,0,0,0-1.1,1A1.015,1.015,0,0,0,4.222,7.2a6.43,6.43,0,0,1,.911.028l.018,5.031a1.035,1.035,0,0,0,1.016,1.112,1.054,1.054,0,0,0,1.05-1.194m18.526,1.2A1.019,1.019,0,0,0,26.8,12.341a1.045,1.045,0,0,0-1.063-1.013,6.348,6.348,0,0,1-1.5-.065c1.1-1.374,3.355-2.487,2.329-4.7a2.555,2.555,0,0,0-2.382-1.417L21.7,5.148A1.027,1.027,0,1,0,21.708,7.2l2.61.018a.409.409,0,0,1,.4.348.527.527,0,0,1-.157.427l-3.55,3.575a1.106,1.106,0,0,0-.314,1.158,1.019,1.019,0,0,0,1.009.656c1.357.069,2.676.024,4.037,0m12.435-1.022a1,1,0,0,0,1.01,1.019l2.47.015a2.8,2.8,0,0,0,2.389-1.349c.66-.983-.017-1.881-.013-2.774,0-.911.682-1.836-.023-2.849-1.148-1.65-2.367-1.238-4.667-1.287a1.042,1.042,0,1,0,0,2.069l2.325,0c.432,0,.662.3.593.631-.167.806-1.993-.1-2.011,1.407A1.06,1.06,0,0,0,41.522,10.3c.407-.03.727.146.746.5.072,1.391-4.081-.511-4.091,1.566" fill="#1e535a"/>
      </g>
    </g>
  </g>
</svg>
