<svg xmlns="http://www.w3.org/2000/svg" xmlns:xlink="http://www.w3.org/1999/xlink" width="128" height="128" viewBox="0 0 128 128">
  <defs>
    <clipPath id="clip-path">
      <rect id="Rectángulo_454829" data-name="Rectángulo 454829" width="128" height="128" fill="#1e535a"/>
    </clipPath>
    <clipPath id="clip-path-2">
      <rect id="Rectángulo_464375" data-name="Rectángulo 464375" width="38.612" height="45.443" fill="#1e535a"/>
    </clipPath>
  </defs>
  <g id="Grupo_1209836" data-name="Grupo 1209836" transform="translate(-186 -4323.945)">
    <g id="Grupo_1177591" data-name="Grupo 1177591" transform="translate(186 4323.945)">
      <g id="Grupo_1177589" data-name="Grupo 1177589" transform="translate(0 0)">
        <g id="Grupo_1177587" data-name="Grupo 1177587" clip-path="url(#clip-path)">
          <path id="Trazado_997422" data-name="Trazado 997422" d="M122.774,56.654a58.848,58.848,0,0,0-13.293-30.623,6.768,6.768,0,0,0-9.523-9.118A58.761,58.761,0,0,0,69.535,5.027a6.769,6.769,0,0,0-13.148.267A58.842,58.842,0,0,0,27.2,17.772a6.771,6.771,0,0,0-9.4,9.462A58.794,58.794,0,0,0,5.483,56.6a6.774,6.774,0,0,0-.162,13.266A58.776,58.776,0,0,0,17.252,99.82a6.771,6.771,0,0,0,9.2,9.56,58.838,58.838,0,0,0,29.883,13.07,6.771,6.771,0,0,0,13.266.267,58.788,58.788,0,0,0,30.646-12.107,6.769,6.769,0,0,0,9.476-9.165A58.863,58.863,0,0,0,122.933,69.8a6.771,6.771,0,0,0-.159-13.144m-19.12-27.288a6.733,6.733,0,0,0,3.75-1.135,55.884,55.884,0,0,1,12.333,28.407,6.781,6.781,0,0,0-4.327,3.135L98.1,53.283c.013-.189.027-.382.027-.578a6.772,6.772,0,0,0-2.868-5.533l7.57-17.86a7.335,7.335,0,0,0,.821.054M100,28.288,92.472,46.03a6.7,6.7,0,0,0-7.459,4.307L53.705,43.125a6.588,6.588,0,0,0-.142-1.348L97.992,26.305a6.793,6.793,0,0,0,2,1.983M63,13.553a6.777,6.777,0,0,0,6.651-5.5A55.792,55.792,0,0,1,97.857,19.09a6.739,6.739,0,0,0-.98,3.5,7.114,7.114,0,0,0,.064.9L52.29,39.031A6.8,6.8,0,0,0,51.064,37.8L62.775,13.543c.074,0,.145.01.22.01M56.4,8.324a6.778,6.778,0,0,0,3.409,4.435L48.331,36.538a6.8,6.8,0,0,0-1.4-.145,6.727,6.727,0,0,0-3.861,1.213L29.461,26.238A6.736,6.736,0,0,0,29.231,20,55.836,55.836,0,0,1,56.4,8.324M13.387,61.776l28.15-14.519a6.751,6.751,0,0,0,5.341,2.686l9.648,30.839a6.887,6.887,0,0,0-1.493,1.652L13.3,65.046a6.731,6.731,0,0,0,.25-1.8,6.81,6.81,0,0,0-.166-1.473m6.648-32.521a6.771,6.771,0,0,0,7.564-.645L41.037,39.831a6.758,6.758,0,0,0-.747,4.682l-28.2,14.539A6.774,6.774,0,0,0,8.506,56.7,55.812,55.812,0,0,1,20.036,29.254m2.8,67.623a6.756,6.756,0,0,0-3.365.9A55.762,55.762,0,0,1,8.351,69.832a6.783,6.783,0,0,0,3.517-2.121L54.013,85.27a7.266,7.266,0,0,0-.054.814,6.775,6.775,0,0,0,.405,2.29L28.876,100.587a6.775,6.775,0,0,0-6.037-3.709m33.626,22.556a55.892,55.892,0,0,1-27.883-12.2,6.705,6.705,0,0,0,1.034-3.581l0-.078L56,90.929a6.776,6.776,0,0,0,2.392,1.51l1.581,22.725a6.776,6.776,0,0,0-3.51,4.27m2.807-39.96L49.831,49.287a6.786,6.786,0,0,0,3.219-3.219l31.562,7.266a6.736,6.736,0,0,0,1.078,3.081L64.042,80.173a6.692,6.692,0,0,0-4.77-.7M69.592,119.7a6.774,6.774,0,0,0-6.6-5.25l-.051,0-1.5-21.623a6.764,6.764,0,0,0,4.142-2.01l31.555,13.918c0,.061-.01.115-.01.176a6.743,6.743,0,0,0,1,3.534A55.789,55.789,0,0,1,69.592,119.7M97.9,101.779,67.164,88.22a6.736,6.736,0,0,0-.888-6.027L87.858,58.5a6.736,6.736,0,0,0,3.5.98,7.46,7.46,0,0,0,.831-.054l8.067,39.781a6.761,6.761,0,0,0-2.355,2.571m9.722-2.534a6.735,6.735,0,0,0-4.5-1.064l-8.07-39.8a6.8,6.8,0,0,0,2.135-2.23l17.3,6.486a6.009,6.009,0,0,0-.03.608,6.774,6.774,0,0,0,5.445,6.641A55.835,55.835,0,0,1,107.62,99.246" transform="translate(0 0.001)" fill="#1e535a"/>
        </g>
      </g>
    </g>
    <g id="Elipse_13614" data-name="Elipse 13614" transform="translate(210.273 4348.213)" fill="#fff" stroke="#1e535a" stroke-width="3">
      <ellipse cx="39.732" cy="39.733" rx="39.732" ry="39.733" stroke="none"/>
      <ellipse cx="39.732" cy="39.733" rx="38.232" ry="38.233" fill="none"/>
    </g>
    <g id="Grupo_1211521" data-name="Grupo 1211521" transform="translate(230.699 4365.224)">
      <g id="Grupo_1211520" data-name="Grupo 1211520" clip-path="url(#clip-path-2)">
        <path id="Trazado_1274073" data-name="Trazado 1274073" d="M55.425,31.1c-3.259-2.48-6.645-4.125-9.584-6.787a10.084,10.084,0,0,1-3.355-7.789l.006-11.8A57.228,57.228,0,0,0,55.417,0,57.157,57.157,0,0,0,68.361,4.719l-.017,12.429A10.124,10.124,0,0,1,64.765,24.5c-2.888,2.567-6.132,4.122-9.34,6.592m10.069-16.93A10.079,10.079,0,1,0,55.415,24.245,10.079,10.079,0,0,0,65.494,14.166" transform="translate(-35.748)" fill="#1e535a"/>
        <path id="Trazado_1274074" data-name="Trazado 1274074" d="M87.6,44.46a8.455,8.455,0,1,1-8.455-8.455A8.455,8.455,0,0,1,87.6,44.46M76.256,48.246a.85.85,0,0,0,1.241.12l7.492-6.592a.812.812,0,1,0-1.064-1.226l-6.9,6.059-2.582-2.859a.84.84,0,0,0-1.154-.1.828.828,0,0,0-.128,1.065Z" transform="translate(-59.482 -30.295)" fill="#1e535a"/>
        <path id="Trazado_1274075" data-name="Trazado 1274075" d="M141.284,117.52c.133-.923,1.34-1.65,2.066-2.065l6.95-3.968a1,1,0,1,1,.952,1.749l-4.379,2.56a.567.567,0,0,0-.184.716.586.586,0,0,0,.793.215l4.31-2.482a2.45,2.45,0,0,0,1.242-1.809l2.8-12.737c.071-.325.2-.57.418-.638.966-.3,1.138,1.384,1.115,2.231l-.36,13.527a1.677,1.677,0,0,1-.789,1.478l-7.758,4.926-.093,2.381-7.192.023a58.9,58.9,0,0,1,.109-6.105" transform="translate(-118.757 -83.321)" fill="#1e535a"/>
        <path id="Trazado_1274076" data-name="Trazado 1274076" d="M7.062,111.542l6.87,3.885c.722.545,1.984,1.125,2.149,2.11.333,1.984-.012,3.974.135,6.1l-7.209.055L8.939,121.3l-7.792-4.951a1.682,1.682,0,0,1-.787-1.506L0,101.347c-.021-.805.087-2.3.975-2.257a.579.579,0,0,1,.519.523L2.41,104.1c.582,2.855,1.086,5.642,1.874,8.433a2.594,2.594,0,0,0,1.2,1.7l4.408,2.556a.611.611,0,0,0,.727-.123.554.554,0,0,0-.124-.813L5.8,113.067c-.508-.3-.353-.877-.1-1.321a.952.952,0,0,1,1.361-.2" transform="translate(0 -83.375)" fill="#1e535a"/>
        <rect id="Rectángulo_464373" data-name="Rectángulo 464373" width="9.202" height="3.842" transform="translate(8.094 41.6)" fill="#1e535a"/>
        <rect id="Rectángulo_464374" data-name="Rectángulo 464374" width="9.202" height="3.842" transform="translate(21.315 41.6)" fill="#1e535a"/>
      </g>
    </g>
  </g>
</svg>
