<svg xmlns="http://www.w3.org/2000/svg" xmlns:xlink="http://www.w3.org/1999/xlink" width="133" height="133" viewBox="0 0 133 133">
  <defs>
    <clipPath id="clip-path">
      <rect id="Rectángulo_454829" data-name="Rectángulo 454829" width="133" height="133" fill="#1e535a"/>
    </clipPath>
    <clipPath id="clip-path-2">
      <rect id="Rectángulo_464412" data-name="Rectángulo 464412" width="48.916" height="48.953" fill="#1e535a"/>
    </clipPath>
  </defs>
  <g id="Grupo_1211075" data-name="Grupo 1211075" transform="translate(-186 -4323.945)">
    <g id="Grupo_1177591" data-name="Grupo 1177591" transform="translate(186 4323.945)">
      <g id="Grupo_1177589" data-name="Grupo 1177589" transform="translate(0 0)">
        <g id="Grupo_1177587" data-name="Grupo 1177587" clip-path="url(#clip-path)">
          <path id="Trazado_997422" data-name="Trazado 997422" d="M127.57,58.867a61.147,61.147,0,0,0-13.812-31.819,7.032,7.032,0,0,0-9.895-9.474A61.057,61.057,0,0,0,72.251,5.223,7.034,7.034,0,0,0,58.59,5.5,61.141,61.141,0,0,0,28.26,18.467,7.036,7.036,0,0,0,18.495,28.3,61.09,61.09,0,0,0,5.7,58.808a7.039,7.039,0,0,0-.168,13.784,61.072,61.072,0,0,0,12.4,31.127,7.035,7.035,0,0,0,9.558,9.934,61.136,61.136,0,0,0,31.05,13.58,7.036,7.036,0,0,0,13.784.277,61.084,61.084,0,0,0,31.843-12.58,7.034,7.034,0,0,0,9.846-9.523,61.162,61.162,0,0,0,13.728-32.882,7.036,7.036,0,0,0-.165-13.658M107.7,30.513a7,7,0,0,0,3.9-1.179A58.067,58.067,0,0,1,124.414,58.85a7.046,7.046,0,0,0-4.5,3.257l-17.982-6.743c.014-.2.028-.4.028-.6a7.036,7.036,0,0,0-2.98-5.749l7.866-18.558a7.621,7.621,0,0,0,.853.056m-3.8-1.12L96.085,47.828a6.963,6.963,0,0,0-7.75,4.475L55.8,44.81a6.845,6.845,0,0,0-.147-1.4L101.82,27.333a7.058,7.058,0,0,0,2.081,2.06M65.456,14.082a7.041,7.041,0,0,0,6.911-5.711A57.971,57.971,0,0,1,101.68,19.835a7,7,0,0,0-1.018,3.636,7.392,7.392,0,0,0,.067.93l-46.4,16.153a7.062,7.062,0,0,0-1.274-1.274L65.228,14.072c.077,0,.151.011.228.011M58.608,8.649a7.043,7.043,0,0,0,3.542,4.609L50.219,37.965a7.061,7.061,0,0,0-1.453-.151,6.99,6.99,0,0,0-4.012,1.26L30.611,27.263a7,7,0,0,0-.239-6.48A58.017,58.017,0,0,1,58.608,8.649m-44.7,55.54L43.16,49.1a7.015,7.015,0,0,0,5.549,2.791L58.734,83.936a7.157,7.157,0,0,0-1.551,1.716L13.823,67.586a6.994,6.994,0,0,0,.26-1.867,7.076,7.076,0,0,0-.172-1.53M20.818,30.4a7.036,7.036,0,0,0,7.859-.67L42.64,41.387a7.022,7.022,0,0,0-.776,4.865L12.566,61.36a7.039,7.039,0,0,0-3.728-2.443A57.992,57.992,0,0,1,20.818,30.4m2.913,70.265a7.02,7.02,0,0,0-3.5.934A57.94,57.94,0,0,1,8.677,72.56a7.047,7.047,0,0,0,3.654-2.2L56.122,88.6a7.55,7.55,0,0,0-.056.846,7.04,7.04,0,0,0,.421,2.38L30,104.516a7.04,7.04,0,0,0-6.272-3.854M58.671,124.1A58.075,58.075,0,0,1,29.7,111.424a6.967,6.967,0,0,0,1.074-3.721l0-.081L58.19,94.481a7.041,7.041,0,0,0,2.485,1.569l1.643,23.612a7.041,7.041,0,0,0-3.647,4.437m2.917-41.521L51.777,51.212a7.051,7.051,0,0,0,3.345-3.345l32.795,7.55a7,7,0,0,0,1.12,3.2L66.544,83.3a6.954,6.954,0,0,0-4.956-.727m10.723,41.794a7.039,7.039,0,0,0-6.855-5.455l-.053,0L63.841,96.453a7.028,7.028,0,0,0,4.3-2.088l32.788,14.462c0,.063-.011.119-.011.183a7.006,7.006,0,0,0,1.042,3.672,57.968,57.968,0,0,1-29.653,11.692m29.411-18.617L69.787,91.666a7,7,0,0,0-.923-6.262L91.29,60.787a7,7,0,0,0,3.633,1.018,7.75,7.75,0,0,0,.863-.056l8.382,41.335a7.025,7.025,0,0,0-2.447,2.671m10.1-2.633a7,7,0,0,0-4.679-1.106L98.759,60.665a7.069,7.069,0,0,0,2.218-2.317l17.972,6.739a6.245,6.245,0,0,0-.032.632,7.039,7.039,0,0,0,5.658,6.9,58.016,58.016,0,0,1-12.752,30.5" transform="translate(0 0.001)" fill="#1e535a"/>
        </g>
      </g>
    </g>
    <g id="Elipse_13614" data-name="Elipse 13614" transform="translate(210.273 4348.213)" fill="#fff" stroke="#1e535a" stroke-width="3">
      <ellipse cx="42.232" cy="42.233" rx="42.232" ry="42.233" stroke="none"/>
      <ellipse cx="42.232" cy="42.233" rx="40.732" ry="40.733" fill="none"/>
    </g>
    <g id="Grupo_1211569" data-name="Grupo 1211569" transform="translate(230.956 4365.968)">
      <g id="Grupo_1211568" data-name="Grupo 1211568" clip-path="url(#clip-path-2)">
        <path id="Trazado_1274180" data-name="Trazado 1274180" d="M6.113,33.705,6.1,39.62A1.62,1.62,0,0,0,7.791,41.31l5.823,0a1.535,1.535,0,0,0,1.65-1.393l.08-3.979a17.564,17.564,0,0,0,3.081,3.209,2.066,2.066,0,0,0,.186,1.475c.928,1.228,2.889.426,3.841.732a15.792,15.792,0,0,0,10.121.077,7.294,7.294,0,0,0,2.514,3.682,4.583,4.583,0,0,1-4.518,3.842L4.592,48.94A4.563,4.563,0,0,1,0,44.339V4.611A4.6,4.6,0,0,1,4.746,0L30.417.012a4.558,4.558,0,0,1,4.744,4.576l.005,9.007a15.6,15.6,0,0,0-15.209.077,5.454,5.454,0,0,0-1.626,1.05,18.246,18.246,0,0,0-4.213,5.18l-6.63.015A1.536,1.536,0,0,0,6.1,21.554v5.674a1.834,1.834,0,0,0,.422,1.336,1.812,1.812,0,0,0,1.417.512l4.6,0a30.148,30.148,0,0,0,.693,3.031l-5.749.04a1.493,1.493,0,0,0-1.376,1.554m7.578-16.876a1.582,1.582,0,0,0,1.6-1.678V9.324a1.565,1.565,0,0,0-1.534-1.663H7.637A1.566,1.566,0,0,0,6.1,9.325v5.824A1.62,1.62,0,0,0,7.792,16.84ZM27.6,10.692A1.5,1.5,0,0,0,29.04,9.111a1.516,1.516,0,0,0-1.513-1.449H19.87a1.522,1.522,0,0,0-1.514,1.59,1.542,1.542,0,0,0,1.518,1.457Z" transform="translate(0 -0.001)" fill="#1e535a"/>
        <rect id="Rectángulo_464409" data-name="Rectángulo 464409" width="3.059" height="3.07" transform="translate(9.171 10.708)" fill="#1e535a"/>
        <path id="Trazado_1274181" data-name="Trazado 1274181" d="M133.161,121.747a4.591,4.591,0,0,1-.091,6.619,4.7,4.7,0,0,1-6.6-.31l-4.5-4.527a3.112,3.112,0,0,1-.063-4.321,5.729,5.729,0,0,0-1.133-1.131,12.243,12.243,0,1,1,2.233-2.234,4.985,4.985,0,0,0,1.139,1.12,3.08,3.08,0,0,1,4.136-.066Zm-24.685-12.323,2.715,2.695a1.529,1.529,0,0,0,2.192-.141l4.828-5.131a1.533,1.533,0,1,0-2.25-2.081l-3.782,4.007-1.748-1.679a1.486,1.486,0,0,0-2.124.184,1.532,1.532,0,0,0,.169,2.146" transform="translate(-85.61 -81.436)" fill="#1e535a"/>
        <rect id="Rectángulo_464410" data-name="Rectángulo 464410" width="3.059" height="3.07" transform="translate(9.171 22.943)" fill="#1e535a"/>
        <rect id="Rectángulo_464411" data-name="Rectángulo 464411" width="3.059" height="3.07" transform="translate(9.171 35.178)" fill="#1e535a"/>
      </g>
    </g>
  </g>
</svg>
