<svg xmlns="http://www.w3.org/2000/svg" xmlns:xlink="http://www.w3.org/1999/xlink" width="85" height="85" viewBox="0 0 85 85">
  <defs>
    <clipPath id="clip-path">
      <rect id="Rectángulo_464301" data-name="Rectángulo 464301" width="61.623" height="55.326" fill="#344866"/>
    </clipPath>
  </defs>
  <g id="Grupo_1209820" data-name="Grupo 1209820" transform="translate(-179.734 -5520.842)">
    <rect id="Rectángulo_402006" data-name="Rectángulo 402006" width="85" height="85" rx="5" transform="translate(179.734 5520.842)" fill="#69d7e5"/>
    <g id="Grupo_1211458" data-name="Grupo 1211458" transform="translate(191.423 5535.679)">
      <g id="Grupo_1211457" data-name="Grupo 1211457" clip-path="url(#clip-path)">
        <path id="Trazado_1273872" data-name="Trazado 1273872" d="M59.493,55.326l-57.446,0a2.115,2.115,0,0,1-2.013-2.09c.252-1.073-.276-2.247.115-3.247l4-10.222L4.168,3.1A3.08,3.08,0,0,1,7.208,0H54.419a3.078,3.078,0,0,1,3.036,3.1l.023,36.658,4,10.223c.391,1-.141,2.177.117,3.239a2.118,2.118,0,0,1-2.1,2.1m-4.1-53.232H6.231V38.957H55.392ZM39.481,44.086a1.9,1.9,0,0,1,1.729,1.224L42.836,49.2,59,49.179l-3.272-8.2-49.857.013-3.222,8.2,16.195-.008,1.5-3.732a2.1,2.1,0,0,1,2.044-1.391Zm1.057,5.094A26.807,26.807,0,0,0,39.279,46.1l-17,.015-1.2,3.07Zm18.954,2.053H2.132v2.051H59.491Z" transform="translate(0)" fill="#344866"/>
        <path id="Trazado_1273873" data-name="Trazado 1273873" d="M86.194,54.184H44.866a2.062,2.062,0,0,1-1.833-2.131l.006-28.588a2.04,2.04,0,0,1,1.844-2.053h41.39a2.043,2.043,0,0,1,1.844,2.054l0,28.587a2.05,2.05,0,0,1-1.927,2.133m-.121-30.74H45.083v28.7H86.072Z" transform="translate(-34.766 -17.297)" fill="#344866"/>
        <path id="Trazado_1273874" data-name="Trazado 1273874" d="M141.747,135.356l-12.171.016a1.078,1.078,0,0,1-1.139-.912,1.029,1.029,0,0,1,.978-1.145l12.245-.011a1.049,1.049,0,0,1,1.076.858,1.01,1.01,0,0,1-.989,1.194" transform="translate(-103.755 -107.696)" fill="#344866"/>
        <path id="Trazado_1273875" data-name="Trazado 1273875" d="M183.334,156.737l-10.948.006c-.69,0-1.147-.3-1.187-.917a.971.971,0,0,1,.987-1.1l11.148-.013a1.02,1.02,0,0,1,1.127.933,1,1,0,0,1-1.128,1.094" transform="translate(-138.309 -124.989)" fill="#344866"/>
        <path id="Trazado_1273876" data-name="Trazado 1273876" d="M89.731,114.049l-8.269.008a1.016,1.016,0,0,1-.976-.995A1.043,1.043,0,0,1,81.627,112l8.043.011a.965.965,0,0,1,1,.872,1,1,0,0,1-.94,1.164" transform="translate(-65.025 -90.486)" fill="#344866"/>
        <path id="Trazado_1273877" data-name="Trazado 1273877" d="M116.493,92.993,108.238,93a.967.967,0,0,1-.978-.93c-.026-.423.173-1.057.792-1.057l8.6,0c.575,0,.817.642.786,1.045a.989.989,0,0,1-.945.933" transform="translate(-86.653 -73.529)" fill="#344866"/>
        <path id="Trazado_1273878" data-name="Trazado 1273878" d="M120.589,156.741h-6.915a1.016,1.016,0,1,1,0-2.021l6.92,0a1.019,1.019,0,0,1,1.123.932,1.006,1.006,0,0,1-1.124,1.094" transform="translate(-90.929 -124.993)" fill="#344866"/>
        <path id="Trazado_1273879" data-name="Trazado 1273879" d="M66.956,51.182c.417.729,2.385,1.814,1.167,2.83a1.05,1.05,0,0,1-1.429-.109l-2-2.019a1.034,1.034,0,0,1,.069-1.488l2.015-2a1,1,0,0,1,1.579,1.194c-.335.63-1.022.956-1.4,1.589" transform="translate(-52.036 -38.884)" fill="#344866"/>
        <path id="Trazado_1273880" data-name="Trazado 1273880" d="M130.2,53.875a1.038,1.038,0,0,1-1.562.032c-.924-1.105.714-1.845,1.293-2.725-.535-.832-2.206-1.632-1.285-2.709a1.02,1.02,0,0,1,1.5-.031l2.006,2.01a1.064,1.064,0,0,1,0,1.458Z" transform="translate(-103.706 -38.882)" fill="#344866"/>
        <path id="Trazado_1273881" data-name="Trazado 1273881" d="M86.606,135.336l-5,.017a1.053,1.053,0,0,1-1.131-1.05,1.066,1.066,0,0,1,1.139-1.021l4.956.017a1.044,1.044,0,0,1,1.049,1,1.007,1.007,0,0,1-1.018,1.041" transform="translate(-65.019 -107.678)" fill="#344866"/>
        <path id="Trazado_1273882" data-name="Trazado 1273882" d="M98.378,53.61a1.036,1.036,0,0,1-1.41.536,1.012,1.012,0,0,1-.469-1.351l2.033-4.069a1.036,1.036,0,0,1,1.341-.512,1,1,0,0,1,.513,1.353Z" transform="translate(-77.876 -38.885)" fill="#344866"/>
        <path id="Trazado_1273883" data-name="Trazado 1273883" d="M218.9,134.154c.25,1.617-2.2,1.229-4,1.2a1.036,1.036,0,0,1-1.069-1.022A1.024,1.024,0,0,1,214.9,133.3l2.879-.005a1.061,1.061,0,0,1,1.118.858" transform="translate(-172.753 -107.689)" fill="#344866"/>
        <path id="Trazado_1273884" data-name="Trazado 1273884" d="M74,92.811a29.1,29.1,0,0,1-3.158.04,1.063,1.063,0,0,1-1.072-.951,1,1,0,0,1,1.063-1.061l2.9-.01a1.03,1.03,0,0,1,1.113.753A.99.99,0,0,1,74,92.811" transform="translate(-56.362 -73.379)" fill="#344866"/>
        <path id="Trazado_1273885" data-name="Trazado 1273885" d="M84.016,156.4c-.864.2-3.357.512-3.475-.8-.132-1.472,2.345-1.19,3.412-1.006a.832.832,0,0,1,.6.832c.015.31-.048.863-.54.978" transform="translate(-65.064 -124.766)" fill="#344866"/>
      </g>
    </g>
  </g>
</svg>
