<svg xmlns="http://www.w3.org/2000/svg" xmlns:xlink="http://www.w3.org/1999/xlink" width="396" height="261.757" viewBox="0 0 396 261.757">
  <defs>
    <clipPath id="clip-path">
      <rect id="Rectángulo_460891" data-name="Rectángulo 460891" width="292.055" height="261.757" fill="none"/>
    </clipPath>
  </defs>
  <g id="Grupo_1211154" data-name="Grupo 1211154" transform="translate(-185.711 -4226)">
    <rect id="Rectángulo_460050" data-name="Rectángulo 460050" width="396" height="260" transform="translate(185.711 4227)" fill="none"/>
    <g id="Grupo_1211153" data-name="Grupo 1211153" transform="translate(237.711 4226)">
      <g id="Grupo_1211152" data-name="Grupo 1211152" clip-path="url(#clip-path)">
        <path id="Trazado_1273195" data-name="Trazado 1273195" d="M350.851,6.179l-4.44-4.44a1.8,1.8,0,0,0-2.55,0L316.542,29.058l5.714,5.715Z" transform="translate(-99.313 -0.38)" fill="#7d8ea0"/>
        <rect id="Rectángulo_460884" data-name="Rectángulo 460884" width="37.04" height="32.863" transform="translate(221.507 28.15) rotate(-45)" fill="#6db6c6"/>
        <path id="Trazado_1273196" data-name="Trazado 1273196" d="M340.259,65.5a3.368,3.368,0,0,0-.992,2.363l-22.19-22.189a1.982,1.982,0,0,1-.386-2.276,3.526,3.526,0,0,1,.622-.843,3.621,3.621,0,0,1,.851-.63,1.981,1.981,0,0,1,2.276.386L342.63,64.5a3.379,3.379,0,0,0-2.371,1" transform="translate(-99.296 -13.09)" fill="#fec130"/>
        <path id="Trazado_1273197" data-name="Trazado 1273197" d="M320,41.877a1.962,1.962,0,0,0-2.275-.382,3.435,3.435,0,0,0-.854.625,3.39,3.39,0,0,0-.619.848,1.962,1.962,0,0,0,.384,2.272l22.883,22.883-.717.717L316.1,46.13a3.428,3.428,0,0,1-1-2.434,3.4,3.4,0,0,1,3.364-3.363h.031a3.421,3.421,0,0,1,2.4,1l22.71,22.71-.716.717Z" transform="translate(-98.859 -12.654)" fill="#8bd2e7"/>
        <path id="Trazado_1273198" data-name="Trazado 1273198" d="M338.888,64.714,319.654,45.48a.418.418,0,1,1,.591-.591l19.234,19.234a.418.418,0,1,1-.591.591" transform="translate(-100.251 -14.045)" fill="#f69c00"/>
        <path id="Trazado_1273199" data-name="Trazado 1273199" d="M317.439,55.814l-.131-1.707-1.707-.131,5.347-5.347,1.838,1.838Z" transform="translate(-99.017 -15.257)" fill="#c6209a"/>
        <rect id="Rectángulo_460885" data-name="Rectángulo 460885" width="4.642" height="18.381" transform="matrix(0.707, -0.707, 0.707, 0.707, 240.412, 19.486)" fill="#fff"/>
        <path id="Trazado_1273200" data-name="Trazado 1273200" d="M81.632,119.931c-5.656,9.352-7.191,21.745-1.7,31.195,3.417,5.877,9.247,10.294,11.609,16.669,3.518,9.494-1.656,19.723-5.719,29-9.07,20.7-12.535,46.215.152,64.923,6.585,9.711,16.961,16.535,28.192,19.929,25.534,7.716,62.333-23.789,68.447-28.03,8.254-5.725,22.609-8.964,32.458-10.941a83.273,83.273,0,0,1,30.858.078c36.69,6.558,54.275-15.308,57.407-21.176,3.477-6.515,2.663-14.744-.811-21.261s-9.292-11.509-15.573-15.393c-4.638-2.869-9.739-5.343-13.089-9.647-5.348-6.873-4.868-16.41-5.806-25.068-1.631-15.068-8.243-29.178-16.2-42.079-3.68-5.968-7.727-11.815-13.012-16.424-7.989-6.966-18.347-10.682-28.76-12.659-18.887-3.586-38.321-1.821-56.913,2.568-16.259,3.839-35.294,8.61-49.437,17.8-8.4,5.462-16.848,11.823-22.106,20.517" transform="translate(-24.006 -24.197)" fill="#ffe79e"/>
        <path id="Trazado_1273201" data-name="Trazado 1273201" d="M306.332,351.562h-1.914a7.582,7.582,0,0,0-.945-2.286l1.351-1.352a.762.762,0,0,0,0-1.077l-1.4-1.405a.762.762,0,0,0-1.078,0L300.99,346.8a7.513,7.513,0,0,0-2.286-.948v-1.912a.762.762,0,0,0-.762-.762h-1.985a.762.762,0,0,0-.762.762v1.912a7.5,7.5,0,0,0-2.286.948l-1.354-1.354a.762.762,0,0,0-1.078,0l-1.4,1.405a.762.762,0,0,0,0,1.077l1.352,1.352a7.565,7.565,0,0,0-.945,2.286h-1.915a.762.762,0,0,0-.762.762v1.987a.762.762,0,0,0,.762.762h1.912a7.554,7.554,0,0,0,.948,2.286l-1.352,1.351a.762.762,0,0,0,0,1.077l1.4,1.405a.763.763,0,0,0,1.078,0l1.354-1.354a7.518,7.518,0,0,0,2.286.948V362.7a.762.762,0,0,0,.762.762h1.985a.762.762,0,0,0,.762-.762v-1.914a7.532,7.532,0,0,0,2.286-.948l1.353,1.354a.763.763,0,0,0,1.078,0l1.4-1.405a.762.762,0,0,0,0-1.077l-1.351-1.351a7.572,7.572,0,0,0,.948-2.286h1.911a.762.762,0,0,0,.762-.762v-1.987a.762.762,0,0,0-.762-.762m-5.556,3.1a3.781,3.781,0,0,1-.17.411,4.069,4.069,0,0,1-1.9,1.9,4.133,4.133,0,0,1-.408.169,4.049,4.049,0,0,1-3.1-.169,4.071,4.071,0,0,1-1.9-1.9,3.926,3.926,0,0,1-.17-.411,4.069,4.069,0,0,1,0-2.689,3.385,3.385,0,0,1,.172-.411,4.061,4.061,0,0,1,1.9-1.9,3.905,3.905,0,0,1,.41-.169,4.062,4.062,0,0,1,2.687,0,3.913,3.913,0,0,1,.411.169,4.059,4.059,0,0,1,1.9,1.9,3.277,3.277,0,0,1,.172.411,4.069,4.069,0,0,1,0,2.689" transform="translate(-89.983 -107.668)" fill="#ffd453"/>
        <path id="Trazado_1273202" data-name="Trazado 1273202" d="M397.426,239.706a23.318,23.318,0,1,1,0-32.977,23.317,23.317,0,0,1,0,32.977" transform="translate(-112.2 -62.717)" fill="#f69c00"/>
        <path id="Trazado_1273203" data-name="Trazado 1273203" d="M396.657,238.937a20.245,20.245,0,1,1,0-28.631,20.245,20.245,0,0,1,0,28.631" transform="translate(-113.605 -64.121)" fill="#ffd453"/>
        <path id="Trazado_1273204" data-name="Trazado 1273204" d="M388.507,237.139c2.084-2.084,2.09-4.8.177-8.645-1.381-2.829-1.884-4.166-.941-5.11.768-.768,2.2-.652,3.8.945a12.232,12.232,0,0,1,1.758,2.209,2.2,2.2,0,0,0,2.839.9,1.939,1.939,0,0,0,.636-2.786,16.919,16.919,0,0,0-2.193-2.758l2.9-2.9a1.283,1.283,0,0,0-1.815-1.815l-3.018,3.019c-3.347-2.43-6.761-2.409-8.916-.255s-1.745,5.277.109,8.843c1.324,2.6,1.571,3.9.65,4.819-.966.966-2.5.706-4.192-.988a13.755,13.755,0,0,1-2.217-2.965,2.182,2.182,0,0,0-2.917-.918l-.052.03a1.949,1.949,0,0,0-.605,2.728,18.825,18.825,0,0,0,2.829,3.652c.062.063.125.116.187.176l-2.728,2.728a1.283,1.283,0,1,0,1.815,1.814l2.888-2.888c3.641,2.568,6.931,2.24,9.006.164" transform="translate(-117.402 -68.02)" fill="#fff"/>
        <path id="Trazado_1273205" data-name="Trazado 1273205" d="M28.1,58.91l16.791-.7,26.731-18.86L50.685,59.669,65.353,69.816,76.33,34.548Z" transform="translate(-8.817 -10.839)" fill="#8bd2e7"/>
        <path id="Trazado_1273206" data-name="Trazado 1273206" d="M52.57,60.4,57.2,74.233l1.159-12.37L79.3,41.541Z" transform="translate(-16.493 -13.033)" fill="#6db6c6"/>
        <path id="Trazado_1273207" data-name="Trazado 1273207" d="M59.321,83.524l6.407-8.739L60.48,71.153Z" transform="translate(-18.611 -22.324)" fill="#7d8ea0"/>
        <path id="Trazado_1273208" data-name="Trazado 1273208" d="M51.907,94.87a.686.686,0,0,1-.5-1.161l.244-.252a.686.686,0,1,1,.982.959l-.235.243a.685.685,0,0,1-.5.211" transform="translate(-16.07 -29.257)" fill="#d98490"/>
        <path id="Trazado_1273209" data-name="Trazado 1273209" d="M106.519,212.292a.686.686,0,0,1-.006-1.373q.339,0,.681-.01h.014a.686.686,0,0,1,.014,1.373q-.351.006-.7.01Zm-2.744-.035h-.026l-.7-.029a.686.686,0,0,1,.065-1.371l.682.029a.686.686,0,0,1-.025,1.372m6.174-.084a.686.686,0,0,1-.039-1.371l.682-.043a.7.7,0,0,1,.73.639.687.687,0,0,1-.639.731l-.693.043h-.041m-9.6-.148c-.023,0-.047,0-.07,0-.233-.025-.465-.049-.694-.076a.686.686,0,1,1,.157-1.363c.224.025.449.05.676.073a.686.686,0,0,1-.069,1.369m-3.392-.471a.632.632,0,0,1-.124-.012c-.231-.042-.46-.084-.687-.129a.687.687,0,0,1,.266-1.347q.33.065.667.127a.686.686,0,0,1-.123,1.361m-3.34-.754a.689.689,0,0,1-.181-.024q-.341-.094-.675-.192a.686.686,0,1,1,.387-1.316c.215.063.432.125.65.184a.686.686,0,0,1-.181,1.348m-3.25-1.068a.677.677,0,0,1-.249-.047q-.329-.128-.652-.262a.686.686,0,1,1,.524-1.268c.206.085.415.169.626.251a.686.686,0,0,1-.249,1.326m-3.114-1.416a.686.686,0,0,1-.319-.079q-.313-.165-.62-.336a.686.686,0,1,1,.668-1.2q.291.163.59.319a.686.686,0,0,1-.32,1.294m-2.923-1.773a.68.68,0,0,1-.39-.122c-.194-.134-.386-.271-.576-.41a.686.686,0,1,1,.811-1.107q.27.2.546.388a.686.686,0,0,1-.391,1.25m-2.685-2.118a.682.682,0,0,1-.457-.175c-.176-.156-.349-.316-.52-.476a.686.686,0,0,1,.939-1c.163.154.329.3.5.454a.686.686,0,0,1-.458,1.2M79.234,202a.687.687,0,0,1-.513-.229q-.234-.262-.462-.532a.686.686,0,1,1,1.045-.889c.145.17.292.34.441.506A.687.687,0,0,1,79.234,202m-2.14-2.68a.685.685,0,0,1-.558-.286c-.136-.19-.271-.381-.4-.573a.686.686,0,1,1,1.129-.78q.192.279.39.553a.687.687,0,0,1-.557,1.086m-1.874-2.871a.685.685,0,0,1-.59-.335q-.179-.3-.353-.605a.687.687,0,0,1,1.192-.682q.168.294.341.585a.686.686,0,0,1-.589,1.037m-1.641-3.013a.687.687,0,0,1-.615-.38c-.1-.207-.206-.417-.307-.625a.686.686,0,1,1,1.235-.6c.1.205.2.408.3.611a.686.686,0,0,1-.614.993m-1.444-3.114a.686.686,0,0,1-.631-.415q-.138-.319-.272-.642a.686.686,0,0,1,1.265-.53c.089.211.177.419.267.628a.688.688,0,0,1-.629.959m-1.287-3.184a.685.685,0,0,1-.642-.444l-.244-.65a.686.686,0,0,1,1.287-.477l.241.642a.686.686,0,0,1-.642.929m-1.165-3.233a.687.687,0,0,1-.649-.463l-.224-.657a.686.686,0,1,1,1.3-.439l.222.649a.688.688,0,0,1-.649.909m-1.077-3.263a.686.686,0,0,1-.653-.478l-.209-.66a.686.686,0,0,1,1.309-.412l.207.655a.686.686,0,0,1-.654.895m-1.018-3.281a.687.687,0,0,1-.657-.488l-.2-.662a.686.686,0,1,1,1.314-.4l.2.66a.686.686,0,0,1-.657.885m-.986-3.293a.686.686,0,0,1-.657-.491l-.2-.661a.686.686,0,0,1,1.316-.391l.2.661a.687.687,0,0,1-.463.854.716.716,0,0,1-.2.028m-.981-3.293a.686.686,0,0,1-.657-.491l-.2-.659a.686.686,0,1,1,1.314-.4l.2.664a.687.687,0,0,1-.462.854.717.717,0,0,1-.2.028m-1-3.288a.687.687,0,0,1-.655-.484l-.2-.657a.686.686,0,0,1,1.31-.408l.2.66a.685.685,0,0,1-.452.858.674.674,0,0,1-.2.032m-1.04-3.283a.687.687,0,0,1-.653-.474l-.215-.656a.687.687,0,0,1,1.3-.43l.216.66a.687.687,0,0,1-.652.9m-1.1-3.261a.687.687,0,0,1-.648-.459l-.229-.648a.686.686,0,1,1,1.292-.462l.232.655a.686.686,0,0,1-.42.875.674.674,0,0,1-.227.039m-1.187-3.227a.688.688,0,0,1-.641-.441l-.248-.638a.686.686,0,1,1,1.277-.5l.252.648a.687.687,0,0,1-.64.933M60,154.533a.685.685,0,0,1-.631-.417l-.272-.627a.686.686,0,1,1,1.257-.551l.276.638a.686.686,0,0,1-.631.957M58.587,151.4a.685.685,0,0,1-.619-.388l-.3-.614a.686.686,0,0,1,1.231-.607l.3.625a.686.686,0,0,1-.618.984m-1.563-3.057a.686.686,0,0,1-.6-.358q-.163-.3-.329-.6a.686.686,0,0,1,1.2-.67q.171.3.337.611a.686.686,0,0,1-.6,1.014m-28.01-.522c-.224,0-.44-.01-.651-.029a.686.686,0,1,1,.123-1.367c.171.015.347.023.528.023h.1a.686.686,0,0,1,.007,1.373Zm2.794-.467a.687.687,0,0,1-.2-1.342q.3-.095.62-.211a.686.686,0,1,1,.473,1.289q-.35.129-.686.233a.682.682,0,0,1-.2.032m-5.931-.478a.679.679,0,0,1-.4-.132,5.438,5.438,0,0,1-.6-.51.687.687,0,0,1,.962-.98,3.979,3.979,0,0,0,.447.381.686.686,0,0,1-.4,1.241m9.075-.892a.686.686,0,0,1-.342-1.282q.285-.164.545-.337a.686.686,0,1,1,.764,1.14c-.2.133-.407.263-.627.388a.688.688,0,0,1-.34.091m20.345-.611a.685.685,0,0,1-.583-.323q-.181-.29-.365-.578a.686.686,0,1,1,1.157-.739q.187.293.372.59a.686.686,0,0,1-.581,1.05M23.95,144.107a.687.687,0,0,1-.651-.469q-.117-.351-.205-.723a.686.686,0,1,1,1.335-.317c.049.207.106.409.172.6a.687.687,0,0,1-.651.9m13.551-.371a.686.686,0,0,1-.562-1.079,6.176,6.176,0,0,0,.328-.524.686.686,0,1,1,1.2.666,7.441,7.441,0,0,1-.4.644.685.685,0,0,1-.563.294m15.886-1.218a.684.684,0,0,1-.559-.288q-.2-.277-.4-.552a.686.686,0,0,1,1.106-.814c.139.189.277.377.412.568a.686.686,0,0,1-.558,1.085m-29.868-1.8h-.027a.686.686,0,0,1-.659-.712q.014-.36.049-.726a.686.686,0,1,1,1.366.13q-.031.327-.045.65a.686.686,0,0,1-.685.659m15.2-.159a.736.736,0,0,1-.1-.007.687.687,0,0,1-.578-.78q.047-.315.074-.641a.686.686,0,0,1,1.368.115q-.031.371-.084.729a.687.687,0,0,1-.678.585m12.576-.762a.684.684,0,0,1-.529-.249q-.216-.261-.437-.52a.686.686,0,0,1,1.046-.889q.226.267.45.536a.686.686,0,0,1-.529,1.123m-27.187-2.454a.688.688,0,0,1-.656-.889q.106-.344.229-.686a.687.687,0,1,1,1.292.466q-.112.31-.208.623a.687.687,0,0,1-.656.485m24.912-.117a.684.684,0,0,1-.5-.214c-.159-.167-.315-.331-.471-.493a.686.686,0,1,1,.985-.955q.24.247.482.5a.686.686,0,0,1-.5,1.158m-10.271-.093a.686.686,0,0,1-.682-.619q-.033-.329-.076-.666a.686.686,0,0,1,1.362-.174c.031.237.058.473.08.7a.686.686,0,0,1-.616.75.559.559,0,0,1-.067,0m7.825-2.317a.683.683,0,0,1-.461-.178q-.254-.231-.506-.452a.686.686,0,0,1,.906-1.031q.26.229.523.467a.687.687,0,0,1-.462,1.195M25.5,134.211a.686.686,0,0,1-.587-1.04q.187-.311.39-.611a.686.686,0,0,1,1.136.77q-.183.27-.351.55a.687.687,0,0,1-.589.331m12.7-.467a.687.687,0,0,1-.672-.548q-.068-.33-.141-.666a.686.686,0,1,1,1.341-.293q.075.344.145.683a.688.688,0,0,1-.673.825m5.721-1.112a.679.679,0,0,1-.407-.135q-.275-.2-.546-.393a.686.686,0,1,1,.788-1.124q.285.2.573.413a.686.686,0,0,1-.408,1.238m-16.278-1.086a.687.687,0,0,1-.467-1.189q.269-.249.552-.482a.686.686,0,0,1,.868,1.063q-.25.2-.487.424a.685.685,0,0,1-.467.184m13.391-.768a.686.686,0,0,1-.327-.083q-.3-.162-.59-.307a.686.686,0,1,1,.613-1.228q.314.155.633.329a.686.686,0,0,1-.329,1.289m-3.6-.382a.686.686,0,0,1-.666-.525l-.163-.668a3.515,3.515,0,0,0-.05-.809.69.69,0,0,1,.834-.5c.23.058.463.123.7.2a.686.686,0,0,1-.019,1.318l.034.139a.686.686,0,0,1-.506.828.7.7,0,0,1-.162.019m-6.938-.732a.686.686,0,0,1-.273-1.316q.337-.145.686-.269a.686.686,0,1,1,.456,1.295q-.3.107-.6.233a.677.677,0,0,1-.273.057m3.323-.774a.686.686,0,0,1-.035-1.372q.28-.014.566-.015h.172a.686.686,0,0,1-.013,1.373h-.158c-.167,0-.332,0-.5.014h-.036m2.805-1.832a.688.688,0,0,1-.668-.528l-.158-.675a.686.686,0,0,1,1.338-.309l.156.668a.687.687,0,0,1-.51.826.7.7,0,0,1-.159.019m-.737-3.356a.687.687,0,0,1-.673-.552q-.068-.341-.132-.685a.686.686,0,0,1,1.349-.253q.063.336.129.669a.685.685,0,0,1-.538.807.65.65,0,0,1-.135.014m-.572-3.386a.686.686,0,0,1-.679-.593q-.048-.347-.089-.7a.686.686,0,0,1,1.362-.163q.041.337.086.673a.687.687,0,0,1-.587.773.73.73,0,0,1-.094.006m-.323-3.42a.686.686,0,0,1-.685-.651c-.012-.235-.022-.469-.029-.705a.686.686,0,0,1,.665-.706.678.678,0,0,1,.707.665c.007.226.016.452.027.677a.686.686,0,0,1-.651.72h-.035m0-3.437H34.96a.687.687,0,0,1-.648-.723q.02-.352.047-.7a.686.686,0,0,1,1.368.108q-.026.337-.045.673a.686.686,0,0,1-.684.649m.4-3.411a.624.624,0,0,1-.123-.011.686.686,0,0,1-.553-.8c.042-.231.086-.463.135-.694a.686.686,0,1,1,1.344.279q-.069.329-.128.66a.686.686,0,0,1-.675.563m.83-3.329a.673.673,0,0,1-.209-.033.686.686,0,0,1-.445-.863c.071-.224.148-.448.226-.673a.686.686,0,1,1,1.294.456q-.112.317-.213.635a.687.687,0,0,1-.653.477m1.266-3.189a.672.672,0,0,1-.294-.067.686.686,0,0,1-.325-.914q.151-.318.313-.635a.686.686,0,1,1,1.223.623q-.152.3-.3.6a.686.686,0,0,1-.62.391m1.669-3a.686.686,0,0,1-.577-1.056q.189-.294.388-.589a.686.686,0,1,1,1.139.767q-.19.282-.37.563a.686.686,0,0,1-.579.316m2.014-2.779a.686.686,0,0,1-.533-1.119q.219-.271.449-.542a.686.686,0,0,1,1.048.887q-.22.26-.431.52a.685.685,0,0,1-.533.254" transform="translate(-7.163 -30.072)" fill="#d98490"/>
        <path id="Trazado_1273210" data-name="Trazado 1273210" d="M152.366,264.506a.686.686,0,0,1-.056-1.37l.338-.029a.686.686,0,1,1,.12,1.367l-.346.03-.056,0" transform="translate(-47.589 -82.547)" fill="#d98490"/>
        <path id="Trazado_1273211" data-name="Trazado 1273211" d="M100.416,297.085H97.025a13.423,13.423,0,0,0-1.674-4.05l2.394-2.394a1.349,1.349,0,0,0,0-1.908l-2.487-2.49a1.35,1.35,0,0,0-1.91,0l-2.4,2.4a13.32,13.32,0,0,0-4.05-1.679v-3.387a1.35,1.35,0,0,0-1.35-1.35H82.035a1.35,1.35,0,0,0-1.35,1.35v3.387a13.327,13.327,0,0,0-4.05,1.679l-2.4-2.4a1.35,1.35,0,0,0-1.91,0l-2.487,2.49a1.349,1.349,0,0,0,0,1.908l2.4,2.394a13.424,13.424,0,0,0-1.674,4.05H67.17a1.35,1.35,0,0,0-1.35,1.35v3.521a1.35,1.35,0,0,0,1.35,1.35h3.387a13.383,13.383,0,0,0,1.679,4.05l-2.4,2.394a1.349,1.349,0,0,0,0,1.908l2.487,2.49a1.35,1.35,0,0,0,1.91,0l2.4-2.4a13.328,13.328,0,0,0,4.05,1.679v3.392a1.35,1.35,0,0,0,1.35,1.35h3.516a1.35,1.35,0,0,0,1.35-1.35v-3.392a13.321,13.321,0,0,0,4.05-1.679l2.4,2.4a1.35,1.35,0,0,0,1.91,0l2.487-2.49a1.349,1.349,0,0,0,0-1.908l-2.394-2.394a13.364,13.364,0,0,0,1.679-4.05h3.387a1.35,1.35,0,0,0,1.35-1.35v-3.521a1.35,1.35,0,0,0-1.35-1.35m-9.843,5.492a6.766,6.766,0,0,1-.3.728,7.212,7.212,0,0,1-3.372,3.372,7.034,7.034,0,0,1-.723.3,7.186,7.186,0,0,1-5.492-.3,7.218,7.218,0,0,1-3.372-3.372,6.9,6.9,0,0,1-.3-.728,7.209,7.209,0,0,1,0-4.764,6.04,6.04,0,0,1,.3-.728,7.2,7.2,0,0,1,3.367-3.367,6.824,6.824,0,0,1,.728-.3,7.2,7.2,0,0,1,4.76,0,6.754,6.754,0,0,1,.727.3,7.2,7.2,0,0,1,3.367,3.367,6.04,6.04,0,0,1,.3.728,7.209,7.209,0,0,1,0,4.764" transform="translate(-20.651 -88.546)" fill="#7d8ea0"/>
        <path id="Trazado_1273212" data-name="Trazado 1273212" d="M60.694,339.969H58.632a8.147,8.147,0,0,0-1.018-2.462l1.456-1.456a.82.82,0,0,0,0-1.16l-1.512-1.514a.821.821,0,0,0-1.16,0l-1.458,1.458a8.1,8.1,0,0,0-2.462-1.02v-2.059a.821.821,0,0,0-.821-.82H49.521a.82.82,0,0,0-.82.82v2.059a8.081,8.081,0,0,0-2.462,1.02l-1.458-1.458a.821.821,0,0,0-1.16,0l-1.512,1.514a.82.82,0,0,0,0,1.16l1.456,1.456a8.147,8.147,0,0,0-1.018,2.462H40.486a.82.82,0,0,0-.82.82v2.14a.821.821,0,0,0,.82.821h2.059a8.126,8.126,0,0,0,1.02,2.461l-1.456,1.456a.82.82,0,0,0,0,1.16l1.512,1.513a.82.82,0,0,0,1.16,0l1.458-1.458A8.083,8.083,0,0,0,48.7,349.9v2.062a.821.821,0,0,0,.82.821h2.137a.821.821,0,0,0,.821-.821V349.9a8.1,8.1,0,0,0,2.462-1.02L56.4,350.34a.82.82,0,0,0,1.16,0l1.512-1.513a.82.82,0,0,0,0-1.16l-1.456-1.456a8.126,8.126,0,0,0,1.02-2.461h2.059a.821.821,0,0,0,.821-.821v-2.14a.821.821,0,0,0-.821-.82m-5.983,3.338a4.164,4.164,0,0,1-.183.443,4.375,4.375,0,0,1-2.489,2.232A4.361,4.361,0,0,1,48.7,345.8a4.384,4.384,0,0,1-2.049-2.049,4.024,4.024,0,0,1-.183-.443,4.376,4.376,0,0,1,0-2.9,3.525,3.525,0,0,1,.185-.443,4.366,4.366,0,0,1,2.046-2.046,3.989,3.989,0,0,1,.443-.183,4.368,4.368,0,0,1,2.893,0,4.045,4.045,0,0,1,.443.183,4.373,4.373,0,0,1,2.046,2.046,3.631,3.631,0,0,1,.185.443,4.376,4.376,0,0,1,0,2.9" transform="translate(-12.445 -103.829)" fill="#8bd2e7"/>
        <path id="Trazado_1273213" data-name="Trazado 1273213" d="M134.568,338.158c.1-.534.825-1.013.825-1.576s-.721-1.042-.825-1.576.371-1.264.163-1.768-1.062-.681-1.368-1.136-.139-1.309-.528-1.694-1.235-.222-1.694-.528-.622-1.156-1.136-1.368-1.225.272-1.768.163c-.528-.1-1.012-.826-1.576-.826s-1.042.721-1.571.826c-.548.108-1.27-.371-1.773-.163s-.677,1.062-1.131,1.368-1.309.138-1.7.528-.222,1.24-.529,1.694-1.156.627-1.368,1.136.271,1.225.163,1.768-.825,1.013-.825,1.576.721,1.042.825,1.576-.371,1.264-.163,1.768,1.066.681,1.368,1.136.139,1.309.529,1.694,1.239.222,1.694.528.627,1.156,1.136,1.368,1.225-.272,1.773-.163c.528.1,1.013.826,1.571.826s1.047-.721,1.576-.826c.544-.108,1.265.371,1.768.163s.681-1.062,1.136-1.368,1.309-.138,1.694-.528.222-1.24.528-1.694,1.156-.627,1.368-1.136-.272-1.226-.163-1.768m-7.908,2.954a4.53,4.53,0,1,1,4.53-4.53,4.532,4.532,0,0,1-4.53,4.53" transform="translate(-36.998 -102.86)" fill="#2b6b87"/>
        <path id="Trazado_1273214" data-name="Trazado 1273214" d="M274.817,32.92h-1.688a6.665,6.665,0,0,0-.834-2.016l1.193-1.192a.672.672,0,0,0,0-.95l-1.238-1.239a.672.672,0,0,0-.95,0l-1.194,1.194a6.612,6.612,0,0,0-2.016-.836V26.195a.673.673,0,0,0-.672-.673h-1.751a.673.673,0,0,0-.672.673V27.88a6.613,6.613,0,0,0-2.016.836l-1.194-1.194a.672.672,0,0,0-.95,0L259.6,28.762a.672.672,0,0,0,0,.95L260.79,30.9a6.664,6.664,0,0,0-.834,2.016h-1.688a.672.672,0,0,0-.672.672v1.752a.672.672,0,0,0,.672.672h1.686a6.643,6.643,0,0,0,.836,2.016L259.6,39.224a.672.672,0,0,0,0,.95l1.238,1.239a.671.671,0,0,0,.95,0l1.194-1.193a6.629,6.629,0,0,0,2.016.835v1.688a.673.673,0,0,0,.672.673h1.751a.673.673,0,0,0,.672-.673V41.055a6.628,6.628,0,0,0,2.016-.835l1.194,1.193a.671.671,0,0,0,.95,0l1.238-1.239a.672.672,0,0,0,0-.95l-1.193-1.193a6.643,6.643,0,0,0,.836-2.016h1.686a.672.672,0,0,0,.672-.672V33.592a.672.672,0,0,0-.672-.672m-4.9,2.733a3.286,3.286,0,0,1-.15.362,3.569,3.569,0,0,1-2.038,1.828A3.584,3.584,0,0,1,265,37.694a3.59,3.59,0,0,1-1.678-1.679,3.28,3.28,0,0,1-.15-.362,3.584,3.584,0,0,1,0-2.371,2.938,2.938,0,0,1,.152-.362,3.575,3.575,0,0,1,6.446,0,2.943,2.943,0,0,1,.152.362,3.583,3.583,0,0,1,0,2.371" transform="translate(-80.819 -8.007)" fill="#69d7e5"/>
        <path id="Trazado_1273215" data-name="Trazado 1273215" d="M238.4,24.73c.146-.752,1.163-1.427,1.163-2.221s-1.016-1.469-1.163-2.221.522-1.782.229-2.492-1.5-.961-1.928-1.6-.195-1.845-.745-2.387-1.74-.313-2.387-.745-.877-1.628-1.6-1.928-1.727.383-2.492.23c-.745-.146-1.427-1.163-2.221-1.163s-1.469,1.016-2.214,1.163c-.772.153-1.788-.522-2.5-.23s-.953,1.5-1.594,1.928-1.844.195-2.394.745-.313,1.747-.745,2.387-1.628.884-1.928,1.6.383,1.727.23,2.492-1.163,1.427-1.163,2.221,1.016,1.469,1.163,2.221-.522,1.782-.23,2.492,1.5.96,1.928,1.6.195,1.844.745,2.387,1.747.313,2.387.745.884,1.628,1.6,1.928,1.727-.382,2.5-.229c.745.146,1.427,1.163,2.214,1.163s1.475-1.016,2.221-1.163c.765-.153,1.782.522,2.492.229s.96-1.5,1.6-1.928,1.844-.195,2.387-.745.313-1.747.745-2.387,1.628-.885,1.928-1.6-.382-1.727-.229-2.492m-11.144,4.162a6.383,6.383,0,1,1,6.383-6.383,6.387,6.387,0,0,1-6.383,6.383" transform="translate(-67.438 -3.201)" fill="#7d8ea0"/>
        <rect id="Rectángulo_460886" data-name="Rectángulo 460886" width="9.586" height="4.575" transform="translate(222.139 183.566)" fill="#fec130"/>
        <path id="Trazado_1273216" data-name="Trazado 1273216" d="M333.017,261.823H322.346a1.149,1.149,0,0,0-1.225,1.054v1.781a1.149,1.149,0,0,0,1.225,1.054h10.671a1.149,1.149,0,0,0,1.225-1.054v-1.781a1.149,1.149,0,0,0-1.225-1.054" transform="translate(-100.749 -82.145)" fill="#69d7e5"/>
        <path id="Trazado_1273217" data-name="Trazado 1273217" d="M343.386,296.182a23.406,23.406,0,1,1-23.406-23.406,23.406,23.406,0,0,1,23.406,23.406" transform="translate(-93.048 -85.581)" fill="#69d7e5"/>
        <path id="Trazado_1273218" data-name="Trazado 1273218" d="M339.723,299.268a16.658,16.658,0,1,1-16.658-16.658,16.658,16.658,0,0,1,16.658,16.658" transform="translate(-96.133 -88.667)" fill="#1e535a"/>
        <path id="Trazado_1273219" data-name="Trazado 1273219" d="M332.92,305a4.124,4.124,0,1,1-4.124-4.124A4.125,4.125,0,0,1,332.92,305" transform="translate(-101.863 -94.397)" fill="#ffd453"/>
        <path id="Trazado_1273220" data-name="Trazado 1273220" d="M330.211,301.956a1.028,1.028,0,0,1-.931-1.468l5.645-12a1.03,1.03,0,0,1,1.863.876l-5.646,12a1.027,1.027,0,0,1-.932.59" transform="translate(-103.278 -90.326)" fill="#ffd453"/>
        <path id="Trazado_1273221" data-name="Trazado 1273221" d="M330.368,284.137a.686.686,0,0,1-.686-.686v-4.232a.686.686,0,0,1,1.372,0v4.232a.686.686,0,0,1-.686.686" transform="translate(-103.435 -87.387)" fill="#69d7e5"/>
        <path id="Trazado_1273222" data-name="Trazado 1273222" d="M330.368,332.672a.686.686,0,0,1-.686-.686v-4.231a.686.686,0,0,1,1.372,0v4.231a.686.686,0,0,1-.686.686" transform="translate(-103.435 -102.615)" fill="#69d7e5"/>
        <path id="Trazado_1273223" data-name="Trazado 1273223" d="M355.783,307.256h-4.232a.686.686,0,0,1,0-1.373h4.232a.686.686,0,0,1,0,1.373" transform="translate(-110.081 -95.968)" fill="#69d7e5"/>
        <path id="Trazado_1273224" data-name="Trazado 1273224" d="M307.248,307.256h-4.232a.686.686,0,0,1,0-1.373h4.232a.686.686,0,0,1,0,1.373" transform="translate(-94.854 -95.968)" fill="#69d7e5"/>
        <path id="Trazado_1273225" data-name="Trazado 1273225" d="M345.426,290.815a.515.515,0,0,1-.364-.878l2.992-2.993a.515.515,0,1,1,.728.728l-2.993,2.992a.511.511,0,0,1-.364.151" transform="translate(-108.213 -89.979)" fill="#69d7e5"/>
        <path id="Trazado_1273226" data-name="Trazado 1273226" d="M311.106,325.134a.515.515,0,0,1-.364-.878l2.993-2.993a.515.515,0,0,1,.728.728l-2.993,2.992a.511.511,0,0,1-.364.151" transform="translate(-97.446 -100.747)" fill="#69d7e5"/>
        <path id="Trazado_1273227" data-name="Trazado 1273227" d="M348.418,325.134a.511.511,0,0,1-.364-.151l-2.993-2.992a.515.515,0,0,1,.728-.728l2.992,2.993a.515.515,0,0,1-.364.878" transform="translate(-108.213 -100.747)" fill="#69d7e5"/>
        <path id="Trazado_1273228" data-name="Trazado 1273228" d="M314.1,290.815a.511.511,0,0,1-.364-.151l-2.993-2.992a.515.515,0,1,1,.728-.728l2.993,2.993a.515.515,0,0,1-.364.878" transform="translate(-97.445 -89.979)" fill="#69d7e5"/>
        <rect id="Rectángulo_460887" data-name="Rectángulo 460887" width="3.587" height="11.288" transform="translate(272.92 87.603) rotate(-45)" fill="#fec130"/>
        <path id="Trazado_1273229" data-name="Trazado 1273229" d="M403.987,134.192l9.777,9.777a2.786,2.786,0,1,0,3.94-3.94l-9.777-9.777Z" transform="translate(-126.748 -40.866)" fill="#69d7e5"/>
        <path id="Trazado_1273230" data-name="Trazado 1273230" d="M389.413,93.647a15.578,15.578,0,1,1-22.03,0,15.577,15.577,0,0,1,22.03,0" transform="translate(-113.832 -27.95)" fill="#7d8ea0"/>
        <path id="Trazado_1273231" data-name="Trazado 1273231" d="M388.272,98.959a11.015,11.015,0,1,1-15.578,0,11.016,11.016,0,0,1,15.578,0" transform="translate(-115.918 -30.035)" fill="#8bd2e7"/>
        <path id="Trazado_1273232" data-name="Trazado 1273232" d="M381.671,100.125a1.64,1.64,0,1,1-2.319,0,1.64,1.64,0,0,1,2.319,0" transform="translate(-118.868 -31.263)" fill="#fff"/>
        <path id="Trazado_1273233" data-name="Trazado 1273233" d="M388.986,100.376a1.166,1.166,0,1,1-1.649,0,1.167,1.167,0,0,1,1.649,0" transform="translate(-121.417 -31.385)" fill="#fff"/>
        <path id="Trazado_1273234" data-name="Trazado 1273234" d="M350.519,137.272l-22.9,21.553,14.533,3.851-10.069,18.305,25.033-22.835-15.37-4.072Z" transform="translate(-102.789 -43.068)" fill="#fec130"/>
        <path id="Trazado_1273235" data-name="Trazado 1273235" d="M34.109,192.629l10.572,22.414,6.429-9.953L62.374,217.1,51.362,192.77l-6.8,10.527Z" transform="translate(-10.701 -60.436)" fill="#ffd453"/>
        <path id="Trazado_1273236" data-name="Trazado 1273236" d="M157.39,1.559,164.926,22.1a2.379,2.379,0,0,1-1.414,3.052l-36.3,13.316a2.38,2.38,0,0,1-3.052-1.414l-7.536-20.543a2.329,2.329,0,0,1,.041-1.738,2.372,2.372,0,0,1,1.373-1.314L154.338.145a2.368,2.368,0,0,1,1.9.115,2.329,2.329,0,0,1,1.156,1.3" transform="translate(-36.544 0)" fill="#fec130"/>
        <path id="Trazado_1273237" data-name="Trazado 1273237" d="M156.321.261l-3.694,10.282a3.056,3.056,0,0,1-1.823,1.836L128.8,20.451a3.055,3.055,0,0,1-2.578-.222l-9.466-5.454a2.368,2.368,0,0,1,1.373-1.314L154.424.146a2.369,2.369,0,0,1,1.9.115" transform="translate(-36.63 0)" fill="#f69c00"/>
        <path id="Trazado_1273238" data-name="Trazado 1273238" d="M254.105,128.139a66.494,66.494,0,0,1-12.9,41.7,162.228,162.228,0,0,0-22.887,44.789l-2.646,7.915H159.108l-2.217-6.632a170.634,170.634,0,0,0-23.527-46.366,66.754,66.754,0,1,1,120.742-41.409" transform="translate(-37.849 -19.949)" fill="#ffd453"/>
        <rect id="Rectángulo_460888" data-name="Rectángulo 460888" width="56.561" height="37.217" transform="translate(121.259 202.597)" fill="#8bd2e7"/>
        <path id="Trazado_1273239" data-name="Trazado 1273239" d="M219.862,361.125H190.091l-13.4-11.673h56.561Z" transform="translate(-55.437 -109.638)" fill="#7d8ea0"/>
        <path id="Trazado_1273240" data-name="Trazado 1273240" d="M215.716,376.732h-9.232a10.27,10.27,0,0,1-10.27-10.27h29.771a10.27,10.27,0,0,1-10.27,10.27" transform="translate(-61.561 -114.975)" fill="#2b6b87"/>
        <path id="Trazado_1273241" data-name="Trazado 1273241" d="M230.887,308.338H176.666a3.8,3.8,0,0,1,0-7.591h54.221a3.8,3.8,0,0,1,0,7.591" transform="translate(-54.237 -94.357)" fill="#7d8ea0"/>
        <path id="Trazado_1273242" data-name="Trazado 1273242" d="M230.887,324.559H176.666a3.8,3.8,0,0,1,0-7.591h54.221a3.8,3.8,0,0,1,0,7.591" transform="translate(-54.237 -99.446)" fill="#7d8ea0"/>
        <path id="Trazado_1273243" data-name="Trazado 1273243" d="M230.887,340.78H176.666a3.8,3.8,0,0,1,0-7.591h54.221a3.8,3.8,0,0,1,0,7.591" transform="translate(-54.237 -104.535)" fill="#7d8ea0"/>
        <path id="Trazado_1273244" data-name="Trazado 1273244" d="M261.353,90.406c-1.912,3.917-10.209,3.8-18.532-.263S229.3,79.613,231.212,75.7s10.209-3.8,18.532.263,13.521,10.531,11.609,14.448" transform="translate(-72.417 -22.851)" fill="#fff"/>
        <path id="Trazado_1273245" data-name="Trazado 1273245" d="M291.768,114.283a5.117,5.117,0,1,1-5.117-5.117,5.117,5.117,0,0,1,5.117,5.117" transform="translate(-88.329 -34.25)" fill="#fff"/>
        <path id="Trazado_1273246" data-name="Trazado 1273246" d="M236.594,164.624a11.13,11.13,0,0,0-3.264-7.889,14.6,14.6,0,0,0-12.964-21.31c-.447,0-.888.023-1.324.062a11.168,11.168,0,0,0-16.947-3.336,11.161,11.161,0,0,0-16.665-1.338,11.164,11.164,0,0,0-15.453,5.868,14.16,14.16,0,0,0-2.479,28.094c2.559,4.782,8.41,8.126,15.223,8.126a20.34,20.34,0,0,0,3.437-.292c1.976,3.149,6.471,5.658,12.171,6.83,1.965,4.08,7.116,7.09,13.322,7.472a8.7,8.7,0,0,0,.476,1.2,10.55,10.55,0,0,0,1.48,2.058c2.3,2.769,4.312,6.134,4.044,9.726l3.041-.982a2.49,2.49,0,0,0,.863-.407c.885-.741.381-2.142.038-3.245-1.005-3.238.106-6.756-.11-10.125,4.239-1.994,7.042-5.435,7.042-9.348,0-.148-.008-.294-.016-.44a11.163,11.163,0,0,0,8.087-10.726" transform="translate(-48.899 -40.063)" fill="#fdafb3"/>
        <path id="Trazado_1273247" data-name="Trazado 1273247" d="M236.594,164.624a11.13,11.13,0,0,0-3.264-7.889,14.6,14.6,0,0,0-12.964-21.31c-.447,0-.888.023-1.324.062a11.168,11.168,0,0,0-16.947-3.336,11.161,11.161,0,0,0-16.665-1.338,11.164,11.164,0,0,0-15.453,5.868,14.16,14.16,0,0,0-2.479,28.094c2.559,4.782,8.41,8.126,15.223,8.126a20.34,20.34,0,0,0,3.437-.292c1.976,3.149,6.471,5.658,12.171,6.83,1.965,4.08,7.116,7.09,13.322,7.472a8.7,8.7,0,0,0,.476,1.2,10.55,10.55,0,0,0,1.48,2.058c2.3,2.769,4.312,6.134,4.044,9.726l3.041-.982a2.49,2.49,0,0,0,.863-.407c.885-.741.381-2.142.038-3.245-1.005-3.238.106-6.756-.11-10.125,4.239-1.994,7.042-5.435,7.042-9.348,0-.148-.008-.294-.016-.44A11.163,11.163,0,0,0,236.594,164.624Z" transform="translate(-48.899 -40.063)" fill="none" stroke="#fff" stroke-linecap="round" stroke-linejoin="round" stroke-width="9"/>
        <path id="Trazado_1273248" data-name="Trazado 1273248" d="M247.543,192.673c0-6.167-6.955-11.166-15.531-11.166s-15.532,5-15.532,11.166c0,5.841,6.241,10.632,14.189,11.121a8.79,8.79,0,0,0,.476,1.2,10.533,10.533,0,0,0,1.481,2.058c2.3,2.769,4.311,6.134,4.043,9.726l3.041-.982a2.493,2.493,0,0,0,.863-.407c.885-.741.38-2.142.038-3.245-1.005-3.238.106-6.755-.11-10.125,4.238-1.994,7.042-5.434,7.042-9.348" transform="translate(-67.919 -56.946)" fill="#1e535a"/>
        <path id="Trazado_1273249" data-name="Trazado 1273249" d="M233.331,156.735a14.6,14.6,0,0,0-12.964-21.31c-.447,0-.888.023-1.325.062a11.166,11.166,0,0,0-16.946-3.336,11.16,11.16,0,0,0-16.665-1.338,11.163,11.163,0,0,0-15.454,5.868,14.16,14.16,0,0,0-2.479,28.093c2.56,4.783,8.411,8.127,15.223,8.127a20.327,20.327,0,0,0,3.436-.292c2.759,4.395,10.407,7.556,19.418,7.556,6.976,0,13.134-1.9,16.842-4.791a11.165,11.165,0,0,0,10.915-18.639" transform="translate(-48.899 -40.062)" fill="#69d7e5"/>
        <path id="Trazado_1273250" data-name="Trazado 1273250" d="M175.754,159.342c-1.809-3.637,1.235-5.343,4.144-6.18a4.949,4.949,0,0,0,2.978-1.74c.748-1.081.6-2.039.526-3.273-.128-2.254-.314-3.427,1.63-4.9,1.5-1.141,3.522-1.346,5.334-1.576,1.261-.161,1.276-2.166,0-2-2.772.353-5.706.768-7.687,2.943a5.537,5.537,0,0,0-1.418,2.787c-.268,1.526.832,4.3-.6,5.4-1.01.774-2.829.63-4,1.173a5.808,5.808,0,0,0-2.283,1.882,6.164,6.164,0,0,0-.355,6.5c.574,1.154,2.3.141,1.73-1.011" transform="translate(-54.362 -43.816)" fill="#1e535a"/>
        <path id="Trazado_1273251" data-name="Trazado 1273251" d="M218.538,142.138a9.7,9.7,0,0,0-1.042,7.285c.64,2.672,1.959,2.249,4,3.164,2.7,1.21,2.19,4.937,4.713,6.664,2.576,1.764,5.846,1.274,8.729.8,1.269-.209.73-2.139-.533-1.932-3.237.532-7.295.942-8.692-2.833-.436-1.178-.37-2.579-1.295-3.555s-1.8-.729-2.921-1.148c-2.939-1.093-2.737-5.135-1.229-7.436.709-1.081-1.025-2.086-1.729-1.011" transform="translate(-68.15 -44.45)" fill="#1e535a"/>
        <path id="Trazado_1273252" data-name="Trazado 1273252" d="M184.266,176.378c-1.729-1.74-2.239-4.1-.622-6.141,1.154-1.454,2.2-1.1,3.858-.791,2.635.5,5.318.934,7.884-.143,1.823-.765,2.206-1.985,3.365-3.454,2.326-2.947,6.309-3.856,8.953-.749.837.983,2.247-.439,1.416-1.416a7.536,7.536,0,0,0-7.464-2.388,9.972,9.972,0,0,0-4.592,3.45,19.114,19.114,0,0,1-1.179,1.816c-1.361,1.4-3.569,1.526-5.423,1.348-2.912-.279-5.987-1.939-8.132.746a6.443,6.443,0,0,0,.52,9.14,1,1,0,0,0,1.416-1.416" transform="translate(-56.685 -50.526)" fill="#1e535a"/>
        <path id="Trazado_1273253" data-name="Trazado 1273253" d="M216.2,174.792c-.846,5.312,3.855,11.8,9.628,10.006a16.289,16.289,0,0,0,2.324-1.27c3.227-1.577,5.22.194,7.637,1.953,3.329,2.425,4.878-.162,8.149-1.231,1.219-.4.7-2.333-.533-1.932-1.044.342-1.869,1.009-2.859,1.433-2.736,1.173-3.486-.13-5.5-1.526a7.783,7.783,0,0,0-5.749-1.156c-1.644.279-2.732,1.463-4.3,1.876-4.01,1.058-7.453-3.927-6.865-7.621.2-1.261-1.729-1.8-1.931-.533" transform="translate(-67.801 -54.612)" fill="#1e535a"/>
        <path id="Trazado_1273254" data-name="Trazado 1273254" d="M244.161,144.411c-.444,1.78-.377,3.964,1.321,5.086a4.8,4.8,0,0,0,2.648.619c1.4.031,2.557-.506,3.151,1.794a7.732,7.732,0,0,1-.155,2.335c-.2,1.508-.743,3.1.407,4.36a3.713,3.713,0,0,0,4.89.374c1.033-.75.034-2.489-1.011-1.729q-1.275,1.185-2.608-.533a8.36,8.36,0,0,1,.153-1.319c.069-.512.17-1.019.229-1.532a7.2,7.2,0,0,0-.272-3.656,3.386,3.386,0,0,0-2.37-2.027,11.836,11.836,0,0,0-1.677-.094c-2.249-.27-3.332-.909-2.775-3.145a1,1,0,0,0-1.931-.533" transform="translate(-76.531 -45.084)" fill="#1e535a"/>
        <path id="Trazado_1273255" data-name="Trazado 1273255" d="M194.351,152.939q.312-1.751.624-3.5l1.392-.908c.8-.2,1,.02,1.647.145a14.912,14.912,0,0,0,1.806.493,4.474,4.474,0,0,0,3.781-1.893,4.623,4.623,0,0,0,1.029-3.593c-.318-2.452-1.887-3.853,1.125-5.351,1.154-.574.141-2.3-1.011-1.73-1.755.873-3.245,2-3.036,4.124.1,1,.716,1.866.863,2.846a2.82,2.82,0,0,1-3.367,3.4c-2.029-.323-3.119-.85-4.988.5-2.234,1.611-3.059,4.074-1.6,6.482.668,1.1,2.4.095,1.729-1.011" transform="translate(-60.203 -42.822)" fill="#1e535a"/>
        <path id="Trazado_1273256" data-name="Trazado 1273256" d="M193.595,184.545c2.029-1.408,5.828-3.586,7.347-.22.562,1.246.508,2.35,1.455,3.49a6.91,6.91,0,0,0,6.559,2.318c1.271-.188.731-2.118-.533-1.931-3.335.494-4.7-1.718-5.55-4.41-.4-1.25-.595-2.265-1.88-2.919-2.622-1.333-6.271.457-8.409,1.941-1.052.729-.051,2.467,1.011,1.729" transform="translate(-60.282 -56.601)" fill="#1e535a"/>
        <path id="Trazado_1273257" data-name="Trazado 1273257" d="M164.753,161.247c-1.233-1.835-2.022-4.194-.771-6.257s3.389-1.554,5.266-2.453a4.02,4.02,0,0,0,2-4.88,1,1,0,0,0-1.931.533c.843,3.179-3.447,2.79-5,3.709a6.071,6.071,0,0,0-2.393,2.709c-1.187,2.583-.419,5.4,1.095,7.65.715,1.065,2.451.063,1.729-1.011" transform="translate(-50.622 -46.104)" fill="#1e535a"/>
        <path id="Trazado_1273258" data-name="Trazado 1273258" d="M227.067,173.052c1.815,3.164,6.206,4.2,9.6,4.395a9.836,9.836,0,0,0,5.1-1.176,19.763,19.763,0,0,1,3.343-1.643,3.6,3.6,0,0,1,4.345,4.615c-.388,1.232,1.545,1.76,1.931.533,1.1-3.5-1.9-8.187-5.872-7.388-2.77.558-4.908,2.91-7.8,3.1-2.811.188-7.435-.857-8.921-3.448a1,1,0,0,0-1.729,1.011" transform="translate(-71.196 -53.824)" fill="#1e535a"/>
        <path id="Trazado_1273259" data-name="Trazado 1273259" d="M236.761,149.277c-1.718-1.06-3.483-2.626-3.243-4.862.231-2.154,1.926-2.173,3.041-3.575a3.837,3.837,0,0,0,.055-4.585c-.717-1.063-2.453-.062-1.729,1.011,1.454,2.154-1.549,3.055-2.555,4.526a5.361,5.361,0,0,0-.863,3.158c.083,2.721,2.113,4.717,4.284,6.056,1.1.679,2.107-1.053,1.011-1.729" transform="translate(-72.62 -42.607)" fill="#1e535a"/>
        <path id="Trazado_1273260" data-name="Trazado 1273260" d="M228.8,206.017a28.457,28.457,0,0,0,17.063-4.452c1.071-.708.069-2.443-1.011-1.729a26.753,26.753,0,0,1-16.052,4.178c-1.287-.09-1.281,1.913,0,2" transform="translate(-71.482 -62.644)" fill="#69d7e5"/>
        <path id="Trazado_1273261" data-name="Trazado 1273261" d="M241.116,211.42a18.853,18.853,0,0,0,5.263-1.754c1.154-.574.141-2.3-1.011-1.729a17.042,17.042,0,0,1-4.785,1.552c-1.268.223-.73,2.154.533,1.931" transform="translate(-75.254 -65.203)" fill="#69d7e5"/>
        <path id="Trazado_1273262" data-name="Trazado 1273262" d="M139.068,160.513h-9.681a1.335,1.335,0,0,1,0-2.671h9.681a1.335,1.335,0,1,1,0,2.671" transform="translate(-40.175 -49.522)" fill="#f69c00"/>
        <path id="Trazado_1273263" data-name="Trazado 1273263" d="M296.074,160.513h-9.681a1.335,1.335,0,0,1,0-2.671h9.681a1.335,1.335,0,0,1,0,2.671" transform="translate(-89.435 -49.522)" fill="#f69c00"/>
        <path id="Trazado_1273264" data-name="Trazado 1273264" d="M166.382,111.291a1.331,1.331,0,0,1-.944-.391l-6.845-6.846a1.335,1.335,0,1,1,1.888-1.888l6.846,6.845a1.335,1.335,0,0,1-.944,2.28" transform="translate(-49.634 -31.931)" fill="#f69c00"/>
        <path id="Trazado_1273265" data-name="Trazado 1273265" d="M277.4,222.31a1.331,1.331,0,0,1-.944-.391l-6.845-6.846a1.335,1.335,0,0,1,1.888-1.888l6.846,6.845a1.335,1.335,0,0,1-.944,2.28" transform="translate(-84.466 -66.762)" fill="#f69c00"/>
        <path id="Trazado_1273266" data-name="Trazado 1273266" d="M216.44,92.519a1.335,1.335,0,0,1-1.335-1.335V81.5a1.335,1.335,0,1,1,2.67,0v9.681a1.335,1.335,0,0,1-1.335,1.335" transform="translate(-67.488 -25.152)" fill="#f69c00"/>
        <path id="Trazado_1273267" data-name="Trazado 1273267" d="M216.44,249.524a1.335,1.335,0,0,1-1.335-1.335v-9.681a1.335,1.335,0,1,1,2.67,0v9.681a1.335,1.335,0,0,1-1.335,1.335" transform="translate(-67.488 -74.411)" fill="#f69c00"/>
        <path id="Trazado_1273268" data-name="Trazado 1273268" d="M270.556,113.332a1.335,1.335,0,0,1-.944-2.28l6.846-6.846a1.335,1.335,0,1,1,1.888,1.889l-6.845,6.846a1.331,1.331,0,0,1-.944.391" transform="translate(-84.466 -32.571)" fill="#f69c00"/>
        <path id="Trazado_1273269" data-name="Trazado 1273269" d="M159.536,224.351a1.335,1.335,0,0,1-.944-2.28l6.846-6.845a1.335,1.335,0,0,1,1.888,1.889l-6.845,6.845a1.331,1.331,0,0,1-.944.391" transform="translate(-49.634 -67.403)" fill="#f69c00"/>
        <path id="Trazado_1273270" data-name="Trazado 1273270" d="M4.274,251.642.528,255.388a1.8,1.8,0,0,0,0,2.55l23.847,23.847,5.021-5.021Z" transform="translate(0 -78.951)" fill="#1e535a"/>
        <rect id="Rectángulo_460889" data-name="Rectángulo 460889" width="28.873" height="32.543" transform="translate(0.9 176.065) rotate(-45)" fill="#69d7e5"/>
        <path id="Trazado_1273271" data-name="Trazado 1273271" d="M56.353,264.228a2.961,2.961,0,0,0,2.076.872l-19.5,19.5a1.74,1.74,0,0,1-2,.339,3.109,3.109,0,0,1-.74-.546,3.178,3.178,0,0,1-.554-.747,1.741,1.741,0,0,1,.34-2l19.5-19.5a2.967,2.967,0,0,0,.879,2.083" transform="translate(-11.126 -82.246)" fill="#fec130"/>
        <path id="Trazado_1273272" data-name="Trazado 1273272" d="M35.6,281.074a1.725,1.725,0,0,0-.336,2,3.025,3.025,0,0,0,.55.749,2.976,2.976,0,0,0,.745.544,1.723,1.723,0,0,0,2-.337l20.1-20.1.629.629L39.331,284.508a3.008,3.008,0,0,1-2.138.879,2.989,2.989,0,0,1-2.955-2.955V282.4a3.006,3.006,0,0,1,.879-2.111l19.952-19.952.63.629Z" transform="translate(-10.742 -81.68)" fill="#a4e7f0"/>
        <path id="Trazado_1273273" data-name="Trazado 1273273" d="M55.661,267.873l-16.9,16.9a.367.367,0,0,1-.519-.519l16.9-16.9a.367.367,0,1,1,.519.519" transform="translate(-11.965 -83.846)" fill="#f69c00"/>
        <path id="Trazado_1273274" data-name="Trazado 1273274" d="M47.841,291.892l-1.5.115-.115,1.5-4.7-4.7,1.615-1.615Z" transform="translate(-13.029 -90.105)" fill="#7d8ea0"/>
        <rect id="Rectángulo_460890" data-name="Rectángulo 460890" width="16.149" height="4.078" transform="translate(13.415 179.583) rotate(-45)" fill="#fff"/>
      </g>
    </g>
  </g>
</svg>
