<svg xmlns="http://www.w3.org/2000/svg" xmlns:xlink="http://www.w3.org/1999/xlink" width="128" height="128" viewBox="0 0 128 128">
  <defs>
    <clipPath id="clip-path">
      <rect id="Rectángulo_454829" data-name="Rectángulo 454829" width="128" height="128" fill="#1e535a"/>
    </clipPath>
    <clipPath id="clip-path-2">
      <rect id="Rectángulo_464381" data-name="Rectángulo 464381" width="53.349" height="53.334" fill="#1e535a"/>
    </clipPath>
  </defs>
  <g id="Grupo_1209849" data-name="Grupo 1209849" transform="translate(-186 -4323.945)">
    <g id="Grupo_1177591" data-name="Grupo 1177591" transform="translate(186 4323.945)">
      <g id="Grupo_1177589" data-name="Grupo 1177589" transform="translate(0 0)">
        <g id="Grupo_1177587" data-name="Grupo 1177587" clip-path="url(#clip-path)">
          <path id="Trazado_997422" data-name="Trazado 997422" d="M122.774,56.654a58.848,58.848,0,0,0-13.293-30.623,6.768,6.768,0,0,0-9.523-9.118A58.761,58.761,0,0,0,69.535,5.027a6.769,6.769,0,0,0-13.148.267A58.842,58.842,0,0,0,27.2,17.772a6.771,6.771,0,0,0-9.4,9.462A58.794,58.794,0,0,0,5.483,56.6a6.774,6.774,0,0,0-.162,13.266A58.776,58.776,0,0,0,17.252,99.82a6.771,6.771,0,0,0,9.2,9.56,58.838,58.838,0,0,0,29.883,13.07,6.771,6.771,0,0,0,13.266.267,58.788,58.788,0,0,0,30.646-12.107,6.769,6.769,0,0,0,9.476-9.165A58.863,58.863,0,0,0,122.933,69.8a6.771,6.771,0,0,0-.159-13.144m-19.12-27.288a6.733,6.733,0,0,0,3.75-1.135,55.884,55.884,0,0,1,12.333,28.407,6.781,6.781,0,0,0-4.327,3.135L98.1,53.283c.013-.189.027-.382.027-.578a6.772,6.772,0,0,0-2.868-5.533l7.57-17.86a7.335,7.335,0,0,0,.821.054M100,28.288,92.472,46.03a6.7,6.7,0,0,0-7.459,4.307L53.705,43.125a6.588,6.588,0,0,0-.142-1.348L97.992,26.305a6.793,6.793,0,0,0,2,1.983M63,13.553a6.777,6.777,0,0,0,6.651-5.5A55.792,55.792,0,0,1,97.857,19.09a6.739,6.739,0,0,0-.98,3.5,7.114,7.114,0,0,0,.064.9L52.29,39.031A6.8,6.8,0,0,0,51.064,37.8L62.775,13.543c.074,0,.145.01.22.01M56.4,8.324a6.778,6.778,0,0,0,3.409,4.435L48.331,36.538a6.8,6.8,0,0,0-1.4-.145,6.727,6.727,0,0,0-3.861,1.213L29.461,26.238A6.736,6.736,0,0,0,29.231,20,55.836,55.836,0,0,1,56.4,8.324M13.387,61.776l28.15-14.519a6.751,6.751,0,0,0,5.341,2.686l9.648,30.839a6.887,6.887,0,0,0-1.493,1.652L13.3,65.046a6.731,6.731,0,0,0,.25-1.8,6.81,6.81,0,0,0-.166-1.473m6.648-32.521a6.771,6.771,0,0,0,7.564-.645L41.037,39.831a6.758,6.758,0,0,0-.747,4.682l-28.2,14.539A6.774,6.774,0,0,0,8.506,56.7,55.812,55.812,0,0,1,20.036,29.254m2.8,67.623a6.756,6.756,0,0,0-3.365.9A55.762,55.762,0,0,1,8.351,69.832a6.783,6.783,0,0,0,3.517-2.121L54.013,85.27a7.266,7.266,0,0,0-.054.814,6.775,6.775,0,0,0,.405,2.29L28.876,100.587a6.775,6.775,0,0,0-6.037-3.709m33.626,22.556a55.892,55.892,0,0,1-27.883-12.2,6.705,6.705,0,0,0,1.034-3.581l0-.078L56,90.929a6.776,6.776,0,0,0,2.392,1.51l1.581,22.725a6.776,6.776,0,0,0-3.51,4.27m2.807-39.96L49.831,49.287a6.786,6.786,0,0,0,3.219-3.219l31.562,7.266a6.736,6.736,0,0,0,1.078,3.081L64.042,80.173a6.692,6.692,0,0,0-4.77-.7M69.592,119.7a6.774,6.774,0,0,0-6.6-5.25l-.051,0-1.5-21.623a6.764,6.764,0,0,0,4.142-2.01l31.555,13.918c0,.061-.01.115-.01.176a6.743,6.743,0,0,0,1,3.534A55.789,55.789,0,0,1,69.592,119.7M97.9,101.779,67.164,88.22a6.736,6.736,0,0,0-.888-6.027L87.858,58.5a6.736,6.736,0,0,0,3.5.98,7.46,7.46,0,0,0,.831-.054l8.067,39.781a6.761,6.761,0,0,0-2.355,2.571m9.722-2.534a6.735,6.735,0,0,0-4.5-1.064l-8.07-39.8a6.8,6.8,0,0,0,2.135-2.23l17.3,6.486a6.009,6.009,0,0,0-.03.608,6.774,6.774,0,0,0,5.445,6.641A55.835,55.835,0,0,1,107.62,99.246" transform="translate(0 0.001)" fill="#1e535a"/>
        </g>
      </g>
    </g>
    <g id="Elipse_13614" data-name="Elipse 13614" transform="translate(210.273 4348.213)" fill="#fff" stroke="#1e535a" stroke-width="3">
      <ellipse cx="39.732" cy="39.733" rx="39.732" ry="39.733" stroke="none"/>
      <ellipse cx="39.732" cy="39.733" rx="38.232" ry="38.233" fill="none"/>
    </g>
    <g id="Grupo_1211533" data-name="Grupo 1211533" transform="translate(223.326 4361.278)">
      <g id="Grupo_1211532" data-name="Grupo 1211532" clip-path="url(#clip-path-2)">
        <path id="Trazado_1274096" data-name="Trazado 1274096" d="M33.1,47.78a6.455,6.455,0,1,1,.012-1.739l12.914-.024-.009-12.84-4.337-.036a1.224,1.224,0,0,1-1.237-1.166l-.044-4.443h-3.15c-.441,2.227-2.5,1.162-2.912,2.25-.445,1.176.969,1.346.8,2.953a4.869,4.869,0,0,1-2.211,2.345c-1.561.354-1.981-1.11-2.984-.8-1.133.347-.394,1.608-1.432,2.551a4.093,4.093,0,0,1-3.562.074c-1.074-.817-.445-2.2-1.4-2.582-1.1-.442-2.129,1.561-3.444.6a7.1,7.1,0,0,1-1.687-1.707c-.914-1.371,1.079-2.282.6-3.438-.452-1.1-2.427,0-2.91-2.243H12.952l-.021,4.282a1.314,1.314,0,0,1-1.423,1.34l-10.105,0A1.305,1.305,0,0,1,0,31.807L.021,21.323A1.074,1.074,0,0,1,1.028,20.27l4.567-.1L5.607,6.522c.025-.462.278-.874.775-.875l13.871-.035a6.47,6.47,0,0,1,12.88.691A6.471,6.471,0,0,1,20.259,7.364L7.332,7.35l.011,12.87,4.375.033a1.157,1.157,0,0,1,1.206,1.226l.036,4.3h3.133c.507-2.2,2.545-1.152,2.926-2.221.434-1.216-.981-1.342-.785-3A4.732,4.732,0,0,1,20.6,18.219c1.539-.2,1.917,1.26,2.884.828,1.066-.476.36-1.709,1.4-2.571a4.351,4.351,0,0,1,3.576,0c1.037.844.363,2.155,1.4,2.571s2.032-1.54,3.342-.651a6.888,6.888,0,0,1,1.736,1.731c.911,1.314-1,2.262-.62,3.4s2.481.075,2.915,2.252l3.153.009.035-4.3a1.171,1.171,0,0,1,1.211-1.235H52.145a1.121,1.121,0,0,1,1.179,1.078l.024,10.482a1.3,1.3,0,0,1-1.4,1.345l-4.2.029-.014,13.595c0,.669-.48.988-1.13.989ZM30.38,26.673a3.7,3.7,0,1,0-3.7,3.7,3.7,3.7,0,0,0,3.7-3.7" transform="translate(0 0)" fill="#1e535a"/>
      </g>
    </g>
  </g>
</svg>
