<svg xmlns="http://www.w3.org/2000/svg" xmlns:xlink="http://www.w3.org/1999/xlink" width="128" height="128" viewBox="0 0 128 128">
  <defs>
    <clipPath id="clip-path">
      <rect id="Rectángulo_454829" data-name="Rectángulo 454829" width="128" height="128" fill="#1e535a"/>
    </clipPath>
    <clipPath id="clip-path-2">
      <rect id="Rectángulo_464419" data-name="Rectángulo 464419" width="43.334" height="43.344" fill="#1e535a"/>
    </clipPath>
  </defs>
  <g id="Grupo_1211136" data-name="Grupo 1211136" transform="translate(-186 -4323.945)">
    <g id="Grupo_1177591" data-name="Grupo 1177591" transform="translate(186 4323.945)">
      <g id="Grupo_1177589" data-name="Grupo 1177589" transform="translate(0 0)">
        <g id="Grupo_1177587" data-name="Grupo 1177587" clip-path="url(#clip-path)">
          <path id="Trazado_997422" data-name="Trazado 997422" d="M122.774,56.654a58.848,58.848,0,0,0-13.293-30.623,6.768,6.768,0,0,0-9.523-9.118A58.761,58.761,0,0,0,69.535,5.027a6.769,6.769,0,0,0-13.148.267A58.842,58.842,0,0,0,27.2,17.772a6.771,6.771,0,0,0-9.4,9.462A58.794,58.794,0,0,0,5.483,56.6a6.774,6.774,0,0,0-.162,13.266A58.776,58.776,0,0,0,17.252,99.82a6.771,6.771,0,0,0,9.2,9.56,58.838,58.838,0,0,0,29.883,13.07,6.771,6.771,0,0,0,13.266.267,58.788,58.788,0,0,0,30.646-12.107,6.769,6.769,0,0,0,9.476-9.165A58.863,58.863,0,0,0,122.933,69.8a6.771,6.771,0,0,0-.159-13.144m-19.12-27.288a6.733,6.733,0,0,0,3.75-1.135,55.884,55.884,0,0,1,12.333,28.407,6.781,6.781,0,0,0-4.327,3.135L98.1,53.283c.013-.189.027-.382.027-.578a6.772,6.772,0,0,0-2.868-5.533l7.57-17.86a7.335,7.335,0,0,0,.821.054M100,28.288,92.472,46.03a6.7,6.7,0,0,0-7.459,4.307L53.705,43.125a6.588,6.588,0,0,0-.142-1.348L97.992,26.305a6.793,6.793,0,0,0,2,1.983M63,13.553a6.777,6.777,0,0,0,6.651-5.5A55.792,55.792,0,0,1,97.857,19.09a6.739,6.739,0,0,0-.98,3.5,7.114,7.114,0,0,0,.064.9L52.29,39.031A6.8,6.8,0,0,0,51.064,37.8L62.775,13.543c.074,0,.145.01.22.01M56.4,8.324a6.778,6.778,0,0,0,3.409,4.435L48.331,36.538a6.8,6.8,0,0,0-1.4-.145,6.727,6.727,0,0,0-3.861,1.213L29.461,26.238A6.736,6.736,0,0,0,29.231,20,55.836,55.836,0,0,1,56.4,8.324M13.387,61.776l28.15-14.519a6.751,6.751,0,0,0,5.341,2.686l9.648,30.839a6.887,6.887,0,0,0-1.493,1.652L13.3,65.046a6.731,6.731,0,0,0,.25-1.8,6.81,6.81,0,0,0-.166-1.473m6.648-32.521a6.771,6.771,0,0,0,7.564-.645L41.037,39.831a6.758,6.758,0,0,0-.747,4.682l-28.2,14.539A6.774,6.774,0,0,0,8.506,56.7,55.812,55.812,0,0,1,20.036,29.254m2.8,67.623a6.756,6.756,0,0,0-3.365.9A55.762,55.762,0,0,1,8.351,69.832a6.783,6.783,0,0,0,3.517-2.121L54.013,85.27a7.266,7.266,0,0,0-.054.814,6.775,6.775,0,0,0,.405,2.29L28.876,100.587a6.775,6.775,0,0,0-6.037-3.709m33.626,22.556a55.892,55.892,0,0,1-27.883-12.2,6.705,6.705,0,0,0,1.034-3.581l0-.078L56,90.929a6.776,6.776,0,0,0,2.392,1.51l1.581,22.725a6.776,6.776,0,0,0-3.51,4.27m2.807-39.96L49.831,49.287a6.786,6.786,0,0,0,3.219-3.219l31.562,7.266a6.736,6.736,0,0,0,1.078,3.081L64.042,80.173a6.692,6.692,0,0,0-4.77-.7M69.592,119.7a6.774,6.774,0,0,0-6.6-5.25l-.051,0-1.5-21.623a6.764,6.764,0,0,0,4.142-2.01l31.555,13.918c0,.061-.01.115-.01.176a6.743,6.743,0,0,0,1,3.534A55.789,55.789,0,0,1,69.592,119.7M97.9,101.779,67.164,88.22a6.736,6.736,0,0,0-.888-6.027L87.858,58.5a6.736,6.736,0,0,0,3.5.98,7.46,7.46,0,0,0,.831-.054l8.067,39.781a6.761,6.761,0,0,0-2.355,2.571m9.722-2.534a6.735,6.735,0,0,0-4.5-1.064l-8.07-39.8a6.8,6.8,0,0,0,2.135-2.23l17.3,6.486a6.009,6.009,0,0,0-.03.608,6.774,6.774,0,0,0,5.445,6.641A55.835,55.835,0,0,1,107.62,99.246" transform="translate(0 0.001)" fill="#1e535a"/>
        </g>
      </g>
    </g>
    <g id="Elipse_13614" data-name="Elipse 13614" transform="translate(210.273 4348.213)" fill="#fff" stroke="#1e535a" stroke-width="3">
      <ellipse cx="39.732" cy="39.733" rx="39.732" ry="39.733" stroke="none"/>
      <ellipse cx="39.732" cy="39.733" rx="38.232" ry="38.233" fill="none"/>
    </g>
    <g id="Grupo_1211583" data-name="Grupo 1211583" transform="translate(228.338 4366.273)">
      <g id="Grupo_1211582" data-name="Grupo 1211582" clip-path="url(#clip-path-2)">
        <path id="Trazado_1274213" data-name="Trazado 1274213" d="M6.93,164.875a4.326,4.326,0,0,0-.881,4.357c.428,1.652,1.871,2.068,3.135,2.964,2.149,1.524,4.141,3.291,6.98,3.653a9.743,9.743,0,0,1-8,1.865,10.43,10.43,0,0,1-8.14-9.383A9.825,9.825,0,0,1,2.7,161a37.732,37.732,0,0,1,2.914-2.914,9.932,9.932,0,0,1,9.333-2.02,9.721,9.721,0,0,1,6.382,5.416c-1.453,1.523-.519,2.966-2.07,3.6a1.733,1.733,0,0,1-1.9-.3l-2.121-2.1a4.271,4.271,0,0,0-6.045-.063Z" transform="translate(0 -134.587)" fill="#1e535a"/>
        <path id="Trazado_1274214" data-name="Trazado 1274214" d="M62,213.359c-.245-.247.12-.79.292-.964l2.082-2.112a1.854,1.854,0,0,1,2.675.007l2.179,2.162a4.107,4.107,0,0,0,4.433.751,4.2,4.2,0,0,0,2.7-3.4,1.26,1.26,0,0,1,1.224-1.213l3.358,0c.866,0,1.266.74,1.2,1.555a9.878,9.878,0,0,1-6.378,8.4,9.688,9.688,0,0,1-10.545-1.959Z" transform="translate(-53.533 -180.335)" fill="#1e535a"/>
        <path id="Trazado_1274215" data-name="Trazado 1274215" d="M258.569,256.516a1.254,1.254,0,0,1,.021,1.832,1.272,1.272,0,0,1-1.846-.067l-2.776-2.783a1.268,1.268,0,1,1,1.8-1.788Z" transform="translate(-219.227 -219.004)" fill="#1e535a"/>
        <path id="Trazado_1274216" data-name="Trazado 1274216" d="M213.477,284.8a1.266,1.266,0,0,1-1.254,1.359,1.245,1.245,0,0,1-1.285-1.3l.008-2.719a1.253,1.253,0,0,1,1.279-1.219,1.29,1.29,0,0,1,1.253,1.36Z" transform="translate(-182.369 -242.874)" fill="#1e535a"/>
        <path id="Trazado_1274217" data-name="Trazado 1274217" d="M285.45,213.187c-1.022.122-1.965.016-2.925.049a1.261,1.261,0,1,1,0-2.521l2.725.008a1.245,1.245,0,0,1,.2,2.464" transform="translate(-243.128 -182.175)" fill="#1e535a"/>
        <path id="Trazado_1274218" data-name="Trazado 1274218" d="M166.689,13.083l2.075,2.057a4.335,4.335,0,0,0,6.142.114l2.229-2.236a4.341,4.341,0,0,0,.888-4.352c-.422-1.63-1.846-2.073-3.124-2.97-2.15-1.508-4.128-3.3-7.023-3.66A10.084,10.084,0,0,1,181.271,17.02c-.9.947-1.742,1.814-2.724,2.707a9.964,9.964,0,0,1-9.933,1.937,9.783,9.783,0,0,1-5.876-5.253c1.472-1.526.5-3.08,2.18-3.642a1.7,1.7,0,0,1,1.771.314" transform="translate(-140.696 0)" fill="#1e535a"/>
        <path id="Trazado_1274219" data-name="Trazado 1274219" d="M121.771,39a4.064,4.064,0,0,0-4.457-.686,4.177,4.177,0,0,0-2.617,3.351,1.306,1.306,0,0,1-1.329,1.249l-3.249-.011a1.252,1.252,0,0,1-1.225-1.376,9.639,9.639,0,0,1,3.607-6.963c3.96-3.189,9.843-3.189,13.4.4l3.177,3.2c.141.291-.172.783-.36.972l-2.095,2.111a1.789,1.789,0,0,1-2.553.017Z" transform="translate(-94.142 -27.859)" fill="#1e535a"/>
        <path id="Trazado_1274220" data-name="Trazado 1274220" d="M31.745,29.643a1.271,1.271,0,1,1-1.754,1.835l-2.844-2.851a1.262,1.262,0,0,1,1.788-1.782Z" transform="translate(-23.147 -22.882)" fill="#1e535a"/>
        <path id="Trazado_1274221" data-name="Trazado 1274221" d="M4.34,92.851l-2.662,0a1.265,1.265,0,1,1,.01-2.53l2.679.008a1.226,1.226,0,0,1,1.247,1.242A1.245,1.245,0,0,1,4.34,92.851" transform="translate(-0.333 -78.091)" fill="#1e535a"/>
        <path id="Trazado_1274222" data-name="Trazado 1274222" d="M93.124,3.978a1.309,1.309,0,0,1-1.212,1.375A1.287,1.287,0,0,1,90.59,4.035V1.451a1.267,1.267,0,1,1,2.53,0Z" transform="translate(-78.319 -0.097)" fill="#1e535a"/>
      </g>
    </g>
  </g>
</svg>
