<svg xmlns="http://www.w3.org/2000/svg" xmlns:xlink="http://www.w3.org/1999/xlink" width="128" height="128" viewBox="0 0 128 128">
  <defs>
    <clipPath id="clip-path">
      <rect id="Rectángulo_454829" data-name="Rectángulo 454829" width="128" height="128" fill="#1e535a"/>
    </clipPath>
    <clipPath id="clip-path-2">
      <rect id="Rectángulo_464377" data-name="Rectángulo 464377" width="41.086" height="41.044" fill="#1e535a"/>
    </clipPath>
  </defs>
  <g id="Grupo_1209844" data-name="Grupo 1209844" transform="translate(-186 -4323.945)">
    <g id="Grupo_1177591" data-name="Grupo 1177591" transform="translate(186 4323.945)">
      <g id="Grupo_1177589" data-name="Grupo 1177589" transform="translate(0 0)">
        <g id="Grupo_1177587" data-name="Grupo 1177587" clip-path="url(#clip-path)">
          <path id="Trazado_997422" data-name="Trazado 997422" d="M122.774,56.654a58.848,58.848,0,0,0-13.293-30.623,6.768,6.768,0,0,0-9.523-9.118A58.761,58.761,0,0,0,69.535,5.027a6.769,6.769,0,0,0-13.148.267A58.842,58.842,0,0,0,27.2,17.772a6.771,6.771,0,0,0-9.4,9.462A58.794,58.794,0,0,0,5.483,56.6a6.774,6.774,0,0,0-.162,13.266A58.776,58.776,0,0,0,17.252,99.82a6.771,6.771,0,0,0,9.2,9.56,58.838,58.838,0,0,0,29.883,13.07,6.771,6.771,0,0,0,13.266.267,58.788,58.788,0,0,0,30.646-12.107,6.769,6.769,0,0,0,9.476-9.165A58.863,58.863,0,0,0,122.933,69.8a6.771,6.771,0,0,0-.159-13.144m-19.12-27.288a6.733,6.733,0,0,0,3.75-1.135,55.884,55.884,0,0,1,12.333,28.407,6.781,6.781,0,0,0-4.327,3.135L98.1,53.283c.013-.189.027-.382.027-.578a6.772,6.772,0,0,0-2.868-5.533l7.57-17.86a7.335,7.335,0,0,0,.821.054M100,28.288,92.472,46.03a6.7,6.7,0,0,0-7.459,4.307L53.705,43.125a6.588,6.588,0,0,0-.142-1.348L97.992,26.305a6.793,6.793,0,0,0,2,1.983M63,13.553a6.777,6.777,0,0,0,6.651-5.5A55.792,55.792,0,0,1,97.857,19.09a6.739,6.739,0,0,0-.98,3.5,7.114,7.114,0,0,0,.064.9L52.29,39.031A6.8,6.8,0,0,0,51.064,37.8L62.775,13.543c.074,0,.145.01.22.01M56.4,8.324a6.778,6.778,0,0,0,3.409,4.435L48.331,36.538a6.8,6.8,0,0,0-1.4-.145,6.727,6.727,0,0,0-3.861,1.213L29.461,26.238A6.736,6.736,0,0,0,29.231,20,55.836,55.836,0,0,1,56.4,8.324M13.387,61.776l28.15-14.519a6.751,6.751,0,0,0,5.341,2.686l9.648,30.839a6.887,6.887,0,0,0-1.493,1.652L13.3,65.046a6.731,6.731,0,0,0,.25-1.8,6.81,6.81,0,0,0-.166-1.473m6.648-32.521a6.771,6.771,0,0,0,7.564-.645L41.037,39.831a6.758,6.758,0,0,0-.747,4.682l-28.2,14.539A6.774,6.774,0,0,0,8.506,56.7,55.812,55.812,0,0,1,20.036,29.254m2.8,67.623a6.756,6.756,0,0,0-3.365.9A55.762,55.762,0,0,1,8.351,69.832a6.783,6.783,0,0,0,3.517-2.121L54.013,85.27a7.266,7.266,0,0,0-.054.814,6.775,6.775,0,0,0,.405,2.29L28.876,100.587a6.775,6.775,0,0,0-6.037-3.709m33.626,22.556a55.892,55.892,0,0,1-27.883-12.2,6.705,6.705,0,0,0,1.034-3.581l0-.078L56,90.929a6.776,6.776,0,0,0,2.392,1.51l1.581,22.725a6.776,6.776,0,0,0-3.51,4.27m2.807-39.96L49.831,49.287a6.786,6.786,0,0,0,3.219-3.219l31.562,7.266a6.736,6.736,0,0,0,1.078,3.081L64.042,80.173a6.692,6.692,0,0,0-4.77-.7M69.592,119.7a6.774,6.774,0,0,0-6.6-5.25l-.051,0-1.5-21.623a6.764,6.764,0,0,0,4.142-2.01l31.555,13.918c0,.061-.01.115-.01.176a6.743,6.743,0,0,0,1,3.534A55.789,55.789,0,0,1,69.592,119.7M97.9,101.779,67.164,88.22a6.736,6.736,0,0,0-.888-6.027L87.858,58.5a6.736,6.736,0,0,0,3.5.98,7.46,7.46,0,0,0,.831-.054l8.067,39.781a6.761,6.761,0,0,0-2.355,2.571m9.722-2.534a6.735,6.735,0,0,0-4.5-1.064l-8.07-39.8a6.8,6.8,0,0,0,2.135-2.23l17.3,6.486a6.009,6.009,0,0,0-.03.608,6.774,6.774,0,0,0,5.445,6.641A55.835,55.835,0,0,1,107.62,99.246" transform="translate(0 0.001)" fill="#1e535a"/>
        </g>
      </g>
    </g>
    <g id="Elipse_13614" data-name="Elipse 13614" transform="translate(210.273 4348.213)" fill="#fff" stroke="#1e535a" stroke-width="3">
      <ellipse cx="39.732" cy="39.733" rx="39.732" ry="39.733" stroke="none"/>
      <ellipse cx="39.732" cy="39.733" rx="38.232" ry="38.233" fill="none"/>
    </g>
    <g id="Grupo_1211525" data-name="Grupo 1211525" transform="translate(229.462 4367.423)">
      <g id="Grupo_1211524" data-name="Grupo 1211524" clip-path="url(#clip-path-2)">
        <path id="Trazado_1274080" data-name="Trazado 1274080" d="M111.621,128.151a1.3,1.3,0,0,1-.934.415l-8.888-.031,2.587-2.666a3.517,3.517,0,0,0-.094-4.87l-2.48-2.529,5.1-.06v-2.828a7.66,7.66,0,0,1-6.289-9.006,7.651,7.651,0,0,1,15.029.108,7.666,7.666,0,0,1-6.307,8.9l-.005,2.795c.851.214,1.589-.246,2.266.434l3.835,3.852a1.221,1.221,0,0,1-.072,1.739Zm-5.036-18.042a1.241,1.241,0,0,0,1.806,0l2.5-2.507a1.2,1.2,0,0,0,.012-1.725c-1.272-1.284-2.5,1.123-3.472,1.707a1.386,1.386,0,0,0-1.757-.644,1.181,1.181,0,0,0-.422,1.792c.4.5.89.905,1.335,1.373" transform="translate(-87.583 -87.522)" fill="#1e535a"/>
        <path id="Trazado_1274081" data-name="Trazado 1274081" d="M11.105,40.719a1.284,1.284,0,0,1-.962.374l-8.857,0A1.225,1.225,0,0,1,0,39.833v-7.7a1.225,1.225,0,0,1,1.032-1.168l5.414-.01.013-15.73A7.664,7.664,0,0,1,.04,7.01,7.454,7.454,0,0,1,7.71.06a7.44,7.44,0,0,1,7.5,6.462,7.649,7.649,0,0,1-6.347,8.689l0,15.732a9.288,9.288,0,0,1,1.95.128L14.879,35.1a1.242,1.242,0,0,1,.038,1.815ZM6.19,9.814A1.161,1.161,0,0,0,7.847,9.8L10.42,7.231a1.189,1.189,0,0,0-.02-1.739C9.129,4.311,8,6.509,6.965,7.235a1.355,1.355,0,0,0-1.92-.56,1.183,1.183,0,0,0-.161,1.84Z" transform="translate(0 -0.052)" fill="#1e535a"/>
        <path id="Trazado_1274082" data-name="Trazado 1274082" d="M211.949,40.714a1.238,1.238,0,0,1-.894.328l-8.858-.017,2.461-2.507a3.574,3.574,0,0,0,.079-5l-2.541-2.594,5.135-.034,0-15.734a7.646,7.646,0,0,1-6.345-8.694A7.377,7.377,0,0,1,206.261.325a8.123,8.123,0,0,1,5.512.346,7.217,7.217,0,0,1,4.01,4.487,7.65,7.65,0,0,1-6.04,10l.017,15.763a5.914,5.914,0,0,1,1.974.114l4.047,4.016a1.235,1.235,0,0,1,.038,1.79ZM205.864,8.569l1.2,1.184a1.173,1.173,0,0,0,1.677-.011l2.519-2.506a1.221,1.221,0,0,0,.1-1.724,1.192,1.192,0,0,0-1.746-.039L207.935,7.12c-.111.037-.308-.2-.39-.286a1.211,1.211,0,0,0-1.812-.044,1.228,1.228,0,0,0,.13,1.78" transform="translate(-175.098 0)" fill="#1e535a"/>
      </g>
    </g>
  </g>
</svg>
